<svg width="320" height="169" viewBox="0 0 320 169" fill="none" xmlns="http://www.w3.org/2000/svg">
<g clip-path="url(#clip0_5110_23694)">
<rect width="320" height="168.211" rx="12" fill="white"/>
<g opacity="0.94" filter="url(#filter0_f_5110_23694)">
<ellipse cx="39.9995" cy="-83.2894" rx="182.5" ry="136.5" transform="rotate(20.0247 39.9995 -83.2894)" fill="url(#paint0_linear_5110_23694)"/>
<path d="M210.997 -20.9681C198.156 14.265 167.425 39.2404 128.05 51.1057C88.6751 62.9711 40.6876 61.7123 -6.57021 44.4888C-53.828 27.2653 -91.372 -2.64847 -113.878 -37.0669C-136.385 -71.4852 -143.839 -110.378 -130.998 -145.611C-118.157 -180.844 -87.4256 -205.819 -48.0509 -217.684C-8.67604 -229.55 39.3114 -228.291 86.5692 -211.068C133.827 -193.844 171.371 -163.93 193.877 -129.512C216.384 -95.0936 223.838 -56.2012 210.997 -20.9681Z" stroke="black"/>
</g>
<g opacity="0.3">
<path d="M257.982 26.1548C250.255 28.4821 241.913 29.8926 233.22 29.8926C230.673 29.8926 228.127 29.7516 225.668 29.54C224.79 38.0735 226.459 46.466 230.322 54.0827C233.834 54.5059 237.347 54.788 240.947 54.788C247.972 54.788 254.821 53.8712 261.406 52.1786C260.616 50.2744 259.65 48.3702 259.123 46.3955C257.016 39.5545 256.84 32.7136 257.982 26.1548Z" fill="white"/>
<path d="M290.644 37.2275C288.185 30.316 287.483 23.0519 288.449 15.7173C288.976 11.9795 289.941 8.3827 291.346 4.85645C283.795 13.9542 272.995 21.1477 260.35 25.5203C259.033 32.1497 259.209 39.1316 261.141 46.0431C261.667 48.0178 262.458 49.922 263.248 51.7556C265.531 51.1209 267.814 50.3451 270.097 49.4988C278 46.3957 284.936 42.2347 290.644 37.2275Z" fill="white"/>
<path d="M291.435 39.2021C285.64 44.0684 278.879 48.1588 271.152 51.1209C268.869 52.0377 266.498 52.8135 264.127 53.4482C267.903 61.4175 273.874 68.3995 281.425 73.971C291.435 71.5732 300.655 67.3417 308.382 61.5586C306.626 60.1481 304.958 58.5965 303.289 57.045C297.933 51.6146 293.982 45.5494 291.435 39.2021Z" fill="white"/>
<path d="M258.245 24.1098C260.703 13.1078 267.201 2.95225 276.772 -5.01709C266.06 0.272294 253.503 3.16382 240.595 3.16382C239.454 3.16382 238.312 3.16381 237.171 3.09328C232.429 8.66477 228.829 14.9415 226.897 21.853C226.37 23.8277 225.931 25.8024 225.668 27.7066C228.127 27.9181 230.585 28.0592 233.044 28.0592C242 27.9887 250.518 26.5781 258.245 24.1098Z" fill="white"/>
<path d="M211.443 -4.1708C219.258 -1.13822 227.6 0.624916 236.205 1.04807C236.293 1.04807 236.38 1.04807 236.468 1.04807C240.244 -3.11292 244.547 -6.99181 249.639 -10.236C255.259 -13.8327 261.581 -16.5832 268.255 -18.6284C266.235 -18.4874 264.216 -18.4169 262.108 -18.4169C250.166 -18.4169 238.839 -20.8147 228.741 -25.2578C221.365 -21.8726 214.692 -17.4295 209.248 -11.9286C207.667 -10.377 206.262 -8.75494 204.945 -7.06233C207.053 -6.00446 209.16 -5.01711 211.443 -4.1708Z" fill="white"/>
<path d="M234.71 2.88154C226.281 2.31734 218.115 0.483694 210.387 -2.47836C208.104 -3.39519 205.821 -4.38255 203.714 -5.44043C198.358 1.96471 195.284 10.0751 194.582 18.256C203.012 22.9812 212.758 26.0843 223.383 27.3538C223.646 25.3791 224.085 23.3338 224.612 21.3591C226.632 14.7297 230.056 8.52355 234.71 2.88154Z" fill="white"/>
<path d="M326.822 37.6507C320.939 32.2908 316.285 26.0141 313.299 19.0321C311.807 15.5059 310.665 11.9796 310.051 8.38281C309.436 11.9796 308.294 15.5059 306.802 19.0321C303.728 26.0141 299.162 32.2908 293.279 37.6507C295.65 44.0685 299.601 50.2747 305.133 55.8462C306.714 57.3978 308.382 58.8788 310.051 60.2893C311.807 58.8788 313.475 57.3978 314.968 55.8462C320.5 50.2747 324.451 44.0685 326.822 37.6507Z" fill="white"/>
<path d="M328.666 39.2021C326.119 45.5494 322.168 51.6146 316.812 57.045C315.231 58.6671 313.563 60.1481 311.719 61.5586C319.446 67.4122 328.666 71.6437 338.676 73.971C346.227 68.3995 352.198 61.4175 355.974 53.4482C353.603 52.7429 351.232 51.9672 348.949 51.1209C341.222 48.0883 334.461 44.0684 328.666 39.2021Z" fill="white"/>
<path d="M292.488 35.3936C297.669 30.3863 301.796 24.6738 304.606 18.3971C309.084 8.1004 309.611 -2.76046 306.274 -13.0571C292.049 0.483692 287.22 18.6792 292.488 35.3936Z" fill="white"/>
<path d="M315.494 18.3973C318.216 24.7446 322.431 30.4571 327.612 35.3938C332.88 18.6089 328.051 0.41338 313.826 -13.1274C310.489 -2.76025 311.016 8.10063 315.494 18.3973Z" fill="white"/>
<path d="M238.84 1.18929H240.684C262.021 1.18929 282.129 -6.9916 294.773 -20.3914C294.159 -20.3914 293.544 -20.4619 292.929 -20.4619C270.977 -20.4619 251.221 -12.14 238.84 1.18929Z" fill="white"/>
<path d="M260.879 23.1929C280.46 16.0698 295.124 1.68268 299.427 -15.6665C279.406 -8.40242 265.181 6.26682 260.879 23.1929Z" fill="white"/>
<path d="M279.142 74.535C271.591 68.752 265.708 61.77 261.932 54.0122C255.083 55.7753 248.058 56.6922 240.77 56.6922C237.609 56.6922 234.448 56.4806 231.287 56.128C235.414 63.4626 241.385 69.9509 249.024 75.2403C253.239 75.875 257.542 76.2981 262.02 76.2981C267.903 76.2981 273.61 75.6634 279.142 74.535Z" fill="white"/>
<path d="M310.049 62.8281C302.41 68.6112 293.366 72.9132 283.443 75.4521C291.083 80.671 300.127 84.4793 310.049 86.5246C319.971 84.4793 329.016 80.671 336.655 75.4521C326.733 72.9132 317.688 68.6112 310.049 62.8281Z" fill="white"/>
<path d="M192.476 16.9869C193.354 8.87651 196.515 0.836634 201.871 -6.49798C201.871 -6.49798 201.871 -6.49798 201.784 -6.49798C193.091 -11.0821 185.89 -17.2178 180.622 -24.3408C179.217 -22.1545 177.9 -19.8977 176.934 -17.4999C174.651 -12.2105 173.422 -6.78005 173.158 -1.34962C177.812 5.84394 184.485 12.1207 192.476 16.9869Z" fill="white"/>
<path d="M223.296 29.2583C212.847 28.0594 203.013 25.0268 194.583 20.5132C194.32 28.4825 196.164 36.3813 200.203 43.716C208.281 48.5822 217.589 51.9674 227.511 53.5895C223.911 45.9727 222.418 37.7213 223.296 29.2583Z" fill="white"/>
<path d="M320.675 -15.6666C319.885 -15.9487 319.007 -16.1603 318.217 -16.4424C318.744 -13.974 319.534 -11.5056 320.412 -9.10776C324.012 -4.80573 326.822 -0.151077 328.842 4.85621C336.393 13.9539 347.193 21.1475 359.838 25.5201C359.662 24.7443 359.486 24.039 359.311 23.2633C339.642 16.0697 324.978 1.68258 320.675 -15.6666Z" fill="url(#paint1_linear_5110_23694)"/>
<path d="M297.494 -20.2505C296.616 -20.3211 295.65 -20.3211 294.772 -20.3916C282.128 -6.99183 262.02 1.18907 240.682 1.18907H238.838C238.312 1.75327 237.785 2.38801 237.258 3.02274C238.399 3.09326 239.541 3.09325 240.682 3.09325C253.59 3.09325 266.147 0.201719 276.859 -5.08766C281.074 -8.61392 285.903 -11.717 291.26 -14.2559C293.543 -16.1601 295.562 -18.1348 297.494 -20.2505Z" fill="url(#paint2_linear_5110_23694)"/>
<path d="M234.711 2.88154C235.238 2.24681 235.853 1.68262 236.467 1.0479C236.379 1.0479 236.292 1.0479 236.204 1.0479C227.599 0.624749 219.257 -1.13839 211.442 -4.17097C209.159 -5.01727 207.052 -6.00462 204.944 -7.0625C204.505 -6.4983 204.154 -5.9341 203.803 -5.44043C205.91 -4.38255 208.193 -3.39518 210.476 -2.47836C218.115 0.483698 226.282 2.31734 234.711 2.88154Z" fill="#ED0677" fill-opacity="0.6"/>
<path d="M301.971 -16.4424C301.18 -16.1603 300.302 -15.9487 299.512 -15.6666C295.209 1.68258 280.545 16.0697 260.964 23.1927C260.789 23.9685 260.613 24.6738 260.438 25.4496C273.082 21.1475 283.882 13.8834 291.434 4.78569C293.365 -0.151066 296.263 -4.87625 299.863 -9.17828C300.741 -11.5056 301.444 -13.974 301.971 -16.4424Z" fill="url(#paint3_linear_5110_23694)"/>
<path d="M194.67 18.3267C194.582 19.0319 194.582 19.8077 194.582 20.5129C203.012 25.0266 212.846 28.0591 223.295 29.2581C223.383 28.6233 223.383 27.9886 223.471 27.4244C212.846 26.155 203.099 22.9813 194.67 18.3267Z" fill="#ED0677" fill-opacity="0.6"/>
<path d="M257.981 26.1551C258.069 25.4498 258.157 24.7446 258.333 24.1099C250.518 26.6488 242.088 28.0593 233.219 28.0593C230.761 28.0593 228.214 27.9182 225.844 27.7067C225.756 28.3414 225.756 28.9761 225.668 29.5403C228.127 29.7519 230.673 29.8929 233.219 29.8929C241.912 29.8929 250.254 28.553 257.981 26.1551Z" fill="#ED0677" fill-opacity="0.6"/>
<path d="M192.3 19.2437C192.388 18.4679 192.388 17.7627 192.476 16.9869C184.485 12.1207 177.812 5.91448 173.158 -1.34961C173.07 -0.0801572 173.158 1.18927 173.158 2.45873C178.075 9.01756 184.573 14.7301 192.3 19.2437Z" fill="#ED0677" fill-opacity="0.6"/>
<path d="M227.511 53.5893C217.501 51.9672 208.194 48.5821 200.203 43.7158C200.818 44.9147 201.52 46.1137 202.31 47.2421C210.213 51.4736 219.17 54.2946 228.565 55.7051C228.214 54.9998 227.775 54.2946 227.511 53.5893Z" fill="#ED0677" fill-opacity="0.6"/>
<path d="M291.436 39.2023C291.173 38.5675 290.909 37.8623 290.646 37.2275C284.939 42.2348 278.002 46.3958 270.099 49.4284C267.816 50.2747 265.621 51.0505 263.25 51.6852C263.513 52.2494 263.777 52.8841 264.04 53.4483C266.411 52.7431 268.782 51.9673 271.065 51.121C278.88 48.0884 285.729 44.0685 291.436 39.2023Z" fill="#ED0677" fill-opacity="0.6"/>
<path d="M310.05 -7.34458C309.611 -9.81296 308.996 -12.2813 308.118 -14.6792C307.503 -14.1855 306.889 -13.6213 306.274 -13.1276C309.611 -2.83097 309.084 8.10042 304.606 18.3266C301.884 24.6738 297.669 30.3864 292.488 35.3231C292.752 36.0284 292.927 36.8041 293.279 37.5094C299.162 32.1495 303.815 25.8728 306.801 18.8908C308.294 15.3645 309.435 11.8382 310.05 8.24146C309.084 3.16365 309.172 -2.12572 310.05 -7.34458Z" fill="url(#paint4_linear_5110_23694)"/>
<path d="M240.859 54.8587C237.259 54.8587 233.747 54.5766 230.234 54.1535C230.586 54.8587 231.025 55.4935 231.376 56.1987C234.537 56.5514 237.698 56.7629 240.859 56.7629C248.147 56.7629 255.172 55.7756 262.021 54.083C261.757 53.5188 261.582 52.884 261.318 52.3198C254.645 53.8714 247.796 54.8587 240.859 54.8587Z" fill="#ED0677" fill-opacity="0.6"/>
<path d="M173.158 -1.34986C172.455 -2.40774 171.753 -3.53615 171.138 -4.66455C170.963 -3.3951 170.875 -2.19618 170.787 -0.926728C171.49 0.201674 172.28 1.33007 173.158 2.45847C173.07 1.18902 173.07 -0.0804095 173.158 -1.34986Z" fill="#ED0677" fill-opacity="0.6"/>
<path d="M314.616 -15.1021C314.353 -14.3968 314.002 -13.7621 313.826 -13.0568C328.051 0.484009 332.88 18.6795 327.612 35.4645C328.227 36.0287 328.841 36.6634 329.456 37.2276C331.915 30.3161 332.617 23.052 331.651 15.7174C331.124 11.9796 330.158 8.3828 328.753 4.85655C325.153 0.554513 322.344 -4.10014 320.324 -9.10743C318.656 -11.2232 316.724 -13.2684 314.616 -15.1021Z" fill="url(#paint5_linear_5110_23694)"/>
<path d="M203.716 -5.44016C203.101 -5.79278 202.399 -6.0749 201.784 -6.49805C196.428 0.836565 193.267 8.80592 192.389 16.9868C193.091 17.41 193.881 17.9036 194.584 18.3268C195.374 10.0754 198.36 1.96498 203.716 -5.44016Z" fill="#ED0677" fill-opacity="0.6"/>
<path d="M194.583 20.5131C193.792 20.09 193.09 19.6668 192.3 19.2437C191.861 26.8604 193.353 34.4066 196.602 41.5296C197.744 42.3054 198.973 43.0106 200.115 43.7159C196.163 36.3813 194.319 28.4824 194.583 20.5131Z" fill="#ED0677" fill-opacity="0.6"/>
<path d="M308.381 61.5586C300.654 67.4122 291.434 71.6437 281.424 73.971C282.126 74.4647 282.829 74.9584 283.531 75.452C293.366 72.9131 302.41 68.6111 310.049 62.828C309.522 62.4049 308.908 61.9817 308.381 61.5586Z" fill="#ED0677" fill-opacity="0.6"/>
<path d="M281.161 76.0162C280.459 75.5225 279.844 75.0288 279.229 74.5352C273.698 75.6636 267.99 76.3688 262.107 76.3688C257.717 76.3688 253.414 75.9457 249.111 75.3109C250.253 76.0867 251.482 76.8625 252.711 77.6383C255.785 77.9909 258.858 78.273 262.019 78.273C268.605 78.2025 275.015 77.3562 281.161 76.0162Z" fill="#ED0677" fill-opacity="0.6"/>
<path d="M328.666 39.202C328.051 38.7083 327.437 38.2146 326.822 37.6504C324.451 44.0682 320.5 50.2744 314.968 55.8459C313.387 57.3974 311.719 58.8784 310.051 60.2889C310.578 60.7121 311.192 61.1352 311.719 61.5584C313.475 60.1479 315.144 58.5963 316.812 57.0448C322.168 51.6144 326.12 45.5492 328.666 39.202Z" fill="#ED0677" fill-opacity="0.6"/>
<path d="M192.474 16.9868C192.387 17.7626 192.387 18.4678 192.299 19.2436C193.089 19.6668 193.792 20.1604 194.582 20.5131C194.582 19.8078 194.582 19.032 194.67 18.3268C193.879 17.9036 193.177 17.41 192.474 16.9868Z" fill="#ED0677" fill-opacity="0.6"/>
<path d="M200.114 43.7156C198.885 43.0103 197.743 42.3051 196.602 41.5293C197.128 42.6577 197.655 43.7861 198.27 44.9145C199.587 45.6903 200.904 46.5366 202.221 47.2418C201.519 46.1134 200.816 44.9145 200.114 43.7156Z" fill="#ED0677" fill-opacity="0.6"/>
<path d="M339.027 76.0163C338.237 75.8048 337.447 75.6637 336.657 75.4521C329.017 80.671 319.973 84.4794 310.051 86.5246C311.544 86.8067 313.036 87.0888 314.617 87.3004C322.432 85.2551 329.808 82.152 336.305 77.9911C337.271 77.4269 338.061 76.6511 339.027 76.0163Z" fill="#ED0677" fill-opacity="0.6"/>
<path d="M292.839 -20.4623C293.454 -20.4623 294.069 -20.3917 294.683 -20.3917C295.21 -21.0264 295.737 -21.5201 296.264 -22.1548C295.122 -22.2254 293.893 -22.2959 292.752 -22.2959C290.82 -22.2959 288.888 -22.2254 287.044 -22.0843C287.044 -22.0843 286.956 -22.0843 286.956 -22.0138C286.868 -22.0138 286.781 -22.0138 286.781 -22.0138C280.81 -20.1802 274.663 -18.9812 268.253 -18.5581C268.165 -18.6286 268.165 -18.5581 268.165 -18.5581C261.492 -16.5128 255.17 -13.7624 249.55 -10.1656C244.457 -6.92142 240.155 -3.04255 236.379 1.11843C237.169 1.18896 237.959 1.18896 238.75 1.25949C251.218 -12.1403 270.975 -20.4623 292.839 -20.4623Z" fill="url(#paint6_linear_5110_23694)"/>
<path d="M231.286 56.1282C230.321 56.0577 229.442 55.8461 228.477 55.7051C232.164 62.6871 237.521 68.9638 244.282 74.2532C245.863 74.6058 247.355 74.9584 249.024 75.2405C241.472 69.9511 235.413 63.4628 231.286 56.1282Z" fill="#ED0677" fill-opacity="0.6"/>
<path d="M225.579 29.5404C224.789 29.4699 224.087 29.3288 223.296 29.2583C222.418 37.7213 223.911 46.0433 227.511 53.66C228.389 53.801 229.267 54.0126 230.233 54.1537C226.37 46.4664 224.701 38.0739 225.579 29.5404Z" fill="#ED0677" fill-opacity="0.6"/>
<path d="M237.258 3.02289C236.38 3.02289 235.59 2.95236 234.712 2.88184C230.058 8.52385 226.634 14.73 224.702 21.3594C224.175 23.3341 223.736 25.3794 223.473 27.3541C224.263 27.4246 224.965 27.5656 225.756 27.6361C226.019 25.6614 226.458 23.7573 226.985 21.7826C228.917 14.8711 232.517 8.59437 237.258 3.02289Z" fill="#ED0677" fill-opacity="0.6"/>
<path d="M236.467 1.04785C235.94 1.68258 235.238 2.24677 234.711 2.88149C235.589 2.95202 236.379 3.02255 237.257 3.02255C237.784 2.38782 238.311 1.75308 238.838 1.18888C238.048 1.11835 237.257 1.11838 236.467 1.04785Z" fill="#ED0677" fill-opacity="0.6"/>
<path d="M225.754 27.6361C224.963 27.5656 224.261 27.4245 223.471 27.354C223.383 27.9887 223.383 28.6234 223.295 29.1876C224.085 29.2582 224.788 29.3992 225.578 29.4698C225.666 28.9056 225.666 28.2708 225.754 27.6361Z" fill="#ED0677" fill-opacity="0.6"/>
<path d="M227.51 53.5894C227.861 54.2946 228.212 54.9999 228.563 55.7051C229.529 55.8462 230.407 56.0577 231.373 56.1283C231.022 55.423 230.583 54.7883 230.232 54.083C229.266 53.942 228.388 53.7304 227.51 53.5894Z" fill="#ED0677" fill-opacity="0.6"/>
<path d="M249.111 75.2403C247.53 74.9582 245.95 74.6056 244.369 74.2529C245.511 75.1698 246.74 76.0866 248.057 76.9329C249.638 77.215 251.13 77.356 252.711 77.5676C251.482 76.7918 250.252 76.0161 249.111 75.2403Z" fill="#ED0677" fill-opacity="0.6"/>
<path d="M260.35 25.4497C259.56 25.7318 258.682 25.9434 257.891 26.1549C256.75 32.7138 256.926 39.5547 258.945 46.3956C259.472 48.3703 260.438 50.2746 261.228 52.1787C261.931 52.0377 262.545 51.8966 263.248 51.685C262.457 49.8514 261.755 47.9472 261.14 45.9725C259.209 39.0611 259.033 32.0791 260.35 25.4497Z" fill="#ED0677" fill-opacity="0.6"/>
<path d="M264.127 53.4482C263.424 53.6598 262.722 53.8009 262.02 53.9419C265.707 61.7702 271.678 68.6817 279.23 74.4648C280.02 74.3237 280.723 74.1121 281.425 73.9711C273.874 68.3996 267.903 61.4176 264.127 53.4482Z" fill="#ED0677" fill-opacity="0.6"/>
<path d="M281.162 76.0161C282.128 76.6509 282.918 77.4266 283.884 78.0614C290.382 82.1518 297.758 85.2549 305.573 87.3707C307.065 87.1591 308.646 86.877 310.139 86.5949C300.216 84.5497 291.172 80.7413 283.533 75.5225C282.743 75.6635 281.952 75.8046 281.162 76.0161Z" fill="#ED0677" fill-opacity="0.6"/>
<path d="M299.514 -15.6665C299.69 -16.3717 299.777 -17.077 299.953 -17.7822C296.968 -16.7243 293.982 -15.5959 291.26 -14.256L291.172 -14.1854C287.045 -10.6592 282.216 -7.62662 277.035 -5.08771C277.035 -5.15824 276.947 -5.08771 276.947 -5.08771C267.376 2.88162 260.879 13.0372 258.42 24.0392C259.298 23.7571 260.176 23.475 261.054 23.1223C265.181 6.26683 279.406 -8.40239 299.514 -15.6665Z" fill="url(#paint7_linear_5110_23694)"/>
<path d="M258.244 24.1097C258.068 24.8149 258.068 25.5202 257.893 26.1549C258.683 25.8728 259.561 25.7318 260.351 25.4497C260.527 24.6739 260.702 23.9686 260.878 23.1929C260 23.475 259.21 23.8276 258.244 24.1097Z" fill="#ED0677" fill-opacity="0.6"/>
<path d="M263.336 51.6851C262.634 51.8966 262.019 52.0377 261.316 52.1788C261.58 52.743 261.755 53.3777 262.019 53.9419C262.721 53.7303 263.424 53.5892 264.126 53.4482C263.775 52.884 263.512 52.3198 263.336 51.6851Z" fill="#ED0677" fill-opacity="0.6"/>
<path d="M279.141 74.5349C279.755 75.0286 280.458 75.5222 281.072 76.0159C281.863 75.8043 282.653 75.6633 283.443 75.4517C282.741 74.958 282.038 74.4644 281.336 73.9707C280.633 74.1823 279.931 74.3233 279.141 74.5349Z" fill="#ED0677" fill-opacity="0.6"/>
<path d="M310.05 86.5244C308.558 86.8065 307.065 87.0886 305.484 87.3002C306.977 87.7233 308.47 88.076 310.05 88.3581C311.543 88.076 313.124 87.6528 314.616 87.3002C313.036 87.0886 311.543 86.8065 310.05 86.5244Z" fill="#ED0677" fill-opacity="0.6"/>
<path d="M306.275 -13.0568C306.011 -13.7621 305.748 -14.4673 305.485 -15.1021C303.377 -13.1979 301.445 -11.2232 299.689 -9.10743C297.67 -4.10014 294.86 0.554513 291.26 4.85655C289.855 8.3828 288.889 11.9796 288.362 15.7174C287.308 23.052 288.099 30.3161 290.557 37.2276C291.172 36.6634 291.787 36.0287 292.489 35.4645C287.221 18.6795 292.05 0.484009 306.275 -13.0568Z" fill="url(#paint8_linear_5110_23694)"/>
<path d="M293.278 37.6504C292.663 38.2146 292.048 38.7083 291.434 39.202C293.98 45.5492 297.931 51.6144 303.288 57.0448C304.868 58.6669 306.537 60.1479 308.381 61.5584C308.907 61.1352 309.522 60.7121 310.049 60.2889C308.293 58.8784 306.624 57.3974 305.132 55.8459C299.6 50.2744 295.648 44.0682 293.278 37.6504Z" fill="#ED0677" fill-opacity="0.6"/>
<path d="M311.807 61.5586C311.28 61.9817 310.666 62.4049 310.139 62.828C317.778 68.6111 326.822 72.9131 336.744 75.452C337.447 74.9584 338.149 74.4647 338.852 73.971C328.666 71.5732 319.446 67.4122 311.807 61.5586Z" fill="#ED0677" fill-opacity="0.6"/>
<path d="M291.348 4.78575C294.948 0.483716 297.758 -4.17094 299.777 -9.17822C296.177 -4.80567 293.367 -0.151011 291.348 4.78575Z" fill="#E7E7E7"/>
<path d="M290.645 37.2275C290.908 37.9327 291.171 38.5675 291.435 39.2022C292.049 38.7085 292.664 38.2148 293.279 37.6506C293.015 36.9454 292.752 36.1696 292.488 35.4644C291.874 36.0286 291.259 36.5928 290.645 37.2275Z" fill="#ED0677" fill-opacity="0.6"/>
<path d="M311.805 61.5585C311.279 61.1354 310.664 60.7122 310.137 60.2891C309.61 60.7122 308.996 61.1354 308.469 61.5585C308.996 61.9817 309.61 62.4048 310.137 62.828C310.664 62.4048 311.191 61.9817 311.805 61.5585Z" fill="#ED0677" fill-opacity="0.6"/>
<path d="M315.495 18.3974C311.017 8.10069 310.49 -2.76017 313.827 -13.0568C313.212 -13.621 312.597 -14.1147 311.983 -14.6084C311.104 -12.2105 310.49 -9.74216 310.051 -7.27378C310.929 -2.05492 311.017 3.16394 310.051 8.45332C310.665 12.0501 311.807 15.5763 313.3 19.1026C316.373 26.0846 320.939 32.3613 326.822 37.7212C327.085 37.016 327.349 36.2402 327.612 35.535C322.432 30.4572 318.217 24.7446 315.495 18.3974Z" fill="url(#paint9_linear_5110_23694)"/>
<path d="M310.051 -7.34473C309.173 -2.12587 309.085 3.09299 310.051 8.38237C311.017 3.16351 311.017 -2.12587 310.051 -7.34473Z" fill="url(#paint10_linear_5110_23694)"/>
<path d="M318.838 -12.5852C318.154 -13.0101 317.364 -13.3832 316.68 -13.8081C316.461 -11.3099 316.498 -8.76138 316.641 -6.26461C318.865 -1.39858 320.217 3.6591 320.697 8.90843C325.339 19.1871 333.701 28.2364 344.689 34.8975C344.748 34.1105 344.786 33.3919 344.845 32.6048C327.869 21.8624 317.883 5.08817 318.838 -12.5852Z" fill="url(#paint11_linear_5110_23694)"/>
<path d="M370.89 15.0704C350.249 11.0137 333.33 -0.806522 324.993 -16.1677C324.055 -16.3521 323.181 -16.4512 322.222 -16.5671C323.451 -14.0747 324.978 -11.669 326.632 -9.38353C330.913 -5.92836 334.536 -2.09423 337.543 1.98183C346.489 9.11301 357.703 14.4391 370.241 16.9033C371.35 17.1212 372.5 17.2021 373.609 17.42C373.264 16.7714 373.026 16.0711 372.596 15.4057C372.105 15.2366 371.487 15.1878 370.89 15.0704Z" fill="url(#paint12_linear_5110_23694)"/>
<path d="M297.679 -21.4634C296.847 -21.6996 295.909 -21.884 295.077 -22.1201C278.829 -11.5183 256.876 -7.41067 236.151 -11.4842L234.36 -11.8362C233.681 -11.3887 232.981 -10.8728 232.282 -10.3568C233.37 -10.0704 234.478 -9.85247 235.587 -9.63455C248.125 -7.17034 261.177 -7.58184 273.148 -10.6745C278.286 -13.2951 283.895 -15.3872 289.849 -16.8308C292.63 -18.2446 295.176 -19.7771 297.679 -21.4634Z" fill="url(#paint13_linear_5110_23694)"/>
<path d="M300.901 -16.9093C300.05 -16.7862 299.135 -16.7483 298.284 -16.6252C288.97 -0.594603 270.469 10.5807 249.341 13.7614C248.94 14.4814 248.561 15.1329 248.161 15.8529C261.716 14.0881 274.357 9.09411 284.384 1.69876C287.722 -2.72772 291.935 -6.76429 296.705 -10.2557C298.246 -12.3487 299.659 -14.6123 300.901 -16.9093Z" fill="url(#paint14_linear_5110_23694)"/>
<path d="M186.386 -3.62142C186.092 -2.95314 185.862 -2.19959 185.654 -1.51455C192.506 4.47897 201.161 9.30214 210.956 12.4615C211.229 11.8618 211.417 11.2452 211.669 10.714C201.725 7.45253 193.197 2.50912 186.386 -3.62142Z" fill="#ED0677" fill-opacity="0.6"/>
<path d="M245.565 16.0686C245.859 15.4003 246.153 14.7321 246.512 14.149C238.169 15.1233 229.564 14.8841 220.949 13.191C218.561 12.7216 216.13 12.0984 213.889 11.4403C213.616 12.0401 213.428 12.6566 213.176 13.1879C215.502 13.8628 217.933 14.4859 220.407 14.9721C228.851 16.6316 237.35 16.9226 245.565 16.0686Z" fill="#ED0677" fill-opacity="0.6"/>
<path d="M207.848 36.8996C198.605 33.413 190.566 28.3479 184.244 22.0957C184.486 23.3776 184.814 24.6763 185.248 25.9232C191.671 31.5421 199.536 35.9922 208.245 39.1559C208.113 38.4038 207.895 37.635 207.848 36.8996Z" fill="#ED0677" fill-opacity="0.6"/>
<path d="M274.198 35.1287C274.13 34.4619 274.083 33.7266 274.015 33.0598C266.989 36.8339 259.02 39.5513 250.446 40.9883C247.978 41.3745 245.616 41.709 243.126 41.8729C243.215 42.4712 243.283 43.138 243.372 43.7364C245.883 43.5039 248.416 43.203 250.884 42.8168C259.372 41.3631 267.214 38.7659 274.198 35.1287Z" fill="#ED0677" fill-opacity="0.6"/>
<path d="M306.056 -6.52976C306.36 -9.01121 306.493 -11.5262 306.35 -14.023C305.607 -13.6608 304.843 -13.2301 304.1 -12.8679C304.293 -2.22933 300.547 8.28818 293.17 17.3663C288.648 23.012 282.863 27.7562 276.37 31.5624C276.417 32.2977 276.358 33.0848 276.491 33.8369C283.792 29.7538 290.17 24.5454 295.136 18.3334C297.629 15.1932 299.782 11.9859 301.443 8.60959C302.008 3.49292 303.658 -1.62811 306.056 -6.52976Z" fill="url(#paint15_linear_5110_23694)"/>
<path d="M220.438 40.681C216.941 39.9937 213.613 39.0492 210.326 37.9676C210.459 38.7197 210.698 39.4201 210.83 40.1722C213.796 41.1182 216.804 41.9272 219.874 42.5306C226.954 43.922 234.069 44.304 241.223 43.9675C241.134 43.3691 241.151 42.7191 241.062 42.1207C234.121 42.3538 227.176 42.0053 220.438 40.681Z" fill="#ED0677" fill-opacity="0.6"/>
<path d="M312.787 -13.1939C312.323 -12.5591 311.794 -12.0096 311.414 -11.3581C321.224 4.5103 320.53 23.1063 310.446 38.4044C310.876 39.0698 311.285 39.8036 311.715 40.469C316.148 34.225 318.98 27.3032 320.213 19.9944C320.807 16.2631 320.934 12.585 320.612 8.89162C318.389 4.02559 317.037 -1.03209 316.557 -6.28142C315.563 -8.65504 314.291 -11.0104 312.787 -13.1939Z" fill="url(#paint16_linear_5110_23694)"/>
<path d="M185.653 -1.5145C185.011 -2.07639 184.454 -2.62152 183.811 -3.18342C181.131 4.13119 180.347 11.7461 181.395 19.2852C182.274 20.2567 183.26 21.1764 184.16 22.0794C182.492 14.2006 183.039 6.17615 185.653 -1.5145Z" fill="#ED0677" fill-opacity="0.6"/>
<path d="M284.044 60.0799C274.806 64.2906 264.598 66.6407 254.186 66.9903C254.722 67.6039 255.258 68.2175 255.795 68.8312C266.099 68.2425 276.157 65.7904 285.289 61.6315C284.902 61.1199 284.43 60.5915 284.044 60.0799Z" fill="#ED0677" fill-opacity="0.6"/>
<path d="M253.324 68.9263C252.788 68.3127 252.337 67.7158 251.886 67.119C246.178 67.1589 240.426 66.7544 234.711 65.6312C230.447 64.793 226.393 63.5606 222.401 62.1227C223.28 63.0942 224.245 64.0824 225.209 65.0706C228.09 65.9998 230.992 66.8606 234.063 67.464C240.48 68.6528 246.957 69.0545 253.324 68.9263Z" fill="#ED0677" fill-opacity="0.6"/>
<path d="M310.363 42.2362C309.912 41.6393 309.461 41.0425 309.031 40.3771C304.829 46.1583 299.154 51.4323 292.132 55.788C290.137 56.9934 288.079 58.1135 286.041 59.165C286.427 59.6766 286.899 60.205 287.285 60.7166C289.409 59.6818 291.488 58.4932 293.568 57.3046C300.378 53.0524 306.011 47.9154 310.363 42.2362Z" fill="#ED0677" fill-opacity="0.6"/>
<path d="M320.634 8.82344C320.218 3.65937 318.802 -1.48358 316.578 -6.34961C317.058 -1.10028 318.474 4.04267 320.634 8.82344Z" fill="url(#paint17_linear_5110_23694)"/>
<path d="M184.159 22.0788C183.174 21.1591 182.274 20.2561 181.395 19.2847C181.572 20.4813 181.75 21.6779 182.013 22.8913C183.063 23.8963 184.092 24.9699 185.163 25.9063C184.814 24.6762 184.487 23.3775 184.159 22.0788Z" fill="#ED0677" fill-opacity="0.6"/>
<path d="M319.037 -14.7241C318.999 -14.0056 318.876 -13.3038 318.837 -12.5852C336.219 -1.69049 345.695 15.274 344.78 32.5196C345.55 32.9612 346.298 33.4714 347.068 33.913C347.956 22.6885 344.565 11.5667 337.627 1.99857C333.41 -1.37134 329.702 -5.22224 326.716 -9.3668C324.34 -11.3586 321.795 -13.0931 319.037 -14.7241Z" fill="url(#paint18_linear_5110_23694)"/>
<path d="M309.532 79.9735C308.827 79.6171 308.101 79.3292 307.396 78.9728C298.431 82.5837 288.519 84.5563 278.276 84.6487C279.642 85.2077 281.009 85.7666 282.481 86.2739C290.678 85.7792 298.76 84.1732 306.303 81.3719C307.409 81.0083 308.406 80.4056 309.532 79.9735Z" fill="#ED0677" fill-opacity="0.6"/>
<path d="M309.88 77.9366C310.52 78.2077 311.225 78.5641 311.866 78.8352C320.912 74.6595 328.693 69.0008 334.656 62.1862C334.037 61.8466 333.396 61.5754 332.756 61.3043C326.644 68.3077 318.863 73.9665 309.88 77.9366Z" fill="#ED0677" fill-opacity="0.6"/>
<path d="M210.766 40.0871C209.849 39.8342 209.059 39.4611 208.162 39.1396C209.678 46.6256 213.023 53.745 218.025 60.1736C219.456 60.8178 220.802 61.4453 222.339 62.0378C216.569 55.4584 212.604 47.9994 210.766 40.0871Z" fill="#ED0677" fill-opacity="0.6"/>
<path d="M213.089 13.1713C212.343 12.9519 211.702 12.6808 210.955 12.4614C207.598 20.5143 206.585 28.8827 207.828 36.9684C208.639 37.2731 209.429 37.6462 210.326 37.9676C208.848 29.7631 209.711 21.2926 213.089 13.1713Z" fill="#ED0677" fill-opacity="0.6"/>
<path d="M232.281 -10.3566C231.428 -10.5243 230.681 -10.7436 229.849 -10.9798C223.659 -6.38793 218.496 -1.01336 214.657 5.05721C213.561 6.87474 212.53 8.77755 211.689 10.6454C212.436 10.8647 213.077 11.1358 213.823 11.3552C214.664 9.4874 215.654 7.72162 216.75 5.90409C220.672 -0.440495 226.026 -5.85005 232.281 -10.3566Z" fill="#ED0677" fill-opacity="0.6"/>
<path d="M213.824 11.3552C213.078 11.1358 212.437 10.8647 211.69 10.6454C211.417 11.2451 211.229 11.8616 210.977 12.3929C211.724 12.6123 212.364 12.8834 213.111 13.1028C213.363 12.5715 213.551 11.955 213.824 11.3552Z" fill="#ED0677" fill-opacity="0.6"/>
<path d="M207.848 36.8999C207.98 37.652 208.113 38.4041 208.245 39.1562C209.141 39.4776 209.932 39.8507 210.849 40.1036C210.717 39.3515 210.478 38.6512 210.346 37.8991C209.449 37.5777 208.659 37.2045 207.848 36.8999Z" fill="#ED0677" fill-opacity="0.6"/>
<path d="M222.423 62.0542C220.971 61.4785 219.54 60.8342 218.109 60.1899C218.947 61.2984 219.87 62.4237 220.898 63.4972C222.35 64.0729 223.759 64.4949 225.231 65.0022C224.267 64.0139 223.302 63.0257 222.423 62.0542Z" fill="#ED0677" fill-opacity="0.6"/>
<path d="M248.076 15.8362C247.225 15.9593 246.309 15.9972 245.479 16.0518C242.429 22.2048 240.575 28.8832 240.512 35.9136C240.44 37.9323 240.814 39.9663 241.018 41.9668C241.742 41.9639 242.381 41.9442 243.126 41.8728C242.901 39.9408 242.782 37.9571 242.77 35.9217C242.939 28.8395 244.834 22.0241 248.076 15.8362Z" fill="#ED0677" fill-opacity="0.6"/>
<path d="M243.457 43.7529C242.712 43.8243 241.988 43.8272 241.264 43.8301C242.53 52.1381 246.284 59.9914 251.908 67.0504C252.717 67.0642 253.462 66.9928 254.186 66.9899C248.5 60.1365 244.766 52.2147 243.457 43.7529Z" fill="#ED0677" fill-opacity="0.6"/>
<path d="M253.325 68.9263C254.075 69.7272 254.613 70.6316 255.363 71.4326C260.464 76.6463 266.711 81.0686 273.675 84.6156C275.188 84.6951 276.807 84.7228 278.34 84.7338C269.307 80.8529 261.649 75.4271 255.774 68.8994C254.964 68.8855 254.155 68.8717 253.325 68.9263Z" fill="#ED0677" fill-opacity="0.6"/>
<path d="M298.284 -16.625C298.664 -17.2766 298.958 -17.9448 299.337 -18.5963C296.124 -18.1387 292.89 -17.6126 289.85 -16.8307L289.743 -16.779C284.691 -14.1416 279.103 -12.118 273.319 -10.6409C273.34 -10.7094 273.234 -10.6576 273.234 -10.6576C261.579 -4.7439 252.262 3.88018 246.617 14.0974C247.554 13.991 248.49 13.8846 249.448 13.7098C258.444 -1.87479 276.603 -13.4079 298.284 -16.625Z" fill="url(#paint19_linear_5110_23694)"/>
<path d="M365.678 2.21149C361.069 -2.54235 355.528 -6.60826 349.395 -9.91917C343.571 -11.5721 338.064 -13.6711 333.127 -16.4565C331.207 -16.9791 329.266 -17.4332 327.219 -17.8355C326.11 -18.0534 324.96 -18.1343 323.851 -18.3522C324.175 -17.6351 324.605 -16.9698 325.035 -16.3044C325.547 -16.2038 326.165 -16.155 326.676 -16.0544C347.914 -11.8803 364.662 -0.093604 372.744 15.2173C373.511 15.3681 374.3 15.4505 375.088 15.5329C372.611 10.9073 369.579 6.31818 365.678 2.21149Z" fill="url(#paint20_linear_5110_23694)"/>
<path d="M246.425 14.1324C246.046 14.7839 245.837 15.4689 245.479 16.052C246.33 15.9288 247.225 15.9594 248.076 15.8363C248.476 15.1163 248.855 14.4648 249.255 13.7448C248.319 13.8511 247.447 14.0428 246.425 14.1324Z" fill="#ED0677" fill-opacity="0.6"/>
<path d="M243.212 41.8895C242.467 41.9609 241.828 41.9806 241.104 41.9835C241.193 42.5818 241.176 43.2318 241.264 43.8302C242.009 43.7588 242.733 43.7558 243.458 43.7529C243.283 43.1378 243.194 42.5395 243.212 41.8895Z" fill="#ED0677" fill-opacity="0.6"/>
<path d="M251.802 67.1022C252.253 67.6991 252.789 68.3127 253.24 68.9096C254.07 68.8549 254.88 68.8688 255.71 68.8142C255.174 68.2006 254.637 67.5869 254.101 66.9733C253.356 67.0447 252.632 67.0476 251.802 67.1022Z" fill="#ED0677" fill-opacity="0.6"/>
<path d="M278.275 84.6486C276.742 84.6376 275.208 84.6266 273.61 84.5304C274.935 85.2264 276.281 85.8539 277.732 86.4296C279.266 86.4406 280.926 86.3313 282.481 86.2738C281.008 85.7665 279.641 85.2075 278.275 84.6486Z" fill="#ED0677" fill-opacity="0.6"/>
<path d="M311.847 78.9035C311.104 79.2656 310.276 79.6111 309.532 79.9732C315.085 82.5168 320.997 84.4773 327.394 85.7345C330.464 86.338 333.533 86.6507 336.622 86.8949C338.046 86.376 339.47 85.8572 340.808 85.3215C336.526 85.1334 332.222 84.7231 327.872 83.8682C322.243 82.7618 316.887 81.0556 311.847 78.9035Z" fill="#ED0677" fill-opacity="0.6"/>
<path d="M304.079 -12.7996C304.032 -13.5349 303.984 -14.2703 303.916 -14.9371C301.306 -13.4898 298.845 -11.9405 296.513 -10.2207C293.069 -5.74245 288.963 -1.75762 284.193 1.73382C281.784 4.89081 279.782 8.20011 278.164 11.7302C274.97 18.6535 273.587 25.8603 273.93 33.043C274.694 32.6123 275.479 32.1131 276.328 31.6992C276.178 14.3895 286.254 -2.36253 304.079 -12.7996Z" fill="url(#paint21_linear_5110_23694)"/>
<path d="M276.449 33.9736C275.685 34.4043 274.942 34.7665 274.199 35.1287C274.794 41.7802 276.837 48.4258 280.433 54.7232C281.488 56.6005 282.67 58.3576 284.044 60.0797C284.681 59.7693 285.403 59.4756 286.04 59.1652C284.752 57.4598 283.57 55.7027 282.579 53.9106C278.854 47.4427 276.853 40.6601 276.449 33.9736Z" fill="#ED0677" fill-opacity="0.6"/>
<path d="M287.37 60.7335C286.734 61.044 286.011 61.3377 285.374 61.6481C291.083 68.7238 298.595 74.6292 307.482 78.9896C308.31 78.6442 309.138 78.2988 309.967 77.9533C300.783 73.6797 293.059 67.8778 287.37 60.7335Z" fill="#ED0677" fill-opacity="0.6"/>
<path d="M284.299 1.68193C289.069 -1.80951 293.176 -5.79433 296.62 -10.2725C291.829 -6.7126 287.722 -2.72778 284.299 1.68193Z" fill="url(#paint22_linear_5110_23694)"/>
<path d="M274.015 33.0598C274.062 33.7951 274.13 34.4619 274.199 35.1288C274.942 34.7666 275.685 34.4044 276.449 33.9737C276.402 33.2384 276.375 32.4345 276.328 31.6992C275.564 32.1299 274.8 32.5606 274.015 33.0598Z" fill="#ED0677" fill-opacity="0.6"/>
<path d="M287.369 60.7334C286.983 60.2218 286.511 59.6934 286.124 59.1818C285.487 59.4922 284.765 59.7859 284.128 60.0964C284.515 60.608 284.987 61.1363 285.373 61.6479C286.01 61.3375 286.647 61.027 287.369 60.7334Z" fill="#ED0677" fill-opacity="0.6"/>
<path d="M307.397 78.9731C308.102 79.3295 308.828 79.6174 309.533 79.9737C310.361 79.6283 311.104 79.2661 311.848 78.904C311.122 78.6161 310.502 78.2765 309.861 78.0053C309.054 78.2823 308.225 78.6277 307.397 78.9731Z" fill="#ED0677" fill-opacity="0.6"/>
<path d="M311.713 40.4692C311.248 41.104 310.805 41.6702 310.361 42.2365C314.55 48.0696 319.907 53.3336 326.536 57.686C328.482 59.0124 330.555 60.2185 332.671 61.2876C333.093 60.7899 333.516 60.2922 333.96 59.7259C331.93 58.6735 329.942 57.4842 327.975 56.2263C321.282 51.7887 315.86 46.4394 311.713 40.4692Z" fill="#ED0677" fill-opacity="0.6"/>
<path d="M303.725 19.5132C302.423 8.65671 305.125 -1.99346 311.413 -11.358C310.983 -12.0234 310.532 -12.6203 310.081 -13.2171C308.519 -11.0556 307.191 -8.77535 306.034 -6.46153C305.343 -1.2246 303.884 3.86145 301.38 8.81484C300.913 12.4259 300.978 16.069 301.384 19.7792C302.303 27.1478 304.881 34.1163 309.009 40.4457C309.474 39.811 309.959 39.1078 310.424 38.473C306.894 32.5517 304.491 26.1982 303.725 19.5132Z" fill="url(#paint23_linear_5110_23694)"/>
<path d="M306.055 -6.53002C303.657 -1.62837 302.028 3.42415 301.401 8.74634C303.883 3.86145 305.449 -1.27634 306.055 -6.53002Z" fill="url(#paint24_linear_5110_23694)"/>
<path d="M309.031 40.3775C309.461 41.0429 309.912 41.6398 310.363 42.2367C310.806 41.6704 311.271 41.0357 311.715 40.4694C311.285 39.804 310.875 39.0702 310.445 38.4048C309.981 39.0395 309.516 39.6743 309.031 40.3775Z" fill="#ED0677" fill-opacity="0.6"/>
</g>
<path d="M258.949 20.5343C259.212 20.4252 259.436 20.2615 259.7 20.1797C259.594 20.6161 259.542 21.1888 259.08 21.3798C258.369 21.7343 257.552 21.448 256.801 21.407C256.656 21.6389 256.524 21.8707 256.379 22.1025C256.142 21.8707 255.931 21.5843 255.852 21.257C255.944 20.9025 256.076 20.4933 256.445 20.3706C256.88 20.2751 257.301 20.4524 257.723 20.5206C258.145 20.5752 258.553 20.6161 258.949 20.5343ZM266.71 22.3207C268.028 21.7889 269.359 21.257 270.742 20.8752C270.69 21.2843 270.453 21.6252 270.268 21.9935C270.176 22.1435 270.11 22.3344 269.939 22.3753C268.608 22.7981 267.264 23.2072 266.025 23.8754C267.185 25.2255 268.542 26.371 269.807 27.612C270.374 28.1984 271.191 28.4848 271.994 28.4575C272.495 28.4575 272.983 28.3075 273.483 28.2121C273.549 27.5029 272.917 26.9574 272.759 26.3029C273.022 25.8528 273.273 25.3755 273.628 24.98C274.129 25.8392 274.617 26.8211 274.498 27.8711C274.419 28.6757 273.997 29.4803 273.286 29.8486C272.363 30.3259 271.243 30.3122 270.281 29.9577C269.438 29.5622 269.056 28.6485 268.45 27.9802C268.265 28.9212 267.54 29.6713 266.644 29.9167C265.234 30.285 263.732 30.3395 262.309 30.0258C261.558 29.8895 260.846 29.3849 260.569 28.6212C260.187 27.6666 260.438 26.6165 260.714 25.6755C260.846 25.5528 261.031 25.7028 261.189 25.7028C261.176 26.2074 261.044 26.7256 261.228 27.2029C261.426 27.8302 262.045 28.1712 262.625 28.3075C263.719 28.6076 264.878 28.5394 265.985 28.3075C266.539 28.2257 267.079 28.0348 267.58 27.7757C267.079 26.6165 266.091 25.8255 265.274 24.9255C265.063 24.4073 265.063 23.7663 265.313 23.2617C265.59 22.7299 266.196 22.5526 266.71 22.3207ZM274.814 22.6071C275.131 22.2662 275.434 21.8434 275.869 21.6389C276.119 23.5345 276.027 25.4437 276.04 27.3529C276.027 27.7348 276.119 28.2257 276.541 28.3212C277.371 28.5257 278.241 28.4166 279.058 28.2121C279.268 28.1712 279.137 27.9257 279.097 27.803C278.926 27.3393 278.649 26.9165 278.451 26.4529C278.372 26.3029 278.491 26.1392 278.557 26.0165C278.754 25.7028 278.952 25.3755 279.176 25.0755C279.282 25.0073 279.347 25.0209 279.4 25.1437C279.875 26.0437 280.244 27.0529 280.125 28.0893C280.059 28.9212 279.519 29.7531 278.702 29.9713C277.858 30.2031 276.91 30.3259 276.079 29.9577C275.605 29.7667 275.341 29.2622 275.21 28.7712C275.065 28.1303 275.078 27.4757 275.065 26.8211C275.065 25.4164 274.907 24.0254 274.814 22.6071ZM257.987 21.8162C258.118 21.6525 258.329 21.7889 258.276 21.9935C258.369 22.9344 258.395 23.889 258.435 24.8437C258.487 25.7574 258.487 26.6711 258.435 27.5848C258.408 28.1575 258.435 28.7576 258.171 29.2758C257.987 29.6167 257.763 29.9577 257.473 30.2031C257.38 30.1213 257.341 30.0258 257.367 29.8895C257.42 29.1258 257.446 28.3484 257.473 27.5711C257.407 26.4801 257.433 25.3891 257.301 24.2982C257.262 23.7799 257.156 23.2617 257.156 22.7435C257.38 22.4026 257.697 22.1026 257.987 21.8162ZM247.787 23.5754C247.84 23.5754 247.945 23.589 247.998 23.6027C248.288 24.8027 248.525 26.0028 248.723 27.2165C248.815 27.5711 248.947 27.9393 249.223 28.1712C249.83 28.5939 250.66 28.4985 251.279 28.1575C251.688 27.8984 251.767 27.3802 251.964 26.9574C252.136 26.7256 252.412 26.5892 252.676 26.4938C252.584 27.0665 252.373 27.8439 252.966 28.1848C253.888 28.6348 254.943 28.4303 255.891 28.1712C255.812 27.5166 255.377 26.9847 255.114 26.3983C255.312 25.8801 255.641 25.4028 255.997 24.98C256.497 25.8937 257.025 26.9165 256.827 27.9939C256.735 28.7439 256.405 29.5622 255.694 29.8895C254.798 30.2577 253.757 30.3668 252.834 29.9849C252.452 29.8486 252.149 29.5894 251.912 29.2621C251.556 29.644 251.147 29.9986 250.633 30.1213C249.922 30.3531 249.079 30.1486 248.578 29.5622C248.367 29.3303 248.261 29.0303 248.13 28.7439C247.972 29.3713 247.471 29.8758 246.865 30.0258C246.219 30.2168 245.415 30.3122 244.888 29.794C244.321 29.1531 244.427 28.2121 244.44 27.4211C244.611 27.4075 244.796 27.3938 244.967 27.3666C245.046 27.7211 245.112 28.1712 245.494 28.3075C246.232 28.6212 247.089 28.3075 247.708 27.8439C247.774 26.7665 247.326 25.7574 247.049 24.7346C247.234 24.3118 247.537 23.9572 247.787 23.5754ZM240.645 25.1573C240.987 24.7891 240.79 24.2163 241.04 23.7936C241.475 24.0254 241.831 24.38 242.226 24.6664C242.898 25.1982 243.61 25.8255 243.821 26.712C243.939 27.5848 243.807 28.5257 243.307 29.2485C242.621 30.2168 241.106 30.4895 240.197 29.6985C239.67 29.2212 239.512 28.4439 239.564 27.7484C239.564 26.7938 240.052 25.9074 240.645 25.1573ZM240.355 27.2711C240.236 27.7757 240.658 28.2121 241.106 28.3348C241.791 28.5257 242.661 28.3212 243.07 27.6802C242.832 26.8347 242.055 26.3574 241.356 25.9346C240.948 26.3165 240.526 26.7256 240.355 27.2711ZM249.276 26.4938C249.382 26.0847 249.737 25.7437 249.988 25.4028C250.37 25.7028 250.844 25.9756 251.095 26.3983C250.937 26.7529 250.726 27.1211 250.409 27.3257C249.988 27.1347 249.658 26.7665 249.276 26.4938ZM270.571 26.4938C270.69 26.071 271.019 25.7574 271.27 25.4028C271.678 25.6619 272.047 25.9892 272.403 26.3301C272.297 26.7392 272.008 27.0529 271.757 27.3666C271.309 27.1484 270.966 26.7802 270.571 26.4938ZM253.374 30.5031C253.664 30.7213 253.888 31.0077 254.152 31.2532C254.376 31.0077 254.6 30.7623 254.811 30.5031C255.127 30.6804 255.351 30.9805 255.588 31.2532C255.667 31.3623 255.812 31.485 255.76 31.635C255.549 31.9487 255.285 32.2078 254.982 32.426C254.745 32.1805 254.508 31.9351 254.257 31.7032C254.033 31.9623 253.783 32.1942 253.546 32.426C253.177 32.126 252.887 31.7441 252.531 31.4169C252.795 31.1032 253.098 30.8168 253.374 30.5031ZM276.844 31.5669C277.055 31.185 277.305 30.8304 277.582 30.5031C277.99 30.7895 278.385 31.1032 278.728 31.4714C278.544 31.8532 278.306 32.2078 278.003 32.4942C277.621 32.1805 277.226 31.8805 276.844 31.5669Z" fill="#ED0677"/>
<path d="M243.271 40.0036H242.454L242.124 38.749H240.648L240.345 40.0036H239.555L240.991 34.4941H241.782L243.271 40.0036ZM241.887 37.8216L241.373 35.776L240.872 37.8216H241.887Z" fill="#ED0677"/>
<path d="M244.168 40.0036V37.6853L242.811 34.4941H243.68L244.55 36.6761L245.407 34.4941H246.263L244.906 37.6853V39.99H244.168V40.0036Z" fill="#ED0677"/>
<path d="M249.505 40.0036H248.688L248.359 38.749H246.883L246.58 40.0036H245.789L247.225 34.4941H248.016L249.505 40.0036ZM248.121 37.8216L247.608 35.776L247.107 37.8216H248.121Z" fill="#ED0677"/>
<path d="M249.898 40.0036V34.4941H250.623L252.139 38.1762V34.4941H252.837V40.0036H252.086L250.597 36.417V40.0036H249.898Z" fill="#ED0677"/>
<path d="M253.628 34.4941H254.999C255.302 34.4941 255.539 34.5351 255.697 34.6032C255.908 34.6987 256.106 34.8623 256.251 35.1078C256.409 35.3533 256.527 35.6533 256.607 35.9942C256.686 36.3488 256.725 36.7852 256.725 37.2898C256.725 37.7398 256.686 38.1353 256.607 38.4626C256.514 38.8581 256.383 39.1854 256.211 39.4309C256.079 39.6218 255.908 39.7718 255.684 39.8672C255.513 39.9491 255.302 39.99 255.025 39.99H253.615V34.4941H253.628ZM254.366 35.4351V39.0899H254.92C255.131 39.0899 255.276 39.0763 255.368 39.0354C255.486 38.9945 255.592 38.9126 255.671 38.8035C255.75 38.6944 255.816 38.5172 255.869 38.2717C255.921 38.0262 255.948 37.6853 255.948 37.2625C255.948 36.8398 255.921 36.5125 255.869 36.2806C255.816 36.0488 255.75 35.8715 255.658 35.7488C255.566 35.626 255.447 35.5306 255.315 35.4897C255.21 35.4488 255.012 35.4351 254.696 35.4351H254.366Z" fill="#ED0677"/>
<path d="M257.357 40.0036V34.4941H260.098V35.4215H258.109V36.6488H259.967V37.5762H258.109V39.0763H260.177V40.0036H257.357Z" fill="#ED0677"/>
<path d="M260.811 40.0036V34.4941H261.562V36.6625H263.024V34.4941H263.776V40.0036H263.024V37.5898H261.548V40.0036H260.811Z" fill="#ED0677"/>
<path d="M265.977 34.4941H267.452C267.742 34.4941 267.966 34.5078 268.111 34.5487C268.256 34.5896 268.388 34.6578 268.493 34.7805C268.612 34.8896 268.704 35.0533 268.783 35.2442C268.862 35.4351 268.902 35.6533 268.902 35.8852C268.902 36.1443 268.849 36.3761 268.757 36.5943C268.665 36.8125 268.533 36.9761 268.375 37.0852C268.599 37.1807 268.77 37.3443 268.889 37.5898C269.007 37.8217 269.073 38.108 269.073 38.4217C269.073 38.6672 269.034 38.9126 268.955 39.1581C268.876 39.3899 268.77 39.5809 268.638 39.7309C268.507 39.8672 268.335 39.9627 268.138 39.99C268.019 40.0036 267.716 40.0173 267.242 40.0309H265.977V34.4941ZM266.728 35.4078V36.6761H267.215C267.505 36.6761 267.69 36.6761 267.756 36.6625C267.887 36.6352 267.98 36.5807 268.059 36.4716C268.138 36.3625 268.164 36.2124 268.164 36.0352C268.164 35.8715 268.138 35.7215 268.072 35.626C268.006 35.5169 267.914 35.4488 267.795 35.4351C267.716 35.4215 267.505 35.4215 267.163 35.4215H266.728V35.4078ZM266.728 37.6035V39.0763H267.413C267.676 39.0763 267.848 39.0626 267.927 39.049C268.032 39.0217 268.125 38.9399 268.204 38.8308C268.269 38.7081 268.309 38.5581 268.309 38.3671C268.309 38.2035 268.283 38.0671 268.23 37.9444C268.177 37.8353 268.098 37.7398 267.993 37.6989C267.887 37.6444 267.676 37.6171 267.334 37.6171H266.728V37.6035Z" fill="#ED0677"/>
<path d="M273.038 40.0036H272.221L271.892 38.749H270.416L270.113 40.0036H269.322L270.772 34.4941H271.562L273.038 40.0036ZM271.668 37.8216L271.154 35.776L270.653 37.8216H271.668Z" fill="#ED0677"/>
<path d="M273.447 40.0036V34.4941H274.172L275.687 38.1762V34.4941H276.386V40.0036H275.635L274.146 36.417V40.0036H273.447Z" fill="#ED0677"/>
<path d="M277.178 40.0036V34.4941H277.929V36.9489L279.444 34.5078H280.446L279.049 36.6488L280.512 40.0173H279.55L278.535 37.4262L277.929 38.3535V40.0173H277.178V40.0036Z" fill="#ED0677"/>
<path d="M286.897 40.2105H301.616C302.934 40.2105 304.001 39.1059 304.001 37.7422V22.4684C304.001 21.1046 302.934 20 301.616 20H286.897C285.579 20 284.512 21.1046 284.512 22.4684V37.7558C284.512 39.1059 285.579 40.2105 286.897 40.2105Z" fill="#ED0677"/>
<path d="M286.211 20.9C286.712 20.5864 287.318 20.6682 287.885 20.6545C292.405 20.6545 296.911 20.6545 301.431 20.6545C302.486 20.6409 303.434 21.6364 303.434 22.7411C303.434 23.8457 303.434 24.923 303.434 26.014C303.434 26.7504 303.434 27.4459 303.237 28.046C302.973 28.8097 302.406 29.6415 301.642 29.9416C300.786 30.2961 299.863 30.037 299.02 29.7643C297.544 29.2052 296.187 28.3733 294.803 27.6096C293.801 27.0777 292.8 26.4913 291.693 26.2049C290.323 25.9458 288.873 26.3959 287.793 27.3096C286.975 27.9778 286.33 28.8369 285.776 29.7506C285.539 30.1598 285.341 30.5962 285.065 30.978C285.065 28.3051 285.065 25.6322 285.065 22.9593C285.052 22.1137 285.486 21.2819 286.211 20.9Z" fill="white"/>
<path d="M302.29 39.4471C301.789 39.7608 301.183 39.679 300.616 39.6926C296.096 39.6926 291.589 39.6926 287.069 39.6926C286.015 39.7062 285.066 38.7107 285.066 37.6061C285.066 36.5015 285.066 35.4241 285.066 34.3331C285.066 33.5967 285.066 32.9012 285.264 32.3012C285.528 31.5375 286.094 30.7056 286.859 30.4056C287.715 30.051 288.638 30.3101 289.481 30.5829C290.957 31.142 292.314 31.9739 293.698 32.7376C294.699 33.2694 295.701 33.8558 296.808 34.1422C298.178 34.4013 299.628 33.9513 300.708 33.0376C301.525 32.3694 302.171 31.5102 302.724 30.5965C302.962 30.1874 303.159 29.751 303.436 29.3691C303.436 32.0421 303.436 34.715 303.436 37.3879C303.449 38.2334 303.014 39.0653 302.29 39.4471Z" fill="white"/>
</g>
<defs>
<filter id="filter0_f_5110_23694" x="-337.77" y="-425.985" width="755.537" height="685.392" filterUnits="userSpaceOnUse" color-interpolation-filters="sRGB">
<feFlood flood-opacity="0" result="BackgroundImageFix"/>
<feBlend mode="normal" in="SourceGraphic" in2="BackgroundImageFix" result="shape"/>
<feGaussianBlur stdDeviation="100" result="effect1_foregroundBlur_5110_23694"/>
</filter>
<linearGradient id="paint0_linear_5110_23694" x1="58.4995" y1="-153.289" x2="217.853" y2="43.9644" gradientUnits="userSpaceOnUse">
<stop stop-color="#ED0677"/>
<stop offset="1" stop-color="#A5B0BE"/>
</linearGradient>
<linearGradient id="paint1_linear_5110_23694" x1="339.027" y1="-16.4424" x2="339.027" y2="25.5201" gradientUnits="userSpaceOnUse">
<stop stop-color="white"/>
<stop offset="1" stop-color="#ED0677" stop-opacity="0.6"/>
</linearGradient>
<linearGradient id="paint2_linear_5110_23694" x1="278.318" y1="-14.3631" x2="253.191" y2="27.1551" gradientUnits="userSpaceOnUse">
<stop stop-color="white"/>
<stop offset="1" stop-color="#A8AAAC"/>
</linearGradient>
<linearGradient id="paint3_linear_5110_23694" x1="281.204" y1="-16.4424" x2="281.204" y2="25.4496" gradientUnits="userSpaceOnUse">
<stop stop-color="white"/>
<stop offset="1" stop-color="#ED0677" stop-opacity="0.6"/>
</linearGradient>
<linearGradient id="paint4_linear_5110_23694" x1="301.269" y1="-14.6792" x2="301.269" y2="37.5094" gradientUnits="userSpaceOnUse">
<stop stop-color="white"/>
<stop offset="1" stop-color="#ED0677" stop-opacity="0.6"/>
</linearGradient>
<linearGradient id="paint5_linear_5110_23694" x1="322.947" y1="-15.1021" x2="322.947" y2="37.2276" gradientUnits="userSpaceOnUse">
<stop stop-color="white"/>
<stop offset="1" stop-color="#ED0677" stop-opacity="0.6"/>
</linearGradient>
<linearGradient id="paint6_linear_5110_23694" x1="266.321" y1="-22.2959" x2="266.321" y2="1.25949" gradientUnits="userSpaceOnUse">
<stop stop-color="white"/>
<stop offset="1" stop-color="#F7FBFF" stop-opacity="0"/>
</linearGradient>
<linearGradient id="paint7_linear_5110_23694" x1="279.186" y1="-17.7822" x2="279.186" y2="24.0392" gradientUnits="userSpaceOnUse">
<stop stop-color="white"/>
<stop offset="1" stop-color="#ED0677" stop-opacity="0.6"/>
</linearGradient>
<linearGradient id="paint8_linear_5110_23694" x1="297.091" y1="-15.1021" x2="297.091" y2="37.2276" gradientUnits="userSpaceOnUse">
<stop stop-color="white"/>
<stop offset="1" stop-color="#ED0677" stop-opacity="0.6"/>
</linearGradient>
<linearGradient id="paint9_linear_5110_23694" x1="318.832" y1="-14.6084" x2="318.832" y2="37.7212" gradientUnits="userSpaceOnUse">
<stop stop-color="white"/>
<stop offset="1" stop-color="#ED0677" stop-opacity="0.6"/>
</linearGradient>
<linearGradient id="paint10_linear_5110_23694" x1="310.068" y1="-7.34473" x2="310.461" y2="58.2562" gradientUnits="userSpaceOnUse">
<stop stop-color="white"/>
<stop offset="1" stop-color="#ED0677"/>
</linearGradient>
<linearGradient id="paint11_linear_5110_23694" x1="336.894" y1="-9.8352" x2="328.719" y2="31.7586" gradientUnits="userSpaceOnUse">
<stop stop-color="white"/>
<stop offset="1" stop-color="#ED0677" stop-opacity="0.6"/>
</linearGradient>
<linearGradient id="paint12_linear_5110_23694" x1="332.568" y1="-3.15163" x2="357.944" y2="21.9283" gradientUnits="userSpaceOnUse">
<stop stop-color="white"/>
<stop offset="1" stop-color="#ED0677"/>
</linearGradient>
<linearGradient id="paint13_linear_5110_23694" x1="282.761" y1="-17.6755" x2="236.19" y2="23.6456" gradientUnits="userSpaceOnUse">
<stop stop-color="white"/>
<stop offset="1" stop-color="#A8AAAC"/>
</linearGradient>
<linearGradient id="paint14_linear_5110_23694" x1="280.73" y1="-20.8738" x2="272.569" y2="20.6501" gradientUnits="userSpaceOnUse">
<stop stop-color="white"/>
<stop offset="1" stop-color="#ED0677" stop-opacity="0.6"/>
</linearGradient>
<linearGradient id="paint15_linear_5110_23694" x1="299.697" y1="-15.3305" x2="289.53" y2="36.3997" gradientUnits="userSpaceOnUse">
<stop stop-color="white"/>
<stop offset="1" stop-color="#ED0677" stop-opacity="0.6"/>
</linearGradient>
<linearGradient id="paint16_linear_5110_23694" x1="320.879" y1="-11.6034" x2="310.685" y2="40.2665" gradientUnits="userSpaceOnUse">
<stop stop-color="white"/>
<stop offset="1" stop-color="#ED0677" stop-opacity="0.6"/>
</linearGradient>
<linearGradient id="paint17_linear_5110_23694" x1="316.706" y1="-6.97341" x2="322.754" y2="24.9639" gradientUnits="userSpaceOnUse">
<stop stop-color="white"/>
<stop offset="1" stop-color="#A8AAAC"/>
</linearGradient>
<linearGradient id="paint18_linear_5110_23694" x1="339.251" y1="-10.7512" x2="331.09" y2="30.7727" gradientUnits="userSpaceOnUse">
<stop stop-color="white"/>
<stop offset="1" stop-color="#ED0677" stop-opacity="0.6"/>
</linearGradient>
<linearGradient id="paint19_linear_5110_23694" x1="279.166" y1="-22.5609" x2="271.018" y2="18.8932" gradientUnits="userSpaceOnUse">
<stop stop-color="white"/>
<stop offset="1" stop-color="#ED0677" stop-opacity="0.6"/>
</linearGradient>
<linearGradient id="paint20_linear_5110_23694" x1="352.934" y1="-12.7813" x2="348.347" y2="21.3843" gradientUnits="userSpaceOnUse">
<stop stop-color="white"/>
<stop offset="1" stop-color="#A8AAAC"/>
</linearGradient>
<linearGradient id="paint21_linear_5110_23694" x1="295.763" y1="-16.5396" x2="285.568" y2="35.3304" gradientUnits="userSpaceOnUse">
<stop stop-color="white"/>
<stop offset="1" stop-color="#ED0677" stop-opacity="0.6"/>
</linearGradient>
<linearGradient id="paint22_linear_5110_23694" x1="297.353" y1="-12.0698" x2="283.063" y2="11.8478" gradientUnits="userSpaceOnUse">
<stop stop-color="white"/>
<stop offset="1" stop-color="#B3B5B6"/>
</linearGradient>
<linearGradient id="paint23_linear_5110_23694" x1="316.734" y1="-11.9096" x2="306.54" y2="39.9604" gradientUnits="userSpaceOnUse">
<stop stop-color="white"/>
<stop offset="1" stop-color="#ED0677" stop-opacity="0.6"/>
</linearGradient>
<linearGradient id="paint24_linear_5110_23694" x1="306.071" y1="-6.52692" x2="299.702" y2="25.5323" gradientUnits="userSpaceOnUse">
<stop stop-color="white"/>
<stop offset="1" stop-color="#ED0677"/>
</linearGradient>
<clipPath id="clip0_5110_23694">
<rect width="320" height="168.211" rx="12" fill="white"/>
</clipPath>
</defs>
</svg>
