<svg width="320" height="172" viewBox="0 0 320 172" fill="none" xmlns="http://www.w3.org/2000/svg">
<g clip-path="url(#clip0_4836_18078)">
<rect width="320" height="172" rx="12" fill="#EFEFEF"/>
<mask id="mask0_4836_18078" style="mask-type:alpha" maskUnits="userSpaceOnUse" x="-16" y="-21" width="352" height="196">
<rect x="-16" y="-21" width="352" height="196" fill="#D9D9D9"/>
</mask>
<g mask="url(#mask0_4836_18078)">
<rect x="-16" y="43" width="352" height="14" fill="#D9D9D9"/>
<rect x="229.52" y="42.875" width="106.606" height="14" fill="#008A9F"/>
<rect x="229.52" y="42.875" width="14" height="14" fill="#D2232A"/>
</g>
<path fill-rule="evenodd" clip-rule="evenodd" d="M294.799 21.6265C294.816 23.6531 294.849 26.0805 294.866 26.4812C291.062 27.0009 287.654 30.3535 284.28 34.2629C278.608 40.5134 272.585 41.2682 269.452 36.1235C268.426 33.7942 268.745 30.9945 269.964 29.1522C271.071 27.4773 273.049 26.8097 274.947 26.7362C277.584 26.634 280.303 27.7698 282.341 29.6934C281.957 30.2633 281.428 31.0601 281.295 31.2836C277.699 28.3355 273.439 28.1649 271.73 30.5869C271.279 31.2269 271.026 32.0344 270.976 32.821C270.805 35.4751 273.128 37.6114 276.264 36.9106C280.437 35.8142 283.043 31.8708 285.066 27.9159C288.009 23.3856 291.757 21.0355 294.799 21.6265ZM294.871 26.678C294.892 28.0604 294.892 30.4218 294.871 31.4009C297.309 32.0127 298.277 33.9287 297.273 35.6152C296.761 36.4739 296.064 37.0151 295.056 37.0237C294.345 37.0298 293.531 36.8287 292.882 36.4273C291.496 35.6944 288.858 33.832 287.561 32.6718C287.131 33.1167 286.378 33.8788 286.053 34.2056C287.823 36.0683 290.771 37.9456 293.139 38.8776C294.706 39.4943 296.503 39.8088 298.129 39.2343C300.55 38.3793 302.439 35.8502 302.38 33.0092C302.349 28.9269 298.936 25.9963 294.871 26.678Z" fill="#008A9F"/>
<path fill-rule="evenodd" clip-rule="evenodd" d="M238.629 34.6281H232.863L231.771 36.0814H238.337C238.662 35.597 238.598 35.1125 238.629 34.6281ZM232.849 28.9834H234.715C236.844 28.9834 238.586 30.4059 238.586 32.9263V34.142H237.062V33.2447C237.062 31.4624 235.83 30.4565 234.325 30.4565H232.849V28.9834ZM226.265 30.2212V29.0312C226.265 28.0566 227.049 27.2588 228.006 27.2588H230.159V28.5548H228.286C227.844 28.5548 227.482 28.9236 227.482 29.3743V30.2212H226.265ZM221.588 30.3018V34.0315C221.588 35.158 222.493 36.0799 223.599 36.0799H225.776H227.989H230.166C231.272 36.0799 232.177 35.158 232.177 34.0315V33.5947V33.5389V33.1021C232.177 31.9757 231.272 31.0537 230.166 31.0537H226.25V32.5515H229.841C230.353 32.5515 230.771 32.9775 230.771 33.4985V33.5389V33.5947V33.6351C230.771 34.156 230.353 34.5822 229.841 34.5822H227.989H225.776H223.923C223.412 34.5822 222.993 34.156 222.993 33.6351V30.3018H221.588ZM258.705 33.9727H260.305V26.8491H258.705V33.9727ZM254.224 30.5256C254.772 30.5256 255.219 30.9805 255.219 31.5385C255.219 32.0964 254.772 32.5515 254.224 32.5515C253.677 32.5515 253.23 32.0964 253.23 31.5385C253.23 30.9805 253.677 30.5256 254.224 30.5256ZM257.744 32.0273V34.0315C257.744 35.158 256.838 36.0799 255.732 36.0799H252.768L248.76 31.7877C248.695 31.6684 248.683 31.5293 248.772 31.3945L252.985 26.8599L254.938 26.8793L250.555 31.6829L253.359 34.5822H255.408C255.92 34.5822 256.338 34.156 256.338 33.6351V32.0273H257.744ZM240.167 32.0273V34.0315C240.167 35.158 241.073 36.0799 242.178 36.0799H251.765L250.457 34.5821L242.503 34.5822C241.991 34.5822 241.573 34.156 241.573 33.6351V32.0273H240.167ZM265.088 32.0273V34.0315C265.088 35.1581 264.183 36.0799 263.077 36.0799H258.687V34.5822H262.753C263.264 34.5822 263.682 34.156 263.682 33.6351V32.0273H265.088ZM261.923 36.8232C262.471 36.8232 262.918 37.2783 262.918 37.8362C262.918 38.3941 262.471 38.8491 261.923 38.8491C261.375 38.8491 260.929 38.3941 260.929 37.8362C260.929 37.2783 261.375 36.8232 261.923 36.8232Z" fill="#4B4B4B"/>
</g>
<defs>
<clipPath id="clip0_4836_18078">
<rect width="320" height="172" rx="12" fill="white"/>
</clipPath>
</defs>
</svg>
