<svg width="320" height="172" viewBox="0 0 320 172" fill="none" xmlns="http://www.w3.org/2000/svg">
<g clip-path="url(#clip0_5110_20351)">
<rect width="320" height="172" rx="12" fill="#FFFBF9"/>
<g clip-path="url(#clip1_5110_20351)">
<mask id="mask0_5110_20351" style="mask-type:alpha" maskUnits="userSpaceOnUse" x="-17" y="-24" width="400" height="224">
<rect x="-17" y="-24" width="400" height="224" fill="#D9D9D9"/>
</mask>
<g mask="url(#mask0_5110_20351)">
<rect x="-69.3887" y="-77.5474" width="400" height="89.3515" transform="rotate(21.8826 -69.3887 -77.5474)" fill="url(#paint0_linear_5110_20351)"/>
<rect x="66.6953" y="-98" width="442.718" height="143.329" transform="rotate(33.7918 66.6953 -98)" fill="url(#paint1_linear_5110_20351)"/>
<rect x="143.816" y="-89.4619" width="442.718" height="61.3885" transform="rotate(48.2731 143.816 -89.4619)" fill="url(#paint2_linear_5110_20351)"/>
<rect x="149.594" y="-133.49" width="442.718" height="108.46" transform="rotate(38.1428 149.594 -133.49)" fill="url(#paint3_linear_5110_20351)"/>
<rect x="270.965" y="-158.807" width="442.718" height="78.4233" transform="rotate(50.145 270.965 -158.807)" fill="url(#paint4_linear_5110_20351)"/>
<rect x="228.053" y="-152.318" width="442.718" height="39.5198" transform="rotate(59.6675 228.053 -152.318)" fill="url(#paint5_linear_5110_20351)"/>
</g>
<rect x="-71.9883" y="-76.6528" width="449.888" height="89.3515" transform="rotate(39.0303 -71.9883 -76.6528)" fill="url(#paint6_linear_5110_20351)"/>
<path d="M-91.5605 -40L99.483 103.106L91.3333 140.506L-126.093 25.0072L-91.5605 -40Z" fill="url(#paint7_linear_5110_20351)"/>
<rect x="-143.461" y="20.5103" width="449.888" height="55.9644" transform="rotate(24.8738 -143.461 20.5103)" fill="url(#paint8_linear_5110_20351)"/>
<rect x="-129.809" y="46.9976" width="449.888" height="72.1708" transform="rotate(30.8958 -129.809 46.9976)" fill="url(#paint9_linear_5110_20351)"/>
</g>
<path d="M233.784 25.028C234.1 24.6279 234.475 24.2815 234.838 23.9256C235.198 24.1973 235.508 24.529 235.836 24.8396C236.137 24.5532 236.398 24.2247 236.724 23.9635C236.87 23.9478 236.95 24.1025 237.057 24.1783C237.345 24.4574 237.641 24.7279 237.906 25.0312C237.545 25.3934 237.179 25.7514 236.803 26.0967C236.463 25.8145 236.159 25.4913 235.846 25.1807C235.536 25.4892 235.217 25.7903 234.906 26.0967C234.51 25.763 234.149 25.3923 233.784 25.028ZM207.709 24.7869C207.849 24.6785 208.013 24.6163 208.183 24.5721C208.201 26.8717 208.18 29.1722 208.192 31.4718C208.198 31.8224 208.25 32.2309 208.557 32.4552C208.778 32.6289 209.073 32.6226 209.34 32.6247C212.548 32.6195 215.757 32.6247 218.964 32.6226C219.243 32.6268 219.557 32.5858 219.741 32.351C220.045 31.9603 220.058 31.4328 220.299 31.0106C220.378 30.8369 220.639 30.7579 220.771 30.9201C221.201 31.4012 221.091 32.2215 221.706 32.5626C222.492 31.7508 223.143 30.8085 224.021 30.0841C224.757 29.4639 225.676 28.9206 226.677 29.0227C227.463 29.0764 228.13 29.6903 228.343 30.4294C228.542 31.1222 228.411 31.8635 228.138 32.5173C228.709 32.6858 229.353 32.6731 229.918 32.4899C230.536 32.2541 230.501 31.5065 230.759 31.0043C230.887 30.6979 231.373 30.6284 231.56 30.9137C231.739 31.2423 231.748 31.6297 231.878 31.9772C231.982 32.332 232.343 32.5468 232.696 32.5889C233.259 32.6531 233.827 32.6142 234.393 32.6121C235.212 32.5942 236.048 32.6216 236.848 32.4194C237.113 32.371 237.236 32.1172 237.185 31.8677C236.387 31.994 235.559 32.0972 234.763 31.9087C234.235 31.7845 233.778 31.3612 233.705 30.8137C233.578 29.8282 233.874 28.8248 234.387 27.9856C234.681 27.5076 235.167 27.0686 235.764 27.0791C236.559 27.0296 237.271 27.5455 237.662 28.2036C238.462 29.5229 238.669 31.1285 238.484 32.6395C238.364 33.5523 238.017 34.481 237.316 35.1106C236.557 35.8013 235.505 36.0572 234.501 36.0951C233.897 36.1067 233.289 36.1393 232.688 36.0782C232.095 36.0098 231.618 35.5928 231.308 35.1085C230.991 35.6181 230.467 36.0161 229.856 36.0782C229.288 36.1225 228.712 36.1383 228.147 36.0698C227.472 35.9477 227.02 35.3623 226.736 34.7832C226.029 35.6929 224.835 36.0393 223.722 36.0582C222.655 36.0846 221.498 35.8687 220.675 35.1464C220.339 35.6571 219.826 36.1456 219.166 36.1077C215.856 36.114 212.546 36.1098 209.238 36.1098C208.393 36.0919 207.472 36.1225 206.749 35.6139C206.016 35.1169 205.742 34.1946 205.719 33.3523C205.687 31.2759 205.641 29.1975 205.443 27.1296C205.428 26.8453 205.291 26.4558 205.594 26.2736C206.296 25.7735 207.007 25.286 207.709 24.7869ZM235.087 29.8872C235.622 30.102 236.253 30.1146 236.795 29.9177C236.624 29.5176 236.196 29.2565 235.768 29.2502C235.409 29.2396 235.056 29.5039 235.087 29.8872ZM224.629 31.5265C223.913 31.8571 223.322 32.3941 222.761 32.9353C223.787 32.949 224.841 32.9648 225.828 32.6405C226.048 32.5584 226.3 32.4794 226.434 32.272C226.466 31.9603 226.334 31.6108 226.04 31.4686C225.595 31.2591 225.063 31.3244 224.629 31.5265ZM241.289 25.3797C241.556 25.0965 241.797 24.7838 242.117 24.5574C242.732 26.8727 242.617 29.2965 242.638 31.6708C242.672 32.7574 242.466 33.8366 242.173 34.879C242.018 35.3223 241.866 35.8308 241.461 36.1119C241.213 36.2035 241.046 35.9582 240.964 35.7655C240.739 35.2391 240.667 34.6652 240.554 34.1083C240.15 31.8635 239.811 29.6071 239.472 27.3507C240.078 26.6937 240.683 26.0357 241.289 25.3797ZM266.949 24.9417C267.155 24.7869 267.378 24.6542 267.614 24.5458C267.698 26.4273 267.625 28.3152 267.65 30.1999C267.663 30.7621 267.612 31.3296 267.692 31.8898C267.741 32.2573 268.041 32.5847 268.423 32.61C268.954 32.6395 269.488 32.6173 270.02 32.6216C270.227 32.6037 270.507 32.6447 270.623 32.4226C270.613 32.2057 270.458 32.0446 270.33 31.8856C269.973 31.4655 269.57 31.0885 269.162 30.719C269.357 30.3031 269.656 29.9514 269.908 29.5702C270.225 29.127 270.508 28.6574 270.863 28.2415C271.729 29.1207 272.16 30.3547 272.236 31.5687C272.271 32.5858 272.261 33.6387 271.901 34.6052C271.7 35.1643 271.247 35.616 270.692 35.8297C269.806 36.1909 268.829 36.0898 267.896 36.0877C267.056 36.0814 266.141 35.7929 265.663 35.0601C265.096 34.2199 265.175 33.1638 265.163 32.2004C265.114 30.3747 265.06 28.5468 264.865 26.7295C264.841 26.5674 264.879 26.3863 265.028 26.2957C265.659 25.8335 266.314 25.3997 266.949 24.9417ZM191.78 24.7995C191.897 24.669 192.045 24.8248 192.134 24.908C192.485 25.2576 192.874 25.5734 193.184 25.963C192.764 26.3663 192.373 26.8032 191.914 27.1654C191.499 26.7727 191.095 26.3684 190.682 25.9756C190.983 25.5292 191.405 25.1807 191.78 24.7995ZM261.195 25.3049C261.42 25.127 261.568 24.8038 261.865 24.748C262.231 25.0407 262.549 25.3892 262.896 25.7061C262.975 25.7935 263.169 25.9346 263.013 26.0536C262.647 26.4389 262.254 26.8011 261.87 27.1686C261.443 26.798 261.033 26.4052 260.649 25.9935C260.691 25.6977 261.015 25.5292 261.195 25.3049ZM254.88 26.381C256.392 25.8882 257.897 25.3797 259.412 24.8964C259.334 25.8798 259.242 26.8643 259.114 27.8424C257.904 28.2573 256.69 28.6595 255.481 29.0733C256.192 29.883 256.899 30.6969 257.619 31.4981C258.17 32.0951 258.91 32.6079 259.753 32.6163C260.427 32.6279 261.101 32.6258 261.776 32.6184C261.97 32.6289 262.151 32.5563 262.306 32.4415C262.007 31.7266 261.355 31.2465 260.813 30.7211C261.307 29.8514 261.916 29.0448 262.507 28.2362C263.379 29.1122 263.806 30.3515 263.886 31.5655C263.921 32.5247 263.907 33.5081 263.613 34.4315C263.454 34.9537 263.112 35.4275 262.625 35.6908C261.885 36.1088 261.007 36.1088 260.181 36.1119C258.924 36.1456 257.854 35.298 257.07 34.3978C256.722 35.0674 256.139 35.6076 255.435 35.8887C254.332 36.3383 253.114 36.3278 251.943 36.3204C250.718 36.333 249.444 36.3151 248.304 35.8182C247.517 35.476 246.929 34.7484 246.743 33.9166C246.504 32.8479 246.621 31.7024 247.054 30.6979C247.179 30.4336 247.374 30.0872 247.717 30.1199C248.007 30.1325 248.092 30.4736 248.097 30.7105C248.112 31.2307 248.123 31.835 248.55 32.2078C249.141 32.6868 249.936 32.7763 250.67 32.8469C251.693 32.8985 252.721 32.8806 253.744 32.8185C254.287 32.77 254.852 32.75 255.354 32.5121C255.009 31.8898 254.447 31.4276 253.987 30.8948C253.575 30.4526 253.154 30.0188 252.741 29.5808C252.913 28.71 252.996 27.8161 253.224 26.9612C253.751 26.7106 254.33 26.5811 254.88 26.381ZM229.105 27.7866C229.451 27.4213 229.797 27.0549 230.169 26.7158C230.517 26.9991 230.828 27.3234 231.158 27.6287C231.453 27.3149 231.753 27.0064 232.072 26.7158C232.475 27.0496 232.844 27.4223 233.218 27.7898C232.88 28.1488 232.543 28.5131 232.168 28.8332L232.078 28.8501C231.751 28.5837 231.473 28.2636 231.162 27.9793C230.852 28.2552 230.58 28.5742 230.26 28.8395L230.167 28.8448C229.791 28.5152 229.429 28.1667 229.105 27.7866ZM199.711 30.1009C200.172 29.167 200.565 28.1983 201.079 27.2928C201.888 27.5918 202.525 28.2088 203.083 28.8448C203.919 29.7956 204.457 31.0317 204.439 32.3078C204.451 33.3133 204.268 34.4125 203.544 35.1664C202.868 35.8771 201.835 36.093 200.886 36.074C200.05 36.0751 199.126 35.9182 198.529 35.2833C198.021 34.74 197.91 33.9577 197.95 33.2459C197.978 32.6458 198.113 32.0425 198.39 31.5076C198.494 31.2486 198.889 31.1328 199.058 31.3928C199.287 31.7845 199.299 32.3573 199.758 32.5826C200.347 32.8111 200.999 32.7605 201.62 32.7679C202.049 32.7405 202.556 32.7753 202.879 32.4362C202.516 31.7908 201.854 31.397 201.26 30.9896C200.759 30.6674 200.237 30.381 199.711 30.1009ZM180.448 29.2333C180.693 28.9006 180.888 28.5268 181.195 28.2457C181.676 28.7785 182.045 29.4102 182.266 30.0925C182.614 31.1422 182.602 32.2709 182.496 33.3596C182.398 34.1546 182.2 35.0453 181.51 35.5444C180.729 36.1109 179.714 36.1182 178.789 36.1067C178.527 36.1256 178.309 35.9793 178.127 35.8108C178.141 36.8869 177.864 38.0387 177.073 38.8147C176.276 39.6002 175.124 39.8824 174.037 39.9434C172.818 39.9971 171.509 39.915 170.459 39.2327C169.74 38.781 169.283 37.9829 169.187 37.149C169.057 36.0151 169.331 34.8716 169.749 33.8229C169.901 33.4965 170.12 33.0375 170.549 33.0743C170.906 33.0912 170.953 33.5039 170.944 33.7797C170.974 34.3915 170.613 35.0043 170.848 35.6055C171.124 36.2404 171.868 36.4468 172.494 36.5531C173.583 36.6984 174.715 36.6879 175.77 36.3604C176.133 36.2372 176.547 36.0561 176.683 35.6676C176.775 35.3749 176.591 35.1001 176.418 34.8811C176.053 34.4325 175.604 34.0598 175.16 33.6913C175.601 32.8595 176.003 32.0056 176.471 31.1886C177.067 31.7045 177.595 32.3847 178.388 32.5963C179.122 32.6458 179.862 32.6289 180.598 32.6058C180.8 32.6237 181.02 32.432 180.883 32.2288C180.508 31.6466 179.972 31.1896 179.469 30.72C179.731 30.1851 180.127 29.7313 180.448 29.2333ZM190.887 30.7221C191.368 29.8524 192 29.0712 192.554 28.2446C192.872 28.4752 193.073 28.8185 193.268 29.1501C193.775 30.0419 193.988 31.0769 193.974 32.0951C193.973 32.9785 193.925 33.8893 193.579 34.7137C193.352 35.2643 192.864 35.6802 192.304 35.8719C191.488 36.1751 190.603 36.0835 189.751 36.0972C189.635 37.4365 189.335 38.86 188.395 39.8813C188.192 40.1319 187.843 40.0624 187.561 40.074C186.405 40.0572 185.245 40.0951 184.089 40.0572C183.621 40.0393 183.507 39.2927 183.946 39.138C185.011 38.6136 186.035 38.0082 187.022 37.3501C187.491 37.0164 187.996 36.6858 188.285 36.173C187.545 36.1288 186.756 36.2183 186.062 35.9087C185.358 35.5613 185.171 34.7021 185.207 33.9872C185.242 32.8153 185.475 31.576 186.196 30.62C186.749 29.8651 187.943 29.7977 188.623 30.4147C189.252 30.978 189.493 31.8266 189.67 32.6216C190.452 32.6121 191.237 32.6447 192.018 32.6058C192.221 32.6237 192.435 32.4289 192.299 32.2278C191.925 31.6466 191.393 31.1865 190.887 30.7221ZM186.711 32.7184C186.52 32.8227 186.529 33.0585 186.508 33.2459C187.038 33.4681 187.656 33.4702 188.197 33.288C187.972 32.7426 187.245 32.4194 186.711 32.7184ZM171.989 30.3146C172.357 29.8893 172.753 29.4839 173.182 29.1175C173.617 29.506 174.033 29.9156 174.453 30.3199C174.076 30.7758 173.646 31.1886 173.201 31.5792C172.8 31.1928 172.376 30.8264 172.01 30.4084L171.989 30.3146ZM270.267 37.3923C270.351 37.3175 270.489 37.1543 270.602 37.2901C271.012 37.6492 271.398 38.0345 271.788 38.4178C271.402 38.86 270.963 39.2517 270.54 39.6581C270.097 39.2654 269.66 38.8621 269.27 38.4178C269.581 38.0566 269.929 37.7281 270.267 37.3923ZM179.094 38.423C179.433 38.0451 179.79 37.6839 180.164 37.3386C180.505 37.6334 180.825 37.9524 181.152 38.2651C181.454 37.9524 181.752 37.6344 182.07 37.3354C182.478 37.6692 182.833 38.0598 183.213 38.423C182.85 38.7979 182.494 39.1853 182.089 39.517C181.77 39.2159 181.457 38.9084 181.148 38.5989C180.827 38.9053 180.536 39.2433 180.185 39.517C179.816 39.158 179.434 38.8105 179.094 38.423Z" fill="white"/>
<path d="M286.562 21.7289C285.657 20.5959 284.187 19.9371 282.735 20.0251C281.496 20.0834 280.297 20.6727 279.49 21.6099C278.907 22.2815 278.52 23.121 278.408 24.0023C278.282 24.943 278.449 25.9254 278.905 26.761C279.571 28.0312 280.867 28.9483 282.291 29.1534C283.172 29.2897 284.094 29.1557 284.903 28.7823C286.155 28.2142 287.124 27.0584 287.45 25.725C287.8 24.3521 287.471 22.8229 286.562 21.7289Z" fill="white"/>
<path d="M291.526 20C291.477 20.073 291.434 20.151 291.394 20.2294C287.161 28.1455 282.934 36.0646 278.697 43.9784C281.236 43.9772 283.774 43.9768 286.312 43.9788C286.616 42.6164 286.906 41.2509 287.205 39.8873C288.644 33.2579 290.087 26.6294 291.526 20Z" fill="white"/>
<path d="M295.026 20.0158C294.134 20.0154 293.241 20.017 292.349 20.0151C290.607 28.0018 288.876 35.9916 287.137 43.9795C288.032 43.9757 288.926 43.978 289.82 43.9784C290.086 42.711 290.369 41.4467 290.641 40.1804C292.104 33.4591 293.561 26.7367 295.026 20.0158Z" fill="white"/>
<path d="M303.495 20.0166C300.956 20.0151 298.417 20.0166 295.879 20.0158C294.272 27.4175 292.661 34.8181 291.054 42.2194C290.93 42.8133 290.784 43.403 290.676 44C294.947 36.0048 299.221 28.0107 303.495 20.0166Z" fill="white"/>
<path d="M299.606 34.793C298.318 34.7308 297.008 35.2336 296.114 36.1619C295.262 37.0007 294.772 38.1889 294.782 39.3814C294.777 40.1955 295 41.0095 295.418 41.7096C295.975 42.6496 296.874 43.386 297.915 43.7324C298.935 44.0811 300.077 44.0533 301.078 43.6548C302.406 43.1427 303.459 41.9811 303.833 40.6125C304.082 39.7224 304.052 38.7585 303.751 37.885C303.478 37.1069 302.995 36.4002 302.359 35.8715C301.593 35.2235 300.609 34.8389 299.606 34.793Z" fill="white"/>
</g>
<defs>
<linearGradient id="paint0_linear_5110_20351" x1="-50.8458" y1="-36.4499" x2="252.579" y2="-103.359" gradientUnits="userSpaceOnUse">
<stop stop-color="#C765D1"/>
<stop offset="1" stop-color="#A833AA"/>
</linearGradient>
<linearGradient id="paint1_linear_5110_20351" x1="87.2184" y1="-32.0753" x2="431.409" y2="-84.4432" gradientUnits="userSpaceOnUse">
<stop stop-color="#C765D1"/>
<stop offset="1" stop-color="#A833AA"/>
</linearGradient>
<linearGradient id="paint2_linear_5110_20351" x1="257.962" y1="-107.833" x2="251.313" y2="-36.5182" gradientUnits="userSpaceOnUse">
<stop stop-color="#C765D1"/>
<stop offset="1" stop-color="#A833AA"/>
</linearGradient>
<linearGradient id="paint3_linear_5110_20351" x1="307.136" y1="39.7535" x2="226.164" y2="-20.9517" gradientUnits="userSpaceOnUse">
<stop stop-color="#C765D1"/>
<stop offset="1" stop-color="#A833AA"/>
</linearGradient>
<linearGradient id="paint4_linear_5110_20351" x1="443.435" y1="-87.1715" x2="387.082" y2="7.2192" gradientUnits="userSpaceOnUse">
<stop stop-color="#C765D1"/>
<stop offset="1" stop-color="#A833AA"/>
</linearGradient>
<linearGradient id="paint5_linear_5110_20351" x1="402.984" y1="-113.045" x2="389.865" y2="-148.838" gradientUnits="userSpaceOnUse">
<stop stop-color="#C765D1"/>
<stop offset="1" stop-color="#A833AA" stop-opacity="0.4"/>
</linearGradient>
<linearGradient id="paint6_linear_5110_20351" x1="121.501" y1="43.477" x2="118.766" y2="-69.9051" gradientUnits="userSpaceOnUse">
<stop stop-color="#C765D1"/>
<stop offset="1" stop-color="#A833AA"/>
</linearGradient>
<linearGradient id="paint7_linear_5110_20351" x1="75.0676" y1="111.872" x2="-19.0392" y2="33.8569" gradientUnits="userSpaceOnUse">
<stop stop-color="#C765D1" stop-opacity="0"/>
<stop offset="1" stop-color="#A833AA"/>
</linearGradient>
<linearGradient id="paint8_linear_5110_20351" x1="5.08068" y1="42.6166" x2="269.488" y2="136.965" gradientUnits="userSpaceOnUse">
<stop stop-color="#C765D1"/>
<stop offset="1" stop-color="#A833AA"/>
</linearGradient>
<linearGradient id="paint9_linear_5110_20351" x1="18.733" y1="75.5055" x2="56.0505" y2="10.1957" gradientUnits="userSpaceOnUse">
<stop stop-color="#C765D1"/>
<stop offset="1" stop-color="#A833AA"/>
</linearGradient>
<clipPath id="clip0_5110_20351">
<rect width="320" height="172" rx="12" fill="white"/>
</clipPath>
<clipPath id="clip1_5110_20351">
<rect width="353" height="220" fill="white" transform="translate(-17 -24)"/>
</clipPath>
</defs>
</svg>
