<svg width="320" height="173" viewBox="0 0 320 173" fill="none" xmlns="http://www.w3.org/2000/svg">
<g clip-path="url(#clip0_5112_20600)">
<rect width="320" height="172.14" rx="12" fill="url(#paint0_linear_5112_20600)"/>
<g opacity="0.31">
<mask id="mask0_5112_20600" style="mask-type:alpha" maskUnits="userSpaceOnUse" x="0" y="-14" width="320" height="200">
<rect y="-14" width="320" height="200" fill="white"/>
</mask>
<g mask="url(#mask0_5112_20600)">
<rect x="0.408163" y="-13.5918" width="319.184" height="199.184" stroke="white" stroke-width="0.816326"/>
<line x1="66.7714" y1="-14.0019" x2="67.6805" y2="185.998" stroke="white" stroke-width="0.816326"/>
<line x1="129.498" y1="-14.0019" x2="130.407" y2="185.998" stroke="white" stroke-width="0.816326"/>
<line x1="191.316" y1="-14.0019" x2="192.225" y2="185.998" stroke="white" stroke-width="0.816326"/>
<line x1="253.135" y1="-14.0019" x2="254.044" y2="185.998" stroke="white" stroke-width="0.816326"/>
<line y1="-0.408163" x2="388.182" y2="-0.408163" transform="matrix(-0.791891 0.610662 -0.615574 -0.788079 234.309 -135.715)" stroke="white" stroke-width="0.816327"/>
<line y1="-0.408163" x2="388.182" y2="-0.408163" transform="matrix(-0.791891 0.610662 -0.615574 -0.788079 256.998 -109.781)" stroke="white" stroke-width="0.816327"/>
<line y1="-0.408163" x2="388.182" y2="-0.408163" transform="matrix(-0.791891 0.610662 -0.615574 -0.788079 279.689 -78.3926)" stroke="white" stroke-width="0.816327"/>
<line y1="-0.408163" x2="388.182" y2="-0.408163" transform="matrix(-0.791891 0.610662 -0.615574 -0.788079 302.379 -47.0039)" stroke="white" stroke-width="0.816327"/>
<line y1="-0.408163" x2="388.182" y2="-0.408163" transform="matrix(-0.791891 0.610662 -0.615574 -0.788079 325.068 -17.4336)" stroke="white" stroke-width="0.816327"/>
<line y1="-0.408163" x2="388.182" y2="-0.408163" transform="matrix(-0.791891 0.610662 -0.615574 -0.788079 347.758 13.9551)" stroke="white" stroke-width="0.816327"/>
<line y1="-0.408163" x2="388.182" y2="-0.408163" transform="matrix(-0.791891 0.610662 -0.615574 -0.788079 370.449 41.707)" stroke="white" stroke-width="0.816327"/>
<line y1="-0.408163" x2="388.182" y2="-0.408163" transform="matrix(-0.791891 0.610662 -0.615574 -0.788079 393.141 71.2778)" stroke="white" stroke-width="0.816327"/>
<line y1="-0.408163" x2="388.182" y2="-0.408163" transform="matrix(0.794811 0.606857 -0.601904 0.798569 -78.1797 70.0957)" stroke="white" stroke-width="0.816326"/>
<line y1="-0.408163" x2="388.182" y2="-0.408163" transform="matrix(0.794811 0.606857 -0.601904 0.798569 -55.4902 41.4346)" stroke="white" stroke-width="0.816326"/>
<line y1="-0.408163" x2="388.182" y2="-0.408163" transform="matrix(0.794811 0.606857 -0.601904 0.798569 -32.8008 9.13623)" stroke="white" stroke-width="0.816326"/>
<line y1="-0.408163" x2="388.182" y2="-0.408163" transform="matrix(0.794811 0.606857 -0.601904 0.798569 -10.1113 -21.3428)" stroke="white" stroke-width="0.816326"/>
<line y1="-0.408163" x2="388.182" y2="-0.408163" transform="matrix(0.794811 0.606857 -0.601904 0.798569 12.5801 -50.9131)" stroke="white" stroke-width="0.816326"/>
<line y1="-0.408163" x2="388.182" y2="-0.408163" transform="matrix(0.794811 0.606857 -0.601904 0.798569 35.2715 -79.5742)" stroke="white" stroke-width="0.816326"/>
<line y1="-0.408163" x2="388.182" y2="-0.408163" transform="matrix(0.794811 0.606857 -0.601904 0.798569 57.9609 -109.145)" stroke="white" stroke-width="0.816326"/>
<line y1="-0.408163" x2="388.182" y2="-0.408163" transform="matrix(0.794811 0.606857 -0.601904 0.798569 80.6504 -138.715)" stroke="white" stroke-width="0.816326"/>
</g>
</g>
<path fill-rule="evenodd" clip-rule="evenodd" d="M270.974 35.484V35.7887C270.974 36.3442 271.114 36.7206 271.413 36.9356C271.588 37.0611 271.781 37.1149 272.027 37.1149C272.202 37.1149 272.378 36.8998 272.518 36.4876C272.536 36.398 272.571 36.2905 272.606 36.165C272.641 36.0396 272.676 35.9858 272.729 35.9858C272.799 35.9858 272.834 36.0575 272.834 36.1829C272.834 36.2367 272.816 36.3084 272.799 36.4159C272.781 36.5234 272.764 36.6131 272.746 36.6847C272.571 37.4733 272.36 38.0826 272.097 38.5306C271.834 38.9607 271.57 39.1758 271.29 39.1758C270.851 39.1758 270.553 38.9787 270.395 38.5665C270.237 38.1722 270.149 37.6525 270.149 37.0432C270.149 36.8819 270.219 36.1829 270.36 34.9464C270.5 33.7098 270.623 32.76 270.711 32.0969C270.728 32.0431 270.833 31.7743 271.027 31.2725C271.22 30.7707 271.377 30.3944 271.5 30.1435C271.518 30.1255 271.553 30.1255 271.57 30.1076C271.588 30.1435 271.57 30.251 271.553 30.4302L271.483 30.9499L271.149 33.4051C271.079 33.9069 271.044 34.3371 271.009 34.6955C270.991 35.0539 270.974 35.3227 270.974 35.484ZM224.262 42.4912C224.28 42.6167 224.28 42.778 224.227 42.9214C224.175 43.0826 224.104 43.2439 224.017 43.4411C223.911 43.6382 223.789 43.8174 223.613 43.9787C223.508 44.0862 223.42 44.14 223.35 44.14C223.315 44.14 223.227 44.0862 223.087 43.9608C222.946 43.8353 222.823 43.7278 222.718 43.6561C222.613 43.5665 222.508 43.4769 222.437 43.4052C222.367 43.3335 222.315 43.2619 222.315 43.2081C222.385 43.0289 222.455 42.9034 222.49 42.8138C222.613 42.5271 222.718 42.312 222.788 42.1687C222.911 41.9715 223.017 41.7565 223.139 41.5414C223.157 41.5056 223.21 41.4339 223.262 41.3622C223.297 41.398 223.332 41.4339 223.385 41.4697C223.42 41.4877 223.473 41.5235 223.543 41.5773C223.824 41.8102 223.999 41.9715 224.087 42.097C224.175 42.1866 224.227 42.33 224.262 42.4912ZM226.28 42.3658C226.298 42.4912 226.298 42.6525 226.245 42.7959C226.193 42.9572 226.122 43.1185 226.035 43.3156C225.929 43.5128 225.807 43.692 225.631 43.8533C225.526 43.9608 225.438 44.0146 225.368 44.0146C225.333 44.0146 225.245 43.9608 225.105 43.8353C224.964 43.7099 224.841 43.6024 224.736 43.5307C224.631 43.4411 224.526 43.3515 224.455 43.2798C224.385 43.2081 224.333 43.1364 224.333 43.0826C224.403 42.9034 224.473 42.778 224.508 42.6884C224.631 42.4016 224.736 42.1866 224.806 42.0432C224.929 41.8461 225.034 41.631 225.157 41.416C225.175 41.3801 225.227 41.3084 225.28 41.2368C225.315 41.2726 225.35 41.3084 225.403 41.3443C225.438 41.3622 225.491 41.398 225.561 41.4518C225.842 41.6848 226.017 41.8461 226.105 41.9715C226.21 42.0611 226.263 42.2045 226.28 42.3658ZM221.192 36.8281C221.192 37.1148 221.069 37.4374 220.806 37.7779C220.542 38.1184 220.297 38.2977 220.069 38.2977C219.998 38.226 219.928 38.1543 219.893 38.1005C219.735 37.9213 219.612 37.7959 219.507 37.7063C219.402 37.6166 219.296 37.527 219.209 37.4195C219.103 37.3299 219.068 37.2582 219.068 37.2224C219.068 37.2045 219.103 37.1149 219.191 36.9536C219.226 36.8819 219.349 36.6668 219.56 36.3084C219.735 36.0217 219.893 35.7708 220.051 35.5915C220.069 35.5736 220.086 35.5199 220.121 35.4661C220.349 35.6453 220.542 35.7887 220.648 35.8962C220.999 36.2367 221.192 36.5414 221.192 36.8281ZM225.034 34.9464C224.912 35.0718 224.806 35.1614 224.684 35.2331C224.578 35.3048 224.438 35.3406 224.262 35.3586C224.087 35.3765 223.982 35.4303 223.947 35.5019C223.911 35.5736 223.876 35.7708 223.824 36.0575C223.789 36.3442 223.753 36.6131 223.701 36.846C223.666 37.079 223.631 37.2761 223.578 37.4374C223.543 37.5987 223.49 37.7779 223.438 37.993C223.332 38.3514 223.157 38.8532 222.894 39.4805C222.42 40.5737 221.806 41.4697 221.069 42.1687C220.191 42.993 219.226 43.3873 218.173 43.3873C217.278 43.3873 216.629 43.1006 216.208 42.545C215.857 42.0791 215.682 41.416 215.682 40.5737C215.682 40.1794 215.752 39.6776 215.875 39.0862C215.962 38.6561 216.068 38.2977 216.173 38.0288L216.717 36.7385C216.84 36.4876 216.98 36.2188 217.103 35.9679C217.226 35.6991 217.349 35.5736 217.454 35.5736C217.489 35.6811 217.507 35.7528 217.507 35.8066C217.489 35.932 217.419 36.1113 217.314 36.3442C217.138 36.7385 217.033 37.0073 216.963 37.1507C216.787 37.5987 216.647 37.9392 216.577 38.1901C216.454 38.6023 216.401 38.9966 216.401 39.355C216.401 39.9285 216.594 40.3945 216.998 40.7529C217.401 41.1113 217.945 41.2905 218.647 41.2905C219.437 41.2905 220.139 41.1113 220.735 40.7708C221.349 40.4303 221.858 39.9106 222.28 39.2475C222.613 38.7278 222.841 38.2081 222.981 37.7063C223.122 37.2045 223.192 36.6489 223.192 36.0216L223.21 34.8209C223.21 34.5879 223.297 34.3729 223.455 34.1937C223.613 34.0145 223.806 33.9428 224.034 33.9786H224.368C224.648 33.9786 224.877 33.9428 225.017 33.8532C225.122 33.7815 225.21 33.7098 225.298 33.6202C225.385 33.5306 225.473 33.4051 225.561 33.2797L226.017 32.4732C226.298 31.9535 226.473 31.6847 226.561 31.6847C226.596 31.6847 226.631 31.7026 226.666 31.7385C226.684 31.7743 226.719 31.7922 226.719 31.8101C226.684 31.9356 226.649 32.0431 226.614 32.1327C226.596 32.2403 226.579 32.3119 226.579 32.3836C226.579 32.7958 226.737 33.0109 227.052 33.0109C227.07 33.0109 227.158 32.8854 227.263 32.6524C227.386 32.4195 227.456 32.294 227.491 32.294C227.596 32.3657 227.667 32.4195 227.719 32.4732C227.895 32.6524 227.982 32.8675 227.982 33.0826C227.982 33.4231 227.877 33.7636 227.684 34.1399C227.491 34.5163 227.263 34.7851 227.035 34.9822C226.877 35.0718 226.772 35.1256 226.701 35.1614C226.631 35.1793 226.544 35.1973 226.438 35.1973C226.298 35.1973 226.158 35.1614 226.052 35.1077C225.929 35.0539 225.824 34.9643 225.754 34.8747C225.666 34.7851 225.614 34.6955 225.578 34.6059C225.543 34.5163 225.508 34.4446 225.491 34.3729C225.438 34.3729 225.368 34.4446 225.263 34.5879C225.21 34.7492 225.122 34.8568 225.034 34.9464C225.052 34.9464 225.052 34.9284 225.034 34.9464ZM230.79 30.9858C230.808 31.1112 230.808 31.2725 230.755 31.4159C230.702 31.5772 230.632 31.7385 230.544 31.9356C230.439 32.1327 230.316 32.3119 230.141 32.4732C230.036 32.5808 229.948 32.6345 229.878 32.6345C229.842 32.6345 229.755 32.5808 229.614 32.4553C229.474 32.3299 229.351 32.2223 229.246 32.1507C229.141 32.061 229.035 31.9714 228.965 31.8997C228.895 31.8281 228.842 31.7564 228.842 31.7026C228.912 31.5234 228.983 31.398 229.018 31.3083C229.141 31.0216 229.246 30.8066 229.316 30.6632C229.439 30.4661 229.544 30.251 229.667 30.0359C229.685 30.0001 229.737 29.9284 229.79 29.8567C229.825 29.8926 229.86 29.9284 229.913 29.9642C229.948 29.9822 230 30.018 230.071 30.0718C230.351 30.3047 230.527 30.466 230.615 30.5915C230.702 30.6811 230.773 30.8245 230.79 30.9858ZM230.351 34.57C230.351 34.7313 230.316 35.0001 230.246 35.3765C230.176 35.7528 230.123 36.0754 230.053 36.3622L229.825 37.3478C229.702 37.7242 229.597 37.993 229.509 38.1722C229.386 38.4231 229.281 38.6382 229.193 38.7995C229.088 38.9607 229 39.0862 228.895 39.1758C228.79 39.2654 228.614 39.3729 228.368 39.4984L227.667 39.8031C227.596 39.821 227.438 39.8747 227.21 39.9285C226.965 39.9823 226.807 40.0002 226.754 40.0002C226.684 40.0002 226.649 39.9823 226.631 39.9285C226.614 39.8747 226.631 39.821 226.666 39.7493C226.737 39.6238 226.895 39.4625 227.175 39.2475C227.438 39.0324 227.702 38.8174 227.965 38.6202C228.263 38.3335 228.491 38.1184 228.632 37.9571C228.842 37.7242 229.035 37.4554 229.228 37.1328C229.263 37.0611 229.316 36.9356 229.404 36.7206C229.474 36.5055 229.597 36.1829 229.755 35.6991L229.983 34.9822C230 34.8747 230.053 34.7492 230.106 34.5879C230.158 34.4267 230.229 34.355 230.299 34.355C230.316 34.4625 230.351 34.5342 230.351 34.57ZM240.406 37.6525C240.336 37.9392 240.283 38.1543 240.266 38.2977C240.231 38.459 240.178 38.6202 240.125 38.8174C239.985 39.2833 239.774 39.7672 239.511 40.2511C239.248 40.735 238.95 41.183 238.599 41.6131C238.072 42.2583 237.511 42.7421 236.932 43.0647C236.335 43.3873 235.686 43.5486 234.966 43.5486C234.142 43.5486 233.51 43.2798 233.071 42.7601C232.633 42.2404 232.404 41.5593 232.404 40.735C232.404 40.3228 232.457 39.8747 232.562 39.3909C232.668 38.907 232.79 38.5127 232.913 38.1901C233.036 37.8675 233.194 37.545 233.352 37.2045C233.58 36.7564 233.826 36.2905 234.071 35.8245C234.177 35.6453 234.247 35.5378 234.264 35.5199C234.282 35.5019 234.317 35.5019 234.37 35.5019C234.387 35.5199 234.405 35.5915 234.387 35.717C234.37 35.8424 234.352 35.9679 234.317 36.0575L233.668 37.5091C233.492 37.9571 233.387 38.2439 233.334 38.4052C233.247 38.6919 233.194 38.9966 233.194 39.3012C233.194 40.0898 233.457 40.6633 233.984 41.0038C234.37 41.2726 234.879 41.398 235.475 41.398C235.914 41.398 236.282 41.3622 236.616 41.2905C236.949 41.2188 237.283 41.0755 237.651 40.8604C238.02 40.6453 238.353 40.3945 238.634 40.0719C238.827 39.8568 239.055 39.5522 239.318 39.14C239.476 38.8711 239.599 38.6202 239.669 38.3873C239.739 38.1543 239.792 37.8675 239.792 37.5091L239.827 36.0575C239.827 35.8245 239.845 35.5915 239.897 35.3944C239.95 35.1973 240.038 34.9464 240.16 34.6238L240.546 33.8352C240.617 33.6919 240.669 33.6023 240.687 33.5664C240.704 33.5306 240.739 33.4768 240.792 33.4231C240.862 33.4947 240.88 33.5844 240.862 33.6919L240.757 34.3908L240.652 35.3944C240.652 35.7887 240.634 36.1292 240.582 36.4159C240.582 36.7743 240.511 37.1686 240.406 37.6525ZM237.897 36.6131C237.914 36.6668 237.914 36.7385 237.914 36.8281C237.914 37.0611 237.844 37.312 237.686 37.527C237.37 37.9751 237.142 38.226 237.002 38.2439C236.984 38.2439 236.914 38.208 236.826 38.1364C236.528 37.9034 236.37 37.7959 236.353 37.7779C236.23 37.7062 236.107 37.6166 235.984 37.545C235.879 37.4733 235.809 37.3837 235.791 37.2941L236.247 36.2546C236.388 36.0037 236.511 35.7887 236.616 35.6274C236.633 35.5915 236.686 35.5199 236.739 35.4482C236.809 35.484 236.897 35.5199 236.967 35.5557C237.037 35.5915 237.107 35.6274 237.16 35.6632C237.441 35.8783 237.634 36.0396 237.739 36.1829C237.827 36.3263 237.879 36.4697 237.897 36.6131ZM244.267 31.6309C244.302 31.5592 244.372 31.4517 244.442 31.3263C244.46 31.3083 244.495 31.2546 244.547 31.2008C244.582 31.2725 244.6 31.3263 244.6 31.3621L244.495 32.0431L244.372 33.1722L244.161 34.9643C244.109 35.3586 244.038 35.6991 243.968 35.95C243.898 36.2188 243.793 36.4876 243.687 36.7923L243.231 37.76C243.038 38.1005 242.898 38.3335 242.81 38.459C242.722 38.5665 242.652 38.6382 242.582 38.6382L242.529 38.4948C242.635 38.1364 242.74 37.7779 242.828 37.4374C242.915 37.0969 242.986 36.8281 243.021 36.6489C243.144 36.0396 243.249 35.484 243.301 35.0181C243.354 34.5342 243.407 34.122 243.442 33.7456L243.652 33.1184L244.267 31.6309ZM248.267 41.8461C248.285 41.9715 248.285 42.1328 248.232 42.2762C248.18 42.4375 248.109 42.5988 248.022 42.7959C247.916 42.993 247.794 43.1722 247.618 43.3335C247.513 43.4411 247.425 43.4948 247.355 43.4948C247.32 43.4948 247.232 43.4411 247.092 43.3156C246.951 43.1902 246.828 43.0826 246.723 43.011C246.618 42.9214 246.513 42.8318 246.442 42.7601C246.372 42.6884 246.32 42.6167 246.32 42.5629C246.39 42.3837 246.46 42.2583 246.495 42.1687C246.618 41.8819 246.723 41.6669 246.793 41.5235C246.916 41.3264 247.022 41.1113 247.144 40.8962C247.162 40.8604 247.215 40.7887 247.267 40.717C247.302 40.7529 247.337 40.7887 247.39 40.8246C247.425 40.8425 247.478 40.8783 247.548 40.9321C247.829 41.1651 248.004 41.3264 248.092 41.4518C248.18 41.5414 248.232 41.6848 248.267 41.8461ZM250.285 41.7206C250.303 41.8461 250.303 42.0074 250.25 42.1507C250.198 42.312 250.127 42.4733 250.04 42.6705C249.934 42.8676 249.812 43.0468 249.636 43.2081C249.531 43.3156 249.443 43.3694 249.373 43.3694C249.338 43.3694 249.25 43.3156 249.11 43.1902C248.969 43.0647 248.846 42.9572 248.741 42.8855C248.636 42.7959 248.531 42.7063 248.46 42.6346C248.39 42.5629 248.338 42.4912 248.338 42.4375C248.408 42.2583 248.478 42.1328 248.513 42.0432C248.636 41.7565 248.741 41.5414 248.811 41.398C248.934 41.2009 249.039 40.9859 249.162 40.7708C249.18 40.735 249.232 40.6633 249.285 40.5916C249.32 40.6274 249.355 40.6633 249.408 40.6991C249.443 40.717 249.496 40.7529 249.566 40.8066C249.847 41.0396 250.022 41.2009 250.11 41.3264C250.198 41.4339 250.268 41.5593 250.285 41.7206ZM250.04 33.8352C249.724 35.0001 249.373 35.6811 248.952 35.8783L248.197 36.2546C248.127 36.2725 248.039 36.3442 247.934 36.4338C247.829 36.5234 247.741 36.5951 247.688 36.6668C247.565 36.8281 247.443 37.0611 247.32 37.3657C247.092 37.9572 246.934 38.3693 246.811 38.6382C246.6 39.0862 246.285 39.4088 245.863 39.6059C245.705 39.6776 245.442 39.7493 245.074 39.821C244.705 39.8927 244.442 39.9285 244.267 39.9285C244.109 39.9464 244.003 39.9106 243.951 39.8031C243.933 39.7493 244.003 39.6597 244.144 39.5521C244.284 39.4446 244.46 39.3012 244.67 39.1579C244.688 39.14 244.933 38.9787 245.354 38.6919C245.635 38.5127 245.793 38.4052 245.828 38.3693C246.197 38.0826 246.442 37.8317 246.6 37.6704C246.653 37.5987 246.811 37.2761 247.057 36.6847C247.32 36.0933 247.513 35.6991 247.653 35.5199C247.794 35.3406 248.004 35.1435 248.285 34.9643C248.338 34.9464 248.531 34.8388 248.864 34.6596C249.092 34.5342 249.268 34.4446 249.355 34.355C249.443 34.2833 249.566 34.1041 249.706 33.8352C249.847 33.5664 249.952 33.4589 250.005 33.4589C250.075 33.4947 250.092 33.6202 250.04 33.8352ZM252.514 31.6309C252.549 31.5592 252.619 31.4517 252.689 31.3263C252.707 31.3083 252.742 31.2546 252.795 31.2008C252.83 31.2725 252.847 31.3263 252.847 31.3621L252.742 32.0431L252.619 33.1722L252.409 34.9643C252.356 35.3586 252.286 35.6991 252.216 35.95C252.145 36.2188 252.04 36.4876 251.935 36.7923L251.479 37.76C251.286 38.1005 251.145 38.3335 251.057 38.459C250.97 38.5665 250.9 38.6382 250.829 38.6382L250.777 38.4948C250.882 38.1364 250.987 37.7779 251.075 37.4374C251.163 37.0969 251.233 36.8281 251.268 36.6489C251.391 36.0396 251.496 35.484 251.549 35.0181C251.601 34.5342 251.654 34.122 251.689 33.7456L251.9 33.1184L252.514 31.6309ZM268.78 28.2617C269.061 27.9391 269.693 27.3836 270.623 26.613C271.465 25.932 272.307 25.233 273.132 24.552C273.729 24.0502 274.308 23.5305 274.869 23.0108C275.255 22.6344 275.782 22.1326 276.431 21.4875C277.414 20.5197 277.905 20.0358 277.905 20C277.905 20.0717 277.888 20.1254 277.87 20.1792C277.835 20.3584 277.712 20.6452 277.502 21.0215C277.291 21.3979 277.115 21.6846 276.975 21.8638C276.765 22.1506 276.536 22.4194 276.291 22.7061C276.045 22.9749 275.852 23.19 275.712 23.3334C275.519 23.5305 275.185 23.8531 274.711 24.2832C274.361 24.6058 273.834 25.0717 273.115 25.6811C272.623 26.1112 272.167 26.4696 271.781 26.7922C271.255 27.2044 270.728 27.6166 270.202 28.0108L268.851 29.104C268.658 29.2653 268.465 29.4087 268.289 29.5521C268.114 29.6954 268.008 29.7492 267.991 29.6954C268.096 29.4087 268.219 29.1399 268.342 28.889C268.465 28.6381 268.605 28.4409 268.78 28.2617ZM267.166 35.484V35.7887C267.166 36.3442 267.306 36.7206 267.605 36.9356C267.78 37.0611 267.973 37.1149 268.219 37.1149C268.394 37.1149 268.57 36.8998 268.71 36.4876C268.728 36.398 268.763 36.2905 268.798 36.165C268.833 36.0396 268.868 35.9858 268.921 35.9858C268.991 35.9858 269.026 36.0575 269.026 36.1829C269.026 36.2367 269.009 36.3084 268.991 36.4159C268.973 36.5234 268.956 36.6131 268.938 36.6847C268.763 37.4733 268.552 38.0826 268.289 38.5306C268.026 38.9607 267.763 39.1758 267.482 39.1758C267.043 39.1758 266.745 38.9787 266.587 38.5665C266.429 38.1722 266.341 37.6525 266.341 37.0432C266.341 36.7385 266.359 36.3801 266.412 35.9858C266.464 35.5915 266.482 35.3406 266.499 35.2152L266.517 35.0001C266.517 34.9643 266.517 34.9285 266.499 34.9285C266.482 34.9105 266.464 34.9285 266.429 34.9643C266.376 35.036 266.289 35.1435 266.166 35.3227C265.92 35.6632 265.727 35.932 265.622 36.0933C265.236 36.5951 264.744 37.079 264.148 37.527C263.551 37.9751 262.937 38.3156 262.253 38.5665C261.586 38.8174 260.831 39.0324 259.989 39.2116C259.147 39.3909 258.269 39.4805 257.339 39.4805H257.041C256.48 39.4805 256.023 39.4446 255.672 39.3729C255.111 39.2654 254.725 39.0862 254.514 38.8353C254.304 38.5844 254.216 38.2081 254.216 37.7063C254.216 37.2761 254.251 36.8281 254.304 36.3801C254.356 35.932 254.444 35.6991 254.549 35.6991C254.584 35.6991 254.62 35.8245 254.637 36.0933C254.655 36.3622 254.76 36.5772 254.918 36.7923C255.269 37.1865 256.129 37.4016 257.497 37.4016C258.252 37.4016 258.849 37.3837 259.287 37.3478C261.446 37.1686 263.2 36.631 264.551 35.7528C265.201 35.3586 265.692 34.9105 266.061 34.3729C266.341 33.9607 266.552 33.4589 266.71 32.8854L266.991 31.7385C267.008 31.613 267.166 31.2725 267.429 30.7169C267.605 30.3585 267.71 30.1255 267.763 30.018C267.815 29.9105 267.886 29.8209 267.956 29.7492C267.956 29.8567 267.956 29.9642 267.956 30.0539C267.886 30.3406 267.85 30.5736 267.815 30.7349L267.394 32.8496C267.324 33.4231 267.254 33.9428 267.219 34.4267C267.201 34.8747 267.166 35.2331 267.166 35.484ZM269.956 31.846C269.974 31.9714 269.974 32.1327 269.921 32.2761C269.868 32.4374 269.798 32.5987 269.71 32.7958C269.605 32.9929 269.482 33.1722 269.307 33.3335C269.202 33.441 269.114 33.4947 269.044 33.4947C269.009 33.4947 268.921 33.441 268.78 33.3155C268.64 33.1901 268.517 33.0826 268.412 33.0109C268.307 32.9213 268.201 32.8317 268.131 32.76C268.061 32.6883 268.008 32.6166 268.008 32.5628C268.079 32.3836 268.149 32.2582 268.184 32.1686C268.307 31.8818 268.412 31.6668 268.482 31.5234C268.605 31.3263 268.71 31.1112 268.833 30.8962C268.851 30.8603 268.903 30.7886 268.956 30.7169C268.991 30.7528 269.026 30.7886 269.079 30.8245C269.114 30.8424 269.166 30.8782 269.237 30.932C269.517 31.165 269.693 31.3263 269.781 31.4517C269.868 31.5413 269.939 31.6847 269.956 31.846ZM271.535 41.7565C271.553 41.8819 271.553 42.0432 271.5 42.1866C271.448 42.3479 271.377 42.5092 271.29 42.7063C271.184 42.9034 271.062 43.0826 270.886 43.2439C270.781 43.3515 270.693 43.4052 270.623 43.4052C270.588 43.4052 270.5 43.3515 270.36 43.226C270.219 43.1006 270.096 42.993 269.991 42.9214C269.886 42.8317 269.781 42.7421 269.71 42.6705C269.64 42.5988 269.588 42.5271 269.588 42.4733C269.658 42.2941 269.728 42.1687 269.763 42.0791C269.886 41.7923 269.991 41.5773 270.061 41.4339C270.184 41.2368 270.29 41.0217 270.412 40.8066C270.43 40.7708 270.483 40.6991 270.535 40.6274C270.57 40.6633 270.605 40.6991 270.658 40.735C270.693 40.7529 270.746 40.7887 270.816 40.8425C271.097 41.0755 271.272 41.2367 271.36 41.3622C271.448 41.4518 271.518 41.5952 271.535 41.7565Z" fill="#543A73"/>
<path fill-rule="evenodd" clip-rule="evenodd" d="M283.148 39.9499C292.384 45.4222 300.97 38.2234 297.379 28.2445C300.655 31.7757 301.19 37.0041 299.136 40.4279C298.134 42.1057 296.519 43.2372 294.676 43.7347C290.77 44.7979 285.603 43.2762 283.148 39.9499ZM299.872 41.4521C305.326 32.078 298.363 23.2404 288.554 26.8008C292.05 23.4843 297.159 22.9966 300.502 25.1328C302.136 26.1765 303.224 27.8251 303.702 29.7174C304.695 33.7266 303.148 38.9842 299.872 41.4521ZM301.486 24.6256C292.518 18.7143 283.606 25.4937 286.73 35.6384C283.616 31.9512 283.329 26.713 285.536 23.377C286.615 21.748 288.277 20.6945 290.139 20.2848C294.103 19.4264 299.194 21.192 301.486 24.6256ZM284.456 22.9185C279.003 32.2926 285.956 41.1302 295.765 37.5796C292.269 40.8864 287.15 41.3741 283.817 39.2476C282.183 38.2039 281.094 36.5456 280.626 34.6532C279.624 30.6441 281.171 25.3864 284.456 22.9185Z" fill="#543A73"/>
<path fill-rule="evenodd" clip-rule="evenodd" d="M292.106 27.4937C294.637 27.4937 296.691 29.5909 296.691 32.1758C296.691 34.7608 294.637 36.858 292.106 36.858C289.575 36.858 287.521 34.7608 287.521 32.1758C287.521 29.5909 289.575 27.4937 292.106 27.4937Z" fill="#FE1796"/>
</g>
<defs>
<linearGradient id="paint0_linear_5112_20600" x1="160" y1="172.14" x2="160" y2="10.5631" gradientUnits="userSpaceOnUse">
<stop stop-color="#6982B0"/>
<stop offset="1" stop-color="white"/>
</linearGradient>
<clipPath id="clip0_5112_20600">
<rect width="320" height="172.14" rx="12" fill="white"/>
</clipPath>
</defs>
</svg>
