<svg width="320" height="172" viewBox="0 0 320 172" fill="none" xmlns="http://www.w3.org/2000/svg">
<rect width="320" height="172" rx="12" fill="#D2AB6B"/>
<rect width="90.5828" height="24" transform="translate(213.418 20)" fill="white"/>
<path d="M246.746 21.345C257.16 21.345 267.574 21.3495 277.988 21.333C278.5 21.3315 278.622 21.4616 278.622 21.9686C278.604 28.6769 278.604 35.3853 278.623 42.0936C278.625 42.5676 278.5 42.6648 278.041 42.6648C257.139 42.6529 236.236 42.6529 215.334 42.6663C214.858 42.6663 214.755 42.5437 214.755 42.0876C214.77 35.3613 214.77 28.6335 214.752 21.9073C214.75 21.4317 214.878 21.336 215.337 21.3375C225.806 21.348 236.277 21.345 246.746 21.345ZM266.442 24.0128C264.699 24.5631 263.24 25.3227 261.942 26.371C261.122 27.0335 261.246 27.9442 262.189 28.4616C262.492 28.6276 262.81 28.7756 263.09 28.976C263.376 29.1809 263.894 29.3513 263.817 29.6998C263.738 30.0631 263.264 30.2306 262.847 30.3204C261.377 30.6404 259.905 30.7555 258.401 30.5506C257.316 30.4026 256.963 29.9629 257.26 28.9431C257.287 28.8489 257.442 28.7577 257.302 28.6605C257.211 28.5977 257.094 28.6261 257.001 28.7173C256.479 29.2287 256.114 30.7032 257.04 31.234C257.566 31.5346 258.113 31.6199 258.662 31.6438C260.14 31.7096 261.609 31.6019 263.053 31.2191C263.986 30.9708 264.369 30.6045 264.496 29.6609C265.058 30.1364 265.622 30.5776 266.144 31.0651C266.695 31.5795 267.933 31.5286 268.496 31.2086C268.912 30.9708 269.106 30.1245 268.959 29.4186C268.905 29.1584 268.888 28.8294 268.632 28.7786C268.337 28.7203 268.304 29.1225 268.122 29.2915C267.929 29.471 268.106 29.6384 268.176 29.7895C268.256 29.9585 268.445 30.0751 268.43 30.2934C267.673 30.4759 267.028 30.5506 266.319 29.9256C265.321 29.0478 264.234 28.2627 262.991 27.7288C262.684 27.5972 262.356 27.4791 262.099 27.2383C262.63 26.6746 264.201 25.6846 265.267 25.405C265.997 25.2166 266.148 24.6887 266.442 24.0128ZM249.633 29.9301C248.8 30.0916 248.097 30.4415 247.31 30.431C246.524 30.419 245.736 30.3891 244.953 30.4385C244.351 30.4759 244.154 30.1514 244.109 29.6669C244.045 28.9865 244.031 28.3016 243.986 27.6197C243.946 27.0125 243.826 26.4099 243.875 25.7968C243.886 25.6667 243.817 25.5725 243.722 25.5216C243.6 25.4558 243.516 25.5695 243.444 25.6502C243.175 25.9493 243.009 26.2918 243.097 26.7C243.232 27.3311 243.292 27.9651 243.325 28.6096C243.36 29.284 243.441 29.9615 243.556 30.6269C243.631 31.0621 244.034 31.4823 244.551 31.4509C245.391 31.4015 246.236 31.4135 247.076 31.4449C247.723 31.4688 248.301 31.2924 248.869 31.0127C249.816 30.5462 250.801 30.1753 251.882 30.3248C252.525 30.4146 252.87 30.1858 252.966 29.5577C252.97 29.5248 252.951 29.4889 252.936 29.4186C252.186 29.453 251.434 29.3648 250.703 29.1839C250.107 29.0358 249.537 28.7831 248.95 28.5932C248.191 28.3479 247.536 28.6291 247.22 29.2661C247.059 29.5891 247.176 29.7282 247.461 29.631C248.211 29.3768 248.86 29.6893 249.633 29.9301ZM226.798 25.4543C226.152 25.8745 226.013 26.1602 226.124 26.863C226.29 27.9172 226.322 28.9865 226.474 30.0362C226.662 31.3312 226.848 31.4942 227.972 31.4434C228.663 31.412 229.359 31.4374 230.051 31.4404C230.39 31.4419 230.718 31.397 230.96 31.1413C231.111 30.9813 231.172 31.0695 231.303 31.1667C231.989 31.6737 232.908 31.5316 233.424 30.8467C233.554 30.6733 233.673 30.5955 233.887 30.7121C234.063 30.8079 234.257 30.8662 234.443 30.9409C235.205 31.2505 235.763 30.8348 235.667 30.0063C235.634 29.7222 235.55 29.4336 235.434 29.1704C235.161 28.5498 234.628 28.4661 234.103 28.8967C233.742 29.1928 233.637 29.6384 233.375 29.9914C232.904 30.6254 231.961 30.6389 231.573 29.9644C231.429 29.7147 231.319 29.7162 231.184 29.9196C230.847 30.428 230.354 30.4564 229.813 30.434C229.14 30.4056 228.464 30.3996 227.791 30.4355C227.317 30.4609 227.163 30.2261 227.131 29.8224C227.02 28.3913 226.912 26.9587 226.798 25.4543ZM220.05 36.456C220.078 36.4485 220.107 36.441 220.135 36.4335C220.594 37.419 221.046 38.406 221.514 39.3854C221.595 39.5544 221.606 39.8475 221.863 39.8221C222.087 39.7997 222.1 39.5305 222.183 39.351C222.646 38.3372 223.111 37.3248 223.644 36.1614C223.644 37.102 223.686 37.8706 223.625 38.6303C223.598 38.9622 223.734 39.5126 223.084 39.52C222.989 39.5215 222.98 39.6068 222.974 39.6815C222.965 39.8057 223.039 39.8415 223.145 39.8415C223.688 39.843 224.232 39.846 224.775 39.846C224.891 39.846 224.999 39.8311 224.987 39.6681C224.978 39.5499 224.917 39.5051 224.808 39.5111C224.406 39.529 224.428 39.2524 224.43 38.9802C224.433 37.9708 224.44 36.9614 224.425 35.9535C224.421 35.644 224.457 35.4122 224.818 35.3598C225.034 35.3299 225.047 35.1684 224.92 35.0608C224.632 34.817 223.59 35.0966 223.425 35.4496C222.959 36.4575 222.501 37.4683 222.01 38.5405C221.516 37.4534 221.054 36.426 220.576 35.4032C220.498 35.2357 220.45 35.0069 220.167 35.0189C219.831 35.0353 219.492 35.0204 219.155 35.0249C219.047 35.0264 218.921 35.0114 218.927 35.1864C218.931 35.297 218.975 35.3598 219.092 35.3598C219.574 35.3613 219.6 35.6858 219.597 36.0507C219.589 37.0033 219.588 37.9573 219.598 38.9099C219.601 39.2538 219.612 39.5694 219.12 39.5126C219.021 39.5006 218.939 39.5305 218.928 39.6561C218.916 39.8101 219.005 39.8445 219.131 39.8445C219.598 39.843 220.068 39.843 220.535 39.84C220.639 39.84 220.715 39.8042 220.717 39.683C220.718 39.5709 220.666 39.5036 220.553 39.5126C220.047 39.5559 220.047 39.2105 220.048 38.8635C220.05 38.062 220.05 37.259 220.05 36.456ZM261.949 37.3652C262.492 37.099 262.61 36.6474 262.519 36.1195C262.423 35.5542 261.993 35.2611 261.509 35.1565C260.597 34.9606 259.66 35.0219 258.731 35.0293C258.626 35.0308 258.497 35.0084 258.495 35.1834C258.494 35.3359 258.581 35.3673 258.71 35.3643C259.071 35.3583 259.145 35.6634 259.151 35.8922C259.179 36.936 259.179 37.9828 259.149 39.0265C259.143 39.2314 259.127 39.5798 258.722 39.517C258.608 39.4991 258.497 39.523 258.497 39.683C258.498 39.8999 258.663 39.8505 258.779 39.846C259.723 39.7997 260.672 39.9492 261.615 39.7443C262.258 39.6053 262.672 39.2538 262.762 38.6691C262.849 38.083 262.618 37.6986 261.949 37.3652ZM221.019 30.3428C221.354 31.4389 221.354 31.4389 222.432 31.4389C222.862 31.4389 223.298 31.3911 223.719 31.4479C224.854 31.6004 225.681 30.6927 225.326 29.3842C225.259 29.136 225.193 28.7711 224.912 28.7816C224.659 28.7921 224.559 29.1554 224.451 29.3947C224.383 29.5413 224.415 29.7267 224.574 29.8448C224.715 29.9495 224.875 30.1708 224.809 30.2426C224.697 30.3622 224.467 30.4131 224.284 30.419C223.668 30.44 223.049 30.3951 222.435 30.437C221.926 30.4714 221.72 30.2486 221.618 29.788C221.451 29.0388 221.46 28.2552 221.208 27.4761C221.03 27.6825 220.771 27.847 220.774 28.0055C220.786 28.5169 220.432 28.6126 220.087 28.7831C219.664 28.9924 219.327 29.3169 219.194 29.7805C219.122 30.0317 219.015 30.3413 219.342 30.5267C219.771 30.7675 220.606 30.6763 221.019 30.3428ZM243.764 37.4175C243.764 37.9588 243.758 38.5017 243.767 39.043C243.772 39.3167 243.739 39.532 243.385 39.5126C243.264 39.5066 243.097 39.4737 243.099 39.677C243.1 39.9298 243.307 39.8415 243.432 39.843C244.219 39.852 245.004 39.8475 245.791 39.8475C246.845 39.8475 246.848 39.849 247.137 38.8292C247.166 38.732 247.373 38.6123 247.152 38.5151C247.001 38.4478 246.95 38.5734 246.87 38.6886C246.644 39.0116 246.461 39.4064 245.966 39.3974C244.225 39.363 244.595 39.6591 244.557 38.0545C244.554 37.914 244.487 37.6672 244.626 37.6478C245.03 37.5925 245.445 37.585 245.851 37.6179C246.085 37.6358 246.116 37.8811 246.125 38.083C246.131 38.225 246.187 38.2863 246.329 38.2714C246.461 38.2579 246.46 38.1607 246.46 38.0695C246.463 37.6029 246.461 37.1349 246.46 36.6683C246.46 36.5696 246.442 36.4859 246.31 36.4889C246.205 36.4918 246.125 36.5188 246.128 36.6399C246.133 36.8178 246.1 36.9584 245.911 37.0481C245.499 37.2425 245.043 37.2231 244.658 37.1109C244.399 37.0362 244.599 36.6085 244.553 36.3438C244.541 36.2705 244.563 36.1928 244.548 36.121C244.442 35.5722 244.67 35.3883 245.208 35.4675C245.602 35.5258 246.02 35.3853 246.386 35.6694C246.592 35.8294 246.455 36.3752 246.818 36.2152C247.13 36.0776 246.7 35.6948 246.792 35.4107C246.803 35.3763 246.794 35.3359 246.798 35.2985C246.831 35.0652 246.706 35.0204 246.503 35.0204C245.455 35.0264 244.406 35.0219 243.358 35.0234C243.256 35.0234 243.121 34.9935 243.099 35.155C243.07 35.3509 243.204 35.3703 243.345 35.3583C243.716 35.3269 243.776 35.5363 243.767 35.8458C243.754 36.3707 243.764 36.8941 243.764 37.4175ZM273.741 30.2875C272.963 30.5417 272.179 30.3936 271.404 30.4205C271.12 30.4295 271.002 30.2321 270.959 29.9555C270.765 28.7188 270.759 27.4656 270.62 26.226C270.593 25.9852 270.809 25.5456 270.456 25.5381C270.083 25.5306 269.915 25.9613 269.846 26.3321C269.827 26.4383 269.836 26.5579 269.861 26.6641C269.986 27.183 269.992 27.7169 270.074 28.2403C270.204 29.0702 270.127 29.9241 270.387 30.7406C270.539 31.2146 270.854 31.424 271.323 31.4359C271.808 31.4479 272.296 31.4314 272.783 31.4404C273.334 31.4509 273.795 31.3208 274.056 30.7705C274.345 30.1603 274.294 29.5577 274.033 28.9655C273.981 28.8474 273.862 28.6455 273.642 28.822C273.303 29.0956 273.24 29.5158 273.492 29.8672C273.576 29.9854 273.64 30.1155 273.741 30.2875ZM230.275 36.5786C228.94 36.2182 228.305 37.0347 228.159 38.0396C228.029 38.9293 228.291 39.6621 229.314 39.9343C229.625 40.018 230 39.6755 230.128 39.7787C230.639 40.193 230.949 39.6561 231.351 39.6232C231.469 39.6142 231.51 39.5544 231.51 39.4468C231.511 39.3615 231.475 39.2867 231.39 39.2972C230.978 39.3466 231.065 39.0565 231.065 38.8307C231.063 37.7689 231.065 36.7057 231.065 35.644C231.065 34.6869 231.063 34.6824 230.179 35.0787C230.051 35.1355 229.858 35.1684 229.85 35.3419C229.841 35.5542 230.039 35.457 230.147 35.4795C230.314 35.5139 230.272 35.6395 230.273 35.7382C230.279 36.0133 230.275 36.29 230.275 36.5786ZM241.586 30.92C241.269 31.6617 240.756 31.9937 240.242 32.3526C239.668 32.7534 239.044 32.6547 238.422 32.6711C238.321 32.6741 238.188 32.6277 238.153 32.7878C238.125 32.9193 238.21 32.9642 238.308 33.036C238.957 33.5145 239.698 33.6416 240.377 33.2708C241.78 32.5066 242.624 30.7869 241.966 29.1195C241.69 28.4212 241.146 28.3195 240.654 28.8773C240.431 29.13 240.312 29.4351 240.236 29.7521C240.15 30.105 240.047 30.4714 240.357 30.7869C240.673 31.1114 241.035 31.1937 241.586 30.92ZM234.887 34.7841C234.424 34.9695 233.961 35.0264 233.575 35.4077C234.127 35.5124 234.413 36.0896 234.204 36.4933C234.144 36.6085 234.084 36.5726 233.986 36.5397C233.333 36.3259 232.827 36.5666 232.432 37.084C231.624 38.1413 231.967 39.5828 233.133 39.9387C233.584 40.0763 233.982 39.5275 234.469 39.9193C234.583 40.0105 235.015 39.7144 235.295 39.5843C235.374 39.5469 235.458 39.4796 235.427 39.366C235.401 39.2733 235.313 39.2838 235.244 39.2852C234.88 39.2987 234.886 39.055 234.886 38.7977C234.889 37.4788 234.887 36.1569 234.887 34.7841ZM271.978 38.3596C272.236 38.8292 272.991 39.0146 272.772 39.7249C272.748 39.8042 272.84 39.8415 272.921 39.843C273.37 39.8445 273.819 39.846 274.268 39.846C274.372 39.846 274.453 39.8146 274.444 39.689C274.438 39.6187 274.445 39.5425 274.345 39.52C273.558 39.3406 273.288 38.6213 272.831 38.0919C272.652 37.8856 272.735 37.8093 272.868 37.6613C273.246 37.241 273.682 36.9091 274.223 36.6683C273.792 36.598 273.376 36.5965 272.96 36.598C272.889 36.598 272.769 36.595 272.787 36.6833C272.925 37.3308 272.276 37.407 271.967 37.7629C271.967 36.7864 271.967 35.8085 271.967 34.7706C271.623 34.9082 271.342 35.0338 271.053 35.1266C270.942 35.1624 270.794 35.1819 270.788 35.2881C270.779 35.4361 270.93 35.4585 271.06 35.481C271.266 35.5169 271.305 35.6664 271.303 35.8533C271.299 36.936 271.299 38.0201 271.303 39.1028C271.305 39.3376 271.252 39.5111 270.975 39.514C270.863 39.5155 270.749 39.5051 270.746 39.674C270.741 39.8894 270.9 39.843 271.02 39.846C271.375 39.852 271.732 39.864 272.086 39.843C272.233 39.8341 272.459 39.9582 272.519 39.7354C272.597 39.4512 272.329 39.5604 272.201 39.4976C272.05 39.4228 271.982 39.2613 271.979 39.0879C271.975 38.8441 271.978 38.6019 271.978 38.3596ZM268.22 36.9031C268.08 36.77 268.277 36.4305 267.96 36.4948C267.626 36.5636 267.302 36.6982 266.991 36.8433C266.877 36.8971 266.878 37.1558 267.018 37.1274C267.521 37.0227 267.355 37.3831 267.362 37.5865C267.382 38.1084 267.368 38.6318 267.37 39.1537C267.37 39.3391 267.407 39.544 267.106 39.5155C266.961 39.5021 266.911 39.5888 266.929 39.7249C266.946 39.8565 267.051 39.8475 267.137 39.8475C267.512 39.8505 267.885 39.8535 268.26 39.843C268.376 39.84 268.539 39.9133 268.592 39.7398C268.659 39.5125 268.47 39.5365 268.334 39.4886C268.172 39.4303 268.154 39.2763 268.155 39.1163C268.161 38.6318 268.155 38.1458 268.158 37.6613C268.16 37.2276 268.52 37.1154 268.818 37.0616C269.197 36.9928 269.253 37.3592 269.271 37.6179C269.305 38.1188 269.275 38.6258 269.281 39.1282C269.284 39.378 269.193 39.5215 268.926 39.5126C268.795 39.5081 268.711 39.5499 268.722 39.701C268.734 39.8685 268.861 39.846 268.966 39.8475C269.414 39.8505 269.864 39.849 270.312 39.8445C270.404 39.8445 270.503 39.843 270.509 39.7114C270.513 39.6112 270.498 39.5185 270.372 39.5185C269.92 39.5185 269.96 39.1851 269.956 38.895C269.948 38.391 269.945 37.8871 269.957 37.3831C269.966 36.9838 269.756 36.6728 269.446 36.5262C269.157 36.3902 268.789 36.4395 268.497 36.6519C268.398 36.7251 268.311 36.8193 268.22 36.9031ZM250.285 38.077H250.284C250.284 37.8721 250.26 37.6642 250.288 37.4624C250.365 36.9405 250.074 36.6578 249.647 36.5038C249.146 36.3244 248.259 36.5861 248.086 36.9494C247.981 37.1693 247.992 37.428 248.08 37.6493C248.134 37.7839 248.317 37.7151 248.44 37.7091C248.65 37.6986 248.719 37.5566 248.71 37.3637C248.696 37.0631 248.816 36.8373 249.134 36.8283C249.456 36.8193 249.53 37.1169 249.593 37.3487C249.686 37.6852 249.366 37.7495 249.162 37.8093C248.93 37.8781 248.728 37.9962 248.515 38.0949C247.893 38.3805 247.678 38.883 247.956 39.4632C248.163 39.8939 248.827 39.9836 249.378 39.689C249.447 39.6531 249.447 39.4886 249.615 39.6112C250.131 39.9866 250.455 39.9148 250.781 39.4079C250.849 39.3032 250.883 39.194 250.802 39.1043C250.718 39.0116 250.647 39.1118 250.573 39.1641C250.314 39.3496 250.294 39.1447 250.287 38.9712C250.278 38.6736 250.285 38.376 250.285 38.077ZM266.025 38.0231C266.024 38.0231 266.022 38.0231 266.019 38.0231C266.019 37.7988 266.003 37.5745 266.022 37.3517C266.07 36.7924 265.775 36.5502 265.262 36.4844C264.556 36.3947 263.873 36.6848 263.786 37.1468C263.744 37.3682 263.684 37.6627 264.049 37.7121C264.337 37.751 264.462 37.6059 264.448 37.3218C264.433 37.0377 264.576 36.8403 264.856 36.8343C265.121 36.8283 265.274 37.0317 265.34 37.2769C265.424 37.591 265.205 37.7226 264.965 37.7943C264.646 37.89 264.357 38.0231 264.088 38.225C263.726 38.5002 263.498 39.1342 263.696 39.4797C263.943 39.9118 264.37 39.8789 264.781 39.8385C264.884 39.8281 264.998 39.7742 265.079 39.7055C265.235 39.5739 265.328 39.4662 265.48 39.7428C265.601 39.9642 265.89 39.8714 266.081 39.8071C266.295 39.7354 266.551 39.6367 266.575 39.3481C266.584 39.2314 266.613 38.9413 266.38 39.1193C266.013 39.4019 266.052 39.0146 266.04 38.9174C266 38.6243 266.025 38.3222 266.025 38.0231ZM234.376 32.7294C234.616 32.9238 234.719 33.027 234.841 33.1033C235.743 33.6715 236.729 33.5444 237.507 32.8087C238.546 31.8262 238.807 30.268 238.008 29.1315C237.743 28.7532 237.581 28.7876 237.319 29.1554C236.974 29.6399 237.23 29.9585 237.521 30.3189C237.738 30.588 238.076 30.8946 237.776 31.2639C237.287 31.8666 236.713 32.369 235.971 32.6846C235.484 32.8909 235.035 32.5963 234.376 32.7294ZM238.875 37.9409C239.177 37.9409 239.476 37.9409 239.775 37.9409C240.075 37.9409 240.375 37.9439 240.673 37.9394C240.886 37.9364 241.035 37.9588 240.981 37.6074C240.84 36.7087 240.011 36.2287 239.164 36.5876C238.18 37.0048 238.085 38.0142 238.368 38.9981C238.546 39.6187 239.155 39.9836 239.701 39.9597C240.173 39.9387 240.817 39.4273 240.943 38.9308C240.97 38.8217 241.131 38.6602 240.939 38.545C240.691 38.394 240.717 38.6751 240.657 38.7589C240.464 39.0265 240.255 39.1955 239.894 39.1791C239.332 39.1551 239.033 38.8202 238.875 37.9409ZM253.385 36.4978C253.189 36.5173 253.01 36.5935 252.774 36.5158C252.331 36.3692 251.667 36.5397 251.475 37.1319C251.33 37.579 251.505 38.0575 252.014 38.3566C252.28 38.5136 252.574 38.6168 252.817 38.8202C252.975 38.9518 253.16 39.0774 253.022 39.2852C252.9 39.4707 252.735 39.6023 252.432 39.5305C252.039 39.4378 251.904 39.1566 251.762 38.8621C251.708 38.7499 251.739 38.5914 251.544 38.6198C251.339 38.6482 251.416 38.8157 251.408 38.9278C251.347 39.7443 251.35 39.7413 252.119 39.855C252.207 39.8685 252.286 39.9283 252.375 39.9477C252.858 40.0569 253.486 39.698 253.657 39.2195C253.842 38.7006 253.675 38.3177 253.126 38.0246C252.885 37.8945 252.651 37.7435 252.394 37.6523C252.128 37.5566 252 37.3577 251.994 37.1244C251.988 36.945 252.232 36.8911 252.375 36.8507C252.628 36.7775 252.837 36.9225 252.972 37.1349C253.091 37.3233 253.183 37.5297 253.288 37.727C253.321 37.7181 253.352 37.7091 253.385 37.7001C253.385 37.3068 253.385 36.9135 253.385 36.4978ZM237.133 37.1887C237.133 36.61 237.133 36.0313 237.133 35.4525C237.133 34.6854 237.133 34.6854 236.431 34.9935C236.364 35.0234 236.295 35.0488 236.233 35.0862C236.112 35.1594 235.909 35.1759 235.918 35.3539C235.927 35.5498 236.125 35.4406 236.233 35.484C236.436 35.5662 236.341 35.7397 236.343 35.8698C236.35 36.9151 236.347 37.9603 236.346 39.0071C236.346 39.2269 236.391 39.4797 236.061 39.5111C235.903 39.526 235.888 39.6262 235.911 39.7458C235.935 39.8774 236.052 39.8445 236.134 39.846C236.547 39.852 236.957 39.852 237.369 39.849C237.456 39.849 237.561 39.855 237.576 39.7234C237.591 39.5858 237.537 39.5021 237.393 39.5155C237.086 39.5454 237.136 39.3316 237.136 39.1507C237.133 38.4957 237.134 37.8422 237.133 37.1887ZM256.353 39.0714C256.208 39.0714 256.142 39.052 256.099 39.0744C255.517 39.381 255.458 39.351 255.454 38.708C255.451 38.2803 255.479 37.8497 255.446 37.4235C255.418 37.0511 255.499 36.8582 255.919 36.9255C256.048 36.9465 256.248 36.9853 256.23 36.7386C256.215 36.5322 256.033 36.5831 255.929 36.601C255.449 36.6862 255.409 36.4141 255.451 36.0552C255.46 35.9819 255.458 35.9057 255.452 35.8324C255.446 35.7486 255.487 35.635 255.358 35.6066C255.247 35.5827 255.166 35.6724 255.141 35.7456C254.991 36.1674 254.697 36.447 254.324 36.6728C254.205 36.7446 254.136 36.942 254.367 36.9165C254.874 36.8627 254.776 37.1887 254.776 37.4728C254.776 38.0306 254.779 38.5899 254.775 39.1477C254.773 39.4183 254.811 39.7129 255.07 39.8086C255.382 39.9238 255.748 39.9014 256.01 39.6621C256.163 39.5275 256.227 39.3002 256.353 39.0714ZM226.905 38.0097C226.905 37.5999 226.9 37.1917 226.906 36.782C226.909 36.5905 226.875 36.4216 226.641 36.4904C226.347 36.5771 226.068 36.7117 225.78 36.8178C225.662 36.8612 225.666 36.9479 225.675 37.0392C225.684 37.1289 225.744 37.1708 225.828 37.1379C226.143 37.0137 226.115 37.2425 226.116 37.4205C226.121 37.9603 226.122 38.4987 226.115 39.0385C226.112 39.2553 226.221 39.5559 225.801 39.5185C225.68 39.5081 225.669 39.6187 225.675 39.7174C225.68 39.8146 225.749 39.8385 225.825 39.8385C226.292 39.84 226.758 39.84 227.222 39.8356C227.305 39.8341 227.35 39.7802 227.35 39.6905C227.351 39.6098 227.329 39.517 227.249 39.523C226.75 39.5589 226.923 39.1925 226.909 38.9563C226.891 38.6437 226.905 38.3267 226.905 38.0097ZM229.494 33.3485C229.721 33.205 229.886 33.021 230 32.7803C230.096 32.5769 229.969 32.4692 229.828 32.4603C229.556 32.4408 229.384 31.9025 229.098 32.2509C228.862 32.538 228.698 32.4782 228.458 32.3347C227.987 32.052 227.988 32.5694 227.798 32.7429C227.531 32.9866 227.83 33.1332 227.969 33.1945C228.186 33.2902 228.446 33.7403 228.681 33.2588C228.832 32.9508 228.973 33.0943 229.144 33.1751C229.261 33.2274 229.374 33.2872 229.494 33.3485ZM273.149 32.6681C272.87 32.4199 272.592 32.1148 272.305 32.1492C271.967 32.1911 271.666 32.6233 271.692 32.8999C271.719 33.193 272.171 33.4532 272.489 33.4203C272.835 33.3859 272.859 32.8954 273.149 32.6681ZM223.853 27.9501C223.839 27.82 223.111 27.2982 223.022 27.3161C222.947 27.3311 222.411 28.0892 222.45 28.1431C222.65 28.4137 223.003 28.7203 223.225 28.6664C223.485 28.6006 223.659 28.1879 223.853 27.9501ZM248.846 27.1217C248.59 26.9617 248.315 26.6521 248.05 26.6581C247.69 26.6671 247.443 27.1426 247.466 27.4088C247.487 27.66 247.965 27.9367 248.235 27.9098C248.495 27.8829 248.681 27.4896 248.846 27.1217ZM267.157 28.6575C267.551 28.5363 267.784 28.1984 267.782 27.9307C267.779 27.5898 267.277 27.3296 267.06 27.3475C266.791 27.3699 266.481 27.7782 266.5 28.1146C266.517 28.4302 266.97 28.4302 267.157 28.6575ZM226.905 35.3329C226.929 35.0548 226.795 34.8379 226.536 34.817C226.265 34.7961 226.131 35.0054 226.118 35.2821C226.104 35.5497 226.194 35.6993 226.488 35.7008C226.747 35.7023 226.923 35.6335 226.905 35.3329Z" fill="#0D4693"/>
<path d="M266.441 24.0127C266.148 24.6901 265.996 25.2165 265.265 25.4079C264.199 25.6875 262.628 26.6775 262.097 27.2413C262.354 27.482 262.682 27.5987 262.989 27.7317C264.232 28.2671 265.32 29.0507 266.317 29.9285C267.026 30.5521 267.671 30.4788 268.428 30.2964C268.441 30.078 268.252 29.9614 268.174 29.7924C268.104 29.6414 267.927 29.4739 268.12 29.2944C268.303 29.1255 268.335 28.7232 268.63 28.7815C268.886 28.8324 268.904 29.1613 268.957 29.4215C269.104 30.1274 268.91 30.9738 268.494 31.2115C267.932 31.5316 266.693 31.5824 266.142 31.068C265.62 30.5805 265.056 30.1393 264.494 29.6638C264.368 30.6074 263.985 30.9738 263.051 31.222C261.607 31.6048 260.138 31.7125 258.66 31.6467C258.111 31.6228 257.563 31.5375 257.038 31.237C256.112 30.7061 256.477 29.2316 256.999 28.7202C257.092 28.629 257.207 28.6006 257.3 28.6634C257.441 28.7606 257.287 28.8503 257.258 28.946C256.962 29.9659 257.314 30.4055 258.399 30.5536C259.903 30.7584 261.375 30.6433 262.845 30.3233C263.262 30.2321 263.736 30.0661 263.815 29.7027C263.892 29.3543 263.376 29.1838 263.088 28.9789C262.808 28.7785 262.49 28.632 262.187 28.4645C261.244 27.9456 261.12 27.0364 261.94 26.3739C263.24 25.3212 264.7 24.563 266.441 24.0127Z" fill="#F9FCFA"/>
<path d="M249.633 29.9301C248.86 29.6908 248.211 29.3783 247.461 29.631C247.176 29.7267 247.059 29.5891 247.22 29.2661C247.535 28.6291 248.191 28.3494 248.95 28.5932C249.537 28.7831 250.107 29.0358 250.704 29.1839C251.434 29.3648 252.186 29.4545 252.936 29.4186C252.952 29.4889 252.972 29.5248 252.966 29.5577C252.87 30.1858 252.525 30.4146 251.882 30.3248C250.801 30.1753 249.816 30.5462 248.869 31.0127C248.301 31.2924 247.723 31.4688 247.076 31.4449C246.235 31.4135 245.389 31.4015 244.552 31.4509C244.034 31.4808 243.631 31.0621 243.556 30.6269C243.441 29.9615 243.36 29.2841 243.325 28.6096C243.292 27.9651 243.232 27.3311 243.097 26.7C243.01 26.2918 243.177 25.9493 243.444 25.6502C243.516 25.5695 243.6 25.4558 243.723 25.5216C243.817 25.571 243.886 25.6652 243.875 25.7968C243.826 26.4099 243.946 27.0125 243.986 27.6197C244.031 28.3016 244.045 28.9865 244.109 29.6669C244.154 30.1514 244.351 30.4759 244.953 30.4385C245.736 30.3891 246.524 30.4191 247.31 30.431C248.097 30.4415 248.8 30.0916 249.633 29.9301Z" fill="#FBFDFC"/>
<path d="M226.799 25.4546C226.913 26.959 227.021 28.3901 227.132 29.8226C227.163 30.2264 227.318 30.4597 227.791 30.4358C228.464 30.3999 229.14 30.4058 229.813 30.4343C230.356 30.4567 230.848 30.4283 231.185 29.9198C231.32 29.7165 231.429 29.715 231.573 29.9647C231.962 30.6406 232.904 30.6257 233.375 29.9916C233.638 29.6387 233.742 29.1931 234.104 28.897C234.627 28.4678 235.161 28.5501 235.435 29.1707C235.55 29.4323 235.634 29.721 235.667 30.0066C235.763 30.8335 235.206 31.2493 234.444 30.9412C234.258 30.8664 234.063 30.8066 233.888 30.7124C233.673 30.5958 233.555 30.6735 233.425 30.847C232.91 31.5319 231.99 31.6724 231.303 31.167C231.173 31.0698 231.11 30.9816 230.96 31.1416C230.719 31.3988 230.389 31.4422 230.052 31.4407C229.359 31.4377 228.665 31.4122 227.973 31.4437C226.848 31.496 226.664 31.3315 226.475 30.0365C226.322 28.9852 226.291 27.916 226.124 26.8633C226.013 26.1604 226.153 25.8763 226.799 25.4546ZM234.904 29.9946C234.802 29.6701 234.654 29.4847 234.384 29.4368C234.344 29.4294 234.216 29.6058 234.231 29.6297C234.374 29.8436 234.6 29.9183 234.904 29.9946Z" fill="#FBFCFB"/>
<path d="M220.049 36.456C220.049 37.2591 220.049 38.0621 220.049 38.8666C220.049 39.2135 220.049 39.559 220.554 39.5156C220.667 39.5066 220.719 39.5739 220.718 39.6861C220.716 39.8087 220.64 39.8431 220.536 39.8431C220.069 39.8461 219.6 39.8461 219.132 39.8476C219.004 39.8476 218.916 39.8132 218.929 39.6592C218.94 39.5335 219.022 39.5036 219.121 39.5156C219.613 39.5724 219.603 39.2569 219.6 38.913C219.591 37.9604 219.592 37.0063 219.598 36.0538C219.601 35.6889 219.576 35.3644 219.093 35.3629C218.976 35.3629 218.932 35.3001 218.928 35.1894C218.922 35.016 219.048 35.0294 219.156 35.0279C219.493 35.0249 219.83 35.0384 220.168 35.0219C220.451 35.0085 220.499 35.2373 220.577 35.4063C221.054 36.4276 221.517 37.4564 222.011 38.5436C222.502 37.4714 222.96 36.459 223.427 35.4526C223.59 35.0982 224.633 34.8201 224.921 35.0638C225.049 35.1715 225.035 35.333 224.819 35.3629C224.456 35.4137 224.422 35.647 224.426 35.9566C224.441 36.9659 224.434 37.9753 224.431 38.9832C224.429 39.2554 224.407 39.5321 224.809 39.5141C224.918 39.5096 224.981 39.5545 224.989 39.6711C225.001 39.8341 224.893 39.8491 224.776 39.8491C224.233 39.8491 223.689 39.8461 223.146 39.8446C223.04 39.8446 222.966 39.8072 222.975 39.6846C222.981 39.6083 222.989 39.5231 223.085 39.5231C223.734 39.5156 223.599 38.9653 223.626 38.6333C223.689 37.8737 223.645 37.105 223.645 36.1644C223.112 37.3278 222.646 38.3402 222.184 39.3541C222.103 39.5335 222.089 39.8027 221.865 39.8251C221.607 39.8506 221.596 39.5575 221.515 39.3885C221.048 38.409 220.593 37.4206 220.136 36.4366C220.106 36.4411 220.078 36.4485 220.049 36.456Z" fill="#FAFCFA"/>
<path d="M261.949 37.3655C262.62 37.6989 262.85 38.0832 262.76 38.6679C262.67 39.2526 262.257 39.6026 261.614 39.7431C260.671 39.948 259.722 39.7985 258.777 39.8448C258.662 39.8508 258.496 39.9002 258.496 39.6818C258.494 39.5218 258.607 39.4979 258.721 39.5158C259.125 39.5786 259.142 39.2302 259.148 39.0253C259.178 37.9816 259.178 36.9348 259.149 35.891C259.143 35.6637 259.07 35.3586 258.709 35.3631C258.581 35.3646 258.493 35.3347 258.494 35.1822C258.496 35.0072 258.625 35.0296 258.73 35.0281C259.659 35.0207 260.596 34.9609 261.507 35.1553C261.991 35.2599 262.422 35.553 262.518 36.1183C262.609 36.6477 262.491 37.0978 261.949 37.3655ZM259.951 38.5064C260.001 38.8728 259.711 39.4455 260.513 39.4755C260.692 39.4829 260.803 39.3738 260.971 39.3902C261.539 39.447 261.789 39.0134 261.83 38.5947C261.871 38.1535 261.599 37.8021 261.09 37.6615C260.176 37.4118 259.951 37.5494 259.951 38.5064ZM259.951 36.2723C259.977 36.6955 259.753 37.2488 260.498 37.2697C261.122 37.2862 261.753 36.8256 261.741 36.3605C261.728 35.8536 261.188 35.5246 260.497 35.4603C259.713 35.387 260.001 35.9224 259.951 36.2723Z" fill="#F9FCFA"/>
<path d="M221.019 30.3428C220.605 30.6777 219.771 30.7674 219.343 30.5267C219.017 30.3427 219.123 30.0317 219.195 29.7805C219.328 29.3169 219.666 28.9924 220.088 28.7831C220.432 28.6126 220.785 28.5169 220.775 28.0054C220.772 27.8469 221.031 27.6824 221.21 27.4761C221.461 28.2552 221.451 29.0388 221.619 29.788C221.721 30.2485 221.929 30.4714 222.436 30.437C223.05 30.3966 223.67 30.4399 224.286 30.419C224.469 30.413 224.699 30.3622 224.81 30.2426C224.876 30.1708 224.716 29.9495 224.575 29.8448C224.415 29.7266 224.385 29.5412 224.452 29.3947C224.56 29.1569 224.66 28.792 224.914 28.7816C225.194 28.7696 225.26 29.1345 225.327 29.3842C225.683 30.6927 224.855 31.6004 223.72 31.4479C223.298 31.391 222.862 31.4389 222.433 31.4389C221.354 31.4374 221.354 31.4374 221.019 30.3428ZM220.016 29.6489C220.385 29.607 220.698 29.7581 220.922 29.5397C221.039 29.4246 220.85 29.1285 220.773 29.1225C220.451 29.1001 220.273 29.3528 220.016 29.6489Z" fill="#FAFCFA"/>
<path d="M243.765 37.4176C243.765 36.8942 243.755 36.3708 243.768 35.8489C243.777 35.5394 243.716 35.33 243.345 35.3614C243.206 35.3734 243.071 35.354 243.1 35.1581C243.124 34.9966 243.257 35.028 243.359 35.0265C244.407 35.0235 245.456 35.028 246.504 35.0235C246.706 35.022 246.832 35.0683 246.799 35.3016C246.795 35.339 246.804 35.3794 246.793 35.4138C246.7 35.6979 247.13 36.0807 246.819 36.2183C246.456 36.3783 246.592 35.831 246.387 35.6725C246.021 35.3884 245.603 35.5274 245.209 35.4706C244.671 35.3913 244.443 35.5753 244.549 36.1241C244.563 36.1959 244.54 36.2751 244.554 36.3469C244.6 36.6116 244.398 37.0393 244.659 37.114C245.044 37.2262 245.5 37.2456 245.912 37.0512C246.101 36.9615 246.134 36.8209 246.129 36.643C246.126 36.5219 246.206 36.4949 246.31 36.492C246.442 36.489 246.459 36.5742 246.46 36.6714C246.462 37.138 246.462 37.606 246.46 38.0726C246.46 38.1623 246.46 38.261 246.33 38.2745C246.188 38.2894 246.132 38.2281 246.126 38.086C246.117 37.8842 246.084 37.6389 245.852 37.621C245.446 37.5896 245.029 37.5956 244.627 37.6509C244.488 37.6703 244.555 37.9171 244.558 38.0576C244.596 39.6607 244.225 39.3661 245.967 39.4005C246.462 39.4095 246.646 39.0147 246.871 38.6917C246.952 38.5765 247.003 38.4509 247.153 38.5182C247.373 38.6154 247.165 38.7351 247.138 38.8323C246.849 39.8521 246.846 39.8506 245.792 39.8506C245.005 39.8506 244.219 39.8551 243.432 39.8461C243.308 39.8446 243.101 39.9329 243.1 39.6801C243.098 39.4768 243.264 39.5082 243.386 39.5156C243.74 39.5351 243.773 39.3183 243.768 39.0461C243.759 38.5003 243.765 37.9589 243.765 37.4176Z" fill="#FBFCFB"/>
<path d="M273.741 30.2876C273.64 30.1171 273.574 29.9855 273.49 29.8674C273.238 29.5174 273.301 29.0957 273.64 28.8221C273.86 28.6456 273.98 28.8475 274.031 28.9656C274.292 29.5578 274.342 30.1605 274.054 30.7706C273.793 31.3209 273.333 31.451 272.781 31.4405C272.295 31.4315 271.808 31.448 271.321 31.436C270.853 31.4241 270.537 31.2147 270.386 30.7407C270.125 29.9242 270.203 29.0703 270.072 28.2404C269.99 27.7185 269.984 27.1831 269.86 26.6642C269.834 26.558 269.825 26.4384 269.845 26.3322C269.913 25.9614 270.081 25.5307 270.455 25.5382C270.808 25.5457 270.591 25.9853 270.618 26.2261C270.759 27.4657 270.763 28.7189 270.957 29.9556C271 30.2322 271.119 30.4311 271.402 30.4207C272.179 30.3937 272.963 30.5403 273.741 30.2876Z" fill="#FBFCFB"/>
<path d="M230.275 36.5789C230.275 36.2903 230.279 36.0136 230.273 35.7355C230.272 35.6368 230.313 35.5112 230.147 35.4768C230.039 35.4543 229.841 35.5515 229.85 35.3392C229.858 35.1657 230.051 35.1328 230.179 35.076C231.063 34.6812 231.065 34.6842 231.065 35.6413C231.065 36.703 231.063 37.7662 231.065 38.828C231.065 39.0553 230.978 39.3454 231.39 39.2945C231.474 39.2841 231.51 39.3588 231.51 39.4441C231.508 39.5517 231.469 39.6115 231.351 39.6205C230.949 39.6534 230.639 40.1903 230.128 39.776C230 39.6729 229.625 40.0153 229.314 39.9316C228.291 39.6594 228.03 38.9267 228.159 38.0369C228.306 37.035 228.942 36.2185 230.275 36.5789ZM230.381 38.3853C230.394 37.9741 230.423 37.6227 230.273 37.2937C230.164 37.0529 230.011 36.8271 229.718 36.8301C229.456 36.8331 229.276 36.9647 229.119 37.2189C228.823 37.693 228.882 38.1954 228.964 38.6665C229.069 39.2736 229.727 39.5592 230.182 39.2856C230.595 39.0328 230.282 38.6336 230.381 38.3853Z" fill="#F9FCFA"/>
<path d="M241.586 30.9199C241.035 31.1935 240.673 31.1113 240.356 30.7868C240.045 30.4698 240.149 30.1049 240.234 29.752C240.311 29.4349 240.431 29.1299 240.653 28.8772C241.144 28.3209 241.688 28.4226 241.964 29.1194C242.624 30.7853 241.78 32.5065 240.375 33.2706C239.696 33.64 238.956 33.5144 238.307 33.0359C238.208 32.9626 238.124 32.9177 238.152 32.7876C238.187 32.6291 238.32 32.674 238.42 32.671C239.041 32.653 239.665 32.7532 240.24 32.3525C240.756 31.9936 241.269 31.6616 241.586 30.9199ZM241.039 29.5202C240.949 29.6279 240.748 29.6802 240.786 29.8342C240.814 29.9553 240.943 30.0914 241.119 30.0899C241.264 30.0884 241.399 30.0107 241.387 29.8701C241.372 29.6996 241.218 29.6024 241.039 29.5202Z" fill="#F8FBF9"/>
<path d="M234.887 34.7842C234.887 36.157 234.889 37.4789 234.886 38.8008C234.886 39.058 234.88 39.3018 235.244 39.2883C235.312 39.2853 235.402 39.2763 235.427 39.3691C235.459 39.4827 235.375 39.55 235.295 39.5874C235.015 39.7175 234.582 40.0136 234.469 39.9224C233.982 39.5306 233.585 40.0794 233.134 39.9418C231.966 39.5859 231.622 38.1443 232.432 37.0871C232.828 36.5697 233.333 36.3289 233.986 36.5428C234.084 36.5742 234.145 36.6115 234.204 36.4964C234.414 36.0926 234.127 35.5154 233.576 35.4108C233.961 35.0264 234.424 34.9696 234.887 34.7842ZM234.21 38.2969C234.21 38.0741 234.226 37.8497 234.207 37.6299C234.169 37.2351 233.976 36.8942 233.577 36.8374C233.205 36.785 232.999 37.12 232.871 37.4206C232.661 37.9125 232.717 38.4 232.954 38.8875C233.131 39.2509 233.4 39.4408 233.78 39.3825C234.192 39.3197 234.259 38.9952 234.213 38.6303C234.198 38.5212 234.21 38.409 234.21 38.2969Z" fill="#F9FCFA"/>
<path d="M271.976 38.3595C271.976 38.6017 271.973 38.844 271.978 39.0877C271.981 39.2597 272.048 39.4227 272.2 39.4975C272.327 39.5603 272.595 39.4511 272.518 39.7352C272.456 39.958 272.23 39.8339 272.084 39.8429C271.731 39.8638 271.374 39.8519 271.019 39.8459C270.899 39.8444 270.741 39.8892 270.744 39.6739C270.747 39.5064 270.861 39.5154 270.974 39.5139C271.252 39.5109 271.303 39.3375 271.302 39.1027C271.297 38.02 271.297 36.9358 271.302 35.8532C271.303 35.6662 271.264 35.5167 271.059 35.4808C270.929 35.4584 270.777 35.436 270.786 35.2879C270.792 35.1817 270.941 35.1623 271.051 35.1264C271.342 35.0322 271.621 34.9081 271.966 34.7705C271.966 35.8083 271.966 36.7848 271.966 37.7628C272.275 37.4069 272.922 37.3321 272.786 36.6831C272.768 36.5949 272.888 36.5979 272.958 36.5979C273.373 36.5964 273.79 36.5964 274.222 36.6682C273.681 36.9089 273.243 37.2394 272.867 37.6611C272.733 37.8107 272.651 37.8854 272.829 38.0918C273.287 38.6212 273.556 39.3404 274.343 39.5199C274.444 39.5423 274.438 39.6186 274.442 39.6889C274.453 39.8145 274.37 39.8459 274.267 39.8459C273.817 39.8459 273.369 39.8444 272.919 39.8429C272.838 39.8429 272.745 39.804 272.771 39.7248C272.991 39.0144 272.234 38.829 271.976 38.3595Z" fill="#FAFCFA"/>
<path d="M268.22 36.9032C268.312 36.8194 268.399 36.7252 268.5 36.6505C268.793 36.4366 269.16 36.3873 269.449 36.5249C269.76 36.6714 269.97 36.9824 269.961 37.3817C269.949 37.8857 269.952 38.3896 269.959 38.8936C269.964 39.1837 269.923 39.5171 270.376 39.5171C270.502 39.5171 270.517 39.6099 270.512 39.7101C270.506 39.8416 270.406 39.8431 270.316 39.8431C269.868 39.8461 269.418 39.8476 268.97 39.8461C268.865 39.8461 268.737 39.8671 268.725 39.6996C268.713 39.5485 268.797 39.5067 268.929 39.5112C269.196 39.5201 269.287 39.3766 269.284 39.1268C269.278 38.6229 269.307 38.1175 269.274 37.6165C269.256 37.3578 269.201 36.9914 268.821 37.0602C268.521 37.114 268.163 37.2262 268.162 37.6599C268.159 38.1444 268.165 38.6304 268.159 39.1149C268.157 39.2749 268.175 39.4289 268.337 39.4872C268.473 39.5366 268.661 39.5127 268.595 39.7385C268.544 39.9119 268.381 39.8387 268.264 39.8416C267.89 39.8506 267.516 39.8491 267.141 39.8461C267.054 39.8461 266.949 39.8551 266.932 39.7235C266.914 39.5874 266.964 39.5007 267.109 39.5142C267.411 39.5426 267.373 39.3377 267.373 39.1523C267.372 38.6304 267.385 38.107 267.366 37.5851C267.358 37.3832 267.525 37.0213 267.021 37.126C266.881 37.1544 266.88 36.8957 266.994 36.8419C267.304 36.6968 267.63 36.5637 267.964 36.4935C268.277 36.4306 268.081 36.7701 268.22 36.9032Z" fill="#F9FCFA"/>
<path d="M250.285 38.0773C250.285 38.3749 250.276 38.6739 250.288 38.9715C250.294 39.145 250.314 39.3499 250.574 39.1644C250.648 39.1121 250.72 39.0119 250.804 39.1046C250.885 39.1943 250.85 39.305 250.783 39.4082C250.456 39.9151 250.132 39.9869 249.617 39.6115C249.449 39.4889 249.447 39.6534 249.38 39.6893C248.83 39.9824 248.164 39.8942 247.957 39.4635C247.68 38.8833 247.894 38.3823 248.516 38.0952C248.729 37.9965 248.93 37.8784 249.164 37.8096C249.368 37.7498 249.687 37.687 249.594 37.349C249.531 37.1172 249.458 36.8196 249.135 36.8286C248.819 36.8376 248.698 37.0619 248.711 37.364C248.72 37.5569 248.651 37.7004 248.441 37.7094C248.318 37.7154 248.136 37.7827 248.082 37.6496C247.993 37.4283 247.983 37.1696 248.088 36.9497C248.26 36.5879 249.147 36.3247 249.648 36.5041C250.075 36.6581 250.366 36.9408 250.29 37.4627C250.26 37.663 250.285 37.8724 250.285 38.0773ZM249.594 38.013C249.246 38.1894 248.938 38.2866 248.716 38.5498C248.531 38.7681 248.53 39.0014 248.695 39.1988C248.882 39.4261 249.129 39.4201 249.366 39.2392C249.796 38.9102 249.56 38.4765 249.594 38.013Z" fill="#F9FCFA"/>
<path d="M266.025 38.0233C266.025 38.3224 266 38.6229 266.039 38.9175C266.052 39.0147 266.012 39.402 266.379 39.1194C266.611 38.9415 266.583 39.2316 266.574 39.3482C266.55 39.6368 266.295 39.7355 266.079 39.8073C265.889 39.8716 265.6 39.9643 265.478 39.743C265.325 39.4663 265.234 39.574 265.078 39.7056C264.997 39.7729 264.883 39.8282 264.78 39.8387C264.367 39.8791 263.94 39.912 263.694 39.4798C263.496 39.1344 263.724 38.5003 264.087 38.2252C264.355 38.0218 264.645 37.8902 264.964 37.7945C265.204 37.7227 265.423 37.5911 265.339 37.2771C265.273 37.0318 265.12 36.8285 264.855 36.8344C264.574 36.8404 264.432 37.0378 264.447 37.3219C264.462 37.6076 264.336 37.7511 264.048 37.7122C263.682 37.6629 263.742 37.3698 263.784 37.147C263.871 36.6849 264.555 36.3948 265.261 36.4845C265.773 36.5503 266.069 36.7926 266.021 37.3518C266.001 37.5747 266.018 37.799 266.018 38.0233C266.021 38.0233 266.024 38.0233 266.025 38.0233ZM265.349 38.5885C265.282 38.43 265.447 38.122 265.267 38.1055C264.994 38.0816 264.738 38.2775 264.519 38.4764C264.331 38.6469 264.274 38.8248 264.385 39.0611C264.478 39.257 264.642 39.429 264.829 39.3706C265.178 39.2615 265.456 39.0402 265.349 38.5885Z" fill="#F8FBF9"/>
<path d="M234.377 32.7295C235.037 32.5965 235.485 32.891 235.972 32.6847C236.715 32.3692 237.288 31.8652 237.777 31.2641C238.077 30.8947 237.739 30.5881 237.522 30.319C237.231 29.9601 236.975 29.6401 237.32 29.1555C237.582 28.7862 237.744 28.7533 238.009 29.1316C238.808 30.2681 238.547 31.8263 237.508 32.8088C236.73 33.5445 235.744 33.6716 234.842 33.1034C234.72 33.0271 234.615 32.9239 234.377 32.7295Z" fill="#F8FBF9"/>
<path d="M238.876 37.9409C239.036 38.8187 239.333 39.1551 239.894 39.1806C240.255 39.197 240.463 39.028 240.657 38.7604C240.717 38.6781 240.691 38.3955 240.938 38.5465C241.13 38.6632 240.97 38.8232 240.943 38.9323C240.818 39.4288 240.172 39.9402 239.7 39.9612C239.155 39.9851 238.547 39.6202 238.368 38.9996C238.084 38.0157 238.18 37.0048 239.164 36.5891C240.01 36.2302 240.839 36.7087 240.98 37.6089C241.036 37.9588 240.886 37.9379 240.673 37.9409C240.373 37.9454 240.075 37.9424 239.775 37.9424C239.477 37.9409 239.177 37.9409 238.876 37.9409ZM239.534 37.6358C239.726 37.4833 240.112 37.8108 240.147 37.4085C240.172 37.1035 239.897 36.8418 239.597 36.8463C239.276 36.8507 238.925 37.0422 238.952 37.4265C238.982 37.8123 239.348 37.4968 239.534 37.6358Z" fill="#F8FBF9"/>
<path d="M253.386 36.4979C253.386 36.9136 253.386 37.3069 253.386 37.6987C253.353 37.7076 253.321 37.7166 253.288 37.7256C253.183 37.5267 253.092 37.3218 252.972 37.1334C252.837 36.9211 252.629 36.776 252.375 36.8493C252.233 36.8897 251.989 36.9435 251.995 37.1229C252.002 37.3562 252.13 37.5551 252.395 37.6508C252.65 37.742 252.885 37.8931 253.126 38.0232C253.674 38.3178 253.841 38.6991 253.657 39.218C253.486 39.6965 252.858 40.0554 252.375 39.9462C252.287 39.9268 252.207 39.8655 252.119 39.8535C251.35 39.7399 251.347 39.7429 251.409 38.9264C251.417 38.8142 251.34 38.6467 251.545 38.6183C251.74 38.5914 251.71 38.7499 251.762 38.8606C251.903 39.1552 252.04 39.4363 252.432 39.529C252.734 39.6008 252.9 39.4692 253.023 39.2838C253.161 39.0759 252.975 38.9503 252.818 38.8187C252.573 38.6153 252.279 38.5122 252.014 38.3551C251.506 38.0561 251.332 37.5775 251.476 37.1304C251.668 36.5382 252.332 36.3693 252.774 36.5143C253.011 36.5936 253.191 36.5173 253.386 36.4979Z" fill="#F8FBF9"/>
<path d="M237.131 37.1887C237.131 37.8422 237.131 38.4957 237.131 39.1492C237.131 39.3286 237.082 39.5424 237.389 39.514C237.533 39.5006 237.587 39.5843 237.572 39.7219C237.557 39.8535 237.454 39.846 237.365 39.8475C236.953 39.8505 236.542 39.8505 236.13 39.8445C236.046 39.843 235.931 39.8759 235.907 39.7443C235.884 39.6247 235.899 39.526 236.057 39.5095C236.386 39.4766 236.341 39.2254 236.341 39.0056C236.343 37.9603 236.346 36.915 236.338 35.8683C236.337 35.7397 236.431 35.5662 236.229 35.4824C236.121 35.4391 235.923 35.5482 235.914 35.3523C235.907 35.1744 236.109 35.1579 236.229 35.0847C236.29 35.0473 236.361 35.0219 236.427 34.9919C237.128 34.6839 237.128 34.6839 237.128 35.451C237.131 36.0312 237.131 36.61 237.131 37.1887Z" fill="#FBFDFC"/>
<path d="M256.353 39.0717C256.228 39.3005 256.163 39.5278 256.013 39.6639C255.749 39.9031 255.385 39.9256 255.073 39.8104C254.814 39.7147 254.777 39.4201 254.778 39.1495C254.783 38.5917 254.78 38.0324 254.78 37.4746C254.78 37.192 254.875 36.8645 254.37 36.9183C254.138 36.9422 254.208 36.7463 254.327 36.6746C254.7 36.4488 254.994 36.1691 255.144 35.7474C255.169 35.6741 255.25 35.5829 255.361 35.6084C255.489 35.6368 255.448 35.7489 255.456 35.8341C255.462 35.9074 255.463 35.9837 255.454 36.057C255.414 36.4144 255.453 36.688 255.932 36.6028C256.036 36.5848 256.217 36.534 256.234 36.7404C256.252 36.9886 256.051 36.9482 255.922 36.9273C255.502 36.86 255.421 37.0529 255.45 37.4253C255.481 37.8514 255.454 38.2806 255.457 38.7098C255.462 39.3513 255.52 39.3827 256.102 39.0762C256.142 39.0507 256.208 39.0717 256.353 39.0717Z" fill="#F9FCFA"/>
<path d="M226.904 38.01C226.904 38.3256 226.89 38.6426 226.908 38.9581C226.922 39.1944 226.749 39.5623 227.249 39.5249C227.328 39.5189 227.349 39.6131 227.349 39.6924C227.348 39.7806 227.303 39.8359 227.222 39.8374C226.755 39.8419 226.289 39.8419 225.825 39.8404C225.75 39.8404 225.681 39.8165 225.675 39.7193C225.67 39.6221 225.679 39.5099 225.801 39.5204C226.22 39.5563 226.111 39.2572 226.114 39.0404C226.121 38.5005 226.12 37.9622 226.115 37.4223C226.114 37.2444 226.144 37.0156 225.828 37.1397C225.744 37.1726 225.684 37.1307 225.675 37.041C225.664 36.9498 225.661 36.8631 225.78 36.8197C226.067 36.7135 226.346 36.5775 226.64 36.4922C226.874 36.4234 226.908 36.5924 226.905 36.7838C226.898 37.1921 226.904 37.6018 226.904 38.01Z" fill="#FBFCFB"/>
<path d="M229.493 33.3485C229.373 33.2872 229.26 33.2274 229.145 33.1736C228.974 33.0928 228.833 32.9493 228.682 33.2573C228.445 33.7388 228.187 33.2887 227.97 33.193C227.83 33.1317 227.532 32.9836 227.799 32.7414C227.988 32.5694 227.988 32.052 228.458 32.3332C228.698 32.4767 228.861 32.5365 229.098 32.2494C229.386 31.901 229.558 32.4393 229.828 32.4588C229.968 32.4692 230.097 32.5754 230.001 32.7788C229.885 33.021 229.72 33.205 229.493 33.3485Z" fill="#F8FBF9"/>
<path d="M273.148 32.6685C272.859 32.8973 272.835 33.3863 272.488 33.4222C272.171 33.4551 271.718 33.1934 271.691 32.9018C271.665 32.6251 271.967 32.1929 272.304 32.1511C272.592 32.1137 272.868 32.4202 273.148 32.6685Z" fill="#F8FBF9"/>
<path d="M223.852 27.9504C223.659 28.1881 223.485 28.6009 223.224 28.6652C223.002 28.719 222.65 28.4139 222.449 28.1418C222.41 28.088 222.947 27.3283 223.022 27.3148C223.11 27.2984 223.839 27.8203 223.852 27.9504Z" fill="#F8FBF9"/>
<path d="M248.846 27.1219C248.681 27.4897 248.495 27.883 248.233 27.9099C247.963 27.9369 247.485 27.6602 247.464 27.409C247.443 27.1443 247.69 26.6673 248.049 26.6583C248.316 26.6523 248.588 26.9619 248.846 27.1219Z" fill="#F8FBF9"/>
<path d="M267.157 28.6575C266.972 28.4302 266.517 28.4302 266.501 28.1147C266.481 27.7782 266.793 27.3685 267.06 27.3476C267.277 27.3296 267.78 27.5898 267.783 27.9308C267.784 28.1969 267.55 28.5349 267.157 28.6575Z" fill="#F8FBF9"/>
<path d="M226.905 35.3329C226.923 35.6335 226.746 35.7038 226.487 35.7023C226.193 35.7008 226.103 35.5513 226.117 35.2836C226.13 35.0069 226.263 34.7961 226.535 34.8185C226.797 34.838 226.931 35.0548 226.905 35.3329Z" fill="#F8FBF9"/>
<path d="M234.903 29.9945C234.598 29.9182 234.374 29.8419 234.23 29.6296C234.215 29.6071 234.342 29.4307 234.383 29.4367C234.652 29.486 234.799 29.67 234.903 29.9945Z" fill="#0E4693"/>
<path d="M259.951 38.5065C259.951 37.5509 260.176 37.4119 261.089 37.6631C261.599 37.8037 261.87 38.1551 261.828 38.5962C261.789 39.0149 261.537 39.4486 260.969 39.3918C260.801 39.3753 260.69 39.483 260.512 39.477C259.712 39.4456 260.001 38.8729 259.951 38.5065Z" fill="#0E4693"/>
<path d="M259.952 36.2719C260.001 35.922 259.714 35.3867 260.498 35.4599C261.187 35.5242 261.728 35.8532 261.742 36.3602C261.754 36.8252 261.124 37.2858 260.499 37.2694C259.754 37.2484 259.977 36.6951 259.952 36.2719Z" fill="#0E4693"/>
<path d="M220.016 29.6489C220.272 29.3528 220.45 29.1001 220.773 29.1225C220.848 29.127 221.038 29.4246 220.921 29.5397C220.698 29.758 220.386 29.607 220.016 29.6489Z" fill="#0E4693"/>
<path d="M230.381 38.3849C230.282 38.6331 230.596 39.0339 230.182 39.2836C229.728 39.5587 229.07 39.2731 228.965 38.6645C228.884 38.1949 228.824 37.6925 229.119 37.217C229.276 36.9627 229.456 36.8311 229.719 36.8282C230.011 36.8252 230.164 37.0525 230.273 37.2917C230.423 37.6207 230.395 37.9721 230.381 38.3849Z" fill="#0E4693"/>
<path d="M241.039 29.5205C241.219 29.6028 241.372 29.7 241.387 29.8719C241.399 30.0125 241.264 30.0903 241.119 30.0918C240.945 30.0932 240.814 29.9572 240.786 29.836C240.748 29.6805 240.949 29.6282 241.039 29.5205Z" fill="#0E4693"/>
<path d="M234.209 38.297C234.209 38.4076 234.197 38.5213 234.21 38.6305C234.257 38.9953 234.188 39.3183 233.777 39.3826C233.398 39.441 233.128 39.2525 232.951 38.8877C232.714 38.4002 232.659 37.9127 232.869 37.4207C232.997 37.1201 233.204 36.7851 233.575 36.8375C233.973 36.8943 234.167 37.2352 234.204 37.63C234.225 37.8514 234.209 38.0757 234.209 38.297Z" fill="#0E4693"/>
<path d="M249.593 38.0127C249.559 38.4778 249.794 38.9114 249.364 39.2404C249.127 39.4214 248.88 39.4273 248.692 39.2C248.527 39.0012 248.53 38.7679 248.713 38.551C248.937 38.2864 249.245 38.1892 249.593 38.0127Z" fill="#0E4693"/>
<path d="M265.351 38.5885C265.457 39.0401 265.18 39.2615 264.832 39.3706C264.645 39.4289 264.48 39.257 264.388 39.0611C264.278 38.8248 264.334 38.6468 264.522 38.4764C264.739 38.2775 264.997 38.0816 265.27 38.1055C265.448 38.1205 265.285 38.43 265.351 38.5885Z" fill="#0E4693"/>
<path d="M239.533 37.6358C239.347 37.4967 238.98 37.8123 238.953 37.4265C238.926 37.0421 239.275 36.8522 239.597 36.8462C239.897 36.8418 240.173 37.1035 240.147 37.4085C240.113 37.8108 239.725 37.4833 239.533 37.6358Z" fill="#0E4693"/>
<path d="M290.404 33.6879C287.363 36.6627 284.365 39.6706 281.321 42.6389C281.267 42.6079 281.297 42.5523 281.297 42.5093C281.295 41.0522 281.297 39.5955 281.293 38.1384C281.292 38.0103 281.339 37.9352 281.436 37.8602C282.035 37.4028 282.63 36.9404 283.224 36.4776C283.819 36.0147 284.411 35.5484 285.005 35.085C285.56 34.6522 286.115 34.2203 286.672 33.789C287.15 33.4182 287.63 33.0504 288.107 32.6786C288.43 32.4264 288.751 32.1702 289.058 31.8915C286.477 33.191 283.896 34.491 281.296 35.8001C281.296 34.8123 281.296 33.8565 281.295 32.9008C281.295 32.8132 281.327 32.7817 281.414 32.7477C282.857 32.1907 284.297 31.6278 285.737 31.0634C286.993 30.5705 288.247 30.0716 289.504 29.5797C290.582 29.1574 291.664 28.743 292.741 28.3172C292.838 28.2787 292.854 28.3297 292.868 28.3818C293.008 28.9017 293.25 29.367 293.593 29.7823C293.8 30.0325 294.027 30.2637 294.288 30.4544C294.403 30.5379 294.385 30.599 294.328 30.6941C294.114 31.0533 293.902 31.4146 293.689 31.7754C293.235 32.5435 292.781 33.3116 292.327 34.0802C291.825 34.9289 291.324 35.777 290.823 36.6257C290.337 37.4473 289.853 38.2695 289.366 39.0901C288.889 39.8958 288.408 40.6994 287.931 41.5055C287.734 41.8393 287.539 42.1755 287.35 42.5143C287.289 42.6229 287.219 42.6664 287.089 42.6654C286.143 42.6589 285.196 42.6619 284.191 42.6619C286.277 39.6481 288.341 36.6682 290.404 33.6879Z" fill="#F6941D"/>
<path d="M296.616 35.2467C296.61 35.2802 296.604 35.2977 296.605 35.3147C296.631 36.1199 296.558 36.9235 296.565 37.7286C296.576 39.0151 296.515 40.3006 296.52 41.5877C296.521 41.9024 296.496 42.2211 296.493 42.5379C296.493 42.64 296.455 42.6635 296.361 42.663C295.628 42.66 294.894 42.6605 294.161 42.663C294.075 42.6635 294.018 42.6425 294.052 42.5489C294.126 42.3452 294.086 42.1311 294.112 41.9224C294.168 41.4871 294.163 41.0442 294.199 40.6054C294.256 39.9068 294.304 39.2078 294.352 38.5082C294.388 37.9828 294.433 37.4584 294.465 36.9325C294.495 36.4506 294.544 35.9698 294.549 35.4819C294.458 35.7896 294.363 36.0964 294.275 36.4051C294.058 37.1687 293.845 37.9333 293.628 38.6964C293.317 39.7897 293.003 40.8826 292.691 41.9755C292.637 42.1651 292.581 42.3548 292.525 42.5439C292.506 42.6075 292.497 42.6645 292.396 42.664C291.456 42.658 290.516 42.6595 289.576 42.658C289.566 42.658 289.555 42.649 289.535 42.6395C289.75 42.1281 289.964 41.6162 290.18 41.1048C290.465 40.4297 290.751 39.7552 291.036 39.0802C291.352 38.3306 291.667 37.581 291.983 36.8314C292.269 36.1499 292.555 35.4679 292.844 34.7873C293.104 34.1734 293.37 33.5619 293.631 32.9479C293.909 32.2919 294.187 31.6359 294.457 30.9769C294.582 30.6731 294.576 30.6686 294.864 30.8147C295.316 31.0434 295.794 31.16 296.298 31.2256C296.678 31.2751 297.04 31.213 297.405 31.1605C297.525 31.1435 297.544 31.176 297.566 31.2606C297.736 31.9086 297.904 32.5576 298.076 33.2051C298.353 34.2524 298.636 35.2982 298.913 36.3456C299.225 37.523 299.531 38.7019 299.842 39.8798C300.069 40.742 300.297 41.6047 300.535 42.4643C300.581 42.628 300.56 42.6675 300.385 42.665C299.708 42.6555 299.031 42.655 298.354 42.6665C298.211 42.669 298.17 42.6059 298.148 42.4964C297.915 41.3765 297.683 40.2566 297.439 39.1392C297.183 37.9728 296.957 36.7999 296.717 35.6305C296.69 35.5064 296.653 35.3848 296.616 35.2467Z" fill="#F6941D"/>
<path d="M281.296 31.1764C281.296 30.2737 281.297 29.3985 281.294 28.5233C281.293 28.4188 281.336 28.4103 281.425 28.3987C282.216 28.2922 283.004 28.1746 283.795 28.068C284.402 27.9859 285.01 27.9194 285.617 27.8378C286.316 27.7437 287.013 27.6381 287.712 27.5416C287.969 27.506 288.227 27.483 288.503 27.4525C288.163 27.3629 287.829 27.3784 287.503 27.3614C286.993 27.3344 286.484 27.2929 285.973 27.2699C285.396 27.2438 284.819 27.1983 284.242 27.1603C283.653 27.1212 283.063 27.0837 282.473 27.0472C282.12 27.0257 281.768 26.9881 281.414 26.9781C281.327 26.9756 281.294 26.9556 281.295 26.863C281.298 26.175 281.297 25.4875 281.296 24.7994C281.296 24.7264 281.307 24.6758 281.398 24.6888C282.004 24.7749 282.609 24.864 283.216 24.9445C283.658 25.0031 284.102 25.0441 284.544 25.1017C284.966 25.1567 285.387 25.2288 285.81 25.2838C286.245 25.3409 286.681 25.3824 287.117 25.4384C287.539 25.4925 287.96 25.564 288.383 25.6111C288.554 25.6301 288.724 25.6791 288.946 25.6546C288.192 25.4369 287.483 25.2308 286.772 25.0271C286.152 24.8495 285.53 24.6753 284.909 24.4982C283.772 24.1739 282.635 23.8462 281.497 23.5259C281.351 23.4849 281.288 23.4284 281.291 23.2617C281.304 22.6803 281.302 22.0988 281.293 21.5174C281.29 21.3712 281.335 21.3447 281.471 21.3457C282.248 21.3522 283.025 21.3507 283.802 21.3472C284.04 21.3462 284.221 21.4938 284.421 21.5809C285.353 21.9872 286.277 22.4116 287.203 22.8319C287.944 23.1682 288.682 23.5104 289.423 23.8457C290.403 24.288 291.385 24.7254 292.365 25.1662C292.596 25.2698 292.825 25.3774 293.054 25.4835C293.131 25.519 293.157 25.553 293.112 25.6511C292.836 26.2626 292.685 26.9016 292.731 27.5776C292.74 27.7127 292.746 27.8503 292.775 27.9819C292.794 28.0665 292.795 28.086 292.698 28.111C291.715 28.3672 290.733 28.6309 289.752 28.8961C288.623 29.2009 287.496 29.5121 286.366 29.8148C285.164 30.1371 283.96 30.4518 282.757 30.7731C282.275 30.9007 281.795 31.0378 281.296 31.1764Z" fill="#F6941D"/>
<path d="M302.625 42.6319C302.498 42.3352 302.37 42.0389 302.245 41.7412C301.944 41.0221 301.643 40.3031 301.343 39.5835C301.053 38.8855 300.767 38.1864 300.476 37.4889C300.178 36.7748 299.875 36.0633 299.577 35.3492C299.183 34.4025 298.793 33.4542 298.399 32.5075C298.227 32.0932 298.056 31.6783 297.872 31.27C297.805 31.1229 297.804 31.0533 297.979 30.9923C298.413 30.8407 298.798 30.604 299.157 30.3108C299.534 30.0025 299.818 29.6272 300.053 29.2109C300.11 29.1083 300.151 29.1343 300.22 29.1749C300.586 29.391 300.955 29.6047 301.32 29.8219C301.729 30.0646 302.132 30.3148 302.544 30.5505C302.637 30.6035 302.664 30.658 302.663 30.7551C302.659 31.1804 302.655 31.6053 302.664 32.0306C302.668 32.2062 302.616 32.1992 302.491 32.1252C302.098 31.8935 301.702 31.6683 301.266 31.4176C301.323 31.5232 301.362 31.5868 301.418 31.6468C301.814 32.0761 302.208 32.5085 302.604 32.9383C302.646 32.9834 302.662 33.0304 302.662 33.0894C302.661 33.9586 302.661 34.8273 302.66 35.6965C302.66 35.706 302.649 35.716 302.627 35.754C301.853 34.8893 301.086 34.0332 300.319 33.177C300.31 33.1825 300.301 33.1875 300.292 33.193C300.379 33.3451 300.465 33.4983 300.554 33.6494C301.168 34.7012 301.776 35.7565 302.401 36.8018C302.588 37.1146 302.672 37.4273 302.668 37.7961C302.651 39.3528 302.661 40.9095 302.661 42.4663C302.661 42.5188 302.661 42.5713 302.661 42.6239C302.649 42.6264 302.637 42.6289 302.625 42.6319Z" fill="#F6941D"/>
<path d="M286.291 21.3477C287.311 21.3477 288.332 21.3693 289.352 21.3372C289.76 21.3242 290.058 21.4703 290.363 21.7025C290.846 22.0698 291.35 22.4096 291.868 22.7373C291.451 22.286 291.035 21.8351 290.585 21.3482C290.897 21.3482 291.162 21.3482 291.428 21.3482C291.704 21.3482 291.979 21.3537 292.255 21.3457C292.382 21.3422 292.468 21.3673 292.55 21.4803C292.739 21.7385 292.951 21.9802 293.182 22.2174C293.057 21.9372 292.933 21.657 292.795 21.3482C293.122 21.3482 293.431 21.3482 293.74 21.3482C294.187 21.3482 294.193 21.3457 294.356 21.7506C294.611 22.3835 294.855 23.021 295.109 23.654C295.137 23.7236 295.13 23.7601 295.066 23.7851C294.636 23.9558 294.258 24.217 293.931 24.5342C293.712 24.7469 293.491 24.9721 293.348 25.2518C293.298 25.3499 293.241 25.3649 293.137 25.3043C292.311 24.8245 291.48 24.3521 290.652 23.8757C289.758 23.3618 288.866 22.8444 287.971 22.3325C287.411 22.0118 286.846 21.698 286.283 21.3813C286.286 21.3703 286.288 21.3587 286.291 21.3477Z" fill="#F6941D"/>
<path d="M300.879 21.3476C300.443 22.0592 300.026 22.7397 299.609 23.4202C299.945 23.175 300.195 22.8503 300.477 22.557C300.734 22.2888 300.98 22.0086 301.235 21.7359C301.306 21.6588 301.384 21.5903 301.443 21.4982C301.51 21.3921 301.608 21.3326 301.756 21.3426C302.006 21.3601 302.258 21.3516 302.508 21.3456C302.615 21.3431 302.666 21.3641 302.662 21.4877C302.654 21.7749 302.654 22.0627 302.662 22.3499C302.667 22.5686 302.469 22.6146 302.351 22.7132C301.796 23.177 301.226 23.6229 300.661 24.0742C300.556 24.1583 300.447 24.2389 300.336 24.3244C300.395 24.367 300.431 24.3159 300.467 24.2979C301.139 23.9586 301.812 23.6189 302.481 23.2726C302.619 23.2016 302.665 23.2146 302.662 23.3797C302.654 23.8045 302.656 24.2294 302.662 24.6547C302.663 24.7598 302.626 24.8038 302.527 24.8403C301.782 25.1165 301.037 25.3983 300.294 25.6835C300.193 25.7225 300.144 25.6885 300.104 25.6044C299.829 25.021 299.417 24.5501 298.893 24.1798C298.674 24.0242 298.451 23.8641 298.185 23.786C298.104 23.762 298.071 23.7315 298.123 23.6379C298.458 23.0349 298.787 22.4284 299.118 21.823C299.127 21.8065 299.147 21.794 299.151 21.7774C299.25 21.3621 299.542 21.3071 299.913 21.3416C300.217 21.3706 300.526 21.3476 300.879 21.3476Z" fill="#F5941D"/>
<path d="M301.702 28.1165C301.977 28.2201 302.249 28.3317 302.528 28.4238C302.622 28.4548 302.662 28.4913 302.661 28.5884C302.659 28.9882 302.658 29.388 302.661 29.7883C302.662 29.8839 302.642 29.9079 302.545 29.8669C301.795 29.5506 301.044 29.2374 300.291 28.9292C300.192 28.8881 300.241 28.8286 300.256 28.7825C300.355 28.4918 300.443 28.2006 300.493 27.8958C300.549 27.5511 300.532 27.2063 300.505 26.8645C300.48 26.5588 300.399 26.2581 300.275 25.9743C300.241 25.8973 300.271 25.8693 300.334 25.8537C301.105 25.6691 301.876 25.486 302.66 25.2993C302.66 25.6331 302.658 25.9513 302.662 26.2691C302.663 26.3797 302.592 26.3952 302.509 26.4162C302.163 26.5038 301.819 26.5963 301.475 26.6874C301.457 26.6924 301.44 26.7014 301.38 26.7259C301.798 26.777 302.154 26.8305 302.512 26.8585C302.641 26.8685 302.666 26.9076 302.662 27.0222C302.655 27.2719 302.648 27.5231 302.665 27.7717C302.676 27.9354 302.594 27.9879 302.463 27.9884C302.208 27.9899 301.965 28.0835 301.709 28.0645C301.707 28.0815 301.704 28.099 301.702 28.1165Z" fill="#F6941D"/>
<path d="M297.228 22.3706C297.319 22.0819 297.419 21.7957 297.497 21.5035C297.532 21.3734 297.594 21.3423 297.718 21.3443C298.081 21.3513 298.444 21.3468 298.826 21.3468C298.693 21.7001 298.569 22.0394 298.439 22.3766C298.285 22.7774 298.12 23.1743 297.972 23.5776C297.939 23.6681 297.918 23.6661 297.837 23.6416C297.403 23.509 296.959 23.4315 296.503 23.45C296.094 23.4665 295.698 23.5561 295.293 23.6721C295.107 22.9025 294.922 22.1329 294.732 21.3488C295.106 21.3488 295.467 21.3513 295.829 21.3473C295.933 21.3463 295.946 21.4134 295.964 21.4874C296.015 21.6941 296.067 21.9003 296.136 22.1049C296.132 21.8873 296.176 21.6761 296.186 21.4634C296.19 21.3754 296.214 21.3448 296.304 21.3463C296.592 21.3513 296.88 21.3518 297.169 21.3468C297.278 21.3448 297.293 21.3879 297.272 21.4824C297.209 21.7737 297.273 22.0739 297.228 22.3706Z" fill="#F6941D"/>
</svg>
