<svg width="320" height="172" viewBox="0 0 320 172" fill="none" xmlns="http://www.w3.org/2000/svg">
<g clip-path="url(#clip0_5110_30347)">
<rect width="320" height="172" rx="12" fill="white"/>
<g opacity="0.7" filter="url(#filter0_f_5110_30347)">
<path fill-rule="evenodd" clip-rule="evenodd" d="M45.2121 -34C73.03 -34 98.248 -22.9303 116.88 -5.02855C99.6346 13.1327 79.0962 45.7364 72.0767 67.7893C71.4701 69.3459 70.3435 68.7406 69.8236 66.5785C61.1576 42.623 29.2666 21.1755 5.69512 23.597C3.70194 24.1159 3.52863 26.105 5.34848 27.4887C32.2131 76.9563 10.2014 103.506 68.7836 146.834C71.4701 148.909 74.5032 147.526 74.7632 143.98C76.1497 124.262 84.9024 92.6961 92.1818 80.848C99.028 64.157 115.407 39.8556 129.272 22.5592C132.912 18.0621 136.118 14.4299 140.365 10.3652C153.19 -1.74222 170.089 -13.9362 181.355 -18.4333C184.041 -20.1629 186.381 -19.644 185.948 -17.4819C158.823 28.5264 170.089 104.89 109.34 149.601C91.7485 163.611 69.3902 172 45.2121 172C-11.6369 172 -58 125.732 -58 69C-58 12.2678 -11.6369 -34 45.2121 -34Z" fill="url(#paint0_linear_5110_30347)"/>
</g>
<path fill-rule="evenodd" clip-rule="evenodd" d="M287.99 21.5825C290.997 21.5825 293.723 22.7815 295.737 24.7205C293.872 26.6875 291.653 30.2189 290.894 32.6074C290.828 32.776 290.706 32.7105 290.65 32.4763C289.714 29.8817 286.267 27.5586 283.719 27.8209C283.503 27.8771 283.485 28.0926 283.681 28.2424C286.585 33.6003 284.206 36.476 290.538 41.1688C290.828 41.3936 291.156 41.2438 291.184 40.8597C291.334 38.7241 292.28 35.3051 293.067 34.0218C293.807 32.214 295.577 29.5819 297.076 27.7085C297.469 27.2214 297.816 26.828 298.275 26.3878C299.661 25.0764 301.488 23.7557 302.706 23.2686C302.996 23.0812 303.249 23.1374 303.202 23.3716C300.27 28.3548 301.488 36.6259 294.922 41.4686C293.02 42.986 290.603 43.8946 287.99 43.8946C281.845 43.8946 276.834 38.8833 276.834 32.7386C276.834 26.5938 281.845 21.5825 287.99 21.5825Z" fill="#50B848"/>
<path fill-rule="evenodd" clip-rule="evenodd" d="M269.281 35.0251V35.2898C269.281 35.7661 269.404 36.1012 269.669 36.2777C269.828 36.3835 270.004 36.4364 270.216 36.4364C270.375 36.4364 270.516 36.26 270.657 35.8895C270.675 35.8013 270.71 35.7131 270.727 35.6073C270.763 35.5014 270.798 35.4485 270.833 35.4485C270.886 35.4485 270.922 35.5014 270.922 35.6249C270.922 35.6779 270.922 35.7484 270.904 35.8366C270.886 35.9248 270.869 36.013 270.869 36.066C270.71 36.754 270.533 37.2832 270.286 37.6713C270.057 38.0418 269.81 38.2358 269.563 38.2358C269.175 38.2358 268.91 38.0594 268.769 37.7066C268.628 37.3538 268.558 36.9127 268.558 36.3835C268.558 36.2424 268.628 35.6426 268.752 34.5665C268.875 33.4903 268.981 32.6612 269.069 32.0967C269.087 32.0438 269.175 31.8144 269.351 31.3734C269.528 30.95 269.669 30.6148 269.775 30.4031C269.792 30.3855 269.828 30.3855 269.845 30.3678C269.863 30.4031 269.845 30.4913 269.828 30.6501L269.757 31.1088L269.457 33.2434C269.404 33.6668 269.351 34.0549 269.334 34.3548C269.281 34.6723 269.281 34.9016 269.281 35.0251C269.281 35.0428 269.281 35.0428 269.281 35.0251ZM216.392 29.9974C216.34 30.2444 216.287 30.4384 216.269 30.5619C216.234 30.703 216.198 30.8442 216.146 31.0029C216.022 31.4087 215.846 31.8321 215.599 32.2378C215.369 32.6612 215.105 33.0493 214.787 33.4198C214.346 33.949 213.887 34.3371 213.411 34.6194L213.27 35.7661C213.217 36.1189 213.164 36.4011 213.111 36.6305C213.041 36.8598 212.97 37.1068 212.864 37.3538L212.458 38.1829C212.282 38.4828 212.159 38.6945 212.088 38.7827C212.017 38.8886 211.947 38.9238 211.894 38.9238L211.841 38.8004C211.929 38.4828 212.017 38.1829 212.106 37.883C212.194 37.5831 212.247 37.3538 212.282 37.195C212.406 36.6658 212.476 36.1895 212.529 35.7661C212.564 35.4662 212.6 35.1839 212.617 34.9369C212.3 35.0251 211.947 35.0781 211.576 35.0781C210.836 35.0781 210.289 34.8487 209.901 34.39C209.512 33.9314 209.318 33.3492 209.318 32.6259C209.318 32.2731 209.371 31.8674 209.459 31.4616C209.548 31.0382 209.654 30.703 209.759 30.4208C209.865 30.1562 210.006 29.8563 210.147 29.5564C210.342 29.1682 210.553 28.7625 210.8 28.3568C210.888 28.198 210.941 28.1098 210.959 28.0921C210.977 28.0745 211.012 28.0745 211.047 28.0921C211.065 28.1098 211.065 28.1627 211.047 28.2862C211.03 28.4097 211.012 28.4979 210.994 28.5861L210.412 29.8386C210.253 30.2267 210.165 30.4913 210.112 30.6325C210.024 30.8971 209.989 31.1441 209.989 31.4263C209.989 32.1143 210.218 32.6083 210.694 32.9082C211.047 33.1375 211.488 33.261 212.017 33.261C212.406 33.261 212.741 33.2257 213.023 33.1728C213.094 33.1552 213.182 33.1375 213.252 33.1022C213.393 33.067 213.499 33.014 213.605 32.9787C213.711 32.9258 213.835 32.8729 213.958 32.8023C214.276 32.6259 214.575 32.3966 214.822 32.1143C214.999 31.9203 215.193 31.6557 215.44 31.3028C215.581 31.0735 215.687 30.8442 215.757 30.6501C215.828 30.4384 215.863 30.1914 215.863 29.8915L215.899 28.639C215.899 28.4273 215.916 28.2333 215.969 28.0569C216.022 27.8804 216.093 27.6687 216.198 27.3865L216.551 26.6985C216.622 26.575 216.657 26.4868 216.675 26.4691C216.692 26.4339 216.728 26.3986 216.763 26.3457C216.816 26.3986 216.851 26.4868 216.834 26.575L216.745 27.1924L216.657 28.0569C216.657 28.392 216.639 28.6919 216.604 28.9389C216.551 29.2212 216.481 29.574 216.392 29.9974ZM214.152 29.0977C214.17 29.1506 214.17 29.2035 214.17 29.2917C214.17 29.5034 214.099 29.6975 213.958 29.9092C213.676 30.2973 213.482 30.509 213.341 30.5443C213.323 30.5443 213.27 30.509 213.182 30.4561C212.917 30.262 212.776 30.1562 212.758 30.1385C212.635 30.0679 212.529 29.9974 212.441 29.9445C212.335 29.8739 212.282 29.8033 212.282 29.7328L212.688 28.8331C212.811 28.6037 212.935 28.4273 213.023 28.2862C213.041 28.2509 213.076 28.198 213.129 28.1274C213.199 28.1627 213.27 28.198 213.323 28.2156C213.393 28.2509 213.446 28.2685 213.482 28.3038C213.729 28.4979 213.887 28.639 213.993 28.7449C214.081 28.8507 214.134 28.9742 214.152 29.0977ZM215.299 41.0232C215.316 41.1466 215.316 41.2701 215.281 41.3936C215.246 41.5347 215.175 41.6759 215.087 41.8523C214.999 42.0287 214.875 42.1698 214.734 42.311C214.646 42.3992 214.558 42.4521 214.505 42.4521C214.47 42.4521 214.399 42.3992 214.276 42.2933C214.152 42.1875 214.046 42.0993 213.94 42.0287C213.835 41.9581 213.764 41.8876 213.693 41.817C213.623 41.7464 213.588 41.6935 213.588 41.6406C213.658 41.4818 213.711 41.376 213.746 41.2878C213.87 41.0232 213.958 40.8467 214.011 40.7232C214.117 40.5468 214.223 40.3704 214.328 40.1764C214.346 40.1411 214.381 40.0882 214.434 40.0176C214.47 40.0529 214.505 40.0882 214.54 40.1058C214.575 40.1234 214.628 40.1587 214.681 40.194C214.928 40.3881 215.087 40.5468 215.175 40.6527C215.211 40.7585 215.263 40.882 215.299 41.0232ZM217.098 40.9173C217.116 41.0408 217.116 41.1643 217.08 41.2878C217.045 41.4289 216.975 41.57 216.886 41.7464C216.798 41.9228 216.675 42.064 216.534 42.2051C216.445 42.2933 216.357 42.3462 216.304 42.3462C216.269 42.3462 216.198 42.2933 216.075 42.1875C215.951 42.0816 215.846 41.9934 215.74 41.9228C215.634 41.8523 215.563 41.7817 215.493 41.7112C215.422 41.6406 215.387 41.5877 215.387 41.5347C215.458 41.376 215.51 41.2701 215.546 41.1819C215.669 40.9173 215.757 40.7409 215.81 40.6174C215.916 40.441 216.022 40.2646 216.128 40.0705C216.146 40.0352 216.181 39.9823 216.234 39.9118C216.269 39.947 216.304 39.9823 216.34 40C216.375 40.0176 216.428 40.0529 216.481 40.0882C216.728 40.2822 216.886 40.441 216.975 40.5468C217.01 40.6527 217.063 40.7762 217.098 40.9173ZM219.833 33.067C219.55 34.0725 219.233 34.6723 218.88 34.8487L218.21 35.1839C218.157 35.2015 218.068 35.2545 217.98 35.325C217.874 35.3956 217.804 35.4662 217.769 35.5191C217.663 35.6602 217.557 35.8543 217.433 36.1365C217.239 36.6481 217.081 37.0186 216.975 37.2303C216.781 37.6184 216.516 37.9007 216.146 38.0594C216.004 38.1124 215.775 38.1829 215.44 38.2358C215.122 38.3064 214.875 38.324 214.717 38.324C214.575 38.3417 214.487 38.3064 214.434 38.2182C214.417 38.1653 214.487 38.0947 214.611 38.0065C214.734 37.9006 214.893 37.7948 215.087 37.6713C215.105 37.6537 215.316 37.5126 215.704 37.2656C215.951 37.1068 216.093 37.0009 216.128 36.9833C216.445 36.7187 216.675 36.5246 216.816 36.3659C216.869 36.3129 216.992 36.0307 217.222 35.5191C217.451 35.0075 217.627 34.6723 217.751 34.5135C217.874 34.3548 218.068 34.196 218.315 34.0196C218.368 34.0019 218.527 33.9137 218.827 33.755C219.039 33.6491 219.18 33.5609 219.268 33.4903C219.356 33.4198 219.462 33.2787 219.586 33.0493C219.709 32.82 219.797 32.7141 219.85 32.7318C219.885 32.7671 219.885 32.8729 219.833 33.067ZM223.096 27.5805C223.131 27.51 223.184 27.4218 223.255 27.3159C223.273 27.2983 223.29 27.263 223.343 27.2101C223.378 27.263 223.396 27.3159 223.396 27.3512L223.308 27.951L223.202 28.9213L223.008 30.4737C222.955 30.8265 222.902 31.1088 222.849 31.3381C222.779 31.5675 222.708 31.8144 222.602 32.0614L222.196 32.8905C222.02 33.1904 221.897 33.4021 221.826 33.4903C221.755 33.5962 221.685 33.6315 221.632 33.6315L221.579 33.508C221.667 33.1904 221.755 32.8905 221.844 32.5906C221.932 32.2907 221.985 32.0614 222.02 31.9026C222.144 31.3734 222.214 30.8971 222.267 30.4737C222.32 30.068 222.355 29.6975 222.391 29.3623L222.585 28.8154L223.096 27.5805ZM228.53 34.0372L228.3 34.4606L227.877 35.3603C227.753 35.6249 227.648 35.7308 227.559 35.6955C227.506 35.6779 227.506 35.572 227.559 35.4132L227.63 35.0781C227.648 34.9546 227.577 34.8487 227.401 34.7605C227.224 34.6723 226.96 34.6194 226.607 34.6194C226.236 34.6194 225.883 34.7252 225.584 34.9193C225.319 35.0781 225.054 35.3427 224.772 35.6955C224.596 35.9248 224.384 36.2424 224.137 36.6481C223.89 37.0715 223.714 37.3361 223.608 37.4773C223.184 38.0418 222.708 38.5181 222.196 38.9062C221.932 39.1003 221.508 39.3649 220.926 39.7001C220.573 39.8941 220.326 40.0176 220.203 40.0705C220.08 40.1234 220.009 40.1235 219.974 40.0882C219.956 40.0529 219.974 40 220.009 39.947C220.044 39.8765 220.132 39.8059 220.274 39.7001L221.103 39.1003C221.385 38.9062 221.597 38.7474 221.738 38.6063C221.826 38.5181 221.967 38.3946 222.144 38.2358C222.496 37.9183 222.814 37.5655 223.114 37.1597C223.255 36.9657 223.467 36.6481 223.767 36.2071C224.366 35.2368 224.86 34.5665 225.231 34.1607C225.936 33.4198 226.677 33.0493 227.454 33.0493C227.718 33.0493 227.93 33.0846 228.089 33.1375C228.23 33.1904 228.336 33.261 228.424 33.3492C228.547 33.1728 228.671 33.014 228.812 32.8376C228.953 32.6612 229.059 32.5024 229.165 32.3437C229.129 32.3613 229.059 32.3437 228.953 32.3437C228.847 32.326 228.741 32.2907 228.618 32.2202C228.494 32.1496 228.441 32.0614 228.441 31.9732C228.441 31.8321 228.547 31.5675 228.777 31.1441C228.935 30.8618 229.041 30.6677 229.129 30.5443C229.218 30.4208 229.288 30.3679 229.341 30.3855C229.694 30.4208 229.959 30.4737 230.153 30.5266C230.505 30.6325 230.7 30.7912 230.7 31.0029C230.7 31.197 230.664 31.3558 230.594 31.5322C230.523 31.6909 230.417 31.8321 230.311 31.9556C230.206 32.079 229.994 32.2907 229.694 32.5906C229.394 32.8905 229.112 33.2257 228.865 33.5609C228.777 33.6668 228.724 33.755 228.671 33.8255C228.653 33.8608 228.636 33.8961 228.618 33.9314C228.565 33.9667 228.565 34.0019 228.53 34.0372C228.547 34.0372 228.547 34.0372 228.53 34.0372ZM235.533 28.7449C235.551 28.8683 235.551 28.9918 235.516 29.1153C235.48 29.2565 235.41 29.3976 235.322 29.574C235.233 29.7504 235.11 29.8915 234.969 30.0327C234.88 30.1209 234.792 30.1738 234.739 30.1738C234.704 30.1738 234.634 30.1209 234.51 30.015C234.387 29.9092 234.281 29.821 234.175 29.7504C234.069 29.6798 233.998 29.6093 233.928 29.5387C233.857 29.4681 233.822 29.4152 233.822 29.3623C233.893 29.2035 233.946 29.0977 233.981 29.0095C234.104 28.7449 234.192 28.5684 234.245 28.445C234.351 28.2685 234.457 28.0921 234.563 27.8981C234.581 27.8628 234.616 27.8099 234.669 27.7393C234.704 27.7746 234.739 27.8099 234.775 27.8275C234.81 27.8452 234.863 27.8804 234.916 27.9157C235.163 28.1098 235.322 28.2685 235.41 28.3744C235.445 28.4802 235.498 28.6037 235.533 28.7449ZM233.681 37.0186C233.54 37.001 233.434 36.9833 233.363 37.001C233.152 37.0362 232.922 37.1774 232.675 37.4243C232.517 37.6007 232.358 37.7595 232.181 37.9359C231.952 38.1476 231.811 38.2711 231.723 38.324C231.529 38.4475 231.282 38.5005 230.999 38.5005C230.823 38.5005 230.682 38.4828 230.541 38.4475C230.153 38.3417 229.906 38.2888 229.835 38.2888C229.606 38.2888 229.429 38.3064 229.288 38.3593C229.147 38.4122 229.006 38.4828 228.83 38.6063C228.741 38.6416 228.653 38.6769 228.565 38.7121C228.459 38.7474 228.389 38.7474 228.336 38.7298L228.318 38.6416C228.353 38.5534 228.389 38.5005 228.406 38.4475C228.512 38.2888 228.671 38.1123 228.865 37.9007C229.182 37.5831 229.412 37.3714 229.57 37.2832C229.729 37.1244 229.959 36.9833 230.276 36.8422C230.594 36.701 230.858 36.6305 231.088 36.6305C231.176 36.6305 231.317 36.6658 231.476 36.7363C231.635 36.8069 231.793 36.8422 231.952 36.8422C232.217 36.8422 232.393 36.8245 232.481 36.7716C232.587 36.7187 232.711 36.6305 232.852 36.507C232.993 36.3835 233.134 36.2777 233.258 36.1718C233.381 36.066 233.522 36.013 233.681 36.013C233.681 36.013 233.681 36.013 233.681 36.0307C233.769 36.0483 233.84 36.0836 233.91 36.1012C233.963 36.1189 234.016 36.1365 234.051 36.1365C234.192 36.1365 234.298 36.1189 234.351 36.1012C234.422 36.066 234.475 36.013 234.545 35.9072C234.563 35.8896 234.581 35.8543 234.598 35.8013C234.634 35.7484 234.651 35.7131 234.669 35.6955C234.704 35.6779 234.739 35.6955 234.757 35.7131C234.792 35.7308 234.81 35.7484 234.81 35.7661C234.933 35.8014 235.057 35.7308 235.18 35.5544C235.198 35.5367 235.216 35.5014 235.233 35.4485C235.251 35.3956 235.286 35.3603 235.322 35.3603C235.339 35.3427 235.374 35.3603 235.392 35.3603C235.427 35.378 235.445 35.3956 235.463 35.3956C235.586 35.378 235.692 35.3074 235.78 35.1663C235.798 35.1133 235.833 35.0781 235.851 35.0428C235.868 35.0075 235.904 34.9722 235.939 34.9722C236.01 34.9899 236.08 35.0075 236.133 35.0075L236.345 34.9193V34.9016C236.433 34.8487 236.521 34.7958 236.574 34.7429C236.645 34.6899 236.715 34.6017 236.803 34.4959L237.033 34.1784L237.068 34.0725C236.945 34.0372 236.874 34.0196 236.821 34.0196L236.239 34.0549H235.921C235.763 34.0549 235.657 34.0372 235.604 33.9843C235.551 33.9314 235.551 33.8785 235.569 33.8255C235.639 33.6668 235.71 33.5433 235.763 33.4551C235.815 33.3669 235.904 33.261 235.992 33.1375C236.151 32.9435 236.274 32.8023 236.398 32.7141L237.209 32.0085L237.897 31.4969C238.215 31.2852 238.479 31.0911 238.691 30.8794C238.903 30.6854 239.114 30.4384 239.291 30.1562L239.926 29.0624C239.944 29.0271 239.996 28.9565 240.049 28.8683C240.12 28.7801 240.155 28.7272 240.191 28.7449C240.208 28.7625 240.173 28.886 240.085 29.1506L239.644 30.1562C239.397 30.7207 239.097 31.197 238.762 31.5851C238.709 31.6557 238.638 31.7262 238.568 31.7968C238.55 31.8144 238.497 31.8673 238.444 31.9203C238.321 32.0261 238.215 32.0967 238.126 32.1496C238.038 32.2025 237.95 32.2378 237.88 32.2731C237.703 32.3613 237.527 32.4672 237.333 32.573C237.139 32.6788 236.909 32.8376 236.645 33.0317L236.415 33.2081C236.345 33.2434 236.309 33.2787 236.292 33.3139C236.274 33.3492 236.274 33.3669 236.257 33.3845C236.345 33.4198 236.468 33.4374 236.627 33.4374C237.05 33.4374 237.368 33.4198 237.562 33.4021C237.774 33.3669 237.95 33.3316 238.091 33.2787C238.144 33.261 238.179 33.2787 238.197 33.2787C238.232 33.2963 238.232 33.3492 238.215 33.4198C238.197 33.508 238.144 33.6315 238.074 33.755C238.003 33.8961 237.95 33.9667 237.897 33.9843C237.774 34.0725 237.703 34.1254 237.668 34.1607C237.58 34.2489 237.474 34.3371 237.386 34.443C237.244 34.6194 237.121 34.7605 237.033 34.884C236.839 35.1133 236.627 35.3427 236.38 35.5897C236.257 35.7131 236.098 35.819 235.904 35.8895L235.657 35.9954C235.569 36.0483 235.48 36.1189 235.392 36.1718L235.039 36.3306C234.88 36.4188 234.739 36.4894 234.598 36.5599L234.404 36.6305L234.051 36.8951C233.928 37.0009 233.787 37.0539 233.681 37.0186ZM242.466 28.0569C242.502 27.9863 242.554 27.8981 242.625 27.7922C242.643 27.7746 242.66 27.7393 242.713 27.6864C242.748 27.7393 242.766 27.7922 242.766 27.8275L242.678 28.4273L242.572 29.3976L242.378 30.95C242.325 31.3028 242.272 31.5851 242.219 31.8144C242.149 32.0438 242.078 32.2907 241.972 32.5377L241.567 33.3669C241.39 33.6668 241.267 33.8785 241.196 33.9667C241.125 34.0725 241.055 34.1078 241.002 34.1078L240.949 33.9843C241.037 33.6668 241.125 33.3669 241.214 33.067C241.302 32.7671 241.355 32.5377 241.39 32.379C241.514 31.8497 241.584 31.3734 241.637 30.95C241.69 30.5443 241.725 30.1738 241.761 29.8386L241.955 29.2917L242.466 28.0569ZM246.347 27.4218C246.365 27.5453 246.365 27.6687 246.33 27.7922C246.294 27.9334 246.224 28.0745 246.136 28.2509C246.047 28.4273 245.924 28.5684 245.783 28.7096C245.695 28.7978 245.606 28.8507 245.553 28.8507C245.518 28.8507 245.448 28.7978 245.324 28.6919C245.201 28.5861 245.095 28.4979 244.989 28.4273C244.883 28.3567 244.813 28.2862 244.742 28.2156C244.671 28.1451 244.636 28.0921 244.636 28.0392C244.707 27.8804 244.76 27.7746 244.795 27.6864C244.918 27.4218 245.007 27.2454 245.059 27.1219C245.165 26.9455 245.271 26.769 245.377 26.575C245.395 26.5397 245.43 26.4868 245.483 26.4162C245.518 26.4515 245.553 26.4868 245.589 26.5044C245.624 26.5221 245.677 26.5573 245.73 26.5926C245.977 26.7867 246.136 26.9455 246.224 27.0513C246.277 27.1571 246.33 27.2806 246.347 27.4218ZM249.082 32.6789C249.082 32.6259 249.011 32.573 248.888 32.5201C248.746 32.4672 248.623 32.4319 248.5 32.4319C248.27 32.4319 248.041 32.5906 247.794 32.9082C247.67 33.067 247.529 33.261 247.37 33.508C247.353 33.5433 247.318 33.5962 247.265 33.6844C247.423 33.6844 247.547 33.6668 247.688 33.6491C247.812 33.6138 247.97 33.5609 248.182 33.4727C248.429 33.3316 248.623 33.2081 248.782 33.067C248.941 32.9082 249.029 32.7847 249.082 32.6789ZM246.806 33.702C247 33.4551 247.194 33.1904 247.406 32.9082C247.6 32.6259 247.812 32.3789 248.023 32.132C248.217 31.9026 248.376 31.7262 248.552 31.638C248.711 31.5322 248.852 31.4969 248.993 31.4969C249.188 31.4969 249.329 31.5675 249.435 31.6909C249.54 31.8144 249.593 31.9732 249.593 32.1496C249.593 32.3966 249.505 32.7141 249.311 33.1199C249.117 33.5256 248.923 33.8608 248.711 34.1254C248.341 34.5841 247.917 34.884 247.476 35.0075C247.124 35.0957 246.894 35.1486 246.771 35.1486L246.453 35.131C246.347 35.131 246.294 35.1839 246.277 35.2721C246.259 35.378 246.241 35.4662 246.224 35.572C246.206 35.6779 246.171 35.8366 246.1 36.0307C246.012 36.507 245.906 37.001 245.747 37.4949C245.501 38.2182 245.218 38.8356 244.918 39.3472C244.495 40.0529 244.019 40.635 243.454 41.0584C243.084 41.3936 242.66 41.6406 242.184 41.7994C241.831 41.9228 241.461 41.9758 241.09 41.9758C240.561 41.9758 240.102 41.817 239.732 41.4818C239.203 41.0231 238.92 40.2999 238.92 39.3472C238.92 39.065 238.973 38.7122 239.061 38.2888C239.15 37.8654 239.273 37.442 239.414 37.0362C239.555 36.7363 239.661 36.4894 239.749 36.2953C239.908 35.9778 240.049 35.6602 240.226 35.378C240.314 35.2192 240.367 35.1133 240.402 35.0604C240.49 34.9369 240.543 34.8664 240.561 34.8664C240.614 34.8664 240.632 34.9193 240.632 35.0428C240.632 35.2015 240.596 35.3427 240.508 35.5015L239.979 36.6305C239.855 37.0009 239.767 37.2479 239.749 37.3538C239.644 37.7419 239.591 38.1124 239.591 38.4123C239.591 38.8886 239.767 39.2767 240.12 39.5589C240.473 39.8412 240.914 39.9823 241.461 39.9823C242.096 39.9823 242.537 39.9294 242.819 39.8412C243.101 39.753 243.348 39.6295 243.56 39.4884C243.789 39.3472 243.983 39.1885 244.16 39.012C244.424 38.7827 244.636 38.571 244.813 38.3417C245.042 38.0241 245.236 37.6537 245.377 37.2126C245.448 36.9304 245.501 36.7187 245.536 36.5599C245.571 36.4012 245.606 36.2071 245.642 35.9601C245.642 35.9072 245.642 35.7131 245.642 35.4132C245.642 35.1133 245.659 34.8664 245.659 34.7076C245.659 34.3901 245.695 34.1431 245.783 33.949C245.871 33.755 246.012 33.6491 246.224 33.6138C246.277 33.6138 246.365 33.6315 246.524 33.6491C246.63 33.7197 246.735 33.7197 246.806 33.702ZM252.239 28.3744C252.257 28.4979 252.257 28.6214 252.222 28.7449C252.187 28.886 252.116 29.0271 252.028 29.2035C251.94 29.3799 251.816 29.5211 251.675 29.6622C251.587 29.7504 251.499 29.8033 251.446 29.8033C251.41 29.8033 251.34 29.7504 251.216 29.6446C251.093 29.5387 250.987 29.4505 250.881 29.3799C250.775 29.3094 250.705 29.2388 250.634 29.1682C250.564 29.0977 250.528 29.0448 250.528 28.9918C250.599 28.8331 250.652 28.7272 250.687 28.639C250.811 28.3744 250.899 28.198 250.952 28.0745C251.058 27.8981 251.163 27.7217 251.269 27.5276C251.287 27.4923 251.322 27.4394 251.375 27.3688C251.41 27.4041 251.446 27.4394 251.481 27.457C251.516 27.4747 251.569 27.51 251.622 27.5453C251.869 27.7393 252.028 27.8981 252.116 28.0039C252.169 28.1098 252.222 28.2333 252.239 28.3744ZM254.039 28.2685C254.057 28.392 254.057 28.5155 254.021 28.639C253.986 28.7801 253.915 28.9213 253.827 29.0977C253.739 29.2741 253.615 29.4152 253.474 29.5564C253.386 29.6446 253.298 29.6975 253.245 29.6975C253.21 29.6975 253.139 29.6446 253.016 29.5387C252.892 29.4329 252.786 29.3447 252.68 29.2741C252.575 29.2035 252.504 29.133 252.434 29.0624C252.363 28.9918 252.328 28.9389 252.328 28.886C252.398 28.7272 252.451 28.6214 252.486 28.5332C252.61 28.2685 252.698 28.0921 252.751 27.9686C252.857 27.7922 252.963 27.6158 253.069 27.4218C253.086 27.3865 253.122 27.3336 253.174 27.263C253.21 27.2983 253.245 27.3336 253.28 27.3512C253.316 27.3688 253.369 27.4041 253.421 27.4394C253.668 27.6335 253.827 27.7922 253.915 27.8981C253.968 28.0039 254.021 28.1274 254.039 28.2685ZM253.845 32.4142C253.845 32.7847 253.774 33.1728 253.615 33.5609C253.51 33.8432 253.368 34.1254 253.174 34.4077C253.033 34.637 252.839 34.8311 252.557 35.0428C252.363 35.2015 252.187 35.3074 252.01 35.3603C251.851 35.4309 251.728 35.4838 251.622 35.5367C251.534 35.5896 251.428 35.6955 251.34 35.819C251.252 35.9601 251.075 36.2953 250.811 36.8422C250.616 37.2832 250.405 37.5831 250.175 37.7419C249.946 37.9006 249.646 38.0065 249.258 38.0594C248.87 38.1124 248.535 38.1476 248.253 38.1476C248.129 38.1476 248.058 38.1124 248.058 38.0241C248.058 37.9007 248.217 37.7595 248.517 37.6007C248.817 37.4243 249.117 37.2656 249.382 37.1068C250.017 36.701 250.458 36.3129 250.705 35.9425C250.863 35.6602 250.987 35.4132 251.093 35.2192C251.287 34.8487 251.463 34.6017 251.64 34.4959C252.01 34.2666 252.292 34.1078 252.469 34.0019C252.804 33.7903 252.98 33.6315 252.98 33.508C252.98 33.4374 252.945 33.3492 252.857 33.2257C252.769 33.1022 252.698 33.0493 252.628 33.0493C252.575 33.0846 252.504 33.1022 252.434 33.1199C252.363 33.1375 252.275 33.1375 252.187 33.1375C252.045 33.1375 251.922 33.0846 251.816 32.9964C251.71 32.9082 251.657 32.7671 251.657 32.6083C251.657 32.5554 251.71 32.3966 251.816 32.1496C251.887 31.9908 251.975 31.8144 252.063 31.6204C252.151 31.4263 252.257 31.2499 252.363 31.0735C252.469 30.8971 252.575 30.8089 252.698 30.8089C253.016 30.8089 253.28 30.95 253.51 31.2323C253.721 31.5675 253.845 31.9379 253.845 32.4142ZM267.34 28.7625C267.605 28.4802 268.152 28.0039 268.981 27.3336C269.722 26.7338 270.463 26.134 271.221 25.5342C271.751 25.0931 272.262 24.6521 272.756 24.1934C273.109 23.8759 273.568 23.4172 274.132 22.8703C274.997 22.0412 275.438 21.6002 275.438 21.5825C275.438 21.6354 275.42 21.6884 275.402 21.7413C275.367 21.9001 275.261 22.147 275.067 22.4822C274.873 22.7998 274.732 23.0467 274.591 23.2232C274.397 23.4701 274.203 23.7171 273.991 23.9464C273.779 24.1934 273.603 24.3698 273.479 24.4933C273.303 24.6697 273.003 24.9344 272.597 25.3225C272.28 25.6047 271.804 26.0105 271.186 26.5397C270.745 26.9102 270.357 27.2277 270.004 27.4923C269.546 27.8452 269.069 28.2156 268.611 28.5508L267.411 29.4858C267.235 29.6269 267.076 29.7504 266.917 29.8739C266.758 29.9974 266.67 30.0327 266.652 29.9974C266.741 29.7328 266.846 29.5034 266.97 29.2917C267.058 29.0977 267.182 28.9036 267.34 28.7625ZM265.894 35.0251C265.894 35.0428 265.894 35.0604 265.876 35.0604L265.894 35.0251L265.911 35.2898C265.911 35.7661 266.035 36.1012 266.3 36.2777C266.458 36.3835 266.635 36.4364 266.846 36.4364C267.005 36.4364 267.146 36.26 267.287 35.8895C267.305 35.8013 267.34 35.7131 267.358 35.6073C267.393 35.5014 267.429 35.4485 267.464 35.4485C267.517 35.4485 267.552 35.5014 267.552 35.6249C267.552 35.6779 267.552 35.7484 267.534 35.8366C267.517 35.9248 267.499 36.013 267.499 36.066C267.34 36.754 267.164 37.2832 266.917 37.6713C266.688 38.0418 266.441 38.2358 266.194 38.2358C265.806 38.2358 265.541 38.0594 265.4 37.7066C265.259 37.3538 265.188 36.9127 265.188 36.3835C265.188 36.3835 265.188 36.3835 265.17 36.3835C265.17 36.1189 265.188 35.819 265.223 35.4662C265.259 35.131 265.294 34.9016 265.294 34.7958L265.312 34.6017C265.312 34.5665 265.312 34.5488 265.294 34.5312C265.276 34.5135 265.259 34.5312 265.223 34.5665C265.17 34.6194 265.1 34.7252 264.994 34.884C264.765 35.1839 264.606 35.4132 264.5 35.5544C264.147 35.9954 263.706 36.4012 263.195 36.7893C262.665 37.1774 262.119 37.4773 261.519 37.689C260.919 37.9183 260.249 38.0947 259.508 38.2535C258.749 38.4122 257.973 38.4828 257.161 38.4828H256.914C256.42 38.4828 256.015 38.4475 255.697 38.3946C255.203 38.3064 254.85 38.1476 254.674 37.9359C254.498 37.7242 254.409 37.3891 254.409 36.948C254.409 36.5776 254.427 36.1895 254.48 35.8013C254.533 35.4132 254.603 35.2015 254.692 35.2015C254.727 35.2015 254.745 35.3074 254.762 35.5367C254.78 35.7661 254.868 35.9601 255.009 36.1365C255.327 36.4894 256.085 36.6658 257.302 36.6658C257.973 36.6658 258.502 36.6481 258.89 36.6128C260.795 36.4541 262.366 35.9954 263.565 35.2368C264.13 34.9016 264.588 34.4959 264.906 34.0372C265.153 33.6844 265.347 33.2434 265.488 32.7494L265.735 31.7615C265.753 31.6557 265.894 31.3558 266.123 30.8794C266.282 30.5619 266.37 30.3678 266.423 30.2796C266.476 30.1914 266.529 30.1209 266.599 30.0503C266.599 30.1385 266.599 30.2267 266.599 30.3149C266.546 30.5795 266.494 30.7736 266.476 30.9147L266.105 32.7494C266.035 33.2434 265.982 33.702 265.947 34.1254C265.911 34.5135 265.894 34.8311 265.894 35.0251ZM265.47 28.5155C265.488 28.639 265.488 28.7625 265.453 28.886C265.417 29.0271 265.347 29.1682 265.259 29.3447C265.17 29.5211 265.047 29.6622 264.906 29.8033C264.818 29.8915 264.729 29.9445 264.677 29.9445C264.641 29.9445 264.571 29.8915 264.447 29.7857C264.324 29.6798 264.218 29.5916 264.112 29.5211C264.006 29.4505 263.936 29.3799 263.865 29.3094C263.794 29.2388 263.759 29.1859 263.759 29.133C263.83 28.9742 263.883 28.8683 263.918 28.7801C264.041 28.5155 264.13 28.3391 264.183 28.2156C264.288 28.0392 264.394 27.8628 264.5 27.6687C264.518 27.6335 264.553 27.5805 264.606 27.51C264.641 27.5453 264.677 27.5805 264.712 27.5982C264.747 27.6158 264.8 27.6511 264.853 27.6864C265.1 27.8804 265.259 28.0392 265.347 28.1451C265.4 28.2509 265.453 28.3744 265.47 28.5155ZM269.616 41.2525C269.634 41.376 269.634 41.4995 269.598 41.6229C269.563 41.7641 269.493 41.9052 269.404 42.0816C269.316 42.258 269.193 42.3992 269.052 42.5403C268.963 42.6285 268.875 42.6814 268.822 42.6814C268.787 42.6814 268.716 42.6285 268.593 42.5227C268.469 42.4168 268.364 42.3286 268.258 42.258C268.152 42.1875 268.081 42.1169 268.011 42.0463C267.94 41.9758 267.905 41.9229 267.905 41.8699C267.975 41.7112 268.028 41.6053 268.064 41.5171C268.187 41.2525 268.275 41.0761 268.328 40.9526C268.434 40.7762 268.54 40.5998 268.646 40.4057C268.663 40.3704 268.699 40.3175 268.752 40.2469C268.787 40.2822 268.822 40.3175 268.857 40.3351C268.893 40.3528 268.946 40.3881 268.999 40.4233C269.246 40.6174 269.404 40.7762 269.493 40.882C269.545 40.9879 269.598 41.1114 269.616 41.2525Z" fill="black"/>
</g>
<defs>
<filter id="filter0_f_5110_30347" x="-77" y="-53" width="282" height="244" filterUnits="userSpaceOnUse" color-interpolation-filters="sRGB">
<feFlood flood-opacity="0" result="BackgroundImageFix"/>
<feBlend mode="normal" in="SourceGraphic" in2="BackgroundImageFix" result="shape"/>
<feGaussianBlur stdDeviation="9.5" result="effect1_foregroundBlur_5110_30347"/>
</filter>
<linearGradient id="paint0_linear_5110_30347" x1="24.4886" y1="-89.7136" x2="140.221" y2="178.186" gradientUnits="userSpaceOnUse">
<stop stop-color="#469C2D"/>
<stop offset="1" stop-color="#99CA21"/>
</linearGradient>
<clipPath id="clip0_5110_30347">
<rect width="320" height="172" rx="12" fill="white"/>
</clipPath>
</defs>
</svg>
