<svg width="320" height="172" viewBox="0 0 320 172" fill="none" xmlns="http://www.w3.org/2000/svg">
<g clip-path="url(#clip0_5110_21208)">
<rect width="320" height="172" rx="12" fill="#FFFBF9"/>
<g opacity="0.9">
<mask id="mask0_5110_21208" style="mask-type:alpha" maskUnits="userSpaceOnUse" x="-29" y="-43" width="378" height="226">
<rect x="-29" y="-43" width="377.024" height="226" fill="#D9D9D9"/>
</mask>
<g mask="url(#mask0_5110_21208)">
<path d="M-17.6895 92.1963H336.713V163.352C336.713 167.517 333.337 170.893 329.172 170.893H-10.149C-14.3135 170.893 -17.6895 167.517 -17.6895 163.352V92.1963Z" fill="url(#paint0_linear_5110_21208)"/>
</g>
<g clip-path="url(#clip1_5110_21208)">
<path d="M55.4116 154.342C56.0306 154.409 56.6496 154.475 57.2653 154.556C57.6595 154.608 58.0522 154.67 58.4432 154.737C58.5691 155.034 58.7032 155.328 58.8366 155.621C59.0926 156.182 59.4391 156.709 59.7799 157.231C60.4375 158.238 60.3272 159.206 59.7725 160.224C58.8835 161.854 57.5089 162.731 55.6042 162.835C53.9185 162.927 52.334 163.306 50.938 164.247C49.7116 165.074 48.3814 165.248 47.0143 164.726C46.1393 164.392 45.3688 164.502 44.6659 164.974C42.8172 166.215 40.9841 165.536 39.1478 165.002C38.5156 164.818 38.2275 164.269 38.449 163.757C38.9692 162.555 39.5075 161.327 40.2779 160.268C40.994 159.284 42.1497 159.248 43.2164 159.909C43.521 160.097 43.7951 160.346 44.0387 160.605C44.554 161.154 45.1005 161.303 45.6865 160.745C46.848 159.635 48.1345 159.276 49.6885 159.971C50.0902 160.15 50.5833 160.14 50.8146 160.179C52.2855 160.15 53.3785 159.765 54.2782 158.923C54.7622 158.47 54.7803 157.98 54.2387 157.589C53.0666 156.74 51.8607 155.933 50.6705 155.107C49.7149 154.444 48.9238 153.674 48.2621 152.82C48.4185 152.872 48.5765 152.919 48.7313 152.982C50.9372 153.863 53.2123 154.107 55.4116 154.342Z" fill="#F25920" fill-opacity="0.22"/>
<path d="M17.6208 156.755C17.657 157.774 18.0636 158.667 18.806 159.407C20.5115 161.105 22.0343 163.009 24.3629 164.037C25.5309 164.552 26.2832 165.427 26.2725 166.699C26.2642 167.655 26.6898 168.368 27.294 169.059C27.6446 169.461 27.9491 169.909 28.2093 170.368C28.6941 171.227 28.3945 171.89 27.387 172.172C25.8041 172.615 24.2888 172.347 22.8755 171.603C22.4969 171.404 21.9767 170.996 21.9725 170.679C21.9528 168.95 20.886 167.812 19.7715 166.661C19.6028 166.487 19.5353 166.177 19.5172 165.923C19.425 164.676 18.5789 163.859 17.7516 163.037C16.8199 162.11 15.8758 161.195 14.916 160.295C15.2354 159.536 15.7103 158.834 16.3482 158.188C16.7944 157.736 17.2133 157.252 17.6208 156.755Z" fill="#F25920" fill-opacity="0.22"/>
<path d="M77.4613 106.567C77.3279 106.468 77.2654 106.408 77.2876 106.136C77.2983 106.012 77.3008 105.883 77.3016 105.755C77.3024 105.709 77.3008 105.664 77.3049 105.618C77.3329 105.307 77.3526 104.995 77.3592 104.688C77.4819 104.613 77.6111 104.539 77.7568 104.466C78.3906 104.145 79.1207 103.999 79.4861 103.878C80.036 103.908 80.2204 103.911 80.4031 103.93C81.3143 104.026 81.6797 104.639 81.213 105.408C80.6591 106.319 80.0343 107.191 79.4252 108.072C79.3898 108.122 79.3536 108.164 79.3158 108.201C78.7602 107.626 78.1453 107.077 77.4613 106.567Z" fill="#F25920" fill-opacity="0.22"/>
<path d="M34.387 122.422C30.8575 122.314 27.4268 121.652 24.0339 120.826C19.9924 119.843 15.9156 119.192 11.7383 119.539C9.63605 119.714 7.53712 120.006 5.4637 120.382C3.05199 120.82 0.929173 121.886 -0.69976 123.672C-1.58296 124.642 -2.46697 125.042 -3.81852 124.583C-7.10109 123.469 -10.247 125.579 -11.3212 127.991C-11.8258 129.125 -12.4167 130.224 -12.9452 131.348C-13.6448 132.837 -14.6367 134.034 -16.1998 134.808C-17.269 135.337 -17.3398 135.49 -16.7249 136.379C-16.1866 137.157 -16.2475 137.847 -16.4952 138.622C-17.4542 141.625 -19.9161 143.389 -23.276 143.498C-24.2341 143.53 -25.2778 143.065 -26.0656 144.125C-26.2433 144.364 -27.157 144.326 -27.5842 144.127C-28.4855 143.706 -29.2971 143.106 -30.1317 142.559C-30.7219 142.172 -31.2446 141.534 -32.0142 142.33C-32.0998 142.419 -32.5105 142.288 -32.7286 142.181C-34.2835 141.419 -34.4086 141.484 -34.5987 143.048C-34.8243 144.893 -34.3675 146.533 -33.1501 147.993C-31.1845 150.35 -28.6559 151.865 -25.6384 152.658C-24.7766 152.885 -23.8637 152.838 -23.1674 153.624C-22.6406 154.218 -21.75 154.018 -21.108 153.67C-19.6741 152.892 -18.2016 152.131 -16.92 151.152C-14.9659 149.661 -13.3888 147.814 -12.1698 145.704C-11.9138 145.262 -11.694 144.675 -10.9656 144.861C-9.93588 145.126 -9.44613 144.546 -9.00329 143.813C-7.58672 141.468 -6.98833 138.912 -6.89779 136.238C-6.84676 134.742 -6.91918 133.242 -6.8879 131.745C-6.87473 131.136 -6.81959 130.502 -6.63028 129.926C-6.3603 129.108 -5.71249 128.647 -4.78156 128.57C-4.14282 128.517 -3.70082 128.846 -3.70247 129.443C-3.70329 129.618 -3.68764 129.802 -3.73456 129.968C-4.55191 132.866 -3.70494 135.586 -2.56739 138.193C-1.68584 140.213 -0.479168 142.107 0.639439 144.027C2.29718 146.873 4.03559 149.676 5.68099 152.527C7.07864 154.948 7.29511 157.544 6.70988 160.224C6.57818 160.826 6.45472 161.432 6.36253 162.042C6.0621 164.013 6.53622 165.555 8.38739 166.839C10.9621 168.625 12.3622 171.182 12.3778 174.308C12.3828 175.255 12.6511 176.094 13.5252 176.57C14.5591 177.135 14.7303 177.965 14.783 179.004C14.8644 180.63 15.4381 181.219 17.1 181.395C18.2787 181.52 19.4961 181.505 20.6756 181.379C21.8148 181.258 22.2881 180.375 21.7382 179.461C20.7316 177.787 19.5191 176.222 18.9858 174.312C18.9224 174.085 18.6746 173.855 18.4491 173.73C15.4974 172.104 14.3179 169.179 13.3861 166.431C12.3046 163.241 12.3177 159.893 15.1064 157.066C17.8663 154.267 19.5414 150.826 20.6847 147.142C21.2707 145.254 21.8238 145.027 23.6314 145.928C24.6043 146.413 25.5822 146.971 26.3839 147.676C29.0466 150.017 32.3259 150.759 35.7492 151.136C38.1354 151.399 40.534 151.408 42.907 150.98C45.1212 150.583 47.2464 150.617 49.3898 151.472C51.9637 152.5 54.7647 152.575 57.4991 152.936C59.3083 153.175 61.1183 153.57 62.8551 154.11C64.8964 154.744 65.9862 156.19 65.9607 158.312C65.9524 159.017 65.9632 159.723 65.9936 160.426C66.029 161.264 65.7656 161.941 65.1261 162.556C64.0782 163.564 63.0872 164.622 63.544 166.266C63.6082 166.498 63.2922 166.902 63.0485 167.121C62.5143 167.602 61.8953 167.995 61.3455 168.461C60.6804 169.024 60.4203 169.766 60.4944 170.603C60.5899 171.679 60.7669 172.87 61.8797 173.306C63.0831 173.777 63.5992 172.553 64.233 171.878C64.8421 171.229 65.3063 170.45 65.7961 169.705C66.4866 168.654 67.2135 167.663 68.3551 166.984C69.6672 166.205 69.9873 165.103 69.8038 163.588C69.477 160.897 69.1445 158.19 69.8219 155.456C70.38 153.199 69.4021 151.536 67.2925 150.421C66.0043 149.739 64.6898 149.088 63.4741 148.3C62.4155 147.614 61.4468 146.788 60.4961 145.962C59.7454 145.31 59.5692 144.603 60.175 143.641C61.5439 141.467 62.0583 139.031 61.8064 136.525C61.3126 131.609 63.6732 127.661 66.3278 123.798C66.7253 123.219 67.2859 122.721 67.8505 122.278C68.0588 122.115 68.6234 122.076 68.8103 122.226C70.5026 123.579 72.5809 123.871 74.5844 124.51C76.5763 125.145 78.5502 126.304 79.6548 128.338C80.6993 130.261 81.6871 130.474 83.6716 129.451C85.7631 128.373 86.5278 126.815 85.8462 124.603C85.4865 123.433 84.8568 122.338 84.335 121.215C83.6641 119.772 82.8378 118.379 82.3291 116.887C81.1347 113.39 79.528 110.181 76.4109 107.857C75.7738 107.382 75.5211 106.762 75.5845 106.005C75.5993 105.83 75.587 105.652 75.6026 105.477C75.8899 102.311 74.9466 102.182 72.4452 103.66C71.3381 104.314 70.501 104.65 69.2745 103.837C68.1757 103.108 66.8077 103.228 65.5351 103.645C64.1194 104.11 62.7094 104.452 61.236 103.828C61.0088 103.732 60.5199 103.71 60.4631 103.812C59.696 105.194 57.9543 104.771 56.9353 105.596C56.3253 106.09 55.8109 106.747 55.4142 107.419C54.5343 108.91 53.4008 109.928 51.4814 109.81C50.7463 109.765 50.2179 109.92 50.2245 110.791C50.2253 110.929 49.8392 111.139 49.6005 111.198C47.4687 111.721 46.5147 113.162 45.9229 115.085C45.2874 117.151 44.1729 117.648 41.9135 117.225C41.6452 117.174 41.395 116.997 41.1307 116.981C40.8772 116.967 40.506 117.012 40.3891 117.17C40.2714 117.327 40.3529 117.674 40.4434 117.903C40.5381 118.142 40.7463 118.341 40.9052 118.556C41.0114 118.7 41.2114 118.846 41.2048 118.984C41.1941 119.193 41.092 119.514 40.9365 119.575C40.608 119.706 40.2162 119.681 39.8574 119.754C38.6597 119.998 38.6268 120.015 39.0368 121.292C39.2137 121.842 39.1487 122.123 38.5182 122.164C37.1411 122.251 35.764 122.336 34.387 122.422Z" fill="#F25920" fill-opacity="0.22"/>
</g>
<g clip-path="url(#clip2_5110_21208)">
<path d="M228.365 155.146C228.119 155.752 227.79 156.28 227.404 156.753C226.813 155.45 225.995 154.282 225.182 153.14C226.039 153.33 226.902 153.499 227.738 153.752C228.534 153.994 228.669 154.394 228.365 155.146Z" fill="white" fill-opacity="0.2"/>
<path d="M185.857 146.129C186.702 146.326 187.501 146.511 188.235 146.793C189.687 147.352 191.146 148.023 192.555 148.671L192.909 148.834C194.023 149.345 195.138 149.772 196.251 150.126C196.429 151.316 196.536 152.506 196.25 153.736C195.952 155.026 195.919 156.371 195.842 157.041C195.758 159.064 196.101 160.354 196.826 161.514C198.079 163.519 199.496 165.405 201.449 166.87C201.991 167.276 202.525 167.732 202.924 168.26C203.69 169.28 204.39 170.349 205.052 171.435C205.434 172.062 205.739 172.744 205.986 173.432C206.208 174.049 206.512 174.771 205.931 175.317C205.324 175.885 204.517 175.723 203.753 175.567C202.778 175.369 202.123 174.861 201.89 173.908C201.779 173.455 201.647 173.006 201.551 172.55C201.419 171.919 201.124 171.43 200.434 171.24C198.855 170.807 198.119 169.711 197.664 168.27C197.433 167.536 196.896 166.87 196.41 166.234C195.119 164.543 193.424 163.264 191.541 162.241C189.887 161.341 189.204 160.045 189.372 158.275C189.62 155.673 188.461 153.623 186.584 151.874C185.953 151.288 185.324 150.697 184.674 150.13C185.172 148.846 185.563 147.511 185.836 146.124C185.843 146.126 185.85 146.128 185.857 146.129Z" fill="white" fill-opacity="0.2"/>
<path d="M223.733 164.237C223.036 164.648 222.462 165.292 221.729 165.621C219.917 166.433 219.223 167.294 218.844 164.342C218.836 164.277 218.808 164.214 218.796 164.148C218.362 161.815 218.59 161.538 221.033 161.28C221.273 161.255 221.622 161.142 221.783 160.997C221.978 161.286 222.17 161.576 222.37 161.86C222.893 162.601 223.39 163.387 223.733 164.237Z" fill="white" fill-opacity="0.2"/>
<path d="M227.403 156.754C227.788 156.281 228.118 155.752 228.364 155.147C228.668 154.395 228.532 153.994 227.736 153.752C226.901 153.499 226.037 153.33 225.18 153.14C225.149 153.096 225.117 153.052 225.086 153.008L224.787 152.588C224.599 152.322 224.402 152.062 224.205 151.802C223.873 151.364 223.559 150.951 223.303 150.525C222.635 149.414 222.282 148.134 222.252 146.721C222.245 146.367 222.325 146.199 222.591 146.001C223.581 145.267 224.342 144.613 224.983 143.952C225.452 144.798 226.199 145.485 226.906 146.168C227.927 147.154 229.133 147.963 230.255 148.854C230.895 149.362 231.55 149.857 232.161 150.395C232.749 150.913 233.026 151.589 233.06 152.663C232.95 153.013 232.826 153.675 232.539 154.266C232.014 155.349 231.424 156.408 230.804 157.446C230.141 158.556 229.343 159.56 228.336 160.39C228.292 160.253 228.26 160.127 228.253 160.022C228.172 158.82 227.853 157.748 227.403 156.754Z" fill="white" fill-opacity="0.2"/>
<path d="M237.909 109.462C237.366 109.067 237.087 108.715 236.915 108.207L236.875 108.088C237.453 107.31 238.197 106.653 239.016 106.052C239.157 105.948 239.456 105.872 239.571 105.944C239.769 106.068 239.878 106.32 239.918 106.373C239.787 107.751 239.736 108.947 239.537 110.119C239.505 110.307 239.439 110.493 239.362 110.676C238.926 110.255 238.442 109.849 237.909 109.462Z" fill="white" fill-opacity="0.2"/>
<path d="M145.733 138.063C146.735 137.968 147.556 137.637 148.336 137.158C148.609 136.99 148.878 136.996 148.916 137.4C148.975 138.029 149.352 138.172 149.932 138.029C150.269 137.946 150.606 137.855 150.948 137.794C151.986 137.609 152.148 137.74 152.205 138.77C152.266 139.852 152.276 139.954 153.343 139.858C155.663 139.648 156.148 139.995 157.357 141.66C157.863 142.355 158.641 142.868 159.292 143.466C159.538 143.69 159.908 143.881 159.998 144.154C160.504 145.699 161.808 145.95 163.163 145.828C165.578 145.611 167.592 144.604 168.729 142.445C169.354 141.26 169.801 139.989 170.342 138.762C170.692 137.966 171.041 137.167 171.45 136.399C171.541 136.229 171.886 136.183 172.114 136.08C172.178 136.259 172.305 136.441 172.293 136.616C172.205 137.943 172.005 139.269 172.003 140.595C172.001 142.255 172.133 143.916 172.248 145.574C172.391 147.633 172.603 149.689 172.737 151.748C172.888 154.068 172.403 156.298 171.165 158.282C169.961 160.211 170.061 162.034 171.005 163.985C172.37 166.805 173.124 169.749 172.911 172.9C172.807 174.436 173.239 175.832 174.851 176.584C175.414 176.846 175.663 177.298 175.809 177.823C176.314 179.639 177.818 180.065 179.485 180.231C180.359 180.318 180.733 179.821 180.498 178.964C180.208 177.903 179.631 176.987 178.794 176.257C177.942 175.513 177.341 174.66 177.123 173.57C177.097 173.44 177.061 173.303 176.992 173.191C175.212 170.335 175.343 167.229 175.688 164.095C175.738 163.631 175.74 163.162 175.789 162.699C175.985 160.784 176.685 159.097 178.122 157.694C181.53 154.365 183.693 150.402 184.581 145.812C184.619 145.616 184.657 145.419 184.713 145.226C184.824 144.835 185.143 144.684 185.509 144.772C186.588 145.033 187.691 145.25 188.717 145.645C190.331 146.266 191.9 146.997 193.469 147.718C196.46 149.093 199.635 149.962 202.913 150.067C205.39 150.147 207.914 149.772 210.366 149.332C211.712 149.091 212.572 149.334 213.504 150.226C215.177 151.827 217.015 153.269 218.696 154.864C219.577 155.7 220.312 156.688 221.035 157.661C221.881 158.8 222.624 160.009 223.442 161.167C224.548 162.734 225.452 164.358 225.483 166.321C225.498 167.295 225.888 168.143 226.725 168.752C227.459 169.286 227.752 169.993 227.653 170.854C227.511 172.087 228.203 172.695 229.35 173.002C230.086 173.199 230.797 173.502 231.544 173.646C232.495 173.829 233.226 173.12 232.982 172.218C232.813 171.589 232.49 170.966 232.101 170.429C231.339 169.378 230.695 168.345 230.557 167C230.481 166.263 229.908 165.557 229.499 164.869C228.879 163.829 228.17 162.838 227.572 161.788C227.277 161.269 227.001 160.675 226.963 160.101C226.783 157.42 225.201 155.376 223.717 153.282C223.209 152.565 222.633 151.889 222.183 151.142C221.37 149.79 220.992 148.307 220.96 146.745C220.946 146.037 221.178 145.483 221.8 145.022C222.623 144.412 223.427 143.756 224.125 143.021C226.57 140.445 227.848 137.424 227.683 133.908C227.63 132.778 227.474 131.652 227.44 130.522C227.378 128.508 227.613 126.532 228.531 124.683C228.903 123.935 229.363 123.325 230.38 123.3C231.197 123.28 232.009 123.11 232.823 123.007C233.516 123.75 234.283 124.443 234.871 125.255C235.207 125.719 235.261 126.375 235.422 126.95C235.601 127.592 235.717 128.252 235.932 128.882C236.27 129.873 237.052 130.422 238.111 130.487C238.863 130.533 239.637 130.456 240.383 130.331C240.77 130.266 241.24 130.068 241.459 129.78C242.451 128.478 243.34 127.111 242.9 125.372C242.736 124.726 242.554 124.082 242.338 123.45C241.601 121.289 241.076 119.109 240.967 116.81C240.84 114.114 239.308 112.033 237.127 110.447C236.406 109.923 235.948 109.367 235.685 108.589C235.428 107.829 235.191 107.058 234.865 106.325C234.715 105.988 234.418 105.545 234.107 105.473C233.541 105.342 233.31 105.896 233.089 106.305C232.866 106.718 232.689 107.154 232.488 107.579C232.289 107.996 231.988 108.194 231.493 108.024C230.601 107.718 229.715 107.74 228.845 108.106C227.631 108.616 226.584 108.531 225.661 107.487C225.196 106.961 224.987 107.016 224.641 107.708C224.404 108.179 224.165 108.481 223.591 108.503C221.885 108.568 220.758 109.488 219.939 110.832C219.263 111.943 218.345 112.639 216.924 112.663C216.367 112.673 216.176 113.049 216.556 113.461C217.109 114.06 216.984 114.337 216.272 114.562C214.509 115.118 213.751 116.334 213.742 118.06C213.741 118.456 213.683 118.858 213.6 119.247C213.349 120.415 212.589 121.115 211.376 121.361C210.969 121.443 210.537 121.446 210.149 121.576C209.797 121.694 209.543 122.015 209.836 122.353C210.382 122.986 210.14 123.263 209.427 123.441C208.191 123.749 207.447 124.577 206.832 125.605C205.429 127.95 205.403 127.957 202.552 127.535C199.318 127.056 196.097 126.492 192.858 126.051C189.95 125.655 187.023 125.623 184.116 126.109C180.863 126.653 178.069 128.103 175.701 130.272C174.86 131.042 174.103 131.648 172.807 131.467C171.742 131.318 170.761 131.773 169.965 132.499C169.612 132.82 169.276 133.161 168.918 133.478C167.603 134.643 166.427 134.653 165.054 133.522C164.567 133.121 164.262 132.322 163.349 132.841C163.246 132.9 162.961 132.755 162.818 132.638C162.554 132.424 162.354 132.138 162.09 131.923C160.544 130.668 158.879 130.076 156.912 131.065C155.571 131.74 154.228 131.726 152.951 130.906C152.506 130.621 152.164 130.522 151.64 130.83C151.364 130.992 150.847 130.833 150.454 130.752C148.498 130.35 146.735 130.649 145.165 131.907C144.528 132.418 143.793 132.818 143.105 133.272C142.836 133.45 142.364 133.604 142.621 133.983C142.753 134.177 143.234 134.241 143.545 134.216C144.235 134.162 144.917 134.007 145.606 133.915C145.721 133.9 145.853 133.995 145.978 134.039C145.926 134.158 145.911 134.331 145.817 134.389C144.944 134.925 144.052 135.433 143.179 135.971C142.956 136.108 142.592 136.376 142.627 136.49C142.713 136.774 142.939 137.127 143.205 137.235C144.024 137.565 144.887 137.794 145.733 138.063Z" fill="white" fill-opacity="0.2"/>
</g>
<g clip-path="url(#clip3_5110_21208)">
<path d="M319.701 157.543C319.715 155.722 320.93 154.555 321.822 153.74C321.854 153.615 321.889 153.488 321.922 153.363C321.61 152.426 320.924 151.621 319.946 151.068L319.568 151.208C318.208 151.702 316.909 152.455 315.536 153.253C315.272 153.405 315.003 153.701 314.847 153.991C314.573 154.499 314.279 154.988 313.977 155.466C314.774 155.948 314.53 156.922 313.627 158.971C313.124 160.115 312.568 161.146 311.118 161.4C310.27 161.548 309.852 162.181 309.559 162.9C309.305 163.521 308.988 164.099 308.174 164.134C306.813 164.194 305.712 164.686 305.16 165.93C304.673 167.023 304.21 168.138 303.89 169.284C303.702 169.953 304.367 170.648 305.072 170.515C306.088 170.325 307.128 170.033 308.033 169.566C309.31 168.906 310.448 168.091 312.062 168.429C312.531 168.528 313.171 168.171 313.649 167.891C314.927 167.143 315.878 166.075 316.242 164.678C316.377 164.165 316.591 163.711 316.848 163.282C316.865 162.704 316.906 162.107 316.993 161.505C317.328 159.214 318.637 158.088 319.701 157.543Z" fill="white" fill-opacity="0.2"/>
<path d="M287.718 178.689C287.49 181.333 287.452 183.76 287.041 186.128C286.183 191.079 283.578 194.902 278.699 197.126C275.66 198.512 275.242 199.399 276.015 202.652C276.315 203.915 276.61 205.204 277.142 206.383C277.63 207.464 278.272 208.572 279.138 209.382C280.337 210.503 281.096 211.693 280.914 213.29C280.743 214.786 281.317 215.981 282.212 217.146C282.955 218.114 283.608 219.155 284.207 220.213C284.729 221.134 284.44 221.817 283.418 222.203C282.889 222.403 282.3 222.55 281.737 222.553C280.773 222.557 279.797 222.495 278.846 222.344C275.939 221.882 275.765 221.722 275.536 218.789C275.458 217.792 275.141 217.003 274.387 216.342C273.301 215.388 272.886 214.165 273.101 212.81C273.411 210.853 272.768 209.14 271.792 207.505C271.073 206.3 270.196 205.178 269.502 203.959C268.813 202.748 268.18 201.493 267.678 200.202C267.05 198.587 267.414 197.099 268.704 195.854C269.114 195.458 269.512 195.051 269.937 194.672C272.533 192.357 272.988 190.015 271.331 186.321C270.765 185.06 269.937 183.863 269.024 182.796C265.764 178.981 263.915 174.738 264.328 169.733C264.343 169.548 264.358 169.361 264.349 169.176C264.306 168.324 263.942 167.999 263.083 168.086C261.192 168.278 259.857 169.305 258.922 170.802C257.908 172.425 257.454 174.216 257.464 176.117C257.476 178.371 257.922 180.563 258.762 182.641C260.194 186.184 260.505 189.839 260.331 193.576C260.294 194.372 260.295 195.175 259.035 194.636C258.942 194.596 258.573 194.905 258.501 195.107C258.281 195.717 258.149 196.355 257.975 196.981C257.095 200.151 255.221 202.693 252.509 204.647C251.675 205.248 250.685 205.699 249.7 206.046C248.639 206.421 248.179 206.246 247.669 205.157C247.338 204.449 247.102 204.338 246.429 204.686C245.494 205.169 244.543 205.644 243.551 205.998C242.841 206.253 242.056 206.337 241.295 206.421C241.065 206.447 240.68 206.271 240.595 206.089C240.514 205.918 240.66 205.538 240.835 205.386C241.903 204.455 243.014 203.57 244.081 202.639C244.141 202.587 243.981 202.133 243.853 202.096C243.593 202.024 243.285 202.125 242.997 202.127C242.52 202.134 242.022 202.197 241.573 202.087C241.246 202.006 240.818 201.73 240.739 201.46C240.661 201.193 240.876 200.734 241.116 200.514C242.373 199.368 243.699 198.292 244.959 197.15C245.63 196.541 245.821 195.939 244.711 195.488C244.031 195.212 243.947 194.645 244.423 194.137C247.575 190.771 247.856 186.6 248.038 182.405C248.056 181.975 247.961 181.223 247.733 181.151C246.091 180.621 246.557 179.528 246.74 178.421C247.042 176.593 247.146 174.731 247.518 172.919C249.016 165.616 255.388 161.638 263.046 163.165C263.52 163.259 264.009 163.346 264.446 163.533C265.427 163.954 266.023 163.697 266.59 162.815C268.004 160.616 270.271 159.317 272.461 157.937C275.127 156.257 277.768 154.536 280.368 152.765C281.308 152.124 282.066 151.245 282.97 150.549C284.365 149.476 284.896 148.198 284.756 146.44C284.649 145.089 285.089 143.696 285.3 142.324C285.418 141.562 285.371 140.966 284.636 140.372C283.613 139.544 283.591 139.208 284.42 138.329C286.297 136.338 287.442 134.02 287.967 131.428C288.334 129.613 288.524 127.765 288.796 125.932C288.899 125.243 288.603 125.054 287.877 124.891C286.312 124.538 286.088 124.005 287.093 122.805C288.36 121.291 288.827 119.531 289.353 117.741C289.902 115.875 290.374 113.943 291.261 112.22C293.468 107.933 296.979 105.261 302.174 105.089C303.197 105.055 303.737 104.695 304.05 103.741C304.304 102.963 304.752 102.202 305.287 101.567C305.595 101.202 306.24 100.958 306.741 100.945C306.956 100.939 307.293 101.63 307.402 102.046C307.636 102.941 307.751 103.864 307.927 104.774C308.08 105.569 308.503 106.01 309.399 106.248C312.779 107.145 315.074 109.353 316.689 112.223C317.577 113.8 318.672 115.172 320.065 116.36C321.151 117.283 322.157 118.292 323.219 119.242C324.966 120.804 324.541 123.079 323.306 124.524C321.729 126.367 318.86 126.836 316.739 125.559C315.924 125.067 315.252 124.359 314.438 123.866C313.804 123.481 313.074 123.184 312.344 123.018C311.512 122.828 311.02 123.217 311.025 124.046C311.046 127.997 311.556 131.821 314.329 135.024C315.824 136.749 317.223 138.532 317.367 140.9C317.413 141.659 317.871 142.077 318.585 142.272C320.749 142.86 322.911 143.172 325.172 142.672C328.27 141.985 330.061 143.317 330.114 146.336C330.132 147.333 329.919 148.362 329.638 149.33C329.017 151.478 328.436 153.612 328.359 155.866C328.325 156.866 327.987 157.865 327.704 158.843C327.349 160.071 326.594 161.009 325.258 161.383C324.063 161.716 323.352 162.549 322.614 163.441C321.903 164.3 321.043 165.069 320.146 165.754C319.534 166.223 318.687 165.812 318.659 165.063C318.618 163.957 318.614 162.834 318.774 161.743C318.938 160.624 319.421 159.621 320.586 159.043C320.986 158.844 321.605 158.379 321.557 158.139C321.249 156.583 322.255 155.725 323.245 154.82C323.378 154.698 323.48 154.511 323.522 154.338C323.956 152.551 324.689 150.782 323.92 148.915C322.13 148.266 320.502 149.029 318.929 149.599C317.402 150.153 315.975 150.984 314.569 151.8C314.027 152.115 313.541 152.656 313.247 153.202C310.49 158.316 306.086 161.892 301.262 165.088C298.792 166.725 296.305 168.338 293.878 170.03C292.629 170.9 291.46 171.887 290.314 172.882C288.459 174.492 286.853 176.235 287.718 178.689Z" fill="white" fill-opacity="0.2"/>
</g>
<g clip-path="url(#clip4_5110_21208)">
<path d="M46.0462 232.914C46.0949 233.912 46.1709 234.804 46.1745 235.697C46.1804 236.743 46.4262 237.674 47.2267 238.444C47.5521 238.757 47.9938 239.125 48.0437 239.509C48.3751 242.062 50.35 243.528 51.9793 245.261C52.9876 246.332 53.8438 247.555 54.6324 248.789C55.5789 250.268 55.3141 250.913 53.4947 251.492C52.1729 251.914 50.793 252.239 49.4118 252.395C47.4879 252.615 46.3004 251.831 45.6258 250.09C45.4263 249.574 45.3289 249.007 45.2814 248.457C45.1496 246.918 44.5784 245.861 42.9918 245.036C41.119 244.061 40.5703 242.314 41.024 240.149C41.7709 236.579 41.037 233.069 39.9029 229.638C39.7984 229.322 39.6084 229.031 39.4754 228.721C37.4589 224.069 38.4623 221.261 43.0013 218.543C44.9762 217.358 46.8775 216.059 48.7776 214.764C49.4391 214.313 50.0234 213.749 50.5911 213.189C51.882 211.913 51.9069 211.677 50.5863 210.528C48.2123 208.464 46.4357 206.003 45.0665 203.254C42.759 198.621 42.3576 193.842 43.9763 188.942C44.4667 187.455 45.0795 186.005 45.6306 184.535C46.0343 183.459 45.6994 182.919 44.5202 182.62C43.0416 182.243 41.9669 182.948 41.2009 183.953C40.6024 184.738 40.2734 185.737 39.954 186.683C39.6321 187.634 39.5157 188.647 39.2272 189.611C38.8174 190.977 38.6179 191.161 37.0099 190.819C36.0361 190.612 35.5754 190.954 35.529 191.669C35.4091 193.541 35.4103 195.424 35.434 197.301C35.4554 198.963 35.7582 200.643 35.5825 202.28C35.4578 203.428 35.0136 204.748 33.1824 204.588C32.8879 204.562 32.4295 205.032 32.2406 205.371C31.7502 206.254 31.4509 207.24 30.9224 208.099C29.8037 209.912 28.115 210.946 25.9251 210.235C23.4657 209.436 21.8802 210.425 20.4397 212.079C20.0656 212.507 19.7402 212.978 19.3412 213.382C18.2747 214.465 18.1121 214.578 16.4423 213.695C15.4638 213.177 14.8557 213.67 14.2025 214.001C12.3048 214.96 10.4237 215.019 8.47014 214.217C6.56052 213.431 6.30994 212.369 7.69821 210.899C8.86916 209.658 10.1541 208.491 11.1457 207.131C11.9307 206.055 12.4069 204.757 12.8986 203.514C13.091 203.027 13.2026 202.227 12.9247 201.898C10.7075 199.276 12.7038 197.12 13.6777 194.858C13.8962 194.351 14.3249 193.93 14.6063 193.442C14.7643 193.169 14.9032 192.841 14.9044 192.539C14.9068 190.453 14.8736 190.392 16.5314 189.872C17.8555 189.458 19.2319 189.186 20.5965 188.903C22.1938 188.572 23.8136 188.338 25.4038 187.983C26.3087 187.78 26.8455 187.365 26.1484 186.345C25.7589 185.777 26.2529 185.243 26.8348 185.048C29.2574 184.238 30.9296 182.592 32.5435 180.771C36.2784 176.555 41.4479 175.061 46.7386 177.193C49.2527 178.205 50.4177 177.494 52.0708 175.967C54.0707 174.122 56.3342 172.478 58.688 171.055C61.9467 169.083 65.6234 168.323 69.4545 169.033C71.5328 169.418 73.3474 169.041 75.2107 168.25C79.7371 166.33 83.7411 163.654 87.6722 160.818C89.1547 159.749 88.7822 158.226 89.3667 156.956C89.3913 156.904 88.9525 156.557 88.695 156.506C88.1337 156.396 87.5338 156.451 86.9804 156.321C86.3654 156.176 86.1537 155.416 86.563 154.983C86.7949 154.737 87.0561 154.503 87.3451 154.323C88.9827 153.298 89.4874 151.729 89.5852 150C89.6548 148.776 89.6617 147.541 89.5871 146.318C89.4289 143.72 90.2852 141.746 92.9484 140.657C94.6101 139.977 95.4109 138.679 95.4058 136.932C95.4029 136.023 95.1598 135.396 94.0122 135.541C93.7904 135.569 93.5418 135.526 93.3266 135.457C92.6586 135.241 92.4335 134.54 92.9958 134.19C94.5105 133.247 95.371 132.105 94.9089 130.283C94.1059 127.117 95.7625 124.921 98.1626 123.059C98.7055 122.638 99.3438 122.329 99.8846 121.906C100.231 121.636 100.797 121.151 100.721 120.933C100.091 119.118 101.523 118.681 102.659 117.89C103.675 117.182 104.519 116.224 105.343 115.298C106.02 114.535 106.556 113.658 107.154 112.831C108.798 110.56 111.162 109.164 113.949 109.263C116.468 109.352 117.182 108.234 117.628 106.306C117.852 105.335 118.271 104.392 118.716 103.487C118.883 103.147 119.384 102.733 119.711 102.749C120.067 102.766 120.544 103.18 120.715 103.532C121.35 104.846 121.957 106.182 122.428 107.556C122.817 108.691 123.534 109.204 124.74 109.121C125.55 109.064 126.357 108.964 127.164 108.867C128.378 108.723 129.148 109.16 128.927 110.213C128.56 111.959 129.037 113.198 130.482 114.259C130.912 114.574 131.052 115.227 131.406 115.664C132.9 117.509 134.395 119.355 135.947 121.154C137.652 123.131 139.461 125.028 141.139 127.024C141.711 127.703 142.189 128.538 142.427 129.374C143.675 133.759 140.009 137.461 135.291 136.654C134.174 136.463 133.414 135.87 132.865 134.921C132.423 134.158 131.977 133.316 131.299 132.775C129.614 131.431 127.718 130.712 125.454 131.553C124.538 131.894 123.53 132.008 122.564 132.225C122.831 133.075 123.158 133.914 123.355 134.779C124.123 138.156 124.894 141.534 125.577 144.927C126.134 147.691 127.093 150.18 128.851 152.555C132.013 156.826 133.81 161.673 133.512 167.013C133.416 168.714 133.993 169.684 135.65 170.35C137.871 171.242 140.072 171.763 142.463 171.173C143.369 170.949 144.282 170.735 145.205 170.599C148.189 170.158 150.579 171.806 150.929 174.646C151.063 175.736 151.026 176.898 150.786 177.97C150.09 181.08 150.169 184.168 150.708 187.275C150.842 188.045 150.901 188.827 150.982 189.605C151.221 191.889 150.584 193.707 148.412 195.053C147.277 195.755 146.507 196.982 145.54 197.944C144.493 198.986 143.498 200.106 142.312 200.983C141.036 201.926 139.384 201.296 139.088 199.767C138.572 197.109 139.259 194.654 141.049 192.559C141.448 192.092 142.204 191.857 142.84 191.631C144.507 191.037 144.445 191.061 144.473 189.334C144.495 188.019 144.839 186.706 144.847 185.392C144.86 183.294 144.836 181.183 144.588 179.103C144.443 177.887 143.577 177.311 142.34 177.5C141.1 177.688 139.813 178.039 138.727 178.624C136.183 179.993 133.75 181.548 131.268 183.023C130.076 183.731 128.9 184.464 127.676 185.117C125.558 186.246 123.55 186.442 121.591 184.648C120.523 183.669 120.348 183.756 119.41 184.905C115.108 190.177 109.427 193.579 103.015 196C100.053 197.119 96.9988 197.731 93.7849 197.752C91.2181 197.769 88.644 197.965 86.0907 198.234C84.5942 198.393 83.1051 198.766 81.6614 199.192C79.5767 199.806 78.1103 200.968 77.2058 203.057C75.0516 208.031 71.319 211.859 66.7825 214.993C62.5939 217.888 58.0419 220.156 53.3486 222.202C51.8772 222.845 50.3714 223.584 49.1707 224.591C46.5426 226.799 45.4156 229.646 46.0462 232.914Z" fill="#F4B340"/>
<path d="M92.5918 101.847H129.352L110.972 119.43L92.5918 137.013V101.847Z" fill="black" fill-opacity="0.04"/>
<path d="M129.352 137.013L129.352 172.18L110.972 154.596L92.5918 137.013L129.352 137.013Z" fill="black" fill-opacity="0.04"/>
</g>
<path d="M19.0703 131.544H55.8301L37.4502 151.219L19.0703 170.893V131.544Z" fill="white" fill-opacity="0.07"/>
<path d="M129.35 131.544H166.109L147.73 151.219L129.35 170.893V131.544Z" fill="white" fill-opacity="0.07"/>
<path d="M55.8301 132.554L19.0703 132.554L37.4502 112.88L55.8301 93.2055L55.8301 132.554Z" fill="black" fill-opacity="0.04"/>
<path d="M92.5898 170.893L55.83 170.893L74.2099 151.219L92.5898 131.545L92.5898 170.893Z" fill="black" fill-opacity="0.04"/>
<path d="M55.8301 131.544L55.8301 92.1962L74.21 111.87L92.5899 131.544L55.8301 131.544Z" fill="white" fill-opacity="0.07"/>
<path d="M129.35 131.544L129.35 92.1962L147.73 111.87L166.109 131.544L129.35 131.544Z" fill="white" fill-opacity="0.07"/>
</g>
<path fill-rule="evenodd" clip-rule="evenodd" d="M271.374 35.3271C271.374 34.6216 271.523 33.3643 271.821 31.5546C271.894 31.2787 272.099 30.7834 272.438 30.0672L272.5 30.0366C272.51 30.0672 272.504 30.1487 272.484 30.2821L272.422 30.6807L272.16 32.5516C272.068 33.2158 272.022 33.7427 272.022 34.1309V34.3609C272.022 35.0355 272.294 35.373 272.839 35.373C273.013 35.373 273.168 35.1326 273.301 34.6525C273.332 34.5604 273.363 34.5144 273.394 34.5144C273.445 34.5144 273.47 34.565 273.47 34.6678C273.47 34.7396 273.451 34.867 273.409 35.051C273.132 36.3188 272.751 36.9526 272.269 36.9526C271.672 36.9526 271.374 36.411 271.374 35.3271ZM268.73 33.8636V34.1011C268.73 34.8535 269.037 35.2294 269.652 35.2294C269.848 35.2294 270.022 34.9612 270.174 34.426C270.208 34.3234 270.243 34.2721 270.278 34.2721C270.336 34.2721 270.365 34.3289 270.365 34.4431C270.365 34.5235 270.342 34.6654 270.295 34.8705C269.982 36.2842 269.553 36.9903 269.008 36.9903C268.335 36.9903 267.999 36.3865 267.999 35.1783L268.003 35.1703C268.004 35.0092 268.027 34.7091 268.073 34.2721L268.16 33.4343C268.16 33.4003 268.155 33.3776 268.142 33.3661C268.108 33.3544 267.986 33.4911 267.777 33.7765C267.708 33.8908 267.569 34.084 267.36 34.3576C266.606 35.3491 265.504 36.0963 264.054 36.5973C262.825 37.0299 261.485 37.2468 260.036 37.2468H259.775C258.604 37.2468 257.861 37.0642 257.548 36.6998C257.362 36.4829 257.27 36.1645 257.27 35.7426C257.27 34.6023 257.369 34.033 257.565 34.033C257.623 34.2839 257.734 34.5917 257.896 34.9561C258.209 35.298 258.969 35.4688 260.175 35.4688C260.813 35.4688 261.34 35.4517 261.758 35.4177C263.301 35.2924 264.616 34.9729 265.707 34.4604C267.156 33.7883 268.033 32.8414 268.334 31.6222L268.577 30.6477C268.589 30.5912 268.716 30.3006 268.96 29.7761C269.053 29.5827 269.209 29.3091 269.43 28.9553V29.2118C269.418 29.2578 269.378 29.4512 269.308 29.7929L268.943 31.5883C268.896 31.8157 268.844 32.2602 268.786 32.9215C268.752 33.3095 268.734 33.617 268.734 33.8446L268.73 33.8636ZM269.625 25.8161C269.656 25.9896 269.594 26.23 269.44 26.5366C269.255 26.8939 269.08 27.0734 268.916 27.0734C268.803 26.9815 268.638 26.8538 268.422 26.6899C268.206 26.5262 268.099 26.4141 268.099 26.3528L268.129 26.2913C268.191 26.1583 268.304 25.9127 268.468 25.5554C268.51 25.4737 268.612 25.2947 268.777 25.0187L268.839 24.9418C268.88 24.9832 268.952 25.0338 269.054 25.0952C269.25 25.238 269.367 25.3406 269.409 25.4017C269.522 25.5448 269.594 25.6828 269.625 25.8161ZM270.178 27.6818C270.456 27.3965 270.995 26.9348 271.796 26.2971L274.023 24.5361C274.452 24.1942 274.962 23.7549 275.554 23.2196C275.716 23.0712 276.175 22.6386 276.928 21.9205C277.728 21.1564 278.163 20.7354 278.233 20.6552C278.233 20.7118 278.221 20.7634 278.198 20.8091C278.047 21.493 277.415 22.382 276.302 23.4762C275.792 23.9772 275.02 24.6505 273.988 25.4934C273.941 25.5277 273.083 26.1889 271.413 27.4767L270.213 28.3998C269.726 28.7759 269.47 28.9467 269.447 28.9127C269.633 28.4115 269.877 28.0009 270.178 27.6818ZM255.972 42.2564C255.972 42.4816 255.906 42.6857 255.772 42.8698C255.545 43.1871 255.356 43.3452 255.201 43.3452C255.191 43.3452 255.058 43.2226 254.801 42.9771C254.543 42.7317 254.415 42.5986 254.415 42.5784C254.415 42.5371 254.543 42.2975 254.801 41.8579C255.027 41.4697 255.16 41.2752 255.201 41.2752C255.243 41.2752 255.345 41.3518 255.51 41.5052C255.818 41.8012 255.972 42.0524 255.972 42.2564ZM255.263 40.3243C255.263 40.5495 255.196 40.7538 255.063 40.9377C254.836 41.255 254.647 41.4133 254.492 41.4133C254.482 41.4133 254.349 41.2903 254.092 41.0451C253.835 40.7998 253.706 40.6665 253.706 40.6465C253.706 40.605 253.835 40.3654 254.092 39.9258C254.318 39.5376 254.451 39.343 254.492 39.343C254.534 39.343 254.636 39.4195 254.801 39.5731C255.109 39.8691 255.263 40.1203 255.263 40.3243ZM256.789 40.3243C256.789 40.5495 256.723 40.7538 256.588 40.9377C256.362 41.255 256.173 41.4133 256.018 41.4133C256.008 41.4133 255.875 41.2903 255.618 41.0451C255.36 40.7998 255.232 40.6665 255.232 40.6465C255.232 40.605 255.36 40.3654 255.618 39.9258C255.844 39.5376 255.977 39.343 256.018 39.343C256.06 39.343 256.162 39.4195 256.327 39.5731C256.635 39.8691 256.789 40.1203 256.789 40.3243ZM254.536 34.158L254.514 34.2341L254.556 34.158V34.388C254.556 35.0627 254.828 35.4002 255.373 35.4002C255.547 35.4002 255.701 35.1595 255.835 34.6794C255.866 34.5874 255.897 34.5414 255.928 34.5414C255.979 34.5414 256.005 34.5921 256.005 34.6947C256.005 34.7666 255.984 34.8939 255.943 35.0782C255.666 36.3461 255.285 36.9794 254.802 36.9794C254.206 36.9794 253.908 36.438 253.908 35.3542L253.909 35.3529C253.902 35.3535 253.896 35.3542 253.889 35.3542C253.889 34.6487 254.038 33.3911 254.336 31.5816C254.408 31.3056 254.613 30.8104 254.952 30.0943L255.014 30.0638C255.025 30.0943 255.019 30.1756 254.999 30.309L254.937 30.7078L254.675 32.5786C254.583 33.2427 254.536 33.7698 254.536 34.158ZM252.053 32.8394C252.053 33.1258 251.975 33.5799 251.822 34.2039L251.636 34.9554C251.472 35.4355 251.339 35.7575 251.236 35.9213C251.04 36.2482 250.789 36.4734 250.48 36.5962L249.926 36.8262C249.679 36.9288 249.437 36.9794 249.201 36.9794C249.15 36.9794 249.119 36.9595 249.109 36.9182C249.078 36.8262 249.221 36.6575 249.54 36.4121C249.643 36.3306 249.848 36.1716 250.157 35.9369C250.557 35.63 250.886 35.2514 251.143 34.8019C251.205 34.6996 251.339 34.3372 251.544 33.7131L251.729 33.1614C251.832 32.8441 251.914 32.6857 251.975 32.6857C252.027 32.7577 252.053 32.8088 252.053 32.8394ZM235.652 41.1424C235.683 41.3158 235.622 41.5563 235.467 41.8632C235.282 42.2205 235.108 42.3997 234.943 42.3997C234.831 42.3078 234.666 42.1803 234.45 42.0164C234.234 41.8523 234.126 41.7406 234.126 41.6791L234.157 41.6178C234.219 41.4846 234.332 41.2392 234.496 40.8815C234.538 40.8002 234.64 40.6212 234.804 40.3447L234.866 40.2684C234.908 40.3097 234.979 40.3603 235.082 40.4216C235.278 40.5644 235.395 40.6671 235.437 40.7285C235.549 40.871 235.622 41.0092 235.652 41.1424ZM237.24 41.0502C237.271 41.2239 237.209 41.4641 237.055 41.771C236.87 42.1286 236.696 42.3078 236.531 42.3078C236.418 42.2158 236.254 42.0882 236.038 41.9245C235.822 41.7604 235.714 41.6482 235.714 41.587L235.745 41.5256C235.806 41.3924 235.919 41.1471 236.084 40.7895C236.125 40.708 236.228 40.5289 236.392 40.2528L236.454 40.1762C236.495 40.2175 236.567 40.2684 236.67 40.3296C236.865 40.4724 236.983 40.5748 237.024 40.6364C237.137 40.7791 237.209 40.9172 237.24 41.0502ZM229.911 33.5396L229.919 33.4973V33.1392C229.919 32.4989 229.97 31.8414 230.073 31.1688C230.129 30.8319 230.231 30.1754 230.379 29.1983C230.481 28.5359 230.532 28.0583 230.532 27.7653C230.544 27.7 230.538 27.6626 230.515 27.6515C230.493 27.6626 230.476 27.6727 230.464 27.6838L229.766 29.4101L229.528 31.0385L229.392 32.3086C229.269 33.4516 229.207 34.2646 229.205 34.7448L229.192 34.7677C229.192 35.9513 229.572 36.5427 230.332 36.5427C230.616 36.5427 230.86 36.4339 231.064 36.2171C231.325 35.7937 231.518 35.473 231.643 35.256C231.961 34.7677 232.204 34.5235 232.374 34.5235C232.465 34.5235 232.578 34.5721 232.715 34.67C232.987 34.8654 233.634 35.0171 234.655 35.1259C235.472 35.2126 236.169 35.256 236.748 35.256L236.756 35.2443V35.2725C238.844 35.2725 240.897 35.0007 242.917 34.4584C244.097 34.144 245.533 33.5626 247.223 32.7157C248.334 32.1621 249.401 31.5321 250.422 30.8269L253.264 28.8725C253.57 28.6557 253.984 28.4606 254.506 28.2865C254.791 28.1885 255.057 27.917 255.306 27.4722C255.431 27.2442 255.505 27.0862 255.528 26.9998C255.539 26.9459 255.516 26.9184 255.459 26.9184C255.187 26.9948 255.006 27.0599 254.915 27.1138C254.518 27.2115 253.429 27.8355 251.647 28.9867C250.502 29.7246 249.776 30.1804 249.469 30.3545C247.495 31.473 245.577 32.2874 243.717 32.7971C242.56 33.1116 241.266 33.3346 239.837 33.4649C238.998 33.5413 238.276 33.579 237.675 33.579H237.165C236.983 33.579 236.847 33.5737 236.757 33.5626L236.748 33.5464C236.339 33.5464 235.735 33.4569 234.935 33.2777C234.136 33.0985 233.56 33.0088 233.208 33.0088C232.879 33.0088 232.476 33.3621 232 34.0676C231.83 34.317 231.716 34.4693 231.659 34.5235C231.501 34.665 231.285 34.7353 231.013 34.7353C230.366 34.7353 229.999 34.3369 229.911 33.5396ZM227.508 34.3778C227.405 34.8328 227.319 35.1621 227.251 35.3664C226.69 37.0712 225.765 38.2763 224.475 38.9804C223.972 39.2531 223.4 39.3897 222.761 39.3897C222.053 39.3897 221.505 39.1712 221.116 38.7335C220.727 38.2954 220.533 37.7189 220.533 37.003C220.533 35.878 221.018 34.4857 221.99 32.8265C222.104 32.634 222.19 32.5423 222.247 32.5538C222.269 32.5656 222.276 32.6273 222.264 32.7412C222.241 32.8553 222.218 32.9513 222.195 33.0313L221.63 34.2586C221.356 34.8499 221.219 35.3613 221.219 35.7925C221.219 36.9859 221.882 37.5825 223.206 37.5825C224.623 37.5825 225.742 36.9466 226.565 35.6733C226.827 35.2761 226.964 34.8157 226.976 34.2925L227.011 33.0652C227.022 32.7244 227.119 32.3207 227.302 31.855L227.645 31.1902C227.736 31.0078 227.811 30.8886 227.867 30.8319C227.924 30.8886 227.948 30.963 227.936 31.0538L227.85 31.6505L227.765 32.5027C227.765 33.0025 227.679 33.6277 227.508 34.3778ZM225.2 33.5057C225.21 33.5469 225.215 33.6026 225.215 33.6743C225.215 33.8584 225.154 34.0377 225.03 34.211C224.784 34.5592 224.603 34.7431 224.491 34.7633C224.471 34.7633 224.424 34.7371 224.352 34.6865C224.116 34.5226 223.993 34.4307 223.982 34.4105C223.828 34.3081 223.74 34.257 223.72 34.257C223.617 34.1853 223.561 34.1142 223.55 34.0425L223.905 33.2451C224.018 33.0505 224.116 32.8925 224.198 32.7696L224.29 32.6316C224.363 32.6624 224.471 32.719 224.614 32.8003C224.788 32.9335 224.912 33.035 224.984 33.1072C225.118 33.2402 225.189 33.3725 225.2 33.5057ZM273.074 40.4926C273.105 40.6663 273.043 40.9068 272.889 41.2134C272.705 41.571 272.53 41.7502 272.365 41.7502C272.252 41.6583 272.088 41.5306 271.872 41.3669C271.656 41.203 271.548 41.0909 271.548 41.0294L271.579 40.968C271.641 40.8348 271.753 40.5897 271.918 40.2321C271.959 40.1507 272.062 39.9715 272.227 39.6955L272.288 39.6189C272.33 39.6599 272.401 39.7108 272.504 39.7721C272.7 39.9148 272.817 40.0175 272.858 40.0787C272.971 40.2215 273.043 40.3597 273.074 40.4926Z" fill="#050407"/>
<path fill-rule="evenodd" clip-rule="evenodd" d="M292.312 29.8794C292.118 28.5712 291.89 28.1489 291.105 27.0444C292.16 25.4976 292.754 23.3458 293.175 21.5418C293.602 23.3721 294.177 25.479 295.244 27.0444C294.459 28.1489 294.232 28.5712 294.038 29.8794C293.509 29.3847 292.841 29.3847 292.312 29.8794Z" fill="#050407"/>
<path fill-rule="evenodd" clip-rule="evenodd" d="M291.916 42.8738V36.5783C288.823 35.3182 288.403 33.3665 288.403 30.533C289.65 31.0372 290.105 31.5868 290.677 32.5041C290.83 31.6693 291.038 31.0464 291.5 30.3647C292.99 31.8848 292.931 36.3168 292.931 36.9968C292.931 39.3311 292.931 41.6656 292.931 44H282.352C282.352 38.759 282.352 33.5181 282.352 28.2771C282.352 26.7566 282.679 24.3225 284.567 23.9805L285.066 24.6525C283.251 25.2941 283.336 27.6765 283.336 29.2673V42.8738H291.916Z" fill="#96121B"/>
<path fill-rule="evenodd" clip-rule="evenodd" d="M289.304 30.3718C288.353 29.0944 287.673 29.9674 287.703 31.666C287.084 26.7005 285.918 24.1729 283.266 22.0349C286.726 22.672 289.471 25.0675 291.418 29.7503C290.62 29.3786 289.495 29.3268 289.304 30.3718Z" fill="#050407"/>
<path fill-rule="evenodd" clip-rule="evenodd" d="M288.178 23.8413C288.217 22.9345 288.631 21.6543 288.261 21.0172C287.914 20.4199 287.191 20.707 286.877 20.9934C285.994 20.7643 285.369 21.5996 285.86 22.2168C286.422 22.9233 287.271 22.9417 288.178 23.8413Z" fill="#050407"/>
<path fill-rule="evenodd" clip-rule="evenodd" d="M291.684 24.3519L290.565 26.6948C289.935 25.6838 289.453 25.0575 288.639 24.2612C288.963 23.3387 289.228 22.237 289.25 21.2968C289.921 22.3842 290.731 23.4408 291.684 24.3519Z" fill="#96121B"/>
<path fill-rule="evenodd" clip-rule="evenodd" d="M291.774 23.6162C291.394 22.8613 290.376 22.0559 289.964 21.2633C289.733 20.8179 289.902 20.0807 291.052 20.27C291.308 19.8405 292.187 19.9381 292.379 20.4585C292.749 21.4622 292.123 22.7945 291.774 23.6162Z" fill="#050407"/>
<path fill-rule="evenodd" clip-rule="evenodd" d="M294.433 42.8738V36.5783C297.526 35.3182 297.946 33.3665 297.946 30.533C296.699 31.0372 296.244 31.5868 295.672 32.5041C295.519 31.6693 295.311 31.0464 294.849 30.3647C293.36 31.8848 293.418 36.3168 293.418 36.9968C293.418 39.3311 293.418 41.6656 293.418 44H303.998C303.998 38.759 303.998 33.5181 303.998 28.2771C303.998 26.7566 303.67 24.3225 301.782 23.9805L301.283 24.6525C303.098 25.2941 303.013 27.6765 303.013 29.2673V42.8738H294.433Z" fill="#96121B"/>
<path fill-rule="evenodd" clip-rule="evenodd" d="M297.046 30.3718C297.997 29.0944 298.676 29.9674 298.647 31.666C299.266 26.7005 300.432 24.1729 303.084 22.0349C299.624 22.672 296.879 25.0675 294.932 29.7503C295.73 29.3786 296.855 29.3268 297.046 30.3718Z" fill="#050407"/>
<path fill-rule="evenodd" clip-rule="evenodd" d="M298.171 23.8413C298.132 22.9345 297.718 21.6543 298.088 21.0172C298.435 20.4199 299.158 20.707 299.472 20.9934C300.355 20.7643 300.98 21.5996 300.489 22.2168C299.927 22.9233 299.078 22.9417 298.171 23.8413Z" fill="#050407"/>
<path fill-rule="evenodd" clip-rule="evenodd" d="M294.668 24.3519L295.787 26.6948C296.417 25.6838 296.899 25.0575 297.713 24.2612C297.388 23.3387 297.124 22.237 297.101 21.2968C296.431 22.3842 295.62 23.4408 294.668 24.3519Z" fill="#96121B"/>
<path fill-rule="evenodd" clip-rule="evenodd" d="M294.577 23.6162C294.958 22.8613 295.975 22.0559 296.387 21.2633C296.618 20.8179 296.45 20.0807 295.3 20.27C295.044 19.8405 294.165 19.9381 293.973 20.4585C293.602 21.4622 294.229 22.7945 294.577 23.6162Z" fill="#050407"/>
</g>
<defs>
<linearGradient id="paint0_linear_5110_21208" x1="336.713" y1="198.134" x2="-37.488" y2="201.656" gradientUnits="userSpaceOnUse">
<stop stop-color="#9D9049"/>
<stop offset="1" stop-color="#F09C39"/>
</linearGradient>
<clipPath id="clip0_5110_21208">
<rect width="320" height="172" rx="12" fill="white"/>
</clipPath>
<clipPath id="clip1_5110_21208">
<rect width="102.739" height="77.6875" fill="white" transform="matrix(1 0 0 -1 -16.7461 170.893)"/>
</clipPath>
<clipPath id="clip2_5110_21208">
<rect width="100.854" height="74.6607" fill="white" transform="matrix(1 0 0 -1 142.547 170.893)"/>
</clipPath>
<clipPath id="clip3_5110_21208">
<rect width="89.5431" height="78.6964" fill="white" transform="matrix(1 0 0 -1 240.572 170.893)"/>
</clipPath>
<clipPath id="clip4_5110_21208">
<rect width="152.695" height="83.7411" fill="white" transform="matrix(1 0 0 -1 6.81836 170.893)"/>
</clipPath>
</defs>
</svg>
