<svg width="320" height="180" viewBox="0 0 320 180" fill="none" xmlns="http://www.w3.org/2000/svg">
<rect width="320" height="180" rx="12" fill="black"/>
<g clip-path="url(#clip0_4836_17635)">
<path fill-rule="evenodd" clip-rule="evenodd" d="M283 28.3145V34.6432C283 35.2004 282.348 35.741 281.775 35.741H276.027V26.8674L278.094 25.1182V32.9855H280.939V30.1662L283.006 28.3145H283ZM255.558 28.3145V34.6432C255.558 35.2004 254.906 35.741 254.333 35.741H248.585V26.8674L250.652 25.1182V32.9855H253.497V30.1662L255.564 28.3145H255.558ZM225.228 26.0025L221.55 29.4787L223.379 31.2806C223.758 31.6466 224.057 32.0152 224.257 32.3812C224.548 32.9134 224.517 33.5482 224.181 34.0666C223.732 34.7597 222.547 35.7465 222.146 35.7465H217.135C215.371 35.8158 215.501 35.5663 215.506 34.3327V26.8674L217.573 25.1182V32.9855H221.293C222.03 32.7665 221.968 32.3618 221.361 31.8295L218.798 29.5924L222.64 25.9803L225.228 26.0025ZM271.059 26.0025L267.381 29.4787L269.21 31.2806C269.794 31.8489 270.192 32.4172 270.322 32.9883H272.6V29.8474L274.667 28.3172V34.646C274.667 35.2032 274.015 35.7438 273.442 35.7438H270.195V33.5427L270.184 33.5815C270.288 34.1304 268.49 35.7438 267.976 35.7438H258.604C257.819 35.522 257.246 35.0812 256.975 34.33V29.8253L259.042 28.076V32.9855H267.124C267.861 32.7665 267.798 32.3618 267.192 31.8295L264.628 29.5924L268.47 25.9803L271.059 26.0025ZM247.501 28.3145V34.6432C247.501 35.2004 246.849 35.741 246.276 35.741H242.863L242.798 34.6654C242.784 34.4686 242.705 34.4519 242.558 34.6183L241.638 35.741H238.067L238.002 34.6654C237.988 34.4686 237.909 34.4519 237.762 34.6183L236.842 35.741H231.137V26.8674L233.531 25.1376V33.0077L235.91 32.9883L235.891 30.2244L237.957 28.3422V32.9855L240.709 33.0437L240.69 30.2272L242.756 28.3449V32.9855H245.328V30.1662L247.507 28.3145H247.501ZM229.915 28.3145V34.6432C229.915 35.2004 229.262 35.741 228.689 35.741H225.426V32.9827H227.851V30.1635L229.917 28.3117L229.915 28.3145ZM218.445 27.2555L221.316 24.7689H222.967L218.425 28.5473C218.425 28.5473 218.462 27.2583 218.445 27.2583V27.2555ZM208.113 26.7427V29.3346L211.777 31.9709L211.822 32.7609L208 32.7831V35.705H212.401C213.364 35.3418 213.99 34.7486 214.278 33.9252L214.323 31.8822L208.737 26.787C208.737 26.787 208.133 26.7205 208.11 26.7427H208.113ZM246.765 37.7231L248.574 35.9461L250.384 37.7231L248.574 39.5L246.765 37.7231ZM250.313 37.7231L252.123 35.9461L253.932 37.7231L252.123 39.5L250.313 37.7231ZM253.864 37.7231L255.674 35.9461L257.483 37.7231L255.674 39.5L253.864 37.7231ZM277.639 37.7231L279.449 35.9461L281.258 37.7231L279.449 39.5L277.639 37.7231ZM271.592 26.2769L273.402 24.5L275.212 26.2769L273.402 28.0539L271.592 26.2769Z" fill="white"/>
</g>
<path d="M286.609 20.0089C288.97 19.991 291.332 20.0065 293.693 20.0012C294.97 20.007 296.247 19.9905 297.524 20.0094C297.503 20.1386 297.477 20.2663 297.452 20.3945C293.86 20.4013 290.268 20.4018 286.676 20.3945C286.65 20.2668 286.627 20.1386 286.609 20.0094M286.713 20.6021C286.967 20.5866 287.221 20.592 287.475 20.5924C290.552 20.5924 293.629 20.5924 296.707 20.5924C296.944 20.5915 297.181 20.589 297.418 20.6002C297.236 21.7324 297.065 22.866 296.889 23.9991C296.492 23.9841 296.203 23.5995 296.165 23.2235C296.268 23.0658 296.42 22.9347 296.47 22.7455C296.518 22.5558 296.53 22.3589 296.574 22.1683C296.624 21.9472 296.746 21.7517 296.804 21.533C296.73 21.562 296.655 21.5949 296.595 21.6506C296.391 21.8315 296.195 22.0251 296.031 22.2462C295.787 21.9777 295.539 21.7057 295.245 21.4914C295.229 21.6811 295.368 21.8311 295.417 22.0052C295.524 22.268 295.489 22.5655 295.604 22.8253C295.668 22.9724 295.786 23.0837 295.864 23.2221C295.845 23.5496 295.621 23.869 295.308 23.9774C295.006 24.0519 294.649 24.0214 294.423 23.7829C294.255 23.6343 294.255 23.3687 294.064 23.2429C293.998 23.5787 294.223 23.8859 294.489 24.0582C294.949 24.3504 295.637 24.1931 295.891 23.6958C296.022 23.524 295.975 23.3058 295.986 23.1055C296.024 23.1427 296.072 23.1727 296.099 23.2206C296.085 23.3658 296.04 23.524 296.127 23.6566C296.264 23.9488 296.552 24.124 296.851 24.2062C296.837 24.301 296.825 24.3959 296.811 24.4902C294.353 24.5043 291.894 24.4922 289.436 24.4965C288.732 24.4897 288.028 24.5105 287.324 24.4859C287.31 24.3881 287.295 24.2909 287.281 24.1931C287.525 24.0823 287.769 23.9367 287.896 23.6885C287.998 23.5409 287.972 23.3561 287.931 23.1921C287.973 23.1669 288.015 23.1418 288.057 23.1171C288.051 23.2898 288.019 23.4771 288.115 23.6329C288.269 23.9749 288.632 24.2144 289.005 24.1999C289.504 24.2343 290.024 23.7819 289.98 23.2603C289.95 23.2714 289.888 23.2942 289.857 23.3053C289.774 23.6004 289.589 23.8927 289.283 23.9822C289.037 24.0282 288.754 24.0393 288.543 23.8806C288.309 23.7224 288.183 23.4437 288.158 23.166C288.275 23.0779 288.383 22.97 288.436 22.8292C288.546 22.58 288.517 22.2965 288.61 22.042C288.668 21.8586 288.77 21.6932 288.819 21.5064C288.749 21.5364 288.678 21.5664 288.623 21.6196C288.405 21.817 288.2 22.028 288.005 22.2486C287.789 21.9777 287.555 21.7028 287.25 21.532C287.29 21.7532 287.408 21.9481 287.463 22.1644C287.517 22.3667 287.522 22.5791 287.58 22.7799C287.635 22.954 287.78 23.0731 287.875 23.2231C287.84 23.5748 287.59 23.9009 287.249 23.9996C287.069 22.8674 286.88 21.7362 286.713 20.6021ZM287.95 20.9853C287.907 21.1842 287.944 21.3874 287.937 21.5882C287.871 21.4546 287.857 21.2882 287.756 21.1764C287.715 21.1735 287.634 21.1682 287.593 21.1658C287.586 21.3971 287.759 21.5693 287.895 21.7343C287.945 21.7086 287.997 21.6835 288.048 21.6583C288.082 21.473 288.145 21.2892 288.135 21.0985C288.133 20.9979 288.018 21.0119 287.95 20.9853ZM289.903 21.0932C289.907 21.2906 289.958 21.4851 289.953 21.684C289.983 21.6849 290.041 21.6869 290.071 21.6878C290.065 21.4885 290.106 21.2925 290.112 21.0947C290.115 20.9679 289.91 20.9698 289.903 21.0932ZM291.922 20.9989C291.859 21.2185 291.925 21.4425 291.97 21.6583C292.023 21.6806 292.076 21.7033 292.129 21.7265C292.273 21.5732 292.437 21.4 292.432 21.1735C292.387 21.1716 292.298 21.1682 292.253 21.1663C292.192 21.3206 292.138 21.4779 292.078 21.6327C292.081 21.4266 292.102 21.2209 292.098 21.0143C292.039 21.0105 291.98 21.0051 291.922 20.9989ZM293.939 20.9906C293.865 21.218 293.975 21.4483 293.971 21.6786C294.05 21.6757 294.153 21.7391 294.212 21.6612C294.329 21.5267 294.428 21.3704 294.469 21.1943C294.426 21.1837 294.34 21.1614 294.298 21.1503C294.201 21.3003 294.16 21.4759 294.09 21.6385C294.078 21.4566 294.117 21.278 294.126 21.0976C294.116 20.9989 294.01 21.0129 293.939 20.9906ZM295.912 21.0172C295.899 21.2355 295.953 21.4479 295.992 21.6607C296.043 21.6888 296.095 21.7169 296.146 21.7454C296.284 21.5848 296.419 21.4125 296.47 21.2016C296.418 21.1808 296.366 21.16 296.314 21.1392C296.207 21.2727 296.174 21.445 296.101 21.5964C296.085 21.3951 296.136 21.1924 296.093 20.9931C296.032 21.0013 295.972 21.009 295.912 21.0172ZM288.119 21.712C288.308 21.6066 288.426 21.3937 288.455 21.1803C288.411 21.175 288.322 21.1634 288.278 21.1576C288.194 21.3317 288.12 21.5146 288.119 21.712ZM289.566 21.1905C289.63 21.398 289.727 21.6254 289.929 21.729C289.901 21.5262 289.854 21.3225 289.738 21.1508C289.695 21.1605 289.609 21.1803 289.566 21.1905ZM290.24 21.2224C290.157 21.3792 290.121 21.5558 290.09 21.7295C290.288 21.6162 290.411 21.3961 290.454 21.175C290.385 21.1827 290.273 21.1314 290.24 21.2224ZM291.57 21.1822C291.607 21.3908 291.716 21.6027 291.903 21.7106C291.912 21.5122 291.83 21.3303 291.744 21.1576C291.701 21.1638 291.614 21.1759 291.57 21.1822ZM293.581 21.173C293.626 21.3767 293.718 21.6467 293.941 21.7014C293.909 21.5388 293.873 21.3733 293.796 21.2258C293.763 21.1377 293.649 21.1851 293.581 21.173ZM295.582 21.1798C295.62 21.3908 295.732 21.6041 295.921 21.712C295.922 21.5146 295.853 21.3288 295.763 21.1571C295.717 21.1629 295.627 21.1745 295.582 21.1798ZM287.392 21.2645C287.359 21.3196 287.327 21.3748 287.294 21.43C287.446 21.6017 287.618 21.759 287.823 21.864C287.729 21.6346 287.6 21.4058 287.392 21.2645ZM288.55 21.2993C288.427 21.4769 288.283 21.6482 288.229 21.863C288.401 21.7459 288.578 21.624 288.709 21.459C288.713 21.4043 288.714 21.3496 288.713 21.2945C288.658 21.2959 288.604 21.2974 288.55 21.2993ZM289.305 21.293C289.306 21.3825 289.323 21.4706 289.365 21.5495C289.317 21.5495 289.268 21.5485 289.219 21.548C289.3 21.7561 289.406 21.9549 289.46 22.1726C289.501 22.3647 289.507 22.5631 289.566 22.7513C289.613 22.9303 289.745 23.0653 289.861 23.2023C289.954 23.1814 290.051 23.1781 290.145 23.1993C290.243 23.105 290.345 23.0087 290.404 22.8829C290.512 22.6633 290.506 22.4121 290.561 22.178C290.612 21.9535 290.731 21.7536 290.795 21.5335C290.466 21.6767 290.257 21.9951 290.01 22.2447C289.817 22.0014 289.563 21.8156 289.38 21.5635C289.515 21.6428 289.631 21.7488 289.753 21.8456C289.754 21.817 289.756 21.7599 289.756 21.7319C289.675 21.5795 289.579 21.4324 289.461 21.3075C289.409 21.3003 289.357 21.2954 289.305 21.293ZM290.551 21.2979C290.424 21.4609 290.298 21.6288 290.223 21.8248C290.406 21.7585 290.558 21.6274 290.684 21.4803C290.739 21.4275 290.687 21.3525 290.679 21.2916C290.647 21.293 290.583 21.2959 290.551 21.2979ZM291.316 21.2916C291.31 21.3245 291.298 21.3908 291.292 21.4237C291.326 21.473 291.361 21.5224 291.396 21.5717C291.329 21.5577 291.264 21.5432 291.198 21.5296C291.296 21.7725 291.421 22.0067 291.473 22.2655C291.509 22.4412 291.496 22.6279 291.572 22.7934C291.639 22.9657 291.78 23.0958 291.845 23.2681C291.802 23.5825 291.589 23.8704 291.29 23.9783C291.022 24.0393 290.708 24.0349 290.489 23.8453C290.281 23.6929 290.224 23.4292 290.101 23.2163C290.061 23.3058 290.018 23.4035 290.055 23.5022C290.149 23.8225 290.42 24.0804 290.736 24.1723C291.021 24.2323 291.338 24.2067 291.578 24.0262C291.79 23.899 291.882 23.6585 292.01 23.4577C292.122 23.6745 292.233 23.9111 292.45 24.0398C292.684 24.2067 292.985 24.2251 293.259 24.1801C293.578 24.1027 293.852 23.8559 293.96 23.5424C293.995 23.4084 293.969 23.269 293.966 23.1331C294.041 23.1602 294.136 23.2487 294.2 23.1529C294.448 22.9545 294.507 22.6255 294.541 22.3265C294.569 22.0464 294.711 21.7991 294.809 21.5408C294.757 21.5466 294.706 21.5524 294.655 21.5587C294.68 21.5011 294.706 21.4435 294.732 21.3859C294.719 21.3642 294.694 21.3201 294.68 21.2984C294.652 21.2964 294.596 21.293 294.569 21.2911C294.435 21.4503 294.308 21.6201 294.243 21.8214C294.386 21.7536 294.507 21.6516 294.639 21.5654C294.604 21.6651 294.52 21.7314 294.446 21.8001C294.295 21.937 294.156 22.0885 294.024 22.2443C293.853 22.0425 293.648 21.8722 293.49 21.6588C293.599 21.7246 293.704 21.7977 293.813 21.864C293.753 21.6482 293.603 21.4793 293.48 21.2988C293.424 21.2974 293.368 21.2954 293.312 21.294C293.319 21.3946 293.345 21.4914 293.39 21.5814C293.328 21.5504 293.266 21.5199 293.204 21.4904C293.272 21.7028 293.388 21.8959 293.447 22.1117C293.524 22.356 293.502 22.6255 293.616 22.8597C293.679 22.9986 293.804 23.0973 293.867 23.2356C293.828 23.6009 293.547 23.9662 293.169 24.003C292.959 24.0228 292.729 24.018 292.549 23.8922C292.325 23.7601 292.205 23.508 292.147 23.2622C292.13 23.164 292.234 23.1123 292.283 23.0436C292.461 22.8611 292.489 22.5931 292.525 22.3521C292.552 22.0628 292.693 21.8044 292.799 21.5398C292.747 21.5456 292.696 21.5514 292.644 21.5572C292.673 21.4962 292.702 21.4358 292.731 21.3753C292.679 21.3477 292.631 21.2756 292.565 21.3027C292.393 21.4479 292.281 21.6516 292.202 21.8606C292.343 21.7701 292.475 21.668 292.609 21.5664C292.609 21.5858 292.611 21.6245 292.612 21.6433C292.384 21.8127 292.177 22.0125 292.012 22.2467C291.82 22.0149 291.588 21.8204 291.397 21.5887C291.538 21.6724 291.664 21.7778 291.801 21.8673C291.741 21.6506 291.589 21.4827 291.468 21.3008C291.417 21.2979 291.366 21.2945 291.316 21.2916ZM295.324 21.2925C295.322 21.3482 295.323 21.4038 295.326 21.459C295.462 21.622 295.636 21.7503 295.812 21.8659C295.763 21.6462 295.6 21.4846 295.485 21.2993C295.431 21.2969 295.378 21.295 295.324 21.2925ZM296.218 21.8611C296.413 21.7454 296.59 21.6017 296.741 21.4314C296.708 21.3762 296.675 21.3206 296.644 21.265C296.435 21.4043 296.315 21.6356 296.218 21.8611ZM287.821 21.8577C287.87 21.9622 287.943 22.0517 288.037 22.1194C288.091 22.0531 288.152 21.9907 288.188 21.9123C288.168 21.8533 288.143 21.7904 288.091 21.7532C287.986 21.7241 287.903 21.8083 287.821 21.8577ZM289.909 21.7362C289.893 21.8078 289.839 21.878 289.857 21.9535C289.901 22.0193 289.958 22.0764 290.011 22.1354C290.067 22.0498 290.177 21.9767 290.175 21.8659C290.135 21.7478 290.011 21.7474 289.909 21.7362ZM291.809 21.9075C291.867 21.9762 291.925 22.0449 291.983 22.1136C292.058 22.0507 292.129 21.9835 292.197 21.9138C292.133 21.848 292.091 21.713 291.977 21.7517C291.894 21.7575 291.863 21.8567 291.809 21.9075ZM293.909 21.7894C293.785 21.8973 293.924 22.0299 293.991 22.1218C294.066 22.0551 294.137 21.9854 294.207 21.9143C294.151 21.8054 294.022 21.6728 293.909 21.7894ZM295.893 21.8122C295.791 21.9269 295.936 22.0304 296.001 22.117C296.073 22.0493 296.143 21.9786 296.213 21.907C296.147 21.802 295.992 21.6612 295.893 21.8122ZM287.39 24.7176C287.481 24.7104 287.573 24.7041 287.666 24.7026C290.328 24.7031 292.992 24.7026 295.655 24.7026C296.019 24.7104 296.384 24.6838 296.747 24.721C296.751 24.7554 296.759 24.8241 296.763 24.8584C293.634 24.8623 290.504 24.8618 287.375 24.8589C287.379 24.8236 287.386 24.7529 287.39 24.7176ZM287.396 24.9804C290.511 24.9799 293.625 24.9774 296.739 24.9818C296.363 27.3386 296.007 29.6982 295.638 32.056C295.456 32.9409 295.379 33.8863 295.674 34.7558C295.853 35.3161 296.271 35.8062 296.818 36.0205C297.239 36.1831 297.637 36.4304 297.924 36.7869C298.079 36.9843 298.2 37.2292 298.177 37.4885C298.173 37.7319 297.981 37.9419 297.757 38.0077C297.525 38.0493 297.277 38.0556 297.06 37.9544C296.514 37.7527 295.872 37.6424 295.337 37.9361C294.992 38.1059 294.753 38.4915 294.812 38.8849C294.902 39.4921 295.44 39.989 296.035 40.0649C298.644 40.0674 301.254 40.062 303.863 40.0674C303.862 40.2241 303.863 40.3809 303.864 40.5376C302.993 40.5647 302.122 40.5415 301.251 40.5493C296.191 40.5464 291.131 40.5555 286.072 40.5449C286.066 40.3852 286.066 40.2251 286.077 40.0659C288.265 40.0644 290.453 40.0659 292.641 40.0654C292.891 40.062 293.144 40.0838 293.391 40.0349C293.346 40.0069 293.297 39.9866 293.246 39.974C292.137 39.8341 291.115 39.2105 290.418 38.3357C289.639 37.3729 289.221 36.1676 288.987 34.9605C288.447 31.6346 287.937 28.3058 287.396 24.9804ZM291.498 27.7131C291.495 28.1456 291.479 28.5782 291.489 29.0102C291.692 28.9681 291.897 28.9391 292.103 28.9207C292.235 28.5646 292.35 28.2022 292.484 27.8471C292.53 27.7406 292.553 27.6023 292.458 27.5147C292.301 27.371 292.07 27.3976 291.873 27.3991C291.697 27.3957 291.481 27.5069 291.498 27.7131ZM290.403 27.9177C290.318 28.0242 290.35 28.1674 290.41 28.2777C290.568 28.5985 290.719 28.9236 290.876 29.2454C291.056 29.1815 291.224 29.0891 291.397 29.0088C291.379 28.583 291.396 28.1558 291.367 27.731C291.34 27.5428 291.115 27.5844 290.981 27.6018C290.768 27.6545 290.545 27.7416 290.403 27.9177ZM292.791 27.6187C292.672 27.6734 292.641 27.8084 292.598 27.9201C292.485 28.255 292.342 28.5796 292.241 28.9193C292.422 28.9618 292.603 29.0064 292.786 29.0412C293.003 28.8152 293.17 28.5486 293.372 28.3106C293.47 28.1925 293.591 28.0503 293.526 27.8853C293.401 27.6255 293.051 27.4973 292.791 27.6187ZM293.571 28.27C293.338 28.524 293.142 28.8109 292.924 29.0784C293.043 29.1955 293.158 29.3189 293.262 29.45C293.533 29.3088 293.803 29.1655 294.069 29.0146C294.217 28.9309 294.359 28.7736 294.335 28.5907C294.283 28.4045 294.155 28.2395 293.992 28.1384C293.841 28.0784 293.673 28.1504 293.571 28.27ZM289.772 28.3938C289.597 28.5462 289.548 28.7828 289.538 29.0049C289.819 29.2749 290.131 29.5105 290.408 29.7849C290.534 29.6431 290.654 29.4955 290.778 29.3533C290.651 28.9681 290.44 28.6198 290.276 28.2506C290.102 28.2598 289.915 28.2845 289.772 28.3938ZM288.975 29.7244C289.098 29.854 289.276 29.9102 289.432 29.991C289.686 30.1003 289.918 30.2638 290.188 30.3326C290.249 30.1884 290.305 30.0418 290.358 29.8937C290.142 29.6871 289.906 29.5033 289.686 29.3015C289.58 29.2178 289.481 29.1026 289.34 29.0862C289.024 29.0378 288.832 29.4762 288.975 29.7244ZM291.347 29.2599C291.163 29.3479 291.184 29.5913 291.252 29.7505C291.363 30.0113 291.548 30.2547 291.789 30.4017C291.936 30.3848 292.068 30.305 292.207 30.2556C292.193 30.0011 292.076 29.764 292.084 29.5071C292.084 29.3828 292.08 29.258 292.063 29.1346C291.821 29.1418 291.571 29.1617 291.347 29.2599ZM292.243 29.198C292.218 29.5473 292.175 29.9523 292.405 30.2455C292.565 30.275 292.728 30.2542 292.889 30.2503C292.901 30.0035 292.977 29.7684 293.094 29.5526C292.912 29.272 292.56 29.168 292.243 29.198ZM290.461 30.0587C290.403 30.2319 290.57 30.3737 290.692 30.4666C290.93 30.6233 291.196 30.7874 291.489 30.7835C291.57 30.7027 291.631 30.605 291.7 30.5135C291.552 30.3558 291.382 30.2169 291.263 30.0345C291.153 29.869 291.065 29.6915 290.965 29.5202C290.71 29.586 290.556 29.8269 290.461 30.0587ZM288.885 30.0103C288.74 30.1003 288.704 30.2818 288.686 30.4395C288.673 30.5469 288.682 30.6819 288.784 30.7438C289.071 30.8585 289.386 30.8469 289.683 30.9151C289.83 30.949 289.981 30.9707 290.13 30.994C290.134 30.8246 290.144 30.6558 290.149 30.4869C289.853 30.3413 289.55 30.2111 289.247 30.08C289.133 30.0369 289.01 29.9716 288.885 30.0103ZM290.381 30.3688C290.29 30.6301 290.303 30.9151 290.362 31.1817C290.395 31.306 290.447 31.441 290.562 31.5092C290.874 31.5446 291.181 31.4584 291.491 31.4468C291.484 31.2664 291.483 31.0854 291.487 30.9049C291.082 30.8212 290.668 30.6882 290.381 30.3688ZM291.914 30.6093C291.699 30.7762 291.629 31.0791 291.691 31.3385C291.727 31.5151 291.849 31.6544 291.968 31.7826C292.186 32.0158 292.382 32.2679 292.6 32.5006C293.407 33.3522 294.202 34.2613 294.649 35.3669C294.967 36.1928 295.048 37.0937 295.035 37.9738C295.194 37.8644 295.354 37.7474 295.545 37.7028C295.808 37.6191 296.087 37.6404 296.356 37.6753C296.177 37.2616 296.103 36.8135 295.979 36.3825C295.706 35.4854 295.389 34.5947 294.928 33.777C294.376 32.895 293.679 32.1116 293.175 31.1972C293.038 30.9528 292.961 30.6799 292.899 30.4075C292.562 30.3703 292.196 30.4003 291.914 30.6093ZM288.933 31.0748C288.79 31.2136 288.798 31.4391 288.829 31.6215C288.877 31.7768 289.065 31.7681 289.194 31.7695C289.596 31.7526 289.997 31.755 290.399 31.7546C290.303 31.547 290.193 31.3457 290.132 31.1236C289.854 31.0709 289.572 31.0544 289.29 31.0336C289.171 31.0298 289.041 31.0119 288.933 31.0748ZM290.73 31.6408C290.556 31.8562 290.82 32.2079 291.073 32.1416C291.342 32.1145 291.6 32.024 291.867 31.9849C291.752 31.8402 291.646 31.6878 291.519 31.5538C291.252 31.5267 290.995 31.6326 290.73 31.6408ZM289.672 31.9162C289.481 31.9336 289.278 31.9258 289.103 32.0192C289.018 32.0453 289.027 32.1431 289.04 32.2127C289.078 32.3652 289.184 32.4929 289.312 32.5771C289.796 32.5403 290.267 32.4048 290.731 32.266C290.614 32.1305 290.526 31.9752 290.427 31.8276C290.172 31.8218 289.925 31.8987 289.672 31.9162ZM291.178 32.2437C291.103 32.2679 290.999 32.311 291.017 32.4092C291.025 32.6264 291.249 32.8412 291.47 32.7667C291.757 32.6898 292.05 32.6288 292.326 32.5151C292.219 32.3661 292.102 32.2258 291.975 32.0932C291.706 32.1242 291.443 32.191 291.178 32.2437ZM289.849 32.6424C289.725 32.6845 289.564 32.6855 289.487 32.8098C289.46 32.9695 289.559 33.133 289.692 33.2128C289.807 33.2999 289.946 33.2119 290.067 33.1867C290.411 33.0725 290.762 32.9811 291.109 32.8751C290.958 32.7585 290.844 32.6027 290.793 32.4169C290.473 32.4643 290.166 32.5766 289.849 32.6424ZM291.748 32.8108C291.652 32.8437 291.504 32.8771 291.508 33.0067C291.482 33.1659 291.613 33.3077 291.75 33.3619C291.89 33.3657 292.018 33.2985 292.152 33.268C292.381 33.1964 292.623 33.1635 292.841 33.0575C292.709 32.9254 292.61 32.7469 292.444 32.6569C292.205 32.6695 291.978 32.7522 291.748 32.8108ZM290.368 33.2423C290.237 33.283 290.079 33.2869 289.986 33.404C289.909 33.6135 290.109 33.8805 290.331 33.8147C290.744 33.6996 291.156 33.5825 291.562 33.4446C291.39 33.3527 291.313 33.1717 291.284 32.9864C290.974 33.0561 290.673 33.1557 290.368 33.2423ZM292.055 33.4136C291.905 33.5259 291.972 33.7765 292.112 33.867C292.247 33.9212 292.396 33.88 292.532 33.8462C292.782 33.7673 293.034 33.6909 293.286 33.6168C293.185 33.4519 293.056 33.3082 292.916 33.1785C292.63 33.2622 292.341 33.3323 292.055 33.4136ZM290.593 33.8665C290.398 33.8975 290.41 34.1529 290.509 34.2763C290.599 34.4118 290.782 34.3774 290.914 34.3416C291.274 34.2366 291.632 34.1268 291.992 34.0213C291.869 33.8892 291.782 33.7305 291.72 33.5612C291.336 33.6265 290.968 33.763 290.593 33.8665ZM292.449 34.0068C292.365 34.1549 292.418 34.391 292.587 34.4534C292.706 34.4979 292.831 34.4457 292.947 34.4147C293.205 34.3261 293.473 34.2695 293.724 34.1616C293.614 34.0092 293.49 33.8675 293.36 33.7315C293.052 33.8021 292.742 33.8854 292.449 34.0068ZM290.897 34.4713C290.894 34.5961 290.851 34.7466 290.945 34.8492C291.036 34.975 291.21 34.9367 291.34 34.9101C291.707 34.8071 292.069 34.6822 292.439 34.5884C292.298 34.4587 292.205 34.2899 292.121 34.1195C291.709 34.2212 291.304 34.3513 290.897 34.4713ZM292.841 34.5569C292.796 34.7156 292.798 34.9067 292.947 35.0098C293.095 35.065 293.255 35.0234 293.396 34.9682C293.626 34.8797 293.872 34.8424 294.094 34.7335C294.013 34.569 293.915 34.4142 293.811 34.2642C293.486 34.3571 293.167 34.4698 292.841 34.5569ZM291.318 35.0427C291.235 35.2038 291.289 35.4235 291.458 35.5019C291.619 35.5401 291.775 35.4588 291.928 35.4186C292.219 35.3199 292.523 35.2609 292.807 35.1409C292.676 35.0059 292.605 34.8318 292.618 34.6416C292.188 34.7853 291.742 34.8826 291.318 35.0427ZM293.237 35.1404C293.053 35.2387 293.147 35.4936 293.28 35.5928C293.426 35.662 293.59 35.6078 293.733 35.5565C293.93 35.4844 294.135 35.437 294.333 35.3712C294.344 35.3553 294.365 35.3228 294.376 35.3069C294.335 35.1395 294.24 34.9938 294.161 34.8429C293.856 34.9517 293.539 35.0253 293.237 35.1404ZM291.842 35.5609C291.765 35.5919 291.663 35.6035 291.625 35.6901C291.561 35.8236 291.647 35.9804 291.755 36.0622C291.857 36.1255 291.981 36.0873 292.089 36.0607C292.444 35.9509 292.802 35.8478 293.16 35.7452C293.031 35.5996 292.934 35.4245 292.946 35.2232C292.584 35.3543 292.211 35.4511 291.842 35.5609ZM293.648 35.6983C293.551 35.7249 293.413 35.7646 293.423 35.8928C293.388 36.1052 293.619 36.3249 293.823 36.23C294.081 36.1449 294.339 36.0612 294.597 35.978C294.574 35.8004 294.523 35.6281 294.449 35.4651C294.176 35.5212 293.917 35.6267 293.648 35.6983ZM292.032 36.1947C291.82 36.2484 291.87 36.576 292.028 36.6665C292.158 36.7284 292.305 36.6834 292.436 36.6515C292.782 36.5431 293.13 36.4434 293.477 36.3404C293.404 36.2755 293.32 36.2184 293.267 36.1342C293.228 36.0472 293.227 35.9489 293.21 35.856C292.813 35.9533 292.427 36.0902 292.032 36.1947ZM293.676 36.4091C293.541 36.5881 293.696 36.9229 293.932 36.8755C294.212 36.8411 294.47 36.7071 294.745 36.6466C294.72 36.4633 294.679 36.2828 294.642 36.1018C294.323 36.2146 293.991 36.2862 293.676 36.4091ZM292.315 36.8145C292.236 36.8498 292.116 36.8561 292.102 36.964C292.064 37.1261 292.168 37.3569 292.355 37.3516C292.519 37.3477 292.673 37.28 292.83 37.2384C293.094 37.1508 293.368 37.0937 293.624 36.9819C293.498 36.844 293.416 36.6728 293.422 36.4821C293.056 36.6026 292.686 36.7081 292.315 36.8145ZM293.97 36.9989C293.896 37.0318 293.788 37.056 293.794 37.1585C293.744 37.3646 293.951 37.5945 294.16 37.5238C294.384 37.4619 294.6 37.3743 294.823 37.3061C294.805 37.1237 294.776 36.9427 294.746 36.7627C294.491 36.8542 294.229 36.92 293.97 36.9989ZM292.502 37.4522C292.409 37.4866 292.25 37.5064 292.258 37.6385C292.23 37.7938 292.338 37.9385 292.47 38.0052C292.584 38.0217 292.692 37.9709 292.799 37.9399C293.139 37.8277 293.488 37.744 293.827 37.6278C293.664 37.5175 293.583 37.338 293.578 37.1426C293.214 37.2248 292.865 37.3642 292.502 37.4522ZM293.99 37.6941C293.708 37.787 293.905 38.2665 294.17 38.2143C294.393 38.1635 294.603 38.0623 294.823 38.0014C294.829 37.8136 294.831 37.6264 294.827 37.4387C294.548 37.5214 294.265 37.5945 293.99 37.6941ZM292.855 38.0444C292.673 38.0977 292.484 38.1325 292.319 38.2307C292.332 38.3434 292.304 38.477 292.389 38.5679C292.459 38.6391 292.558 38.7087 292.662 38.6686C293.084 38.5467 293.503 38.4204 293.923 38.2931C293.854 38.2443 293.773 38.2055 293.72 38.1373C293.668 38.0406 293.664 37.9269 293.641 37.8219C293.374 37.879 293.117 37.9728 292.855 38.0444ZM294.007 38.3836C293.786 38.4799 293.912 38.8079 294.095 38.8761C294.25 38.9144 294.401 38.8384 294.544 38.79C294.607 38.762 294.693 38.7397 294.707 38.6599C294.748 38.4828 294.775 38.3023 294.837 38.1306C294.565 38.2312 294.276 38.2767 294.007 38.3836ZM292.488 38.8408C292.23 38.9478 292.404 39.3551 292.643 39.3537C292.729 39.3518 292.811 39.3193 292.893 39.2951C293.238 39.179 293.597 39.1089 293.933 38.9671C293.762 38.8713 293.692 38.6904 293.684 38.5017C293.281 38.5999 292.888 38.7363 292.488 38.8408ZM298.024 30.1129C298.433 29.8395 298.943 29.7703 299.422 29.8255C299.601 29.8473 299.77 29.9189 299.918 30.021C299.777 30.1003 299.684 30.2314 299.598 30.365C299.418 30.3993 299.395 30.1269 299.233 30.0945C299.019 30.0587 298.804 30.1347 298.612 30.2251C298.471 30.2982 298.319 30.4322 298.345 30.6098C298.382 30.8478 298.533 31.0651 298.744 31.1783C298.801 31.2054 298.892 31.2799 298.805 31.3341C298.574 31.5504 298.359 31.8542 298.454 32.1905C298.495 32.3458 298.681 32.3197 298.803 32.3482C298.798 32.3874 298.792 32.4266 298.787 32.4663C298.683 32.5195 298.584 32.5809 298.486 32.6453C298.534 32.8461 298.702 32.9617 298.865 33.0633C298.758 33.0745 298.651 33.0837 298.544 33.0933C298.557 33.2022 298.554 33.3265 298.638 33.4098C298.734 33.5394 298.9 33.5689 299.049 33.5926C298.971 33.6541 298.839 33.6894 298.843 33.8094C298.942 34.0387 299.229 33.9681 299.427 33.9875C299.379 34.062 299.331 34.137 299.286 34.2134C299.467 34.2661 299.655 34.2758 299.841 34.3024C299.97 35.3795 300.037 36.4628 300.16 37.5403C300.184 37.862 300.198 38.1867 300.268 38.5031C299.976 38.3933 299.673 38.3101 299.361 38.2897C299.04 38.2167 298.711 38.2123 298.384 38.2002C298.488 37.8557 298.552 37.4832 298.444 37.1305C298.339 36.7695 298.085 36.4613 297.768 36.2692C297.233 35.9296 296.551 35.8236 296.113 35.334C295.822 35.0364 295.735 34.6044 295.728 34.2003C295.753 33.2646 296.1 32.3613 296.609 31.5881C296.99 31.0191 297.451 30.4898 298.024 30.1129ZM300.02 30.1918C300.146 30.1187 300.306 30.1671 300.403 30.2677C300.654 30.5106 301.036 30.6296 301.171 30.9804C300.961 30.8377 300.749 30.6993 300.532 30.5706C300.377 30.4434 300.158 30.4206 299.973 30.4845C299.723 30.6335 299.611 30.9257 299.396 31.1125C299.257 31.1899 299.075 31.1788 298.929 31.1265C298.72 31.0085 298.557 30.7806 298.535 30.5382C298.655 30.3785 298.844 30.2469 299.05 30.2764C299.256 30.2716 299.374 30.4685 299.494 30.6064C299.7 30.5111 299.834 30.3171 300.02 30.1918ZM299.633 31.3452C299.639 31.0196 299.881 30.6151 300.245 30.6567C300.359 30.6475 300.412 30.7617 300.473 30.8367C300.702 30.8425 300.953 30.8957 301.072 31.1164C300.879 31.1381 300.67 31.1464 300.509 31.2707C300.333 31.3834 300.239 31.5847 300.066 31.6984C299.853 31.7763 299.597 31.576 299.633 31.3452ZM299.845 31.5141C299.99 31.6123 300.124 31.4826 300.223 31.3859C300.139 31.3501 300.041 31.3336 299.973 31.2683C299.918 31.1831 299.902 31.053 299.969 30.9698C300.054 30.8628 300.237 30.9059 300.301 30.7772C299.928 30.7075 299.641 31.2165 299.845 31.5141ZM300.088 31.0385C300.03 31.1638 300.182 31.2683 300.29 31.2765C300.477 31.2035 300.647 31.0956 300.825 31.0041C300.696 30.9746 300.563 30.9678 300.432 30.9819C300.388 31.0791 300.345 31.1977 300.22 31.1991C300.217 31.1135 300.216 31.0273 300.215 30.9417C300.173 30.9736 300.108 30.9848 300.088 31.0385ZM298.722 31.6849C298.883 31.4473 299.152 31.3094 299.42 31.2359C299.29 31.9128 299.397 32.6492 299.774 33.2307C299.916 33.4581 300.129 33.6255 300.316 33.8133C300.186 33.9957 299.985 34.1089 299.764 34.1283C299.746 34.1137 299.708 34.0837 299.69 34.0692C299.726 33.955 299.776 33.8462 299.819 33.7349C299.611 33.7692 299.406 33.823 299.194 33.8302C299.299 33.6633 299.461 33.5123 299.447 33.2975C299.267 33.3681 299.069 33.4054 298.879 33.3478C299.021 33.2046 299.23 33.0909 299.253 32.8688C299.085 32.8504 298.918 32.8272 298.752 32.7924C298.898 32.5984 299.098 32.4126 299.088 32.1474C298.936 32.1547 298.781 32.1547 298.632 32.1169C298.64 31.9703 298.631 31.8097 298.722 31.6849ZM300.694 31.3181C300.855 31.2354 301.042 31.2601 301.216 31.2702C301.024 31.3307 300.797 31.3012 300.639 31.4488C300.415 31.6418 300.495 31.9989 300.289 32.2094C300.177 32.3511 299.983 32.3395 299.824 32.3119C299.83 32.2026 299.791 32.07 299.875 31.9824C299.997 31.846 300.16 31.757 300.297 31.6365C300.428 31.5301 300.541 31.3946 300.694 31.3181ZM300.99 31.4091C301.323 31.2751 301.639 31.5184 301.968 31.547C301.956 31.6999 301.923 31.8504 301.869 31.9941C301.71 31.8871 301.65 31.6892 301.501 31.5721C301.358 31.4512 301.163 31.4507 300.99 31.4091ZM300.868 31.7333C301.035 31.5973 301.318 31.5794 301.465 31.756C301.581 31.8808 301.623 32.0521 301.658 32.2156C301.448 32.2635 301.24 32.3206 301.035 32.3855C300.799 32.458 300.549 32.4377 300.306 32.4532C300.525 32.2379 300.621 31.922 300.868 31.7333ZM301.088 32.5408C301.317 32.5108 301.514 32.3826 301.73 32.3119C301.654 32.5403 301.525 32.7474 301.362 32.9221C301.277 32.833 301.206 32.6927 301.064 32.7077C300.776 32.6961 300.452 32.6738 300.202 32.8466C300.014 33.0004 300.112 33.3217 300.335 33.3783C300.51 33.4122 300.696 33.4204 300.869 33.3754C301.025 33.2772 301.129 33.1127 301.293 33.0227C301.207 33.2124 301.055 33.3691 301.011 33.5781C300.977 33.6812 300.975 33.8036 300.896 33.8859C300.792 34.015 300.599 33.9933 300.462 33.941C300.394 33.8452 300.388 33.7228 300.338 33.6193C300.211 33.508 300.048 33.4277 299.969 33.2699C299.866 33.0962 299.892 32.8306 300.08 32.7271C300.387 32.5476 300.755 32.6182 301.088 32.5408ZM300.322 32.9395C300.531 32.818 300.786 32.8354 301.011 32.8954C301.106 32.909 301.049 33.0324 301.056 33.0938C300.826 32.9791 300.575 32.952 300.322 32.9395ZM295.805 38.2196C296.226 37.9975 296.723 38.1122 297.153 38.2467C297.407 38.341 297.682 38.3067 297.945 38.3478C298.327 38.4247 298.721 38.402 299.103 38.4818C299.479 38.4992 299.853 38.5525 300.211 38.6773C300.483 38.7808 300.775 38.7949 301.063 38.7852C301.291 38.7929 301.457 38.5902 301.681 38.58C301.827 38.5583 301.946 38.6821 302.091 38.6686C302.185 38.6715 302.298 38.6434 302.371 38.7223C302.449 38.8282 302.49 38.9569 302.566 39.0644C302.695 39.1626 302.883 39.1795 302.976 39.3251C303.084 39.4887 303.174 39.6658 303.236 39.8525C303.194 39.8549 303.112 39.8593 303.07 39.8617C302.845 39.6043 302.615 39.3522 302.404 39.0827C302.345 39.0082 302.277 38.9424 302.205 38.8824C302.217 39.0029 302.256 39.1166 302.3 39.2289C302.168 39.106 302.05 38.9705 301.92 38.8466C301.856 38.7697 301.748 38.7982 301.662 38.7871C301.635 39.0266 301.903 39.1505 301.893 39.3832C301.658 39.3711 301.479 39.2013 301.264 39.1277C300.999 39.0373 300.717 39.0111 300.438 39.0121C300.236 39.0189 300.064 38.8965 299.876 38.8447C299.475 38.7349 299.062 38.6889 298.648 38.6686C298.195 38.596 297.736 38.6366 297.279 38.6125C296.955 38.6037 296.654 38.446 296.329 38.4388C296.153 38.4649 295.961 38.5021 295.829 38.6333C295.648 38.8365 295.695 39.1631 295.863 39.3585C296.019 39.5376 296.26 39.6058 296.484 39.6459C296.94 39.6895 297.398 39.6435 297.855 39.6542C298.319 39.6658 298.777 39.5792 299.241 39.5893C299.57 39.5724 299.898 39.5903 300.227 39.6019C300.213 39.5758 300.187 39.5245 300.174 39.4988C299.926 39.3885 299.65 39.375 299.384 39.3668C298.636 39.3518 297.887 39.3503 297.139 39.359C296.886 39.3619 296.579 39.4292 296.383 39.2197C296.272 39.1268 296.242 38.9284 296.354 38.8253C296.666 38.7208 296.999 38.8036 297.316 38.8355C297.796 38.9352 298.292 38.8699 298.773 38.9652C299.191 39.0082 299.605 39.0823 300.014 39.181C300.55 39.2981 301.162 39.2153 301.616 39.5869C301.747 39.7122 301.913 39.7771 302.095 39.7596C302.099 39.6304 302.108 39.5022 302.122 39.374C302.278 39.4122 302.429 39.4698 302.58 39.525C302.764 39.5903 302.869 39.7751 302.941 39.9469C300.815 39.9764 298.687 39.9478 296.561 39.943C296.215 39.9067 295.842 39.8438 295.574 39.6024C295.324 39.3876 295.235 39.0165 295.325 38.7034C295.395 38.4726 295.597 38.3163 295.805 38.2196ZM286.059 40.7786C286.082 40.6504 286.231 40.6823 286.326 40.6688C291.747 40.6697 297.169 40.6688 302.59 40.6692C303.015 40.6804 303.441 40.6422 303.863 40.6968C303.864 40.7259 303.866 40.7839 303.868 40.8129C298.005 40.8217 292.141 40.811 286.278 40.8183C286.206 40.8081 286.116 40.8352 286.059 40.7786ZM301.44 41.2102C301.503 41.216 301.566 41.2218 301.629 41.2271C301.662 41.3195 301.665 41.4168 301.644 41.5131C301.557 41.5097 301.47 41.5068 301.383 41.5029C301.351 41.3979 301.377 41.2968 301.44 41.2102ZM287.547 41.336C287.709 41.3321 287.87 41.3316 288.032 41.3307C288.049 41.7206 288.006 42.114 288.062 42.502C288.327 42.5451 288.596 42.5422 288.863 42.5209C289.481 42.5335 290.103 42.5562 290.72 42.5146C290.718 42.4822 290.713 42.4178 290.711 42.3854C290.627 42.3409 290.542 42.2857 290.443 42.2916C289.916 42.2877 289.388 42.2949 288.86 42.2916C288.719 42.2799 288.542 42.2949 288.452 42.1585C288.338 41.9877 288.408 41.7724 288.415 41.5832C288.375 41.6147 288.354 41.6553 288.352 41.7051C288.344 41.8793 288.367 42.053 288.396 42.2248C288.025 42.1179 288.088 41.5692 288.372 41.396C288.532 41.2557 288.749 41.3558 288.935 41.3708C288.897 41.4598 288.852 41.5489 288.842 41.6471C288.883 41.7298 288.955 41.8014 289.054 41.7927C289.597 41.8077 290.141 41.7826 290.685 41.8014C290.89 41.8048 291.08 41.935 291.182 42.1116C291.269 42.3612 291.225 42.6331 291.234 42.893C291.098 42.9094 290.961 42.9249 290.823 42.9239C290.058 42.921 289.293 42.9225 288.527 42.9225C288.242 42.9215 287.949 42.9428 287.673 42.8528C287.562 42.8097 287.536 42.6781 287.542 42.5712C287.543 42.1595 287.539 41.7477 287.547 41.3365M302.273 41.3326C302.437 41.3326 302.601 41.3331 302.765 41.3326C302.772 41.7153 302.761 42.098 302.772 42.4812C303.011 42.5557 303.262 42.5456 303.506 42.5083C303.526 42.2732 303.521 42.0375 303.515 41.8019C303.674 41.7956 303.834 41.7951 303.993 41.798C303.997 42.1648 304.011 42.5325 303.984 42.8993C303.68 42.9384 303.374 42.9191 303.069 42.9239C302.858 42.9268 302.644 42.9162 302.439 42.8663C302.28 42.8441 302.275 42.6501 302.254 42.5252C302.236 42.128 302.233 41.7288 302.273 41.3331M292.198 41.3442C292.366 41.3336 292.533 41.3336 292.701 41.3442C292.722 41.7293 292.697 42.115 292.717 42.5001C292.819 42.5122 292.92 42.5233 293.023 42.533C293.046 42.2877 293.046 42.0404 293.017 41.7961C293.176 41.7947 293.335 41.7971 293.494 41.8058C293.57 42.0341 293.563 42.2766 293.563 42.5141C293.638 42.5165 293.713 42.5209 293.788 42.5262C293.816 42.2824 293.814 42.0351 293.763 41.7947C293.929 41.7947 294.095 41.7966 294.262 41.8072C294.312 42.0346 294.293 42.2688 294.298 42.5001C294.384 42.5001 294.469 42.5006 294.555 42.5006C294.555 42.2654 294.563 42.0288 294.529 41.7956C294.688 41.799 294.852 41.7763 295.006 41.8232C295.071 41.9122 295.059 42.0279 295.062 42.1324C295.061 42.3859 295.059 42.6399 295.061 42.8939C294.767 42.9384 294.468 42.9205 294.172 42.9225C293.677 42.9176 293.181 42.9326 292.687 42.9167C292.509 42.8915 292.235 42.9036 292.208 42.6641C292.169 42.2262 292.192 41.7835 292.198 41.3442ZM295.228 41.3418C295.392 41.334 295.556 41.334 295.721 41.3403C295.736 41.7187 295.726 42.097 295.726 42.4754C296.041 42.5325 296.362 42.5006 296.681 42.4991C296.686 42.2674 296.687 42.0356 296.679 41.8043C296.842 41.7956 297.005 41.7946 297.168 41.8014C297.163 42.1658 297.166 42.5306 297.166 42.8949C296.856 42.9413 296.541 42.9186 296.229 42.9234C295.943 42.9225 295.649 42.9418 295.372 42.8552C295.248 42.8025 295.224 42.6477 295.224 42.5267C295.221 42.1319 295.221 41.7366 295.228 41.3418ZM298.371 41.4995C298.475 41.3756 298.649 41.3863 298.792 41.3519C298.714 41.4903 298.652 41.6519 298.772 41.7879C299.344 41.8106 299.917 41.7855 300.49 41.799C300.709 41.7942 300.924 41.9224 301.031 42.115C301.082 42.2359 301.075 42.3704 301.089 42.4986C301.26 42.5073 301.431 42.5078 301.602 42.4986C301.607 42.2664 301.608 42.0346 301.602 41.8024C301.768 41.7951 301.933 41.7951 302.099 41.8014C302.097 42.1658 302.1 42.5306 302.097 42.8954C301.848 42.9254 301.595 42.9433 301.346 42.9104C301.252 42.8997 301.182 42.833 301.111 42.7778C301.054 42.8576 300.978 42.9351 300.871 42.9225C300.121 42.9268 299.371 42.9196 298.62 42.9249C298.462 42.9273 298.305 42.9162 298.149 42.8973C298.148 42.7764 298.147 42.6559 298.149 42.5354C298.641 42.5383 299.133 42.5257 299.625 42.5369C299.94 42.5151 300.257 42.548 300.571 42.5049C300.57 42.4759 300.567 42.4173 300.565 42.3878C300.481 42.3424 300.396 42.2862 300.297 42.293C299.77 42.2896 299.242 42.2949 298.715 42.2935C298.572 42.2925 298.409 42.2828 298.316 42.1561C298.137 41.9732 298.218 41.6713 298.372 41.5M286.25 41.8063C286.514 41.7797 286.78 41.7719 287.044 41.7985C287.219 41.8072 287.346 41.978 287.359 42.1454C287.378 42.3951 287.362 42.6462 287.364 42.8968C287.051 42.9384 286.735 42.9244 286.421 42.922C286.302 42.9084 286.167 42.908 286.07 42.831C285.998 42.7173 286.016 42.5756 286 42.4478C286.298 42.5354 286.614 42.5102 286.92 42.4928C286.902 42.4203 286.875 42.3409 286.796 42.3196C286.614 42.2785 286.425 42.3095 286.246 42.3544C286.244 42.1716 286.244 41.9892 286.25 41.8063ZM291.56 41.7951C291.717 41.785 291.876 41.7845 292.035 41.7893C292.043 42.1474 292.043 42.5054 292.039 42.8639C292.049 43.0623 291.888 43.2094 291.726 43.2883C291.562 43.3821 291.368 43.3507 291.195 43.3095C291.288 43.2341 291.392 43.1687 291.47 43.0758C291.559 42.9607 291.564 42.8088 291.564 42.6699C291.562 42.3782 291.561 42.0869 291.56 41.7951ZM295.996 43.0555C296.112 43.0352 296.226 43.0575 296.318 43.1349C296.398 43.0662 296.541 42.9873 296.617 43.1C296.686 43.1857 296.611 43.2737 296.552 43.3391C296.464 43.3603 296.39 43.3004 296.317 43.2621C296.222 43.3183 296.117 43.3458 296.008 43.3381C296.001 43.2437 295.997 43.1494 295.996 43.0555ZM296.746 43.0444C296.817 43.0454 296.888 43.0459 296.959 43.0468C296.985 43.1436 296.982 43.2428 296.945 43.3371C296.881 43.3395 296.818 43.3434 296.755 43.3473C296.687 43.25 296.682 43.1446 296.746 43.0444ZM303.264 43.0589C303.356 43.056 303.448 43.055 303.54 43.057C303.539 43.1489 303.535 43.2418 303.531 43.3342C303.445 43.3245 303.315 43.3841 303.277 43.2742C303.238 43.2089 303.268 43.1291 303.264 43.0589ZM286.062 43.851C291.995 43.8476 297.929 43.8495 303.863 43.8505C303.862 43.8993 303.862 43.9492 303.863 43.999C297.929 43.9995 291.995 44.0014 286.062 43.998V43.851Z" fill="#F0C239"/>
<g clip-path="url(#clip1_4836_17635)">
<line x1="300" y1="8.5" x2="85" y2="8.49998" stroke="url(#paint0_linear_4836_17635)" stroke-opacity="0.5"/>
<line x1="300" y1="11.5" x2="117" y2="11.5" stroke="url(#paint1_linear_4836_17635)" stroke-opacity="0.5"/>
<line x1="300" y1="14.5" x2="152" y2="14.5" stroke="url(#paint2_linear_4836_17635)" stroke-opacity="0.5"/>
</g>
<g clip-path="url(#clip2_4836_17635)">
<path d="M29.1354 8.02664C29.5146 8.2217 29.608 8.43157 29.5003 8.84619C29.4053 9.21265 29.3109 9.5791 29.2164 9.94529H28.7889C28.7369 9.74942 28.6813 9.54439 28.6276 9.33883C28.585 9.17471 28.5453 9.01004 28.5026 8.84592C28.395 8.43211 28.4889 8.22009 28.8667 8.02637H29.1351L29.1354 8.02664Z" fill="#F0C239"/>
<path d="M28.8661 13.9729C28.7773 13.9083 28.6783 13.8543 28.6018 13.7773C28.4741 13.6487 28.4263 13.4795 28.4676 13.3054C28.5674 12.8843 28.6815 12.4665 28.7886 12.051H29.2104C29.2923 12.368 29.3749 12.6873 29.4573 13.0065C29.4686 13.0498 29.4785 13.0934 29.4895 13.1367C29.6017 13.5685 29.5172 13.7676 29.1342 13.9729H28.8659H28.8661Z" fill="#F0C239"/>
<path d="M29.7871 11.7168C29.8673 11.5799 29.9374 11.4607 30.0179 11.3235C30.2025 11.373 30.3992 11.4244 30.5954 11.4782C30.8147 11.5382 31.0355 11.5947 31.2521 11.663C31.4893 11.7381 31.6211 11.9149 31.6463 12.1562C31.6694 12.3782 31.576 12.5593 31.383 12.6774C31.1882 12.7966 30.9129 12.7947 30.7532 12.6478C30.4242 12.3456 30.1089 12.0284 29.7874 11.7166L29.7871 11.7168Z" fill="#F0C239"/>
<path d="M29.3184 12.0238C29.4544 11.9441 29.5765 11.8726 29.7069 11.7961C29.7335 11.8196 29.7644 11.8438 29.7917 11.8717C30.055 12.1392 30.3185 12.4064 30.5805 12.6752C30.7597 12.8592 30.8078 13.1272 30.7031 13.3416C30.6065 13.5399 30.387 13.6661 30.1669 13.6502C29.9251 13.6327 29.7158 13.4578 29.6482 13.2146C29.5381 12.8196 29.4292 12.4244 29.3184 12.024V12.0238Z" fill="#F0C239"/>
<path d="M27.9839 11.3154C28.0609 11.4486 28.132 11.5718 28.2093 11.7053C28.1894 11.7282 28.1661 11.7596 28.1387 11.7866C27.8637 12.0559 27.5889 12.3255 27.3119 12.5929C27.1343 12.7646 26.8756 12.8017 26.6542 12.6919C26.4599 12.5956 26.3327 12.3742 26.3514 12.1638C26.3732 11.9195 26.5382 11.7206 26.7789 11.6528C27.182 11.5393 27.5854 11.4268 27.9839 11.3154Z" fill="#F0C239"/>
<path d="M29.6645 10.1766C29.5738 10.1236 29.4517 10.0521 29.3184 9.97405C29.4405 9.54409 29.5567 9.1093 29.6898 8.67988C29.7386 8.52248 29.8787 8.43396 30.0306 8.37934C30.26 8.29674 30.5185 8.38284 30.6591 8.58248C30.7911 8.77001 30.8032 9.0875 30.6465 9.24625C30.333 9.56373 29.9997 9.86131 29.6645 10.1766Z" fill="#F0C239"/>
<path d="M28.6805 9.97586C28.5455 10.055 28.4231 10.1268 28.2938 10.2027C28.2699 10.1822 28.2417 10.1615 28.2173 10.1368C27.9471 9.86232 27.6766 9.58815 27.4085 9.31182C27.2426 9.14097 27.1978 8.87326 27.2947 8.66447C27.3889 8.46106 27.6178 8.32976 27.8419 8.34994C28.0751 8.37093 28.2817 8.5399 28.3466 8.77021C28.4594 9.17003 28.5686 9.5712 28.6808 9.97586H28.6805Z" fill="#F0C239"/>
<path d="M29.793 10.2872C29.8214 10.2574 29.8507 10.2248 29.8821 10.1941C30.1467 9.93451 30.4113 9.67433 30.6769 9.41576C30.8653 9.23226 31.1122 9.18975 31.3422 9.29899C31.5392 9.39235 31.672 9.62267 31.6519 9.83576C31.6288 10.0809 31.4598 10.2773 31.2094 10.3478C30.8495 10.4492 30.4886 10.5477 30.1292 10.6518C30.0428 10.6768 29.9937 10.669 29.9561 10.5741C29.9175 10.4761 29.8523 10.3889 29.793 10.2872Z" fill="#F0C239"/>
<path d="M28.2825 11.7905C28.4124 11.8613 28.5272 11.9189 28.6362 11.9867C28.6587 12.0007 28.6737 12.0558 28.6657 12.0849C28.5565 12.4852 28.4521 12.8872 28.3265 13.2825C28.2527 13.5149 28.0568 13.6269 27.8246 13.6451C27.6027 13.6626 27.421 13.5599 27.3153 13.3629C27.2088 13.1646 27.1964 12.9378 27.3451 12.7683C27.6446 12.4269 27.9728 12.1107 28.2825 11.7908V11.7905Z" fill="#F0C239"/>
<path d="M26.9327 9.20947C27.0535 9.26893 27.1949 9.30526 27.2912 9.39189C27.5862 9.65799 27.8626 9.94481 28.1492 10.2203C28.2061 10.2749 28.2122 10.3164 28.1605 10.3772C28.1205 10.424 28.081 10.4781 28.063 10.5359C28.0239 10.6627 27.9578 10.6793 27.8355 10.6422C27.4777 10.5338 27.1152 10.4407 26.7556 10.339C26.5001 10.2666 26.3179 9.98571 26.3568 9.73064C26.4022 9.43467 26.6276 9.23772 26.933 9.20947H26.9327Z" fill="#F0C239"/>
<path d="M30.044 11.0005C30.0505 10.7885 30.0499 10.7869 30.252 10.7341C30.6014 10.6429 30.95 10.549 31.3016 10.4664C31.5702 10.4032 31.8654 10.5811 31.9494 10.842C32.0691 11.2139 31.7167 11.6207 31.3279 11.5378C30.9183 11.4506 30.5147 11.335 30.11 11.2263C30.0819 11.2187 30.0558 11.1692 30.0467 11.1345C30.0357 11.0925 30.044 11.0457 30.044 11.0008V11.0005Z" fill="#F0C239"/>
<path d="M27.9559 10.9975C27.9559 11.0379 27.9661 11.0818 27.9532 11.1175C27.9385 11.1587 27.9098 11.2166 27.8757 11.2257C27.493 11.3306 27.1093 11.4326 26.7233 11.5249C26.4845 11.5819 26.2475 11.4794 26.1152 11.2819C25.9953 11.1027 25.9982 10.8827 26.1233 10.7037C26.261 10.5065 26.4923 10.4148 26.7349 10.4737C27.0728 10.5558 27.409 10.6451 27.7455 10.7328C27.9514 10.7866 27.9508 10.788 27.9559 10.9973V10.9975Z" fill="#F0C239"/>
<path d="M28.9979 11.9098C28.476 11.8905 28.0697 11.4621 28.0927 10.9557C28.115 10.4685 28.5465 10.0662 29.0247 10.0864C29.5242 10.1077 29.9297 10.5352 29.9093 11.0182C29.8883 11.5146 29.4665 11.927 28.9976 11.9096L28.9979 11.9098ZM29.0068 10.2807C28.6273 10.2713 28.2908 10.596 28.2825 10.9797C28.2739 11.3811 28.6002 11.7123 29.0111 11.7193C29.3771 11.7255 29.7096 11.3965 29.7211 11.0163C29.7332 10.6202 29.4131 10.2909 29.0065 10.2807H29.0068Z" fill="#EA4200"/>
<path d="M29.0074 10.2807C29.414 10.2907 29.7341 10.6203 29.722 11.0163C29.7105 11.3965 29.378 11.7256 29.012 11.7194C28.6008 11.7124 28.2748 11.3812 28.2834 10.9797C28.2917 10.5963 28.6282 10.2713 29.0077 10.2807H29.0074Z" fill="#F0C239" stroke="black" stroke-width="0.5" stroke-miterlimit="10"/>
</g>
<g clip-path="url(#clip3_4836_17635)">
<path d="M45.6354 8.02664C46.0146 8.2217 46.108 8.43157 46.0003 8.84619C45.9053 9.21265 45.8109 9.5791 45.7164 9.94529H45.2889C45.2369 9.74942 45.1813 9.54439 45.1276 9.33883C45.085 9.17471 45.0453 9.01004 45.0026 8.84592C44.895 8.43211 44.9889 8.22009 45.3667 8.02637H45.6351L45.6354 8.02664Z" fill="#F0C239"/>
<path d="M45.3661 13.9729C45.2773 13.9083 45.1783 13.8543 45.1018 13.7773C44.9741 13.6487 44.9263 13.4795 44.9676 13.3054C45.0674 12.8843 45.1815 12.4665 45.2886 12.051H45.7104C45.7923 12.368 45.8749 12.6873 45.9573 13.0065C45.9686 13.0498 45.9785 13.0934 45.9895 13.1367C46.1017 13.5685 46.0172 13.7676 45.6342 13.9729H45.3659H45.3661Z" fill="#F0C239"/>
<path d="M46.2871 11.7168C46.3673 11.5799 46.4374 11.4607 46.5179 11.3235C46.7025 11.373 46.8992 11.4244 47.0954 11.4782C47.3147 11.5382 47.5355 11.5947 47.7521 11.663C47.9893 11.7381 48.1211 11.9149 48.1463 12.1562C48.1694 12.3782 48.076 12.5593 47.883 12.6774C47.6882 12.7966 47.4129 12.7947 47.2532 12.6478C46.9242 12.3456 46.6089 12.0284 46.2874 11.7166L46.2871 11.7168Z" fill="#F0C239"/>
<path d="M45.8184 12.0238C45.9544 11.9441 46.0765 11.8726 46.2069 11.7961C46.2335 11.8196 46.2644 11.8438 46.2917 11.8717C46.555 12.1392 46.8185 12.4064 47.0805 12.6752C47.2597 12.8592 47.3078 13.1272 47.2031 13.3416C47.1065 13.5399 46.887 13.6661 46.6669 13.6502C46.4251 13.6327 46.2158 13.4578 46.1482 13.2146C46.0381 12.8196 45.9292 12.4244 45.8184 12.024V12.0238Z" fill="#F0C239"/>
<path d="M44.4839 11.3154C44.5609 11.4486 44.632 11.5718 44.7093 11.7053C44.6894 11.7282 44.6661 11.7596 44.6387 11.7866C44.3637 12.0559 44.0889 12.3255 43.8119 12.5929C43.6343 12.7646 43.3756 12.8017 43.1542 12.6919C42.9599 12.5956 42.8327 12.3742 42.8514 12.1638C42.8732 11.9195 43.0382 11.7206 43.2789 11.6528C43.682 11.5393 44.0854 11.4268 44.4839 11.3154Z" fill="#F0C239"/>
<path d="M46.1645 10.1769C46.0738 10.1239 45.9517 10.0523 45.8184 9.97429C45.9405 9.54434 46.0567 9.10954 46.1898 8.68012C46.2386 8.52272 46.3787 8.4342 46.5306 8.37958C46.76 8.29698 47.0185 8.38308 47.1591 8.58272C47.2911 8.77026 47.3032 9.08775 47.1465 9.24649C46.833 9.56398 46.4997 9.86156 46.1645 10.1769Z" fill="#F0C239"/>
<path d="M45.1805 9.97586C45.0455 10.055 44.9231 10.1268 44.7938 10.2027C44.7699 10.1822 44.7417 10.1615 44.7173 10.1368C44.4471 9.86232 44.1766 9.58815 43.9085 9.31182C43.7426 9.14097 43.6978 8.87326 43.7947 8.66447C43.8889 8.46106 44.1178 8.32976 44.3419 8.34994C44.5751 8.37093 44.7817 8.5399 44.8466 8.77021C44.9594 9.17003 45.0686 9.5712 45.1808 9.97586H45.1805Z" fill="#F0C239"/>
<path d="M46.293 10.2872C46.3214 10.2574 46.3507 10.2248 46.3821 10.1941C46.6467 9.93451 46.9113 9.67433 47.1769 9.41576C47.3653 9.23226 47.6122 9.18975 47.8422 9.29899C48.0392 9.39235 48.172 9.62267 48.1519 9.83576C48.1288 10.0809 47.9598 10.2773 47.7094 10.3478C47.3495 10.4492 46.9886 10.5477 46.6292 10.6518C46.5428 10.6768 46.4937 10.669 46.4561 10.5741C46.4175 10.4761 46.3523 10.3889 46.293 10.2872Z" fill="#F0C239"/>
<path d="M44.7825 11.7905C44.9124 11.8613 45.0272 11.9189 45.1362 11.9867C45.1587 12.0007 45.1737 12.0558 45.1657 12.0849C45.0565 12.4852 44.9521 12.8872 44.8265 13.2825C44.7527 13.5149 44.5568 13.6269 44.3246 13.6451C44.1027 13.6626 43.921 13.5599 43.8153 13.3629C43.7088 13.1646 43.6964 12.9378 43.8451 12.7683C44.1446 12.4269 44.4728 12.1107 44.7825 11.7908V11.7905Z" fill="#F0C239"/>
<path d="M43.4327 9.20947C43.5535 9.26893 43.6949 9.30526 43.7912 9.39189C44.0862 9.65799 44.3626 9.94481 44.6492 10.2203C44.7061 10.2749 44.7122 10.3164 44.6605 10.3772C44.6205 10.424 44.581 10.4781 44.563 10.5359C44.5239 10.6627 44.4578 10.6793 44.3355 10.6422C43.9777 10.5338 43.6152 10.4407 43.2556 10.339C43.0001 10.2666 42.8179 9.98571 42.8568 9.73064C42.9022 9.43467 43.1276 9.23772 43.433 9.20947H43.4327Z" fill="#F0C239"/>
<path d="M46.546 11.0008C46.5524 10.7887 46.5519 10.7871 46.754 10.7344C47.1034 10.6432 47.452 10.5493 47.8035 10.4667C48.0721 10.4034 48.3673 10.5813 48.4513 10.8423C48.571 11.2141 48.2187 11.6209 47.8298 11.5381C47.4203 11.4509 47.0167 11.3352 46.612 11.2265C46.5838 11.219 46.5578 11.1695 46.5487 11.1347C46.5377 11.0928 46.546 11.046 46.546 11.001V11.0008Z" fill="#F0C239"/>
<path d="M44.4559 10.9975C44.4559 11.0379 44.4661 11.0818 44.4532 11.1175C44.4385 11.1587 44.4098 11.2166 44.3757 11.2257C43.993 11.3306 43.6093 11.4326 43.2233 11.5249C42.9845 11.5819 42.7475 11.4794 42.6152 11.2819C42.4953 11.1027 42.4982 10.8827 42.6233 10.7037C42.761 10.5065 42.9923 10.4148 43.2349 10.4737C43.5728 10.5558 43.909 10.6451 44.2455 10.7328C44.4514 10.7866 44.4508 10.788 44.4559 10.9973V10.9975Z" fill="#F0C239"/>
<path d="M45.4979 11.9098C44.976 11.8905 44.5697 11.4621 44.5927 10.9557C44.615 10.4685 45.0465 10.0662 45.5247 10.0864C46.0242 10.1077 46.4297 10.5352 46.4093 11.0182C46.3883 11.5146 45.9665 11.927 45.4976 11.9096L45.4979 11.9098ZM45.5068 10.2807C45.1273 10.2713 44.7908 10.596 44.7825 10.9797C44.7739 11.3811 45.1002 11.7123 45.5111 11.7193C45.8771 11.7255 46.2096 11.3965 46.2211 11.0163C46.2332 10.6202 45.9131 10.2909 45.5065 10.2807H45.5068Z" fill="#EA4200"/>
<path d="M45.5074 10.2807C45.914 10.2907 46.2341 10.6203 46.222 11.0163C46.2105 11.3965 45.878 11.7256 45.512 11.7194C45.1008 11.7124 44.7748 11.3812 44.7834 10.9797C44.7917 10.5963 45.1282 10.2713 45.5077 10.2807H45.5074Z" fill="#F0C239" stroke="black" stroke-width="0.5" stroke-miterlimit="10"/>
</g>
<g clip-path="url(#clip4_4836_17635)">
<path d="M62.6354 8.02664C63.0146 8.2217 63.108 8.43157 63.0003 8.84619C62.9053 9.21265 62.8109 9.5791 62.7164 9.94529H62.2889C62.2369 9.74942 62.1813 9.54439 62.1276 9.33883C62.085 9.17471 62.0453 9.01004 62.0026 8.84592C61.895 8.43211 61.9889 8.22009 62.3667 8.02637H62.6351L62.6354 8.02664Z" fill="#F0C239"/>
<path d="M62.3661 13.9729C62.2773 13.9083 62.1783 13.8543 62.1018 13.7773C61.9741 13.6487 61.9263 13.4795 61.9676 13.3054C62.0674 12.8843 62.1815 12.4665 62.2886 12.051H62.7104C62.7923 12.368 62.8749 12.6873 62.9573 13.0065C62.9686 13.0498 62.9785 13.0934 62.9895 13.1367C63.1017 13.5685 63.0172 13.7676 62.6342 13.9729H62.3659H62.3661Z" fill="#F0C239"/>
<path d="M63.2871 11.7168C63.3673 11.5799 63.4374 11.4607 63.5179 11.3235C63.7025 11.373 63.8992 11.4244 64.0954 11.4782C64.3147 11.5382 64.5355 11.5947 64.7521 11.663C64.9893 11.7381 65.1211 11.9149 65.1463 12.1562C65.1694 12.3782 65.076 12.5593 64.883 12.6774C64.6882 12.7966 64.4129 12.7947 64.2532 12.6478C63.9242 12.3456 63.6089 12.0284 63.2874 11.7166L63.2871 11.7168Z" fill="#F0C239"/>
<path d="M62.8164 12.0238C62.9525 11.9441 63.0746 11.8726 63.205 11.7961C63.2316 11.8196 63.2624 11.8438 63.2898 11.8717C63.5531 12.1392 63.8166 12.4064 64.0785 12.6752C64.2578 12.8592 64.3058 13.1272 64.2011 13.3416C64.1045 13.5399 63.885 13.6661 63.665 13.6502C63.4232 13.6327 63.2138 13.4578 63.1462 13.2146C63.0362 12.8196 62.9272 12.4244 62.8164 12.024V12.0238Z" fill="#F0C239"/>
<path d="M61.4839 11.3154C61.5609 11.4486 61.632 11.5718 61.7093 11.7053C61.6894 11.7282 61.6661 11.7596 61.6387 11.7866C61.3637 12.0559 61.0889 12.3255 60.8119 12.5929C60.6343 12.7646 60.3756 12.8017 60.1542 12.6919C59.9599 12.5956 59.8327 12.3742 59.8514 12.1638C59.8732 11.9195 60.0382 11.7206 60.2789 11.6528C60.682 11.5393 61.0854 11.4268 61.4839 11.3154Z" fill="#F0C239"/>
<path d="M63.1645 10.1766C63.0738 10.1236 62.9517 10.0521 62.8184 9.97405C62.9405 9.54409 63.0567 9.1093 63.1898 8.67988C63.2386 8.52248 63.3787 8.43396 63.5306 8.37934C63.76 8.29674 64.0185 8.38284 64.1591 8.58248C64.2911 8.77001 64.3032 9.0875 64.1465 9.24625C63.833 9.56373 63.4997 9.86131 63.1645 10.1766Z" fill="#F0C239"/>
<path d="M62.1805 9.97586C62.0455 10.055 61.9231 10.1268 61.7938 10.2027C61.7699 10.1822 61.7417 10.1615 61.7173 10.1368C61.4471 9.86232 61.1766 9.58815 60.9085 9.31182C60.7426 9.14097 60.6978 8.87326 60.7947 8.66447C60.8889 8.46106 61.1178 8.32976 61.3419 8.34994C61.5751 8.37093 61.7817 8.5399 61.8466 8.77021C61.9594 9.17003 62.0686 9.5712 62.1808 9.97586H62.1805Z" fill="#F0C239"/>
<path d="M63.293 10.2872C63.3214 10.2574 63.3507 10.2248 63.3821 10.1941C63.6467 9.93451 63.9113 9.67433 64.1769 9.41576C64.3653 9.23226 64.6122 9.18975 64.8422 9.29899C65.0392 9.39235 65.172 9.62267 65.1519 9.83576C65.1288 10.0809 64.9598 10.2773 64.7094 10.3478C64.3495 10.4492 63.9886 10.5477 63.6292 10.6518C63.5428 10.6768 63.4937 10.669 63.4561 10.5741C63.4175 10.4761 63.3523 10.3889 63.293 10.2872Z" fill="#F0C239"/>
<path d="M61.7825 11.7905C61.9124 11.8613 62.0272 11.9189 62.1362 11.9867C62.1587 12.0007 62.1737 12.0558 62.1657 12.0849C62.0565 12.4852 61.9521 12.8872 61.8265 13.2825C61.7527 13.5149 61.5568 13.6269 61.3246 13.6451C61.1027 13.6626 60.921 13.5599 60.8153 13.3629C60.7088 13.1646 60.6964 12.9378 60.8451 12.7683C61.1446 12.4269 61.4728 12.1107 61.7825 11.7908V11.7905Z" fill="#F0C239"/>
<path d="M60.4327 9.20947C60.5535 9.26893 60.6949 9.30526 60.7912 9.39189C61.0862 9.65799 61.3626 9.94481 61.6492 10.2203C61.7061 10.2749 61.7122 10.3164 61.6605 10.3772C61.6205 10.424 61.581 10.4781 61.563 10.5359C61.5239 10.6627 61.4578 10.6793 61.3355 10.6422C60.9777 10.5338 60.6152 10.4407 60.2556 10.339C60.0001 10.2666 59.8179 9.98571 59.8568 9.73064C59.9022 9.43467 60.1276 9.23772 60.433 9.20947H60.4327Z" fill="#F0C239"/>
<path d="M63.544 11.0005C63.5505 10.7885 63.5499 10.7869 63.752 10.7341C64.1014 10.6429 64.45 10.549 64.8016 10.4664C65.0702 10.4032 65.3654 10.5811 65.4494 10.842C65.5691 11.2139 65.2167 11.6207 64.8279 11.5378C64.4183 11.4506 64.0147 11.335 63.61 11.2263C63.5819 11.2187 63.5558 11.1692 63.5467 11.1345C63.5357 11.0925 63.544 11.0457 63.544 11.0008V11.0005Z" fill="#F0C239"/>
<path d="M61.4559 10.9975C61.4559 11.0379 61.4661 11.0818 61.4532 11.1175C61.4385 11.1587 61.4098 11.2166 61.3757 11.2257C60.993 11.3306 60.6093 11.4326 60.2233 11.5249C59.9845 11.5819 59.7475 11.4794 59.6152 11.2819C59.4953 11.1027 59.4982 10.8827 59.6233 10.7037C59.761 10.5065 59.9923 10.4148 60.2349 10.4737C60.5728 10.5558 60.909 10.6451 61.2455 10.7328C61.4514 10.7866 61.4508 10.788 61.4559 10.9973V10.9975Z" fill="#F0C239"/>
<path d="M62.4979 11.9098C61.976 11.8905 61.5697 11.4621 61.5927 10.9557C61.615 10.4685 62.0465 10.0662 62.5247 10.0864C63.0242 10.1077 63.4297 10.5352 63.4093 11.0182C63.3883 11.5146 62.9665 11.927 62.4976 11.9096L62.4979 11.9098ZM62.5068 10.2807C62.1273 10.2713 61.7908 10.596 61.7825 10.9797C61.7739 11.3811 62.1002 11.7123 62.5111 11.7193C62.8771 11.7255 63.2096 11.3965 63.2211 11.0163C63.2332 10.6202 62.9131 10.2909 62.5065 10.2807H62.5068Z" fill="#EA4200"/>
<path d="M62.5074 10.2805C62.914 10.2904 63.2341 10.62 63.222 11.0161C63.2105 11.3963 62.878 11.7253 62.512 11.7191C62.1008 11.7121 61.7748 11.3809 61.7834 10.9795C61.7917 10.5961 62.1282 10.2711 62.5077 10.2805H62.5074Z" fill="#F0C239" stroke="black" stroke-width="0.5" stroke-miterlimit="10"/>
</g>
<g clip-path="url(#clip5_4836_17635)">
<path d="M79.1354 8.02664C79.5146 8.2217 79.608 8.43157 79.5003 8.84619C79.4053 9.21265 79.3109 9.5791 79.2164 9.94529H78.7889C78.7369 9.74942 78.6813 9.54439 78.6276 9.33883C78.585 9.17471 78.5453 9.01004 78.5026 8.84592C78.395 8.43211 78.4889 8.22009 78.8667 8.02637H79.1351L79.1354 8.02664Z" fill="#F0C239"/>
<path d="M78.8661 13.9729C78.7773 13.9083 78.6783 13.8543 78.6018 13.7773C78.4741 13.6487 78.4263 13.4795 78.4676 13.3054C78.5674 12.8843 78.6815 12.4665 78.7886 12.051H79.2104C79.2923 12.368 79.3749 12.6873 79.4573 13.0065C79.4686 13.0498 79.4785 13.0934 79.4895 13.1367C79.6017 13.5685 79.5172 13.7676 79.1342 13.9729H78.8659H78.8661Z" fill="#F0C239"/>
<path d="M79.7871 11.7168C79.8673 11.5799 79.9374 11.4607 80.0179 11.3235C80.2025 11.373 80.3992 11.4244 80.5954 11.4782C80.8147 11.5382 81.0355 11.5947 81.2521 11.663C81.4893 11.7381 81.6211 11.9149 81.6463 12.1562C81.6694 12.3782 81.576 12.5593 81.383 12.6774C81.1882 12.7966 80.9129 12.7947 80.7532 12.6478C80.4242 12.3456 80.1089 12.0284 79.7874 11.7166L79.7871 11.7168Z" fill="#F0C239"/>
<path d="M79.3184 12.0238C79.4544 11.9441 79.5765 11.8726 79.7069 11.7961C79.7335 11.8196 79.7644 11.8438 79.7917 11.8717C80.055 12.1392 80.3185 12.4064 80.5805 12.6752C80.7597 12.8592 80.8078 13.1272 80.7031 13.3416C80.6065 13.5399 80.387 13.6661 80.1669 13.6502C79.9251 13.6327 79.7158 13.4578 79.6482 13.2146C79.5381 12.8196 79.4292 12.4244 79.3184 12.024V12.0238Z" fill="#F0C239"/>
<path d="M77.9839 11.3154C78.0609 11.4486 78.132 11.5718 78.2093 11.7053C78.1894 11.7282 78.1661 11.7596 78.1387 11.7866C77.8637 12.0559 77.5889 12.3255 77.3119 12.5929C77.1343 12.7646 76.8756 12.8017 76.6542 12.6919C76.4599 12.5956 76.3327 12.3742 76.3514 12.1638C76.3732 11.9195 76.5382 11.7206 76.7789 11.6528C77.182 11.5393 77.5854 11.4268 77.9839 11.3154Z" fill="#F0C239"/>
<path d="M79.6645 10.1766C79.5738 10.1236 79.4517 10.0521 79.3184 9.97405C79.4405 9.54409 79.5567 9.1093 79.6898 8.67988C79.7386 8.52248 79.8787 8.43396 80.0306 8.37934C80.26 8.29674 80.5185 8.38284 80.6591 8.58248C80.7911 8.77001 80.8032 9.0875 80.6465 9.24625C80.333 9.56373 79.9997 9.86131 79.6645 10.1766Z" fill="#F0C239"/>
<path d="M78.6805 9.97586C78.5455 10.055 78.4231 10.1268 78.2938 10.2027C78.2699 10.1822 78.2417 10.1615 78.2173 10.1368C77.9471 9.86232 77.6766 9.58815 77.4085 9.31182C77.2426 9.14097 77.1978 8.87326 77.2947 8.66447C77.3889 8.46106 77.6178 8.32976 77.8419 8.34994C78.0751 8.37093 78.2817 8.5399 78.3466 8.77021C78.4594 9.17003 78.5686 9.5712 78.6808 9.97586H78.6805Z" fill="#F0C239"/>
<path d="M79.793 10.2872C79.8214 10.2574 79.8507 10.2248 79.8821 10.1941C80.1467 9.93451 80.4113 9.67433 80.6769 9.41576C80.8653 9.23226 81.1122 9.18975 81.3422 9.29899C81.5392 9.39235 81.672 9.62267 81.6519 9.83576C81.6288 10.0809 81.4598 10.2773 81.2094 10.3478C80.8495 10.4492 80.4886 10.5477 80.1292 10.6518C80.0428 10.6768 79.9937 10.669 79.9561 10.5741C79.9175 10.4761 79.8523 10.3889 79.793 10.2872Z" fill="#F0C239"/>
<path d="M78.2825 11.7905C78.4124 11.8613 78.5272 11.9189 78.6362 11.9867C78.6587 12.0007 78.6737 12.0558 78.6657 12.0849C78.5565 12.4852 78.4521 12.8872 78.3265 13.2825C78.2527 13.5149 78.0568 13.6269 77.8246 13.6451C77.6027 13.6626 77.421 13.5599 77.3153 13.3629C77.2088 13.1646 77.1964 12.9378 77.3451 12.7683C77.6446 12.4269 77.9728 12.1107 78.2825 11.7908V11.7905Z" fill="#F0C239"/>
<path d="M76.9327 9.20947C77.0535 9.26893 77.1949 9.30526 77.2912 9.39189C77.5862 9.65799 77.8626 9.94481 78.1492 10.2203C78.2061 10.2749 78.2122 10.3164 78.1605 10.3772C78.1205 10.424 78.081 10.4781 78.063 10.5359C78.0239 10.6627 77.9578 10.6793 77.8355 10.6422C77.4777 10.5338 77.1152 10.4407 76.7556 10.339C76.5001 10.2666 76.3179 9.98571 76.3568 9.73064C76.4022 9.43467 76.6276 9.23772 76.933 9.20947H76.9327Z" fill="#F0C239"/>
<path d="M80.044 11.0005C80.0505 10.7885 80.0499 10.7869 80.252 10.7341C80.6014 10.6429 80.95 10.549 81.3016 10.4664C81.5702 10.4032 81.8654 10.5811 81.9494 10.842C82.0691 11.2139 81.7167 11.6207 81.3279 11.5378C80.9183 11.4506 80.5147 11.335 80.11 11.2263C80.0819 11.2187 80.0558 11.1692 80.0467 11.1345C80.0357 11.0925 80.044 11.0457 80.044 11.0008V11.0005Z" fill="#F0C239"/>
<path d="M77.9559 10.9975C77.9559 11.0379 77.9661 11.0818 77.9532 11.1175C77.9385 11.1587 77.9098 11.2166 77.8757 11.2257C77.493 11.3306 77.1093 11.4326 76.7233 11.5249C76.4845 11.5819 76.2475 11.4794 76.1152 11.2819C75.9953 11.1027 75.9982 10.8827 76.1233 10.7037C76.261 10.5065 76.4923 10.4148 76.7349 10.4737C77.0728 10.5558 77.409 10.6451 77.7455 10.7328C77.9514 10.7866 77.9508 10.788 77.9559 10.9973V10.9975Z" fill="#F0C239"/>
<path d="M78.9979 11.9098C78.476 11.8905 78.0697 11.4621 78.0927 10.9557C78.115 10.4685 78.5465 10.0662 79.0247 10.0864C79.5242 10.1077 79.9297 10.5352 79.9093 11.0182C79.8883 11.5146 79.4665 11.927 78.9976 11.9096L78.9979 11.9098ZM79.0068 10.2807C78.6273 10.2713 78.2908 10.596 78.2825 10.9797C78.2739 11.3811 78.6002 11.7123 79.0111 11.7193C79.3771 11.7255 79.7096 11.3965 79.7211 11.0163C79.7332 10.6202 79.4131 10.2909 79.0065 10.2807H79.0068Z" fill="#EA4200"/>
<path d="M79.0074 10.2807C79.414 10.2907 79.7341 10.6203 79.722 11.0163C79.7105 11.3965 79.378 11.7256 79.012 11.7194C78.6008 11.7124 78.2748 11.3812 78.2834 10.9797C78.2917 10.5963 78.6282 10.2713 79.0077 10.2807H79.0074Z" fill="#F0C239" stroke="black" stroke-width="0.5" stroke-miterlimit="10"/>
</g>
<g clip-path="url(#clip6_4836_17635)">
<path d="M96.1354 8.02664C96.5146 8.2217 96.608 8.43157 96.5003 8.84619C96.4053 9.21265 96.3109 9.5791 96.2164 9.94529H95.7889C95.7369 9.74942 95.6813 9.54439 95.6276 9.33883C95.585 9.17471 95.5453 9.01004 95.5026 8.84592C95.395 8.43211 95.4889 8.22009 95.8667 8.02637H96.1351L96.1354 8.02664Z" fill="#F0C239"/>
<path d="M95.8661 13.9729C95.7773 13.9083 95.6783 13.8543 95.6018 13.7773C95.4741 13.6487 95.4263 13.4795 95.4676 13.3054C95.5674 12.8843 95.6815 12.4665 95.7886 12.051H96.2104C96.2923 12.368 96.3749 12.6873 96.4573 13.0065C96.4686 13.0498 96.4785 13.0934 96.4895 13.1367C96.6017 13.5685 96.5172 13.7676 96.1342 13.9729H95.8659H95.8661Z" fill="#F0C239"/>
<path d="M96.7871 11.7168C96.8673 11.5799 96.9374 11.4607 97.0179 11.3235C97.2025 11.373 97.3992 11.4244 97.5954 11.4782C97.8147 11.5382 98.0355 11.5947 98.2521 11.663C98.4893 11.7381 98.6211 11.9149 98.6463 12.1562C98.6694 12.3782 98.576 12.5593 98.383 12.6774C98.1882 12.7966 97.9129 12.7947 97.7532 12.6478C97.4242 12.3456 97.1089 12.0284 96.7874 11.7166L96.7871 11.7168Z" fill="#F0C239"/>
<path d="M96.3184 12.0238C96.4544 11.9441 96.5765 11.8726 96.7069 11.7961C96.7335 11.8196 96.7644 11.8438 96.7917 11.8717C97.055 12.1392 97.3185 12.4064 97.5805 12.6752C97.7597 12.8592 97.8078 13.1272 97.7031 13.3416C97.6065 13.5399 97.387 13.6661 97.1669 13.6502C96.9251 13.6327 96.7158 13.4578 96.6482 13.2146C96.5381 12.8196 96.4292 12.4244 96.3184 12.024V12.0238Z" fill="#F0C239"/>
<path d="M94.9839 11.3154C95.0609 11.4486 95.132 11.5718 95.2093 11.7053C95.1894 11.7282 95.1661 11.7596 95.1387 11.7866C94.8637 12.0559 94.5889 12.3255 94.3119 12.5929C94.1343 12.7646 93.8756 12.8017 93.6542 12.6919C93.4599 12.5956 93.3327 12.3742 93.3514 12.1638C93.3732 11.9195 93.5382 11.7206 93.7789 11.6528C94.182 11.5393 94.5854 11.4268 94.9839 11.3154Z" fill="#F0C239"/>
<path d="M96.6645 10.1766C96.5738 10.1236 96.4517 10.0521 96.3184 9.97405C96.4405 9.54409 96.5567 9.1093 96.6898 8.67988C96.7386 8.52248 96.8787 8.43396 97.0306 8.37934C97.26 8.29674 97.5185 8.38284 97.6591 8.58248C97.7911 8.77001 97.8032 9.0875 97.6465 9.24625C97.333 9.56373 96.9997 9.86131 96.6645 10.1766Z" fill="#F0C239"/>
<path d="M95.6805 9.97586C95.5455 10.055 95.4231 10.1268 95.2938 10.2027C95.2699 10.1822 95.2417 10.1615 95.2173 10.1368C94.9471 9.86232 94.6766 9.58815 94.4085 9.31182C94.2426 9.14097 94.1978 8.87326 94.2947 8.66447C94.3889 8.46106 94.6178 8.32976 94.8419 8.34994C95.0751 8.37093 95.2817 8.5399 95.3466 8.77021C95.4594 9.17003 95.5686 9.5712 95.6808 9.97586H95.6805Z" fill="#F0C239"/>
<path d="M96.793 10.2872C96.8214 10.2574 96.8507 10.2248 96.8821 10.1941C97.1467 9.93451 97.4113 9.67433 97.6769 9.41576C97.8653 9.23226 98.1122 9.18975 98.3422 9.29899C98.5392 9.39235 98.672 9.62267 98.6519 9.83576C98.6288 10.0809 98.4598 10.2773 98.2094 10.3478C97.8495 10.4492 97.4886 10.5477 97.1292 10.6518C97.0428 10.6768 96.9937 10.669 96.9561 10.5741C96.9175 10.4761 96.8523 10.3889 96.793 10.2872Z" fill="#F0C239"/>
<path d="M95.2825 11.7905C95.4124 11.8613 95.5272 11.9189 95.6362 11.9867C95.6587 12.0007 95.6737 12.0558 95.6657 12.0849C95.5565 12.4852 95.4521 12.8872 95.3265 13.2825C95.2527 13.5149 95.0568 13.6269 94.8246 13.6451C94.6027 13.6626 94.421 13.5599 94.3153 13.3629C94.2088 13.1646 94.1964 12.9378 94.3451 12.7683C94.6446 12.4269 94.9728 12.1107 95.2825 11.7908V11.7905Z" fill="#F0C239"/>
<path d="M93.9327 9.20947C94.0535 9.26893 94.1949 9.30526 94.2912 9.39189C94.5862 9.65799 94.8626 9.94481 95.1492 10.2203C95.2061 10.2749 95.2122 10.3164 95.1605 10.3772C95.1205 10.424 95.081 10.4781 95.063 10.5359C95.0239 10.6627 94.9578 10.6793 94.8355 10.6422C94.4777 10.5338 94.1152 10.4407 93.7556 10.339C93.5001 10.2666 93.3179 9.98571 93.3568 9.73064C93.4022 9.43467 93.6276 9.23772 93.933 9.20947H93.9327Z" fill="#F0C239"/>
<path d="M97.044 11.0005C97.0505 10.7885 97.0499 10.7869 97.252 10.7341C97.6014 10.6429 97.95 10.549 98.3016 10.4664C98.5702 10.4032 98.8654 10.5811 98.9494 10.842C99.0691 11.2139 98.7167 11.6207 98.3279 11.5378C97.9183 11.4506 97.5147 11.335 97.11 11.2263C97.0819 11.2187 97.0558 11.1692 97.0467 11.1345C97.0357 11.0925 97.044 11.0457 97.044 11.0008V11.0005Z" fill="#F0C239"/>
<path d="M94.9559 10.9975C94.9559 11.0379 94.9661 11.0818 94.9532 11.1175C94.9385 11.1587 94.9098 11.2166 94.8757 11.2257C94.493 11.3306 94.1093 11.4326 93.7233 11.5249C93.4845 11.5819 93.2475 11.4794 93.1152 11.2819C92.9953 11.1027 92.9982 10.8827 93.1233 10.7037C93.261 10.5065 93.4923 10.4148 93.7349 10.4737C94.0728 10.5558 94.409 10.6451 94.7455 10.7328C94.9514 10.7866 94.9508 10.788 94.9559 10.9973V10.9975Z" fill="#F0C239"/>
<path d="M95.9979 11.9098C95.476 11.8905 95.0697 11.4621 95.0927 10.9557C95.115 10.4685 95.5465 10.0662 96.0247 10.0864C96.5242 10.1077 96.9297 10.5352 96.9093 11.0182C96.8883 11.5146 96.4665 11.927 95.9976 11.9096L95.9979 11.9098ZM96.0068 10.2807C95.6273 10.2713 95.2908 10.596 95.2825 10.9797C95.2739 11.3811 95.6002 11.7123 96.0111 11.7193C96.3771 11.7255 96.7096 11.3965 96.7211 11.0163C96.7332 10.6202 96.4131 10.2909 96.0065 10.2807H96.0068Z" fill="#EA4200"/>
<path d="M96.0074 10.2807C96.414 10.2907 96.7341 10.6203 96.722 11.0163C96.7105 11.3965 96.378 11.7256 96.012 11.7194C95.6008 11.7124 95.2748 11.3812 95.2834 10.9797C95.2917 10.5963 95.6282 10.2713 96.0077 10.2807H96.0074Z" fill="#F0C239" stroke="black" stroke-width="0.5" stroke-miterlimit="10"/>
</g>
<g clip-path="url(#clip7_4836_17635)">
<path d="M112.135 8.02664C112.515 8.2217 112.608 8.43157 112.5 8.84619C112.405 9.21265 112.311 9.5791 112.216 9.94529H111.789C111.737 9.74942 111.681 9.54439 111.628 9.33883C111.585 9.17471 111.545 9.01004 111.503 8.84592C111.395 8.43211 111.489 8.22009 111.867 8.02637H112.135L112.135 8.02664Z" fill="#F0C239"/>
<path d="M111.866 13.9729C111.777 13.9083 111.678 13.8543 111.602 13.7773C111.474 13.6487 111.426 13.4795 111.468 13.3054C111.567 12.8843 111.682 12.4665 111.789 12.051H112.21C112.292 12.368 112.375 12.6873 112.457 13.0065C112.469 13.0498 112.479 13.0934 112.49 13.1367C112.602 13.5685 112.517 13.7676 112.134 13.9729H111.866H111.866Z" fill="#F0C239"/>
<path d="M112.787 11.7168C112.867 11.5799 112.937 11.4607 113.018 11.3235C113.203 11.373 113.399 11.4244 113.595 11.4782C113.815 11.5382 114.036 11.5947 114.252 11.663C114.489 11.7381 114.621 11.9149 114.646 12.1562C114.669 12.3782 114.576 12.5593 114.383 12.6774C114.188 12.7966 113.913 12.7947 113.753 12.6478C113.424 12.3456 113.109 12.0284 112.787 11.7166L112.787 11.7168Z" fill="#F0C239"/>
<path d="M112.316 12.0238C112.452 11.9441 112.575 11.8726 112.705 11.7961C112.732 11.8196 112.762 11.8438 112.79 11.8717C113.053 12.1392 113.317 12.4064 113.579 12.6752C113.758 12.8592 113.806 13.1272 113.701 13.3416C113.605 13.5399 113.385 13.6661 113.165 13.6502C112.923 13.6327 112.714 13.4578 112.646 13.2146C112.536 12.8196 112.427 12.4244 112.316 12.024V12.0238Z" fill="#F0C239"/>
<path d="M110.984 11.3154C111.061 11.4486 111.132 11.5718 111.209 11.7053C111.189 11.7282 111.166 11.7596 111.139 11.7866C110.864 12.0559 110.589 12.3255 110.312 12.5929C110.134 12.7646 109.876 12.8017 109.654 12.6919C109.46 12.5956 109.333 12.3742 109.351 12.1638C109.373 11.9195 109.538 11.7206 109.779 11.6528C110.182 11.5393 110.585 11.4268 110.984 11.3154Z" fill="#F0C239"/>
<path d="M112.665 10.1766C112.574 10.1236 112.452 10.0521 112.318 9.97405C112.44 9.54409 112.557 9.1093 112.69 8.67988C112.739 8.52248 112.879 8.43396 113.031 8.37934C113.26 8.29674 113.518 8.38284 113.659 8.58248C113.791 8.77001 113.803 9.0875 113.646 9.24625C113.333 9.56373 113 9.86131 112.665 10.1766Z" fill="#F0C239"/>
<path d="M111.68 9.97586C111.546 10.055 111.423 10.1268 111.294 10.2027C111.27 10.1822 111.242 10.1615 111.217 10.1368C110.947 9.86232 110.677 9.58815 110.408 9.31182C110.243 9.14097 110.198 8.87326 110.295 8.66447C110.389 8.46106 110.618 8.32976 110.842 8.34994C111.075 8.37093 111.282 8.5399 111.347 8.77021C111.459 9.17003 111.569 9.5712 111.681 9.97586H111.68Z" fill="#F0C239"/>
<path d="M112.793 10.2872C112.821 10.2574 112.851 10.2248 112.882 10.1941C113.147 9.93451 113.411 9.67433 113.677 9.41576C113.865 9.23226 114.112 9.18975 114.342 9.29899C114.539 9.39235 114.672 9.62267 114.652 9.83576C114.629 10.0809 114.46 10.2773 114.209 10.3478C113.85 10.4492 113.489 10.5477 113.129 10.6518C113.043 10.6768 112.994 10.669 112.956 10.5741C112.917 10.4761 112.852 10.3889 112.793 10.2872Z" fill="#F0C239"/>
<path d="M111.282 11.7905C111.412 11.8613 111.527 11.9189 111.636 11.9867C111.659 12.0007 111.674 12.0558 111.666 12.0849C111.556 12.4852 111.452 12.8872 111.326 13.2825C111.253 13.5149 111.057 13.6269 110.825 13.6451C110.603 13.6626 110.421 13.5599 110.315 13.3629C110.209 13.1646 110.196 12.9378 110.345 12.7683C110.645 12.4269 110.973 12.1107 111.282 11.7908V11.7905Z" fill="#F0C239"/>
<path d="M109.933 9.20947C110.053 9.26893 110.195 9.30526 110.291 9.39189C110.586 9.65799 110.863 9.94481 111.149 10.2203C111.206 10.2749 111.212 10.3164 111.16 10.3772C111.12 10.424 111.081 10.4781 111.063 10.5359C111.024 10.6627 110.958 10.6793 110.835 10.6422C110.478 10.5338 110.115 10.4407 109.756 10.339C109.5 10.2666 109.318 9.98571 109.357 9.73064C109.402 9.43467 109.628 9.23772 109.933 9.20947H109.933Z" fill="#F0C239"/>
<path d="M113.044 11.0005C113.05 10.7885 113.05 10.7869 113.252 10.7341C113.601 10.6429 113.95 10.549 114.302 10.4664C114.57 10.4032 114.865 10.5811 114.949 10.842C115.069 11.2139 114.717 11.6207 114.328 11.5378C113.918 11.4506 113.515 11.335 113.11 11.2263C113.082 11.2187 113.056 11.1692 113.047 11.1345C113.036 11.0925 113.044 11.0457 113.044 11.0008V11.0005Z" fill="#F0C239"/>
<path d="M110.956 10.9975C110.956 11.0379 110.966 11.0818 110.953 11.1175C110.938 11.1587 110.91 11.2166 110.876 11.2257C110.493 11.3306 110.109 11.4326 109.723 11.5249C109.485 11.5819 109.248 11.4794 109.115 11.2819C108.995 11.1027 108.998 10.8827 109.123 10.7037C109.261 10.5065 109.492 10.4148 109.735 10.4737C110.073 10.5558 110.409 10.6451 110.746 10.7328C110.951 10.7866 110.951 10.788 110.956 10.9973V10.9975Z" fill="#F0C239"/>
<path d="M111.998 11.9098C111.476 11.8905 111.07 11.4621 111.093 10.9557C111.115 10.4685 111.547 10.0662 112.025 10.0864C112.524 10.1077 112.93 10.5352 112.909 11.0182C112.888 11.5146 112.466 11.927 111.998 11.9096L111.998 11.9098ZM112.007 10.2807C111.627 10.2713 111.291 10.596 111.282 10.9797C111.274 11.3811 111.6 11.7123 112.011 11.7193C112.377 11.7255 112.71 11.3965 112.721 11.0163C112.733 10.6202 112.413 10.2909 112.007 10.2807H112.007Z" fill="#EA4200"/>
<path d="M112.007 10.2805C112.414 10.2904 112.734 10.62 112.722 11.0161C112.711 11.3963 112.378 11.7253 112.012 11.7191C111.601 11.7121 111.275 11.3809 111.283 10.9795C111.292 10.5961 111.628 10.2711 112.008 10.2805H112.007Z" fill="#F0C239" stroke="black" stroke-width="0.5" stroke-miterlimit="10"/>
</g>
<g clip-path="url(#clip8_4836_17635)">
<path d="M129.135 8.02664C129.515 8.2217 129.608 8.43157 129.5 8.84619C129.405 9.21265 129.311 9.5791 129.216 9.94529H128.789C128.737 9.74942 128.681 9.54439 128.628 9.33883C128.585 9.17471 128.545 9.01004 128.503 8.84592C128.395 8.43211 128.489 8.22009 128.867 8.02637H129.135L129.135 8.02664Z" fill="#F0C239"/>
<path d="M128.866 13.9729C128.777 13.9083 128.678 13.8543 128.602 13.7773C128.474 13.6487 128.426 13.4795 128.468 13.3054C128.567 12.8843 128.682 12.4665 128.789 12.051H129.21C129.292 12.368 129.375 12.6873 129.457 13.0065C129.469 13.0498 129.479 13.0934 129.49 13.1367C129.602 13.5685 129.517 13.7676 129.134 13.9729H128.866H128.866Z" fill="#F0C239"/>
<path d="M129.787 11.7168C129.867 11.5799 129.937 11.4607 130.018 11.3235C130.203 11.373 130.399 11.4244 130.595 11.4782C130.815 11.5382 131.036 11.5947 131.252 11.663C131.489 11.7381 131.621 11.9149 131.646 12.1562C131.669 12.3782 131.576 12.5593 131.383 12.6774C131.188 12.7966 130.913 12.7947 130.753 12.6478C130.424 12.3456 130.109 12.0284 129.787 11.7166L129.787 11.7168Z" fill="#F0C239"/>
<path d="M129.318 12.0238C129.454 11.9441 129.577 11.8726 129.707 11.7961C129.734 11.8196 129.764 11.8438 129.792 11.8717C130.055 12.1392 130.319 12.4064 130.58 12.6752C130.76 12.8592 130.808 13.1272 130.703 13.3416C130.606 13.5399 130.387 13.6661 130.167 13.6502C129.925 13.6327 129.716 13.4578 129.648 13.2146C129.538 12.8196 129.429 12.4244 129.318 12.024V12.0238Z" fill="#F0C239"/>
<path d="M127.984 11.3154C128.061 11.4486 128.132 11.5718 128.209 11.7053C128.189 11.7282 128.166 11.7596 128.139 11.7866C127.864 12.0559 127.589 12.3255 127.312 12.5929C127.134 12.7646 126.876 12.8017 126.654 12.6919C126.46 12.5956 126.333 12.3742 126.351 12.1638C126.373 11.9195 126.538 11.7206 126.779 11.6528C127.182 11.5393 127.585 11.4268 127.984 11.3154Z" fill="#F0C239"/>
<path d="M129.665 10.1766C129.574 10.1236 129.452 10.0521 129.318 9.97405C129.44 9.54409 129.557 9.1093 129.69 8.67988C129.739 8.52248 129.879 8.43396 130.031 8.37934C130.26 8.29674 130.518 8.38284 130.659 8.58248C130.791 8.77001 130.803 9.0875 130.646 9.24625C130.333 9.56373 130 9.86131 129.665 10.1766Z" fill="#F0C239"/>
<path d="M128.68 9.97586C128.546 10.055 128.423 10.1268 128.294 10.2027C128.27 10.1822 128.242 10.1615 128.217 10.1368C127.947 9.86232 127.677 9.58815 127.408 9.31182C127.243 9.14097 127.198 8.87326 127.295 8.66447C127.389 8.46106 127.618 8.32976 127.842 8.34994C128.075 8.37093 128.282 8.5399 128.347 8.77021C128.459 9.17003 128.569 9.5712 128.681 9.97586H128.68Z" fill="#F0C239"/>
<path d="M129.793 10.2872C129.821 10.2574 129.851 10.2248 129.882 10.1941C130.147 9.93451 130.411 9.67433 130.677 9.41576C130.865 9.23226 131.112 9.18975 131.342 9.29899C131.539 9.39235 131.672 9.62267 131.652 9.83576C131.629 10.0809 131.46 10.2773 131.209 10.3478C130.85 10.4492 130.489 10.5477 130.129 10.6518C130.043 10.6768 129.994 10.669 129.956 10.5741C129.917 10.4761 129.852 10.3889 129.793 10.2872Z" fill="#F0C239"/>
<path d="M128.282 11.7905C128.412 11.8613 128.527 11.9189 128.636 11.9867C128.659 12.0007 128.674 12.0558 128.666 12.0849C128.556 12.4852 128.452 12.8872 128.326 13.2825C128.253 13.5149 128.057 13.6269 127.825 13.6451C127.603 13.6626 127.421 13.5599 127.315 13.3629C127.209 13.1646 127.196 12.9378 127.345 12.7683C127.645 12.4269 127.973 12.1107 128.282 11.7908V11.7905Z" fill="#F0C239"/>
<path d="M126.933 9.20947C127.053 9.26893 127.195 9.30526 127.291 9.39189C127.586 9.65799 127.863 9.94481 128.149 10.2203C128.206 10.2749 128.212 10.3164 128.16 10.3772C128.12 10.424 128.081 10.4781 128.063 10.5359C128.024 10.6627 127.958 10.6793 127.835 10.6422C127.478 10.5338 127.115 10.4407 126.756 10.339C126.5 10.2666 126.318 9.98571 126.357 9.73064C126.402 9.43467 126.628 9.23772 126.933 9.20947H126.933Z" fill="#F0C239"/>
<path d="M130.044 11.0005C130.05 10.7885 130.05 10.7869 130.252 10.7341C130.601 10.6429 130.95 10.549 131.302 10.4664C131.57 10.4032 131.865 10.5811 131.949 10.842C132.069 11.2139 131.717 11.6207 131.328 11.5378C130.918 11.4506 130.515 11.335 130.11 11.2263C130.082 11.2187 130.056 11.1692 130.047 11.1345C130.036 11.0925 130.044 11.0457 130.044 11.0008V11.0005Z" fill="#F0C239"/>
<path d="M127.956 10.9975C127.956 11.0379 127.966 11.0818 127.953 11.1175C127.938 11.1587 127.91 11.2166 127.876 11.2257C127.493 11.3306 127.109 11.4326 126.723 11.5249C126.485 11.5819 126.248 11.4794 126.115 11.2819C125.995 11.1027 125.998 10.8827 126.123 10.7037C126.261 10.5065 126.492 10.4148 126.735 10.4737C127.073 10.5558 127.409 10.6451 127.746 10.7328C127.951 10.7866 127.951 10.788 127.956 10.9973V10.9975Z" fill="#F0C239"/>
<path d="M128.998 11.9098C128.476 11.8905 128.07 11.4621 128.093 10.9557C128.115 10.4685 128.547 10.0662 129.025 10.0864C129.524 10.1077 129.93 10.5352 129.909 11.0182C129.888 11.5146 129.466 11.927 128.998 11.9096L128.998 11.9098ZM129.007 10.2807C128.627 10.2713 128.291 10.596 128.282 10.9797C128.274 11.3811 128.6 11.7123 129.011 11.7193C129.377 11.7255 129.71 11.3965 129.721 11.0163C129.733 10.6202 129.413 10.2909 129.007 10.2807H129.007Z" fill="#EA4200"/>
<path d="M129.007 10.2805C129.414 10.2904 129.734 10.62 129.722 11.0161C129.711 11.3963 129.378 11.7253 129.012 11.7191C128.601 11.7121 128.275 11.3809 128.283 10.9795C128.292 10.5961 128.628 10.2711 129.008 10.2805H129.007Z" fill="#F0C239" stroke="black" stroke-width="0.5" stroke-miterlimit="10"/>
</g>
<g clip-path="url(#clip9_4836_17635)">
<path d="M145.635 8.02664C146.015 8.2217 146.108 8.43157 146 8.84619C145.905 9.21265 145.811 9.5791 145.716 9.94529H145.289C145.237 9.74942 145.181 9.54439 145.128 9.33883C145.085 9.17471 145.045 9.01004 145.003 8.84592C144.895 8.43211 144.989 8.22009 145.367 8.02637H145.635L145.635 8.02664Z" fill="#F0C239"/>
<path d="M145.366 13.9729C145.277 13.9083 145.178 13.8543 145.102 13.7773C144.974 13.6487 144.926 13.4795 144.968 13.3054C145.067 12.8843 145.182 12.4665 145.289 12.051H145.71C145.792 12.368 145.875 12.6873 145.957 13.0065C145.969 13.0498 145.979 13.0934 145.99 13.1367C146.102 13.5685 146.017 13.7676 145.634 13.9729H145.366H145.366Z" fill="#F0C239"/>
<path d="M146.287 11.7168C146.367 11.5799 146.437 11.4607 146.518 11.3235C146.703 11.373 146.899 11.4244 147.095 11.4782C147.315 11.5382 147.536 11.5947 147.752 11.663C147.989 11.7381 148.121 11.9149 148.146 12.1562C148.169 12.3782 148.076 12.5593 147.883 12.6774C147.688 12.7966 147.413 12.7947 147.253 12.6478C146.924 12.3456 146.609 12.0284 146.287 11.7166L146.287 11.7168Z" fill="#F0C239"/>
<path d="M145.818 12.0238C145.954 11.9441 146.077 11.8726 146.207 11.7961C146.234 11.8196 146.264 11.8438 146.292 11.8717C146.555 12.1392 146.819 12.4064 147.08 12.6752C147.26 12.8592 147.308 13.1272 147.203 13.3416C147.106 13.5399 146.887 13.6661 146.667 13.6502C146.425 13.6327 146.216 13.4578 146.148 13.2146C146.038 12.8196 145.929 12.4244 145.818 12.024V12.0238Z" fill="#F0C239"/>
<path d="M144.484 11.3154C144.561 11.4486 144.632 11.5718 144.709 11.7053C144.689 11.7282 144.666 11.7596 144.639 11.7866C144.364 12.0559 144.089 12.3255 143.812 12.5929C143.634 12.7646 143.376 12.8017 143.154 12.6919C142.96 12.5956 142.833 12.3742 142.851 12.1638C142.873 11.9195 143.038 11.7206 143.279 11.6528C143.682 11.5393 144.085 11.4268 144.484 11.3154Z" fill="#F0C239"/>
<path d="M146.165 10.1766C146.074 10.1236 145.952 10.0521 145.818 9.97405C145.94 9.54409 146.057 9.1093 146.19 8.67988C146.239 8.52248 146.379 8.43396 146.531 8.37934C146.76 8.29674 147.018 8.38284 147.159 8.58248C147.291 8.77001 147.303 9.0875 147.146 9.24625C146.833 9.56373 146.5 9.86131 146.165 10.1766Z" fill="#F0C239"/>
<path d="M145.18 9.97586C145.046 10.055 144.923 10.1268 144.794 10.2027C144.77 10.1822 144.742 10.1615 144.717 10.1368C144.447 9.86232 144.177 9.58815 143.908 9.31182C143.743 9.14097 143.698 8.87326 143.795 8.66447C143.889 8.46106 144.118 8.32976 144.342 8.34994C144.575 8.37093 144.782 8.5399 144.847 8.77021C144.959 9.17003 145.069 9.5712 145.181 9.97586H145.18Z" fill="#F0C239"/>
<path d="M146.293 10.2872C146.321 10.2574 146.351 10.2248 146.382 10.1941C146.647 9.93451 146.911 9.67433 147.177 9.41576C147.365 9.23226 147.612 9.18975 147.842 9.29899C148.039 9.39235 148.172 9.62267 148.152 9.83576C148.129 10.0809 147.96 10.2773 147.709 10.3478C147.35 10.4492 146.989 10.5477 146.629 10.6518C146.543 10.6768 146.494 10.669 146.456 10.5741C146.417 10.4761 146.352 10.3889 146.293 10.2872Z" fill="#F0C239"/>
<path d="M144.782 11.7905C144.912 11.8613 145.027 11.9189 145.136 11.9867C145.159 12.0007 145.174 12.0558 145.166 12.0849C145.056 12.4852 144.952 12.8872 144.826 13.2825C144.753 13.5149 144.557 13.6269 144.325 13.6451C144.103 13.6626 143.921 13.5599 143.815 13.3629C143.709 13.1646 143.696 12.9378 143.845 12.7683C144.145 12.4269 144.473 12.1107 144.782 11.7908V11.7905Z" fill="#F0C239"/>
<path d="M143.433 9.20947C143.553 9.26893 143.695 9.30526 143.791 9.39189C144.086 9.65799 144.363 9.94481 144.649 10.2203C144.706 10.2749 144.712 10.3164 144.66 10.3772C144.62 10.424 144.581 10.4781 144.563 10.5359C144.524 10.6627 144.458 10.6793 144.335 10.6422C143.978 10.5338 143.615 10.4407 143.256 10.339C143 10.2666 142.818 9.98571 142.857 9.73064C142.902 9.43467 143.128 9.23772 143.433 9.20947H143.433Z" fill="#F0C239"/>
<path d="M146.546 11.0005C146.552 10.7885 146.552 10.7869 146.754 10.7341C147.103 10.6429 147.452 10.549 147.804 10.4664C148.072 10.4032 148.367 10.5811 148.451 10.842C148.571 11.2139 148.219 11.6207 147.83 11.5378C147.42 11.4506 147.017 11.335 146.612 11.2263C146.584 11.2187 146.558 11.1692 146.549 11.1345C146.538 11.0925 146.546 11.0457 146.546 11.0008V11.0005Z" fill="#F0C239"/>
<path d="M144.456 10.9975C144.456 11.0379 144.466 11.0818 144.453 11.1175C144.438 11.1587 144.41 11.2166 144.376 11.2257C143.993 11.3306 143.609 11.4326 143.223 11.5249C142.985 11.5819 142.748 11.4794 142.615 11.2819C142.495 11.1027 142.498 10.8827 142.623 10.7037C142.761 10.5065 142.992 10.4148 143.235 10.4737C143.573 10.5558 143.909 10.6451 144.246 10.7328C144.451 10.7866 144.451 10.788 144.456 10.9973V10.9975Z" fill="#F0C239"/>
<path d="M145.5 11.9098C144.978 11.8905 144.572 11.4621 144.595 10.9557C144.617 10.4685 145.048 10.0662 145.527 10.0864C146.026 10.1077 146.432 10.5352 146.411 11.0182C146.39 11.5146 145.968 11.927 145.5 11.9096L145.5 11.9098ZM145.509 10.2807C145.129 10.2713 144.793 10.596 144.784 10.9797C144.776 11.3811 145.102 11.7123 145.513 11.7193C145.879 11.7255 146.212 11.3965 146.223 11.0163C146.235 10.6202 145.915 10.2909 145.508 10.2807H145.509Z" fill="#EA4200"/>
<path d="M145.507 10.2807C145.914 10.2907 146.234 10.6203 146.222 11.0163C146.211 11.3965 145.878 11.7256 145.512 11.7194C145.101 11.7124 144.775 11.3812 144.783 10.9797C144.792 10.5963 145.128 10.2713 145.508 10.2807H145.507Z" fill="#F0C239" stroke="black" stroke-width="0.5" stroke-miterlimit="10"/>
</g>
<g clip-path="url(#clip10_4836_17635)">
<path d="M162.135 8.02664C162.515 8.2217 162.608 8.43157 162.5 8.84619C162.405 9.21265 162.311 9.5791 162.216 9.94529H161.789C161.737 9.74942 161.681 9.54439 161.628 9.33883C161.585 9.17471 161.545 9.01004 161.503 8.84592C161.395 8.43211 161.489 8.22009 161.867 8.02637H162.135L162.135 8.02664Z" fill="#F0C239"/>
<path d="M161.866 13.9729C161.777 13.9083 161.678 13.8543 161.602 13.7773C161.474 13.6487 161.426 13.4795 161.468 13.3054C161.567 12.8843 161.682 12.4665 161.789 12.051H162.21C162.292 12.368 162.375 12.6873 162.457 13.0065C162.469 13.0498 162.479 13.0934 162.49 13.1367C162.602 13.5685 162.517 13.7676 162.134 13.9729H161.866H161.866Z" fill="#F0C239"/>
<path d="M162.787 11.7168C162.867 11.5799 162.937 11.4607 163.018 11.3235C163.203 11.373 163.399 11.4244 163.595 11.4782C163.815 11.5382 164.036 11.5947 164.252 11.663C164.489 11.7381 164.621 11.9149 164.646 12.1562C164.669 12.3782 164.576 12.5593 164.383 12.6774C164.188 12.7966 163.913 12.7947 163.753 12.6478C163.424 12.3456 163.109 12.0284 162.787 11.7166L162.787 11.7168Z" fill="#F0C239"/>
<path d="M162.318 12.0238C162.454 11.9441 162.577 11.8726 162.707 11.7961C162.734 11.8196 162.764 11.8438 162.792 11.8717C163.055 12.1392 163.319 12.4064 163.58 12.6752C163.76 12.8592 163.808 13.1272 163.703 13.3416C163.606 13.5399 163.387 13.6661 163.167 13.6502C162.925 13.6327 162.716 13.4578 162.648 13.2146C162.538 12.8196 162.429 12.4244 162.318 12.024V12.0238Z" fill="#F0C239"/>
<path d="M160.984 11.3154C161.061 11.4486 161.132 11.5718 161.209 11.7053C161.189 11.7282 161.166 11.7596 161.139 11.7866C160.864 12.0559 160.589 12.3255 160.312 12.5929C160.134 12.7646 159.876 12.8017 159.654 12.6919C159.46 12.5956 159.333 12.3742 159.351 12.1638C159.373 11.9195 159.538 11.7206 159.779 11.6528C160.182 11.5393 160.585 11.4268 160.984 11.3154Z" fill="#F0C239"/>
<path d="M162.665 10.1766C162.574 10.1236 162.452 10.0521 162.318 9.97405C162.44 9.54409 162.557 9.1093 162.69 8.67988C162.739 8.52248 162.879 8.43396 163.031 8.37934C163.26 8.29674 163.518 8.38284 163.659 8.58248C163.791 8.77001 163.803 9.0875 163.646 9.24625C163.333 9.56373 163 9.86131 162.665 10.1766Z" fill="#F0C239"/>
<path d="M161.68 9.97586C161.546 10.055 161.423 10.1268 161.294 10.2027C161.27 10.1822 161.242 10.1615 161.217 10.1368C160.947 9.86232 160.677 9.58815 160.408 9.31182C160.243 9.14097 160.198 8.87326 160.295 8.66447C160.389 8.46106 160.618 8.32976 160.842 8.34994C161.075 8.37093 161.282 8.5399 161.347 8.77021C161.459 9.17003 161.569 9.5712 161.681 9.97586H161.68Z" fill="#F0C239"/>
<path d="M162.793 10.2872C162.821 10.2574 162.851 10.2248 162.882 10.1941C163.147 9.93451 163.411 9.67433 163.677 9.41576C163.865 9.23226 164.112 9.18975 164.342 9.29899C164.539 9.39235 164.672 9.62267 164.652 9.83576C164.629 10.0809 164.46 10.2773 164.209 10.3478C163.85 10.4492 163.489 10.5477 163.129 10.6518C163.043 10.6768 162.994 10.669 162.956 10.5741C162.917 10.4761 162.852 10.3889 162.793 10.2872Z" fill="#F0C239"/>
<path d="M161.282 11.7905C161.412 11.8613 161.527 11.9189 161.636 11.9867C161.659 12.0007 161.674 12.0558 161.666 12.0849C161.556 12.4852 161.452 12.8872 161.326 13.2825C161.253 13.5149 161.057 13.6269 160.825 13.6451C160.603 13.6626 160.421 13.5599 160.315 13.3629C160.209 13.1646 160.196 12.9378 160.345 12.7683C160.645 12.4269 160.973 12.1107 161.282 11.7908V11.7905Z" fill="#F0C239"/>
<path d="M159.933 9.20947C160.053 9.26893 160.195 9.30526 160.291 9.39189C160.586 9.65799 160.863 9.94481 161.149 10.2203C161.206 10.2749 161.212 10.3164 161.16 10.3772C161.12 10.424 161.081 10.4781 161.063 10.5359C161.024 10.6627 160.958 10.6793 160.835 10.6422C160.478 10.5338 160.115 10.4407 159.756 10.339C159.5 10.2666 159.318 9.98571 159.357 9.73064C159.402 9.43467 159.628 9.23772 159.933 9.20947H159.933Z" fill="#F0C239"/>
<path d="M163.044 11.0005C163.05 10.7885 163.05 10.7869 163.252 10.7341C163.601 10.6429 163.95 10.549 164.302 10.4664C164.57 10.4032 164.865 10.5811 164.949 10.842C165.069 11.2139 164.717 11.6207 164.328 11.5378C163.918 11.4506 163.515 11.335 163.11 11.2263C163.082 11.2187 163.056 11.1692 163.047 11.1345C163.036 11.0925 163.044 11.0457 163.044 11.0008V11.0005Z" fill="#F0C239"/>
<path d="M160.956 10.9975C160.956 11.0379 160.966 11.0818 160.953 11.1175C160.938 11.1587 160.91 11.2166 160.876 11.2257C160.493 11.3306 160.109 11.4326 159.723 11.5249C159.485 11.5819 159.248 11.4794 159.115 11.2819C158.995 11.1027 158.998 10.8827 159.123 10.7037C159.261 10.5065 159.492 10.4148 159.735 10.4737C160.073 10.5558 160.409 10.6451 160.746 10.7328C160.951 10.7866 160.951 10.788 160.956 10.9973V10.9975Z" fill="#F0C239"/>
<path d="M161.998 11.9098C161.476 11.8905 161.07 11.4621 161.093 10.9557C161.115 10.4685 161.547 10.0662 162.025 10.0864C162.524 10.1077 162.93 10.5352 162.909 11.0182C162.888 11.5146 162.466 11.927 161.998 11.9096L161.998 11.9098ZM162.007 10.2807C161.627 10.2713 161.291 10.596 161.282 10.9797C161.274 11.3811 161.6 11.7123 162.011 11.7193C162.377 11.7255 162.71 11.3965 162.721 11.0163C162.733 10.6202 162.413 10.2909 162.007 10.2807H162.007Z" fill="#EA4200"/>
<path d="M162.007 10.2807C162.414 10.2907 162.734 10.6203 162.722 11.0163C162.711 11.3965 162.378 11.7256 162.012 11.7194C161.601 11.7124 161.275 11.3812 161.283 10.9797C161.292 10.5963 161.628 10.2713 162.008 10.2807H162.007Z" fill="#F0C239" stroke="black" stroke-width="0.5" stroke-miterlimit="10"/>
</g>
<g clip-path="url(#clip11_4836_17635)">
<path d="M179.135 8.02664C179.515 8.2217 179.608 8.43157 179.5 8.84619C179.405 9.21265 179.311 9.5791 179.216 9.94529H178.789C178.737 9.74942 178.681 9.54439 178.628 9.33883C178.585 9.17471 178.545 9.01004 178.503 8.84592C178.395 8.43211 178.489 8.22009 178.867 8.02637H179.135L179.135 8.02664Z" fill="#F0C239"/>
<path d="M178.866 13.9729C178.777 13.9083 178.678 13.8543 178.602 13.7773C178.474 13.6487 178.426 13.4795 178.468 13.3054C178.567 12.8843 178.682 12.4665 178.789 12.051H179.21C179.292 12.368 179.375 12.6873 179.457 13.0065C179.469 13.0498 179.479 13.0934 179.49 13.1367C179.602 13.5685 179.517 13.7676 179.134 13.9729H178.866H178.866Z" fill="#F0C239"/>
<path d="M179.787 11.7168C179.867 11.5799 179.937 11.4607 180.018 11.3235C180.203 11.373 180.399 11.4244 180.595 11.4782C180.815 11.5382 181.036 11.5947 181.252 11.663C181.489 11.7381 181.621 11.9149 181.646 12.1562C181.669 12.3782 181.576 12.5593 181.383 12.6774C181.188 12.7966 180.913 12.7947 180.753 12.6478C180.424 12.3456 180.109 12.0284 179.787 11.7166L179.787 11.7168Z" fill="#F0C239"/>
<path d="M179.316 12.0238C179.452 11.9441 179.575 11.8726 179.705 11.7961C179.732 11.8196 179.762 11.8438 179.79 11.8717C180.053 12.1392 180.317 12.4064 180.579 12.6752C180.758 12.8592 180.806 13.1272 180.701 13.3416C180.605 13.5399 180.385 13.6661 180.165 13.6502C179.923 13.6327 179.714 13.4578 179.646 13.2146C179.536 12.8196 179.427 12.4244 179.316 12.024V12.0238Z" fill="#F0C239"/>
<path d="M177.984 11.3154C178.061 11.4486 178.132 11.5718 178.209 11.7053C178.189 11.7282 178.166 11.7596 178.139 11.7866C177.864 12.0559 177.589 12.3255 177.312 12.5929C177.134 12.7646 176.876 12.8017 176.654 12.6919C176.46 12.5956 176.333 12.3742 176.351 12.1638C176.373 11.9195 176.538 11.7206 176.779 11.6528C177.182 11.5393 177.585 11.4268 177.984 11.3154Z" fill="#F0C239"/>
<path d="M179.665 10.1766C179.574 10.1236 179.452 10.0521 179.318 9.97405C179.44 9.54409 179.557 9.1093 179.69 8.67988C179.739 8.52248 179.879 8.43396 180.031 8.37934C180.26 8.29674 180.518 8.38284 180.659 8.58248C180.791 8.77001 180.803 9.0875 180.646 9.24625C180.333 9.56373 180 9.86131 179.665 10.1766Z" fill="#F0C239"/>
<path d="M178.68 9.97586C178.546 10.055 178.423 10.1268 178.294 10.2027C178.27 10.1822 178.242 10.1615 178.217 10.1368C177.947 9.86232 177.677 9.58815 177.408 9.31182C177.243 9.14097 177.198 8.87326 177.295 8.66447C177.389 8.46106 177.618 8.32976 177.842 8.34994C178.075 8.37093 178.282 8.5399 178.347 8.77021C178.459 9.17003 178.569 9.5712 178.681 9.97586H178.68Z" fill="#F0C239"/>
<path d="M179.793 10.2872C179.821 10.2574 179.851 10.2248 179.882 10.1941C180.147 9.93451 180.411 9.67433 180.677 9.41576C180.865 9.23226 181.112 9.18975 181.342 9.29899C181.539 9.39235 181.672 9.62267 181.652 9.83576C181.629 10.0809 181.46 10.2773 181.209 10.3478C180.85 10.4492 180.489 10.5477 180.129 10.6518C180.043 10.6768 179.994 10.669 179.956 10.5741C179.917 10.4761 179.852 10.3889 179.793 10.2872Z" fill="#F0C239"/>
<path d="M178.282 11.7905C178.412 11.8613 178.527 11.9189 178.636 11.9867C178.659 12.0007 178.674 12.0558 178.666 12.0849C178.556 12.4852 178.452 12.8872 178.326 13.2825C178.253 13.5149 178.057 13.6269 177.825 13.6451C177.603 13.6626 177.421 13.5599 177.315 13.3629C177.209 13.1646 177.196 12.9378 177.345 12.7683C177.645 12.4269 177.973 12.1107 178.282 11.7908V11.7905Z" fill="#F0C239"/>
<path d="M176.933 9.20947C177.053 9.26893 177.195 9.30526 177.291 9.39189C177.586 9.65799 177.863 9.94481 178.149 10.2203C178.206 10.2749 178.212 10.3164 178.16 10.3772C178.12 10.424 178.081 10.4781 178.063 10.5359C178.024 10.6627 177.958 10.6793 177.835 10.6422C177.478 10.5338 177.115 10.4407 176.756 10.339C176.5 10.2666 176.318 9.98571 176.357 9.73064C176.402 9.43467 176.628 9.23772 176.933 9.20947H176.933Z" fill="#F0C239"/>
<path d="M180.044 11.0005C180.05 10.7885 180.05 10.7869 180.252 10.7341C180.601 10.6429 180.95 10.549 181.302 10.4664C181.57 10.4032 181.865 10.5811 181.949 10.842C182.069 11.2139 181.717 11.6207 181.328 11.5378C180.918 11.4506 180.515 11.335 180.11 11.2263C180.082 11.2187 180.056 11.1692 180.047 11.1345C180.036 11.0925 180.044 11.0457 180.044 11.0008V11.0005Z" fill="#F0C239"/>
<path d="M177.956 10.9975C177.956 11.0379 177.966 11.0818 177.953 11.1175C177.938 11.1587 177.91 11.2166 177.876 11.2257C177.493 11.3306 177.109 11.4326 176.723 11.5249C176.485 11.5819 176.248 11.4794 176.115 11.2819C175.995 11.1027 175.998 10.8827 176.123 10.7037C176.261 10.5065 176.492 10.4148 176.735 10.4737C177.073 10.5558 177.409 10.6451 177.746 10.7328C177.951 10.7866 177.951 10.788 177.956 10.9973V10.9975Z" fill="#F0C239"/>
<path d="M178.998 11.9098C178.476 11.8905 178.07 11.4621 178.093 10.9557C178.115 10.4685 178.547 10.0662 179.025 10.0864C179.524 10.1077 179.93 10.5352 179.909 11.0182C179.888 11.5146 179.466 11.927 178.998 11.9096L178.998 11.9098ZM179.007 10.2807C178.627 10.2713 178.291 10.596 178.282 10.9797C178.274 11.3811 178.6 11.7123 179.011 11.7193C179.377 11.7255 179.71 11.3965 179.721 11.0163C179.733 10.6202 179.413 10.2909 179.007 10.2807H179.007Z" fill="#EA4200"/>
<path d="M179.007 10.2805C179.414 10.2904 179.734 10.62 179.722 11.0161C179.711 11.3963 179.378 11.7253 179.012 11.7191C178.601 11.7121 178.275 11.3809 178.283 10.9795C178.292 10.5961 178.628 10.2711 179.008 10.2805H179.007Z" fill="#F0C239" stroke="black" stroke-width="0.5" stroke-miterlimit="10"/>
</g>
<defs>
<linearGradient id="paint0_linear_4836_17635" x1="230.5" y1="8.00005" x2="103" y2="8.00016" gradientUnits="userSpaceOnUse">
<stop stop-color="white"/>
<stop offset="1" stop-color="white" stop-opacity="0"/>
</linearGradient>
<linearGradient id="paint1_linear_4836_17635" x1="240.844" y1="11.0001" x2="132.321" y2="11.0001" gradientUnits="userSpaceOnUse">
<stop stop-color="white"/>
<stop offset="1" stop-color="white" stop-opacity="0"/>
</linearGradient>
<linearGradient id="paint2_linear_4836_17635" x1="252.158" y1="14.0001" x2="164.391" y2="14.0001" gradientUnits="userSpaceOnUse">
<stop stop-color="white"/>
<stop offset="1" stop-color="white" stop-opacity="0"/>
</linearGradient>
<clipPath id="clip0_4836_17635">
<rect width="75" height="15" fill="white" transform="translate(208 24.5)"/>
</clipPath>
<clipPath id="clip1_4836_17635">
<rect width="215" height="8" fill="white" transform="translate(85 8)"/>
</clipPath>
<clipPath id="clip2_4836_17635">
<rect width="6" height="6" fill="white" transform="translate(26 8)"/>
</clipPath>
<clipPath id="clip3_4836_17635">
<rect width="6" height="6" fill="white" transform="translate(42.5 7.99976)"/>
</clipPath>
<clipPath id="clip4_4836_17635">
<rect width="6" height="6" fill="white" transform="translate(59.5 7.99976)"/>
</clipPath>
<clipPath id="clip5_4836_17635">
<rect width="6" height="6" fill="white" transform="translate(76 7.99976)"/>
</clipPath>
<clipPath id="clip6_4836_17635">
<rect width="6" height="6" fill="white" transform="translate(93 7.99976)"/>
</clipPath>
<clipPath id="clip7_4836_17635">
<rect width="6" height="6" fill="white" transform="translate(109 7.99976)"/>
</clipPath>
<clipPath id="clip8_4836_17635">
<rect width="6" height="6" fill="white" transform="translate(126 7.99976)"/>
</clipPath>
<clipPath id="clip9_4836_17635">
<rect width="6" height="6" fill="white" transform="translate(142.5 7.99976)"/>
</clipPath>
<clipPath id="clip10_4836_17635">
<rect width="6" height="6" fill="white" transform="translate(159 7.99976)"/>
</clipPath>
<clipPath id="clip11_4836_17635">
<rect width="6" height="6" fill="white" transform="translate(176 7.99976)"/>
</clipPath>
</defs>
</svg>
