<svg width="320" height="173" viewBox="0 0 320 173" fill="none" xmlns="http://www.w3.org/2000/svg">
<g clip-path="url(#clip0_5137_22806)">
<rect width="320" height="172.333" rx="12" fill="white"/>
<rect opacity="0.9" x="-16" y="-24" width="352" height="220" fill="url(#paint0_linear_5137_22806)"/>
<mask id="mask0_5137_22806" style="mask-type:luminance" maskUnits="userSpaceOnUse" x="-240" y="-72" width="581" height="251">
<path d="M133.611 -71.6008L-239.945 25.8984L-32.7068 178.531L340.849 81.0323L133.611 -71.6008Z" fill="white"/>
</mask>
<g mask="url(#mask0_5137_22806)">
<path d="M95.1638 -67.8714L-59.6306 -48.0127C-62.3903 -47.6542 -65.9262 -48.4884 -67.9468 -49.9766L-96.0535 -70.6774C-99.8615 -73.4821 -107.299 -73.4014 -107.728 -70.5503L-112.474 -37.6831C-112.599 -36.8751 -112.035 -35.9629 -110.947 -35.1616L-53.2053 7.36581C-50.8739 9.08293 -46.7104 9.88259 -43.9087 9.15134L-38.461 7.72948C-35.6593 6.99824 -31.4958 7.7979 -29.1644 9.51502L6.8951 36.0732C9.22654 37.7903 8.84512 39.7762 6.04345 40.5074L-3.23321 42.9286C-6.03488 43.6599 -6.4163 45.6458 -4.08487 47.3629L43.3727 82.3159C45.7042 84.033 49.8677 84.8326 52.6694 84.1014L99.3639 71.914C102.166 71.1828 102.547 69.1969 100.216 67.4797L64.182 40.9407C61.8506 39.2236 62.232 37.2377 65.0336 36.5064L190.922 3.64919C193.724 2.91795 194.105 0.932041 191.774 -0.785081L103.387 -65.8831C101.428 -67.3875 97.9235 -68.2299 95.1638 -67.8714Z" stroke="#DDC7A1" stroke-opacity="0.72" stroke-width="1.8" stroke-miterlimit="10"/>
<path d="M-108.423 -64.0126L-153.166 -9.02615C-153.556 -8.53684 -154.251 -8.14858 -155.154 -7.91296L-196.712 2.93382C-199.514 3.66507 -199.895 5.65097 -197.564 7.36809L-89.9552 86.6228C-87.6237 88.3399 -83.4602 89.1396 -80.6585 88.4083L-42.8048 78.5284C-40.0031 77.7972 -39.6217 75.8113 -41.9532 74.0941L-63.6355 58.1249C-65.9669 56.4078 -65.5855 54.4219 -62.7838 53.6906L-29.1326 44.9076C-26.331 44.1764 -25.9495 42.1905 -28.281 40.4733L-47.1656 26.5646C-49.497 24.8475 -49.1156 22.8616 -46.3139 22.1304L-19.2311 15.0617C-16.4294 14.3304 -12.2659 15.1301 -9.93448 16.8472L10.3231 31.7671C12.6545 33.4842 16.818 34.2839 19.6197 33.5526L48.5703 25.9964C51.372 25.2652 51.7534 23.2793 49.422 21.5622L33.5682 9.88576C31.2368 8.16864 31.6182 6.18275 34.4199 5.4515L72.367 -4.45279C75.1687 -5.18404 75.5501 -7.16994 73.2186 -8.88706L13.4303 -52.9217C12.0056 -53.971 9.84393 -54.7247 7.63482 -54.9233L-103.027 -65.3175C-105.46 -65.5871 -107.602 -65.0537 -108.423 -64.0126Z" stroke="#DDC7A1" stroke-opacity="0.72" stroke-width="1.8" stroke-miterlimit="10"/>
<path d="M-20.8236 64.1611L-52.9456 40.503C-55.277 38.7859 -59.4405 37.9862 -62.2422 38.7175L-92.5003 46.6149C-95.3019 47.3461 -99.4655 46.5465 -101.797 44.8294L-156.352 4.64871C-158.684 2.93159 -162.847 2.13193 -165.649 2.86318L-201.23 12.15C-204.032 12.8812 -204.413 14.8671 -202.082 16.5842L-135.014 65.9801C-133.849 66.8387 -133.326 67.8134 -133.519 68.6649L-141.269 98.5434C-141.493 99.4029 -140.939 100.37 -139.774 101.228L-89.3887 138.337C-87.0572 140.054 -82.8937 140.854 -80.092 140.123L86.9499 96.5242C89.7516 95.793 90.133 93.8071 87.8016 92.0899L39.8258 56.7554C37.4944 55.0383 33.3309 54.2386 30.5292 54.9699L-11.527 65.9467C-14.3287 66.6779 -18.4922 65.8782 -20.8236 64.1611Z" stroke="#DDC7A1" stroke-opacity="0.72" stroke-width="1.8" stroke-miterlimit="10"/>
<path d="M190.854 73.7457L181.865 67.1252C179.534 65.4081 175.37 64.6085 172.568 65.3397L126.341 77.4052C123.539 78.1365 123.158 80.1224 125.489 81.8395L140.177 92.6574C142.509 94.3745 142.127 96.3604 139.326 97.0916L98.7947 107.67C95.993 108.402 91.8295 107.602 89.4981 105.885L66.4428 88.9043L47.8431 75.2055C45.5117 73.4884 41.3482 72.6888 38.5465 73.42L8.69314 81.2118C5.89146 81.943 5.51004 83.9289 7.84147 85.6461L22.2186 96.235C24.5501 97.9521 24.1687 99.938 21.367 100.669L-18.7903 111.15C-21.592 111.882 -25.7555 111.082 -28.0869 109.365L-67.4882 80.3455C-69.8196 78.6284 -73.9831 77.8287 -76.7848 78.56L-147.418 96.9955C-150.22 97.7267 -150.601 99.7126 -148.27 101.43L-31.7758 187.229C-29.4443 188.946 -25.2808 189.745 -22.4791 189.014L5.84888 181.62C8.65055 180.889 12.8141 181.689 15.1455 183.406L66.6184 221.316C68.9498 223.033 73.1133 223.833 75.915 223.102L198.348 191.146C201.15 190.415 201.531 188.429 199.2 186.712L189.252 179.386C186.921 177.669 187.302 175.683 190.104 174.951L239.382 162.09C242.184 161.358 242.565 159.373 240.234 157.655L219.277 142.22C217.308 140.77 217.222 139.061 219.143 138.147L233.825 130.981C236.404 129.714 241.445 130.414 244.139 132.398L251.003 137.454C253.335 139.171 257.498 139.971 260.3 139.24L319.104 123.891C321.906 123.16 322.287 121.174 319.956 119.457L248.795 67.0469C246.464 65.3297 242.3 64.5301 239.499 65.2613L200.182 75.5231C197.349 76.2625 193.185 75.4628 190.854 73.7457Z" stroke="#DDC7A1" stroke-opacity="0.72" stroke-width="1.8" stroke-miterlimit="10"/>
<path d="M245.693 16.0729L218.967 -1.65484C216.552 -3.24689 212.632 -3.92924 209.955 -3.2305L200.741 -0.825521C198.717 -0.2974 195.896 -0.543046 193.533 -1.47655L97.1512 -39.4228C94.7875 -40.3563 91.9665 -40.602 89.9431 -40.0739L70.2691 -34.9389C67.4674 -34.2077 63.3039 -35.0073 60.9725 -36.7244L12.66 -72.307C10.3285 -74.0241 6.16502 -74.8238 3.36334 -74.0925L-68.3595 -55.3727C-71.1611 -54.6415 -71.5425 -52.6556 -69.2111 -50.9384L-3.95688 -2.87811C-1.62545 -1.16099 2.53806 -0.361332 5.33974 -1.09258L23.2393 -5.76441C26.041 -6.49566 30.2045 -5.696 32.5359 -3.97888L80.8484 31.6037C83.1798 33.3208 87.3433 34.1205 90.145 33.3892L107.515 28.8555C110.317 28.1243 114.481 28.9239 116.812 30.6411L131.811 41.6879C134.142 43.405 133.761 45.3909 130.959 46.1221L106.429 52.5246C103.627 53.2558 103.246 55.2417 105.577 56.9589L146.896 87.3901C149.227 89.1072 153.391 89.9068 156.192 89.1756L171.134 85.2756C173.936 84.5444 178.1 85.344 180.431 87.0612L225.998 120.621C228.329 122.338 232.493 123.138 235.294 122.407L309.383 103.07C312.185 102.338 312.566 100.352 310.235 98.6353L264.72 65.1133C262.388 63.3961 262.77 61.4102 265.571 60.679L290.475 54.179C293.277 53.4478 293.658 51.4619 291.327 49.7448L245.89 16.28C245.906 16.1984 245.771 16.1302 245.693 16.0729Z" stroke="#DDC7A1" stroke-opacity="0.72" stroke-width="1.8" stroke-miterlimit="10"/>
<path d="M257.299 3.06949L119.239 39.1036C116.437 39.8348 116.056 41.8207 118.387 43.5378L132.738 54.1077C135.07 55.8248 134.688 57.8107 131.887 58.5419L112.711 63.5469C109.909 64.2781 105.746 63.4785 103.414 61.7614L92.5342 53.7481C90.2027 52.031 86.0392 51.2313 83.2375 51.9626L64.4352 56.87C61.6335 57.6013 61.2521 59.5872 63.5835 61.3043L127.102 108.086C129.434 109.803 129.052 111.789 126.25 112.521L30.0597 137.627C27.2581 138.358 26.8766 140.344 29.2081 142.061L112.078 203.095C114.409 204.812 118.573 205.612 121.374 204.881L270.112 166.06C272.914 165.328 273.295 163.343 270.964 161.625L213.17 119.06C210.838 117.343 211.22 115.357 214.022 114.626L230.52 110.319C233.322 109.588 233.703 107.602 231.372 105.885L222.72 99.5127C220.388 97.7956 220.77 95.8097 223.571 95.0784L340.681 64.5124C343.483 63.7812 343.864 61.7953 341.533 60.0781L266.564 4.86316C264.264 3.13791 260.101 2.33825 257.299 3.06949Z" stroke="#DDC7A1" stroke-opacity="0.72" stroke-width="1.8" stroke-miterlimit="10"/>
</g>
<mask id="mask1_5137_22806" style="mask-type:luminance" maskUnits="userSpaceOnUse" x="-240" y="-72" width="581" height="251">
<path d="M133.611 -71.6008L-239.945 25.8984L-32.7068 178.531L340.849 81.0323L133.611 -71.6008Z" fill="white"/>
</mask>
<g mask="url(#mask1_5137_22806)">
<path d="M14.5603 95.935C18.5489 94.894 19.0916 92.0683 15.7724 89.6237C12.4533 87.1791 6.5291 86.0413 2.54045 87.0823C-1.4482 88.1233 -1.99091 90.949 1.32827 93.3936C4.64746 95.8382 10.5716 96.9761 14.5603 95.935Z" fill="url(#paint1_radial_5137_22806)"/>
</g>
<mask id="mask2_5137_22806" style="mask-type:luminance" maskUnits="userSpaceOnUse" x="-240" y="-72" width="581" height="251">
<path d="M133.611 -71.6008L-239.945 25.8984L-32.7068 178.531L340.849 81.0323L133.611 -71.6008Z" fill="white"/>
</mask>
<g mask="url(#mask2_5137_22806)">
<path d="M55.9141 79.0689C59.0947 78.2387 59.5275 75.9855 56.8807 74.0361C54.2339 72.0867 49.5099 71.1794 46.3293 72.0096C43.1487 72.8397 42.7159 75.093 45.3627 77.0423C48.0095 78.9917 52.7335 79.899 55.9141 79.0689Z" fill="url(#paint2_radial_5137_22806)"/>
</g>
<mask id="mask3_5137_22806" style="mask-type:luminance" maskUnits="userSpaceOnUse" x="-240" y="-72" width="581" height="251">
<path d="M133.611 -71.6008L-239.945 25.8984L-32.7068 178.531L340.849 81.0323L133.611 -71.6008Z" fill="white"/>
</mask>
<g mask="url(#mask3_5137_22806)">
<path d="M67.6299 53.7883C70.8276 52.9537 71.2627 50.6883 68.6017 48.7284C65.9406 46.7685 61.1911 45.8563 57.9933 46.6909C54.7955 47.5255 54.3604 49.791 57.0214 51.7509C59.6825 53.7108 64.4321 54.623 67.6299 53.7883Z" fill="url(#paint3_radial_5137_22806)"/>
</g>
<mask id="mask4_5137_22806" style="mask-type:luminance" maskUnits="userSpaceOnUse" x="-240" y="-72" width="581" height="251">
<path d="M133.611 -71.6008L-239.945 25.8984L-32.7068 178.531L340.849 81.0323L133.611 -71.6008Z" fill="white"/>
</mask>
<g mask="url(#mask4_5137_22806)">
<path d="M-7.35267 25.7352C0.280779 23.7428 1.3194 18.3351 -5.03284 13.6566C-11.3851 8.9781 -22.7227 6.80057 -30.3561 8.79292C-37.9896 10.7853 -39.0282 16.193 -32.676 20.8715C-26.3238 25.55 -14.9861 27.7275 -7.35267 25.7352Z" fill="url(#paint4_radial_5137_22806)"/>
</g>
<mask id="mask5_5137_22806" style="mask-type:luminance" maskUnits="userSpaceOnUse" x="-240" y="-72" width="581" height="251">
<path d="M133.611 -71.6008L-239.945 25.8984L-32.7068 178.531L340.849 81.0323L133.611 -71.6008Z" fill="white"/>
</mask>
<g mask="url(#mask5_5137_22806)">
<path d="M74.3846 92.6725C78.1153 91.6988 78.6229 89.0558 75.5184 86.7692C72.4138 84.4827 66.8726 83.4184 63.1419 84.3922C59.4111 85.3659 58.9035 88.0089 62.0081 90.2954C65.1126 92.582 70.6538 93.6462 74.3846 92.6725Z" fill="url(#paint5_radial_5137_22806)"/>
</g>
<mask id="mask6_5137_22806" style="mask-type:luminance" maskUnits="userSpaceOnUse" x="-210" y="-69" width="769" height="331">
<path d="M284.519 -68.7684L-209.447 60.1582L64.5915 261.99L558.558 133.064L284.519 -68.7684Z" fill="white"/>
</mask>
<g mask="url(#mask6_5137_22806)">
<path d="M233.678 -63.8364L28.9881 -37.5766C25.3389 -37.1025 20.6633 -38.2057 17.9914 -40.1736L-19.1751 -67.547C-24.2106 -71.2557 -34.0453 -71.149 -34.613 -67.3789L-40.888 -23.9175C-41.0541 -22.849 -40.3082 -21.6427 -38.8695 -20.5831L37.4845 35.6523C40.5674 37.9229 46.073 38.9803 49.7778 38.0134L56.9814 36.1332C60.6862 35.1663 66.1918 36.2237 69.2747 38.4943L116.957 73.6131C120.04 75.8837 119.536 78.5097 115.831 79.4766L103.564 82.6783C99.8597 83.6453 99.3553 86.2713 102.438 88.5419L165.193 134.761C168.276 137.032 173.782 138.089 177.486 137.123L239.232 121.007C242.937 120.04 243.441 117.414 240.358 115.143L192.71 80.0496C189.627 77.7789 190.131 75.1529 193.836 74.186L360.303 30.7377C364.008 29.7708 364.512 27.1447 361.429 24.8741L244.552 -61.2073C241.962 -63.1966 237.327 -64.3105 233.678 -63.8364Z" stroke="#B27A2A" stroke-opacity="0.35" stroke-width="1.8" stroke-miterlimit="10"/>
<path d="M-35.5309 -58.7337L-94.6959 13.9768C-95.2112 14.6238 -96.1309 15.1372 -97.3246 15.4488L-152.278 29.7919C-155.983 30.7588 -156.488 33.3848 -153.405 35.6554L-11.11 140.457C-8.02706 142.727 -2.52149 143.785 1.18326 142.818L51.2386 129.753C54.9433 128.786 55.4477 126.16 52.3647 123.89L23.6934 102.773C20.6105 100.502 21.1149 97.8763 24.8196 96.9094L69.3178 85.2953C73.0225 84.3283 73.5269 81.7023 70.444 79.4317L45.4722 61.0397C42.3892 58.7691 42.8936 56.1431 46.5983 55.1761L82.4109 45.829C86.1157 44.862 91.6212 45.9194 94.7042 48.19L121.491 67.9191C124.574 70.1897 130.08 71.2471 133.785 70.2802L172.067 60.2884C175.772 59.3214 176.276 56.6954 173.193 54.4248L152.229 38.9846C149.146 36.714 149.651 34.088 153.356 33.1211L203.534 20.0243C207.239 19.0573 207.743 16.4313 204.66 14.1607L125.6 -44.0679C123.716 -45.4554 120.858 -46.452 117.937 -46.7147L-28.396 -60.4593C-31.612 -60.8158 -34.4454 -60.1105 -35.5309 -58.7337Z" stroke="#B27A2A" stroke-opacity="0.35" stroke-width="1.8" stroke-miterlimit="10"/>
<path d="M80.3044 110.754L37.8284 79.4703C34.7455 77.1997 29.2399 76.1422 25.5352 77.1092L-14.4761 87.5523C-18.1809 88.5192 -23.6864 87.4618 -26.7694 85.1912L-98.9101 32.0589C-101.993 29.7883 -107.499 28.7309 -111.203 29.6978L-158.254 41.9781C-161.958 42.945 -162.463 45.571 -159.38 47.8417L-70.694 113.16C-69.1526 114.295 -68.4617 115.584 -68.7171 116.71L-78.9642 156.219C-79.2607 157.356 -78.5287 158.634 -76.9872 159.769L-10.3615 208.84C-7.2786 211.11 -1.77303 212.168 1.93172 211.201L222.817 153.549C226.522 152.582 227.026 149.956 223.943 147.686L160.503 100.961C157.42 98.6908 151.915 97.6334 148.21 98.6003L92.5977 113.115C88.8929 114.082 83.3874 113.025 80.3044 110.754Z" stroke="#B27A2A" stroke-opacity="0.35" stroke-width="1.8" stroke-miterlimit="10"/>
<path d="M360.214 123.429L348.328 114.674C345.245 112.404 339.739 111.346 336.034 112.313L274.906 128.268C271.201 129.235 270.697 131.861 273.78 134.131L293.202 148.436C296.285 150.707 295.781 153.333 292.076 154.3L238.481 168.288C234.776 169.255 229.271 168.198 226.188 165.927L195.701 143.473L171.106 125.359C168.023 123.088 162.517 122.031 158.813 122.998L119.336 133.301C115.632 134.268 115.127 136.894 118.21 139.165L137.222 153.167C140.305 155.438 139.8 158.064 136.095 159.031L82.994 172.89C79.2893 173.857 73.7837 172.8 70.7008 170.529L18.5992 132.156C15.5162 129.885 10.0106 128.828 6.3059 129.795L-87.095 154.173C-90.7997 155.14 -91.3041 157.766 -88.2212 160.036L65.8229 273.491C68.9058 275.762 74.4114 276.819 78.1162 275.852L115.575 266.075C119.28 265.108 124.786 266.166 127.869 268.436L195.933 318.566C199.016 320.837 204.521 321.894 208.226 320.927L370.124 278.672C373.829 277.705 374.333 275.079 371.25 272.808L358.096 263.12C355.013 260.849 355.518 258.223 359.222 257.257L424.385 240.249C428.089 239.282 428.594 236.656 425.511 234.385L397.799 213.975C395.195 212.058 395.082 209.798 397.621 208.588L417.036 199.113C420.447 197.437 427.112 198.363 430.674 200.987L439.752 207.672C442.835 209.943 448.34 211 452.045 210.033L529.804 189.738C533.509 188.771 534.013 186.145 530.93 183.875L436.832 114.57C433.749 112.3 428.243 111.242 424.539 112.209L372.549 125.779C368.803 126.757 363.297 125.699 360.214 123.429Z" stroke="#B27A2A" stroke-opacity="0.35" stroke-width="1.8" stroke-miterlimit="10"/>
<path d="M432.729 47.1657L397.388 23.7237C394.195 21.6184 389.011 20.7161 385.471 21.6401L373.287 24.8203C370.611 25.5187 366.881 25.1938 363.755 23.9594L236.307 -26.2183C233.181 -27.4527 229.451 -27.7775 226.775 -27.0792L200.759 -20.289C197.055 -19.3221 191.549 -20.3795 188.466 -22.6501L124.581 -69.7022C121.498 -71.9728 115.992 -73.0302 112.288 -72.0633L17.446 -47.3094C13.7413 -46.3424 13.2369 -43.7164 16.3199 -41.4458L102.608 22.1061C105.691 24.3767 111.196 25.4341 114.901 24.4672L138.57 18.2894C142.275 17.3225 147.781 18.3799 150.864 20.6505L214.749 67.7026C217.832 69.9732 223.337 71.0306 227.042 70.0637L250.012 64.0686C253.716 63.1016 259.222 64.1591 262.305 66.4297L282.138 81.0373C285.221 83.3079 284.717 85.9339 281.012 86.9008L248.575 95.367C244.87 96.334 244.366 98.96 247.449 101.231L302.085 141.471C305.168 143.741 310.674 144.799 314.379 143.832L334.137 138.675C337.842 137.708 343.348 138.765 346.431 141.036L406.685 185.414C409.768 187.684 415.273 188.742 418.978 187.775L516.948 162.204C520.653 161.237 521.157 158.611 518.074 156.341L457.889 112.013C454.806 109.743 455.31 107.117 459.015 106.15L491.946 97.5548C495.651 96.5878 496.155 93.9618 493.072 91.6912L432.989 47.4395C433.01 47.3316 432.832 47.2414 432.729 47.1657Z" stroke="#B27A2A" stroke-opacity="0.35" stroke-width="1.8" stroke-miterlimit="10"/>
<path d="M448.075 29.9705L265.513 77.6196C261.809 78.5866 261.304 81.2126 264.387 83.4832L283.364 97.4601C286.447 99.7307 285.943 102.357 282.238 103.324L256.881 109.942C253.176 110.909 247.671 109.851 244.588 107.581L230.201 96.9847C227.118 94.714 221.612 93.6566 217.908 94.6236L193.045 101.113C189.34 102.08 188.836 104.706 191.918 106.976L275.911 168.838C278.994 171.109 278.49 173.735 274.785 174.702L147.589 207.9C143.884 208.867 143.38 211.493 146.463 213.764L256.044 294.471C259.127 296.742 264.632 297.799 268.337 296.832L465.018 245.498C468.723 244.531 469.227 241.905 466.144 239.635L389.722 183.349C386.639 181.078 387.143 178.452 390.848 177.485L412.665 171.791C416.37 170.824 416.874 168.198 413.791 165.927L402.35 157.501C399.267 155.23 399.771 152.604 403.476 151.637L558.335 111.219C562.039 110.252 562.544 107.626 559.461 105.355L460.327 32.3423C457.285 30.061 451.78 29.0036 448.075 29.9705Z" stroke="#B27A2A" stroke-opacity="0.35" stroke-width="1.8" stroke-miterlimit="10"/>
</g>
<mask id="mask7_5137_22806" style="mask-type:luminance" maskUnits="userSpaceOnUse" x="-210" y="-69" width="769" height="331">
<path d="M284.519 -68.7684L-209.447 60.1582L64.5915 261.99L558.558 133.064L284.519 -68.7684Z" fill="white"/>
</mask>
<g mask="url(#mask7_5137_22806)">
<path d="M49.82 125.545C53.6621 124.542 54.1848 121.821 50.9876 119.466C47.7904 117.111 42.0839 116.015 38.2419 117.018C34.3998 118.021 33.877 120.742 37.0742 123.097C40.2714 125.452 45.9779 126.548 49.82 125.545Z" fill="url(#paint6_radial_5137_22806)"/>
</g>
<mask id="mask8_5137_22806" style="mask-type:luminance" maskUnits="userSpaceOnUse" x="-210" y="-69" width="769" height="331">
<path d="M284.519 -68.7684L-209.447 60.1582L64.5915 261.99L558.558 133.064L284.519 -68.7684Z" fill="white"/>
</mask>
<g mask="url(#mask8_5137_22806)">
<path d="M127.095 152.77C132.369 151.393 133.087 147.657 128.698 144.424C124.308 141.192 116.475 139.687 111.2 141.064C105.926 142.44 105.208 146.177 109.598 149.409C113.987 152.642 121.82 154.146 127.095 152.77Z" fill="url(#paint7_radial_5137_22806)"/>
</g>
<mask id="mask9_5137_22806" style="mask-type:luminance" maskUnits="userSpaceOnUse" x="-210" y="-69" width="769" height="331">
<path d="M284.519 -68.7684L-209.447 60.1582L64.5915 261.99L558.558 133.064L284.519 -68.7684Z" fill="white"/>
</mask>
<g mask="url(#mask9_5137_22806)">
<path d="M181.778 130.467C185.984 129.369 186.556 126.39 183.056 123.812C179.556 121.235 173.309 120.035 169.104 121.132C164.898 122.23 164.326 125.21 167.825 127.787C171.325 130.365 177.572 131.565 181.778 130.467Z" fill="url(#paint8_radial_5137_22806)"/>
</g>
<mask id="mask10_5137_22806" style="mask-type:luminance" maskUnits="userSpaceOnUse" x="-210" y="-69" width="769" height="331">
<path d="M284.519 -68.7684L-209.447 60.1582L64.5915 261.99L558.558 133.064L284.519 -68.7684Z" fill="white"/>
</mask>
<g mask="url(#mask10_5137_22806)">
<path d="M197.268 97.0382C201.497 95.9345 202.072 92.9389 198.554 90.3472C195.035 87.7556 188.754 86.5493 184.526 87.653C180.297 88.7567 179.722 91.7523 183.241 94.344C186.759 96.9356 193.04 98.1419 197.268 97.0382Z" fill="url(#paint9_radial_5137_22806)"/>
</g>
<mask id="mask11_5137_22806" style="mask-type:luminance" maskUnits="userSpaceOnUse" x="-210" y="-69" width="769" height="331">
<path d="M284.519 -68.7684L-209.447 60.1582L64.5915 261.99L558.558 133.064L284.519 -68.7684Z" fill="white"/>
</mask>
<g mask="url(#mask11_5137_22806)">
<path d="M98.1189 59.9421C108.213 57.3076 109.586 50.1567 101.187 43.9702C92.7867 37.7837 77.7946 34.9042 67.7006 37.5388C57.6066 40.1733 56.2332 47.3242 64.633 53.5108C73.0328 59.6973 88.0249 62.5767 98.1189 59.9421Z" fill="url(#paint10_radial_5137_22806)"/>
</g>
<mask id="mask12_5137_22806" style="mask-type:luminance" maskUnits="userSpaceOnUse" x="-210" y="-69" width="769" height="331">
<path d="M284.519 -68.7684L-209.447 60.1582L64.5915 261.99L558.558 133.064L284.519 -68.7684Z" fill="white"/>
</mask>
<g mask="url(#mask12_5137_22806)">
<path d="M206.202 148.456C211.135 147.168 211.806 143.673 207.701 140.65C203.595 137.626 196.268 136.219 191.335 137.506C186.402 138.794 185.73 142.289 189.836 145.313C193.941 148.336 201.268 149.743 206.202 148.456Z" fill="url(#paint11_radial_5137_22806)"/>
</g>
<path fill-rule="evenodd" clip-rule="evenodd" d="M275.86 28.6841C276.047 28.5113 276.234 28.2376 276.422 27.892C276.609 27.532 276.724 27.2295 276.753 26.9559C276.782 26.6823 276.796 26.4806 276.796 26.3366C276.796 26.207 276.796 26.0774 276.796 25.9622C276.796 25.7606 276.782 25.6598 276.767 25.6598C276.724 25.6886 276.695 25.7174 276.695 25.7318C276.566 25.9766 276.479 26.1206 276.436 26.207C276.263 26.5094 276.148 26.7543 276.076 26.9559V27.2583C276.09 27.4311 276.09 27.5608 276.09 27.6472C276.09 27.7192 276.076 27.7912 276.047 27.8632C276.018 27.9352 275.961 27.9928 275.874 28.0504L275.788 28.0792C275.716 28.0792 275.644 28.0504 275.586 28.0072L275.414 28.252C275.284 28.4248 275.183 28.5112 275.14 28.5112C275.082 28.5257 275.025 28.5401 274.996 28.5257C274.967 28.5113 274.938 28.4825 274.924 28.4536C274.881 28.4681 274.809 28.5545 274.693 28.6985C274.578 28.8569 274.463 28.9433 274.305 28.9721C274.247 28.9721 274.175 28.9721 274.117 28.9721C274.031 28.9721 273.93 29.0009 273.815 29.0441C273.7 29.1017 273.556 29.2025 273.383 29.3753C273.109 29.6202 272.879 29.793 272.692 29.9082C272.504 30.0234 272.332 30.1098 272.188 30.1386C272.044 30.1818 271.9 30.2106 271.77 30.225C271.669 30.2394 271.583 30.2538 271.54 30.2394C271.554 30.1674 271.554 30.1242 271.554 30.0954C271.554 29.9946 271.54 29.937 271.496 29.937C271.439 29.9946 271.381 30.0378 271.324 30.0954C271.266 30.153 271.208 30.1962 271.151 30.225C270.992 30.3258 270.848 30.4122 270.704 30.4699C270.632 30.4987 270.531 30.5419 270.402 30.5995C270.157 30.7003 269.84 30.8011 269.423 30.9019C269.221 30.9451 268.904 31.0027 268.443 31.0891C267.522 31.2475 266.744 31.3483 266.11 31.3915C265.462 31.4347 264.828 31.4491 264.18 31.4491H263.864C263.504 31.4491 263.115 31.4203 262.726 31.3771C262.337 31.3195 261.991 31.2619 261.718 31.1611C261.444 31.0747 261.257 30.9163 261.142 30.7003C261.084 30.5563 261.041 30.4122 261.012 30.2682C260.998 30.1242 260.94 30.0522 260.868 30.0522C260.796 30.0522 260.738 30.225 260.71 30.5563C260.666 30.8875 260.652 31.1899 260.652 31.478C260.652 31.7228 260.681 31.9532 260.724 32.1548C260.782 32.3564 260.868 32.5005 260.998 32.6013C261.257 32.8029 261.66 32.9325 262.193 33.0189C262.553 33.0765 262.971 33.0909 263.46 33.0909H263.72C264.396 33.0909 265.102 33.0477 265.837 32.9613C266.571 32.8749 267.205 32.7597 267.752 32.6445C268.299 32.5149 268.746 32.3852 269.12 32.2556C269.61 32.0828 270.042 31.838 270.416 31.55C270.618 31.4059 270.776 31.2475 270.906 31.1035C270.978 31.0171 271.079 30.9019 271.223 30.7291L271.727 30.8875C271.77 30.9019 271.842 30.9307 271.957 30.9595C272.072 31.0027 272.159 31.0171 272.202 31.0171C272.332 31.0171 272.504 30.8875 272.749 30.6139C273.052 30.2682 273.282 30.0378 273.469 29.9226C273.556 29.865 273.685 29.8506 273.815 29.8506C273.959 29.8506 274.06 29.8218 274.146 29.7786C274.218 29.7354 274.29 29.6922 274.333 29.649C274.506 29.505 274.593 29.4329 274.621 29.4185L274.909 29.3033C275.082 29.1737 275.241 29.0585 275.414 28.9289C275.486 28.9145 275.63 28.8281 275.86 28.6841C275.86 28.6985 275.86 28.6985 275.86 28.6841ZM238.387 27.9928C238.33 28.2088 238.301 28.3816 238.272 28.4969C238.243 28.6121 238.215 28.7417 238.157 28.9001C238.042 29.2601 237.883 29.6346 237.667 30.009C237.466 30.3834 237.221 30.7435 236.947 31.0747C236.53 31.5788 236.083 31.9532 235.622 32.198C235.161 32.4573 234.629 32.5869 234.067 32.5869C233.419 32.5869 232.915 32.3852 232.569 31.982C232.224 31.5788 232.051 31.0459 232.051 30.4122C232.051 30.0954 232.094 29.7354 232.18 29.3609C232.267 28.9865 232.353 28.6841 232.454 28.4392C232.555 28.1944 232.67 27.9352 232.8 27.6616C232.972 27.3015 233.174 26.9559 233.376 26.5815C233.462 26.4374 233.505 26.351 233.52 26.3366C233.534 26.3222 233.563 26.3222 233.606 26.3222C233.621 26.3366 233.635 26.3942 233.606 26.495C233.592 26.5959 233.577 26.6823 233.549 26.7543L233.03 27.8776C232.9 28.2232 232.8 28.4536 232.771 28.5833C232.699 28.8137 232.656 29.0441 232.656 29.2889C232.656 29.9082 232.857 30.3402 233.275 30.6139C233.592 30.8155 233.981 30.9307 234.456 30.9307C234.801 30.9307 235.104 30.9019 235.363 30.8443C235.622 30.7867 235.896 30.6715 236.184 30.5131C236.472 30.3546 236.731 30.153 236.962 29.8938C237.12 29.721 237.293 29.4906 237.509 29.1737C237.639 28.9721 237.725 28.7705 237.783 28.5833C237.84 28.396 237.883 28.18 237.883 27.9064L237.912 26.7831C237.912 26.5959 237.927 26.423 237.97 26.2646C238.013 26.1062 238.085 25.919 238.171 25.6742L238.488 25.0693C238.546 24.9541 238.589 24.8821 238.603 24.8533C238.618 24.8245 238.647 24.7813 238.69 24.7381C238.747 24.7957 238.762 24.8533 238.747 24.9397L238.675 25.4869L238.603 26.2646C238.603 26.5671 238.589 26.8263 238.546 27.0567C238.531 27.3015 238.459 27.604 238.387 27.9928ZM236.386 27.1719C236.4 27.2151 236.4 27.2727 236.4 27.3447C236.4 27.532 236.342 27.7192 236.213 27.892C235.968 28.252 235.781 28.4392 235.666 28.4536C235.637 28.4536 235.594 28.4248 235.522 28.3816C235.277 28.2088 235.161 28.108 235.147 28.108C235.046 28.0504 234.945 27.9784 234.859 27.9208C234.773 27.8632 234.715 27.8056 234.715 27.7336L235.075 26.9271C235.19 26.7255 235.291 26.5671 235.378 26.4374C235.392 26.4086 235.435 26.3654 235.478 26.2934C235.536 26.3222 235.594 26.351 235.651 26.3798C235.709 26.4086 235.752 26.4374 235.795 26.4662C236.011 26.6391 236.17 26.7687 236.242 26.8695C236.328 26.9559 236.371 27.0567 236.386 27.1719ZM240.706 24.6085C240.735 24.5509 240.778 24.4644 240.85 24.378C240.864 24.3636 240.879 24.3204 240.922 24.2916C240.951 24.3492 240.965 24.378 240.965 24.4212L240.893 24.9541L240.807 25.8326L240.634 27.2151C240.591 27.532 240.548 27.7912 240.49 27.9928C240.432 28.1944 240.36 28.4104 240.26 28.6409L239.9 29.3897C239.741 29.6634 239.626 29.8362 239.568 29.9226C239.496 30.009 239.439 30.0522 239.381 30.0522L239.338 29.937C239.424 29.649 239.496 29.3897 239.568 29.1161C239.64 28.8569 239.698 28.6409 239.727 28.4969C239.828 28.0216 239.9 27.5896 239.943 27.2295C239.986 26.8551 240.015 26.5239 240.058 26.2358L240.231 25.7462L240.706 24.6085ZM241.599 33.9982C241.613 34.099 241.613 34.1998 241.57 34.315C241.541 34.4302 241.484 34.5455 241.412 34.6895C241.34 34.8335 241.239 34.9631 241.109 35.0783C241.037 35.1503 240.965 35.1935 240.922 35.1935C240.893 35.1935 240.821 35.1503 240.72 35.0639C240.62 34.9775 240.533 34.9055 240.447 34.8335C240.36 34.7759 240.288 34.7039 240.231 34.6463C240.173 34.5887 240.144 34.5455 240.144 34.5023C240.202 34.3726 240.245 34.2862 240.274 34.2142C240.375 33.9982 240.447 33.8398 240.49 33.7534C240.576 33.6094 240.663 33.4509 240.749 33.3069C240.764 33.2781 240.792 33.2349 240.836 33.1773C240.864 33.2061 240.893 33.2349 240.922 33.2493C240.951 33.2637 240.994 33.2925 241.037 33.3213C241.239 33.4798 241.383 33.6094 241.441 33.6958C241.541 33.7822 241.585 33.883 241.599 33.9982ZM243.097 33.9118C243.111 34.0126 243.111 34.1134 243.082 34.2286C243.053 34.3438 242.996 34.459 242.924 34.6031C242.852 34.7471 242.751 34.8767 242.621 34.9919C242.549 35.0639 242.477 35.1071 242.434 35.1071C242.405 35.1071 242.333 35.0639 242.233 34.9775C242.132 34.8911 242.045 34.8191 241.959 34.7471C241.873 34.6895 241.801 34.6319 241.743 34.5599C241.685 34.5022 241.657 34.459 241.657 34.4158C241.714 34.2862 241.757 34.1854 241.786 34.1278C241.887 33.9118 241.959 33.7534 242.002 33.667C242.089 33.523 242.175 33.3645 242.261 33.2205C242.276 33.1917 242.305 33.1485 242.348 33.0909C242.377 33.1197 242.405 33.1485 242.434 33.1629C242.463 33.1773 242.506 33.2061 242.549 33.2349C242.751 33.3933 242.895 33.523 242.953 33.6094C243.025 33.6958 243.082 33.7966 243.097 33.9118ZM243.169 28.0792C242.924 28.9865 242.636 29.5194 242.319 29.6634L241.729 29.9658C241.671 29.9802 241.613 30.0378 241.513 30.0954C241.426 30.1674 241.354 30.225 241.311 30.2682C241.21 30.3978 241.124 30.5707 241.008 30.8155C240.836 31.2763 240.692 31.5932 240.605 31.7948C240.447 32.1548 240.188 32.3996 239.856 32.5437C239.727 32.6013 239.525 32.6445 239.237 32.7021C238.949 32.7597 238.733 32.7885 238.603 32.7885C238.474 32.8029 238.402 32.7741 238.359 32.6877C238.344 32.6445 238.402 32.5869 238.517 32.4861C238.632 32.3996 238.776 32.2988 238.935 32.1836C238.949 32.1692 239.136 32.0396 239.482 31.8236C239.698 31.6796 239.828 31.5932 239.856 31.5788C240.144 31.3483 240.346 31.1611 240.461 31.0315C240.504 30.9739 240.62 30.7291 240.821 30.2682C241.023 29.8074 241.181 29.505 241.297 29.3609C241.412 29.2169 241.57 29.0729 241.801 28.9289C241.844 28.9145 241.988 28.8281 242.247 28.6985C242.434 28.5977 242.564 28.5257 242.636 28.468C242.708 28.4104 242.809 28.2664 242.924 28.0648C243.039 27.8632 243.111 27.7624 243.154 27.7768C243.212 27.8056 243.212 27.9064 243.169 28.0792ZM245.17 24.4356C245.199 24.378 245.243 24.2916 245.315 24.2052C245.329 24.1908 245.358 24.1476 245.387 24.1044C245.415 24.162 245.43 24.2052 245.43 24.234L245.358 24.7669L245.271 25.6454L245.098 27.0279C245.055 27.3447 245.012 27.604 244.954 27.8056C244.897 28.0072 244.825 28.2232 244.724 28.4536L244.364 29.2025C244.206 29.4761 244.09 29.649 244.033 29.7354C243.961 29.8218 243.903 29.865 243.846 29.865L243.802 29.7498C243.889 29.4762 243.961 29.2025 244.033 28.9289C244.105 28.6697 244.162 28.4536 244.191 28.3096C244.292 27.8344 244.364 27.4023 244.407 27.0423C244.45 26.6679 244.479 26.3366 244.522 26.0486L244.695 25.559L245.17 24.4356ZM256.461 24.7237C256.692 24.5365 257.152 24.2196 257.873 23.7876C258.506 23.3987 259.14 23.0243 259.788 22.6211C260.249 22.333 260.695 22.045 261.113 21.7426C261.415 21.5265 261.819 21.2385 262.308 20.8641C263.071 20.3024 263.446 20.0144 263.446 20C263.446 20.0432 263.432 20.0864 263.403 20.1152C263.36 20.2304 263.244 20.4176 263.071 20.6481C262.899 20.8785 262.755 21.0513 262.639 21.1665C262.467 21.3393 262.294 21.4977 262.107 21.6706C261.919 21.829 261.761 21.9586 261.646 22.045C261.487 22.1602 261.243 22.3474 260.868 22.5923C260.594 22.7795 260.191 23.0387 259.658 23.3843C259.284 23.6292 258.938 23.8308 258.636 24.0036C258.233 24.234 257.844 24.4644 257.455 24.6805L256.432 25.2853C256.288 25.3717 256.144 25.4581 256 25.5301C255.871 25.6022 255.799 25.631 255.784 25.6022C255.885 25.4149 255.986 25.2421 256.101 25.0981C256.216 24.9541 256.332 24.8245 256.461 24.7237ZM255.107 30.2538C255.107 30.2682 255.107 30.2682 255.107 30.2538V30.4842C255.107 30.9163 255.223 31.2043 255.453 31.3771C255.583 31.4635 255.756 31.5212 255.943 31.5212C256.087 31.5212 256.216 31.3627 256.332 31.0315C256.346 30.9595 256.375 30.8731 256.404 30.7867C256.432 30.6859 256.461 30.6427 256.504 30.6427C256.562 30.6427 256.576 30.7003 256.576 30.8011C256.576 30.8443 256.562 30.9019 256.548 30.9883C256.533 31.0747 256.519 31.1323 256.504 31.1899C256.375 31.8092 256.202 32.2844 255.986 32.6157C255.784 32.9469 255.568 33.1197 255.352 33.1197C255.007 33.1197 254.776 32.9613 254.647 32.6445C254.517 32.3276 254.445 31.9388 254.445 31.4635C254.445 31.2187 254.459 30.9595 254.503 30.6427C254.546 30.3402 254.56 30.1386 254.575 30.0378L254.589 29.865C254.589 29.8362 254.589 29.8074 254.575 29.8074C254.56 29.793 254.546 29.8074 254.517 29.8362C254.474 29.8938 254.402 29.9802 254.315 30.1098C254.114 30.3834 253.97 30.5851 253.883 30.7003C253.567 31.0891 253.178 31.4635 252.717 31.8092C252.242 32.1548 251.752 32.4284 251.219 32.6157C250.686 32.8173 250.081 32.9757 249.419 33.1197C248.742 33.2637 248.051 33.3357 247.316 33.3357H247.086C246.639 33.3357 246.279 33.3069 245.991 33.2637C245.545 33.1773 245.243 33.0477 245.084 32.8461C244.926 32.6589 244.839 32.3564 244.839 31.9676C244.839 31.6364 244.868 31.2907 244.911 30.9451C244.954 30.5851 245.026 30.4122 245.113 30.4122C245.142 30.4122 245.17 30.513 245.185 30.7147C245.199 30.9163 245.271 31.1035 245.415 31.2475C245.689 31.5644 246.38 31.7228 247.46 31.7228C248.051 31.7228 248.526 31.7084 248.886 31.6796C250.585 31.5356 251.982 31.1179 253.062 30.441C253.567 30.1386 253.97 29.7786 254.258 29.3609C254.474 29.0441 254.647 28.6553 254.776 28.2088L254.992 27.3159C255.007 27.2295 255.122 26.9559 255.338 26.5239C255.468 26.2358 255.568 26.063 255.597 25.991C255.64 25.919 255.684 25.847 255.756 25.775C255.756 25.8614 255.756 25.9334 255.756 26.0054C255.698 26.2358 255.669 26.4086 255.64 26.5382L255.309 28.18C255.252 28.6265 255.194 29.0297 255.165 29.4041C255.122 29.793 255.107 30.0666 255.107 30.2538ZM254.243 24.3636C254.258 24.4644 254.258 24.5653 254.229 24.6661C254.2 24.7813 254.143 24.8965 254.071 25.0261C253.999 25.1701 253.898 25.2853 253.783 25.4005C253.711 25.4725 253.653 25.5158 253.595 25.5158C253.567 25.5158 253.509 25.4725 253.408 25.3861C253.307 25.2997 253.221 25.2277 253.134 25.1701C253.048 25.1125 252.99 25.0549 252.933 24.9973C252.875 24.9397 252.846 24.8965 252.846 24.8533C252.904 24.7237 252.947 24.6373 252.976 24.5653C253.077 24.3636 253.149 24.2052 253.192 24.1188C253.279 23.9748 253.365 23.8308 253.451 23.6868C253.466 23.658 253.495 23.6148 253.538 23.5572C253.567 23.586 253.595 23.6148 253.624 23.6292C253.653 23.6436 253.696 23.6724 253.739 23.7012C253.941 23.8596 254.071 23.9892 254.128 24.0756C254.186 24.1476 254.229 24.2484 254.243 24.3636ZM258.117 30.2538C258.117 30.2682 258.117 30.2682 258.117 30.2538V30.4842C258.117 30.9163 258.233 31.2043 258.463 31.3771C258.593 31.4635 258.765 31.5212 258.953 31.5212C259.097 31.5212 259.226 31.3627 259.342 31.0315C259.356 30.9595 259.385 30.8731 259.414 30.7867C259.442 30.6859 259.471 30.6427 259.514 30.6427C259.572 30.6427 259.586 30.7003 259.586 30.8011C259.586 30.8443 259.572 30.9019 259.558 30.9883C259.543 31.0747 259.529 31.1323 259.514 31.1899C259.385 31.8092 259.212 32.2844 258.996 32.6157C258.794 32.9469 258.578 33.1197 258.362 33.1197C258.017 33.1197 257.786 32.9613 257.657 32.6445C257.527 32.3276 257.455 31.9388 257.455 31.4635C257.455 31.3339 257.513 30.7867 257.628 29.8362C257.743 28.8713 257.829 28.1368 257.901 27.6328C257.916 27.5896 258.002 27.3735 258.146 26.9991C258.305 26.6103 258.42 26.3222 258.521 26.1206C258.535 26.1062 258.564 26.1062 258.578 26.0918C258.593 26.1206 258.578 26.207 258.564 26.3366L258.506 26.7399L258.247 28.6409C258.189 29.0297 258.161 29.3609 258.132 29.6346C258.132 29.937 258.117 30.1386 258.117 30.2538ZM258.621 34.8335C258.636 34.9343 258.636 35.0351 258.593 35.1359C258.564 35.2511 258.506 35.3663 258.434 35.5104C258.362 35.6544 258.261 35.7696 258.146 35.8848C258.074 35.9568 258.002 36 257.959 36C257.93 36 257.873 35.9568 257.772 35.8704C257.671 35.784 257.585 35.712 257.498 35.6544C257.412 35.5968 257.354 35.5392 257.297 35.4816C257.239 35.4239 257.21 35.3807 257.21 35.3375C257.268 35.2079 257.311 35.1215 257.34 35.0495C257.441 34.8335 257.513 34.6895 257.556 34.5887C257.642 34.4446 257.729 34.3006 257.815 34.1422C257.829 34.1134 257.858 34.0702 257.901 34.0126C257.93 34.0414 257.959 34.0702 257.988 34.0846C258.017 34.099 258.06 34.1278 258.103 34.1566C258.305 34.315 258.434 34.4446 258.506 34.5311C258.564 34.6175 258.607 34.7183 258.621 34.8335ZM266.427 28.0792C266.441 28.18 266.441 28.2808 266.398 28.396C266.369 28.5113 266.312 28.6409 266.24 28.7705C266.168 28.9145 266.067 29.0441 265.937 29.1593C265.865 29.2313 265.793 29.2745 265.75 29.2745C265.721 29.2745 265.649 29.2313 265.549 29.1449C265.448 29.0585 265.361 28.9865 265.275 28.9145C265.188 28.8569 265.116 28.7849 265.059 28.7273C265.001 28.6697 264.972 28.6265 264.972 28.5833C265.03 28.4536 265.073 28.3528 265.102 28.2952C265.203 28.0792 265.275 27.9208 265.318 27.8344C265.405 27.6904 265.491 27.532 265.577 27.3879C265.592 27.3591 265.621 27.3159 265.664 27.2583C265.693 27.2871 265.721 27.3159 265.75 27.3303C265.779 27.3447 265.822 27.3735 265.865 27.4023C266.067 27.5608 266.211 27.6904 266.269 27.7768C266.369 27.8488 266.413 27.964 266.427 28.0792ZM267.925 27.9928C267.939 28.0936 267.939 28.1944 267.896 28.3096C267.867 28.4248 267.81 28.5401 267.738 28.6841C267.666 28.8281 267.565 28.9577 267.435 29.0729C267.363 29.1449 267.291 29.1881 267.248 29.1881C267.219 29.1881 267.147 29.1449 267.046 29.0585C266.945 28.9721 266.859 28.9001 266.773 28.8281C266.686 28.7705 266.614 28.6985 266.557 28.6409C266.499 28.5833 266.47 28.5401 266.47 28.4969C266.528 28.3672 266.571 28.2808 266.6 28.2088C266.701 27.9928 266.773 27.8344 266.816 27.748C266.902 27.604 266.989 27.4455 267.075 27.3015C267.089 27.2727 267.118 27.2295 267.161 27.1719C267.19 27.2007 267.219 27.2295 267.248 27.2439C267.277 27.2583 267.32 27.2871 267.363 27.3159C267.565 27.4743 267.709 27.604 267.766 27.6904C267.867 27.7624 267.91 27.8776 267.925 27.9928ZM275.687 34.5599C275.687 34.6751 275.673 34.7615 275.658 34.8191C275.644 34.8767 275.586 34.9631 275.529 35.0639C275.342 35.3231 275.183 35.4527 275.068 35.4527C275.039 35.4527 274.996 35.4239 274.924 35.3519C274.852 35.2799 274.794 35.2079 274.722 35.1503C274.521 34.9775 274.42 34.8623 274.42 34.8335C274.42 34.8047 274.477 34.6895 274.564 34.5167C274.636 34.387 274.693 34.3006 274.722 34.243C274.809 34.0846 274.866 33.9982 274.881 33.955C274.967 33.8254 275.025 33.7678 275.039 33.7678C275.053 33.7678 275.082 33.7822 275.14 33.811C275.183 33.8398 275.241 33.8974 275.298 33.955C275.457 34.099 275.558 34.2286 275.601 34.3006C275.658 34.387 275.687 34.4734 275.687 34.5599ZM275.111 32.9757C275.111 33.0909 275.097 33.1773 275.082 33.2349C275.068 33.2925 275.01 33.3789 274.953 33.4797C274.765 33.739 274.607 33.8686 274.492 33.8686C274.463 33.8686 274.42 33.8398 274.348 33.7678C274.276 33.6958 274.218 33.6238 274.146 33.5662C273.945 33.3933 273.844 33.2925 273.844 33.2493C273.844 33.2205 273.887 33.1053 273.988 32.9325C274.06 32.8029 274.117 32.7165 274.146 32.6589C274.233 32.5148 274.29 32.414 274.305 32.3708C274.391 32.2412 274.449 32.1836 274.463 32.1836C274.477 32.1836 274.506 32.198 274.564 32.2268C274.607 32.2556 274.665 32.3132 274.722 32.3708C274.881 32.5293 274.981 32.6445 275.025 32.7165C275.082 32.7885 275.111 32.8893 275.111 32.9757ZM276.35 32.9757C276.35 33.0909 276.335 33.1773 276.321 33.2349C276.306 33.2925 276.249 33.3789 276.191 33.4797C276.004 33.739 275.846 33.8686 275.73 33.8686C275.702 33.8686 275.658 33.8398 275.586 33.7678C275.514 33.6958 275.457 33.6238 275.385 33.5662C275.183 33.3933 275.082 33.2925 275.082 33.2493C275.082 33.2205 275.125 33.1053 275.241 32.9325C275.313 32.8029 275.37 32.7165 275.399 32.6589C275.486 32.5148 275.543 32.414 275.558 32.3708C275.644 32.2412 275.702 32.1836 275.716 32.1836C275.73 32.1836 275.759 32.198 275.817 32.2268C275.86 32.2556 275.918 32.3132 275.975 32.3708C276.134 32.5293 276.234 32.6445 276.278 32.7165C276.335 32.7885 276.35 32.8893 276.35 32.9757Z" fill="#A34545"/>
<path d="M232.303 38.7708L231.903 38.7015V38.3708H232.709C232.783 38.3708 232.899 38.3673 233.055 38.3602C233.262 38.3459 233.448 38.3388 233.615 38.3388C233.985 38.3388 234.277 38.3851 234.49 38.4775C234.707 38.5664 234.86 38.6962 234.949 38.8668C235.041 39.0339 235.087 39.2473 235.087 39.5068C235.087 39.9548 234.947 40.3033 234.666 40.5522C234.389 40.8011 234.003 40.9255 233.509 40.9255C233.313 40.9255 233.173 40.9202 233.087 40.9095V41.9602L233.802 42.0135V42.3335H231.882V42.0135L232.303 41.9602V38.7708ZM233.082 40.5682C233.164 40.5859 233.302 40.5948 233.498 40.5948C233.736 40.5948 233.926 40.5131 234.069 40.3495C234.214 40.1824 234.287 39.9068 234.287 39.5228C234.287 39.2242 234.222 39.0073 234.09 38.8722C233.962 38.7335 233.765 38.6642 233.498 38.6642C233.398 38.6642 233.295 38.6713 233.189 38.6855C233.139 38.6926 233.103 38.6962 233.082 38.6962V40.5682ZM237.088 42.3922C236.508 42.3922 236.075 42.2108 235.787 41.8482C235.499 41.4855 235.355 40.9913 235.355 40.3655C235.355 39.9566 235.429 39.5975 235.579 39.2882C235.732 38.9788 235.945 38.7406 236.219 38.5735C236.492 38.4064 236.807 38.3228 237.163 38.3228C237.749 38.3228 238.188 38.4971 238.48 38.8455C238.775 39.1904 238.923 39.6739 238.923 40.2962C238.923 40.7086 238.844 41.0748 238.688 41.3948C238.535 41.7113 238.32 41.9566 238.043 42.1308C237.765 42.3051 237.447 42.3922 237.088 42.3922ZM237.141 38.6482C236.85 38.6482 236.622 38.7922 236.459 39.0802C236.295 39.3682 236.213 39.7948 236.213 40.3602C236.213 40.9184 236.292 41.3433 236.448 41.6348C236.608 41.9228 236.836 42.0668 237.131 42.0668C237.419 42.0668 237.644 41.9157 237.808 41.6135C237.972 41.3077 238.053 40.8686 238.053 40.2962C238.053 39.7415 237.975 39.3291 237.819 39.0588C237.662 38.7851 237.436 38.6482 237.141 38.6482ZM240.659 42.3922C240.467 42.3922 240.294 42.3762 240.142 42.3442C239.989 42.3122 239.818 42.2695 239.63 42.2162C239.505 42.1806 239.422 42.1611 239.379 42.1575L239.427 41.1708H239.859L239.976 41.8588C240.022 41.9086 240.104 41.9531 240.222 41.9922C240.342 42.0313 240.479 42.0508 240.632 42.0508C240.87 42.0508 241.048 41.9993 241.166 41.8962C241.286 41.7895 241.347 41.6419 241.347 41.4535C241.347 41.3291 241.311 41.2224 241.24 41.1335C241.169 41.0411 241.071 40.9593 240.947 40.8882C240.822 40.8135 240.652 40.7282 240.435 40.6322C240.14 40.4971 239.894 40.3371 239.699 40.1522C239.507 39.9637 239.411 39.7095 239.411 39.3895C239.411 39.1904 239.462 39.0108 239.566 38.8508C239.669 38.6873 239.822 38.5593 240.024 38.4668C240.23 38.3708 240.481 38.3228 240.776 38.3228C240.95 38.3228 241.103 38.3353 241.235 38.3602C241.37 38.3851 241.516 38.4188 241.672 38.4615C241.765 38.4864 241.834 38.5024 241.88 38.5095L241.848 39.4428H241.422L241.31 38.7868C241.278 38.7548 241.214 38.7246 241.118 38.6962C241.022 38.6642 240.915 38.6482 240.798 38.6482C240.584 38.6482 240.422 38.6979 240.312 38.7975C240.206 38.8935 240.152 39.0233 240.152 39.1868C240.152 39.3184 240.191 39.4322 240.27 39.5282C240.351 39.6242 240.449 39.7059 240.563 39.7735C240.677 39.8375 240.856 39.9299 241.102 40.0508C241.301 40.1468 241.471 40.2411 241.614 40.3335C241.756 40.4259 241.878 40.5468 241.982 40.6962C242.085 40.8419 242.136 41.0144 242.136 41.2135C242.136 41.4091 242.086 41.5957 241.987 41.7735C241.891 41.9513 241.731 42.0988 241.507 42.2162C241.286 42.3335 241.004 42.3922 240.659 42.3922ZM243.792 38.7228L243.03 38.7495L242.822 39.9122H242.374L242.464 38.3708H245.904L245.968 39.9122H245.547L245.339 38.7495L244.587 38.7228V41.9602L245.334 42.0135V42.3335H243.11V42.0135L243.792 41.9602V38.7228ZM246.715 38.7708L246.299 38.7015V38.3708H247.093C247.214 38.3708 247.371 38.3637 247.563 38.3495C247.609 38.3459 247.664 38.3424 247.728 38.3388C247.792 38.3353 247.867 38.3335 247.952 38.3335C248.489 38.3335 248.864 38.4099 249.077 38.5628C249.294 38.7122 249.403 38.9362 249.403 39.2348C249.403 39.4979 249.323 39.7184 249.163 39.8962C249.006 40.0704 248.8 40.1771 248.544 40.2162C248.896 40.2126 249.172 40.2926 249.371 40.4562C249.573 40.6197 249.675 40.8473 249.675 41.1388C249.675 41.5086 249.545 41.8055 249.285 42.0295C249.026 42.2535 248.592 42.3655 247.984 42.3655C247.824 42.3655 247.676 42.3602 247.541 42.3495C247.506 42.3495 247.445 42.3459 247.36 42.3388C247.275 42.3353 247.188 42.3335 247.099 42.3335H246.293V42.0135L246.715 41.9602V38.7708ZM247.488 40.0988C247.527 40.1024 247.607 40.1042 247.728 40.1042H247.979C248.196 40.1042 248.357 40.0366 248.464 39.9015C248.571 39.7664 248.624 39.5762 248.624 39.3308C248.624 39.0962 248.569 38.9255 248.459 38.8188C248.348 38.7122 248.165 38.6588 247.909 38.6588C247.842 38.6588 247.701 38.6659 247.488 38.6802V40.0988ZM247.488 41.9815C247.57 42.0135 247.726 42.0295 247.957 42.0295C248.26 42.0295 248.478 41.9584 248.613 41.8162C248.748 41.6739 248.816 41.4677 248.816 41.1975C248.816 40.9379 248.754 40.7531 248.629 40.6428C248.508 40.5291 248.315 40.4722 248.048 40.4722C247.749 40.4722 247.563 40.4757 247.488 40.4828V41.9815ZM251.302 38.3495H252.118L253.35 41.9602L253.659 42.0135V42.3335H252.086V42.0135L252.486 41.9602L252.278 41.2668H250.896L250.688 41.9655L251.12 42.0135V42.3335H249.76L249.755 42.0135L250.075 41.9602L251.302 38.3495ZM251.67 39.2508L251.574 38.8348L251.472 39.2562L250.998 40.8935H252.171L251.67 39.2508ZM254.225 38.7708L253.804 38.7015V38.3708H255.014L256.604 40.7708L256.902 41.3788V38.7708L256.444 38.7015V38.3708H257.766V38.7015L257.356 38.7708V42.3335H256.71L255.052 39.8108L254.678 39.1068V41.9602L255.217 42.0135V42.3335H253.804V42.0135L254.225 41.9602V38.7708ZM260.912 42.3335C260.858 42.3335 260.789 42.2659 260.704 42.1308C260.618 41.9922 260.499 41.7735 260.346 41.4748C260.215 41.2188 260.105 41.0126 260.016 40.8562C259.927 40.6997 259.842 40.5699 259.76 40.4668L259.285 41.0108V41.9602L259.744 42.0188V42.3335H258.085V42.0135L258.506 41.9602V38.7708L258.09 38.7015V38.3708H259.696V38.7015L259.285 38.7708V40.5095L260.688 38.7708L260.25 38.7015V38.3708H261.69V38.7015L261.248 38.7708L260.213 39.9335C260.338 40.0473 260.469 40.2091 260.608 40.4188C260.746 40.6251 260.915 40.8953 261.114 41.2295C261.26 41.4748 261.37 41.6544 261.445 41.7682C261.52 41.8784 261.577 41.9424 261.616 41.9602L261.866 42.0188V42.3335H260.912ZM263.815 38.7708L263.362 38.7015V38.3708H265.069V38.7015L264.599 38.7708V41.9602L265.069 42.0188V42.3335H263.362V42.0135L263.815 41.9602V38.7708ZM265.517 42.0135L265.939 41.9602V38.7708L265.539 38.6962V38.3708H266.312C266.379 38.3708 266.454 38.3691 266.536 38.3655C266.618 38.3619 266.68 38.3584 266.723 38.3548C266.907 38.3406 267.06 38.3335 267.181 38.3335C267.547 38.3335 267.841 38.3708 268.061 38.4455C268.282 38.5202 268.442 38.6339 268.541 38.7868C268.641 38.9397 268.691 39.1406 268.691 39.3895C268.691 39.6348 268.625 39.8624 268.493 40.0722C268.362 40.2819 268.171 40.4259 267.923 40.5042C268.065 40.5646 268.191 40.6748 268.301 40.8348C268.411 40.9948 268.529 41.2028 268.653 41.4588C268.742 41.6331 268.81 41.7593 268.856 41.8375C268.906 41.9122 268.954 41.9548 269 41.9655L269.176 42.0188V42.3335H268.269C268.212 42.3335 268.152 42.2766 268.088 42.1628C268.027 42.0455 267.947 41.8624 267.848 41.6135C267.731 41.3219 267.629 41.0944 267.544 40.9308C267.459 40.7673 267.368 40.6659 267.272 40.6268H266.723V41.9602L267.213 42.0135V42.3335H265.517V42.0135ZM267.213 40.3015C267.416 40.3015 267.574 40.2286 267.688 40.0828C267.802 39.9371 267.859 39.7184 267.859 39.4268C267.859 39.1673 267.802 38.9753 267.688 38.8508C267.578 38.7264 267.386 38.6642 267.112 38.6642C267.012 38.6642 266.927 38.6695 266.856 38.6802C266.788 38.6873 266.744 38.6908 266.723 38.6908V40.2908C266.765 40.2979 266.868 40.3015 267.032 40.3015H267.213ZM270.609 38.3495H271.425L272.657 41.9602L272.966 42.0135V42.3335H271.393V42.0135L271.793 41.9602L271.585 41.2668H270.204L269.996 41.9655L270.428 42.0135V42.3335H269.068L269.062 42.0135L269.382 41.9602L270.609 38.3495ZM270.977 39.2508L270.881 38.8348L270.78 39.2562L270.305 40.8935H271.478L270.977 39.2508ZM273.532 38.7708L273.111 38.7015V38.3708H274.322L275.911 40.7708L276.21 41.3788V38.7708L275.751 38.7015V38.3708H277.074V38.7015L276.663 38.7708V42.3335H276.018L274.359 39.8108L273.986 39.1068V41.9602L274.524 42.0135V42.3335H273.111V42.0135L273.532 41.9602V38.7708Z" fill="#345934"/>
<path fill-rule="evenodd" clip-rule="evenodd" d="M280.09 32.1765L280.1 31.6757L280.13 31.1849L280.18 30.694L280.25 30.2133L280.33 29.7324L280.43 29.2617L280.551 28.8009L280.701 28.3401L280.861 27.8894L281.041 27.4587L281.242 27.0279L281.452 26.6173L281.672 26.1966L281.913 25.8059L282.444 25.0346L282.504 25.1147L282.624 25.265L282.824 25.4553L283.095 25.6757L283.435 25.886L283.636 25.9862L283.856 26.0764L284.097 26.1565L284.357 26.2366L284.627 26.2867L284.928 26.3368L285.028 26.3468L285.128 26.3769L285.349 26.477L285.579 26.6072L285.819 26.7875L286.07 27.0079L286.32 27.2683L286.851 27.8593L287.382 28.5505L287.923 29.3218L288.454 30.1331L288.975 30.9745L289.475 31.8159L289.936 32.6273L290.708 34.0496L291.238 35.0613L291.429 35.442L293.322 33.5188L293.152 33.1882L292.681 32.3268L291.96 31.1047L291.078 29.6924L290.587 28.9712L290.066 28.28L289.536 27.6289L289.265 27.3184L289.005 27.038L288.734 26.7675L288.464 26.5271L288.193 26.3168L287.933 26.1264L287.672 25.9762L287.422 25.866L287.172 25.7959L286.931 25.7558L286.671 25.7258L286.42 25.6757L286.18 25.5855L285.94 25.4854L285.709 25.3652L285.489 25.2049L285.078 24.8744L284.888 24.6941L284.708 24.4937L284.377 24.1231L284.097 23.7525L283.876 23.4219L284.417 22.9311L284.998 22.4804L285.319 22.9511L285.699 23.472L286.15 24.0129L286.38 24.2733L286.631 24.5238L286.891 24.7642L287.152 24.9946L287.422 25.1949L287.693 25.3752L287.973 25.5154L288.253 25.6256L288.534 25.6957L288.814 25.7258L289.045 25.7458L289.275 25.8059L289.506 25.8961L289.736 26.0163L289.976 26.1765L290.207 26.3668L290.447 26.5672L290.677 26.7976L290.908 27.048L291.148 27.3084L291.369 27.5889L291.599 27.8794L292.04 28.4804L292.44 29.1014L292.821 29.7124L293.172 30.3134L293.753 31.3852L294.273 32.4269L295.976 30.7241L295.856 30.4937L295.516 29.8827L294.995 29.0313L294.334 28.0296L293.963 27.5188L293.572 27.0179L293.362 26.7775L293.152 26.5471L292.711 26.1264L292.491 25.9361L292.27 25.7558L292.05 25.5956L291.829 25.4653L291.599 25.3552L291.379 25.275L291.158 25.2149L290.938 25.1749L290.627 25.1248L290.317 25.0246L290.016 24.8744L289.716 24.684L289.425 24.4737L289.145 24.2233L288.864 23.9628L288.604 23.6723L288.344 23.3819L288.103 23.0713L287.652 22.4603L287.272 21.8693L286.961 21.3284L287.552 21.068L288.153 20.8376L288.524 21.4486L288.965 22.1198L289.455 22.8009L290.006 23.472L290.297 23.7825L290.587 24.083L290.888 24.3435L291.198 24.5839L291.509 24.7842L291.819 24.9445L291.98 25.0046L292.14 25.0446L292.3 25.0847L292.46 25.1047L292.671 25.1348L292.881 25.1849L293.081 25.255L293.292 25.3451L293.693 25.5956L294.073 25.8961L294.454 26.2466L294.814 26.6273L295.165 27.0279L295.486 27.4486L296.056 28.27L296.287 28.6406L296.497 28.9712L296.778 29.472L296.878 29.6623L298.521 28.1298L298.44 27.9795L298.21 27.6089L297.829 27.068L297.599 26.7575L297.339 26.447L297.048 26.1264L296.738 25.8059L296.417 25.5154L296.066 25.235L295.706 25.0046L295.325 24.8042L295.125 24.7341L294.925 24.674L294.724 24.6239L294.524 24.5939L294.273 24.5438L294.023 24.4436L293.763 24.2733L293.492 24.073L293.212 23.8326L292.941 23.5622L292.661 23.2617L292.38 22.9411L292.25 22.7708L292.12 22.5905L291.859 22.25L290.908 20.8677L290.527 20.2567L290.908 20.2166L291.299 20.1865L291.679 20.1665H292.07H292.37L292.771 20.8076L293.252 21.4987L293.773 22.2299L294.304 22.9111L294.844 23.5321L295.115 23.8026L295.365 24.043L295.616 24.2433L295.856 24.3935L296.076 24.4937L296.177 24.5238L296.277 24.5338L296.467 24.5538L296.657 24.5839L297.018 24.674L297.349 24.8142L297.669 24.9845L297.96 25.1949L298.22 25.4153L298.691 25.886L298.891 26.1264L299.071 26.3568L299.332 26.7575L299.552 27.1381L300.905 25.6557L300.774 25.5355L300.654 25.3351L300.574 25.2249L300.464 25.1147L300.183 24.8643L300.003 24.7542L299.803 24.644L299.572 24.5338L299.322 24.4436L299.041 24.3735L298.731 24.3134L298.491 24.2533L298.24 24.1531L297.99 24.0129L297.739 23.8326L297.489 23.6223L297.238 23.3819L296.758 22.861L296.297 22.29L295.866 21.7091L295.486 21.1481L295.175 20.6373L295.656 20.7875L296.117 20.9478L296.577 21.1281L297.028 21.3184L297.459 21.5388L297.9 21.7692L298.31 22.0096L298.711 22.27L299.102 22.5505L299.482 22.841L299.843 23.1415L300.203 23.462L300.544 23.8026L300.874 24.1431L301.185 24.5037L301.486 24.8744L301.776 25.255L302.046 25.6456L302.307 26.0563L302.547 26.467L302.768 26.8877L302.978 27.3385L303.168 27.7892L303.349 28.25L303.499 28.7208L303.629 29.2016L303.739 29.6824L303.829 30.1832L303.9 30.684L303.96 31.1849L303.99 31.6957L304 32.2166L303.98 32.8276L303.94 33.4386L303.859 34.0296L303.759 34.6206L303.629 35.2016L303.469 35.7625L303.278 36.3234L303.178 36.5939L303.068 36.8643L302.828 37.3952L302.567 37.9161L302.277 38.4169L301.966 38.9077L301.636 39.3785L301.285 39.8393L300.905 40.27L300.514 40.6907L300.103 41.0814L299.672 41.452L299.222 41.8026L298.751 42.1331L298.26 42.4436L297.759 42.7341L297.238 42.9945L296.708 43.235L296.167 43.4553L295.886 43.5455L295.606 43.6356L295.035 43.8059L294.464 43.9361L293.873 44.0363L293.272 44.1064L292.671 44.1565L292.05 44.1665L291.439 44.1565L290.838 44.1064L290.237 44.0363L289.646 43.9361L289.075 43.8059L288.504 43.6356L287.943 43.4453L287.672 43.3451L287.402 43.235L286.871 42.9945L286.35 42.7341L285.849 42.4436L285.359 42.1331L284.888 41.8026L284.437 41.452L283.996 41.0814L283.586 40.6907L283.195 40.27L282.814 39.8393L282.464 39.3785L282.133 38.9077L281.823 38.4169L281.532 37.9161L281.272 37.3952L281.031 36.8643L280.811 36.3234L280.721 36.043L280.631 35.7625L280.47 35.2016L280.34 34.6206L280.24 34.0296L280.16 33.4386L280.12 32.8276L280.09 32.1765Z" fill="#345934"/>
</g>
<defs>
<linearGradient id="paint0_linear_5137_22806" x1="160" y1="-13.5" x2="167.853" y2="195.705" gradientUnits="userSpaceOnUse">
<stop offset="0.0215979" stop-color="#FFF6E2"/>
<stop offset="0.261554" stop-color="#B4893A" stop-opacity="0.88"/>
<stop offset="0.458442" stop-color="#B17827"/>
<stop offset="0.606107" stop-color="#BD882C" stop-opacity="0.89"/>
<stop offset="0.852216" stop-color="white"/>
</linearGradient>
<radialGradient id="paint1_radial_5137_22806" cx="0" cy="0" r="1" gradientUnits="userSpaceOnUse" gradientTransform="translate(8.53396 91.5032) rotate(-14.628) scale(7.02379 5.45851)">
<stop offset="0.1154" stop-color="#FBFDFE"/>
<stop offset="1" stop-color="white" stop-opacity="0"/>
</radialGradient>
<radialGradient id="paint2_radial_5137_22806" cx="0" cy="0" r="1" gradientUnits="userSpaceOnUse" gradientTransform="translate(51.1053 75.5338) rotate(-14.628) scale(5.60413 4.35523)">
<stop offset="0.1154" stop-color="#FBFDFE"/>
<stop offset="1" stop-color="white" stop-opacity="0"/>
</radialGradient>
<radialGradient id="paint3_radial_5137_22806" cx="0" cy="0" r="1" gradientUnits="userSpaceOnUse" gradientTransform="translate(62.8049 50.2414) rotate(-14.628) scale(5.65528 4.39498)">
<stop offset="0.1154" stop-color="#FBFDFE"/>
<stop offset="1" stop-color="white" stop-opacity="0"/>
</radialGradient>
<radialGradient id="paint4_radial_5137_22806" cx="0" cy="0" r="1" gradientUnits="userSpaceOnUse" gradientTransform="translate(-18.8688 17.2593) rotate(-14.628) scale(13.4601 10.4605)">
<stop offset="0.1154" stop-color="#FBFDFE"/>
<stop offset="1" stop-color="white" stop-opacity="0"/>
</radialGradient>
<radialGradient id="paint5_radial_5137_22806" cx="0" cy="0" r="1" gradientUnits="userSpaceOnUse" gradientTransform="translate(68.7536 88.5319) rotate(-14.628) scale(6.58347 5.11632)">
<stop offset="0.1154" stop-color="#FBFDFE"/>
<stop offset="1" stop-color="white" stop-opacity="0"/>
</radialGradient>
<radialGradient id="paint6_radial_5137_22806" cx="0" cy="0" r="1" gradientUnits="userSpaceOnUse" gradientTransform="translate(44.0176 121.288) rotate(-14.628) scale(6.78481 5.27278)">
<stop offset="0.1154" stop-color="#FBFDFE"/>
<stop offset="1" stop-color="white" stop-opacity="0"/>
</radialGradient>
<radialGradient id="paint7_radial_5137_22806" cx="0" cy="0" r="1" gradientUnits="userSpaceOnUse" gradientTransform="translate(119.126 146.91) rotate(-14.628) scale(9.28781 7.21798)">
<stop offset="0.1154" stop-color="#FBFDFE"/>
<stop offset="1" stop-color="white" stop-opacity="0"/>
</radialGradient>
<radialGradient id="paint8_radial_5137_22806" cx="0" cy="0" r="1" gradientUnits="userSpaceOnUse" gradientTransform="translate(175.419 125.793) rotate(-14.628) scale(7.41055 5.75908)">
<stop offset="0.1154" stop-color="#FBFDFE"/>
<stop offset="1" stop-color="white" stop-opacity="0"/>
</radialGradient>
<radialGradient id="paint9_radial_5137_22806" cx="0" cy="0" r="1" gradientUnits="userSpaceOnUse" gradientTransform="translate(190.888 92.3479) rotate(-14.628) scale(7.47817 5.81163)">
<stop offset="0.1154" stop-color="#FBFDFE"/>
<stop offset="1" stop-color="white" stop-opacity="0"/>
</radialGradient>
<radialGradient id="paint10_radial_5137_22806" cx="0" cy="0" r="1" gradientUnits="userSpaceOnUse" gradientTransform="translate(82.8907 48.7342) rotate(-14.628) scale(17.7988 13.8323)">
<stop offset="0.1154" stop-color="#FBFDFE"/>
<stop offset="1" stop-color="white" stop-opacity="0"/>
</radialGradient>
<radialGradient id="paint11_radial_5137_22806" cx="0" cy="0" r="1" gradientUnits="userSpaceOnUse" gradientTransform="translate(198.756 142.981) rotate(-14.628) scale(8.70556 6.76549)">
<stop offset="0.1154" stop-color="#FBFDFE"/>
<stop offset="1" stop-color="white" stop-opacity="0"/>
</radialGradient>
<clipPath id="clip0_5137_22806">
<rect width="320" height="172.333" rx="12" fill="white"/>
</clipPath>
</defs>
</svg>
