<svg width="320" height="172" viewBox="0 0 320 172" fill="none" xmlns="http://www.w3.org/2000/svg">
<rect width="320" height="172" rx="12" fill="#C8C8C8"/>
<rect width="320" height="12" transform="translate(0 46)" fill="url(#paint0_linear_4836_19596)"/>
<path fill-rule="evenodd" clip-rule="evenodd" d="M264.886 35.082V35.3661C264.886 35.8907 265.04 36.2623 265.326 36.4809C265.502 36.5902 265.7 36.6557 265.942 36.6557C266.118 36.6557 266.294 36.459 266.426 36.0437C266.448 35.9563 266.492 35.847 266.514 35.7377C266.536 35.6284 266.58 35.5628 266.646 35.5628C266.712 35.5628 266.734 35.6284 266.734 35.7596C266.734 35.8033 266.734 35.8907 266.712 36C266.69 36.1093 266.668 36.1967 266.668 36.2623C266.492 37.0273 266.294 37.6175 266.03 38.0328C265.766 38.4481 265.502 38.6667 265.238 38.6667C264.798 38.6667 264.512 38.4699 264.358 38.0765C264.204 37.6831 264.116 37.2022 264.116 36.5902C264.116 36.4372 264.182 35.7596 264.336 34.5574C264.49 33.3552 264.6 32.4372 264.688 31.8033C264.71 31.7596 264.798 31.4754 264.996 31.0164C265.194 30.5574 265.348 30.1639 265.458 29.9235C265.48 29.9016 265.502 29.9016 265.546 29.8798C265.568 29.9235 265.546 30.0328 265.524 30.1858L265.436 30.6885L265.106 33.0492C265.04 33.5301 264.996 33.9453 264.974 34.2951C264.886 34.6667 264.886 34.929 264.886 35.082ZM251.995 29.8798C251.533 29.7705 251.049 30.1202 250.983 30.6667C250.917 31.4098 250.543 31.5628 249.993 31.541C249.839 31.541 249.795 31.5191 249.685 31.6284C249.553 31.7814 249.641 32 249.927 32.1093C250.103 32.1749 250.213 32.1967 250.411 32.153C250.917 32.0874 251.401 31.6066 251.379 31.082C251.357 30.7322 251.555 30.4262 251.841 30.3606C251.951 30.3388 252.039 30.3607 252.149 30.2951C252.237 30.2295 252.259 30.1421 252.237 30.0546C252.193 29.9235 252.105 29.9016 251.995 29.8798ZM233.758 28.3934C233.78 28.5246 233.78 28.6776 233.736 28.8306C233.692 28.9836 233.604 29.1585 233.516 29.3552C233.406 29.5519 233.274 29.7268 233.099 29.9016C232.989 30.0109 232.901 30.0546 232.835 30.0546C232.791 30.0546 232.703 29.9891 232.549 29.8798C232.395 29.7486 232.285 29.6612 232.153 29.5519C232.043 29.4645 231.933 29.377 231.845 29.2896C231.757 29.2022 231.713 29.1366 231.713 29.0929C231.801 28.918 231.867 28.7869 231.889 28.6776C232.021 28.3716 232.131 28.153 232.197 28.0219C232.329 27.8251 232.439 27.6066 232.571 27.388C232.593 27.3443 232.637 27.2787 232.703 27.2131C232.747 27.2568 232.791 27.2787 232.835 27.3224C232.879 27.3443 232.923 27.388 232.989 27.4317C233.274 27.6721 233.472 27.847 233.56 27.9563C233.67 28.0874 233.714 28.2186 233.758 28.3934ZM226.653 35.3224C226.653 35.5847 226.609 35.8907 226.521 36.2404C226.433 36.5683 226.323 36.8743 226.169 37.1585C225.927 37.5956 225.707 37.9235 225.465 38.1639C225.223 38.3825 224.959 38.5137 224.651 38.5137C224.189 38.5137 223.947 38.2295 223.947 37.6612C223.947 37.4645 223.969 37.2678 224.035 37.0492L224.343 36.3934L224.629 35.8907C224.541 35.8689 224.497 35.847 224.475 35.847C224.453 35.847 224.431 35.847 224.431 35.847C224.409 35.8033 224.453 35.6503 224.541 35.4317C224.695 35.1038 224.805 34.8634 224.871 34.6885L225.223 33.9016C225.289 33.7486 225.355 33.6612 225.443 33.6612C225.509 33.6612 225.597 33.7049 225.729 33.7705C225.861 33.8579 225.971 33.9235 226.059 33.9891C226.257 34.1858 226.411 34.3607 226.499 34.5355C226.609 34.6885 226.653 34.9508 226.653 35.3224ZM225.729 36.8306C225.729 36.6557 225.663 36.5027 225.531 36.3934C225.465 36.3279 225.377 36.2623 225.267 36.1967C225.157 36.1311 225.047 36.0874 224.981 36.0874C224.937 36.0874 224.827 36.1967 224.695 36.4153C224.541 36.6339 224.475 36.8087 224.475 36.9617C224.475 37.2459 224.651 37.3989 224.981 37.3989C225.135 37.3989 225.311 37.3333 225.487 37.224C225.641 37.0929 225.729 36.9618 225.729 36.8306ZM229.029 34.9945C229.029 35.1694 229.029 35.3224 229.029 35.4973C229.051 35.694 229.117 35.8907 229.227 36.0437C229.337 36.1967 229.491 36.3279 229.689 36.4372C229.887 36.5246 230.085 36.5902 230.261 36.5902C231.053 36.5902 231.581 36.306 231.867 35.7377C231.801 35.6284 231.757 35.541 231.713 35.4973C231.625 35.4098 231.537 35.388 231.449 35.388C231.427 35.388 231.361 35.4098 231.229 35.4754C231.097 35.541 230.987 35.5628 230.921 35.5628C230.635 35.5628 230.437 35.4536 230.327 35.235C230.283 35.1475 230.261 35.0382 230.305 34.8852C230.349 34.7322 230.393 34.6229 230.415 34.5137C230.569 34.0984 230.723 33.7924 230.877 33.5519C231.075 33.2459 231.295 33.1148 231.493 33.1148C231.735 33.1148 231.999 33.2678 232.241 33.5519C232.505 33.8361 232.615 34.2076 232.615 34.6229C232.615 35.0382 232.505 35.541 232.263 36.1093C232.021 36.6995 231.735 37.1803 231.427 37.5738C231.229 37.8142 231.053 38.0109 230.899 38.1421C230.569 38.4262 230.173 38.5792 229.711 38.5792C229.161 38.5792 228.765 38.3825 228.523 38.0109C228.303 37.6393 228.171 37.1366 228.171 36.5246C228.171 36.3716 228.237 35.694 228.391 34.4918C228.545 33.2896 228.655 32.3716 228.743 31.7377C228.765 31.694 228.853 31.4098 229.051 30.9508C229.249 30.4699 229.403 30.0984 229.513 29.8579C229.535 29.8361 229.557 29.8361 229.601 29.8142C229.623 29.8579 229.601 29.9672 229.579 30.1202L229.491 30.6229L229.161 32.9836C229.095 33.4645 229.051 33.8798 229.029 34.2295C229.029 34.6011 229.029 34.8415 229.029 34.9945ZM236.244 33.4208C236.244 33.5738 236.222 33.8361 236.156 34.2077C236.09 34.5792 236.024 34.8852 235.958 35.1694L235.716 36.1311C235.584 36.5027 235.474 36.765 235.408 36.918C235.298 37.1585 235.188 37.3552 235.078 37.5301C234.99 37.6831 234.88 37.8142 234.77 37.8798C234.66 37.9672 234.484 38.0765 234.242 38.2076L233.538 38.4918C233.472 38.5137 233.318 38.5574 233.077 38.6011C232.835 38.6448 232.681 38.6885 232.615 38.6885C232.549 38.6885 232.505 38.6667 232.505 38.623C232.483 38.5792 232.505 38.5137 232.549 38.4481C232.615 38.3388 232.791 38.1639 233.055 37.9672C233.318 37.7705 233.582 37.5519 233.846 37.3552C234.154 37.0929 234.374 36.8743 234.506 36.7213C234.704 36.5027 234.902 36.2404 235.1 35.9344C235.144 35.8688 235.188 35.7377 235.276 35.541C235.342 35.3443 235.452 35.0164 235.628 34.5574L235.87 33.8579C235.892 33.7486 235.936 33.6175 235.98 33.4863C236.024 33.3333 236.09 33.2678 236.178 33.2678C236.2 33.3115 236.244 33.377 236.244 33.4208ZM262.862 28.0219C263.148 27.7158 263.764 27.1694 264.71 26.4262C265.546 25.7705 266.382 25.0929 267.218 24.4153C267.812 23.9126 268.384 23.4317 268.934 22.929C269.329 22.5574 269.835 22.0765 270.473 21.4426C271.441 20.5027 271.947 20.0219 271.947 20C271.947 20.0656 271.925 20.1311 271.903 20.1749C271.859 20.3497 271.749 20.6339 271.529 20.9836C271.331 21.3552 271.155 21.6175 271.001 21.7923C270.803 22.0546 270.561 22.3388 270.319 22.6011C270.077 22.8634 269.879 23.0601 269.747 23.2131C269.549 23.4098 269.219 23.7158 268.758 24.1311C268.406 24.4372 267.878 24.8962 267.174 25.4863C266.668 25.9016 266.228 26.2514 265.854 26.5574C265.326 26.9508 264.82 27.3443 264.292 27.7377L262.95 28.7869C262.752 28.9399 262.576 29.0929 262.4 29.224C262.224 29.3552 262.114 29.3989 262.092 29.377C262.202 29.0929 262.312 28.8306 262.444 28.5902C262.554 28.3934 262.708 28.1967 262.862 28.0219ZM261.102 35.082C261.102 34.3388 261.256 33.2459 261.542 31.847C261.718 31.082 261.872 30.3169 262.048 29.53C262.048 29.4863 262.026 29.4426 261.982 29.4426C261.938 29.4208 261.872 29.4863 261.806 29.5956C261.652 29.8579 261.52 30.1202 261.388 30.4262C261.256 30.7104 261.146 30.9508 261.058 31.1475L260.728 32.306C260.574 32.6995 260.398 33.0055 260.222 33.2678C259.98 33.5956 259.628 33.9235 259.21 34.2077C258.396 34.7322 257.472 35.1913 256.417 35.5847C255.735 35.8251 254.987 36.0656 254.195 36.2623C252.743 36.6339 251.137 36.918 249.377 37.071C247.595 37.2459 245.923 37.3333 244.318 37.3333C242.36 37.3333 240.644 37.1585 239.17 36.7869C238.906 36.7213 238.642 36.6339 238.378 36.5464C238.114 36.459 237.982 36.4153 237.982 36.4153C237.938 36.4153 237.916 36.4809 237.894 36.612C237.872 36.7432 237.872 36.9399 237.872 37.1585C237.872 37.6175 237.916 37.9672 238.004 38.2076C238.158 38.6011 238.4 38.8634 238.796 38.9945C239.17 39.1257 239.522 39.1913 239.874 39.235C240.666 39.3443 241.744 39.388 243.152 39.388C244.362 39.388 245.461 39.3443 246.495 39.2787C247.991 39.1694 249.421 38.9727 250.807 38.7322C252.391 38.4481 253.865 38.0546 255.207 37.5519C255.801 37.3333 256.307 37.1148 256.703 36.9399C257.56 36.5464 258.286 36.1312 258.902 35.6721C259.408 35.3005 259.848 34.8852 260.2 34.4262C260.31 34.2732 260.442 34.0765 260.596 33.8142C260.64 33.8142 260.662 33.8579 260.64 33.9672C260.618 34.0765 260.596 34.1858 260.596 34.2951C260.508 34.8415 260.464 35.3005 260.42 35.694C260.376 36.0874 260.354 36.3716 260.354 36.5902C260.354 37.1803 260.442 37.6831 260.596 38.0765C260.75 38.4699 261.058 38.6667 261.476 38.6667C261.74 38.6667 262.026 38.4481 262.268 38.0328C262.532 37.6175 262.752 37.0273 262.906 36.2623C262.928 36.1967 262.928 36.1093 262.95 36C262.972 35.8907 262.972 35.8251 262.972 35.7596C262.972 35.6284 262.95 35.5628 262.884 35.5628C262.84 35.5628 262.796 35.6284 262.752 35.7377C262.73 35.847 262.686 35.9563 262.664 36.0437C262.51 36.4372 262.356 36.6557 262.18 36.6557C261.938 36.6557 261.74 36.5902 261.564 36.4809C261.278 36.2841 261.124 35.9126 261.124 35.3661L261.102 35.082ZM262.092 24.7869C262.114 24.918 262.114 25.071 262.07 25.224C262.026 25.377 261.938 25.5519 261.85 25.7486C261.74 25.9454 261.608 26.1202 261.432 26.2951C261.322 26.4044 261.234 26.4481 261.168 26.4481C261.124 26.4481 261.036 26.3825 260.882 26.2732C260.728 26.1421 260.618 26.0546 260.486 25.9454C260.376 25.8579 260.266 25.7705 260.178 25.6831C260.09 25.5956 260.046 25.53 260.046 25.4863C260.134 25.3115 260.2 25.1803 260.222 25.071C260.354 24.765 260.464 24.5464 260.53 24.4153C260.662 24.2186 260.772 24 260.904 23.7814C260.926 23.7377 260.97 23.6721 261.036 23.6066C261.08 23.6503 261.124 23.6721 261.168 23.7158C261.212 23.7377 261.256 23.7814 261.322 23.8251C261.608 24.0656 261.806 24.2404 261.894 24.3497C262.004 24.4809 262.048 24.6339 262.092 24.7869ZM265.92 42.2732C265.942 42.4044 265.942 42.5574 265.898 42.7322C265.854 42.8852 265.766 43.082 265.656 43.2787C265.546 43.4754 265.414 43.6721 265.216 43.8251C265.106 43.9344 265.018 44 264.952 44C264.908 44 264.82 43.9344 264.666 43.8033C264.512 43.6721 264.38 43.5628 264.27 43.4754C264.16 43.388 264.05 43.3006 263.962 43.2131C263.874 43.1257 263.83 43.0601 263.83 42.9945C263.918 42.8197 263.984 42.6667 264.028 42.5792C264.16 42.2732 264.27 42.0546 264.336 41.9016C264.468 41.6831 264.6 41.4645 264.71 41.2459C264.732 41.2022 264.776 41.1366 264.842 41.0492C264.886 41.0929 264.93 41.1366 264.974 41.1585C265.018 41.1803 265.062 41.224 265.15 41.2678C265.436 41.5082 265.634 41.6831 265.744 41.8142C265.832 41.9454 265.898 42.0984 265.92 42.2732Z" fill="#0A0B40"/>
<path fill-rule="evenodd" clip-rule="evenodd" d="M289.199 44C287.393 44 285.908 42.5442 285.908 40.7508C285.908 38.9679 287.382 37.5015 289.199 37.5015C291.004 37.5015 292.489 38.9574 292.489 40.7508C292.489 42.5442 291.015 44 289.199 44ZM282.308 20L290.716 20.0316C295.085 25.8338 292.66 30.5284 291.132 32.8598H283.355C287.724 31.404 290.374 23.5024 282.308 20ZM285.673 23.6818C282.789 23.6818 279.989 23.6818 277.105 23.6818C272.789 29.1147 276.015 35.2334 277.618 36.4782C285.524 36.5204 293.429 36.5626 301.335 36.6048C303.835 34.0624 305.62 29.0303 301.752 23.8716L293.098 23.7029C301.335 27.7222 298.226 32.902 296.015 35.2018C291.72 35.1596 287.265 35.2651 282.97 35.2123C278.697 32.2163 279.989 25.3802 285.673 23.6818Z" fill="#1D2186"/>
<defs>
<linearGradient id="paint0_linear_4836_19596" x1="320" y1="0" x2="0" y2="0" gradientUnits="userSpaceOnUse">
<stop stop-color="#393B97"/>
<stop offset="0.2375" stop-color="#4494B2" stop-opacity="0.58"/>
<stop offset="0.367708" stop-color="#D33052" stop-opacity="0.5"/>
<stop offset="0.497917" stop-color="#D03254" stop-opacity="0.91"/>
<stop offset="0.628125" stop-color="#D03254" stop-opacity="0.56"/>
<stop offset="0.758333" stop-color="#4792B0" stop-opacity="0.58"/>
<stop offset="1" stop-color="#393E98"/>
</linearGradient>
</defs>
</svg>
