<svg width="320" height="180" viewBox="0 0 320 180" fill="none" xmlns="http://www.w3.org/2000/svg">
<g clip-path="url(#clip0_4782_144834)">
<rect width="320" height="179.62" rx="12" fill="url(#paint0_linear_4782_144834)"/>
<mask id="mask0_4782_144834" style="mask-type:alpha" maskUnits="userSpaceOnUse" x="0" y="0" width="320" height="180">
<rect width="320" height="180" fill="#D9D9D9"/>
</mask>
<g mask="url(#mask0_4782_144834)">
<rect opacity="0.2" width="336.751" height="336.751" rx="12" transform="matrix(0.70553 -0.70868 0.70553 0.70868 -215.199 89.9875)" fill="url(#paint1_radial_4782_144834)"/>
<rect opacity="0.4" width="304.679" height="304.679" rx="12" transform="matrix(0.70553 -0.70868 0.70553 0.70868 -192 89.7593)" fill="url(#paint2_radial_4782_144834)"/>
<rect opacity="0.6" width="272.608" height="272.608" rx="12" transform="matrix(0.70553 -0.70868 0.70553 0.70868 -168 90.3345)" fill="url(#paint3_radial_4782_144834)"/>
<rect opacity="0.8" width="240.536" height="240.536" rx="12" transform="matrix(0.70553 -0.70868 0.70553 0.70868 -144.799 90.106)" fill="url(#paint4_radial_4782_144834)"/>
<rect width="208.465" height="208.465" rx="12" transform="matrix(0.70553 -0.70868 0.70553 0.70868 -118.398 89.7966)" fill="url(#paint5_radial_4782_144834)"/>
</g>
<path d="M221.581 23.3501C222.09 23.1043 222.591 22.8437 223.099 22.5956C223.103 24.2665 223.099 25.9374 223.1 27.6083C223.102 27.8558 223.084 28.1153 223.184 28.3486C223.311 28.6941 223.619 28.9645 223.977 29.0471C224.182 29.0945 224.393 29.0694 224.601 29.0745C224.855 29.0711 225.123 29.1036 225.362 28.9947C225.535 28.9234 225.658 28.7785 225.787 28.6497C226.406 27.9859 227.006 27.305 227.628 26.6434C227.889 26.3469 228.248 26.1387 228.638 26.068C229.095 25.9922 229.56 26.1832 229.907 26.4746C230.087 26.6355 230.26 26.802 230.428 26.9742C230.643 27.1886 230.88 27.3837 231.064 27.6266C231.452 28.1336 231.584 28.8236 231.416 29.4389C231.278 29.9818 230.902 30.4552 230.417 30.7306C229.831 31.0614 229.086 31.0893 228.48 30.7956C228.055 30.6086 227.764 30.2322 227.436 29.9185C227.307 29.7879 227.177 29.6608 227.048 29.5319C226.941 29.6425 226.838 29.7577 226.737 29.8746C226.278 30.3884 225.576 30.6599 224.89 30.6131C224.272 30.5835 223.625 30.7055 223.036 30.4643C222.186 30.1506 221.572 29.2872 221.571 28.3788C221.579 26.7027 221.56 25.0256 221.581 23.3495M228.704 27.825C228.508 27.8969 228.397 28.0902 228.25 28.2277C228.206 28.2921 228.091 28.3469 228.13 28.4387C228.417 28.7346 228.714 29.0221 229.003 29.3169C229.246 29.5427 229.679 29.4914 229.853 29.2063C229.992 29.0089 229.98 28.7215 229.819 28.5407C229.669 28.3702 229.498 28.2202 229.343 28.0554C229.181 27.8906 228.941 27.7475 228.704 27.825ZM232.231 23.3621C232.747 23.1151 233.247 22.8369 233.77 22.6065C233.768 24.3863 233.768 26.1655 233.77 27.9448C233.763 28.5248 234.257 29.0574 234.84 29.0739C237.657 29.0728 240.474 29.0774 243.291 29.0717C243.306 29.5855 243.303 30.101 243.293 30.616C240.331 30.6091 237.368 30.616 234.406 30.6126C233.546 30.584 232.735 30.0126 232.413 29.2148C232.287 28.9211 232.232 28.6006 232.231 28.2824C232.23 26.6429 232.231 25.0028 232.231 23.3626M254.332 23.3604C254.846 23.1134 255.35 22.8408 255.869 22.603C255.861 24.368 255.867 26.133 255.865 27.898C255.839 28.389 256.175 28.8709 256.642 29.0198C256.847 29.0973 257.069 29.0722 257.284 29.0745C258.589 29.0757 259.894 29.0728 261.2 29.0762C261.204 29.5889 261.2 30.1022 261.201 30.6143C259.815 30.612 258.429 30.6143 257.042 30.6131C256.719 30.6091 256.39 30.6382 256.074 30.5521C255.557 30.4375 255.114 30.1124 254.779 29.7109C254.366 30.0497 253.905 30.3451 253.384 30.4837C252.827 30.6627 252.237 30.604 251.662 30.6131C249.379 30.6131 247.095 30.612 244.812 30.6143C244.812 30.101 244.81 29.5883 244.813 29.0757C247.383 29.074 249.953 29.0757 252.524 29.0745C253.025 29.0637 253.525 28.8299 253.835 28.4318C254.182 28.0172 254.303 27.4624 254.327 26.9343C254.331 25.743 254.322 24.5517 254.332 23.3604ZM261.95 23.3547C262.462 23.1083 262.97 22.8534 263.476 22.5945C263.499 24.3943 263.476 26.1952 263.487 27.9956C263.5 28.5539 263.982 29.0511 264.541 29.0739C265.71 29.0762 266.879 29.074 268.049 29.0751V30.6143C266.751 30.6143 265.452 30.6131 264.154 30.6143C263.229 30.6017 262.365 29.9527 262.074 29.0785C261.9 28.6075 261.952 28.0988 261.944 27.6078C261.949 26.1901 261.936 24.7724 261.95 23.3552M218.908 24.4285C219.416 24.1696 219.922 23.9055 220.436 23.6575C220.431 24.879 220.434 26.1005 220.434 27.3221C220.409 28.1843 220.033 29.0289 219.417 29.6305C218.887 30.1563 218.181 30.4991 217.441 30.5915C217.186 30.6245 216.93 30.612 216.675 30.6137H214.125C213.715 30.608 213.296 30.6519 212.901 30.5196C212.029 30.2653 211.37 29.4475 211.289 28.5447V25.2599C211.803 25.0164 212.305 24.7501 212.816 24.5038C212.816 25.65 212.811 26.7968 212.818 27.9431C212.811 28.5225 213.301 29.058 213.886 29.0757C214.847 29.0768 215.808 29.0757 216.769 29.0757C216.979 29.0745 217.192 29.0882 217.398 29.0386C218.037 28.9051 218.591 28.4204 218.797 27.7982C218.899 27.5228 218.912 27.2251 218.908 26.9337C218.906 26.0983 218.908 25.2634 218.908 24.4285ZM249.407 24.2449C249.712 24.1017 250.003 23.9255 250.319 23.8046C250.317 24.1012 250.313 24.3983 250.321 24.6948C250.015 24.8465 249.715 25.0079 249.403 25.1459C249.682 25.1482 249.996 25.1516 250.214 25.3523C250.617 25.7002 250.541 26.4364 250.072 26.6936C249.648 26.9098 249.221 27.1253 248.788 27.3209C248.789 27.0227 248.787 26.7244 248.79 26.4267C249.098 26.287 249.388 26.1102 249.704 25.987C249.435 25.9796 249.132 25.9768 248.917 25.7897C248.535 25.5 248.531 24.8551 248.89 24.5448C249.028 24.3948 249.235 24.3464 249.405 24.2449M215.742 24.5534C215.787 24.4935 215.864 24.5117 215.929 24.5066C216.274 24.8494 216.617 25.1955 216.962 25.5394C217.044 25.6135 217.01 25.7424 216.933 25.8063C216.634 26.1022 216.337 26.3982 216.042 26.6976C215.992 26.7564 215.922 26.786 215.854 26.8185C215.786 26.7849 215.719 26.7467 215.669 26.6896C215.375 26.3902 215.075 26.096 214.78 25.7983C214.693 25.7281 214.687 25.5884 214.776 25.5177C215.097 25.1955 215.418 24.8722 215.742 24.5528M258.797 24.5528C258.838 24.4929 258.914 24.5117 258.977 24.5055C259.321 24.8397 259.659 25.1795 259.995 25.5217C260.084 25.5936 260.067 25.7276 259.987 25.7989C259.67 26.1216 259.352 26.4444 259.026 26.7575C258.999 26.7717 258.944 26.8008 258.917 26.8151C258.769 26.7769 258.685 26.6469 258.581 26.5476C258.332 26.3001 258.085 26.0504 257.835 25.804C257.757 25.7401 257.724 25.609 257.809 25.5365C258.142 25.212 258.466 24.8784 258.797 24.5528M265.298 31.7685C265.363 31.7634 265.442 31.7434 265.495 31.7976C265.745 32.0285 265.978 32.2789 266.223 32.5167C266.324 32.6262 266.444 32.7203 266.525 32.8469C266.545 32.921 266.524 32.9986 266.462 33.0448C266.135 33.3584 265.823 33.6858 265.498 34.0011C265.432 34.069 265.325 34.0747 265.261 34C264.941 33.6806 264.621 33.3607 264.303 33.0408C264.223 32.9803 264.208 32.856 264.286 32.7882C264.617 32.442 264.964 32.1112 265.299 31.7685M216.508 36.3296C216.712 35.6863 217.341 35.2073 218.017 35.1867C218.742 35.1765 219.466 35.1856 220.191 35.1822C219.918 35.4742 219.629 35.7507 219.347 36.0347C218.919 36.037 218.491 36.0336 218.063 36.0364C217.747 36.0382 217.455 36.2554 217.335 36.5428C217.187 36.8844 217.308 37.3201 217.617 37.5289C217.941 37.7678 218.366 37.6589 218.738 37.6823C219.28 37.6463 219.848 37.8391 220.199 38.2662C220.684 38.816 220.736 39.6942 220.316 40.2953C220.049 40.6996 219.597 40.967 219.119 41.0241H216.839C216.839 40.7424 216.838 40.4612 216.841 40.1801C217.538 40.1858 218.234 40.1818 218.929 40.1829C219.341 40.1926 219.719 39.8476 219.751 39.4387C219.807 39.0047 219.457 38.5753 219.022 38.5394C218.655 38.5223 218.287 38.5531 217.921 38.5223C217.508 38.4858 217.116 38.2788 216.843 37.9685C216.447 37.5351 216.323 36.8839 216.508 36.329M258.545 39.5351C258.547 38.0866 258.542 36.6381 258.548 35.1902C258.835 35.1947 259.123 35.1936 259.411 35.1902C259.41 36.3507 259.411 37.5106 259.411 38.6711C260.156 37.9235 260.902 37.1764 261.649 36.4316C262.047 36.4316 262.443 36.4259 262.841 36.4339C262.103 37.1975 261.333 37.9303 260.598 38.6968C261.378 39.4684 262.151 40.2474 262.927 41.0235H261.725C260.952 40.2553 260.186 39.4792 259.411 38.7133C259.412 39.4832 259.411 40.2536 259.411 41.0235H258.557C258.533 40.5279 258.553 40.0306 258.547 39.5345M243.844 41.0235C243.836 39.1114 243.836 37.1987 243.844 35.2865C244.543 35.2917 245.242 35.2854 245.942 35.2888C246.45 35.2968 246.941 35.5643 247.229 35.9834C247.655 36.5645 247.618 37.4251 247.156 37.9759C247.458 38.1881 247.725 38.4727 247.841 38.8296C248.043 39.3737 247.926 40.0227 247.542 40.4578C247.275 40.772 246.889 40.9767 246.479 41.0235H243.845M244.669 36.1231C244.671 36.6615 244.671 37.1992 244.669 37.7376C245.093 37.745 245.519 37.7427 245.945 37.7399C246.386 37.717 246.751 37.2814 246.693 36.8428C246.654 36.4499 246.294 36.1214 245.9 36.1208C245.489 36.1208 245.079 36.1191 244.669 36.1226M244.669 38.5747C244.673 39.1136 244.67 39.6531 244.67 40.192C245.224 40.1937 245.777 40.192 246.33 40.1937C246.699 40.188 247.03 39.8949 247.094 39.5339C247.194 39.0703 246.805 38.5821 246.331 38.5764C245.777 38.5702 245.223 38.573 244.67 38.5747M222.466 36.4322C223.004 36.4282 223.54 36.4305 224.079 36.4305C224.405 36.4259 224.741 36.5246 224.981 36.7533C225.253 36.9888 225.403 37.3469 225.398 37.7056C225.4 38.8114 225.398 39.9177 225.398 41.0235H222.518C222.137 40.9796 221.777 40.7806 221.539 40.4795C221.096 39.9474 221.118 39.0914 221.595 38.5873C221.866 38.2788 222.27 38.0957 222.681 38.102C223.305 38.1031 223.93 38.0986 224.553 38.1048C224.555 37.9446 224.561 37.7775 224.488 37.6309C224.394 37.4188 224.166 37.2802 223.935 37.2848C223.167 37.2859 222.398 37.2848 221.629 37.2848C221.895 36.9888 222.191 36.7219 222.464 36.4328M222.486 38.9802C222.239 39.0657 222.052 39.3184 222.068 39.583C222.069 39.9023 222.357 40.1932 222.679 40.1829C223.303 40.1812 223.927 40.1863 224.552 40.1801C224.554 39.7666 224.557 39.3532 224.55 38.9397C224.024 38.95 223.497 38.9414 222.97 38.9443C222.808 38.9471 222.642 38.9294 222.485 38.9796M227.046 36.4316C228.267 36.4294 229.488 36.4316 230.709 36.4299C230.924 36.4299 231.146 36.4527 231.339 36.5537C231.758 36.7487 232.052 37.1907 232.053 37.6555C232.055 38.7783 232.053 39.9006 232.053 41.0235H231.211C231.211 40.0614 231.21 39.0988 231.212 38.1368C231.212 37.9606 231.229 37.7724 231.137 37.6138C231.034 37.4251 230.831 37.2802 230.611 37.2853C230.26 37.2836 229.909 37.2871 229.558 37.2842C229.552 38.5308 229.556 39.7769 229.555 41.0235H228.712C228.712 39.7774 228.71 38.532 228.713 37.2865C228.161 37.2831 227.609 37.2865 227.058 37.2842C227.054 38.5308 227.058 39.7769 227.056 41.0235H226.214C226.214 39.77 226.214 38.516 226.214 37.262C226.491 36.9842 226.767 36.7071 227.046 36.4316ZM233.998 36.4328C234.552 36.4299 235.106 36.4294 235.659 36.4328C235.961 36.4305 236.266 36.5246 236.497 36.7225C236.804 36.9688 236.963 37.3652 236.955 37.7541C236.959 38.8445 236.955 39.9343 236.956 41.0246H234.088C233.4 40.9693 232.819 40.37 232.776 39.6828C232.695 38.9044 233.339 38.1436 234.122 38.1071C234.783 38.0991 235.444 38.1054 236.104 38.1043C236.102 37.9412 236.118 37.7667 236.034 37.6201C235.932 37.4114 235.703 37.2739 235.47 37.2865C234.71 37.2876 233.949 37.2865 233.188 37.2865C233.444 36.9882 233.729 36.7185 233.999 36.4345M233.636 39.4438C233.543 39.8003 233.855 40.1841 234.219 40.1829C234.848 40.1829 235.477 40.1892 236.105 40.1795C236.103 39.7678 236.104 39.356 236.105 38.9448C235.492 38.9477 234.878 38.9448 234.266 38.9466C233.973 38.9391 233.689 39.153 233.637 39.4444M238.61 36.4328C239.196 36.4345 239.782 36.4328 240.368 36.4328C240.65 36.4311 240.945 36.4208 241.208 36.5434C241.637 36.735 241.949 37.1844 241.944 37.6589C241.945 38.7812 241.944 39.9035 241.944 41.0258H241.103C241.101 39.9845 241.105 38.9431 241.102 37.9018C241.105 37.5876 240.832 37.2893 240.514 37.2882C239.881 37.2853 239.246 37.2882 238.613 37.2871C238.618 38.5331 238.613 39.7792 238.615 41.0252H237.769C237.779 39.7769 237.755 38.5268 237.78 37.2791C238.038 36.9802 238.337 36.7185 238.609 36.4316M249.763 36.4767C249.816 36.4105 249.907 36.4391 249.98 36.4316C250.509 36.4373 251.037 36.4225 251.566 36.4391C252.194 36.4664 252.729 37.0339 252.732 37.6606C252.732 38.7817 252.732 39.904 252.732 41.0252H249.856C249.37 40.9745 248.923 40.6631 248.708 40.224C248.487 39.7797 248.503 39.2163 248.775 38.7966C249.029 38.3643 249.528 38.094 250.028 38.1025C250.649 38.1065 251.269 38.098 251.888 38.1071C251.899 37.9064 251.888 37.6897 251.759 37.5243C251.642 37.3846 251.468 37.2796 251.281 37.2865C250.507 37.2848 249.732 37.2893 248.958 37.2836C249.227 37.015 249.494 36.7442 249.763 36.4767ZM249.405 39.5853C249.397 39.9132 249.705 40.1989 250.029 40.1835C250.65 40.1823 251.27 40.1875 251.891 40.1806C251.887 39.7672 251.901 39.3537 251.884 38.9403C251.25 38.9534 250.616 38.9386 249.983 38.9483C249.663 38.9625 249.382 39.2625 249.405 39.5847M254.377 36.4328C255.06 36.4305 255.742 36.4311 256.424 36.4316C256.736 36.4271 257.054 36.5274 257.29 36.7367C257.568 36.9757 257.732 37.339 257.729 37.7056C257.732 38.8114 257.73 39.9183 257.73 41.0241H256.878V37.9001C256.89 37.575 256.603 37.2853 256.28 37.2865C255.649 37.2848 255.019 37.2865 254.388 37.2865C254.392 38.5325 254.388 39.7786 254.39 41.0246H253.558C253.54 39.7689 253.55 38.5126 253.554 37.2563C253.831 36.9854 254.106 36.7111 254.377 36.4328H254.377Z" fill="#024B8F"/>
<path d="M288.742 21.1471C288.811 21.0818 288.909 20.9396 289.012 21.0283C289.806 21.9761 290.392 23.1093 290.631 24.3272C290.857 24.2353 291.055 24.0868 291.278 23.9896C292.734 23.2565 294.294 22.7583 295.87 22.3573C295.921 22.3456 295.973 22.3402 296.026 22.3334C296.002 23.0711 295.911 23.8055 295.777 24.5306C295.613 25.428 295.373 26.3146 295.021 27.1571C294.974 27.2718 294.915 27.3825 294.896 27.5063C296.657 27.5437 298.374 28.0545 299.983 28.7439C299.987 28.7516 299.995 28.7669 299.999 28.775C298.893 30.18 297.698 31.5302 296.295 32.6477C296.123 32.7926 295.931 32.9146 295.763 33.0653C296.841 33.974 297.598 35.2089 298.114 36.5086C296.51 37.1882 294.844 37.7616 293.116 38.0199C293.172 38.5069 293.194 38.9988 293.154 39.488C293.101 39.9943 293.008 40.4961 292.864 40.9848C292.827 41.0983 292.811 41.2225 292.745 41.3246C291.807 41.2409 290.869 41.1185 289.955 40.8876C289.671 40.8138 289.385 40.7405 289.111 40.6307C289.051 40.6059 288.986 40.5965 288.923 40.5865C288.651 41.1388 288.285 41.6424 287.852 42.0794C287.667 42.2621 287.49 42.4534 287.28 42.6082C287.226 42.6379 287.165 42.6068 287.119 42.5771C286.433 42.1298 285.754 41.6541 285.189 41.0564C285.11 40.9754 285.035 40.8921 284.95 40.8201C284.401 41.2009 283.766 41.4367 283.121 41.5965C283.046 41.6136 282.97 41.6203 282.893 41.6266C282.559 41.0852 282.251 40.5222 282.042 39.9196C281.979 39.7738 281.964 39.6068 281.877 39.4722C281.231 39.5388 280.576 39.4475 279.955 39.2648C279.857 38.699 279.856 38.1207 279.882 37.5487C279.902 37.406 279.902 37.2584 279.945 37.1207C280.285 37.2292 280.638 37.3084 280.998 37.2908C281.3 37.3043 281.599 37.2557 281.897 37.2143C281.766 37.9551 281.699 38.7301 281.905 39.4641C282.625 39.3939 283.238 38.9659 283.814 38.5622C284.032 39.3084 284.341 40.0406 284.823 40.6568C284.871 40.7175 284.943 40.803 285.029 40.7522C285.386 40.5123 285.646 40.159 285.875 39.8012C286.083 39.5006 286.225 39.163 286.385 38.8359C287.064 39.5231 287.849 40.1271 288.748 40.497C288.809 40.5235 288.876 40.5298 288.941 40.5393C289.126 40.1077 289.241 39.6459 289.253 39.1752C289.271 38.6851 289.257 38.1914 289.172 37.7071C290.45 38.0159 291.785 38.2143 293.095 38.0096C292.979 37.253 292.593 36.5721 292.142 35.9654C291.908 35.6356 291.629 35.3417 291.361 35.0397C292.076 34.8552 292.774 34.6094 293.457 34.3313C294.262 34.0028 295.034 33.586 295.736 33.0712C295.329 32.6801 294.818 32.4141 294.304 32.1895C293.519 31.8794 292.702 31.6315 291.864 31.514C291.865 31.4991 291.869 31.4699 291.87 31.455C292.336 31.0081 292.794 30.5518 293.204 30.0522C293.72 29.4411 294.209 28.8011 294.579 28.09C294.678 27.9001 294.792 27.7147 294.854 27.5081C294.448 27.4829 294.042 27.5189 293.639 27.5603C293.02 27.6274 292.417 27.7903 291.818 27.951C291.243 28.1143 290.681 28.3186 290.125 28.5378C290.379 27.7763 290.555 26.9896 290.663 26.1949C290.71 25.7718 290.748 25.3438 290.703 24.9181C290.686 24.7272 290.677 24.5328 290.613 24.3506C290 24.7052 289.412 25.1071 288.888 25.5837C288.233 26.144 287.623 26.7588 287.066 27.4172C286.936 27.013 286.838 26.5963 286.651 26.2124C286.396 25.6323 286.088 25.0301 285.553 24.6606C285.183 25.198 284.876 25.7772 284.624 26.378C284.371 26.9802 284.15 27.5981 283.994 28.2327C283.349 27.7183 282.592 27.2498 281.74 27.2399C281.633 27.6796 281.606 28.135 281.62 28.5869C281.628 29.1449 281.701 29.6989 281.794 30.2485C281.094 30.2215 280.354 30.2665 279.731 30.6157C279.655 30.6432 279.675 30.7341 279.686 30.7962C279.854 31.4411 280.215 32.0149 280.61 32.5442C280.65 32.6121 280.764 32.6814 280.709 32.7696C280.115 33.109 279.508 33.496 279.143 34.0923C279.366 34.3403 279.611 34.5734 279.907 34.7323C280.2 34.9182 280.521 35.05 280.84 35.1833C280.421 35.758 280.055 36.402 279.946 37.1131C279.504 36.942 279.105 36.6756 278.731 36.388C278.587 36.2818 278.467 36.1468 278.319 36.0455C278.473 35.3547 278.757 34.6931 279.127 34.0901C279.001 33.8934 278.84 33.721 278.725 33.5167C278.452 33.0878 278.232 32.6261 278.049 32.1526C278.15 31.9965 278.273 31.8547 278.4 31.7188C278.666 31.442 278.93 31.1594 279.243 30.9334C279.368 30.8416 279.5 30.7579 279.625 30.6661C279.624 30.5009 279.575 30.3425 279.549 30.1809C279.409 29.406 279.4 28.6148 279.425 27.8299C279.519 27.7984 279.61 27.7583 279.7 27.716C280.335 27.423 281.026 27.2475 281.726 27.2331C281.964 25.9874 282.439 24.8042 282.938 23.6444C283.574 23.6944 284.195 23.883 284.773 24.1462C285.054 24.2794 285.312 24.4532 285.56 24.6381C285.881 24.2083 286.196 23.7709 286.554 23.3703C286.988 22.8442 287.476 22.3672 287.956 21.8847C288.216 21.6372 288.469 21.3829 288.74 21.148L288.742 21.1471Z" fill="#7CD0F5"/>
<path d="M288.89 25.5832C289.414 25.1062 290.002 24.7047 290.614 24.3501C290.678 24.5328 290.687 24.7268 290.704 24.9176C290.749 25.3429 290.712 25.7709 290.665 26.1944C290.556 26.9896 290.381 27.7763 290.127 28.5374C290.682 28.3182 291.244 28.1139 291.819 27.9505C292.419 27.7898 293.022 27.6274 293.64 27.5599C294.043 27.5189 294.45 27.4829 294.856 27.5076C294.793 27.7142 294.68 27.8992 294.581 28.0896C294.21 28.8006 293.721 29.4411 293.206 30.0518C292.796 30.5513 292.337 31.0072 291.872 31.4546C291.87 31.4694 291.867 31.4987 291.865 31.5135C292.704 31.631 293.52 31.879 294.306 32.1891C294.819 32.4132 295.331 32.6792 295.738 33.0707C295.035 33.5851 294.264 34.0019 293.458 34.3309C292.774 34.609 292.077 34.8547 291.362 35.0392C291.63 35.3412 291.909 35.6355 292.144 35.965C292.594 36.5716 292.98 37.2526 293.097 38.0091C291.786 38.2139 290.451 38.0154 289.173 37.7067C289.258 38.1909 289.272 38.6842 289.254 39.1747C289.242 39.6455 289.127 40.1072 288.943 40.5388C288.877 40.5294 288.81 40.5231 288.749 40.4965C287.851 40.1266 287.065 39.5226 286.386 38.8354C286.226 39.1626 286.084 39.5001 285.876 39.8008C285.647 40.1585 285.387 40.5118 285.03 40.7517C284.944 40.8026 284.872 40.7166 284.824 40.6563C284.343 40.0402 284.033 39.308 283.815 38.5618C283.24 38.965 282.626 39.3935 281.906 39.4637C281.7 38.7296 281.767 37.9547 281.898 37.2139C281.6 37.2557 281.301 37.3039 280.999 37.2904C280.64 37.3079 280.286 37.2287 279.946 37.1203L279.947 37.1117C280.057 36.4006 280.423 35.7566 280.841 35.1819C280.523 35.0487 280.201 34.9168 279.909 34.7309C279.612 34.5725 279.367 34.339 279.145 34.091C279.509 33.4947 280.117 33.1076 280.71 32.7683C280.764 32.6801 280.651 32.6108 280.611 32.5428C280.217 32.0135 279.855 31.4402 279.687 30.7948C279.677 30.7332 279.657 30.6418 279.732 30.6143C280.356 30.2651 281.096 30.2201 281.795 30.2471C281.702 29.6976 281.629 29.1436 281.622 28.5855C281.608 28.1341 281.635 27.6787 281.742 27.2385C282.593 27.2484 283.349 27.7169 283.995 28.2313C284.151 27.5968 284.372 26.9788 284.625 26.3767C284.877 25.7754 285.184 25.1966 285.554 24.6593C286.089 25.0283 286.397 25.6309 286.653 26.2111C286.839 26.5949 286.938 27.0117 287.068 27.4158C287.625 26.7574 288.234 26.1426 288.89 25.5823M286.343 28.3524C286.152 28.6328 285.961 28.9136 285.8 29.2138C285.629 29.4735 285.513 29.7624 285.363 30.0333C285.204 29.7718 285.085 29.4856 284.899 29.2399C284.64 28.8717 284.349 28.5212 283.99 28.2448C283.765 29.0864 283.646 29.9604 283.683 30.8326C283.62 30.8128 283.558 30.7885 283.5 30.7557C283.033 30.4951 282.511 30.3385 281.981 30.2746C281.921 30.2647 281.86 30.266 281.799 30.2759C281.873 30.5036 281.916 30.7395 281.997 30.9649C282.136 31.4208 282.344 31.852 282.584 32.2633C282.091 32.2894 281.607 32.406 281.144 32.5766C281.02 32.6324 280.881 32.6675 280.776 32.7588C281.07 33.0721 281.377 33.3803 281.744 33.6081C281.895 33.7134 282.062 33.7912 282.214 33.8961C281.691 34.2354 281.236 34.672 280.849 35.1598C280.897 35.185 280.944 35.212 280.998 35.2255C281.333 35.312 281.674 35.3939 282.021 35.4051C282.206 35.4087 282.391 35.4038 282.576 35.4015C282.469 35.6463 282.326 35.8736 282.233 36.1247C282.103 36.4735 281.951 36.8255 281.918 37.1986C282.395 37.1203 282.852 36.9434 283.275 36.7107C283.381 36.6464 283.485 36.5779 283.6 36.5289C283.584 37.0212 283.586 37.519 283.69 38.0028C283.729 38.1783 283.746 38.3624 283.821 38.5276C283.97 38.4052 284.113 38.2746 284.246 38.1347C284.587 37.8133 284.848 37.4168 285.083 37.014C285.179 37.1095 285.218 37.2436 285.285 37.3588C285.566 37.8754 285.915 38.357 286.329 38.7746C286.385 38.8336 286.421 38.7341 286.437 38.6932C286.658 38.0537 286.818 37.3808 286.794 36.7004L286.835 36.6594C287.539 37.1351 288.334 37.4632 289.15 37.6918C289.16 37.5195 289.103 37.3547 289.065 37.1896C288.964 36.7625 288.798 36.3534 288.614 35.956C288.52 35.7562 288.389 35.5761 288.299 35.3759C289.315 35.4416 290.333 35.2949 291.318 35.0496C291.305 35.0122 291.287 34.978 291.256 34.9542C290.619 34.3376 289.871 33.8254 289.045 33.4996C289.069 33.4308 289.141 33.4073 289.199 33.374C290.011 32.96 290.76 32.428 291.445 31.8286C291.573 31.7255 291.714 31.6333 291.812 31.4987C291.073 31.3844 290.32 31.3425 289.574 31.406C289.261 31.4168 288.954 31.4897 288.642 31.5108C288.7 31.3889 288.782 31.2822 288.859 31.1729C289.05 30.8857 289.233 30.5918 289.379 30.2791C289.586 29.9064 289.764 29.5167 289.92 29.1193C289.98 28.9307 290.08 28.7525 290.103 28.554C289.671 28.7435 289.24 28.9379 288.83 29.1701C288.272 29.4892 287.722 29.8286 287.236 30.2516C287.22 30.1013 287.245 29.9519 287.261 29.8029C287.306 29.0923 287.265 28.374 287.114 27.6778C287.1 27.5972 287.086 27.5153 287.041 27.446C286.789 27.7336 286.579 28.0531 286.342 28.3528L286.343 28.3524Z" fill="#02AAE8"/>
<path d="M286.344 28.3531C286.58 28.0534 286.791 27.7339 287.043 27.4463C287.088 27.5156 287.102 27.5975 287.116 27.6781C287.267 28.3743 287.308 29.093 287.263 29.8032C287.247 29.9522 287.222 30.1016 287.238 30.2519C287.723 29.8289 288.274 29.4895 288.831 29.1704C289.242 28.9378 289.673 28.7433 290.105 28.5543C290.082 28.7532 289.982 28.931 289.921 29.1196C289.766 29.517 289.588 29.9067 289.38 30.2794C289.234 30.5921 289.052 30.8856 288.861 31.1732C288.784 31.283 288.702 31.3896 288.644 31.5111C288.956 31.49 289.263 31.4171 289.576 31.4063C290.322 31.3428 291.075 31.3847 291.814 31.499C291.715 31.6336 291.575 31.7254 291.447 31.8289C290.762 32.4283 290.013 32.9607 289.201 33.3743C289.143 33.4076 289.071 33.431 289.047 33.4999C289.873 33.8257 290.621 34.3379 291.258 34.9545C291.289 34.9783 291.307 35.013 291.319 35.0499C290.335 35.2952 289.316 35.4419 288.301 35.3762C288.392 35.5764 288.522 35.7569 288.615 35.9563C288.799 36.3541 288.965 36.7628 289.066 37.1899C289.104 37.355 289.162 37.5198 289.152 37.6921C288.336 37.4635 287.541 37.135 286.837 36.6597L286.796 36.7007C286.819 37.3811 286.66 38.054 286.439 38.6935C286.423 38.7344 286.386 38.8339 286.331 38.7749C285.917 38.3573 285.568 37.8757 285.287 37.3591C285.22 37.2443 285.181 37.1102 285.085 37.0143C284.85 37.4176 284.589 37.8136 284.247 38.135C284.115 38.2745 283.972 38.4054 283.823 38.5279C283.747 38.3622 283.731 38.1786 283.692 38.0031C283.588 37.5193 283.585 37.0215 283.602 36.5292C283.487 36.5782 283.383 36.6467 283.277 36.711C282.854 36.9432 282.397 37.1206 281.92 37.1989C281.953 36.8253 282.105 36.4738 282.235 36.125C282.328 35.8739 282.471 35.6466 282.578 35.4018C282.393 35.4036 282.208 35.4086 282.023 35.4054C281.675 35.3946 281.335 35.3123 280.999 35.2258C280.946 35.2123 280.898 35.1858 280.851 35.1601C281.237 34.6723 281.693 34.2357 282.215 33.8964C282.064 33.7915 281.897 33.7137 281.746 33.6084C281.378 33.3806 281.071 33.0724 280.777 32.7591C280.883 32.6682 281.021 32.6327 281.146 32.5769C281.608 32.4063 282.093 32.2902 282.586 32.2636C282.345 31.8527 282.138 31.4211 281.998 30.9652C281.918 30.7398 281.874 30.5039 281.801 30.2762C281.861 30.2663 281.923 30.2654 281.983 30.2749C282.513 30.3392 283.035 30.4954 283.502 30.756C283.559 30.7888 283.621 30.8131 283.685 30.8329C283.648 29.9607 283.767 29.0867 283.992 28.2451C284.351 28.5215 284.641 28.872 284.901 29.2402C285.087 29.4859 285.205 29.7721 285.365 30.0336C285.515 29.7631 285.631 29.4738 285.802 29.2141C285.962 28.9139 286.154 28.6331 286.345 28.3527M285.363 30.1047C285.091 30.7105 284.906 31.3572 284.846 32.0201C284.613 31.6705 284.338 31.3455 283.999 31.093C283.904 31.0264 283.819 30.936 283.704 30.9031C283.727 31.3928 283.822 31.8815 284.003 32.3374C284.03 32.4148 284.064 32.4909 284.113 32.5566C284.091 32.553 284.045 32.5449 284.022 32.5409C283.583 32.35 283.099 32.26 282.621 32.2816C282.882 32.6943 283.218 33.071 283.636 33.3298C283.64 33.3433 283.649 33.3689 283.653 33.382C283.155 33.4437 282.679 33.6349 282.253 33.8964C282.697 34.0935 283.175 34.2303 283.663 34.2254C283.645 34.2488 283.624 34.2708 283.602 34.2911C283.212 34.5895 282.886 34.9648 282.625 35.3793C283.131 35.3456 283.622 35.1768 284.067 34.936C283.819 35.4117 283.665 35.941 283.632 36.4761C284.072 36.1791 284.461 35.7974 284.741 35.3442C284.755 35.8901 284.879 36.4306 285.092 36.9329C285.103 36.9266 285.126 36.9126 285.138 36.9063C285.375 36.4135 285.555 35.8861 285.593 35.337C285.89 35.837 286.31 36.2641 286.788 36.5949C286.784 36.0112 286.652 35.427 286.403 34.8991C286.979 35.175 287.613 35.3244 288.249 35.36C287.909 34.8397 287.454 34.3937 286.92 34.076C287.619 34.0166 288.297 33.7965 288.926 33.4954C288.928 33.4873 288.931 33.4711 288.932 33.4626C288.313 33.2236 287.647 33.0953 286.982 33.1178C287.611 32.7042 288.126 32.1435 288.588 31.5552C288.008 31.6498 287.447 31.8482 286.922 32.1106C286.794 32.1691 286.681 32.2569 286.548 32.3023C286.885 31.6853 287.104 30.9994 287.189 30.3019C286.631 30.7605 286.137 31.301 285.757 31.9162C285.738 31.2956 285.623 30.6718 285.363 30.1052L285.363 30.1047Z" fill="#006FB8"/>
</g>
<defs>
<linearGradient id="paint0_linear_4782_144834" x1="117.273" y1="0" x2="345.909" y2="0" gradientUnits="userSpaceOnUse">
<stop stop-color="white"/>
<stop offset="1" stop-color="#DDF5FF"/>
</linearGradient>
<radialGradient id="paint1_radial_4782_144834" cx="0" cy="0" r="1" gradientUnits="userSpaceOnUse" gradientTransform="translate(168.375 168.815) rotate(44.1319) scale(608.434)">
<stop stop-color="#EDF9FF"/>
<stop offset="1" stop-color="#5DCDFE"/>
</radialGradient>
<radialGradient id="paint2_radial_4782_144834" cx="0" cy="0" r="1" gradientUnits="userSpaceOnUse" gradientTransform="translate(152.34 152.737) rotate(44.1319) scale(550.488)">
<stop stop-color="#EDF9FF"/>
<stop offset="1" stop-color="#5DCDFE"/>
</radialGradient>
<radialGradient id="paint3_radial_4782_144834" cx="0" cy="0" r="1" gradientUnits="userSpaceOnUse" gradientTransform="translate(136.304 136.66) rotate(44.1319) scale(492.541)">
<stop stop-color="#EDF9FF"/>
<stop offset="1" stop-color="#5DCDFE"/>
</radialGradient>
<radialGradient id="paint4_radial_4782_144834" cx="0" cy="0" r="1" gradientUnits="userSpaceOnUse" gradientTransform="translate(120.268 120.582) rotate(44.1319) scale(434.595)">
<stop stop-color="#EDF9FF"/>
<stop offset="1" stop-color="#5DCDFE"/>
</radialGradient>
<radialGradient id="paint5_radial_4782_144834" cx="0" cy="0" r="1" gradientUnits="userSpaceOnUse" gradientTransform="translate(104.232 104.504) rotate(44.1319) scale(376.649)">
<stop stop-color="#EDF9FF"/>
<stop offset="1" stop-color="#5DCDFE"/>
</radialGradient>
<clipPath id="clip0_4782_144834">
<rect width="320" height="179.62" rx="12" fill="white"/>
</clipPath>
</defs>
</svg>
