<svg width="320" height="172" viewBox="0 0 320 172" fill="none" xmlns="http://www.w3.org/2000/svg">
<g clip-path="url(#clip0_5137_23383)">
<rect width="320" height="172" rx="12" fill="#22307B"/>
<g opacity="0.6">
<mask id="mask0_5137_23383" style="mask-type:alpha" maskUnits="userSpaceOnUse" x="0" y="-14" width="320" height="200">
<rect y="-14" width="320" height="200" fill="#D9D9D9"/>
</mask>
<g mask="url(#mask0_5137_23383)">
<g opacity="0.6">
<rect x="63.0586" y="-43.9736" width="430.853" height="262.989" transform="rotate(41.4944 63.0586 -43.9736)" fill="#6A93C9" fill-opacity="0.2"/>
<rect x="280.094" y="64.0693" width="204.193" height="313.505" rx="18.1818" transform="rotate(96.8495 280.094 64.0693)" fill="#6A93C9" fill-opacity="0.2"/>
<rect x="104.777" y="119.817" width="91.855" height="68.1818" rx="4.54545" transform="rotate(33.5864 104.777 119.817)" fill="#6A93C9" fill-opacity="0.1"/>
<rect x="-36.8418" y="87.0771" width="99.2544" height="109.008" rx="9.09091" transform="rotate(1.83253 -36.8418 87.0771)" fill="#6A93C9" fill-opacity="0.52"/>
<rect x="-79.5449" y="109.989" width="214.98" height="198.142" rx="9.09091" transform="rotate(-16.3812 -79.5449 109.989)" fill="#6A93C9" fill-opacity="0.2"/>
<path d="M54.1584 109.235C56.9222 107.264 60.5539 106.997 63.5762 108.542L142.501 148.905C145.677 150.529 147.61 153.861 147.443 157.424L144.462 221.093C144.319 224.152 142.645 226.933 140.01 228.492L98.9698 252.771C96.2867 254.358 92.9774 254.46 90.2018 253.04L10.0787 212.065C7.29186 210.64 5.43423 207.881 5.16158 204.763L0.627645 152.911C0.347189 149.704 1.78414 146.587 4.40542 144.718L54.1584 109.235Z" fill="#6A93C9" fill-opacity="0.5"/>
<rect x="-4.25391" y="156.493" width="100.031" height="84.9602" rx="4.54545" transform="rotate(33.5864 -4.25391 156.493)" fill="#6A93C9" fill-opacity="0.3"/>
</g>
</g>
</g>
<path fill-rule="evenodd" clip-rule="evenodd" d="M187.49 34.5036C187.49 36.2382 187 37.4818 186.05 38.1691C185.363 38.66 184.381 38.9218 183.072 38.9218C181.927 38.9218 181.043 38.6927 180.356 38.2345C179.57 37.7109 179.178 36.8927 179.178 35.8454C179.178 35.1909 179.276 34.5363 179.44 33.8818C179.669 33.0309 179.963 32.6054 180.356 32.6054C180.65 32.6054 180.814 32.8673 180.814 33.3582C180.814 33.4891 180.781 33.6854 180.749 33.9472C180.683 34.2091 180.683 34.4054 180.683 34.5363C180.683 35.4854 181.6 35.9763 183.432 35.9763C185.298 35.9763 186.247 35.6491 186.247 34.9618C186.247 34.7982 186.05 34.5036 185.625 34.0127C185.232 33.5545 184.938 33.2273 184.709 33.0963L185.854 30.8382C185.92 30.7072 185.985 30.6091 186.018 30.6091C186.05 30.6091 186.149 30.6745 186.28 30.8054C186.541 31.1 186.836 31.5582 187.065 32.18C187.327 32.9 187.49 33.6854 187.49 34.5036ZM275.2 31.7545C275.2 33.0309 275.003 33.9473 274.643 34.4709C274.218 35.0927 273.432 35.3873 272.287 35.3873H271.731H271.371C269.636 35.3873 268.752 34.4709 268.752 32.6709C268.752 31.8854 268.72 30.8709 268.654 29.6272C268.589 28.2854 268.523 27.4345 268.458 26.9763C268.425 26.78 268.458 26.6163 268.556 26.5181L270.585 25.1109C270.716 25.0127 270.814 24.98 270.88 24.98C270.945 24.98 270.978 25.0454 270.978 25.1436V31.2309C270.978 31.8527 271.24 32.18 271.731 32.2454H273.269C273.531 32.2454 273.694 32.18 273.694 32.0163C273.694 31.9509 273.661 31.8527 273.563 31.7545C273.269 31.3945 272.909 31.0018 272.451 30.6091C272.385 30.5436 272.385 30.4454 272.451 30.3472L273.727 28.4818C273.792 28.3836 273.858 28.3181 273.891 28.3181C273.923 28.3181 273.989 28.3509 274.054 28.4491C274.84 29.3327 275.2 30.4454 275.2 31.7545ZM274.676 37.4164C274.741 37.4818 274.741 37.5473 274.676 37.6127L273.727 38.5291C273.661 38.5945 273.596 38.5945 273.531 38.5291L272.581 37.6127C272.516 37.5473 272.516 37.4491 272.614 37.3509L273.498 36.4673C273.563 36.4018 273.661 36.4018 273.727 36.4673L274.676 37.4164ZM267.64 31.7545C267.64 33.0309 267.443 33.9473 267.083 34.4709C266.658 35.0927 265.872 35.3873 264.727 35.3873H264.596H264.203H264.072C263.647 35.3873 263.156 35.2236 262.632 34.8636C262.174 34.5691 261.781 34.2091 261.454 33.8164C261.094 34.5364 260.505 35.0273 259.654 35.3218C259.065 35.5182 258.28 35.5836 257.298 35.5836H256.84C256.84 35.5836 256.741 35.5836 256.545 35.5836C256.512 35.5836 256.447 35.5836 256.414 35.5836C255.04 35.5836 254.025 35.3872 253.371 35.0272C252.487 34.5363 252.029 33.6527 252.029 32.4091C252.029 31.8527 252.127 31.3291 252.291 30.8382C252.487 30.2491 252.716 29.9545 252.978 29.9545C253.24 29.9545 253.371 30.1836 253.371 30.6745C253.371 31.2309 253.501 31.6236 253.763 31.8527C254.221 32.2454 255.138 32.4745 256.545 32.4745C258.149 32.4745 259.196 32.4091 259.72 32.2454C259.851 32.2127 259.883 32.1472 259.883 32.0818C259.883 32.0163 259.851 31.9509 259.785 31.8527C259.458 31.4273 258.705 30.6418 257.56 29.4636L257.952 27.2382C257.985 27.14 258.018 27.0745 258.116 27.0418L263.483 25.2745C263.549 25.2418 263.581 25.2418 263.581 25.2418C263.614 25.2418 263.614 25.3072 263.581 25.4054L263.352 27.6963C263.352 27.7945 263.32 27.8273 263.32 27.86C263.287 27.8927 263.254 27.9254 263.189 27.9582L260.047 29.0382C261.323 30.5109 262.043 31.2963 262.141 31.4272C262.731 31.9836 263.32 32.2782 263.941 32.2782H264.269H264.661H265.84C266.101 32.2782 266.265 32.2127 266.265 32.0491C266.265 31.9836 266.232 31.8854 266.134 31.7873C265.84 31.4273 265.48 31.0345 265.021 30.6418C264.956 30.5763 264.956 30.4782 265.021 30.38L266.298 28.5145C266.363 28.4163 266.429 28.3509 266.461 28.3509C266.494 28.3509 266.56 28.3836 266.625 28.4818C267.28 29.3327 267.64 30.4454 267.64 31.7545ZM266.854 26.0927C266.92 26.1582 266.92 26.2236 266.854 26.2891L265.905 27.2054C265.84 27.2709 265.774 27.2709 265.709 27.2054L264.76 26.2891C264.694 26.2236 264.694 26.1254 264.792 26.0272L265.643 25.1436C265.709 25.0782 265.807 25.0782 265.872 25.1436L266.854 26.0927ZM248.461 30.8382C248.461 31.8527 248.101 32.7691 247.414 33.6854C246.563 34.7982 245.385 35.3545 243.945 35.3545C243.52 35.3545 243.061 35.2891 242.603 35.1254C242.08 34.9618 241.687 34.7654 241.458 34.5036C241.098 35.0927 240.64 35.3873 240.149 35.3873H239.952H239.527H239.396C238.741 35.3873 238.218 35.0927 237.858 34.4709C237.498 35.0927 236.941 35.3873 236.221 35.3873H235.927H235.534H235.272C233.996 35.3873 233.211 35.0272 232.916 34.2745C232.654 34.7 232.392 34.9945 232.032 35.1582C231.738 35.3218 231.312 35.3873 230.821 35.3873H230.232H229.84H229.774C229.021 35.3873 228.432 34.9945 228.04 34.1763C226.927 35.2563 225.258 35.78 223.065 35.78C221.854 35.78 220.938 35.5509 220.349 35.06C219.694 34.5363 219.367 33.6527 219.367 32.4745C219.367 32.0163 219.432 31.5254 219.563 31.0345C219.727 30.4454 219.923 30.1182 220.185 30.1182C220.48 30.1182 220.643 30.3473 220.643 30.8054C220.676 31.3945 220.807 31.82 221.069 32.0818C221.494 32.54 222.378 32.7691 223.687 32.7691C225.061 32.7691 226.207 32.5727 227.09 32.2127C227.647 31.9836 228.138 31.6236 228.563 31.1982C228.891 30.8382 229.12 30.6418 229.218 30.6418C229.48 30.6418 229.578 30.8054 229.578 31.1C229.578 31.1982 229.545 31.3618 229.447 31.5909C229.381 31.82 229.316 31.9836 229.251 32.0818C229.349 32.2127 229.512 32.2782 229.774 32.2782H229.807H230.2H230.723C231.378 32.2782 231.771 32.2127 231.901 32.1145C231.574 31.6891 231.28 31.3618 231.018 31.1982C230.985 31.1654 230.952 31.1654 230.887 31.1327L230.592 30.9691C230.527 30.9363 230.494 30.8382 230.494 30.6418C230.494 30.2163 230.723 29.8236 231.149 29.4309C231.64 29.0054 232.261 28.7763 233.014 28.7763C233.538 28.7763 234.029 28.9073 234.454 29.1691C234.945 29.4636 235.174 29.8891 235.174 30.38C235.174 30.6745 235.011 31.0018 234.716 31.3945C234.651 31.4927 234.421 31.7218 233.996 32.1472C234.16 32.2454 234.487 32.2782 235.043 32.2782H235.469H235.861H235.894C236.385 32.2782 236.745 32.1145 236.941 31.82C236.974 31.7545 237.072 31.4927 237.203 31.0018C237.301 30.7072 237.465 30.5436 237.694 30.5436C237.923 30.5436 238.054 30.7072 238.12 31.0018C238.218 31.46 238.283 31.7218 238.349 31.82C238.512 32.1145 238.84 32.2782 239.331 32.2782H239.461H239.887H239.985C240.28 32.2782 240.509 32.1473 240.64 31.8527C240.672 31.7873 240.771 31.5254 240.901 31.0673C241 30.8054 241.098 30.6418 241.261 30.6418C241.458 30.6418 241.621 30.9036 241.752 31.4272C241.916 31.9509 242.08 32.2127 242.309 32.2127C242.341 32.2127 242.603 31.9182 243.061 31.3945C243.618 30.74 244.109 30.2163 244.567 29.8563C245.254 29.3 245.941 29.0382 246.531 29.0382C247.12 29.0382 247.578 29.2345 247.905 29.66C248.298 29.9873 248.461 30.38 248.461 30.8382ZM246.661 31.8854C246.661 31.3618 246.334 31.1 245.712 31.1C245.091 31.1 244.305 31.5909 243.323 32.54C243.552 32.54 243.749 32.54 243.945 32.54C244.796 32.54 245.451 32.4745 246.007 32.3109C246.432 32.18 246.661 32.0163 246.661 31.8854ZM238.709 27.7618C238.774 27.8273 238.774 27.8927 238.676 27.9582L237.76 28.9073C237.694 28.9727 237.629 28.9727 237.563 28.9073L236.614 27.9909C236.549 27.9254 236.549 27.8273 236.647 27.7618L237.498 26.8782C237.563 26.8127 237.661 26.8127 237.727 26.8782L238.709 27.7618ZM225.912 28.5145C225.978 28.58 225.978 28.6127 225.912 28.6782L225.094 29.4963C225.029 29.5618 224.963 29.5618 224.93 29.4963L224.145 28.7436L223.392 29.4963C223.327 29.5618 223.294 29.5618 223.196 29.4963L222.378 28.6782C222.312 28.6127 222.312 28.5472 222.41 28.4491L223.163 27.6636C223.229 27.5981 223.294 27.5981 223.392 27.6636L224.178 28.4163L224.898 27.6636C224.963 27.5981 225.029 27.5981 225.127 27.6636L225.912 28.5145ZM215.734 34.0127C215.734 36.3036 215.309 37.94 214.425 38.8563C214.327 38.9545 214.196 39.02 214 39.02H210.76C210.367 39.02 210.17 38.8564 210.17 38.5618C210.17 38.3982 210.269 38.2673 210.432 38.2018C211.021 37.9073 211.741 37.5145 212.592 36.9909C213.738 36.2709 214.294 35.78 214.327 35.4854C213.378 35.4854 212.756 35.42 212.494 35.3218C211.872 35.0927 211.578 34.5036 211.578 33.62C211.578 32.8018 211.709 32.0491 211.97 31.3618C212.33 30.38 212.887 29.8891 213.607 29.8891C214.425 29.8891 214.981 30.4127 215.341 31.46C215.603 32.18 215.734 33.0309 215.734 34.0127ZM214.294 32.8018C214.294 32.6709 214.196 32.5073 213.967 32.3763C213.77 32.2454 213.574 32.2127 213.41 32.2127C212.985 32.2127 212.756 32.3763 212.756 32.7036C212.756 32.8673 213.018 32.9654 213.541 32.9654C214.032 32.9327 214.294 32.9 214.294 32.8018ZM206.865 33.2272C206.865 33.8491 206.669 34.34 206.276 34.7982C205.883 35.2564 205.392 35.4854 204.77 35.4854C204.018 35.4854 203.396 35.1254 202.905 34.3727C202.578 35.06 202.152 35.42 201.629 35.42H201.596H201.17H200.941C199.665 35.42 198.88 35.06 198.585 34.3073C198.323 34.7327 198.061 35.0272 197.701 35.1909C197.407 35.3545 196.981 35.42 196.49 35.42H195.869H195.476H195.28C194.396 35.42 193.676 34.8309 193.12 33.6854C192.727 34.3727 192.367 34.8636 192.007 35.1582C191.614 35.4854 191.09 35.6491 190.436 35.6491C189.029 35.6491 188.309 34.8309 188.309 33.1618C188.309 32.8018 188.374 32.4418 188.472 32.0163C188.603 31.46 188.8 31.1654 189.061 31.1654C189.323 31.1654 189.487 31.2963 189.552 31.5582C189.683 31.9836 189.781 32.2127 189.814 32.2782C190.01 32.54 190.338 32.6709 190.829 32.6709C191.156 32.6709 191.483 32.6054 191.81 32.54C192.203 32.4091 192.4 32.2782 192.4 32.1145C192.4 32.0818 192.4 32.0491 192.367 32.0163L191.221 29.2672L192.76 27.7291C192.825 27.6636 192.89 27.6309 192.923 27.6309C192.956 27.6309 192.989 27.6963 193.021 27.7945L194.33 31.3945C194.56 32.0163 194.887 32.3436 195.345 32.3436H195.443H195.836H196.36C197.014 32.3436 197.407 32.2782 197.538 32.18C197.21 31.7545 196.916 31.4272 196.654 31.2636C196.621 31.2309 196.589 31.2309 196.523 31.1982L196.229 31.0345C196.163 31.0018 196.13 30.9036 196.13 30.7073C196.13 30.2818 196.36 29.8891 196.785 29.4963C197.276 29.0709 197.898 28.8418 198.65 28.8418C199.174 28.8418 199.665 28.9727 200.09 29.2345C200.581 29.5291 200.81 29.9545 200.81 30.4454C200.81 30.74 200.647 31.0673 200.352 31.46C200.287 31.5582 200.058 31.7873 199.632 32.2127C199.796 32.3109 200.123 32.3436 200.68 32.3436H201.105H201.334H201.367C201.923 32.3436 202.218 32.1473 202.25 31.7873C202.283 31.2963 202.414 30.8709 202.676 30.5109C203.036 29.9545 203.592 29.6927 204.312 29.6927C205.196 29.6927 205.85 30.1509 206.309 31.0673C206.701 31.6563 206.865 32.4091 206.865 33.2272ZM205.752 32.6709C205.752 32.3764 205.687 32.0491 205.523 31.7218C205.327 31.2963 205.098 31.1 204.836 31.1C204.705 31.1 204.574 31.1654 204.476 31.2636C204.378 31.3618 204.345 31.4927 204.345 31.6563C204.345 32.0163 204.41 32.3436 204.574 32.6709C204.77 33.0964 205.032 33.3254 205.36 33.3254C205.621 33.2927 205.752 33.0636 205.752 32.6709ZM183.89 30.0527C183.923 30.0854 183.956 30.1182 183.956 30.1509C183.956 30.1836 183.923 30.2163 183.89 30.2491L182.974 31.1654C182.909 31.2309 182.843 31.2309 182.778 31.1654L181.796 30.2491C181.73 30.1836 181.73 30.0854 181.829 29.9873L182.712 29.1036C182.778 29.0382 182.876 29.0382 182.941 29.1036L183.89 30.0527Z" fill="white"/>
<g filter="url(#filter0_d_5137_23383)">
<path fill-rule="evenodd" clip-rule="evenodd" d="M280 21.2C280 20.5373 280.537 20 281.2 20H287.16C287.478 20 287.783 20.1261 288.008 20.3505L291.37 23.7055C291.835 24.1693 292.586 24.1733 293.056 23.7145L296.51 20.3415C296.734 20.1226 297.035 20 297.348 20H302.8C303.463 20 304 20.5373 304 21.2V42.8C304 43.4627 303.463 44 302.8 44H281.2C280.537 44 280 43.4627 280 42.8V21.2ZM282.707 23.9074C282.707 23.2447 283.245 22.7074 283.907 22.7074H286.424C286.743 22.7074 287.049 22.8343 287.274 23.0601L289.638 25.4303C290.105 25.8986 290.105 26.6567 289.637 27.125L287.496 29.2721C287.03 29.739 287.029 30.4941 287.492 30.9631L287.517 30.9885C287.983 31.4596 288.742 31.4642 289.214 30.9989L291.369 28.8717C291.839 28.4078 292.595 28.4107 293.061 28.8782L295.897 31.7214C296.072 31.8962 296.296 32.0164 296.541 32.0462C297.876 32.2088 298.859 31.9205 299.573 31.2858C300.218 30.7127 299.627 29.8007 298.764 29.8117L297.988 29.8216C297.66 29.8257 297.345 29.6953 297.115 29.4606L294.817 27.1102C294.36 26.6425 294.361 25.8946 294.821 25.4288L297.142 23.0748C297.367 22.8461 297.675 22.7174 297.996 22.7174H300.083C300.745 22.7174 301.283 23.2546 301.283 23.9174V40.0926C301.283 40.7553 300.745 41.2926 300.083 41.2926H283.907C283.245 41.2926 282.707 40.7553 282.707 40.0926V23.9074ZM289.141 32.5895C289.019 32.4614 288.869 32.3628 288.701 32.3075C287.679 31.971 286.797 31.9596 286.017 32.318C285.139 32.7211 285.676 33.8375 286.642 33.8459C286.69 33.8463 286.737 33.8467 286.782 33.8472C287.107 33.8504 287.414 33.9888 287.634 34.2271C288.876 35.5701 290.388 37.2048 291.37 38.2665C291.818 38.7505 292.571 38.7825 293.058 38.337C294.344 37.1585 295.771 35.839 296.703 34.9677C297.155 34.5448 297.138 33.7912 296.713 33.3416C296.294 32.8991 295.659 32.9412 295.211 33.3542C294.552 33.9614 293.81 34.6506 293.202 35.2132C292.714 35.6636 291.956 35.6276 291.508 35.1385C290.579 34.125 289.609 33.0815 289.141 32.5895Z" fill="url(#paint0_radial_5137_23383)" shape-rendering="crispEdges"/>
<path fill-rule="evenodd" clip-rule="evenodd" d="M280 21.2C280 20.5373 280.537 20 281.2 20H287.16C287.478 20 287.783 20.1261 288.008 20.3505L291.37 23.7055C291.835 24.1693 292.586 24.1733 293.056 23.7145L296.51 20.3415C296.734 20.1226 297.035 20 297.348 20H302.8C303.463 20 304 20.5373 304 21.2V42.8C304 43.4627 303.463 44 302.8 44H281.2C280.537 44 280 43.4627 280 42.8V21.2ZM282.707 23.9074C282.707 23.2447 283.245 22.7074 283.907 22.7074H286.424C286.743 22.7074 287.049 22.8343 287.274 23.0601L289.638 25.4303C290.105 25.8986 290.105 26.6567 289.637 27.125L287.496 29.2721C287.03 29.739 287.029 30.4941 287.492 30.9631L287.517 30.9885C287.983 31.4596 288.742 31.4642 289.214 30.9989L291.369 28.8717C291.839 28.4078 292.595 28.4107 293.061 28.8782L295.897 31.7214C296.072 31.8962 296.296 32.0164 296.541 32.0462C297.876 32.2088 298.859 31.9205 299.573 31.2858C300.218 30.7127 299.627 29.8007 298.764 29.8117L297.988 29.8216C297.66 29.8257 297.345 29.6953 297.115 29.4606L294.817 27.1102C294.36 26.6425 294.361 25.8946 294.821 25.4288L297.142 23.0748C297.367 22.8461 297.675 22.7174 297.996 22.7174H300.083C300.745 22.7174 301.283 23.2546 301.283 23.9174V40.0926C301.283 40.7553 300.745 41.2926 300.083 41.2926H283.907C283.245 41.2926 282.707 40.7553 282.707 40.0926V23.9074ZM289.141 32.5895C289.019 32.4614 288.869 32.3628 288.701 32.3075C287.679 31.971 286.797 31.9596 286.017 32.318C285.139 32.7211 285.676 33.8375 286.642 33.8459C286.69 33.8463 286.737 33.8467 286.782 33.8472C287.107 33.8504 287.414 33.9888 287.634 34.2271C288.876 35.5701 290.388 37.2048 291.37 38.2665C291.818 38.7505 292.571 38.7825 293.058 38.337C294.344 37.1585 295.771 35.839 296.703 34.9677C297.155 34.5448 297.138 33.7912 296.713 33.3416C296.294 32.8991 295.659 32.9412 295.211 33.3542C294.552 33.9614 293.81 34.6506 293.202 35.2132C292.714 35.6636 291.956 35.6276 291.508 35.1385C290.579 34.125 289.609 33.0815 289.141 32.5895Z" stroke="url(#paint1_linear_5137_23383)" stroke-width="0.1296" stroke-miterlimit="2.6131" shape-rendering="crispEdges"/>
</g>
</g>
<defs>
<filter id="filter0_d_5137_23383" x="277.536" y="19.9351" width="28.9289" height="28.9299" filterUnits="userSpaceOnUse" color-interpolation-filters="sRGB">
<feFlood flood-opacity="0" result="BackgroundImageFix"/>
<feColorMatrix in="SourceAlpha" type="matrix" values="0 0 0 0 0 0 0 0 0 0 0 0 0 0 0 0 0 0 127 0" result="hardAlpha"/>
<feOffset dy="2.4"/>
<feGaussianBlur stdDeviation="1.2"/>
<feComposite in2="hardAlpha" operator="out"/>
<feColorMatrix type="matrix" values="0 0 0 0 0 0 0 0 0 0 0 0 0 0 0 0 0 0 0.25 0"/>
<feBlend mode="normal" in2="BackgroundImageFix" result="effect1_dropShadow_5137_23383"/>
<feBlend mode="normal" in="SourceGraphic" in2="effect1_dropShadow_5137_23383" result="shape"/>
</filter>
<radialGradient id="paint0_radial_5137_23383" cx="0" cy="0" r="1" gradientUnits="userSpaceOnUse" gradientTransform="translate(292 31.049) rotate(91.5913) scale(21.5468 21.5447)">
<stop offset="0.0229883" stop-color="white"/>
<stop offset="0.914849" stop-color="#414F96"/>
</radialGradient>
<linearGradient id="paint1_linear_5137_23383" x1="292" y1="20" x2="293.056" y2="59.1729" gradientUnits="userSpaceOnUse">
<stop stop-color="#22307B"/>
<stop offset="1" stop-color="#22307B" stop-opacity="0"/>
</linearGradient>
<clipPath id="clip0_5137_23383">
<rect width="320" height="172" rx="12" fill="white"/>
</clipPath>
</defs>
</svg>
