<svg width="320" height="172" viewBox="0 0 320 172" fill="none" xmlns="http://www.w3.org/2000/svg">
<g clip-path="url(#clip0_5137_22974)">
<rect width="320" height="172" rx="12" fill="#DCDEDD"/>
<path d="M252.914 35.9243C252.991 36.0011 252.991 36.0011 252.914 35.9243V35.9243Z" fill="#A7A7A7"/>
<path d="M284.812 23.8111C285.433 23.2181 286.047 22.6181 286.668 22.0181C286.466 22.932 285.747 23.5948 285.112 24.2297C283.891 25.3879 282.51 26.3647 281.198 27.4182C281.017 27.5437 280.863 27.7251 280.647 27.8019L280.619 27.781C280.787 27.167 281.282 26.7344 281.763 26.3437C282.768 25.4925 283.849 24.7181 284.812 23.8111ZM279.817 25.6181C279.991 25.2344 280.159 24.8367 280.396 24.4879C280.689 24.6623 281.038 24.9065 281.038 25.2902C280.968 25.6321 280.821 26.0019 280.508 26.1833C280.256 26.0228 280.019 25.8344 279.817 25.6181ZM275.135 27.3275C275.707 26.9716 276.28 26.574 276.949 26.4554C276.81 26.8391 276.628 27.2437 276.28 27.4809C275.966 27.6275 275.624 27.7251 275.338 27.9275C274.466 28.5345 273.614 29.1693 272.749 29.7833C271.626 30.5577 270.412 31.1996 269.17 31.7578C267.384 32.5671 265.424 32.9159 263.47 33.0066C262.926 33.0415 262.389 33.0206 261.844 32.9857C261.126 32.9229 260.4 32.8322 259.73 32.5601C259.64 32.4973 259.542 32.5671 259.507 32.6508C259.172 33.2578 258.942 33.9625 258.391 34.4299C258.196 34.5973 257.833 34.7508 257.651 34.4787C257.721 34.2625 257.847 34.0741 258.007 33.9206C258.677 33.2717 259.11 32.4275 259.542 31.6112C259.682 31.3391 260.003 31.1438 260.31 31.2275C260.875 31.374 261.44 31.5345 262.019 31.5903C263.226 31.7647 264.454 31.6392 265.661 31.5275C266.456 31.4089 267.258 31.2833 268.033 31.0601C269.282 30.7043 270.482 30.181 271.626 29.5601C272.868 28.8973 273.97 28.06 275.135 27.3275ZM256.877 28.4298C257.037 28.0182 257.177 27.5786 257.428 27.2158C257.365 28.1717 257.149 29.1135 257.072 30.0694C257.051 30.5229 256.954 31.0112 257.142 31.4438C257.212 31.6043 257.379 31.674 257.54 31.7019C257.644 31.4647 257.742 31.2345 257.833 30.9903C258.007 31.0531 258.168 31.1857 258.196 31.374C258.237 31.8275 258.105 32.295 257.847 32.6717C257.679 32.9299 257.337 33.0903 257.037 32.9717C256.73 32.8113 256.521 32.4834 256.493 32.1345C256.458 31.7996 256.472 31.4647 256.507 31.1298C256.598 30.2229 256.702 29.3228 256.877 28.4298ZM280.515 27.9484C280.528 27.9484 280.549 27.9414 280.563 27.9414C280.57 27.9624 280.591 27.9972 280.605 28.0182C280.508 28.6879 280.312 29.3438 280.235 30.0205C280.138 30.5787 280.138 31.1438 280.159 31.7019C280.187 32.0159 280.48 32.2252 280.78 32.2461C281.038 32.0717 281.024 31.7368 281.212 31.5136C281.296 31.7159 281.226 31.9392 281.177 32.1485C281.066 32.5392 280.968 32.9508 280.703 33.2717C280.508 33.5229 280.082 33.5229 279.887 33.2787C279.719 33.0903 279.67 32.8322 279.635 32.588C279.552 32.0299 279.691 31.4787 279.733 30.9205C279.419 31.2415 279.231 31.6671 278.896 31.974C278.059 32.8671 276.852 33.2996 275.673 33.5229C274.738 33.6485 273.775 33.7531 272.847 33.509C272.512 33.4252 272.261 33.1113 272.254 32.7694C272.254 32.295 272.205 31.7996 272.407 31.3601C272.617 31.5764 272.547 31.981 272.833 32.1415C273.119 32.302 273.454 32.3578 273.775 32.3647C274.34 32.3927 274.905 32.3717 275.47 32.3438C276.573 32.2252 277.696 31.9671 278.638 31.3461C279.077 31.0391 279.475 30.6415 279.691 30.1461C279.873 29.7414 279.915 29.288 280.068 28.8763C280.208 28.5554 280.34 28.2414 280.515 27.9484ZM282.51 29.6368C282.573 29.0647 282.81 28.5345 283.096 28.0461C283.11 28.4996 282.97 28.9321 282.949 29.3856C282.838 30.1112 282.726 30.8368 282.74 31.5764C282.747 31.9252 283.019 32.281 283.396 32.2322C283.612 32.0927 283.64 31.8206 283.745 31.6043C283.773 31.5903 283.835 31.5554 283.863 31.5415C283.849 31.995 283.717 32.4415 283.549 32.8671C283.431 33.1182 283.277 33.4392 282.97 33.4671C282.719 33.502 282.468 33.3485 282.37 33.1113C282.224 32.7903 282.224 32.4275 282.224 32.0857C282.273 31.2624 282.377 30.4461 282.51 29.6368ZM255.126 31.7019C255.419 31.5973 255.502 31.2485 255.768 31.1019C255.823 31.3461 255.691 31.5764 255.607 31.7996C255.405 32.2671 255.105 32.7624 254.602 32.9508C254.344 33.0694 254.065 32.9369 253.8 32.9438C253.591 32.9857 253.402 33.0834 253.235 33.2089C253.137 33.2787 253.047 33.3834 252.914 33.3485C252.914 33.0276 253.137 32.7764 253.319 32.5392C253.605 32.1833 253.94 31.8206 254.4 31.7159C254.637 31.7159 254.895 31.8275 255.126 31.7019ZM254.721 35.2741C254.916 34.8625 255.077 34.4229 255.356 34.0531C255.656 34.2555 256.026 34.4997 256.019 34.9043C255.991 35.1974 255.844 35.4695 255.67 35.6997C255.607 35.7974 255.461 35.8881 255.356 35.7974C255.126 35.6439 254.916 35.4625 254.721 35.2741ZM253.409 35.3439C253.612 34.9392 253.758 34.4997 254.037 34.1299C254.344 34.3252 254.693 34.5764 254.714 34.9671C254.651 35.3439 254.47 35.7485 254.128 35.9509C253.891 35.7555 253.626 35.5811 253.409 35.3439ZM283.152 34.2276C283.403 34.4229 283.752 34.6113 283.78 34.9671C283.787 35.3508 283.57 35.7346 283.263 35.9578C283.026 35.7625 282.754 35.616 282.566 35.3648C282.761 34.988 282.915 34.5834 283.152 34.2276Z" fill="#353B6D"/>
<path d="M254.863 38.7372C254.547 38.6461 254.317 38.5345 254.173 38.4025C254.03 38.2704 253.958 38.1071 253.958 37.9124C253.958 37.6927 254.046 37.5112 254.221 37.3677C254.396 37.2232 254.625 37.1509 254.906 37.1509C255.098 37.1509 255.27 37.1884 255.42 37.2636C255.57 37.3376 255.686 37.44 255.768 37.5709C255.851 37.7007 255.893 37.843 255.893 37.9978H255.522C255.522 37.8282 255.468 37.6956 255.36 37.6C255.253 37.5032 255.102 37.4548 254.906 37.4548C254.725 37.4548 254.583 37.4947 254.481 37.5743C254.379 37.654 254.329 37.765 254.329 37.9073C254.329 38.0211 254.377 38.1173 254.474 38.1959C254.571 38.2744 254.735 38.3461 254.967 38.411C255.2 38.4759 255.381 38.5482 255.512 38.6279C255.643 38.7064 255.74 38.7981 255.802 38.9028C255.866 39.0075 255.898 39.1305 255.898 39.2716C255.898 39.4981 255.81 39.6797 255.633 39.8163C255.457 39.9518 255.221 40.0195 254.926 40.0195C254.734 40.0195 254.555 39.9831 254.388 39.9102C254.222 39.8362 254.094 39.7355 254.004 39.608C253.914 39.4805 253.869 39.3354 253.869 39.1726H254.24C254.24 39.341 254.302 39.4742 254.426 39.5721C254.551 39.67 254.718 39.719 254.926 39.719C255.12 39.719 255.268 39.6797 255.372 39.6012C255.476 39.5215 255.527 39.4133 255.527 39.2767C255.527 39.1401 255.48 39.0343 255.384 38.9591C255.288 38.884 255.115 38.81 254.863 38.7372ZM257.914 39.2528H256.744L256.481 39.9819H256.1L257.168 37.1902H257.49L258.558 39.9819H258.18L257.914 39.2528ZM256.855 38.9506H257.805L257.328 37.6444L256.855 38.9506ZM259.958 38.8533H259.301V39.9819H258.932V37.1902H259.856C260.17 37.1902 260.412 37.2619 260.582 37.4053C260.751 37.5476 260.836 37.7559 260.836 38.0302C260.836 38.2033 260.789 38.3547 260.694 38.4844C260.601 38.6131 260.471 38.7093 260.303 38.773L260.959 39.9597V39.9819H260.563L259.958 38.8533ZM259.301 38.551H259.868C260.05 38.551 260.195 38.5038 260.303 38.4093C260.411 38.3148 260.466 38.1885 260.466 38.0302C260.466 37.8572 260.414 37.7246 260.31 37.6324C260.208 37.5402 260.06 37.4935 259.866 37.4924H259.301V38.551ZM261.825 37.1902L262.738 39.468L263.65 37.1902H264.128V39.9819H263.759V38.8942L263.795 37.7212L262.878 39.9819H262.597L261.681 37.7263L261.717 38.8942V39.9819H261.35V37.1902H261.825ZM266.321 39.2528H265.151L264.888 39.9819H264.507L265.574 37.1902H265.897L266.964 39.9819H266.587L266.321 39.2528ZM265.262 38.9506H266.211L265.735 37.6444L265.262 38.9506ZM268.191 38.592L268.92 37.1902H269.339L268.375 38.9404V39.9819H268.008V38.9404L267.045 37.1902H267.467L268.191 38.592ZM271.277 38.6911H270.066V39.6814H271.473V39.9819H269.699V37.1902H271.453V37.4924H270.066V38.3905H271.277V38.6911ZM274.076 39.9819H273.707V38.6911H272.299V39.9819H271.931V37.1902H272.299V38.3905H273.707V37.1902H274.076V39.9819ZM275.92 39.9819V37.1902H276.832C277.136 37.1902 277.364 37.2528 277.517 37.378C277.669 37.5032 277.745 37.6887 277.745 37.9346C277.745 38.0644 277.708 38.1794 277.634 38.2795C277.56 38.3797 277.459 38.4577 277.331 38.5135C277.482 38.5556 277.601 38.6358 277.689 38.7542C277.777 38.8726 277.821 39.0132 277.821 39.176C277.821 39.4264 277.739 39.6234 277.576 39.7668C277.414 39.9102 277.184 39.9819 276.888 39.9819H275.92ZM276.287 38.6757V39.6814H276.895C277.067 39.6814 277.202 39.637 277.301 39.5482C277.401 39.4594 277.45 39.3371 277.45 39.1811C277.45 38.8442 277.267 38.6757 276.902 38.6757H276.287ZM276.287 38.3803H276.844C277.006 38.3803 277.134 38.3404 277.23 38.2608C277.327 38.1799 277.375 38.0701 277.375 37.9312C277.375 37.7787 277.33 37.6677 277.24 37.5982C277.151 37.5277 277.015 37.4924 276.832 37.4924H276.287V38.3803ZM279.909 39.2528H278.739L278.476 39.9819H278.096L279.163 37.1902H279.485L280.553 39.9819H280.175L279.909 39.2528ZM278.85 38.9506H279.8L279.323 37.6444L278.85 38.9506ZM283.074 39.9819H282.705L281.299 37.8305V39.9819H280.929V37.1902H281.299L282.708 39.3519V37.1902H283.074V39.9819ZM284.437 38.6842L284.096 39.0377V39.9819H283.729V37.1902H284.096V38.5698L285.337 37.1902H285.783L284.683 38.423L285.868 39.9819H285.428L284.437 38.6842Z" fill="#353B6D"/>
<path d="M289.699 43.958C289.755 44.0142 289.755 44.0142 289.699 43.958V43.958Z" fill="#A7A7A7"/>
<path d="M293.927 29.8954C296.062 28.6594 298.57 28.1589 301.021 28.2764C301.021 29.0935 301.021 29.9107 301.021 30.7278C301.021 31.6522 301.021 32.5766 301.021 33.501C300.168 33.4805 299.315 33.5572 298.473 33.6644C297.191 33.8432 295.929 34.1598 294.729 34.6552C293.289 35.2527 291.936 36.1362 290.935 37.3466C290.408 37.9646 289.995 38.6694 289.668 39.4048C289.734 38.4549 289.806 37.5049 289.882 36.5601C289.898 36.0239 289.985 35.4876 290 34.9514C290.025 34.5224 290.087 34.0934 290.092 33.6644C290.087 33.5316 290.143 33.4142 290.214 33.312C290.919 32.2395 291.849 31.3254 292.88 30.5695C293.217 30.3295 293.57 30.0996 293.927 29.8954Z" fill="#A7A7A7"/>
<path d="M303.431 23.0214C303.641 22.6946 303.814 22.3473 303.993 22C304.003 23.8437 303.998 25.6924 303.998 27.5361C303.176 28.7414 302.17 29.819 301.021 30.728C301.021 29.9109 301.021 29.0938 301.021 28.2766C298.569 28.1592 296.062 28.6648 293.927 29.8956C293.57 30.105 293.217 30.3297 292.88 30.5697C292.875 29.63 292.88 28.6903 292.875 27.7506C294.382 27.8425 295.904 27.6689 297.364 27.291C298.702 26.9335 299.989 26.3615 301.108 25.5341C302.032 24.8447 302.829 23.9969 303.431 23.0214ZM297.676 34.3388C298.314 34.2468 298.988 34.4052 299.514 34.7831C299.999 35.1304 300.362 35.6564 300.5 36.2386C300.689 36.9127 300.541 37.6584 300.163 38.2406C299.764 38.8585 299.08 39.2927 298.35 39.3744C297.762 39.451 297.145 39.3131 296.649 38.9913C296.108 38.644 295.704 38.0874 295.561 37.4592C295.383 36.7851 295.52 36.0394 295.898 35.4572C296.297 34.8546 296.956 34.4205 297.676 34.3388Z" fill="#363C73"/>
<mask id="mask0_5137_22974" style="mask-type:alpha" maskUnits="userSpaceOnUse" x="-16" y="-24" width="352" height="220">
<rect x="-16" y="-24" width="352" height="220" rx="12" fill="#D9D9D9"/>
</mask>
<g mask="url(#mask0_5137_22974)">
<g opacity="0.11">
<path fill-rule="evenodd" clip-rule="evenodd" d="M330.164 204.595C330.318 204.111 330.336 203.666 330.451 203.047C331.965 196.599 333.479 190.151 334.993 183.704C335.222 182.465 335.027 181.788 334.213 180.996C329.5 176.343 324.787 171.69 320.073 167.037C319.686 166.709 319.433 166.342 318.832 165.782C319.683 165.684 319.975 166.186 320.323 166.379C325.133 170.857 329.942 175.336 334.616 179.854C335.644 180.877 336.613 181.184 338.102 180.755C344.329 178.961 350.595 177.302 356.822 175.507C357.364 175.351 357.77 175.234 358.35 175.213C358.1 175.872 357.52 175.892 357.114 176.009C350.926 177.939 344.563 179.773 338.336 181.568C336.982 181.958 336.287 182.598 335.961 184.011C334.408 190.323 332.72 196.675 331.167 202.987C331.013 203.471 330.859 203.955 330.705 204.439C330.474 204.653 330.338 204.692 330.164 204.595Z" fill="url(#paint0_linear_5137_22974)"/>
<path fill-rule="evenodd" clip-rule="evenodd" d="M277.977 198.522C278.383 198.405 278.886 198.113 279.292 197.996C285.654 196.163 291.843 194.233 298.205 192.399C299.423 192.048 299.983 191.447 300.348 190.169C301.998 183.682 303.647 177.196 305.335 170.844C305.489 170.36 305.682 170.011 305.893 169.218C306.301 170.126 305.973 170.514 305.955 170.959C304.441 177.407 302.966 183.99 301.277 190.341C301.009 191.445 301.204 192.121 302.058 193.048C306.906 197.662 311.619 202.315 316.332 206.968C316.72 207.297 316.972 207.664 317.399 208.127C316.587 208.361 316.256 207.723 316.043 207.492C312.223 203.901 308.363 200.175 304.407 196.623C303.418 195.735 302.468 194.983 301.75 194.017C300.858 192.954 299.928 192.782 298.439 193.211C292.212 195.006 285.946 196.665 279.719 198.46C279.177 198.616 278.771 198.733 278.229 198.889C278.094 198.928 278.055 198.792 277.977 198.522Z" fill="url(#paint1_linear_5137_22974)"/>
<path fill-rule="evenodd" clip-rule="evenodd" d="M50.4444 -2.89532C44.9557 -8.20455 39.5634 -13.6882 33.9004 -19.0938C34.7126 -19.3278 35.0041 -18.8253 35.2565 -18.4582C40.1049 -13.8442 44.9144 -9.36556 49.7628 -4.75154C50.7518 -3.86361 51.5457 -3.65256 52.7641 -4.00367C58.9912 -5.79822 65.3928 -7.49642 71.62 -9.29097C72.1615 -9.44702 72.5676 -9.56406 73.3798 -9.79813C73.0334 -8.96521 72.5883 -8.98355 72.1822 -8.86652C67.077 -7.24868 61.9328 -5.76622 56.7886 -4.28376C55.4349 -3.89364 53.9848 -3.32913 52.592 -3.07438C51.6444 -2.8013 51.3163 -2.41352 51.0089 -1.44523C49.3594 5.04138 47.6136 11.7024 45.9641 18.189C45.8104 18.6731 45.8311 19.2536 45.1932 19.584C45.3056 17.9389 45.9021 16.4474 46.1888 14.8987C46.4756 13.3499 46.9367 11.8974 47.2235 10.3486C47.5492 8.9352 47.836 7.38641 48.2971 5.93398C48.5839 4.38518 49.045 2.93275 49.3317 1.38395C49.7355 0.241276 50.0223 -1.30751 50.4444 -2.89532Z" fill="url(#paint2_linear_5137_22974)"/>
<path fill-rule="evenodd" clip-rule="evenodd" d="M192.833 89.7848C187.48 84.4366 182.088 78.953 176.695 73.4694C176.695 73.4694 176.695 73.4694 176.927 73.256C177.315 73.5841 177.664 73.7768 177.916 74.1439C182.764 78.7579 187.574 83.2366 192.422 87.8506C193.411 88.7385 194.205 88.9496 195.424 88.5985C201.786 86.7649 208.052 85.1057 214.415 83.2721C214.821 83.1551 215.362 82.999 215.808 83.0174C215.847 83.1528 215.886 83.2881 215.925 83.4235C215.519 83.5405 215.016 83.832 214.61 83.949C208.286 85.9179 202.059 87.7125 195.697 89.5461C194.478 89.8972 193.879 90.363 193.515 91.641C192.001 98.0886 190.177 104.479 188.624 110.791C188.47 111.275 188.316 111.759 188.162 112.244C187.988 112.147 187.814 112.051 187.814 112.051L187.775 111.915C187.736 111.78 187.736 111.78 187.832 111.606C187.793 111.47 187.889 111.296 187.85 111.161C189.479 104.093 191.243 96.9873 192.872 89.9202L192.833 89.7848Z" fill="url(#paint3_linear_5137_22974)"/>
<path fill-rule="evenodd" clip-rule="evenodd" d="M135.491 106.016C135.897 105.899 136.399 105.608 136.805 105.491C143.033 103.696 149.221 101.766 155.448 99.9716C155.719 99.8936 155.854 99.8546 156.125 99.7765C157.112 99.6388 157.497 98.9413 157.804 97.973C159.454 91.4864 161.103 84.9998 162.888 78.4742C163.042 77.99 163.196 77.5059 163.524 77.1181C163.836 78.2011 163.258 79.2474 163.125 80.3121C162.856 81.4157 162.588 82.5194 162.319 83.6231C162.051 84.7267 161.783 85.8304 161.514 86.934C161.246 88.0377 161.074 88.967 160.805 90.0706C160.537 91.1743 160.268 92.278 160 93.3816C159.732 94.4853 159.463 95.589 159.195 96.6926C158.926 97.7963 158.658 98.9 158.39 100.004C163.917 105.448 169.406 110.757 174.663 116.28C173.947 116.34 173.655 115.837 173.268 115.509C168.458 111.031 163.61 106.416 158.8 101.938C157.811 101.05 157.017 100.839 155.799 101.19C149.437 103.024 143.17 104.683 136.808 106.516C136.402 106.633 135.86 106.789 135.28 106.81C135.569 106.287 135.53 106.152 135.491 106.016Z" fill="url(#paint4_linear_5137_22974)"/>
<path fill-rule="evenodd" clip-rule="evenodd" d="M56.7924 108.169C54.9708 115.585 53.3237 123.097 51.5022 130.513C57.0299 135.958 62.3831 141.306 67.7364 146.654C67.7364 146.654 67.7364 146.654 67.6401 146.829C67.0596 146.849 66.7681 146.347 66.3803 146.019C61.5709 141.54 56.7224 136.926 51.913 132.447C50.924 131.56 50.2655 131.309 48.9118 131.7C42.5492 133.533 36.283 135.192 29.9205 137.026C29.379 137.182 28.9729 137.299 28.1216 137.398C28.6034 136.526 29.1839 136.505 29.59 136.388C35.2757 134.75 40.9224 132.976 46.4727 131.376C47.2849 131.142 48.0582 130.773 48.7741 130.713C49.7607 130.575 50.1851 130.013 50.4926 129.045C52.142 122.558 53.7915 116.072 55.5763 109.546C55.73 109.062 55.8837 108.578 56.0375 108.094C56.4436 107.977 56.618 108.073 56.7924 108.169Z" fill="url(#paint5_linear_5137_22974)"/>
<path fill-rule="evenodd" clip-rule="evenodd" d="M-26.2703 174.039C-25.8689 171.87 -25.3504 170.108 -24.8709 168.211C-24.3915 166.313 -24.0474 164.455 -23.5679 162.557C-23.0884 160.659 -22.7053 158.936 -22.2258 157.039C-21.7464 155.141 -21.4023 153.283 -20.9228 151.385C-26.4505 145.94 -31.8038 140.592 -37.4668 135.187C-36.6546 134.952 -36.3631 135.455 -36.1107 135.822C-31.2623 140.436 -26.4528 144.915 -21.6044 149.529C-20.6154 150.417 -19.8215 150.628 -18.6031 150.277C-12.3759 148.482 -5.97439 146.784 0.25279 144.989C0.794287 144.833 1.20041 144.716 2.01265 144.482C1.66622 145.315 1.22109 145.297 0.814964 145.414C-4.29021 147.032 -9.43441 148.514 -14.5786 149.996C-15.9323 150.387 -17.3824 150.951 -18.7752 151.206C-19.7228 151.479 -20.0509 151.867 -20.3583 152.835C-22.0078 159.322 -23.7536 165.983 -25.4031 172.469C-25.4214 172.914 -25.4007 173.495 -26.2703 174.039Z" fill="url(#paint6_linear_5137_22974)"/>
<path fill-rule="evenodd" clip-rule="evenodd" d="M281.436 85.3641C281.048 85.036 280.66 84.7079 280.273 84.3798C275.463 79.9012 270.615 75.2871 265.941 70.7695C264.952 69.8815 264.197 69.8059 262.978 70.157C256.616 71.9905 250.35 73.6497 243.987 75.4833C243.581 75.6003 243.039 75.7564 242.594 75.738C242.555 75.6027 242.516 75.4673 242.477 75.3319C242.883 75.2149 243.386 74.9234 243.792 74.8064C250.019 73.0119 256.207 71.0819 262.434 69.2874C262.705 69.2094 262.841 69.1703 263.111 69.0923C264.098 68.9546 264.483 68.257 264.791 67.2888C266.44 60.8022 268.09 54.3156 269.875 47.79C270.028 47.3058 270.182 46.8217 270.51 46.4339C270.822 47.5169 270.244 48.5632 270.111 49.6278C269.843 50.7315 269.574 51.8352 269.306 52.9388C269.037 54.0425 268.769 55.1462 268.501 56.2498C268.232 57.3535 268.06 58.2827 267.792 59.3864C267.523 60.4901 267.255 61.5937 266.986 62.6974C266.718 63.8011 266.45 64.9047 266.181 66.0084C265.913 67.1121 265.644 68.2157 265.472 69.145C271 74.5896 276.353 79.9378 281.746 85.4214C281.629 85.0153 281.493 85.0543 281.436 85.3641Z" fill="url(#paint7_linear_5137_22974)"/>
<path fill-rule="evenodd" clip-rule="evenodd" d="M283.523 42.2438C284.124 42.8036 284.473 42.9964 284.86 43.3245C289.709 47.9385 294.693 52.5135 299.541 57.1275C300.356 57.9191 301.15 58.1301 302.233 57.818C308.595 55.9845 314.997 54.2863 321.359 52.4527C321.765 52.3357 322.307 52.1796 322.887 52.1589C322.926 52.2943 322.965 52.4297 323.004 52.5651C322.598 52.6821 322.096 52.9735 321.69 53.0905C315.366 55.0595 309.139 56.8541 302.776 58.6876C301.423 59.0777 300.863 59.6789 300.633 60.918C299.08 67.2302 297.392 73.5814 295.703 79.9326C295.55 80.4168 295.396 80.9009 295.068 81.2887C294.641 80.8252 294.93 80.3021 295.084 79.8179C296.598 73.3703 298.112 66.9228 299.626 60.4752C299.991 59.1971 299.622 58.4239 298.807 57.6323C294.094 52.9793 289.381 48.3263 284.668 43.6732C284.145 43.3841 283.66 43.2304 283.523 42.2438Z" fill="url(#paint8_linear_5137_22974)"/>
<path fill-rule="evenodd" clip-rule="evenodd" d="M85.8878 120.604C80.5345 115.256 75.1422 109.772 69.7499 104.289C69.7499 104.289 69.7499 104.289 69.9426 103.94C70.3304 104.268 70.6792 104.461 70.9316 104.828C75.78 109.442 80.5895 113.921 85.438 118.535C86.4269 119.423 87.2208 119.634 88.4392 119.283C94.8017 117.449 101.068 115.79 107.43 113.956C107.837 113.839 108.378 113.683 108.823 113.701C108.862 113.837 108.901 113.972 108.94 114.108C108.534 114.225 108.032 114.516 107.626 114.633C101.302 116.602 95.0748 118.397 88.7123 120.23C87.4939 120.581 86.8951 121.047 86.5303 122.325C85.0162 128.773 83.1924 135.163 81.6392 141.475C81.4855 141.959 81.3318 142.443 81.1781 142.928C81.0037 142.831 80.8683 142.87 80.8293 142.735L80.7903 142.6C80.7513 142.464 80.7513 142.464 80.8477 142.29C80.8087 142.154 80.905 141.98 80.866 141.845C82.4948 134.778 84.259 127.671 85.8878 120.604Z" fill="url(#paint9_linear_5137_22974)"/>
<path fill-rule="evenodd" clip-rule="evenodd" d="M139.143 -7.49022C138.466 -7.29516 138.174 -7.79764 137.787 -8.12573C132.977 -12.6044 128.129 -17.2184 123.319 -21.697C122.33 -22.585 121.672 -22.8351 120.318 -22.4449C113.955 -20.6114 107.689 -18.9522 101.327 -17.1186C100.785 -16.9626 100.379 -16.8455 99.5279 -16.7468C100.01 -17.6188 100.59 -17.6394 100.996 -17.7565C106.547 -19.356 112.193 -21.1298 117.744 -22.7293C118.556 -22.9634 119.329 -23.3329 120.18 -23.4316C121.167 -23.5693 121.591 -24.1314 121.899 -25.0997C123.395 -31.1022 125.026 -37.1436 126.521 -43.1461C126.829 -44.1144 127.001 -45.0437 127.308 -46.012C127.483 -45.9156 127.618 -45.9546 127.618 -45.9546L127.657 -45.8192C125.971 -38.4424 124.324 -30.9301 122.502 -23.5143C128.262 -18.2831 133.75 -12.9738 139.143 -7.49022Z" fill="url(#paint10_linear_5137_22974)"/>
<path fill-rule="evenodd" clip-rule="evenodd" d="M31.9657 23.5425C31.5779 23.2144 31.1901 22.8863 30.8024 22.5582C25.9539 17.9442 21.1444 13.4655 16.296 8.8515C15.4814 8.05994 14.8619 7.94524 13.7789 8.25733C7.41635 10.0909 1.01478 11.7891 -5.34777 13.6227C-5.88926 13.7787 -6.29538 13.8958 -6.97225 14.0908C-6.93558 13.2006 -6.31605 13.3152 -6.04531 13.2372C-2.25485 12.1449 1.63197 10.8782 5.42243 9.78582C8.12989 9.00558 10.7984 8.08996 13.6802 7.40608C14.6278 7.133 14.9559 6.74522 15.2633 5.77693C16.9128 -0.709677 18.5623 -7.19628 20.3471 -13.7219C20.5008 -14.206 20.6545 -14.6902 20.8656 -15.4841C21.118 -15.117 21.157 -14.9816 21.196 -14.8462C21.1777 -14.4011 21.1203 -14.0913 20.9276 -13.7426C19.4135 -7.29498 17.9384 -0.712015 16.25 5.63921C15.9816 6.74288 16.1766 7.41974 17.0302 8.34668C21.7433 12.9997 26.4564 17.6528 31.1695 22.3058C31.5572 22.6339 31.8097 23.001 32.2365 23.4645C32.1974 23.3291 32.1011 23.5035 31.9657 23.5425Z" fill="url(#paint11_linear_5137_22974)"/>
<path fill-rule="evenodd" clip-rule="evenodd" d="M288.435 108.125C288.281 108.609 288.262 109.054 288.109 109.538C286.595 115.986 285.081 122.434 283.431 128.92C283.163 130.024 283.358 130.701 284.172 131.492C289.021 136.106 293.734 140.759 298.447 145.412C298.835 145.74 299.087 146.108 299.688 146.667C298.876 146.901 298.585 146.399 298.371 146.167C293.562 141.689 288.888 137.171 284.078 132.692C283.865 132.461 283.691 132.364 283.477 132.132C282.798 131.302 282.082 131.362 281.134 131.635C274.636 133.507 268.235 135.205 261.737 137.078C261.331 137.195 260.789 137.351 260.344 137.333C260.305 137.197 260.266 137.062 260.227 136.927C260.633 136.81 261 136.557 261.407 136.44C267.865 134.432 274.228 132.599 280.726 130.726C281.809 130.414 282.272 129.987 282.541 128.883C284.19 122.397 285.879 116.046 287.528 109.559C287.682 109.075 287.836 108.591 287.989 108.107C288.125 108.068 288.299 108.164 288.435 108.125Z" fill="url(#paint12_linear_5137_22974)"/>
<path fill-rule="evenodd" clip-rule="evenodd" d="M301.486 104.07C301.874 104.398 302.262 104.726 302.65 105.054C307.498 109.668 312.307 114.147 317.156 118.761C317.971 119.553 318.764 119.764 319.847 119.451C326.345 117.579 332.747 115.881 339.245 114.008C339.651 113.891 340.057 113.774 340.638 113.753C340.291 114.586 339.672 114.472 339.265 114.589C332.942 116.558 326.579 118.391 320.256 120.36C320.12 120.399 320.12 120.399 319.985 120.438C318.998 120.576 318.439 121.177 318.306 122.242C316.656 128.728 315.007 135.215 313.222 141.74C313.068 142.225 312.914 142.709 312.761 143.193C312.625 143.232 312.451 143.136 312.316 143.175C312.469 142.69 312.488 142.245 312.641 141.761C314.155 135.314 315.67 128.866 317.223 122.554C317.587 121.276 317.353 120.463 316.403 119.711C311.69 115.058 306.977 110.405 302.303 105.887C301.915 105.559 301.663 105.192 301.275 104.864C301.39 104.244 301.525 104.205 301.486 104.07Z" fill="url(#paint13_linear_5137_22974)"/>
<path fill-rule="evenodd" clip-rule="evenodd" d="M192.453 178.01C191.852 177.451 191.464 177.123 191.076 176.794C186.267 172.316 181.419 167.702 176.609 163.223C175.795 162.432 175.001 162.221 173.782 162.572C167.42 164.405 160.883 166.142 154.52 167.976C154.114 168.093 153.708 168.21 153.166 168.366C153.127 168.231 153.088 168.095 153.049 167.96C153.456 167.843 153.823 167.591 154.229 167.473C160.552 165.505 167.05 163.632 173.413 161.798C174.631 161.447 175.191 160.846 175.42 159.607C176.973 153.295 178.662 146.944 180.35 140.592C180.504 140.108 180.658 139.624 180.773 139.005C180.986 139.236 181.16 139.333 181.16 139.333C181.142 139.778 180.988 140.262 180.931 140.572C179.417 147.019 177.903 153.467 176.389 159.914C176.12 161.018 176.219 161.869 177.169 162.622C182.017 167.236 186.73 171.889 191.444 176.542C191.967 176.831 192.49 177.12 192.453 178.01Z" fill="url(#paint14_linear_5137_22974)"/>
<path fill-rule="evenodd" clip-rule="evenodd" d="M85.2945 208.598C84.9068 208.27 84.519 207.942 84.1312 207.614C79.2827 203 74.4733 198.521 69.6248 193.907C68.8493 193.251 68.1907 193.001 67.2431 193.274C60.8806 195.107 54.3436 196.845 47.9811 198.678C47.4396 198.834 47.0335 198.951 46.2212 199.185C46.5676 198.352 47.0128 198.371 47.4189 198.254C53.7424 196.285 59.9696 194.49 66.2932 192.521C66.5639 192.443 66.6993 192.404 66.97 192.326C67.9567 192.188 68.3421 191.491 68.5532 190.697C70.2026 184.21 71.8521 177.724 73.6369 171.198C73.7906 170.714 73.9444 170.23 74.2724 169.842C74.6992 170.306 74.4102 170.829 74.2564 171.313C72.7424 177.76 71.2283 184.208 69.7142 190.656C69.4848 191.895 69.5445 192.611 70.5334 193.499C75.3819 198.113 80.095 202.766 84.8081 207.419C85.1958 207.747 85.4482 208.114 85.7007 208.481C85.5263 208.385 85.4299 208.559 85.2945 208.598Z" fill="url(#paint15_linear_5137_22974)"/>
<path fill-rule="evenodd" clip-rule="evenodd" d="M194.678 134.851C195.065 135.179 195.453 135.507 195.841 135.835C200.65 140.314 205.46 144.792 210.134 149.31C211.162 150.333 212.052 150.37 213.271 150.019C219.633 148.185 226.035 146.487 232.397 144.654C232.803 144.536 233.209 144.419 233.79 144.399C233.404 145.096 232.959 145.078 232.418 145.234C226.094 147.203 219.732 149.037 213.408 151.005C213.137 151.083 213.002 151.123 212.731 151.201C211.88 151.299 211.591 151.822 211.38 152.616C210.478 156.102 209.577 159.587 208.675 163.072C207.792 166.113 207.083 169.249 206.2 172.29C206.046 172.774 205.892 173.258 205.739 173.742C205.177 173.317 205.505 172.93 205.523 172.485C206.404 168.419 207.459 164.449 208.34 160.383C209.031 157.692 209.586 155.039 210.276 152.348C210.448 151.419 210.292 150.877 209.652 150.182C204.804 145.568 200.052 140.779 195.338 136.126C194.951 135.798 194.563 135.47 194.271 134.968C194.485 135.2 194.581 135.025 194.678 134.851Z" fill="url(#paint16_linear_5137_22974)"/>
<path fill-rule="evenodd" clip-rule="evenodd" d="M98.5227 204.64C98.6764 204.156 98.6947 203.71 98.8485 203.226C100.363 196.779 101.877 190.331 103.526 183.844C103.795 182.741 103.599 182.064 102.746 181.137C98.0328 176.484 93.3197 171.831 88.6066 167.178C88.2188 166.85 87.9664 166.483 87.3652 165.923C88.2165 165.824 88.5079 166.327 88.8957 166.655C92.7552 170.381 96.711 173.933 100.571 177.659C101.599 178.682 102.587 179.57 103.615 180.593C104.256 181.288 104.914 181.538 105.862 181.265C112.36 179.393 118.761 177.695 125.259 175.822C125.801 175.666 126.207 175.549 127.019 175.315C126.673 176.148 126.092 176.168 125.686 176.285C119.362 178.254 113 180.088 106.676 182.057C106.406 182.135 106.27 182.174 106 182.252C105.148 182.351 104.859 182.874 104.648 183.668C103.747 187.153 102.845 190.638 101.943 194.124C101.06 197.164 100.351 200.301 99.468 203.341C99.3143 203.825 99.1606 204.309 99.1032 204.619C98.8325 204.697 98.6581 204.601 98.5227 204.64Z" fill="url(#paint17_linear_5137_22974)"/>
<path fill-rule="evenodd" clip-rule="evenodd" d="M10.7961 75.2408C11.2023 75.1237 11.6084 75.0067 11.9755 74.7543C18.4344 72.7463 24.797 70.9128 31.2949 69.0402C32.3779 68.7281 32.8413 68.3013 33.1098 67.1976C34.7592 60.711 36.4477 54.3598 38.0972 47.8732C38.2509 47.3891 38.4046 46.9049 38.6547 46.2464C39.1595 46.9806 38.8704 47.5038 38.6777 47.8525C37.1636 54.3001 35.6105 60.6123 34.0964 67.0599C34 67.2343 34.039 67.3697 33.9817 67.6794C33.6743 68.6477 33.8693 69.3246 34.6449 69.9808C39.4933 74.5948 44.2454 79.3832 48.9585 84.0363C49.3463 84.3644 49.5987 84.7315 50.1999 85.2913C49.1743 85.2936 49.0572 84.8875 48.6694 84.5594C44.0344 80.1771 39.2249 75.6985 34.5899 71.3162C34.3765 71.0845 34.2021 70.9881 33.9887 70.7564C33.3095 69.9258 32.5936 69.9855 31.646 70.2586C25.1481 72.1311 18.7465 73.8293 12.2486 75.7019C11.8425 75.8189 11.301 75.975 10.8558 75.9567C10.8742 75.5115 10.8352 75.3762 10.7961 75.2408Z" fill="url(#paint18_linear_5137_22974)"/>
<path fill-rule="evenodd" clip-rule="evenodd" d="M252.759 -15.161C252.74 -14.7159 252.587 -14.2318 252.568 -13.7866C251.054 -7.33905 249.54 -0.891452 247.891 5.59515C247.622 6.69881 247.817 7.37568 248.671 8.30262C253.519 12.9166 258.232 17.5697 262.946 22.2227C263.333 22.5508 263.586 22.9179 263.877 23.4204C263.161 23.4801 262.909 23.113 262.656 22.7459C257.847 18.2672 252.999 13.6532 248.189 9.17455C247.335 8.24761 246.542 8.03655 245.323 8.38766C238.961 10.2212 232.559 11.9194 226.197 13.753C225.79 13.87 225.249 14.0261 224.668 14.0467C224.879 13.2528 225.499 13.3675 225.905 13.2505C232.229 11.2816 238.456 9.48701 244.779 7.51806C245.05 7.44004 245.321 7.36202 245.592 7.28399C246.443 7.1853 246.867 6.62313 247.039 5.69385C248.689 -0.792749 250.435 -7.45374 252.084 -13.9403C252.238 -14.4245 252.392 -14.9086 252.545 -15.3928C252.584 -15.2574 252.72 -15.2964 252.759 -15.161Z" fill="url(#paint19_linear_5137_22974)"/>
<path fill-rule="evenodd" clip-rule="evenodd" d="M145.465 15.4656C145.931 16.0645 145.777 16.5486 145.624 17.0327C144.109 23.4803 142.595 29.9279 141.081 36.3755C140.852 37.6146 140.912 38.3304 141.901 39.2184C146.749 43.8324 151.462 48.4854 156.175 53.1385C156.563 53.4666 156.815 53.8337 157.242 54.2971C156.352 54.2605 156.06 53.758 155.673 53.4299C150.863 48.9512 146.015 44.3372 141.205 39.8586C140.216 38.9706 139.558 38.7206 138.204 39.1107C131.842 40.9443 125.44 42.6424 119.077 44.476C118.671 44.5931 118.13 44.7491 117.549 44.7698C117.76 43.9759 118.38 44.0906 118.786 43.9735C125.11 42.0046 131.337 40.21 137.66 38.2411C139.962 37.5779 139.498 38.0047 140.17 35.7583C141.859 29.4071 143.412 23.0949 145.139 16.879C145.158 16.4339 145.311 15.9498 145.465 15.4656Z" fill="url(#paint20_linear_5137_22974)"/>
<path fill-rule="evenodd" clip-rule="evenodd" d="M52.1926 42.3448C52.5804 42.6729 52.9682 43.001 53.356 43.3291C58.1654 47.8078 62.8395 52.3254 67.6099 56.6687C69.3745 58.2128 68.6196 58.1371 71.0563 57.4349C77.4579 55.7367 83.685 53.9422 90.0866 52.244C90.4927 52.1269 90.8989 52.0099 91.4794 51.9892C90.9585 52.7258 90.5134 52.7074 89.9719 52.8635C83.6484 54.8324 77.2858 56.666 70.9233 58.4996C69.7049 58.8507 69.1451 59.4519 68.7803 60.7299C67.2272 67.0421 65.5387 73.3933 63.8502 79.7446C63.6965 80.2287 63.5428 80.7129 63.4281 81.3324C62.7306 80.9469 63.194 80.5201 63.2124 80.075C64.1323 76.1445 65.0132 72.0786 66.0685 68.1091C66.7591 65.4176 67.2752 62.6298 67.9657 59.9383C68.1378 59.0091 67.9817 58.4676 67.3415 57.7724C62.4931 53.1583 57.741 48.3699 53.0279 43.7169C52.6401 43.3888 52.3877 43.0217 51.9609 42.5582C51.9609 42.5582 52.0963 42.5192 52.1926 42.3448Z" fill="url(#paint21_linear_5137_22974)"/>
<path fill-rule="evenodd" clip-rule="evenodd" d="M158.596 11.6816C159.621 11.6793 159.777 12.2208 160.165 12.5489C164.975 17.0275 169.823 21.6416 174.497 26.1592C175.486 27.0471 176.145 27.2972 177.498 26.9071C183.861 25.0735 190.398 23.3363 196.76 21.5028C197.167 21.3857 197.573 21.2687 198.018 21.287C197.942 22.0419 197.323 21.9272 197.052 22.0052C193.126 23.1366 189.239 24.4033 185.449 25.4957C182.741 26.2759 180.073 27.1915 177.365 27.9717C176.418 28.2448 175.993 28.807 175.821 29.7363C174.172 36.2229 172.522 42.7095 170.737 49.2351C170.584 49.7192 170.43 50.2034 170.219 50.9973C169.675 50.1277 170.003 49.7399 170.157 49.2558C171.671 42.8082 173.185 36.3606 174.835 29.874C175.103 28.7703 174.908 28.0935 174.054 27.1665C169.206 22.5525 164.493 17.8995 159.78 13.2464C159.449 12.6086 159.062 12.2805 158.596 11.6816Z" fill="url(#paint22_linear_5137_22974)"/>
<path fill-rule="evenodd" clip-rule="evenodd" d="M305.079 -9.12664C304.673 -9.0096 304.267 -8.89257 303.725 -8.73652C297.402 -6.76758 291.039 -4.934 284.676 -3.10043C283.323 -2.71031 282.763 -2.10913 282.533 -0.870093C280.98 5.44212 279.292 11.7934 277.603 18.1446C277.45 18.6287 277.296 19.1129 277.085 19.9068C276.541 19.0372 276.869 18.6494 277.023 18.1653C278.537 11.7177 280.051 5.27008 281.565 -1.17751C281.795 -2.41655 281.735 -3.13243 280.746 -4.02035C276.033 -8.67339 271.32 -13.3264 266.646 -17.8441C266.258 -18.1722 266.005 -18.5393 265.404 -19.0991C266.43 -19.1015 266.586 -18.56 266.974 -18.2319C271.783 -13.7532 276.632 -9.1392 281.441 -4.66055C282.295 -3.73362 283.089 -3.52256 284.307 -3.87367C290.67 -5.70724 297.206 -7.44444 303.569 -9.27801C303.975 -9.39504 304.381 -9.51208 304.826 -9.49374C305.001 -9.39738 305.04 -9.26201 305.079 -9.12664Z" fill="url(#paint23_linear_5137_22974)"/>
<path fill-rule="evenodd" clip-rule="evenodd" d="M350.665 123.62C350.511 124.104 350.493 124.549 350.378 125.168C348.864 131.616 347.35 138.064 345.701 144.55C345.393 145.518 345.588 146.195 346.403 146.987C351.251 151.601 356.003 156.389 360.716 161.042C361.104 161.37 361.357 161.738 361.783 162.201C360.971 162.435 360.815 161.894 360.466 161.701C356.685 158.246 353 154.616 349.179 151.025C347.977 149.905 346.639 148.825 345.533 147.531C344.893 146.836 344.273 146.721 343.326 146.994C336.963 148.827 330.426 150.565 324.064 152.398C323.522 152.554 323.116 152.671 322.536 152.692C322.786 152.033 323.231 152.052 323.772 151.896C330.096 149.927 336.459 148.093 342.821 146.26C344.039 145.909 344.464 145.346 344.868 144.204C346.517 137.717 348.206 131.366 349.759 125.054C349.912 124.57 350.066 124.085 350.22 123.601C350.491 123.523 350.665 123.62 350.665 123.62Z" fill="url(#paint24_linear_5137_22974)"/>
<path fill-rule="evenodd" clip-rule="evenodd" d="M295.908 160.513C295.366 160.669 294.96 160.786 294.419 160.942C288.056 162.775 281.868 164.705 275.505 166.539C274.422 166.851 273.824 167.317 273.594 168.556C271.945 175.043 270.295 181.529 268.51 188.055C268.357 188.539 268.164 188.888 268.088 189.643C267.719 188.869 268.008 188.346 268.026 187.901C269.54 181.453 271.054 175.006 272.568 168.558C272.933 167.28 272.564 166.507 271.749 165.715C267.036 161.062 262.323 156.409 257.61 151.756C257.222 151.428 256.97 151.061 256.543 150.598C257.394 150.499 257.686 151.001 257.938 151.369C262.36 155.519 266.781 159.67 271.203 163.82C271.804 164.38 272.405 164.94 273.007 165.5C273.433 165.963 273.918 166.117 274.594 165.922C275.948 165.532 277.302 165.142 278.656 164.751C283.935 163.23 289.254 161.844 294.533 160.322C294.939 160.205 295.346 160.088 295.791 160.107C295.83 160.242 295.869 160.377 295.908 160.513Z" fill="url(#paint25_linear_5137_22974)"/>
<path fill-rule="evenodd" clip-rule="evenodd" d="M238.565 176.744C244.092 182.189 249.446 187.537 255.109 192.942C254.297 193.177 254.005 192.674 253.792 192.442C249.37 188.292 245.123 184.238 240.701 180.087C240.061 179.392 239.324 178.871 238.684 178.176C238.083 177.616 237.463 177.501 236.787 177.696C232.861 178.828 228.8 179.998 224.835 180.994C222.398 181.696 219.826 182.437 217.215 183.043C216.809 183.16 216.267 183.316 215.551 183.376C216.072 182.64 216.653 182.619 217.059 182.502C223.382 180.533 229.745 178.699 236.107 176.866C237.326 176.515 237.75 175.952 238.154 174.81C239.803 168.323 241.492 161.972 243.18 155.621C243.334 155.137 243.488 154.652 243.642 154.168C243.816 154.265 243.951 154.226 243.951 154.226L243.99 154.361C244.029 154.496 244.029 154.496 243.933 154.671C241.976 162.126 240.251 169.367 238.565 176.744Z" fill="url(#paint26_linear_5137_22974)"/>
<path fill-rule="evenodd" clip-rule="evenodd" d="M150.004 181.3C150.584 181.279 150.876 181.782 151.264 182.11C156.073 186.589 160.921 191.203 165.731 195.681C166.72 196.569 167.378 196.819 168.732 196.429C175.095 194.595 181.361 192.936 187.723 191.103C188.13 190.986 188.671 190.83 189.213 190.674C189.137 191.428 188.517 191.314 188.247 191.392C185.404 192.211 182.735 193.127 179.892 193.946C176.237 194.999 172.486 196.227 168.792 197.145C167.709 197.457 167.245 197.884 166.977 198.987C165.327 205.474 163.639 211.825 161.99 218.312C161.836 218.796 161.682 219.28 161.432 219.939C160.792 219.244 161.255 218.817 161.274 218.372C162.788 211.924 164.302 205.476 165.816 199.029C165.931 198.409 166.084 197.925 166.199 197.306C160.807 191.822 155.453 186.474 149.965 181.165C149.907 181.474 149.907 181.474 150.004 181.3Z" fill="url(#paint27_linear_5137_22974)"/>
<path fill-rule="evenodd" clip-rule="evenodd" d="M-5.74769 92.6175C-5.9174 94.5724 -6.43588 96.3346 -6.91535 98.2321C-7.39482 100.13 -7.73892 101.988 -8.21839 103.886C-8.69785 105.783 -9.08096 107.507 -9.56043 109.404C-10.0399 111.302 -10.384 113.16 -10.8635 115.058C-5.47117 120.541 0.0174798 125.851 5.37076 131.199C5.37076 131.199 5.37076 131.199 5.2744 131.373C4.6939 131.394 4.57685 130.988 4.18907 130.66C-0.193584 126.645 -4.47987 122.455 -8.72715 118.401C-9.36734 117.706 -10.1039 117.185 -10.7441 116.49C-11.3843 115.794 -11.9648 115.815 -12.777 116.049C-18.8688 117.805 -24.9997 119.425 -31.0915 121.18C-31.9037 121.414 -32.8513 121.688 -33.7026 121.786C-33.7416 121.651 -33.7806 121.516 -33.8196 121.38C-33.4135 121.263 -32.872 121.107 -32.4659 120.99C-26.1423 119.021 -19.7798 117.188 -13.4172 115.354C-12.3342 115.042 -11.7744 114.441 -11.506 113.337C-9.85653 106.85 -8.16805 100.499 -6.51858 94.0126C-6.36487 93.5284 -6.38555 92.9479 -5.74769 92.6175Z" fill="url(#paint28_linear_5137_22974)"/>
<path fill-rule="evenodd" clip-rule="evenodd" d="M73.1238 90.5608C73.6652 90.4048 74.0714 90.2877 74.6129 90.1317C80.9754 88.2981 87.299 86.3292 93.6615 84.4956C94.7445 84.1835 95.169 83.6213 95.4764 82.653C97.1258 76.1664 98.8143 69.8152 100.464 63.3286C100.617 62.8445 100.771 62.3603 100.925 61.8762C101.099 61.9725 101.235 61.9335 101.235 61.9335L101.274 62.0689C101.313 62.2043 101.313 62.2043 101.216 62.3786C99.4912 69.6201 97.8051 76.997 96.0799 84.2385C101.569 89.5477 106.961 95.0313 112.489 100.476C111.676 100.71 111.385 100.208 111.171 99.9758C106.75 95.8252 102.503 91.771 98.0808 87.6205C97.4407 86.9253 96.7041 86.4045 96.0639 85.7093C95.4627 85.1494 94.8432 85.0347 94.1663 85.2298C90.2405 86.3612 86.3147 87.4925 82.3498 88.4885C79.7777 89.2297 77.2056 89.9709 74.5945 90.5768C74.1884 90.6938 73.6469 90.8499 73.2018 90.8316C73.2018 90.8316 73.1628 90.6962 73.1238 90.5608Z" fill="url(#paint29_linear_5137_22974)"/>
<path fill-rule="evenodd" clip-rule="evenodd" d="M114.56 57.8004C114.948 58.1285 115.335 58.4566 115.723 58.7847C120.572 63.3987 125.381 67.8773 130.23 72.4914C131.044 73.2829 131.664 73.3976 132.747 73.0855C139.109 71.252 145.511 69.5538 151.873 67.7202C152.415 67.5642 152.821 67.4471 153.362 67.2911C153.401 67.4264 153.44 67.5618 153.479 67.6972C153.073 67.8142 152.571 68.1056 152.165 68.2227C145.938 70.0172 139.885 71.9082 133.658 73.7027C133.387 73.7807 133.251 73.8198 132.981 73.8978C131.994 74.0355 131.434 74.6367 131.301 75.7013C129.652 82.1879 128.002 88.6745 126.217 95.2001C126.064 95.6843 125.91 96.1684 125.582 96.5562C125.155 96.0927 125.444 95.5696 125.598 95.0854C127.112 88.6379 128.626 82.1903 130.14 75.7427C130.505 74.4646 130.136 73.6914 129.321 72.8998C124.608 68.2468 119.895 63.5938 115.182 58.9407C114.794 58.6126 114.541 58.2455 114.289 57.8784C114.328 58.0138 114.463 57.9748 114.56 57.8004Z" fill="url(#paint30_linear_5137_22974)"/>
<path fill-rule="evenodd" clip-rule="evenodd" d="M180.07 59.7411C180.611 59.5851 181.017 59.4681 181.559 59.312C187.921 57.4784 194.245 55.5095 200.607 53.6759C201.69 53.3638 202.154 52.937 202.422 51.8334C204.072 45.3468 205.76 38.9955 207.41 32.5089C207.563 32.0248 207.717 31.5407 207.967 30.8821C208.472 31.6163 208.183 32.1395 208.029 32.6236C206.515 39.0712 204.962 45.3835 203.448 51.831C203.487 51.9664 203.391 52.1408 203.294 52.3152C202.851 53.3225 203.182 53.9603 203.996 54.7519C208.845 59.3659 213.597 64.1543 218.31 68.8074C218.698 69.1355 218.95 69.5026 219.377 69.966C218.565 70.2001 218.409 69.6586 218.06 69.4659C214.239 65.8752 210.593 62.3808 206.773 58.7901C205.571 57.6704 204.233 56.5898 203.127 55.2957C202.487 54.6005 201.867 54.4858 200.919 54.7589C194.557 56.5925 188.02 58.3297 181.657 60.1633C181.116 60.3193 180.71 60.4363 180.168 60.5924C180.187 60.1473 180.109 59.8765 180.07 59.7411Z" fill="url(#paint31_linear_5137_22974)"/>
<path fill-rule="evenodd" clip-rule="evenodd" d="M260.328 37.052C259.922 37.1691 259.42 37.4605 259.013 37.5775C252.651 39.4111 246.327 41.38 239.965 43.2136C238.882 43.5257 238.322 44.1269 238.054 45.2305C236.404 51.7171 234.755 58.2037 232.97 64.7293C232.816 65.2135 232.933 65.6196 232.295 65.9501C232.447 64.4403 232.772 63.0268 233.195 61.439C233.481 59.8902 233.942 58.4378 234.229 56.889C234.555 55.4756 234.881 54.0622 235.303 52.4744C235.59 50.9256 236.051 49.4731 236.337 47.9243C236.624 46.3755 237.085 44.9231 237.372 43.3743C231.98 37.8907 226.53 32.7169 220.789 27.0405C221.815 27.0382 222.106 27.5407 222.32 27.7724C226.14 31.3631 229.96 34.9538 233.781 38.5446C234.809 39.5679 235.933 40.4168 237 41.5754C237.815 42.367 238.57 42.4427 239.517 42.1696C245.88 40.3361 252.281 38.6379 258.644 36.8043C259.186 36.6482 259.592 36.5312 260.133 36.3752C260.25 36.7813 260.289 36.9166 260.328 37.052Z" fill="url(#paint32_linear_5137_22974)"/>
<path fill-rule="evenodd" clip-rule="evenodd" d="M315.183 -0.0157255C315.11 1.7648 314.513 3.25625 314.188 4.66967C313.901 6.21847 313.44 7.67091 313.153 9.2197C312.827 10.6331 312.54 12.1819 312.079 13.6344C311.793 15.1831 311.331 16.6356 311.045 18.1844C310.758 19.7332 310.297 21.1856 310.01 22.7344C312.842 25.4372 315.538 28.179 318.234 30.9208C320.891 33.5272 323.587 36.269 326.458 39.1072C325.471 39.2449 325.315 38.7034 324.966 38.5107C320.118 33.8967 315.308 29.418 310.46 24.804C309.471 23.9161 308.677 23.705 307.459 24.0561C301.231 25.8507 294.83 27.5489 288.603 29.3434C288.061 29.4995 287.655 29.6165 287.075 29.6372C287.036 29.5018 286.997 29.3665 286.958 29.2311C287.364 29.114 287.905 28.958 288.272 28.7056C294.596 26.7366 300.958 24.9031 307.321 23.0695C308.404 22.7574 308.964 22.1562 309.232 21.0526C310.882 14.566 312.531 8.07936 314.22 1.72813C314.47 1.0696 314.449 0.489094 315.183 -0.0157255Z" fill="url(#paint33_linear_5137_22974)"/>
<path fill-rule="evenodd" clip-rule="evenodd" d="M18.3664 127.454C20.188 120.038 21.8741 112.661 23.6956 105.245C18.3033 99.7619 12.8147 94.4526 7.42238 88.969C7.42238 88.969 7.42239 88.969 7.61511 88.6203C8.00289 88.9484 8.39067 89.2765 8.77846 89.6046C13.6269 94.2186 18.4364 98.6972 23.2848 103.311C24.0994 104.103 24.8933 104.314 25.9763 104.002C32.3388 102.168 38.605 100.509 44.9676 98.6754C45.5091 98.5194 45.9152 98.4024 46.5921 98.2073C46.5164 98.9622 45.9359 98.9829 45.6651 99.0609C41.7393 100.192 37.8525 101.459 34.062 102.551C31.3546 103.332 28.8215 104.208 26.075 104.853C25.1274 105.126 24.6639 105.553 24.3565 106.521C22.707 113.008 21.0576 119.494 19.2727 126.02C19.119 126.504 18.9653 126.988 18.8116 127.472C18.6762 127.511 18.5018 127.415 18.3664 127.454Z" fill="url(#paint34_linear_5137_22974)"/>
<path fill-rule="evenodd" clip-rule="evenodd" d="M28.8224 37.0573C28.4163 37.1743 27.8748 37.3304 27.4687 37.4474C21.0097 39.4554 14.6472 41.2889 8.18827 43.2969C7.24066 43.57 6.68083 44.1711 6.50878 45.1004C4.85931 51.587 3.17083 57.9382 1.52137 64.4248C1.36766 64.909 1.21395 65.3931 0.963873 66.0517C0.32368 65.3565 0.787151 64.9297 0.805489 64.4845C2.10852 58.8308 3.50791 53.0028 4.81095 47.3491C4.98299 46.4198 5.15504 45.4905 5.50148 44.6576C5.84791 43.8247 5.51748 43.1869 4.9163 42.627C1.87138 39.6925 -1.17354 36.758 -4.25747 33.6881C-6.10002 31.8732 -7.98159 29.923 -9.95952 28.1471C-10.1729 27.9154 -10.4253 27.5483 -10.6777 27.1812C-9.82648 27.0825 -9.67044 27.6239 -9.32166 27.8167C-4.4732 32.4307 0.336247 36.9093 5.18471 41.5234C6.0383 42.4503 6.8322 42.6614 8.05056 42.3102C14.4131 40.4767 20.6793 38.8175 27.0419 36.9839C27.5834 36.8279 27.9895 36.7108 28.531 36.5548C28.7054 36.6512 28.7444 36.7865 28.8224 37.0573Z" fill="url(#paint35_linear_5137_22974)"/>
<path fill-rule="evenodd" clip-rule="evenodd" d="M107.521 34.9042C107.675 34.4201 107.693 33.975 107.847 33.4908C109.361 27.0432 110.875 20.5956 112.525 14.109C112.793 13.0054 112.598 12.3285 111.784 11.5369C106.935 6.92292 102.222 2.26988 97.5089 -2.38315C97.1212 -2.71125 96.8688 -3.07835 96.2676 -3.63818C97.1188 -3.73688 97.4103 -3.2344 97.6627 -2.8673C102.511 1.74673 107.321 6.22538 112.169 10.8394C113.023 11.7663 113.817 11.9774 115.035 11.6263C121.397 9.79271 127.664 8.13353 134.026 6.29996C134.568 6.14391 134.974 6.02687 135.554 6.0062C135.44 6.62572 134.859 6.6464 134.453 6.76343C128.129 8.73237 121.632 10.605 115.269 12.4385C114.051 12.7896 113.491 13.3908 113.261 14.6298C111.708 20.9421 110.02 27.2933 108.331 33.6445C108.178 34.1287 108.024 34.6128 107.87 35.097C107.831 34.9616 107.696 35.0006 107.521 34.9042Z" fill="url(#paint36_linear_5137_22974)"/>
<path fill-rule="evenodd" clip-rule="evenodd" d="M162.319 -1.85363C162.861 -2.00968 163.267 -2.12672 163.808 -2.28277C170.132 -4.25171 176.494 -6.08528 182.857 -7.91885C183.94 -8.23094 184.5 -8.83213 184.768 -9.93579C186.417 -16.4224 188.106 -22.7736 189.755 -29.2602C189.909 -29.7444 190.063 -30.2285 190.217 -30.7127C190.818 -30.1528 190.49 -29.765 190.336 -29.2809C189.109 -24.3821 188.056 -19.3869 186.828 -14.4881C186.406 -12.9003 186.158 -11.2162 185.601 -9.58935C185.333 -8.48569 185.528 -7.80882 186.342 -7.01726C191.191 -2.40324 195.904 2.24979 200.617 6.90283C201.005 7.23092 201.257 7.59803 201.858 8.15786C200.833 8.1602 200.676 7.61871 200.328 7.42599C195.693 3.0437 190.883 -1.43495 186.248 -5.81724C184.27 -7.59309 185.064 -7.38203 182.627 -6.67981C176.226 -4.98161 169.999 -3.18706 163.597 -1.48886C163.191 -1.37183 162.92 -1.2938 162.475 -1.31214C162.358 -1.71826 162.358 -1.71826 162.319 -1.85363Z" fill="url(#paint37_linear_5137_22974)"/>
<path fill-rule="evenodd" clip-rule="evenodd" d="M242.674 -24.7173C242.268 -24.6002 241.901 -24.3478 241.359 -24.1918C235.036 -22.2228 228.538 -20.3502 222.04 -18.4777C220.957 -18.1656 220.532 -17.6034 220.264 -16.4997C218.615 -10.0131 216.926 -3.6619 215.277 2.8247C215.123 3.30885 214.969 3.79299 214.815 4.27713C214.68 4.31615 214.506 4.21979 214.37 4.2588C214.524 3.77465 214.542 3.32952 214.696 2.84538C216.21 -3.60222 217.724 -10.0498 219.238 -16.4974C219.507 -17.601 219.408 -18.4523 218.458 -19.2049C213.61 -23.8189 208.897 -28.4719 204.184 -33.1249C203.796 -33.453 203.273 -33.7421 203.348 -34.497C203.91 -34.0726 204.124 -33.8408 204.512 -33.5127C209.36 -28.8987 214.344 -24.3237 219.192 -19.7097C220.007 -18.9181 220.626 -18.8034 221.709 -19.1155C228.072 -20.9491 234.609 -22.6863 240.972 -24.5199C241.378 -24.6369 241.919 -24.793 242.364 -24.7746C242.635 -24.8526 242.674 -24.7173 242.674 -24.7173Z" fill="url(#paint38_linear_5137_22974)"/>
<path fill-rule="evenodd" clip-rule="evenodd" d="M94.875 38.8421C93.8493 38.8444 93.5579 38.3419 93.3055 37.9748C88.4961 33.4961 83.6476 28.8821 78.8382 24.4035C77.8492 23.5156 77.1907 23.2655 75.8369 23.6556C69.4744 25.4892 62.9374 27.2264 56.5749 29.06C56.1688 29.177 55.7627 29.294 55.1821 29.3147C55.703 28.5781 56.1481 28.5965 56.6896 28.4404C63.0131 26.4715 69.2403 24.6769 75.6029 22.8434C76.8212 22.4923 77.5164 21.8521 77.7458 20.613C79.2599 14.1654 81.0838 7.7752 82.6369 1.46298C82.7906 0.978834 82.9833 0.630059 83.098 0.0105409C83.5638 0.609384 83.4101 1.09353 83.2174 1.4423C81.7033 7.88989 80.1892 14.3375 78.6751 20.7851C78.5787 20.9595 78.5214 21.2692 78.425 21.4436C78.0786 22.2765 78.409 22.9144 79.0102 23.4742C83.8977 28.2236 88.6108 32.8766 93.4982 37.626C94.0214 37.9151 94.2738 38.2822 94.875 38.8421Z" fill="url(#paint39_linear_5137_22974)"/>
<path fill-rule="evenodd" clip-rule="evenodd" d="M12.1771 154.309C12.1588 154.754 12.0051 155.238 11.9867 155.683C10.4726 162.131 8.95854 168.579 7.44445 175.026C7.07967 176.304 7.31375 177.117 8.30271 178.004C13.1512 182.618 17.7289 187.311 22.403 191.828C22.7907 192.156 23.0432 192.523 23.4699 192.987C22.6577 193.221 22.5017 192.679 22.1139 192.351C17.3044 187.873 12.6304 183.355 7.85992 179.012C5.88199 177.236 6.67589 177.447 4.23917 178.149C-2.1624 179.847 -8.38957 181.642 -14.7911 183.34C-15.1973 183.457 -15.468 183.535 -16.0485 183.556C-15.7984 182.897 -15.2179 182.877 -14.6764 182.721C-9.12613 181.121 -3.61483 179.386 1.93549 177.787C2.8831 177.514 3.7917 177.105 4.77833 176.968C5.72594 176.694 6.05404 176.307 6.36146 175.338C7.64615 170.13 8.96986 165.057 10.2936 159.983C10.7157 158.396 11.1378 156.808 11.5599 155.22C11.6173 154.91 11.849 154.697 11.9064 154.387C11.8674 154.252 12.0417 154.348 12.1771 154.309Z" fill="url(#paint40_linear_5137_22974)"/>
<path fill-rule="evenodd" clip-rule="evenodd" d="M36.1542 189.185C36.1726 188.739 36.3263 188.255 36.3446 187.81C37.8587 181.363 39.3728 174.915 41.0222 168.428C41.2516 167.189 41.0566 166.512 40.242 165.721C35.3935 161.107 30.6805 156.454 25.9674 151.801C25.5796 151.473 25.3272 151.106 24.9004 150.642C25.7516 150.543 26.0431 151.046 26.2955 151.413C31.1439 156.027 35.9534 160.506 40.8018 165.12C41.7908 166.008 42.4493 166.258 43.6677 165.907C50.0302 164.073 56.2964 162.414 62.659 160.58C63.2005 160.424 63.6066 160.307 64.1871 160.286C64.0334 160.771 63.4919 160.927 63.0858 161.044C56.7622 163.013 50.2643 164.885 43.9018 166.719C42.6834 167.07 42.1236 167.671 41.8942 168.91C40.3411 175.222 38.6526 181.574 36.9641 187.925C36.8104 188.409 36.6567 188.893 36.503 189.377C36.464 189.242 36.2896 189.146 36.1542 189.185Z" fill="url(#paint41_linear_5137_22974)"/>
<path fill-rule="evenodd" clip-rule="evenodd" d="M130.453 162.303C129.427 162.305 129.271 161.763 128.884 161.435C124.074 156.957 119.226 152.343 114.416 147.864C113.427 146.976 112.769 146.726 111.415 147.116C105.053 148.95 98.5156 150.687 92.153 152.52C91.7469 152.637 91.3408 152.754 90.7603 152.775C91.1457 152.078 91.7262 152.057 92.2677 151.901C98.5913 149.932 104.818 148.137 111.181 146.304C112.399 145.953 113.095 145.313 113.324 144.073C114.838 137.626 116.662 131.236 118.215 124.923C118.369 124.439 118.561 124.091 118.676 123.471C119.181 124.205 118.853 124.593 118.835 125.038C117.281 131.35 115.903 137.759 114.35 144.071C114.253 144.246 114.196 144.555 114.1 144.73C113.657 145.737 114.123 146.336 114.763 147.031C119.611 151.645 124.363 156.433 129.076 161.086C129.561 161.24 129.852 161.743 130.453 162.303Z" fill="url(#paint42_linear_5137_22974)"/>
<path fill-rule="evenodd" clip-rule="evenodd" d="M171.307 129.563C170.901 129.68 170.359 129.836 169.953 129.953C163.494 131.961 157.131 133.795 150.634 135.667C149.686 135.94 149.222 136.367 148.915 137.335C147.266 143.822 145.616 150.308 143.831 156.834C143.678 157.318 143.524 157.802 143.274 158.461C142.808 157.862 143.097 157.339 143.115 156.894C144.4 151.685 145.646 146.341 146.795 141.172C147.121 139.758 147.311 138.384 147.811 137.067C148.119 136.099 147.827 135.596 147.187 134.901C144.142 131.966 141.058 128.896 137.974 125.827C136.132 124.012 134.289 122.197 132.486 120.517C132.272 120.286 132.02 119.918 131.768 119.551C131.903 119.512 131.864 119.377 131.999 119.338C132.387 119.666 132.736 119.859 132.988 120.226C137.837 124.84 142.646 129.319 147.495 133.933C148.484 134.821 149.277 135.032 150.496 134.68C156.858 132.847 163.125 131.188 169.487 129.354C170.029 129.198 170.435 129.081 170.976 128.925C171.229 129.292 171.268 129.428 171.307 129.563Z" fill="url(#paint43_linear_5137_22974)"/>
<path fill-rule="evenodd" clip-rule="evenodd" d="M236.819 131.504C236.431 131.176 236.043 130.848 235.655 130.519C230.846 126.041 225.997 121.427 221.323 116.909C220.509 116.118 219.715 115.906 218.496 116.258C211.999 118.13 205.597 119.828 199.099 121.701C198.693 121.818 198.287 121.935 197.977 121.878C197.938 121.742 197.899 121.607 197.899 121.607C198.305 121.49 198.808 121.198 199.214 121.081C205.537 119.112 211.9 117.279 218.262 115.445C219.481 115.094 219.905 114.532 220.309 113.389C221.958 106.903 223.647 100.552 225.296 94.065C225.45 93.5808 225.643 93.2321 225.758 92.6125C226.262 93.3468 225.973 93.8699 225.82 94.3541C224.42 100.182 223.117 105.836 221.718 111.664C221.507 112.458 221.431 113.213 221.085 114.046C220.777 115.014 221.069 115.516 221.709 116.212C225.607 120.073 229.506 123.935 233.54 127.757C234.568 128.78 235.596 129.804 236.624 130.827C236.837 131.059 236.915 131.329 237.128 131.561C236.954 131.465 236.954 131.465 236.819 131.504Z" fill="url(#paint44_linear_5137_22974)"/>
<path fill-rule="evenodd" clip-rule="evenodd" d="M239.158 88.7501C239.546 89.0782 239.895 89.271 240.147 89.6381C244.996 94.2521 249.979 98.8271 254.828 103.441C255.642 104.233 256.262 104.347 257.345 104.035C263.707 102.202 270.109 100.504 276.472 98.67C277.013 98.5139 277.419 98.3969 278.231 98.1628C277.885 98.9957 277.44 98.9774 277.034 99.0944C270.71 101.063 264.212 102.936 257.85 104.77C256.631 105.121 256.072 105.722 255.707 107C254.193 113.447 252.369 119.838 250.816 126.15C250.662 126.634 250.508 127.118 250.355 127.602C250.219 127.641 250.045 127.545 249.909 127.584C250.063 127.1 250.081 126.655 250.235 126.171C251.749 119.723 253.263 113.275 254.777 106.828C255.046 105.724 254.947 104.873 253.997 104.12C249.149 99.5063 244.436 94.8533 239.723 90.2003C239.335 89.8722 239.082 89.505 238.83 89.1379C239.062 88.9245 239.158 88.7501 239.158 88.7501Z" fill="url(#paint45_linear_5137_22974)"/>
<path fill-rule="evenodd" clip-rule="evenodd" d="M343.763 100.684C343.375 100.356 342.987 100.028 342.599 99.6997C337.79 95.221 333.155 90.8387 328.442 86.1857C327.414 85.1624 326.484 84.9904 325.131 85.3805C318.768 87.2141 312.367 88.9122 306.004 90.7458C305.598 90.8629 305.327 90.9409 304.747 90.9615C304.997 90.303 305.577 90.2824 306.119 90.1263C311.669 88.5268 317.18 86.7919 322.731 85.1924C323.678 84.9194 324.587 84.5109 325.573 84.3732C326.521 84.1001 326.849 83.7123 327.157 82.744C328.441 77.5355 329.765 72.4623 331.089 67.3891C331.511 65.8013 331.837 64.3879 332.259 62.8001C332.316 62.4903 332.509 62.1415 332.566 61.8318C332.702 61.7928 332.741 61.9282 332.876 61.8891C332.858 62.3343 332.704 62.8184 332.686 63.2635C331.171 69.7111 329.657 76.1587 328.143 82.6063C327.778 83.8844 328.013 84.6966 329.002 85.5845C333.85 90.1985 338.428 94.8906 343.102 99.4083C343.49 99.7363 343.742 100.103 343.994 100.471C343.994 100.471 343.898 100.645 343.763 100.684Z" fill="url(#paint46_linear_5137_22974)"/>
<path fill-rule="evenodd" clip-rule="evenodd" d="M10.7998 -24.4597C10.3937 -24.3426 9.85218 -24.1866 9.44606 -24.0695C3.0835 -22.236 -3.10467 -20.306 -9.46722 -18.4725C-10.5502 -18.1604 -11.149 -17.6946 -11.3784 -16.4555C-13.0279 -9.96893 -14.6774 -3.48233 -16.4622 3.04328C-16.6159 3.52743 -16.6733 3.83719 -17.0014 4.22497C-17.2171 2.9676 -16.717 1.65054 -16.4486 0.546875C-16.2192 -0.69216 -15.8544 -1.97021 -15.586 -3.07387C-15.2212 -4.35192 -14.9918 -5.59095 -14.627 -6.869C-14.3976 -8.10804 -14.0329 -9.38609 -13.7645 -10.4898C-13.3997 -11.7678 -13.1703 -13.0068 -12.8055 -14.2849C-12.5761 -15.5239 -12.1723 -16.6666 -11.943 -17.9056C-17.4316 -23.2149 -22.7849 -28.5631 -28.3516 -34.1431C-27.3649 -34.2808 -27.2089 -33.7393 -26.8601 -33.5466C-22.0507 -29.0679 -17.2022 -24.4539 -12.3928 -19.9752C-11.4038 -19.0873 -10.5709 -18.7409 -9.21715 -19.131C-2.85459 -20.9646 3.4116 -22.6238 9.77415 -24.4573C10.1803 -24.5744 10.5864 -24.6914 10.9925 -24.8084C10.8571 -24.7694 10.8962 -24.6341 10.7998 -24.4597Z" fill="url(#paint47_linear_5137_22974)"/>
</g>
</g>
</g>
<defs>
<linearGradient id="paint0_linear_5137_22974" x1="80.7335" y1="637.361" x2="459.809" y2="-48.6537" gradientUnits="userSpaceOnUse">
<stop stop-color="#18202B"/>
<stop offset="0.586" stop-color="#314057"/>
<stop offset="1" stop-color="#5A76A1"/>
</linearGradient>
<linearGradient id="paint1_linear_5137_22974" x1="63.2562" y1="627.72" x2="442.342" y2="-58.3139" gradientUnits="userSpaceOnUse">
<stop stop-color="#18202B"/>
<stop offset="0.586" stop-color="#314057"/>
<stop offset="1" stop-color="#5A76A1"/>
</linearGradient>
<linearGradient id="paint2_linear_5137_22974" x1="-215.909" y1="473.438" x2="163.163" y2="-212.569" gradientUnits="userSpaceOnUse">
<stop stop-color="#18202B"/>
<stop offset="0.586" stop-color="#314057"/>
<stop offset="1" stop-color="#5A76A1"/>
</linearGradient>
<linearGradient id="paint3_linear_5137_22974" x1="-67.3816" y1="555.515" x2="311.694" y2="-130.499" gradientUnits="userSpaceOnUse">
<stop stop-color="#18202B"/>
<stop offset="0.586" stop-color="#314057"/>
<stop offset="1" stop-color="#5A76A1"/>
</linearGradient>
<linearGradient id="paint4_linear_5137_22974" x1="-85.1471" y1="545.709" x2="293.934" y2="-140.316" gradientUnits="userSpaceOnUse">
<stop stop-color="#18202B"/>
<stop offset="0.586" stop-color="#314057"/>
<stop offset="1" stop-color="#5A76A1"/>
</linearGradient>
<linearGradient id="paint5_linear_5137_22974" x1="-154" y1="507.653" x2="225.076" y2="-178.364" gradientUnits="userSpaceOnUse">
<stop stop-color="#18202B"/>
<stop offset="0.586" stop-color="#314057"/>
<stop offset="1" stop-color="#5A76A1"/>
</linearGradient>
<linearGradient id="paint6_linear_5137_22974" x1="-205.334" y1="479.3" x2="173.754" y2="-206.738" gradientUnits="userSpaceOnUse">
<stop stop-color="#18202B"/>
<stop offset="0.586" stop-color="#314057"/>
<stop offset="1" stop-color="#5A76A1"/>
</linearGradient>
<linearGradient id="paint7_linear_5137_22974" x1="-16.2823" y1="583.761" x2="362.798" y2="-102.262" gradientUnits="userSpaceOnUse">
<stop stop-color="#18202B"/>
<stop offset="0.586" stop-color="#314057"/>
<stop offset="1" stop-color="#5A76A1"/>
</linearGradient>
<linearGradient id="paint8_linear_5137_22974" x1="1.3718" y1="593.495" x2="380.441" y2="-92.5088" gradientUnits="userSpaceOnUse">
<stop stop-color="#18202B"/>
<stop offset="0.586" stop-color="#314057"/>
<stop offset="1" stop-color="#5A76A1"/>
</linearGradient>
<linearGradient id="paint9_linear_5137_22974" x1="-136.264" y1="517.462" x2="242.818" y2="-168.566" gradientUnits="userSpaceOnUse">
<stop stop-color="#18202B"/>
<stop offset="0.586" stop-color="#314057"/>
<stop offset="1" stop-color="#5A76A1"/>
</linearGradient>
<linearGradient id="paint10_linear_5137_22974" x1="-164.568" y1="501.81" x2="214.504" y2="-184.199" gradientUnits="userSpaceOnUse">
<stop stop-color="#18202B"/>
<stop offset="0.586" stop-color="#314057"/>
<stop offset="1" stop-color="#5A76A1"/>
</linearGradient>
<linearGradient id="paint11_linear_5137_22974" x1="-233.403" y1="463.766" x2="145.664" y2="-222.233" gradientUnits="userSpaceOnUse">
<stop stop-color="#18202B"/>
<stop offset="0.586" stop-color="#314057"/>
<stop offset="1" stop-color="#5A76A1"/>
</linearGradient>
<linearGradient id="paint12_linear_5137_22974" x1="23.5778" y1="605.784" x2="402.657" y2="-80.2384" gradientUnits="userSpaceOnUse">
<stop stop-color="#18202B"/>
<stop offset="0.586" stop-color="#314057"/>
<stop offset="1" stop-color="#5A76A1"/>
</linearGradient>
<linearGradient id="paint13_linear_5137_22974" x1="41.1541" y1="615.478" x2="420.22" y2="-70.5198" gradientUnits="userSpaceOnUse">
<stop stop-color="#18202B"/>
<stop offset="0.586" stop-color="#314057"/>
<stop offset="1" stop-color="#5A76A1"/>
</linearGradient>
<linearGradient id="paint14_linear_5137_22974" x1="-45.3025" y1="567.718" x2="333.774" y2="-118.299" gradientUnits="userSpaceOnUse">
<stop stop-color="#18202B"/>
<stop offset="0.586" stop-color="#314057"/>
<stop offset="1" stop-color="#5A76A1"/>
</linearGradient>
<linearGradient id="paint15_linear_5137_22974" x1="-114.186" y1="529.637" x2="264.876" y2="-156.354" gradientUnits="userSpaceOnUse">
<stop stop-color="#18202B"/>
<stop offset="0.586" stop-color="#314057"/>
<stop offset="1" stop-color="#5A76A1"/>
</linearGradient>
<linearGradient id="paint16_linear_5137_22974" x1="-27.7019" y1="577.448" x2="351.379" y2="-108.576" gradientUnits="userSpaceOnUse">
<stop stop-color="#18202B"/>
<stop offset="0.586" stop-color="#314057"/>
<stop offset="1" stop-color="#5A76A1"/>
</linearGradient>
<linearGradient id="paint17_linear_5137_22974" x1="-96.6686" y1="539.322" x2="282.399" y2="-146.679" gradientUnits="userSpaceOnUse">
<stop stop-color="#18202B"/>
<stop offset="0.586" stop-color="#314057"/>
<stop offset="1" stop-color="#5A76A1"/>
</linearGradient>
<linearGradient id="paint18_linear_5137_22974" x1="-193.6" y1="485.779" x2="185.483" y2="-200.249" gradientUnits="userSpaceOnUse">
<stop stop-color="#18202B"/>
<stop offset="0.586" stop-color="#314057"/>
<stop offset="1" stop-color="#5A76A1"/>
</linearGradient>
<linearGradient id="paint19_linear_5137_22974" x1="-55.911" y1="561.848" x2="323.163" y2="-124.164" gradientUnits="userSpaceOnUse">
<stop stop-color="#18202B"/>
<stop offset="0.586" stop-color="#314057"/>
<stop offset="1" stop-color="#5A76A1"/>
</linearGradient>
<linearGradient id="paint20_linear_5137_22974" x1="-124.655" y1="523.852" x2="254.411" y2="-162.146" gradientUnits="userSpaceOnUse">
<stop stop-color="#18202B"/>
<stop offset="0.586" stop-color="#314057"/>
<stop offset="1" stop-color="#5A76A1"/>
</linearGradient>
<linearGradient id="paint21_linear_5137_22974" x1="-176.025" y1="495.48" x2="203.05" y2="-190.535" gradientUnits="userSpaceOnUse">
<stop stop-color="#18202B"/>
<stop offset="0.586" stop-color="#314057"/>
<stop offset="1" stop-color="#5A76A1"/>
</linearGradient>
<linearGradient id="paint22_linear_5137_22974" x1="-107.324" y1="533.47" x2="271.766" y2="-152.571" gradientUnits="userSpaceOnUse">
<stop stop-color="#18202B"/>
<stop offset="0.586" stop-color="#314057"/>
<stop offset="1" stop-color="#5A76A1"/>
</linearGradient>
<linearGradient id="paint23_linear_5137_22974" x1="-38.362" y1="571.542" x2="340.708" y2="-114.462" gradientUnits="userSpaceOnUse">
<stop stop-color="#18202B"/>
<stop offset="0.586" stop-color="#314057"/>
<stop offset="1" stop-color="#5A76A1"/>
</linearGradient>
<linearGradient id="paint24_linear_5137_22974" x1="77.9431" y1="635.83" x2="457.027" y2="-50.1994" gradientUnits="userSpaceOnUse">
<stop stop-color="#18202B"/>
<stop offset="0.586" stop-color="#314057"/>
<stop offset="1" stop-color="#5A76A1"/>
</linearGradient>
<linearGradient id="paint25_linear_5137_22974" x1="26.5733" y1="607.438" x2="405.652" y2="-78.5814" gradientUnits="userSpaceOnUse">
<stop stop-color="#18202B"/>
<stop offset="0.586" stop-color="#314057"/>
<stop offset="1" stop-color="#5A76A1"/>
</linearGradient>
<linearGradient id="paint26_linear_5137_22974" x1="9.02198" y1="597.723" x2="388.087" y2="-88.2739" gradientUnits="userSpaceOnUse">
<stop stop-color="#18202B"/>
<stop offset="0.586" stop-color="#314057"/>
<stop offset="1" stop-color="#5A76A1"/>
</linearGradient>
<linearGradient id="paint27_linear_5137_22974" x1="-42.2898" y1="569.383" x2="336.789" y2="-116.637" gradientUnits="userSpaceOnUse">
<stop stop-color="#18202B"/>
<stop offset="0.586" stop-color="#314057"/>
<stop offset="1" stop-color="#5A76A1"/>
</linearGradient>
<linearGradient id="paint28_linear_5137_22974" x1="-208.317" y1="477.642" x2="170.761" y2="-208.377" gradientUnits="userSpaceOnUse">
<stop stop-color="#18202B"/>
<stop offset="0.586" stop-color="#314057"/>
<stop offset="1" stop-color="#5A76A1"/>
</linearGradient>
<linearGradient id="paint29_linear_5137_22974" x1="-139.341" y1="515.726" x2="239.716" y2="-170.255" gradientUnits="userSpaceOnUse">
<stop stop-color="#18202B"/>
<stop offset="0.586" stop-color="#314057"/>
<stop offset="1" stop-color="#5A76A1"/>
</linearGradient>
<linearGradient id="paint30_linear_5137_22974" x1="-121.711" y1="525.506" x2="257.372" y2="-160.523" gradientUnits="userSpaceOnUse">
<stop stop-color="#18202B"/>
<stop offset="0.586" stop-color="#314057"/>
<stop offset="1" stop-color="#5A76A1"/>
</linearGradient>
<linearGradient id="paint31_linear_5137_22974" x1="-70.5084" y1="553.788" x2="308.568" y2="-132.227" gradientUnits="userSpaceOnUse">
<stop stop-color="#18202B"/>
<stop offset="0.586" stop-color="#314057"/>
<stop offset="1" stop-color="#5A76A1"/>
</linearGradient>
<linearGradient id="paint32_linear_5137_22974" x1="-52.956" y1="563.484" x2="326.118" y2="-122.528" gradientUnits="userSpaceOnUse">
<stop stop-color="#18202B"/>
<stop offset="0.586" stop-color="#314057"/>
<stop offset="1" stop-color="#5A76A1"/>
</linearGradient>
<linearGradient id="paint33_linear_5137_22974" x1="-1.55041" y1="591.875" x2="377.515" y2="-94.122" gradientUnits="userSpaceOnUse">
<stop stop-color="#18202B"/>
<stop offset="0.586" stop-color="#314057"/>
<stop offset="1" stop-color="#5A76A1"/>
</linearGradient>
<linearGradient id="paint34_linear_5137_22974" x1="-190.621" y1="487.39" x2="188.435" y2="-198.59" gradientUnits="userSpaceOnUse">
<stop stop-color="#18202B"/>
<stop offset="0.586" stop-color="#314057"/>
<stop offset="1" stop-color="#5A76A1"/>
</linearGradient>
<linearGradient id="paint35_linear_5137_22974" x1="-230.387" y1="465.46" x2="148.701" y2="-220.579" gradientUnits="userSpaceOnUse">
<stop stop-color="#18202B"/>
<stop offset="0.586" stop-color="#314057"/>
<stop offset="1" stop-color="#5A76A1"/>
</linearGradient>
<linearGradient id="paint36_linear_5137_22974" x1="-161.638" y1="503.437" x2="217.441" y2="-182.584" gradientUnits="userSpaceOnUse">
<stop stop-color="#18202B"/>
<stop offset="0.586" stop-color="#314057"/>
<stop offset="1" stop-color="#5A76A1"/>
</linearGradient>
<linearGradient id="paint37_linear_5137_22974" x1="-110.16" y1="531.854" x2="268.903" y2="-154.137" gradientUnits="userSpaceOnUse">
<stop stop-color="#18202B"/>
<stop offset="0.586" stop-color="#314057"/>
<stop offset="1" stop-color="#5A76A1"/>
</linearGradient>
<linearGradient id="paint38_linear_5137_22974" x1="-92.6012" y1="541.588" x2="286.476" y2="-144.43" gradientUnits="userSpaceOnUse">
<stop stop-color="#18202B"/>
<stop offset="0.586" stop-color="#314057"/>
<stop offset="1" stop-color="#5A76A1"/>
</linearGradient>
<linearGradient id="paint39_linear_5137_22974" x1="-178.989" y1="493.84" x2="200.085" y2="-192.172" gradientUnits="userSpaceOnUse">
<stop stop-color="#18202B"/>
<stop offset="0.586" stop-color="#314057"/>
<stop offset="1" stop-color="#5A76A1"/>
</linearGradient>
<linearGradient id="paint40_linear_5137_22974" x1="-168.453" y1="499.673" x2="210.629" y2="-186.354" gradientUnits="userSpaceOnUse">
<stop stop-color="#18202B"/>
<stop offset="0.586" stop-color="#314057"/>
<stop offset="1" stop-color="#5A76A1"/>
</linearGradient>
<linearGradient id="paint41_linear_5137_22974" x1="-151.038" y1="509.275" x2="228.026" y2="-176.719" gradientUnits="userSpaceOnUse">
<stop stop-color="#18202B"/>
<stop offset="0.586" stop-color="#314057"/>
<stop offset="1" stop-color="#5A76A1"/>
</linearGradient>
<linearGradient id="paint42_linear_5137_22974" x1="-99.5308" y1="537.749" x2="279.544" y2="-148.265" gradientUnits="userSpaceOnUse">
<stop stop-color="#18202B"/>
<stop offset="0.586" stop-color="#314057"/>
<stop offset="1" stop-color="#5A76A1"/>
</linearGradient>
<linearGradient id="paint43_linear_5137_22974" x1="-81.97" y1="547.456" x2="297.106" y2="-138.561" gradientUnits="userSpaceOnUse">
<stop stop-color="#18202B"/>
<stop offset="0.586" stop-color="#314057"/>
<stop offset="1" stop-color="#5A76A1"/>
</linearGradient>
<linearGradient id="paint44_linear_5137_22974" x1="-30.8263" y1="575.719" x2="348.253" y2="-110.302" gradientUnits="userSpaceOnUse">
<stop stop-color="#18202B"/>
<stop offset="0.586" stop-color="#314057"/>
<stop offset="1" stop-color="#5A76A1"/>
</linearGradient>
<linearGradient id="paint45_linear_5137_22974" x1="-13.1621" y1="585.471" x2="365.909" y2="-100.537" gradientUnits="userSpaceOnUse">
<stop stop-color="#18202B"/>
<stop offset="0.586" stop-color="#314057"/>
<stop offset="1" stop-color="#5A76A1"/>
</linearGradient>
<linearGradient id="paint46_linear_5137_22974" x1="38.1192" y1="613.797" x2="417.187" y2="-72.2036" gradientUnits="userSpaceOnUse">
<stop stop-color="#18202B"/>
<stop offset="0.586" stop-color="#314057"/>
<stop offset="1" stop-color="#5A76A1"/>
</linearGradient>
<linearGradient id="paint47_linear_5137_22974" x1="-270.125" y1="443.469" x2="108.94" y2="-242.527" gradientUnits="userSpaceOnUse">
<stop stop-color="#18202B"/>
<stop offset="0.586" stop-color="#314057"/>
<stop offset="1" stop-color="#5A76A1"/>
</linearGradient>
<clipPath id="clip0_5137_22974">
<rect width="320" height="172" rx="12" fill="white"/>
</clipPath>
</defs>
</svg>
