<svg width="69" height="69" viewBox="0 0 69 69" fill="none" xmlns="http://www.w3.org/2000/svg">
<g filter="url(#filter0_diii_3108_129061)">
<path d="M34 4C50.5685 4 64 17.4315 64 34C64 50.5685 50.5685 64 34 64C17.4315 64 4 50.5685 4 34C4 17.4315 17.4315 4 34 4ZM34 6C18.536 6 6 18.536 6 34C6 49.464 18.536 62 34 62C49.464 62 62 49.464 62 34C62 18.536 49.464 6 34 6ZM38.8242 52.3047C38.8804 52.3076 38.9065 52.3066 38.9521 52.3428C38.954 52.3954 38.9446 52.4021 38.915 52.4473C38.863 52.4497 38.8238 52.4555 38.7773 52.4277C38.7743 52.3704 38.7942 52.3528 38.8242 52.3047ZM42.625 51.9854C42.7492 51.9806 42.8844 51.9691 42.9961 52.0322L43.0049 52.0693C42.9618 52.1209 42.9088 52.1368 42.8477 52.1602C42.791 52.1708 42.7325 52.178 42.6748 52.1807C42.6073 52.1838 42.5272 52.1774 42.4756 52.1309L42.4775 52.0908C42.5169 52.0401 42.5695 52.0158 42.625 51.9854ZM34.5869 51.8506C34.7117 51.8697 34.921 51.919 34.9961 52.0234L34.9893 52.0635C34.8729 52.1506 34.6966 52.1385 34.5566 52.1455C34.4097 52.1607 34.2432 52.1555 34.0957 52.1426C34.0276 52.1366 33.953 52.1303 33.9062 52.0762C33.9069 52.0287 33.8997 52.0456 33.9258 52.0107C34.0128 51.8943 34.1858 51.8712 34.3213 51.8506C34.4083 51.8392 34.5 51.8372 34.5869 51.8506ZM27.0381 19.3135L27.3545 19.627C28.0805 20.323 28.7205 20.8088 29.2666 21.7998C29.3265 21.9085 29.3879 22.0236 29.4434 22.1406C29.491 22.2412 29.5327 22.344 29.5664 22.4463C29.5718 22.4628 29.5791 22.4786 29.584 22.4951C29.7083 22.7455 29.8165 23.0808 29.8398 23.3594L29.8711 23.3584L29.9053 23.2393L29.9932 22.9375C30.2277 22.2271 30.6683 21.501 31.3115 21.1172C31.7676 20.8451 32.2778 20.6778 32.7891 20.5361C32.8902 20.5081 32.9914 20.4793 33.0928 20.4512L33.3018 20.3926C33.4717 20.3405 33.6389 20.2807 33.7988 20.2021C34.0285 20.0894 34.2283 19.9325 34.4297 19.7783L34.4785 19.9482C34.5201 20.123 34.5413 20.3084 34.5645 20.4814C34.7042 21.5242 34.5714 22.4151 34.1025 23.3643C33.7749 24.0276 33.4138 24.4815 32.9873 24.8301C32.417 25.2962 31.7287 25.5732 30.8408 25.9043C30.6045 26.0046 30.3479 26.1127 30.1514 26.2803C29.7799 26.5975 29.4532 27.4892 29.2686 27.9473C29.0869 28.3979 28.9318 28.8588 28.748 29.3086H28.749C28.4372 30.2049 28.1585 31.1051 27.8711 32.0088C27.9495 31.917 28.0305 31.8015 28.1191 31.7217L28.3418 31.4492C28.9027 30.8104 29.7378 30.1683 30.416 29.7607C30.4783 29.5401 30.5406 29.3159 30.6406 29.1084C30.6448 29.089 30.6522 29.0699 30.6582 29.0498C30.8335 28.4676 31.7549 27.6352 32.2285 27.2588L32.292 27.2051L32.293 27.2031L32.2939 27.2021V27.2031C32.5434 26.991 32.7904 26.8113 33.0293 26.6289C33.1422 26.5427 33.2529 26.4558 33.3604 26.3633C33.6062 26.1515 33.836 25.9129 34.0361 25.5957L34.1807 25.3379C34.4121 26.0672 34.4573 27.1183 34.1582 27.8633L34.0938 28.0078C34.0058 28.3303 33.7885 28.6272 33.5713 28.8779C33.6923 28.8744 33.8139 28.8733 33.9355 28.876C34.7877 28.8947 35.6455 29.0734 36.3789 29.5146C37.047 29.8614 37.9461 30.6198 38.3018 31.2695V31.2705L38.3643 31.3467C38.4235 31.428 38.4736 31.5213 38.5205 31.6055L38.626 31.7842C38.7283 31.9756 38.8212 32.1707 38.917 32.3652C38.9475 32.4272 38.9935 32.4892 39.0186 32.5518L39.4375 33.0811C39.5749 33.2604 39.7116 33.4403 39.8496 33.6172C40.2804 34.1694 40.8022 34.8357 41.1348 35.4434C41.5302 36.1661 41.8085 37.0892 41.7266 37.9121C41.6794 38.3848 41.4296 38.8746 41.0527 39.1777C40.665 39.4896 40.2076 39.6013 39.7129 39.5479C39.2191 39.4933 38.7686 39.2452 38.4639 38.8604C38.0228 38.3122 37.9174 37.6224 38.0039 36.9443C38.138 35.8932 38.5607 34.8836 38.7588 33.8457C38.8279 33.4834 38.8346 33.1133 38.8535 32.7461C38.8575 32.7026 38.8597 32.6614 38.8594 32.6201C38.8597 32.6613 38.8575 32.7027 38.8535 32.7461C38.8486 32.6963 38.8501 32.6757 38.8242 32.6318H38.7783L38.6455 32.6924C38.5092 32.7478 38.3648 32.7902 38.2266 32.835C37.5414 33.0565 36.8427 33.2206 36.1162 33.2168C34.9646 33.2108 33.5076 32.713 32.6709 31.9209C32.317 31.5857 32.0335 31.1851 31.7021 30.8262L31.5566 30.6748L31.3652 30.5566C31.1765 30.4569 30.9906 30.4162 30.7441 30.459C30.3774 30.5228 30.0242 30.7343 29.7051 30.96C29.5862 31.044 29.4717 31.1298 29.3633 31.2109L29.3379 31.2383C29.1681 31.4221 28.9705 31.5822 28.7998 31.7656C28.3348 32.2653 27.9281 32.8458 27.5732 33.4248L27.5068 33.5537C27.2959 34.4921 27.0865 35.4535 26.9678 36.4072C26.919 36.8027 26.88 37.1993 26.8506 37.5967C26.8352 37.7942 26.8342 38.2091 26.7822 38.374L26.7266 39.0635C26.7105 39.2933 26.699 39.5239 26.6943 39.7539C26.691 39.9172 26.6941 40.0812 26.6963 40.2451C26.699 40.4522 26.6999 40.6594 26.6904 40.8652L26.6943 41.1475V41.1465L26.7451 41.0801C26.8873 40.5535 26.9691 40.0125 27.1152 39.4883C27.1178 39.4791 27.1214 39.4701 27.124 39.4609C27.3212 38.7695 27.6721 38.126 28.1592 37.6133C28.1646 37.6076 28.1704 37.6023 28.1758 37.5967C28.6348 37.1191 29.2116 36.7568 29.8955 36.582C30.0445 36.544 30.1961 36.5131 30.3486 36.4844C30.642 36.4292 30.9384 36.3806 31.2256 36.3027C31.2548 36.2948 31.2835 36.285 31.3125 36.2764C31.4431 36.2377 31.5723 36.1943 31.6973 36.1377C31.819 36.0825 31.9331 36.0045 32.0498 35.9395L32.0703 35.9688C32.0832 35.9971 32.0775 36.0263 32.0791 36.0654C32.1543 36.2641 32.2072 36.5559 32.2402 36.8691C32.2912 37.3526 32.2934 37.8873 32.249 38.21C32.2183 38.4408 32.1525 38.6663 32.0537 38.8779C31.9809 39.0327 31.8846 39.181 31.7686 39.3105C31.7112 39.3746 31.6499 39.4358 31.582 39.4883L31.5811 39.4873C31.576 39.4917 31.5715 39.4967 31.5664 39.501C31.3276 39.7021 31.0341 39.8157 30.7354 39.9004C29.3396 40.296 27.8551 39.925 27.0361 41.4004C26.9174 41.6142 26.7493 41.8777 26.7256 42.123C26.6974 42.4166 26.7437 42.7373 26.7686 43.0322C26.8423 43.9057 26.9399 44.8432 27.124 45.6992L27.7256 45.7451C28.3306 45.7992 28.9418 45.8792 29.5283 45.999C29.7742 46.0378 30.0149 46.0956 30.2568 46.1523C30.8214 46.3026 31.8515 46.5102 32.3242 46.7803C32.4162 46.7427 32.5038 46.7161 32.5928 46.6963C32.6819 46.6764 32.7729 46.6641 32.8721 46.6533L32.9033 46.5049C32.9432 46.3415 32.9958 46.1866 33.0947 46.0479C33.0989 46.042 33.1031 46.0361 33.1074 46.0303C33.3157 45.7502 33.5975 45.6218 33.9385 45.5684C33.9905 45.392 34.0798 45.2192 34.2002 45.0781C34.4093 44.8332 34.7724 44.6517 35.0967 44.6211C35.325 44.5738 35.5999 44.5989 35.8066 44.708V44.707C35.8751 44.724 35.9366 44.7511 36.001 44.7793C35.9977 44.6265 36.0445 44.4754 36.1143 44.3398C36.2367 44.1019 36.456 43.8696 36.7207 43.79C36.7966 43.7672 36.8673 43.7596 36.9355 43.7637C36.9813 43.7664 37.0251 43.7774 37.0693 43.79C37.1352 43.8088 37.2016 43.8343 37.2686 43.8701C37.3041 43.6253 37.3566 43.3808 37.5547 43.208C37.6699 43.1075 37.7972 43.0652 37.9375 43.0566C37.9845 43.0538 38.033 43.0548 38.083 43.0586L38.3545 43.1504C38.4862 42.9764 38.6414 42.8576 38.8643 42.8213C38.8981 42.8158 38.9323 42.8126 38.9658 42.8115C39.2 42.804 39.4231 42.9005 39.6094 43.0391C39.6797 43.0914 39.7446 43.1524 39.8086 43.2119C39.8439 42.9657 39.9408 42.7848 40.1475 42.6309C40.293 42.5225 40.4678 42.456 40.6494 42.4639C40.6756 42.465 40.7022 42.4674 40.7285 42.4717C40.9222 42.5033 41.0831 42.6114 41.1934 42.7695C41.3276 42.9622 41.3813 43.3806 41.4551 43.4385C41.4918 43.4214 41.5131 43.3996 41.541 43.3711C41.6652 43.2294 41.8306 43.1094 42.0186 43.0684L42.0996 43.0557H42.1006C42.2627 43.0413 42.4156 43.0938 42.5391 43.1963C42.6893 43.321 42.7545 43.4764 42.8096 43.6553L42.8701 43.6338L43.0215 43.5811L43.0234 43.5801H43.0215C43.1924 43.5451 43.3422 43.5247 43.5107 43.5898C43.7616 43.6759 44.0165 43.8309 44.1309 44.0771C44.1477 44.1134 44.1613 44.1513 44.1689 44.1904L44.2695 44.1768C44.3248 44.1698 44.3788 44.1656 44.4316 44.166C44.5897 44.1672 44.7373 44.2054 44.876 44.3057C45.0803 44.4534 45.2101 44.6985 45.2393 44.9434C45.2487 45.0231 45.2464 45.101 45.2422 45.1787C45.2379 45.2587 45.2315 45.3385 45.2324 45.4199C45.2603 45.3959 45.2877 45.3766 45.3164 45.3594L45.4082 45.3105C45.4871 45.2868 45.5549 45.2718 45.6377 45.2705C45.6951 45.2684 45.7517 45.267 45.8066 45.2686C45.9714 45.2732 46.1244 45.3048 46.2607 45.4248C46.4705 45.6095 46.5327 45.8992 46.585 46.1592C46.586 46.1646 46.5868 46.1704 46.5879 46.1758C46.8577 46.1864 47.0974 46.2698 47.2842 46.4688C47.4693 46.666 47.5497 46.9383 47.5918 47.1973C47.8364 47.1189 48.0951 47.0977 48.333 47.2139C48.5428 47.3163 48.6599 47.4868 48.7764 47.6768H48.7773L49.2236 47.7646C49.3662 47.7954 49.5074 47.831 49.6426 47.876L49.6621 47.8818L49.832 47.918C50.2312 48.0145 50.8063 48.2279 51.083 48.4824L51.1416 48.542L51.3057 48.7041C51.338 48.8422 51.3696 48.9747 51.3682 49.1172L51.3662 49.1162L51.3672 49.1172C51.3401 49.5179 51.2373 49.8612 50.9189 50.1328C50.2498 50.7036 48.5633 50.752 47.6777 50.7744C47.3522 50.7827 46.989 50.7532 46.6719 50.8262C46.6508 50.831 46.6312 50.8356 46.6133 50.8418C46.5592 50.8606 46.5179 50.8887 46.4785 50.9414L46.5156 50.959C46.5215 50.9587 46.5273 50.9578 46.5332 50.958L46.5859 50.9648C46.6342 50.9765 46.673 51.002 46.7109 51.04V51.041L46.7285 51.085C46.733 51.0992 46.7353 51.1142 46.7314 51.1318C46.7166 51.1997 46.6681 51.2348 46.6123 51.2715C46.3165 51.466 45.9217 51.5753 45.5732 51.6299C44.5666 51.7873 43.5384 51.7323 42.5244 51.7939C41.2061 51.8741 39.8969 52.0154 38.5752 52.0625C37.9121 52.0861 37.2463 52.099 36.585 52.0352C36.1721 51.9953 35.7212 51.9376 35.3232 51.8223C34.814 51.6746 34.3072 51.4163 33.7705 51.3926C33.2633 51.3702 32.7584 51.4607 32.2549 51.5068C31.4903 51.5768 30.711 51.6197 29.9434 51.6045C29.3993 51.5937 28.8379 51.5426 28.3047 51.4375C27.9413 51.3658 27.5848 51.2636 27.2236 51.1826C26.833 51.0987 26.4372 51.0381 26.0391 51.001C25.4091 50.9485 24.7767 50.9282 24.1445 50.9404C23.6972 50.9499 23.246 50.9812 22.7988 50.9707C22.2637 50.958 21.7283 50.871 21.1973 50.8096C20.5646 50.7364 19.9274 50.6775 19.2998 50.5674C19.0663 50.5264 18.2577 50.3972 18.1455 50.2051C18.1277 50.1745 18.1258 50.1516 18.1279 50.125C18.129 50.111 18.1303 50.0956 18.1338 50.0781C18.2596 49.9545 18.5242 49.8618 18.7432 49.7744L18.9404 49.6885C18.1484 49.5014 17.03 49.6972 16.2734 49.4141C16.1984 49.386 16.1564 49.362 16.1221 49.29C16.1251 49.2808 16.1306 49.2724 16.1357 49.2637C16.1875 49.1759 16.3369 49.1106 16.4248 49.0732C16.6145 48.9926 16.8257 48.9423 17.0234 48.8828C17.5472 48.7252 18.443 48.4698 18.8896 48.1914C18.6515 48.1623 18.1806 48.1897 18.0117 48.002C17.9949 47.9448 17.9942 47.9346 18.0088 47.877H18.0078L18.0088 47.876C18.3652 47.6041 19.1398 47.5989 19.5869 47.5205C19.8517 47.4715 20.1147 47.4109 20.374 47.3389C20.6321 47.2656 20.8546 47.118 21.0889 46.9941C21.3345 46.8642 21.5908 46.7436 21.8447 46.6299C23.174 46.0346 24.7063 45.7483 26.1621 45.7197L26.1074 45.4619C25.9921 44.8556 25.9581 44.218 25.9199 43.6084C25.8298 42.3074 25.8111 41.0021 25.8643 39.6992C25.8877 39.252 25.9169 38.805 25.9512 38.3584C25.9682 38.1157 26.0049 37.856 25.9863 37.6133C25.9665 37.3541 25.8529 37.1176 25.7148 36.8994C25.5949 36.7099 25.4458 36.526 25.248 36.4102C24.6813 36.0783 23.6071 36.134 22.9375 35.9795C22.9237 35.9763 22.9102 35.9721 22.8965 35.9688C21.9378 35.7343 21.1912 35.0937 20.6836 34.2803C19.8488 32.9424 19.6353 31.3386 19.8105 29.7988C19.8443 29.5025 19.8808 29.1983 19.9521 28.9082L20.252 29.1406C20.3544 29.2143 20.4591 29.285 20.5664 29.3535H20.5674C20.9739 29.5901 21.3841 29.8451 21.8145 30.0381C22.2052 30.2133 22.6275 30.3166 23.0186 30.4922C24.0571 30.9585 25.0295 31.8836 25.5225 32.8994C25.6091 33.061 25.7084 33.2285 25.7686 33.4023C25.7717 33.4115 25.7764 33.4205 25.7793 33.4297L25.749 33.4307L25.748 33.4297V33.4316L25.7793 33.4297C25.9397 33.715 26.0684 34.1101 26.1396 34.4277L26.1406 34.4287C26.2432 34.716 26.294 35.0251 26.3789 35.3184C26.4064 35.036 26.435 34.7397 26.499 34.4629C26.506 34.2156 26.6004 33.8139 26.6836 33.5771L26.6895 33.5537C26.7412 33.3077 26.7983 33.0567 26.8633 32.8096C26.9002 32.6689 26.9387 32.5293 26.9805 32.3926C27.0249 32.0818 27.1523 31.7515 27.2432 31.4492C27.3422 31.0215 27.5104 30.5935 27.665 30.1787C27.678 30.1439 27.6904 30.1088 27.7031 30.0742C27.9026 29.532 28.0988 28.9871 28.3203 28.4531C28.3336 28.421 28.3488 28.3894 28.3623 28.3574C28.5306 27.9599 28.7137 27.5704 28.8936 27.1777C28.9803 26.9883 29.0669 26.724 29.1895 26.54L29.2441 26.4668L29.207 26.2988C29.1156 25.9517 28.8291 25.7614 28.5303 25.5947L28.2344 25.4307C28.0406 25.3689 27.7607 25.1494 27.5996 25.0166V25.0176C27.4774 24.9499 27.3511 24.828 27.2539 24.7295C26.5623 24.0288 26.3156 23.0783 26.2754 22.1338L26.2705 21.7305C26.2746 21.59 26.2828 21.4459 26.3027 21.3066L26.3037 21.3018C26.3059 21.2695 26.3105 21.2374 26.3135 21.2051C26.3305 21.0213 26.3575 20.8371 26.3945 20.6543C26.4351 20.454 26.4841 20.255 26.5371 20.0605C26.559 19.7629 26.7347 19.35 26.8076 19.0391L27.0381 19.3135ZM26.5586 51.4404C26.779 51.4314 26.9973 51.4429 27.2139 51.4863C27.4968 51.5431 27.7319 51.6353 27.8975 51.8789C27.5175 51.9657 27.1446 52.0093 26.7559 52.0264C26.3899 52.0266 25.9775 52.0337 25.6279 51.9189C25.5454 51.8918 25.4621 51.8591 25.4229 51.7783C25.428 51.7416 25.4237 51.7301 25.4502 51.7012C25.6231 51.512 26.3141 51.4576 26.5586 51.4404ZM24.874 51.4717C24.9561 51.4786 25.0357 51.4934 25.0898 51.5566L25.0732 51.5957C25.0042 51.647 24.9231 51.6622 24.8408 51.6836C24.7655 51.7007 24.6754 51.7102 24.5977 51.7061C24.544 51.7031 24.4955 51.6945 24.458 51.6543L24.4629 51.6104C24.523 51.5387 24.6146 51.5106 24.6992 51.4736C24.7571 51.4708 24.8161 51.4668 24.874 51.4717ZM48.4951 51.4346C48.5951 51.4288 48.7685 51.4017 48.8496 51.4746C48.871 51.4939 48.8743 51.5007 48.8887 51.5225C48.8847 51.5722 48.8833 51.5882 48.8379 51.6201C48.7603 51.6746 48.6226 51.6581 48.5342 51.6455C48.4982 51.6362 48.4571 51.6267 48.4238 51.6104C48.3817 51.5894 48.3693 51.5673 48.3594 51.5244C48.4004 51.4653 48.429 51.4619 48.4951 51.4346ZM47.7461 51.1621C47.7761 51.1778 47.7982 51.182 47.8115 51.2168C47.8214 51.2427 47.8053 51.2823 47.791 51.3037C47.7697 51.3357 47.7197 51.347 47.666 51.3516L47.5156 51.3564C47.513 51.3636 47.5108 51.3709 47.5078 51.3779C47.464 51.4824 47.4034 51.5964 47.2861 51.6328C47.2379 51.6477 47.2053 51.6373 47.1621 51.6172C47.1399 51.5692 47.1374 51.5572 47.1562 51.5039C47.198 51.3863 47.3815 51.3258 47.4863 51.2793L47.5449 51.2324C47.6036 51.1897 47.6649 51.1613 47.7461 51.1621ZM23.4648 51.2637C23.5621 51.2688 23.6763 51.2808 23.7588 51.3359C23.7997 51.3633 23.8 51.3731 23.8105 51.418C23.8002 51.4439 23.7895 51.4655 23.7686 51.4854C23.6365 51.6109 23.4498 51.6072 23.2793 51.6094C23.1994 51.6036 23.0989 51.6046 23.0234 51.5791C22.9752 51.5627 22.9583 51.5472 22.9346 51.5039L22.9502 51.457C23.0908 51.3127 23.2726 51.2857 23.4648 51.2637ZM20.2539 51.1982C20.5483 51.09 20.9798 51.0797 21.2676 51.2129C21.3119 51.2334 21.3408 51.2554 21.374 51.29C21.3811 51.3202 21.3923 51.3327 21.375 51.3613C21.3246 51.4445 21.1994 51.4798 21.1084 51.4951C20.9229 51.5262 20.7426 51.5379 20.5547 51.5361L20.3906 51.5244C20.2993 51.5077 20.1284 51.4943 20.0654 51.4238C20.0455 51.4013 20.0531 51.3726 20.0527 51.3447C20.0931 51.2618 20.1689 51.2295 20.2539 51.1982ZM49.4629 50.8721C49.6705 50.8685 49.932 50.8704 50.1279 50.9443C50.1889 50.9674 50.2199 50.99 50.2451 51.0488C50.2387 51.0681 50.2348 51.0836 50.2217 51.1006C50.1007 51.256 49.6527 51.2856 49.4668 51.292C49.2465 51.276 48.8417 51.268 48.6807 51.1074C48.6767 51.079 48.6671 51.0681 48.6875 51.0439C48.8152 50.8936 49.2801 50.8809 49.4629 50.8721ZM17.7363 50.5117C17.8312 50.5062 17.9354 50.4987 18.0225 50.5439C18.0583 50.5626 18.0511 50.5629 18.0625 50.5977C18.0335 50.6572 17.9773 50.675 17.9199 50.7021C17.8387 50.7082 17.7508 50.7158 17.6738 50.6836C17.6311 50.6657 17.6303 50.6683 17.6123 50.624C17.6359 50.5657 17.6848 50.5435 17.7363 50.5117ZM17.2061 49.8887C17.3313 49.8875 17.5375 49.8986 17.626 49.9961C17.651 50.0237 17.6424 50.0165 17.6396 50.0576C17.5227 50.1792 17.2306 50.1931 17.0684 50.2129C16.8363 50.2264 16.5868 50.2557 16.3574 50.209C16.2948 50.1962 16.2289 50.1848 16.1934 50.1299L16.2148 50.0879C16.3853 49.9583 16.5927 49.9306 16.8008 49.9092C16.9342 49.8957 17.0718 49.8899 17.2061 49.8887ZM51.9512 49.376C52.0753 49.3727 52.1919 49.3688 52.2998 49.4395L52.3057 49.4736C52.2619 49.5184 52.2165 49.5293 52.1582 49.5469C52.0355 49.561 51.9214 49.5719 51.8086 49.5137L51.7969 49.4766C51.8384 49.4216 51.8898 49.4032 51.9512 49.376ZM17.2607 48.208C17.3664 48.2014 17.52 48.2204 17.5986 48.2979C17.621 48.3199 17.6128 48.3186 17.6104 48.3545C17.561 48.404 17.5044 48.411 17.4385 48.4258C17.3715 48.4338 17.3049 48.441 17.2373 48.4375C17.1613 48.4335 17.065 48.4244 17.0117 48.3662L17.0156 48.3232C17.0627 48.2658 17.1252 48.2454 17.1924 48.2158C17.2151 48.2122 17.2377 48.2095 17.2607 48.208ZM20.2324 47.0352C20.3056 47.0409 20.3806 47.0489 20.4385 47.0977C20.4668 47.1216 20.4578 47.1147 20.46 47.1562C20.4195 47.205 20.381 47.2132 20.3223 47.2295C20.2882 47.2316 20.2538 47.2327 20.2197 47.2334C20.1532 47.2343 20.1192 47.2258 20.0713 47.1807L20.0732 47.1416C20.1141 47.0846 20.1704 47.0642 20.2324 47.0352ZM26.2637 46.2861V46.2871H26.2646C26.2462 46.213 26.232 46.1367 26.2188 46.0605L26.2637 46.2861ZM48.0078 45.5908C48.0604 45.5728 48.1184 45.584 48.1602 45.6201C48.202 45.6562 48.2206 45.7112 48.209 45.7646C48.1973 45.818 48.1576 45.8608 48.1045 45.877C48.0243 45.9013 47.9384 45.8584 47.9121 45.7803C47.886 45.7022 47.9287 45.6181 48.0078 45.5908ZM49.7451 45.3174C49.769 45.3363 49.7926 45.3462 49.8008 45.377C49.8192 45.4461 49.7721 45.5199 49.7402 45.5791C49.7049 45.5774 49.6561 45.5786 49.623 45.5674C49.5665 45.5481 49.5594 45.5278 49.5342 45.4795C49.5353 45.4136 49.5521 45.3718 49.5801 45.3125C49.6378 45.3087 49.6875 45.3074 49.7451 45.3174ZM30.5859 44.3828C30.6094 44.4446 30.5794 44.5122 30.5625 44.5732C30.5296 44.5524 30.5171 44.5395 30.4932 44.5107C30.4814 44.4485 30.5136 44.406 30.543 44.3535L30.5859 44.3828ZM47.1748 43.5312C47.2811 43.6862 47.3816 43.8904 47.373 44.0391L47.3643 44.0967C47.3496 44.1535 47.3173 44.2069 47.2695 44.2422C47.2646 44.2458 47.2591 44.2487 47.2539 44.252L47.2119 44.2803C47.1827 44.2963 47.1514 44.3065 47.1182 44.3105L47.0664 44.3115L47.0088 44.3018C46.9585 44.2867 46.9242 44.2563 46.8818 44.2119C46.8694 44.1825 46.8567 44.152 46.8486 44.1211C46.7866 43.8829 46.932 43.6203 47.0498 43.4199L47.0703 43.3965L47.1748 43.5312ZM23.1338 43.2969C23.1637 43.3626 23.1168 43.4442 23.1045 43.5156C23.0941 43.5763 23.0852 43.6038 23.0479 43.6543C23.0162 43.6331 22.9965 43.6152 22.9736 43.585C22.9704 43.5157 22.9704 43.444 22.9912 43.377C23.0097 43.3174 23.0363 43.313 23.0879 43.2832L23.1338 43.2969ZM16.8281 42.9355C16.9059 42.9425 16.9824 42.9723 17.0303 43.0352C17.0673 43.0841 17.0812 43.1465 17.0684 43.2061C17.0495 43.294 16.9832 43.3573 16.9102 43.4053C16.8562 43.4072 16.7851 43.4166 16.7334 43.4004C16.6732 43.3814 16.6123 43.3087 16.5918 43.251C16.5712 43.1927 16.5727 43.1352 16.5996 43.0791C16.64 42.9952 16.7034 42.9604 16.79 42.9326C16.8026 42.9335 16.8156 42.9344 16.8281 42.9355ZM31.6055 42.9219C31.6647 42.9213 31.7406 42.9437 31.7783 42.9922C31.8144 43.0387 31.8006 43.0653 31.7881 43.1162C31.7226 43.1188 31.6802 43.1228 31.623 43.085C31.5834 43.0326 31.5816 42.9862 31.5752 42.9238C31.5853 42.9232 31.5954 42.922 31.6055 42.9219ZM47.8994 32.4541C47.9124 32.4933 47.9127 32.5095 47.9141 32.5498C47.9193 32.7101 47.9857 32.8903 47.9717 33.0459C47.973 33.0351 47.975 33.0237 47.9766 33.0127C47.9798 32.9896 47.9839 32.966 47.9941 32.9453C48.0178 32.8981 48.0754 32.8449 48.127 32.8291C48.1703 32.8158 48.2113 32.8262 48.249 32.8477C48.2533 32.8501 48.2585 32.8508 48.2627 32.8535C48.3131 32.8866 48.3191 32.9693 48.3301 33.0234C48.4329 33.5636 48.4268 34.1284 48.4385 34.6758C48.4856 36.7355 48.3383 38.7953 47.9971 40.8281C47.9322 41.2108 47.863 41.5978 47.7773 41.9766C47.7096 42.2757 47.6208 42.5738 47.5693 42.876C47.5635 42.8717 47.5577 42.8665 47.5518 42.8623C47.3846 42.7445 46.9569 42.6952 46.8633 42.5605C46.8649 42.2492 47.0153 41.8349 47.0889 41.5225C47.2139 40.9915 47.3306 40.4534 47.4385 39.9189C47.5486 39.3729 47.6188 38.8145 47.6914 38.2627C47.7533 37.7921 47.8213 37.3198 47.8594 36.8467C47.8805 36.5844 47.8795 36.3203 47.8975 36.0576C47.9507 35.2797 47.9863 34.5216 47.9707 33.7412C47.9648 33.4438 47.9632 33.1445 47.9297 32.8486C47.9226 32.7863 47.8689 32.4875 47.8994 32.4541ZM36.4561 41.5059C36.5576 41.5488 36.6287 41.7144 36.6709 41.8105C36.7653 42.026 36.8241 42.297 36.7275 42.5195C36.6796 42.6299 36.6093 42.6755 36.499 42.7188C36.458 42.7149 36.414 42.7111 36.376 42.6943C36.2853 42.6543 36.2109 42.5704 36.1826 42.4775C36.0779 42.1336 36.289 41.7924 36.4561 41.5059ZM28.71 41.0879C28.7611 41.0847 28.8137 41.0924 28.8633 41.1055C28.9646 41.1321 29.0574 41.2028 29.1045 41.2949C29.1535 41.3905 29.1602 41.5016 29.124 41.6025C29.0729 41.7481 28.9622 41.8354 28.8242 41.8975C28.6982 41.8304 28.4902 41.8107 28.4043 41.6885C28.3179 41.5649 28.3947 41.343 28.415 41.2021C28.5098 41.1487 28.6005 41.1017 28.71 41.0879ZM50.4336 41.2734C50.5405 41.2606 50.6761 41.232 50.7637 41.3125C50.8053 41.3508 50.8223 41.3875 50.8242 41.4434C50.8281 41.5666 50.7318 41.6624 50.6523 41.7451C50.5987 41.7536 50.528 41.7628 50.4766 41.7422C50.39 41.7074 50.3497 41.6031 50.3105 41.5264C50.3345 41.4186 50.3407 41.3425 50.4336 41.2734ZM22.9355 41.4473C22.9508 41.5034 22.9277 41.5266 22.9033 41.5781C22.8759 41.5687 22.8586 41.5534 22.8359 41.5361C22.8307 41.4831 22.8433 41.4725 22.8701 41.4248L22.9355 41.4473ZM42.0234 41.2139C42.0671 41.2131 42.1124 41.2199 42.1484 41.2471C42.1749 41.2671 42.1871 41.2918 42.1904 41.3232C42.1991 41.4072 42.1588 41.4501 42.1064 41.5088C42.0579 41.5114 42.015 41.5119 41.9775 41.4756C41.9419 41.441 41.931 41.4005 41.9346 41.3525C41.9395 41.2862 41.9763 41.2541 42.0234 41.2139ZM21.999 40.8848C22.0613 40.8914 22.126 40.9385 22.1621 40.9873C22.2138 41.0584 22.2338 41.1475 22.2178 41.2334C22.1985 41.3362 22.1524 41.4298 22.0635 41.4893C22.0137 41.4978 21.9579 41.5068 21.9072 41.499C21.8306 41.4871 21.7624 41.4356 21.7207 41.373C21.6675 41.293 21.6572 41.1976 21.6777 41.1055C21.7041 40.9872 21.7556 40.9493 21.8564 40.8877C21.9027 40.8833 21.9528 40.8799 21.999 40.8848ZM48.3428 41.0615C48.4019 41.0654 48.4475 41.0959 48.4834 41.1406C48.5185 41.1846 48.5333 41.2346 48.5244 41.29C48.5105 41.3761 48.4657 41.4299 48.3965 41.4805C48.3841 41.4826 48.3718 41.4857 48.3594 41.4873C48.3045 41.4945 48.2414 41.4926 48.1992 41.4531C48.1481 41.4054 48.1306 41.3294 48.1377 41.2627C48.1456 41.1885 48.165 41.1131 48.2266 41.0654C48.2649 41.0625 48.3043 41.059 48.3428 41.0615ZM43.2803 39.9346C43.4689 40.1092 43.6214 40.5199 43.6406 40.7695C43.6517 40.9141 43.6327 41.0836 43.5273 41.1943C43.4541 41.2713 43.3871 41.277 43.2852 41.2793C43.2051 41.2643 43.1361 41.2459 43.0654 41.2041C42.9583 41.1406 42.8863 41.05 42.8613 40.9287C42.7857 40.5609 43.0598 40.2052 43.2627 39.9219C43.2685 39.9262 43.275 39.9297 43.2803 39.9346ZM40.2627 40.9248C40.3022 40.9236 40.3327 40.9524 40.3604 40.9756C40.3738 41.002 40.3837 41.0246 40.3848 41.0547C40.3881 41.1537 40.3529 41.2 40.2842 41.2666C40.2066 41.2583 40.1719 41.2486 40.1152 41.1963C40.1037 41.1587 40.093 41.1401 40.1006 41.1006C40.1149 41.0261 40.1684 40.971 40.2305 40.9307C40.241 40.9289 40.252 40.9252 40.2627 40.9248ZM17.5537 40.9209C17.5985 40.9548 17.6025 40.9582 17.6201 41.0107C17.6085 41.0749 17.5968 41.1182 17.5615 41.1738C17.5326 41.1703 17.491 41.1687 17.4648 41.1562C17.4233 41.1365 17.3849 41.0968 17.3721 41.0527C17.3565 40.999 17.3734 40.9607 17.3975 40.9141C17.4517 40.9121 17.4996 40.9132 17.5537 40.9209ZM20.9668 39.2402C21.1027 39.2517 21.2309 39.2925 21.3184 39.4014C21.3756 39.4721 21.3995 39.5634 21.3838 39.6523C21.3571 39.806 21.2516 39.8887 21.1299 39.9727C21.0408 39.9875 20.9371 40.01 20.8496 39.9766C20.7283 39.93 20.6791 39.7643 20.6289 39.6562C20.6751 39.4862 20.7299 39.3561 20.8672 39.2383C20.9006 39.2374 20.9334 39.2374 20.9668 39.2402ZM23.8984 38.6689C24.0329 38.6591 24.2408 38.6699 24.3564 38.7402C24.484 38.8178 24.5021 38.9334 24.5303 39.0664C24.4626 39.2271 24.385 39.3487 24.2656 39.4775C24.1848 39.4956 24.102 39.5049 24.0195 39.4912C23.8469 39.4624 23.7618 39.346 23.668 39.2148C23.6563 39.1038 23.6592 39.0006 23.667 38.8896C23.7276 38.7867 23.7987 38.7341 23.8984 38.6689ZM44.3945 38.7686C44.4142 38.8007 44.4223 38.8123 44.418 38.8516C44.4045 38.9721 44.3351 39.0972 44.2383 39.1699C44.2141 39.1708 44.175 39.1751 44.1504 39.1689C44.1004 39.1562 44.0617 39.1251 44.0381 39.0801C44.0081 39.0224 44.0102 38.9563 44.0273 38.8955C44.0528 38.8055 44.1114 38.7654 44.1895 38.7188C44.2582 38.7337 44.3265 38.7505 44.3945 38.7686ZM49.1104 38.6826C49.1649 38.6849 49.2049 38.6794 49.249 38.7188C49.285 38.7509 49.3068 38.7925 49.3037 38.8408C49.3003 38.8941 49.2632 38.9154 49.2266 38.9482C49.1989 38.9454 49.16 38.944 49.1348 38.9336C49.0849 38.9131 49.0787 38.8922 49.0576 38.8477C49.0632 38.777 49.0741 38.7439 49.1104 38.6826ZM15.8867 37.8711C16.0089 37.8786 16.1057 37.9202 16.2119 37.9775C16.2259 38.0571 16.2478 38.1435 16.2305 38.2236C16.2055 38.3391 16.0975 38.3939 16.0039 38.4512C15.9515 38.4573 15.9079 38.4645 15.8574 38.4434C15.7836 38.4125 15.721 38.3414 15.6914 38.2695C15.6593 38.1913 15.6562 38.0946 15.6934 38.0176C15.7341 37.9338 15.7998 37.8977 15.8867 37.8711ZM23.0049 37.8223C23.0855 37.8201 23.1415 37.8162 23.2012 37.877C23.2489 37.9258 23.2686 37.9857 23.2646 38.0527C23.2305 38.0826 23.2239 38.0852 23.1787 38.0938C23.0844 38.0937 22.9768 38.1043 22.8994 38.042C22.8699 38.0182 22.8759 38.0033 22.8711 37.9688C22.8962 37.9037 22.9296 37.8709 22.9805 37.8232L23.0049 37.8223ZM46.8223 37.5859C46.8775 37.5921 46.9551 37.5931 47.0059 37.6152C47.0725 37.6443 47.1369 37.7134 47.1631 37.7803C47.1821 37.829 47.1766 37.88 47.1543 37.9268C47.1234 37.991 47.0644 38.0088 47.002 38.0342C46.9399 38.0345 46.8665 38.0403 46.8057 38.0273C46.7414 38.0135 46.6698 37.942 46.6406 37.8857C46.6142 37.8346 46.6184 37.7816 46.6377 37.7295C46.6708 37.6403 46.739 37.6219 46.8223 37.5859ZM36.7012 36.9785C36.7506 36.9957 36.755 37.02 36.7686 37.0635C36.7572 37.1308 36.729 37.1764 36.6934 37.2344C36.6862 37.2325 36.6789 37.2307 36.6719 37.2285C36.6087 37.2089 36.5837 37.1881 36.5547 37.1328C36.5595 37.0628 36.5921 37.0249 36.6328 36.9707C36.6513 36.9718 36.6842 36.9726 36.7012 36.9785ZM34.5859 36.7002C34.6343 36.7269 34.6383 36.7518 34.6504 36.7998C34.6373 36.872 34.6114 36.8996 34.5596 36.9512C34.554 36.9519 34.5485 36.9536 34.543 36.9531C34.4987 36.9492 34.4877 36.9362 34.46 36.9062C34.4427 36.8139 34.4664 36.7576 34.5156 36.6807C34.5374 36.6842 34.567 36.6898 34.5859 36.7002ZM18.9326 36.7119C18.9731 36.7578 18.9729 36.797 18.9775 36.8545C18.945 36.8513 18.9239 36.8439 18.8936 36.833C18.8517 36.7823 18.8528 36.7427 18.8496 36.6807C18.8784 36.6887 18.905 36.7006 18.9326 36.7119ZM19.6953 36.6777C19.7274 36.6623 19.766 36.6749 19.7822 36.7061C19.7985 36.7372 19.7864 36.7755 19.7549 36.792C19.734 36.8029 19.7084 36.8015 19.6885 36.7891C19.6688 36.7765 19.6579 36.7544 19.6592 36.7314C19.6605 36.7084 19.6742 36.6879 19.6953 36.6777ZM19.4121 36.4268C19.4026 36.4885 19.3884 36.5024 19.3506 36.5508L19.3066 36.4922C19.3117 36.4348 19.3365 36.4148 19.3711 36.3691C19.3897 36.3865 19.3993 36.405 19.4121 36.4268ZM19.2266 35.7705C19.2577 35.7566 19.2945 35.7687 19.3115 35.7979C19.3284 35.827 19.32 35.8636 19.292 35.8828C19.2715 35.8968 19.2447 35.8984 19.2227 35.8867C19.2007 35.875 19.1868 35.8525 19.1875 35.8281C19.1883 35.8036 19.2039 35.7809 19.2266 35.7705ZM20.6133 35.4141C20.6961 35.4211 20.782 35.422 20.8428 35.4854C20.8729 35.5168 20.8874 35.5555 20.8848 35.5977C20.879 35.6883 20.8192 35.7374 20.7529 35.793C20.7468 35.7932 20.7406 35.7938 20.7344 35.7939L20.7031 35.7949C20.657 35.7964 20.5934 35.8046 20.5508 35.7852C20.4973 35.7607 20.4396 35.6876 20.4268 35.6318C20.4156 35.5832 20.4304 35.5318 20.46 35.4922C20.5002 35.4384 20.5513 35.4276 20.6133 35.4141ZM18.748 35.585C18.7798 35.6008 18.7991 35.6341 18.7969 35.6689C18.7946 35.7038 18.7708 35.7342 18.7373 35.7461C18.6967 35.7603 18.6514 35.7437 18.6299 35.707C18.6084 35.67 18.6169 35.6228 18.6504 35.5957C18.6778 35.5735 18.7164 35.5691 18.748 35.585ZM51.7246 34.9033C51.8233 34.9237 51.9426 34.9564 52.0029 35.042C52.0384 35.0928 52.0531 35.1553 52.041 35.2158C52.0181 35.3305 51.9391 35.4065 51.8418 35.4648C51.8158 35.4671 51.7833 35.4717 51.7568 35.4688C51.6878 35.4611 51.6046 35.4202 51.5605 35.3662C51.5114 35.306 51.5052 35.2327 51.5176 35.1592C51.5397 35.0281 51.6197 34.9745 51.7246 34.9033ZM42.2676 35.0527C42.308 35.0493 42.3309 35.0581 42.3682 35.0732C42.3971 35.1152 42.407 35.1276 42.4043 35.1807C42.4009 35.2485 42.3597 35.2877 42.3096 35.3281L42.2275 35.3066C42.2062 35.2856 42.1837 35.2742 42.1797 35.2432C42.1701 35.1685 42.2232 35.1071 42.2676 35.0527ZM18.8857 34.4697C18.9322 34.4827 18.9724 34.5196 18.998 34.5586C19.0358 34.6159 19.0405 34.6828 19.0244 34.748C18.9938 34.8719 18.9286 34.9182 18.8232 34.9844C18.7338 34.9738 18.6483 34.9556 18.583 34.8896C18.5378 34.8439 18.5236 34.7906 18.5293 34.7285C18.5409 34.6038 18.6233 34.546 18.7158 34.4746C18.7662 34.4688 18.836 34.4559 18.8857 34.4697ZM36.7314 33.5664C36.7584 33.5516 36.7902 33.5757 36.8164 33.5859C36.9766 33.7606 37.1187 33.9644 37.1299 34.2051C37.1307 34.2234 37.1326 34.2419 37.1318 34.2607C37.1272 34.377 37.0826 34.4959 36.9922 34.5742C36.9779 34.5866 36.962 34.5975 36.9453 34.6074C36.8946 34.6375 36.8348 34.655 36.7764 34.6494L36.7051 34.6318C36.6823 34.6226 36.6609 34.61 36.6406 34.5957C36.6 34.5671 36.5645 34.5303 36.5361 34.4922L36.499 34.416C36.4554 34.337 36.4535 34.2529 36.4688 34.166C36.4928 34.0296 36.6057 33.6364 36.7314 33.5664ZM17.1973 34.0762C17.2723 34.101 17.3333 34.125 17.3711 34.1992C17.402 34.2602 17.3973 34.3169 17.373 34.3789C17.3434 34.4546 17.2813 34.474 17.2109 34.5029C17.1939 34.5009 17.1888 34.501 17.1699 34.4961C17.1045 34.4789 17.054 34.4552 17.0244 34.3906C17.0016 34.3408 17.0042 34.2918 17.0215 34.2412C17.0543 34.1454 17.1095 34.1185 17.1973 34.0762ZM29.4609 33.5664C29.5776 33.5588 29.69 33.5645 29.7822 33.6436C29.8321 33.6864 29.8626 33.7461 29.8623 33.8115C29.8618 33.9291 29.7913 34.0057 29.71 34.083C29.7 34.0836 29.6897 34.0836 29.6797 34.084C29.5692 34.0885 29.4561 34.0746 29.375 33.9941C29.3301 33.9496 29.3054 33.8921 29.3076 33.8291C29.3116 33.7145 29.3808 33.6415 29.4609 33.5664ZM18.0713 33.6387C18.1223 33.6682 18.1262 33.6729 18.1523 33.7256C18.1514 33.7807 18.1457 33.8037 18.1143 33.8496C18.0751 33.8366 18.0561 33.8209 18.0264 33.793C18.0201 33.7246 18.0413 33.6995 18.0713 33.6387ZM44.915 32.626C45.0067 32.6211 45.106 32.6198 45.1943 32.6475C45.2955 32.6792 45.3868 32.7554 45.4326 32.8496C45.4744 32.9356 45.4827 33.0395 45.4473 33.1289C45.3993 33.2497 45.2951 33.3293 45.1777 33.3799C45.0748 33.3842 44.9592 33.3921 44.8623 33.3516C44.7585 33.3081 44.677 33.229 44.6377 33.125C44.6022 33.0312 44.6014 32.9176 44.6504 32.8281C44.7135 32.7129 44.7912 32.6637 44.915 32.626ZM37.8057 33.2168C37.8332 33.2701 37.8301 33.2884 37.8281 33.3467C37.7757 33.3466 37.751 33.3471 37.708 33.3164C37.683 33.2649 37.698 33.2211 37.709 33.168C37.7449 33.1808 37.7731 33.1976 37.8057 33.2168ZM41.0527 32.6211C41.0975 32.628 41.1354 32.6563 41.1582 32.6943C41.1868 32.7422 41.1823 32.7929 41.167 32.8438C41.1384 32.9383 41.0933 32.968 41.0068 33.0137C40.9655 32.9984 40.9191 32.9839 40.8867 32.9531C40.8495 32.9177 40.8407 32.8741 40.8447 32.8252C40.8521 32.736 40.9197 32.672 40.9834 32.6162C41.0065 32.6168 41.0299 32.6176 41.0527 32.6211ZM47.2979 32.2852C47.4352 32.2812 47.5063 32.2768 47.6211 32.3633C47.6429 32.4096 47.6535 32.4218 47.6279 32.4717C47.6003 32.5255 47.5147 32.546 47.4609 32.5654L47.3721 32.5889C47.3242 32.5802 47.2698 32.5603 47.2344 32.5254C47.1942 32.4857 47.1898 32.4541 47.1885 32.4004C47.2131 32.3419 47.2474 32.3203 47.2979 32.2852ZM31.2725 32.0361C31.315 32.0389 31.3487 32.0523 31.3838 32.0752C31.4515 32.1195 31.4947 32.1812 31.5068 32.2607C31.519 32.3409 31.4949 32.4315 31.4404 32.4932C31.3826 32.5585 31.3138 32.5574 31.2314 32.5635C31.2037 32.5584 31.1973 32.558 31.168 32.5479C31.1004 32.5246 31.0397 32.4657 31.0146 32.4004C30.9878 32.3304 31.001 32.2565 31.0352 32.1914C31.0861 32.0948 31.1718 32.0652 31.2725 32.0361ZM50.4062 31.9443C50.4545 31.9981 50.4487 32.0308 50.458 32.1006C50.4277 32.0975 50.3972 32.0909 50.3672 32.0859C50.3248 32.0362 50.3347 31.9894 50.3301 31.9258L50.4062 31.9443ZM48.3926 31.6699C48.4322 31.6808 48.4528 31.6787 48.4697 31.7197C48.4957 31.7826 48.4967 31.8309 48.4775 31.8936C48.4206 31.8771 48.4074 31.8729 48.3662 31.832C48.3498 31.7676 48.3687 31.7287 48.3926 31.6699ZM38.2207 31.3105L38.25 31.3213C38.3165 31.363 38.3726 31.5115 38.4355 31.5576V31.5566L38.3828 31.4971C38.331 31.422 38.2806 31.3155 38.2207 31.3096V31.3105ZM39.041 30.9443C39.11 30.9677 39.154 30.9824 39.1953 31.0439C39.2308 31.097 39.2449 31.1602 39.2256 31.2217C39.194 31.3216 39.1267 31.3617 39.0361 31.4072C38.9964 31.3879 38.9541 31.3686 38.9229 31.3369C38.8785 31.2919 38.8524 31.2212 38.8613 31.1592C38.8756 31.0619 38.9636 30.9951 39.041 30.9443ZM29.1582 30.7793C29.1496 30.7836 29.1406 30.7919 29.1289 30.7998C29.1409 30.7917 29.1504 30.7836 29.1592 30.7793V30.7783L29.1582 30.7793ZM51.126 29.666C51.2143 29.6633 51.3229 29.6519 51.4023 29.6963C51.4383 29.7164 51.466 29.7454 51.4775 29.7842C51.4995 29.8587 51.4664 29.9387 51.4316 30.0039C51.3724 30.0194 51.3174 30.0345 51.2559 30.0225C51.198 30.0111 51.142 29.9828 51.1133 29.9297C51.0679 29.8455 51.0977 29.75 51.126 29.666ZM22.3711 29.4072C22.4264 29.4253 22.4952 29.4858 22.5156 29.5381C22.5299 29.575 22.5241 29.6057 22.5107 29.6416C22.4785 29.7281 22.4119 29.7553 22.3311 29.7861L22.2988 29.7881C22.1277 29.8 22.072 29.749 21.9492 29.6426C22.0051 29.5524 22.0519 29.4798 22.1328 29.4072C22.201 29.4028 22.3058 29.386 22.3711 29.4072ZM25.8633 28.9912C25.9588 29.006 26.0579 29.0914 26.1084 29.1689C26.1579 29.245 26.182 29.3348 26.1602 29.4238C26.1318 29.5392 26.0434 29.5973 25.9453 29.6543C25.9013 29.6724 25.8566 29.6874 25.8096 29.6963C25.727 29.7119 25.6213 29.7122 25.5527 29.6572C25.4237 29.5536 25.4416 29.3535 25.4404 29.208L25.6602 28.9902C25.7263 28.9853 25.7975 28.9811 25.8633 28.9912ZM43.668 26.3564C43.783 26.3655 43.8945 26.394 44.0068 26.4189C43.8252 27.2995 43.7266 28.1814 43.499 29.0547C43.4744 29.1319 43.4581 29.2132 43.4395 29.292C43.3125 28.6738 43.5767 27.0587 43.668 26.3564ZM45.1846 26.3164C45.1939 26.3326 45.1978 26.336 45.2041 26.3564C45.2528 26.5152 45.2464 26.7324 45.2598 26.8994C45.2975 27.3724 45.4239 28.7362 45.2363 29.1396C45.1386 28.9358 44.8665 26.6444 44.8672 26.3574C44.907 26.3164 44.9644 26.3196 45.0205 26.3105C45.078 26.3049 45.1288 26.2969 45.1846 26.3164ZM42.7471 26.0645C42.8369 26.0738 42.9176 26.1016 43.0029 26.1289C42.6799 27.0255 42.2296 27.8737 41.666 28.6475C41.6324 28.7188 41.5806 28.7855 41.5371 28.8516C41.682 28.2681 41.9644 27.7087 42.2109 27.1611C42.3776 26.791 42.5271 26.4078 42.7471 26.0645ZM39.0449 28.4951C39.0902 28.5025 39.1363 28.5163 39.1699 28.5488C39.2048 28.5827 39.2177 28.6245 39.2109 28.6719C39.1987 28.7573 39.1459 28.7928 39.0781 28.8359C39.0349 28.82 38.9931 28.7954 38.9619 28.7607C38.9311 28.7266 38.9248 28.6896 38.9287 28.6455C38.9352 28.5755 38.9937 28.5361 39.0449 28.4951ZM22.3633 28.5547C22.4264 28.5554 22.4517 28.5714 22.5039 28.6025C22.5326 28.6486 22.5313 28.6534 22.5273 28.708C22.4838 28.7647 22.4621 28.7701 22.3975 28.7979C22.355 28.8216 22.3452 28.82 22.2959 28.8184L22.2715 28.7793C22.2685 28.6771 22.2957 28.6304 22.3633 28.5547ZM46.1406 25.9961C46.3905 26.233 46.7844 27.3418 46.8945 27.7061C46.9421 27.8636 47.1745 28.56 47.1201 28.6582L47.0664 28.6318C46.7736 28.3595 46.1124 26.5821 45.9277 26.1094L46.1025 25.9902L46.1406 25.9961ZM17.3086 28.2959C17.3939 28.3052 17.4587 28.3304 17.5078 28.4033C17.5333 28.4411 17.5486 28.4824 17.5332 28.5273C17.5129 28.5859 17.4744 28.605 17.4229 28.6309C17.3963 28.6374 17.3688 28.643 17.3418 28.6475C17.2921 28.6555 17.2545 28.6471 17.2158 28.6143C17.1773 28.5814 17.1577 28.5363 17.1592 28.4863C17.1616 28.405 17.1964 28.3493 17.25 28.291C17.2695 28.2925 17.2891 28.2939 17.3086 28.2959ZM22.5186 28.1777C22.5619 28.1847 22.5786 28.1932 22.6113 28.2217C22.6325 28.2766 22.6278 28.3012 22.6162 28.3564L22.5166 28.3057C22.4892 28.2505 22.5033 28.2354 22.5186 28.1777ZM25.5293 28.1387C25.5696 28.1779 25.5705 28.1941 25.585 28.249C25.5577 28.2517 25.5293 28.25 25.502 28.25C25.4469 28.2245 25.4307 28.1786 25.4053 28.1279C25.4485 28.1259 25.4867 28.1318 25.5293 28.1387ZM47.2705 25.4443C47.4053 25.614 47.556 25.7709 47.6875 25.9434C47.9437 26.2795 48.8393 27.5895 48.9072 27.9209L48.8906 27.9307L48.8213 27.876C48.383 27.4492 47.2574 26.0941 47.0342 25.5742L47.2666 25.4414C47.2678 25.4424 47.2695 25.4431 47.2705 25.4443ZM41.8096 25.5029C41.9034 25.5533 41.9668 25.6247 42.0391 25.7002C41.7341 25.9246 41.3656 26.4334 41.0986 26.7285C40.7644 27.0981 40.3794 27.4574 39.9941 27.7754C39.9335 27.8142 39.8689 27.8493 39.8066 27.8857C40.3852 27.0383 41.0495 26.2061 41.8008 25.498C41.8036 25.4997 41.8067 25.5014 41.8096 25.5029ZM22.4883 23.9131C22.8749 23.9198 23.2545 24.0681 23.5225 24.3447C23.862 24.6953 23.9155 25.1221 23.9004 25.5859C24.021 25.5002 24.1566 25.4282 24.2881 25.3594C24.5283 25.2337 24.8191 25.2001 25.0791 25.2852C25.2632 25.3455 25.4174 25.4667 25.502 25.6396C25.6333 25.9088 25.5921 26.2554 25.5 26.5303C25.9205 26.381 26.3692 26.2542 26.8145 26.2031C27.1327 26.1666 27.5215 26.1803 27.7803 26.3916C27.8524 26.4505 27.9116 26.5328 27.918 26.627C27.9235 26.7094 27.8902 26.7829 27.835 26.8438C27.7095 26.9817 27.4924 27.0556 27.3184 27.1143C26.1744 27.4996 24.9682 27.3964 23.7852 27.4697L20.1816 27.7051C19.654 27.7369 19.1334 27.8293 18.6084 27.8652C18.1267 27.8982 17.6077 27.8684 17.1309 27.7959C16.7401 27.7365 16.0348 27.6352 15.7969 27.292C15.76 27.2388 15.744 27.178 15.7607 27.1143C15.795 26.9844 15.9367 26.8653 16.0518 26.8037C16.4222 26.6056 16.9752 26.7226 17.3574 26.8223C17.4533 26.6607 17.5535 26.5338 17.7402 26.4697C17.8676 26.426 18.0102 26.4164 18.1318 26.4814C18.23 26.5339 18.2592 26.5958 18.2852 26.6992C18.3009 26.762 18.3284 26.8585 18.293 26.918C18.1723 26.9226 18.0818 26.76 17.9795 26.7031L17.9629 26.7178C17.9667 26.7418 17.9675 26.7536 17.9766 26.7783C18.0088 26.8658 18.0664 26.8922 18.1514 26.9209C18.2196 26.9439 18.3048 26.9702 18.373 26.9365C18.4758 26.7989 18.4412 26.5481 18.4639 26.3809C18.5001 26.1145 18.6308 25.8495 18.8535 25.6865C19.1251 25.4879 19.54 25.439 19.8691 25.4912C20.276 25.5559 20.5821 25.8206 20.8145 26.1377C20.7379 25.9801 20.6854 25.8269 20.667 25.6533C20.6293 25.2959 20.7168 24.9162 20.9512 24.6348C21.2567 24.268 21.7349 23.9646 22.2217 23.9199C22.3103 23.912 22.3993 23.9116 22.4883 23.9131ZM36.9844 26.3076C37.06 26.3265 37.1219 26.3885 37.1611 26.4521C37.2007 26.5163 37.2151 26.5906 37.1924 26.6631C37.1643 26.7523 37.1012 26.822 37.0176 26.8643C36.9504 26.8759 36.8785 26.8915 36.8105 26.877C36.7358 26.8608 36.662 26.805 36.6211 26.7422C36.5812 26.6802 36.5693 26.6052 36.5879 26.5342C36.6165 26.4212 36.6826 26.3634 36.7793 26.3027C36.8448 26.2989 36.9202 26.2917 36.9844 26.3076ZM47.9443 24.4717C48.5904 24.9135 49.216 25.3835 49.8193 25.8799C49.9473 25.9842 50.124 26.0986 50.2197 26.2305L50.207 26.2607L50.1514 26.252C49.2791 25.9516 48.4682 25.3086 47.7812 24.7168C47.8475 24.6388 47.8959 24.5605 47.9443 24.4717ZM41.1318 24.6436C41.2158 24.6915 41.2708 24.8264 41.3125 24.9102C41.1057 25.0617 40.8592 25.1683 40.6318 25.2871C40.0426 25.5949 39.4575 25.8898 38.8389 26.1377C38.7895 26.1568 38.7526 26.1801 38.6992 26.1729C38.7769 25.9413 40.7803 24.8239 41.1318 24.6436ZM44.1982 19.8867C45.7532 19.706 47.1662 20.7885 47.3633 22.3115C47.5603 23.8346 46.4678 25.229 44.916 25.4346C43.3465 25.6424 41.9045 24.5561 41.7051 23.0156C41.5058 21.475 42.6255 20.0698 44.1982 19.8867ZM48.3711 23.6074C48.7533 23.665 50.7368 24.4223 50.9805 24.6592L50.9668 24.6855C50.1045 24.5575 49.1205 24.2388 48.3105 23.9199L48.3711 23.6074ZM40.752 23.6914C40.7777 23.7399 40.7965 23.7845 40.8057 23.8389C40.8157 23.8985 40.8055 23.9422 40.7686 23.9912C40.5959 24.0715 40.3423 24.0918 40.1533 24.1309C39.444 24.2775 38.7313 24.4423 38.0088 24.5107L37.9863 24.5166L37.9727 24.501L37.9414 24.5215L37.9326 24.498C38.1981 24.2362 40.2283 23.7641 40.71 23.6826L40.752 23.6914ZM49.1201 22.5801C49.4088 22.5866 51.1223 22.6518 51.292 22.8262L51.2744 22.8477C50.3463 22.9449 49.3847 22.8994 48.4521 22.8867C48.4493 22.7849 48.4525 22.682 48.4541 22.5801C48.6753 22.5728 48.8989 22.5751 49.1201 22.5801ZM38.9551 22.5527C39.5094 22.5563 40.071 22.5546 40.624 22.5938L40.6064 22.8838C40.5563 22.8863 40.5062 22.8871 40.4561 22.8877C40.0158 22.8909 37.9965 22.8169 37.7383 22.5664C38.1393 22.5354 38.5527 22.5501 38.9551 22.5527ZM51.1221 21.1768L51.1074 21.2031C50.8886 21.3154 50.6266 21.3736 50.3906 21.4424C50.0668 21.5369 49.7436 21.6385 49.416 21.7197C49.1048 21.7969 48.7886 21.8544 48.4775 21.9326C48.4269 21.9409 48.4509 21.9438 48.4043 21.9229C48.3483 21.8415 48.3285 21.7401 48.3018 21.6465C48.5159 21.5635 48.7532 21.5211 48.9775 21.4707C49.6449 21.3209 50.303 21.2031 50.9883 21.1729C51.037 21.1687 51.0738 21.1656 51.1221 21.1768ZM38.0137 20.9131C38.6687 20.8518 40.1942 21.3718 40.8174 21.5918L40.7666 21.8467C40.7384 21.862 40.7519 21.8588 40.7168 21.8584C40.4416 21.8554 38.1846 21.0797 38.0137 20.9131ZM35.9834 21.3545C36.0375 21.3198 36.1061 21.3168 36.1631 21.3467C36.2202 21.3767 36.2564 21.4345 36.2568 21.498C36.2572 21.5616 36.2218 21.6207 36.165 21.6514C36.082 21.696 35.9778 21.6684 35.9287 21.5889C35.8797 21.5091 35.9039 21.4056 35.9834 21.3545ZM50.4502 19.3262C50.0746 19.7561 49.4947 20.0724 49.0127 20.3809C48.9954 20.4451 48.9839 20.5045 48.9219 20.541C48.7869 20.6203 48.3224 20.8951 48.1934 20.8779C48.1428 20.9028 48.1011 20.9222 48.0439 20.9297C47.9601 20.9118 47.897 20.8322 47.8379 20.7744C48.0357 20.5653 49.4079 19.7882 49.7432 19.6221C49.9737 19.508 50.209 19.4153 50.4502 19.3262ZM38.8164 19.1143C38.9294 19.1355 39.0456 19.21 39.1475 19.2617C39.8985 19.6432 40.5982 20.1228 41.2637 20.6328C41.2314 20.6995 41.1988 20.766 41.165 20.832C41.1341 20.8706 41.1308 20.8669 41.0869 20.8828C40.8504 20.8508 39.1313 19.3924 38.8164 19.1143ZM49.3242 17.8076C49.3291 17.8396 49.3178 17.8595 49.2998 17.8857C49.1458 18.1099 48.983 18.3371 48.8105 18.5479C48.6559 18.7367 47.5201 20.017 47.3535 20.0479L47.2793 19.9883C47.2345 19.9546 47.2009 19.9245 47.165 19.8818C47.1883 19.7698 47.375 19.6081 47.4541 19.5225C47.81 19.1372 48.1709 18.7666 48.5684 18.4219C48.813 18.2097 49.0735 18.013 49.3242 17.8076ZM40.1289 17.5498C40.3897 17.657 41.9384 19.3482 42.0537 19.6162C42.0567 19.6869 42.0241 19.7261 41.9863 19.7822L41.9219 19.8428L41.8877 19.8369C41.4529 19.4843 40.3246 18.0738 40.1221 17.5469C40.1244 17.5477 40.1266 17.5489 40.1289 17.5498ZM29.585 19.3037L29.5947 19.3477C29.5713 19.412 29.5387 19.4528 29.4941 19.5049L29.4482 19.4941L29.4209 19.4492C29.4272 19.3835 29.479 19.3248 29.5166 19.2715C29.5444 19.2783 29.5609 19.2892 29.585 19.3037ZM34.7754 19.249C34.8577 19.2459 34.9252 19.2606 34.9902 19.3115C35.0188 19.3771 35.0099 19.3856 34.9922 19.4521C34.9661 19.4614 34.9268 19.4793 34.8994 19.4795C34.8475 19.4797 34.8302 19.4629 34.7949 19.4316C34.7701 19.3662 34.771 19.3181 34.7754 19.249ZM30.8584 18.9893C30.9257 18.9871 30.9827 18.9834 31.0391 19.0264C31.0817 19.0589 31.1084 19.0998 31.1104 19.1543C31.1133 19.242 31.0687 19.2857 31.0088 19.3418C30.9658 19.3343 30.9153 19.3278 30.877 19.3066C30.8293 19.2803 30.785 19.221 30.7773 19.168C30.7656 19.0845 30.8052 19.0449 30.8584 18.9893ZM47.6484 16.7949C47.672 17.1477 46.6324 19.0299 46.3672 19.3281C46.3045 19.3414 46.2499 19.3055 46.1943 19.2803C46.1543 19.2554 46.1621 19.2606 46.1465 19.2227C46.1741 19.0751 46.2875 18.9112 46.3584 18.7754C46.5928 18.326 46.8263 17.8729 47.1123 17.4521C47.2742 17.214 47.4623 16.9884 47.6406 16.7617C47.6444 16.7734 47.6476 16.7819 47.6484 16.7949ZM41.9746 16.4775C42.151 16.698 43.192 18.7936 43.1631 19.0576C43.0809 19.0811 43.0046 19.1088 42.918 19.1006C42.725 18.9793 42.1993 17.456 42.1211 17.1973C42.0467 16.9512 41.9949 16.6935 41.9355 16.4434C41.9595 16.4611 41.9592 16.4583 41.9746 16.4775ZM36.9795 18.5098C37.0407 18.5115 37.107 18.5111 37.1621 18.541C37.2123 18.5684 37.2437 18.626 37.2617 18.6777C37.2889 18.7558 37.2676 18.8413 37.2275 18.9111C37.186 18.9834 37.1234 18.9951 37.0479 19.0146C37.0254 19.013 37.0026 19.0106 36.9805 19.0068C36.9119 18.9951 36.8476 18.9566 36.8115 18.8975C36.7761 18.839 36.773 18.7717 36.791 18.707C36.8212 18.5987 36.883 18.5614 36.9795 18.5098ZM43.8252 16.0801C43.9675 16.2049 44.2263 18.6401 44.2422 18.9531L43.9912 18.9658C43.8924 18.2022 43.7861 17.4637 43.7861 16.6914C43.7862 16.4867 43.7799 16.2744 43.8154 16.0723C43.8187 16.0748 43.8221 16.0774 43.8252 16.0801ZM45.7393 16.3887C45.8235 16.8401 45.5456 17.8895 45.4326 18.3652C45.3896 18.5462 45.3615 18.7919 45.2686 18.9521C45.2004 18.9739 45.1231 18.9475 45.0547 18.9326L45.0195 18.9043C44.965 18.5743 45.5949 16.7816 45.7393 16.3887ZM28.6855 17.4941C28.7384 17.5053 28.7466 17.5178 28.7744 17.5586C28.7785 17.6225 28.7541 17.6642 28.7266 17.7197C28.6686 17.6987 28.632 17.6817 28.5869 17.6377C28.5646 17.5703 28.5681 17.5584 28.584 17.4922C28.6152 17.4915 28.6551 17.4878 28.6855 17.4941Z" fill="url(#paint0_linear_3108_129061)"/>
</g>
<defs>
<filter id="filter0_diii_3108_129061" x="0.8" y="0.8" width="68" height="68" filterUnits="userSpaceOnUse" color-interpolation-filters="sRGB">
<feFlood flood-opacity="0" result="BackgroundImageFix"/>
<feColorMatrix in="SourceAlpha" type="matrix" values="0 0 0 0 0 0 0 0 0 0 0 0 0 0 0 0 0 0 127 0" result="hardAlpha"/>
<feOffset dx="0.8" dy="0.8"/>
<feGaussianBlur stdDeviation="2"/>
<feColorMatrix type="matrix" values="0 0 0 0 0 0 0 0 0 0 0 0 0 0 0 0 0 0 0.4 0"/>
<feBlend mode="overlay" in2="BackgroundImageFix" result="effect1_dropShadow_3108_129061"/>
<feBlend mode="normal" in="SourceGraphic" in2="effect1_dropShadow_3108_129061" result="shape"/>
<feColorMatrix in="SourceAlpha" type="matrix" values="0 0 0 0 0 0 0 0 0 0 0 0 0 0 0 0 0 0 127 0" result="hardAlpha"/>
<feOffset dx="0.2" dy="0.2"/>
<feGaussianBlur stdDeviation="0.1"/>
<feComposite in2="hardAlpha" operator="arithmetic" k2="-1" k3="1"/>
<feColorMatrix type="matrix" values="0 0 0 0 1 0 0 0 0 1 0 0 0 0 1 0 0 0 1 0"/>
<feBlend mode="soft-light" in2="shape" result="effect2_innerShadow_3108_129061"/>
<feColorMatrix in="SourceAlpha" type="matrix" values="0 0 0 0 0 0 0 0 0 0 0 0 0 0 0 0 0 0 127 0" result="hardAlpha"/>
<feOffset dx="-0.2" dy="-0.2"/>
<feGaussianBlur stdDeviation="0.1"/>
<feComposite in2="hardAlpha" operator="arithmetic" k2="-1" k3="1"/>
<feColorMatrix type="matrix" values="0 0 0 0 0 0 0 0 0 0 0 0 0 0 0 0 0 0 0.9 0"/>
<feBlend mode="overlay" in2="effect2_innerShadow_3108_129061" result="effect3_innerShadow_3108_129061"/>
<feColorMatrix in="SourceAlpha" type="matrix" values="0 0 0 0 0 0 0 0 0 0 0 0 0 0 0 0 0 0 127 0" result="hardAlpha"/>
<feOffset dx="-0.2" dy="-0.2"/>
<feGaussianBlur stdDeviation="0.1"/>
<feComposite in2="hardAlpha" operator="arithmetic" k2="-1" k3="1"/>
<feColorMatrix type="matrix" values="0 0 0 0 0 0 0 0 0 0 0 0 0 0 0 0 0 0 0.4 0"/>
<feBlend mode="normal" in2="effect3_innerShadow_3108_129061" result="effect4_innerShadow_3108_129061"/>
</filter>
<linearGradient id="paint0_linear_3108_129061" x1="34" y1="4" x2="34" y2="64" gradientUnits="userSpaceOnUse">
<stop stop-color="#167A3E"/>
<stop offset="1" stop-color="#2FE176"/>
</linearGradient>
</defs>
</svg>
