<svg width="85" height="40" viewBox="0 0 85 40" fill="none" xmlns="http://www.w3.org/2000/svg">
<circle cx="16.9245" cy="11.2507" r="6.66667" fill="#0D519B"/>
<ellipse opacity="0.5" cx="16.9245" cy="29.5827" rx="11.6667" ry="6.66667" fill="#0D519B"/>
<path fill-rule="evenodd" clip-rule="evenodd" d="M30.8529 3.94105C31.2081 3.34908 31.9759 3.15712 32.5679 3.51231L31.9248 4.58417C32.5679 3.51231 32.5673 3.51197 32.5679 3.51231L32.5702 3.5137L32.5728 3.51528L32.579 3.51904L32.595 3.5289C32.6073 3.53653 32.6227 3.54626 32.641 3.55812C32.6777 3.58184 32.7262 3.61413 32.7849 3.65519C32.902 3.73722 33.0603 3.85472 33.2459 4.00931C33.616 4.31779 34.1001 4.77862 34.5822 5.40537C35.5537 6.66826 36.5081 8.59642 36.5081 11.2508C36.5081 13.9053 35.5537 15.8334 34.5822 17.0963C34.1001 17.7231 33.616 18.1839 33.2459 18.4924C33.0603 18.647 32.902 18.7645 32.7849 18.8465C32.7262 18.8875 32.6777 18.9198 32.641 18.9436C32.6227 18.9554 32.6073 18.9652 32.595 18.9728L32.579 18.9826L32.5728 18.9864L32.5702 18.988C32.5697 18.9883 32.5679 18.9894 31.9248 17.9175L32.5679 18.9894C31.9759 19.3446 31.2081 19.1526 30.8529 18.5606C30.4992 17.9711 30.6881 17.2073 31.2742 16.8501L31.2835 16.8443C31.2956 16.8364 31.3187 16.8212 31.3512 16.7984C31.4163 16.7528 31.5184 16.6776 31.6454 16.5718C31.9002 16.3595 32.2495 16.0286 32.6007 15.572C33.2959 14.6683 34.0081 13.2631 34.0081 11.2508C34.0081 9.2386 33.2959 7.83342 32.6007 6.92964C32.2495 6.47306 31.9002 6.14222 31.6454 5.92987C31.5184 5.82404 31.4163 5.74884 31.3512 5.70327C31.3187 5.68052 31.2956 5.66528 31.2835 5.65742L31.2742 5.65154C30.6881 5.2944 30.4992 4.53054 30.8529 3.94105Z" fill="#0D519B"/>
<path fill-rule="evenodd" clip-rule="evenodd" d="M27.4734 7.35849C27.7822 6.74102 28.533 6.49074 29.1505 6.79947L28.5915 7.91751C29.1505 6.79947 29.1498 6.79914 29.1505 6.79947L29.1532 6.80083L29.156 6.80227L29.1623 6.80543L29.1766 6.81286L29.2126 6.83221C29.2397 6.84713 29.2731 6.86621 29.3118 6.88971C29.3891 6.93664 29.4883 7.00161 29.6019 7.08678C29.8284 7.25669 30.1166 7.51049 30.4009 7.8658C30.9821 8.5923 31.5081 9.69719 31.5081 11.2508C31.5081 12.8045 30.9821 13.9094 30.4009 14.6359C30.1166 14.9912 29.8284 15.245 29.6019 15.4149C29.4883 15.5001 29.3891 15.565 29.3118 15.612C29.2731 15.6355 29.2397 15.6545 29.2126 15.6695L29.1766 15.6888L29.1623 15.6962L29.156 15.6994L29.1532 15.7009C29.1525 15.7012 29.1505 15.7022 28.6019 14.6051L29.1505 15.7022C28.533 16.0109 27.7822 15.7607 27.4734 15.1432C27.1685 14.5334 27.4088 13.7936 28.0095 13.4779C28.0108 13.4772 28.0124 13.4762 28.0144 13.475C28.0282 13.4666 28.0592 13.4469 28.1019 13.4149C28.1878 13.3504 28.3163 13.2397 28.4487 13.0741C28.7008 12.759 29.0081 12.1972 29.0081 11.2508C29.0081 10.3045 28.7008 9.74271 28.4487 9.42754C28.3163 9.26203 28.1878 9.15124 28.1019 9.08678C28.0592 9.05476 28.0282 9.03509 28.0144 9.02668C28.0124 9.02548 28.0108 9.02453 28.0096 9.0238C27.4088 8.70813 27.1685 7.96827 27.4734 7.35849Z" fill="#0D519B"/>
<path fill-rule="evenodd" clip-rule="evenodd" d="M47.2879 8.78762C47.9577 8.62018 48.6364 9.02738 48.8038 9.69713L49.4404 12.2436C50.4568 16.309 53.6596 19.461 57.732 20.417H70.9244C74.4095 20.417 77.3429 23.0255 77.7501 26.4867L78.8325 35.6876C78.9132 36.3732 78.4228 36.9944 77.7372 37.0751C77.0515 37.1557 76.4303 36.6653 76.3497 35.9797L75.2672 26.7788C75.0081 24.5766 73.1418 22.917 70.9244 22.917H57.4539L57.32 22.8872C52.2613 21.763 48.2719 17.8773 47.015 12.8499L46.3784 10.3035C46.211 9.63372 46.6182 8.95505 47.2879 8.78762Z" fill="#0D519B"/>
<path opacity="0.5" d="M57.5912 22.916V29.9993C57.5912 33.142 57.5912 34.7134 58.5675 35.6897C59.5438 36.666 61.1152 36.666 64.2579 36.666C67.4006 36.666 68.9719 36.666 69.9482 35.6897C70.9245 34.7134 70.9245 33.142 70.9245 29.9993V22.916H57.5912Z" fill="#0D519B"/>
<circle cx="64.2579" cy="10.0007" r="6.66667" fill="#0D519B"/>
</svg>
