<svg width="25" height="24" viewBox="0 0 25 24" fill="none" xmlns="http://www.w3.org/2000/svg">
<path fill-rule="evenodd" clip-rule="evenodd" d="M2.31828 5.27257C2.72012 5.17211 3.12732 5.41643 3.22778 5.81828L3.60975 7.34614C4.21957 9.78541 6.14125 11.6766 8.5847 12.2502H16.5002C18.5912 12.2502 20.3512 13.8153 20.5956 15.892L21.245 21.4125C21.2934 21.8239 20.9992 22.1966 20.5878 22.245C20.1764 22.2934 19.8037 21.9992 19.7553 21.5878L19.1058 16.0673C18.9504 14.746 17.8306 13.7502 16.5002 13.7502H8.41785L8.33748 13.7323C5.30227 13.0578 2.90864 10.7264 2.15454 7.70994L1.77257 6.18208C1.67211 5.78023 1.91643 5.37303 2.31828 5.27257Z" fill="#007BFF"/>
<path opacity="0.5" d="M8.5 13.75V18C8.5 19.8856 8.5 20.8284 9.08579 21.4142C9.67157 22 10.6144 22 12.5 22C14.3856 22 15.3284 22 15.9142 21.4142C16.5 20.8284 16.5 19.8856 16.5 18V13.75H8.5Z" fill="#007BFF"/>
<circle cx="12.5" cy="6" r="4" fill="#007BFF"/>
</svg>
