<?xml version="1.0" encoding="utf-8"?>
<!-- Generator: Adobe Illustrator 27.9.0, SVG Export Plug-In . SVG Version: 6.00 Build 0)  -->
<svg version="1.1" id="Layer_1" xmlns="http://www.w3.org/2000/svg" xmlns:xlink="http://www.w3.org/1999/xlink" x="0px" y="0px"
	 viewBox="0 0 254 335" style="enable-background:new 0 0 254 335;" xml:space="preserve">
<style type="text/css">
	.st0{fill:#64B5FF;}
	.st1{fill:#007AFF;}
</style>
<g>
	<path class="st0" d="M44.1,309.1c0.2-1,0.5-2.1,0.8-3.3l0.6,0.3c-0.2,0.8-0.3,1.6-0.5,2.2c-0.1,0.7-0.2,1.2-0.3,1.8
		c-0.1,0.5-0.1,1-0.1,1.4c0,1,0.2,1.8,0.6,2.4c0.4,0.6,1.1,1.1,2.1,1.4s2.2,0.4,3.7,0.4c1.4,0,2.6-0.2,3.5-0.5s1.7-0.8,2.2-1.3
		c0.5-0.6,0.7-1.3,0.7-2c0-0.5-0.1-0.9-0.2-1.5c-0.1-0.5-0.3-1.2-0.7-1.9c-0.3-0.7-0.7-1.6-1.3-2.7l1.4-2H57c0.4,1,0.7,1.8,0.9,2.6
		c0.2,0.8,0.4,1.5,0.5,2.1s0.1,1.4,0.1,2.1c0,2.6-0.7,4.6-2,5.9s-3.2,2-5.6,2c-2.3,0-4-0.5-5.2-1.6c-1.2-1.1-1.8-2.7-1.8-4.9
		C43.8,311,43.9,310.1,44.1,309.1z M52.1,308.3c-0.2,0.2-0.4,0.4-0.6,0.6c-0.2,0.2-0.5,0.4-0.7,0.6c-0.2-0.3-0.5-0.5-0.7-0.8
		c-0.3-0.3-0.6-0.5-0.9-0.8l1.5-1.6c0.2,0.2,0.5,0.4,0.8,0.6c0.3,0.2,0.5,0.4,0.6,0.6c0.2,0.2,0.3,0.3,0.3,0.4
		C52.4,308,52.3,308.1,52.1,308.3z"/>
	<path class="st0" d="M62.5,304.3c-0.1-0.7-0.1-1.5-0.2-2.4c-0.1-0.9-0.2-1.8-0.4-2.8c-0.2-1-0.4-2.1-0.6-3.2l1.3-2.2h0.1
		c0.3,1.6,0.5,3.1,0.7,4.4c0.2,1.3,0.3,2.5,0.4,3.6s0.1,2,0.1,2.9c0,1,0,1.9-0.1,2.8c-0.1,0.8-0.2,1.6-0.4,2.2
		c-0.2,0.7-0.4,1.2-0.6,1.7s-0.5,0.9-0.9,1.2l-0.2-0.1c0.3-0.8,0.5-1.8,0.7-2.8s0.2-2.2,0.2-3.3C62.6,305.7,62.6,305,62.5,304.3z
		 M62.5,293.7h0.1l1.9,4.4l-0.5,1.6l-2.8-3.8L62.5,293.7z"/>
	<path class="st0" d="M70.9,315.3c-0.4,1.1-0.9,2-1.7,2.7c-0.7,0.7-1.6,1.2-2.5,1.6c-0.4-0.4-0.9-0.7-1.6-0.8
		c-0.7-0.2-1.6-0.3-2.7-0.4l0.2-0.4c1-0.3,1.9-0.5,2.8-0.8c0.8-0.3,1.6-0.6,2.2-0.9c0.6-0.3,1.2-0.6,1.6-0.9c0.4-0.3,0.8-0.7,1-1.1
		c0.2-0.4,0.3-0.8,0.3-1.2c0-0.5-0.1-1-0.2-1.5s-0.4-1.2-0.7-1.9c-0.3-0.7-0.7-1.6-1.3-2.7l1.4-2h0.2c0.3,0.9,0.6,1.6,0.9,2.4
		c0.2,0.7,0.4,1.4,0.6,2.2c0.1,0.7,0.2,1.5,0.2,2.3C71.5,313,71.3,314.2,70.9,315.3z"/>
	<path class="st0" d="M75.3,303.1c0-1-0.1-1.8-0.2-2.6s-0.2-1.6-0.3-2.3s-0.3-1.5-0.5-2.3l1.8-1.9h0.3v10.7c0,1.1,0,1.9,0.1,2.6
		s0.3,1.2,0.5,1.6c0.3,0.4,0.6,0.6,1.1,0.8c0.5,0.1,1.1,0.2,1.9,0.2v2.6c-1.1,0-2-0.2-2.7-0.7c-0.7-0.5-1.2-1.2-1.5-2.1
		s-0.5-2-0.5-3.2C75.4,305.1,75.4,304.1,75.3,303.1z"/>
	<path class="st0" d="M79.9,312.2c-0.1-0.1-0.1-0.2-0.1-0.4s0-0.4,0-0.7c0-0.3,0-0.6,0-0.8c0-0.2,0.1-0.3,0.1-0.4
		c0.1-0.1,0.1-0.1,0.2-0.1c1.8,0,3.2-0.1,4.4-0.2c1.2-0.1,2.1-0.3,2.6-0.6c0.6-0.3,0.9-0.7,0.9-1.2c0-0.3-0.1-0.6-0.3-0.9
		c-0.2-0.3-0.5-0.7-0.8-1.1c-0.4-0.4-0.9-0.9-1.4-1.4s-1.3-1.1-2-1.7c-0.8-0.6-1.7-1.3-2.7-2.1c0.2-0.8,0.5-1.4,0.8-2
		c0.3-0.5,0.7-1,1.1-1.3c0.4-0.3,0.9-0.6,1.5-0.7l7.3-1.7l0.2,0.2l-0.6,2.2l-4.2,0.7c-0.9,0.1-1.6,0.3-2.2,0.4
		c-0.6,0.1-1,0.3-1.4,0.5c-0.4,0.2-0.6,0.3-0.9,0.5c1.2,0.9,2.3,1.7,3.1,2.4c0.8,0.7,1.5,1.3,2,1.9s0.8,1.1,1,1.6s0.3,1,0.3,1.5
		c0,2-0.7,3.4-2.1,4.2c-1.4,0.8-3.6,1.2-6.5,1.2C80,312.3,80,312.3,79.9,312.2z M81.9,298.9l1.4,3.1l-1.4,1.2l-1.2-2.6L81.9,298.9z
		 M91.7,295.2l-0.8,2.8l-0.9-1.2L91.7,295.2z"/>
	<path class="st0" d="M102.2,312.3c-1.1,0-2.2,0-3.2,0.1s-2.1,0.1-3.2,0.1c-1.2,0-2.1-0.3-2.7-0.8c-0.6-0.5-0.9-1.4-0.9-2.6
		c0-0.9,0.1-1.8,0.3-2.6c0.2-0.8,0.5-1.5,0.9-2.1c0.4-0.6,0.8-1,1.2-1.4c0.5-0.3,0.9-0.5,1.3-0.5c0.5,0,0.9,0.2,1.4,0.7
		c0.5,0.4,0.9,1.1,1.3,1.9c0.4,0.8,0.7,1.8,1,2.8s0.4,2.3,0.4,3.6c0,2-0.4,3.7-1.3,5.1c-0.9,1.4-2.1,2.3-3.9,2.9
		c-0.4-0.4-0.9-0.6-1.6-0.9c-0.7-0.2-1.6-0.4-2.7-0.4l0.2-0.4c1.3-0.3,2.4-0.6,3.3-1s1.8-0.7,2.5-1c0.7-0.4,1.2-0.7,1.7-1.1
		c0.4-0.4,0.7-0.8,1-1.3c0.2-0.5,0.3-0.9,0.3-1.5c0-1.3-0.1-2.5-0.4-3.5c-0.3-1-0.7-1.9-1.3-2.5c-0.6-0.6-1.3-0.9-2.2-0.9
		c-0.9,0-1.6,0.3-2.1,0.9c-0.5,0.6-0.7,1.3-0.7,2.2c0,0.5,0.1,0.8,0.3,1.1c0.2,0.3,0.5,0.4,1,0.5c0.4,0.1,1,0.2,1.8,0.2
		c0.8,0,1.4,0,1.9,0c0.5,0,1-0.1,1.4-0.1c0.4,0,0.9-0.1,1.3-0.1c0.5,0,1.1,0,1.8,0V312.3z"/>
	<path class="st0" d="M102,312.2c-0.1-0.1-0.1-0.2-0.1-0.4s0-0.4,0-0.7c0-0.3,0-0.6,0-0.8c0-0.2,0.1-0.3,0.1-0.4
		c0.1-0.1,0.1-0.1,0.2-0.1c1.8,0,3.2-0.1,4.4-0.2c1.2-0.1,2.1-0.3,2.6-0.6c0.6-0.3,0.9-0.7,0.9-1.2c0-0.3-0.1-0.6-0.3-0.9
		c-0.2-0.3-0.5-0.7-0.8-1.1c-0.4-0.4-0.9-0.9-1.4-1.4s-1.3-1.1-2-1.7c-0.8-0.6-1.7-1.3-2.7-2.1c0.2-0.8,0.5-1.4,0.8-2
		c0.3-0.5,0.7-1,1.1-1.3c0.4-0.3,0.9-0.6,1.5-0.7l7.3-1.7l0.2,0.2l-0.6,2.2L109,298c-0.9,0.1-1.6,0.3-2.2,0.4
		c-0.6,0.1-1,0.3-1.4,0.5c-0.4,0.2-0.6,0.3-0.9,0.5c1.2,0.9,2.3,1.7,3.1,2.4c0.8,0.7,1.5,1.3,2,1.9s0.8,1.1,1,1.6s0.3,1,0.3,1.5
		c0,2-0.7,3.4-2.1,4.2c-1.4,0.8-3.6,1.2-6.5,1.2C102.1,312.3,102.1,312.3,102,312.2z M104,298.9l1.4,3.1l-1.4,1.2l-1.2-2.6
		L104,298.9z M107.2,301.6c0.8,0.7,1.6,1.4,2.3,2.1c0.7,0.7,1.3,1.5,1.8,2.4c0.5,0.8,1,1.4,1.4,1.9c0.5,0.5,1,0.9,1.5,1.1
		c0.5,0.3,1.1,0.5,1.7,0.6c0.6,0.1,1.3,0.2,2.1,0.2v2.6c-1.2,0-2.1-0.2-3-0.5c-0.8-0.3-1.6-0.8-2.2-1.6c-0.7-0.7-1.4-1.7-2.1-2.9
		c-0.4-0.7-0.8-1.4-1.3-2s-1-1.3-1.5-1.9c-0.5-0.6-1.1-1.2-1.7-1.8s-1.2-1.1-1.8-1.7l0.1-0.6C105.5,300.2,106.4,300.9,107.2,301.6z
		 M113.8,295.2L113,298l-0.9-1.2L113.8,295.2z"/>
	<path class="st0" d="M118.3,317.4c-0.2,0.2-0.4,0.4-0.6,0.6c-0.2,0.2-0.5,0.4-0.7,0.6c-0.2-0.3-0.5-0.5-0.7-0.8s-0.6-0.5-0.9-0.8
		l1.5-1.6c0.2,0.2,0.5,0.4,0.8,0.6c0.3,0.2,0.5,0.4,0.6,0.6c0.2,0.2,0.3,0.3,0.3,0.4C118.5,317.1,118.5,317.2,118.3,317.4z
		 M117.7,310.3c0-0.2,0.1-0.3,0.1-0.4c0.1-0.1,0.1-0.1,0.2-0.1c1.2,0,2.1-0.2,2.9-0.5c0.7-0.3,1.3-0.9,1.8-1.7s0.9-1.8,1.2-3.1
		l0.7,0.2c-0.2,0.7-0.3,1.2-0.4,1.7c-0.1,0.5-0.2,0.9-0.2,1.3c0,0.5,0.1,1,0.4,1.3c0.3,0.3,0.7,0.5,1.3,0.6c0.6,0.1,1.4,0.2,2.3,0.2
		v2.6c-1,0-1.8-0.1-2.4-0.4c-0.6-0.2-1.1-0.6-1.5-1c-0.4-0.4-0.7-0.9-1.1-1.5c-0.6,0.8-1.3,1.5-2.1,2c-0.8,0.6-1.8,0.8-2.9,0.8
		c-0.1,0-0.1,0-0.2-0.1c-0.1-0.1-0.1-0.2-0.1-0.4c0-0.2,0-0.4,0-0.7C117.6,310.7,117.6,310.5,117.7,310.3z M122.2,317.4
		c-0.2,0.2-0.4,0.4-0.6,0.6s-0.5,0.4-0.7,0.6c-0.2-0.3-0.5-0.5-0.7-0.8s-0.6-0.5-0.9-0.8l1.5-1.6c0.2,0.2,0.5,0.4,0.8,0.6
		s0.5,0.4,0.6,0.6c0.2,0.2,0.3,0.3,0.3,0.4C122.4,317.1,122.3,317.2,122.2,317.4z"/>
	<path class="st0" d="M127.7,310.3c0-0.2,0.1-0.3,0.1-0.4c0.1-0.1,0.1-0.1,0.2-0.1c1.7,0,2.9-0.1,3.7-0.3c0.8-0.2,1.2-0.6,1.2-1.2
		c0-0.7-0.1-1.3-0.4-2s-0.6-1.4-1.1-2.2l1.4-2.1h0.2c0.3,0.6,0.5,1.3,0.6,2c0.1,0.8,0.2,1.6,0.2,2.5c0,1.2-0.2,2.3-0.7,3.2
		c-0.5,0.9-1.2,1.5-2,2c-0.9,0.5-1.9,0.7-3,0.7c-0.1,0-0.2,0-0.2-0.1c-0.1-0.1-0.1-0.2-0.1-0.4s0-0.4,0-0.7
		C127.6,310.7,127.7,310.5,127.7,310.3z M132.4,298.1c-0.2,0.2-0.4,0.4-0.6,0.6c-0.2,0.2-0.5,0.4-0.7,0.6c-0.2-0.3-0.5-0.5-0.7-0.8
		s-0.6-0.5-0.9-0.8l1.5-1.6c0.2,0.2,0.5,0.4,0.8,0.6s0.5,0.4,0.6,0.6s0.3,0.3,0.3,0.4C132.6,297.8,132.5,297.9,132.4,298.1z"/>
	<path class="st0" d="M141.1,306.9c0.3-0.8,0.6-1.6,1.1-2.4c0.5-0.8,1-1.5,1.6-2.2l0.5,0.4c-0.4,0.5-0.9,1-1.3,1.5
		c-0.4,0.6-0.7,1.2-1,1.8c-0.3,0.6-0.4,1.2-0.4,1.7c0,0.7,0.2,1.2,0.7,1.6c0.5,0.4,1.2,0.5,2.3,0.5c1,0,1.8-0.2,2.4-0.5
		c0.5-0.4,0.8-0.9,0.8-1.5c0-0.6-0.2-1.3-0.7-2c-0.4-0.7-1.1-1.4-1.9-2.1c-0.8-0.7-1.7-1.3-2.8-1.9l1-2.5h0.3c0.7,0.5,1.4,1.1,2,1.7
		s1.1,1.3,1.6,2s0.8,1.4,1,2.1c0.2,0.7,0.4,1.5,0.4,2.2c0,1.8-0.4,3.1-1.1,3.9s-1.8,1.2-3.1,1.2c-0.7,0-1.3-0.1-1.8-0.4
		c-0.6-0.3-1-0.6-1.3-1.2s-0.5-1.1-0.5-1.9C140.7,308.5,140.8,307.7,141.1,306.9z"/>
	<path class="st0" d="M152.4,303.1c0-1-0.1-1.8-0.2-2.6s-0.2-1.6-0.3-2.3s-0.3-1.5-0.5-2.3l1.8-1.9h0.3v10.7c0,1.1,0,1.9,0.1,2.6
		s0.3,1.2,0.5,1.6c0.3,0.4,0.6,0.6,1.1,0.8c0.5,0.1,1.1,0.2,1.9,0.2v2.6c-1.1,0-2-0.2-2.7-0.7c-0.7-0.5-1.2-1.2-1.5-2.1
		s-0.5-2-0.5-3.2C152.4,305.1,152.4,304.1,152.4,303.1z"/>
	<path class="st0" d="M157,312.2c-0.1-0.1-0.1-0.2-0.1-0.4s0-0.4,0-0.7c0-0.3,0-0.6,0-0.8c0-0.2,0.1-0.3,0.1-0.4
		c0.1-0.1,0.1-0.1,0.2-0.1c1.8,0,3.2-0.1,4.4-0.2c1.2-0.1,2.1-0.3,2.6-0.6c0.6-0.3,0.9-0.7,0.9-1.2c0-0.3-0.1-0.6-0.3-0.9
		c-0.2-0.3-0.5-0.7-0.8-1.1c-0.4-0.4-0.9-0.9-1.4-1.4s-1.3-1.1-2-1.7c-0.8-0.6-1.7-1.3-2.7-2.1c0.2-0.8,0.5-1.4,0.8-2
		c0.3-0.5,0.7-1,1.1-1.3c0.4-0.3,0.9-0.6,1.5-0.7l7.3-1.7l0.2,0.2l-0.6,2.2l-4.2,0.7c-0.9,0.1-1.6,0.3-2.2,0.4
		c-0.6,0.1-1,0.3-1.4,0.5c-0.4,0.2-0.6,0.3-0.9,0.5c1.2,0.9,2.3,1.7,3.1,2.4c0.8,0.7,1.5,1.3,2,1.9s0.8,1.1,1,1.6s0.3,1,0.3,1.5
		c0,2-0.7,3.4-2.1,4.2c-1.4,0.8-3.6,1.2-6.5,1.2C157.1,312.3,157,312.3,157,312.2z M159,298.9l1.4,3.1l-1.4,1.2l-1.2-2.6L159,298.9z
		 M167.8,291.4l-0.3,0.9l-8.4,2l-0.1-0.1l0.3-0.9l8.3-2L167.8,291.4z M162.2,301.6c0.8,0.7,1.6,1.4,2.3,2.1c0.7,0.7,1.3,1.5,1.8,2.4
		c0.5,0.8,1,1.4,1.4,1.9c0.5,0.5,1,0.9,1.5,1.1c0.5,0.3,1.1,0.5,1.7,0.6c0.6,0.1,1.3,0.2,2.1,0.2v2.6c-1.2,0-2.1-0.2-3-0.5
		c-0.8-0.3-1.6-0.8-2.2-1.6c-0.7-0.7-1.4-1.7-2.1-2.9c-0.4-0.7-0.8-1.4-1.3-2s-1-1.3-1.5-1.9c-0.5-0.6-1.1-1.2-1.7-1.8
		s-1.2-1.1-1.8-1.7l0.1-0.6C160.5,300.2,161.3,300.9,162.2,301.6z M168.8,295.2L168,298l-0.9-1.2L168.8,295.2z"/>
	<path class="st0" d="M172.7,310c0.1-0.2,0.2-0.3,0.3-0.3c0.9,0,1.6-0.1,2.2-0.2c0.6-0.2,1-0.4,1.4-0.8c0.4-0.4,0.7-0.8,0.9-1.4
		c0.2-0.6,0.5-1.3,0.7-2.1l0.7,0.2c-0.2,0.7-0.3,1.2-0.4,1.7c-0.1,0.5-0.1,0.9-0.1,1.3c0,0.6,0.2,0.9,0.7,1.2s1.1,0.3,2,0.3
		c0.6,0,1-0.1,1.4-0.2c0.3-0.1,0.6-0.3,0.9-0.6c0.2-0.3,0.4-0.7,0.6-1.3c0.2-0.5,0.3-1.2,0.5-2.1l0.7,0.1c-0.1,0.5-0.1,0.9-0.2,1.3
		c0,0.4-0.1,0.7-0.1,1c0,0.6,0.2,1,0.7,1.3c0.4,0.3,1.1,0.4,2.1,0.4c0.9,0,1.6-0.1,2-0.2c0.5-0.1,0.7-0.4,0.7-0.7
		c0-0.6-0.1-1.2-0.4-1.9c-0.3-0.7-0.6-1.3-1-2l1.3-1.9h0.2c0.3,0.8,0.5,1.5,0.6,2.2c0.1,0.7,0.2,1.5,0.2,2.3c0,1-0.2,1.9-0.5,2.6
		c-0.4,0.7-0.8,1.3-1.4,1.6s-1.2,0.6-1.9,0.6c-0.5,0-1-0.1-1.5-0.4c-0.4-0.2-0.8-0.6-1.1-1c-0.3-0.4-0.6-0.8-0.9-1.3
		c-0.2,0.5-0.5,0.9-0.8,1.3c-0.3,0.4-0.6,0.7-1,1c-0.4,0.2-0.8,0.4-1.3,0.4c-0.6,0-1.1-0.1-1.5-0.4c-0.4-0.3-0.8-0.6-1.1-1
		c-0.3-0.4-0.6-0.9-0.9-1.5c-0.3,0.6-0.7,1.1-1,1.5c-0.4,0.4-0.8,0.7-1.3,0.9c-0.5,0.2-1.2,0.3-2,0.3c-0.1,0-0.2,0-0.2-0.1
		c-0.1-0.1-0.1-0.2-0.1-0.4c0-0.2,0-0.4,0-0.7C172.6,310.6,172.6,310.2,172.7,310z M183.4,301c-0.2,0.2-0.4,0.4-0.6,0.6
		s-0.5,0.4-0.7,0.6c-0.2-0.3-0.5-0.5-0.7-0.8c-0.3-0.3-0.6-0.5-0.9-0.8l1.5-1.6c0.2,0.2,0.5,0.4,0.8,0.6c0.3,0.2,0.5,0.4,0.6,0.6
		c0.2,0.2,0.3,0.3,0.3,0.4C183.6,300.7,183.5,300.8,183.4,301z M185.1,297.3c-0.2,0.2-0.3,0.4-0.6,0.6c-0.2,0.2-0.5,0.4-0.7,0.6
		c-0.2-0.3-0.4-0.5-0.7-0.8c-0.3-0.2-0.5-0.5-0.8-0.7l1.5-1.6c0.4,0.3,0.7,0.6,1,0.9c0.3,0.3,0.5,0.5,0.5,0.6
		C185.3,297,185.3,297.2,185.1,297.3z M187.2,301c-0.2,0.2-0.4,0.4-0.6,0.6s-0.5,0.4-0.7,0.6c-0.2-0.3-0.5-0.5-0.7-0.8
		c-0.3-0.3-0.6-0.5-0.9-0.8l1.5-1.6c0.2,0.2,0.5,0.4,0.8,0.6c0.3,0.2,0.5,0.4,0.6,0.6c0.2,0.2,0.3,0.3,0.3,0.4
		C187.5,300.7,187.4,300.8,187.2,301z"/>
	<path class="st0" d="M194.9,303.1c0-1-0.1-1.8-0.2-2.6s-0.2-1.6-0.3-2.3s-0.3-1.5-0.5-2.3l1.8-1.9h0.3v10.7c0,1.1,0,1.9,0.1,2.6
		s0.3,1.2,0.5,1.6c0.3,0.4,0.6,0.6,1.1,0.8c0.5,0.1,1.1,0.2,1.9,0.2v2.6c-1.1,0-2-0.2-2.7-0.7c-0.7-0.5-1.2-1.2-1.5-2.1
		s-0.5-2-0.5-3.2C194.9,305.1,194.9,304.1,194.9,303.1z"/>
	<path class="st0" d="M201.9,317.4c-0.2,0.2-0.4,0.4-0.6,0.6c-0.2,0.2-0.5,0.4-0.7,0.6c-0.2-0.3-0.5-0.5-0.7-0.8s-0.6-0.5-0.9-0.8
		l1.5-1.6c0.2,0.2,0.5,0.4,0.8,0.6s0.5,0.4,0.6,0.6c0.2,0.2,0.3,0.3,0.3,0.4C202.2,317.1,202.1,317.2,201.9,317.4z M199.3,310.3
		c0-0.2,0.1-0.3,0.1-0.4c0.1-0.1,0.1-0.1,0.2-0.1c1.7,0,2.9-0.1,3.7-0.3c0.8-0.2,1.2-0.6,1.2-1.2c0-0.7-0.1-1.3-0.4-2
		s-0.6-1.4-1.1-2.2l1.4-2.1h0.2c0.3,0.6,0.5,1.3,0.6,2c0.1,0.8,0.2,1.6,0.2,2.5c0,1.2-0.2,2.3-0.7,3.2c-0.5,0.9-1.2,1.5-2,2
		c-0.9,0.5-1.9,0.7-3,0.7c-0.1,0-0.2,0-0.2-0.1c-0.1-0.1-0.1-0.2-0.1-0.4s0-0.4,0-0.7C199.3,310.7,199.3,310.5,199.3,310.3z"/>
</g>
<g>
	<path class="st1" d="M46.8,254c0.6-0.7,0.9-1.4,0.9-2.3c0-1.3-0.4-2.6-1.3-3.7c-0.8-1.2-2-2.1-3.6-2.9c-1.5-0.7-3.3-1.1-5.3-1.1
		c-2.5,0-4.6,0.9-6.2,2.6c-1.6,1.7-2.8,3.9-3.7,6.6l-0.4-0.1c1-3.9,2.2-7.1,3.5-9.6c1.3-2.5,2.7-4.4,4.1-5.6
		c1.4-1.2,2.8-1.8,4.1-1.8c1.6,0,3.2,0.6,4.6,1.8c1.4,1.2,2.6,2.9,3.6,5c0.9,2.1,1.4,4.6,1.4,7.4c0,2.6-0.4,4.8-1.2,6.8
		c-0.8,2-1.8,3.5-3,4.6c-1.2,1.1-2.4,1.7-3.6,1.7c-1,0-2.2-0.1-3.7-0.4c-1.5-0.3-3.1-0.6-4.8-1c-1.5-0.3-2.7-0.6-3.9-0.9
		c-1.1-0.2-2.1-0.4-3-0.5c-0.9-0.1-1.7-0.2-2.4-0.2c-1.8,0-2.9,0.5-3.4,1.4c-0.5,0.9-0.6,2.1-0.3,3.6l3,17.4l-5,6.8l-0.4,0
		l-0.8-23.9c-0.1-2.8,0.3-5.1,1.2-7.1c0.8-1.9,2-3.4,3.4-4.4c1.4-1,3-1.5,4.7-1.5c0.7,0,1.7,0.1,3,0.3c1.4,0.2,3.1,0.5,5.1,0.8
		c1.4,0.3,2.7,0.5,4,0.7c1.2,0.2,2.4,0.3,3.4,0.4c1,0.1,2,0.2,2.8,0.2C45.1,255,46.2,254.7,46.8,254z"/>
	<path class="st1" d="M58,242.5c-0.2-1.9-0.4-3.9-0.7-6.1c-0.3-2.2-0.6-4.5-1-7c-0.4-2.5-0.9-5.1-1.4-7.8l3.6-6.5h0.1
		c0.8,3.9,1.5,7.6,2.1,11c0.6,3.4,1,6.5,1.3,9.4c0.3,2.9,0.5,5.5,0.5,7.8c0,2.6-0.2,5-0.6,7.1c-0.4,2.1-0.9,4-1.4,5.6
		c-0.6,1.6-1.2,3-2,4.2c-0.7,1.2-1.4,2.2-2,3l-0.2-0.1c0.9-2.3,1.4-4.8,1.7-7.5s0.4-5.4,0.4-7.9C58.3,246.1,58.2,244.4,58,242.5z
		 M58.5,215L58.5,215l5.6,11.8l-0.6,5.4l-8.5-10.7L58.5,215z"/>
	<path class="st1" d="M80.2,269.9c-1,2.7-2.4,5-4.2,6.9c-1.8,1.8-3.9,3.2-6.2,3.9c-0.7-1.1-2-1.9-3.7-2.6c-1.7-0.7-3.9-1.2-6.5-1.4
		l-0.8-1.9c2.2-0.5,4.3-1,6.4-1.6c2.1-0.6,3.9-1.3,5.7-2.1c1.7-0.8,3.2-1.6,4.5-2.4c1.3-0.9,2.3-1.7,3-2.6c0.7-0.9,1.1-1.8,1.1-2.7
		c0-1-0.2-2.1-0.5-3.3c-0.3-1.2-1-2.8-1.9-4.7c-0.9-1.9-2.2-4.4-3.8-7.5l3.9-5.9h0.2c0.9,2.3,1.7,4.5,2.4,6.5c0.6,2,1.1,4,1.5,6
		c0.3,2,0.5,4.1,0.5,6.3C81.7,264,81.2,267.1,80.2,269.9z M77.2,241.8h0.2l2.7,6.3c0.7,1.6,1.6,2.9,2.6,3.8c1,0.9,2.4,1.5,4,1.9
		c1.6,0.4,3.6,0.6,5.9,0.6v8.4c-1.7,0-3.5-0.4-5.2-1.2c-1.7-0.8-3.4-2.1-4.9-3.8c-1.5-1.7-2.8-3.9-3.8-6.6L77.2,241.8z"/>
	<path class="st1" d="M92.2,262.2c-0.1-0.4-0.2-0.9-0.3-1.6c-0.1-0.6-0.1-1.3-0.1-2c0-0.8,0.1-1.5,0.2-2.2c0.1-0.6,0.2-1.1,0.3-1.5
		c0.1-0.4,0.2-0.6,0.3-0.6c4.3,0,8-0.1,11.1-0.4c3-0.3,5.3-0.8,6.9-1.4c1.6-0.6,2.4-1.4,2.4-2.4c0-0.6-0.3-1.2-0.8-2
		c-0.5-0.8-1.3-1.7-2.4-2.6c-1-1-2.3-2.1-3.8-3.3c-1.5-1.2-3.3-2.6-5.3-4.1c-2-1.5-4.2-3.1-6.6-4.9c0.6-2.3,1.3-4.2,2.2-5.8
		c0.8-1.5,1.8-2.8,3-3.7c1.1-0.9,2.5-1.5,4-1.9l18.5-4.3l0.2,0.2l-1.6,7.6l-9.9,1.4c-2.2,0.3-4.1,0.7-5.6,1c-1.5,0.3-2.7,0.7-3.6,1
		c-0.9,0.3-1.6,0.7-2.2,1.1c3.1,2.3,5.6,4.2,7.6,5.9c2,1.7,3.6,3.2,4.7,4.6c1.1,1.3,2,2.6,2.4,3.8c0.5,1.2,0.7,2.4,0.7,3.8
		c0,5.3-1.8,9.1-5.4,11.4c-3.6,2.3-9,3.5-16.4,3.5C92.5,262.8,92.4,262.6,92.2,262.2z M97.2,228.6l3.1,7.1l-3,4.5l-3.2-7L97.2,228.6
		z M119.3,209.2l-1,2.8L97,217l-0.1-0.2l1.1-2.8l21.2-5L119.3,209.2z M121.8,217.8l-1.8,9.4l-1.8-4.5L121.8,217.8z"/>
	<path class="st1" d="M119.3,256.2c0.6-3.3,1.3-6.5,2.2-9.8l0.8,0.7c-0.4,2-0.8,4-1.2,6c-0.4,2-0.7,3.9-0.9,5.7
		c-0.2,1.8-0.3,3.2-0.3,4.4c0,2,0.6,3.7,1.7,5.2c1.2,1.5,3,2.6,5.6,3.4c2.6,0.8,6,1.2,10.2,1.2c2.2,0,4.3-0.1,6.3-0.3
		c1.9-0.2,3.7-0.4,5.2-0.8c1.5-0.3,2.7-0.8,3.5-1.3c0.8-0.5,1.3-1.1,1.3-1.8c-0.2-0.9-0.9-1.7-2.2-2.4c-1.3-0.7-3-1.3-5-1.9
		c-2.1-0.6-4.4-1.1-7-1.6l2.7-6.3c3,1.1,5.5,2.2,7.4,3.3c1.9,1.1,3.3,2.3,4.2,3.7c0.9,1.4,1.4,3.1,1.4,5.2c0,2.7-0.7,5.1-2.2,7
		c-1.5,1.9-3.6,3.4-6.4,4.4c-2.8,1-6.1,1.5-10,1.5c-4.3,0-7.8-0.6-10.4-1.9c-2.6-1.3-4.5-3.1-5.7-5.6c-1.2-2.5-1.8-5.5-1.8-9.2
		C118.4,262.3,118.7,259.5,119.3,256.2z M140.9,254.4h18.2v8.4h-19.7l-0.8-0.9L140.9,254.4z"/>
	<path class="st1" d="M155.2,262.2c-0.1-0.4-0.2-0.9-0.3-1.6c-0.1-0.6-0.1-1.3-0.1-2c0-0.8,0.1-1.5,0.2-2.2c0.1-0.6,0.2-1.1,0.3-1.5
		c0.1-0.4,0.2-0.6,0.3-0.6c4.3,0,8-0.1,11.1-0.4c3-0.3,5.3-0.8,6.9-1.4c1.6-0.6,2.4-1.4,2.4-2.4c0-0.6-0.3-1.2-0.8-2
		c-0.5-0.8-1.3-1.7-2.4-2.6c-1-1-2.3-2.1-3.8-3.3c-1.5-1.2-3.3-2.6-5.3-4.1c-2-1.5-4.2-3.1-6.6-4.9c0.6-2.3,1.3-4.2,2.2-5.8
		c0.8-1.5,1.8-2.8,3-3.7c1.1-0.9,2.5-1.5,4-1.9l18.5-4.3l0.2,0.2l-1.6,7.6l-9.9,1.4c-2.2,0.3-4.1,0.7-5.6,1c-1.5,0.3-2.7,0.7-3.6,1
		c-0.9,0.3-1.6,0.7-2.2,1.1c3.1,2.3,5.6,4.2,7.6,5.9c2,1.7,3.6,3.2,4.7,4.6c1.1,1.3,2,2.6,2.4,3.8c0.5,1.2,0.7,2.4,0.7,3.8
		c0,5.3-1.8,9.1-5.4,11.4c-3.6,2.3-9,3.5-16.4,3.5C155.4,262.8,155.3,262.6,155.2,262.2z M160.1,228.6l3.1,7.1l-3,4.5l-3.2-7
		L160.1,228.6z M168.5,234.9c2,1.6,3.8,3.3,5.4,4.9c1.6,1.6,3,3.4,4.1,5.2c1.2,1.8,2.3,3.3,3.5,4.5c1.2,1.2,2.4,2.2,3.7,2.9
		c1.3,0.7,2.8,1.2,4.4,1.6c1.6,0.3,3.4,0.5,5.4,0.5v8.4c-2.6,0-4.9-0.4-6.8-1.1c-1.9-0.7-3.6-1.9-5.2-3.6c-1.5-1.7-3.1-4-4.6-6.9
		c-1-2-2.1-3.8-3.3-5.5c-1.2-1.7-2.5-3.3-4-4.8c-1.4-1.5-3-3-4.8-4.4c-1.7-1.4-3.7-2.9-5.8-4.4l1.3-2.4
		C164.3,231.6,166.5,233.2,168.5,234.9z M184.8,217.8l-1.8,9.4l-1.8-4.5L184.8,217.8z"/>
	<path class="st1" d="M195.8,275.4c-0.4,0.5-1,1-1.6,1.7c-0.6,0.6-1.2,1.1-1.8,1.6c-0.6-0.7-1.2-1.4-1.9-2.1c-0.7-0.7-1.5-1.4-2.3-2
		l3.9-4.2c0.7,0.5,1.3,1.1,2,1.7c0.6,0.6,1.2,1.1,1.6,1.6c0.4,0.5,0.6,0.7,0.6,0.9C196.5,274.6,196.2,274.9,195.8,275.4z
		 M194.3,256.4c0.1-0.6,0.2-1.1,0.3-1.5c0.1-0.4,0.2-0.5,0.3-0.5c3.1,0,5.6-0.4,7.5-1.2c1.9-0.8,3.5-2.2,4.7-4.1
		c1.2-1.9,2.3-4.4,3.2-7.6l0.8,0.6c-0.6,1.8-1,3.4-1.2,4.6c-0.3,1.2-0.4,2.3-0.4,3.2c0,1.1,0.3,2.1,1,2.7c0.7,0.7,1.8,1.1,3.3,1.4
		c1.5,0.3,3.6,0.4,6.1,0.4v8.4c-2.4,0-4.3-0.3-5.8-0.9c-1.5-0.6-2.7-1.5-3.7-2.6c-1-1.2-1.9-2.6-2.7-4.2c-1.7,2.2-3.5,4.1-5.6,5.6
		c-2.1,1.5-4.5,2.2-7.3,2.2c-0.1,0-0.2-0.2-0.3-0.6c-0.1-0.4-0.2-0.9-0.3-1.5c-0.1-0.6-0.2-1.3-0.2-2.1
		C194.2,257.8,194.2,257,194.3,256.4z M205.5,275.4c-0.4,0.5-1,1-1.6,1.7c-0.6,0.6-1.2,1.1-1.8,1.6c-0.6-0.7-1.2-1.4-1.9-2.1
		c-0.7-0.7-1.5-1.4-2.3-2l3.9-4.2c0.7,0.5,1.3,1.1,2,1.7c0.6,0.6,1.2,1.1,1.6,1.6c0.4,0.5,0.6,0.7,0.6,0.9
		C206.2,274.6,205.9,274.9,205.5,275.4z"/>
	<path class="st1" d="M219.4,256.4c0.1-0.6,0.2-1.1,0.3-1.5c0.1-0.4,0.2-0.6,0.3-0.6c4.4,0,7.6-0.2,9.7-0.7c2-0.5,3.1-1.3,3.1-2.4
		c0-1.3-0.4-2.8-1.2-4.5c-0.8-1.7-1.9-3.4-3.4-5.3l3.5-6.4h0.2c0.8,1.6,1.3,3.4,1.7,5.5c0.4,2,0.6,4.3,0.6,6.7
		c0,3.4-0.6,6.3-1.8,8.6c-1.2,2.3-2.9,4.1-5,5.3c-2.1,1.2-4.6,1.8-7.5,1.8c-0.1,0-0.2-0.2-0.3-0.6c-0.1-0.4-0.2-0.9-0.3-1.6
		c-0.1-0.7-0.1-1.3-0.1-2C219.2,257.8,219.3,257.1,219.4,256.4z M230.9,225.3c-0.4,0.5-1,1-1.6,1.7c-0.6,0.6-1.2,1.1-1.8,1.6
		c-0.6-0.7-1.2-1.4-1.9-2.1c-0.7-0.7-1.5-1.4-2.3-2l3.9-4.2c0.7,0.5,1.3,1.1,2,1.7c0.6,0.6,1.2,1.1,1.6,1.6c0.4,0.5,0.6,0.7,0.6,0.9
		C231.6,224.5,231.4,224.8,230.9,225.3z"/>
</g>
<g>
	<path class="st1" d="M196.3,57.1c-13.5-25.6-40.3-43.3-69.2-45.6c-17-1.2-34.9,0.9-50,9.1c15.2-8,33-9.8,49.9-8.4
		c28.4,2.6,54.6,20.5,67.5,45.8c20.6,38.8,6.7,87.5-28.8,110.6c1.2-2.2,1.8-4.3,2.5-6.1c4.9-12.5-10.9-17.6-16.5-19
		c-0.2-0.1-0.4-0.1-0.7-0.2c0,0-0.1,0-0.1,0c-0.7-0.2-1.1-0.2-1.1-0.2l0,0c-2.4-0.7-2.4-2.4-1.6-4.6c1.3-3.3,2.5-6.6,3.9-10
		c1.9-4.7,3.8-9.5,5.7-14.1c3.2-8.7,4.8-16,4.8-21.7c0-4.4-0.8-8.8-2.3-13.1c0.5-0.5,1.1-1,1.8-1.6c7.3-6.3,10.4-5.8,16-4.6
		c-0.5-1.7-3.2-6.1-10.7-7.4c-10.2-11.3-16.7-2.3-46.6-0.1C91,67.9,83,44.6,83,44.6c-0.7,5.8,2.2,25.5,28.4,29.4
		c20.9,3.1,33.5-3.5,37.7-6.2c-10.5,8.1-8.3,19.6-7,23.9c0.1,0.5,0.3,1,0.6,1.6c0,0,0,0.1,0,0.1l0,0c0.2,0.3,0.4,0.7,0.7,1.1
		c0.4,0.8,0.9,1.6,1.4,2.5c0.5,0.8,1,1.6,1.5,2.5c1,2.1,2.1,4.7,3.3,7.6c1,2.6,1.5,4.5,1.5,5.5c2.1,5.7-1.6,17-4.5,24.5l-5.9,11
		c-5.1,13.1,8.6,12.4,8.6,12.4s20.4,0.4,4.2,8.2c-40.1,19.4-98.6-6.8-121.8-56.7c2.4,36.9,43.5,81.3,101.8,73.2
		c10.9-1.8,18.1-4.4,23-7.2c1.5-0.6,2.5-1,2.5-1C202.3,155,219.6,99.5,196.3,57.1z"/>
	<path class="st1" d="M149.8,51.7c0.7,0.5,1.4,1.1,2,1.7c0.7,0.6,1.4,1.2,2,1.7c0.6,0.6,1.1,1,1.5,1.4c0.3,0.2,0.7,0.4,1.1,0.3
		c0.5,0,1.2-0.5,2.1-1.4c0.8-0.7,1.5-1.5,2.1-2.3c0.6-0.8,1.2-1.6,1.8-2.5c0.7-1.1,1.2-2.2,1.6-3.3c0.2-0.6,0.3-1.2,0.3-1.7
		c0-0.4-0.1-0.8-0.2-1.2c-0.2-0.8-0.5-1.6-1-2.3c-0.4-0.7-1-1.3-1.6-1.9c-0.6-0.6-1.2-1.1-1.9-1.6c-0.7-0.5-1.4-0.9-2-1.3
		c-0.5-0.3-0.8-0.4-1-0.5c-0.1,0-0.3,0.1-0.6,0.5l-7.9,12c-0.2,0.3-0.3,0.6-0.3,0.7c0,0.1,0.1,0.3,0.3,0.4
		C148.6,50.8,149.1,51.2,149.8,51.7z"/>
	<path class="st1" d="M97.1,73c10,13,30.7,10.9,40.7,3C113.3,82.4,97.1,73,97.1,73z"/>
	<path class="st1" d="M138.7,79.5c0,0-10.2,7.5-19.6,6.9C125.7,88.8,134.7,89.2,138.7,79.5z"/>
	<path class="st1" d="M140,122.5c-4.5-9-34.1-24.6-53.4-50s-8.7-51.8-8.7-51.8s-20.6,9.6-10.9,47C73.9,94.8,131.9,115.1,140,122.5z"
		/>
	<path class="st1" d="M140.9,132.7c0,0,0-7.4-8.1-11.2c-14.9-7-89.9-28.3-76-85.8c-7,13.7-15.3,29.9,1.1,54.5
		C82.2,119.6,131.8,118.5,140.9,132.7z"/>
	<path class="st1" d="M123.8,127.1c-18.4-3.7-55.8-14.3-72.7-38.3c0.5,31.2,50,41.4,60.3,42.9c10.3,1.5,27.8,4.5,30.7,9.7
		C142,141.4,142.2,130.8,123.8,127.1z"/>
</g>
</svg>
