<svg width="229" height="173" viewBox="0 0 229 173" fill="none" xmlns="http://www.w3.org/2000/svg">
<path d="M226.5 170.93C199.861 134.919 163.84 103.637 126.055 94.963C115.78 92.6044 65.7872 80.8389 65.7872 107.033C65.7872 119.578 76.1883 117.349 81.6747 113.422C92.4745 105.693 100.523 98.2646 108.066 84.6685C119.71 63.6822 132.51 29.8114 115.419 7.99185C108.043 -1.42507 93.9296 3.93135 87.058 10.8317C80.321 17.597 75.8378 26.2793 70.7767 35.1482C66.6631 42.3565 67.7676 41.6249 64.6055 33.5507C56.6689 13.285 31.411 -0.951276 27.0534 30.7109C24.6085 48.4754 28.9346 63.8988 32.9619 80.2312C34.4747 86.366 36.8201 97.0306 40.0522 101.885C43.5712 107.171 45.4774 98.7422 44.2538 94.2531C41.2118 83.0921 37.1042 78.2788 28.2351 78.2788C20.214 78.2788 9.57204 86.7103 9.06511 99.0454C8.78385 105.889 7.50332 104.215 5.78254 99.0454C4.44755 95.035 2.5 82.2232 2.5 86.6209C2.5 88.1703 2.56351 100.996 3.68174 101.885C7.66265 105.051 13.0689 105.109 17.3371 107.033" stroke="white" stroke-width="4" stroke-linecap="round"/>
</svg>
