<svg width="156" height="156" viewBox="0 0 156 156" fill="none" xmlns="http://www.w3.org/2000/svg">
<ellipse opacity="0.1" cx="78" cy="151.321" rx="78" ry="4.68" fill="#D1E1F2"/>
<path fill-rule="evenodd" clip-rule="evenodd" d="M121.142 25.887C121.176 23.6174 123.044 21.8056 125.314 21.8403C127.584 21.875 129.395 23.743 129.361 26.0126L129.231 34.4666C129.197 36.7362 127.329 38.548 125.059 38.5133C122.79 38.4786 120.978 36.6106 121.013 34.341L121.142 25.887ZM125.266 24.96C124.72 24.9516 124.27 25.388 124.261 25.9347L124.132 34.3887C124.124 34.9353 124.56 35.3853 125.107 35.3936C125.654 35.402 126.103 34.9656 126.112 34.4189L126.241 25.965C126.249 25.4183 125.813 24.9683 125.266 24.96ZM129.825 42.9633C129.86 40.6937 131.728 38.8819 133.998 38.9166L142.452 39.0458C144.721 39.0805 146.533 40.9485 146.498 43.2181C146.464 45.4877 144.596 47.2995 142.326 47.2648L133.872 47.1356C131.602 47.1009 129.791 45.2329 129.825 42.9633ZM133.95 42.0362C133.403 42.0279 132.953 42.4643 132.945 43.011C132.937 43.5576 133.373 44.0076 133.92 44.0159L142.374 44.1451C142.92 44.1535 143.37 43.7171 143.379 43.1704C143.387 42.6237 142.951 42.1738 142.404 42.1655L133.95 42.0362ZM34.6259 49.5509C35.8643 44.7208 40.2173 41.3431 45.2037 41.3431H115.477C120.464 41.3431 124.817 44.7208 126.055 49.5509L133.636 79.1161C134.002 80.5442 134.075 82.0316 133.851 83.4888L129.447 112.115C128.628 117.442 124.044 121.374 118.654 121.374H52.9794C49.7195 129.335 41.8946 134.943 32.7599 134.943C20.698 134.943 10.9199 125.165 10.9199 113.103C10.9199 102.667 18.2397 93.9408 28.0252 91.7779L26.8082 83.4422C26.5992 82.0112 26.6766 80.5531 27.0358 79.1523L34.6259 49.5509ZM31.1121 91.3245C31.6561 91.2839 32.2056 91.2632 32.7599 91.2632C44.8218 91.2632 54.5999 101.041 54.5999 113.103C54.5999 114.878 54.3883 116.603 53.989 118.254H118.654C122.504 118.254 125.778 115.445 126.363 111.64L130.767 83.0144L130.776 82.954L130.782 82.9178H107.519L100.925 92.1495C98.875 95.0192 95.5654 96.7224 92.0388 96.7224H69.6262C66.0996 96.7224 62.7901 95.0193 60.7403 92.1495L54.1462 82.9178H29.885L29.8954 82.9914L31.1121 91.3245ZM123.033 50.3258L130.59 79.7978H120.355V78.8128V78.7238V70.5116V68.8641V59.0028C120.355 54.695 116.862 51.2028 112.555 51.2028H48.1238C43.8159 51.2028 40.3238 54.695 40.3238 59.0028V68.8641V70.5116V78.7238V78.8128V79.7978H30.0912L37.6481 50.3258C38.5327 46.8757 41.642 44.4631 45.2037 44.4631H115.477C119.039 44.4631 122.148 46.8757 123.033 50.3258ZM117.235 62.6235C115.931 61.6443 114.311 61.0641 112.555 61.0641H48.1238C46.3678 61.0641 44.7474 61.6443 43.4438 62.6235V59.0028C43.4438 56.4181 45.5391 54.3228 48.1238 54.3228H112.555C115.139 54.3228 117.235 56.4181 117.235 59.0028V62.6235ZM43.4438 79.7978H54.9491C55.4529 79.7978 55.9256 80.0411 56.2185 80.4511L63.2791 90.336C64.7433 92.3859 67.1072 93.6024 69.6262 93.6024H92.0388C94.5578 93.6024 96.9218 92.3859 98.3859 90.336L105.447 80.4511C105.739 80.0411 106.212 79.7978 106.716 79.7978H117.235V78.9605L116.921 77.3188C116.881 77.1105 116.833 76.9055 116.778 76.704C116.024 75.1305 114.416 74.0438 112.555 74.0438H48.1238C45.9705 74.0438 44.1569 75.498 43.6114 77.4779C43.5854 77.6317 43.5639 77.7871 43.5469 77.944L43.4438 78.897V79.7978ZM14.0399 113.103C14.0399 102.765 22.4211 94.3833 32.7599 94.3833C43.0987 94.3833 51.4799 102.765 51.4799 113.103C51.4799 123.442 43.0987 131.823 32.7599 131.823C22.4211 131.823 14.0399 123.442 14.0399 113.103ZM28.8599 102.963C28.8599 100.809 30.606 99.0633 32.7599 99.0633C34.9138 99.0633 36.6599 100.809 36.6599 102.963V112.323C36.6599 114.477 34.9138 116.223 32.7599 116.223C30.606 116.223 28.8599 114.477 28.8599 112.323V102.963ZM32.7599 102.183C32.3291 102.183 31.9799 102.533 31.9799 102.963V112.323C31.9799 112.754 32.3291 113.103 32.7599 113.103C33.1907 113.103 33.5399 112.754 33.5399 112.323V102.963C33.5399 102.533 33.1907 102.183 32.7599 102.183ZM32.7599 127.143C30.606 127.143 28.8599 125.397 28.8599 123.243C28.8599 121.089 30.606 119.343 32.7599 119.343C34.9138 119.343 36.6599 121.089 36.6599 123.243C36.6599 125.397 34.9138 127.143 32.7599 127.143ZM31.9799 123.243C31.9799 123.674 32.3291 124.023 32.7599 124.023C33.1907 124.023 33.5399 123.674 33.5399 123.243C33.5399 122.813 33.1907 122.463 32.7599 122.463C32.3291 122.463 31.9799 122.813 31.9799 123.243Z" fill="#D1E1F2"/>
</svg>
