<svg width="48" height="48" viewBox="0 0 48 48" fill="none" xmlns="http://www.w3.org/2000/svg">
<path fill-rule="evenodd" clip-rule="evenodd" d="M44.8424 48H24.759V28.3586C25.0278 25.1931 25.504 22.2777 26.6719 20.1967C27.3661 20.5863 28.6052 22.309 28.9748 25.6423C29.8808 24.0063 30.9841 22.1722 32.9859 21.009C33.1208 24.6194 32.9059 25.9932 31.8941 28.5066C30.4737 32.0352 26.5648 32.8567 26.5648 32.8567V46.1942H43.0366C43.0366 35.3391 43.2414 24.482 43.0349 13.6288C43.0314 13.5199 43.0253 13.4114 43.0163 13.3028C42.9664 12.7787 42.8425 12.2655 42.6372 11.7802C42.1321 10.586 41.1668 9.61264 39.9814 9.09354L39.9798 9.09284C40.3376 8.54474 40.7033 8.05144 41.0651 7.60934C41.7129 7.93874 42.3081 8.37034 42.8225 8.88474C43.5494 9.61154 44.1109 10.4997 44.4525 11.4694C44.7121 12.2065 44.8375 12.9804 44.8424 13.7611V48ZM23.2406 48H3.15723V13.7611C3.16213 12.9804 3.28753 12.2065 3.54713 11.4694C3.88873 10.4997 4.45023 9.61154 5.17713 8.88474C5.69153 8.37034 6.28673 7.93874 6.93453 7.60934C7.29633 8.05144 7.66203 8.54474 8.01983 9.09284L8.01823 9.09354C6.83283 9.61264 5.86753 10.586 5.36243 11.7802C5.15713 12.2655 5.03323 12.7787 4.98333 13.3028C4.97433 13.4114 4.96823 13.5199 4.96473 13.6288C4.75823 24.482 4.96303 35.3391 4.96303 46.1942H21.4348V32.8567C21.4348 32.8567 17.5259 32.0352 16.1055 28.5066C15.0937 25.9932 14.8788 24.6194 15.0137 21.009C17.0155 22.1722 18.1188 24.0063 19.0248 25.6423C19.3944 22.309 20.6335 20.5863 21.3277 20.1967C22.4956 22.2777 22.9718 25.1931 23.2406 28.3586V48ZM31.5894 1.22864C31.5728 1.39294 31.5503 1.55674 31.5216 1.71984C31.4814 1.94834 31.4299 2.17464 31.368 2.39814C30.8586 4.23774 29.6746 5.80264 28.39 7.17794C28.1515 7.43324 27.9078 7.68364 27.6618 7.93164C27.4301 8.16514 27.1961 8.39644 26.9624 8.62784C27.3443 9.74844 27.785 10.8487 28.2795 11.9243C28.4811 12.3627 28.6921 12.7964 28.9109 13.2262C29.5314 12.2664 30.2174 11.3488 30.9596 10.4814C31.5253 9.82044 32.1248 9.18714 32.7566 8.58794C32.2779 7.67904 32.0034 6.67234 31.8287 5.66264C31.576 4.20124 31.5269 2.71014 31.5894 1.22864ZM16.4102 1.22864C16.4268 1.39294 16.4493 1.55674 16.478 1.71984C16.5182 1.94834 16.5697 2.17464 16.6316 2.39814C17.141 4.23774 18.325 5.80264 19.6096 7.17794C19.8481 7.43324 20.0918 7.68364 20.3378 7.93164C20.5695 8.16514 20.8035 8.39644 21.0372 8.62784C20.6553 9.74844 20.2146 10.8487 19.7201 11.9243C19.5185 12.3627 19.3075 12.7964 19.0887 13.2262C18.4682 12.2664 17.7822 11.3488 17.04 10.4814C16.4743 9.82044 15.8748 9.18714 15.243 8.58794C15.7217 7.67904 15.9962 6.67234 16.1709 5.66264C16.4236 4.20124 16.4727 2.71014 16.4102 1.22864Z" fill="#B27D53"/>
<path fill-rule="evenodd" clip-rule="evenodd" d="M42.9818 4.55519C39.8094 6.84139 36.0987 11.8376 35.6614 17.095C35.3053 21.3773 34.5736 23.2484 34.0272 24.0496C34.2693 22.6058 34.2678 20.6425 33.9967 19.0596C33.3904 19.3279 32.3842 19.9462 31.4629 20.8622C31.3484 20.4876 30.4083 18.5632 27.3114 19.4166C27.4604 18.9371 27.6247 18.4628 27.8075 17.9947C28.2448 16.875 28.7742 15.7915 29.3832 14.7543C29.3873 14.7476 29.3912 14.7409 29.395 14.7341C30.0506 13.6199 30.798 12.5594 31.6215 11.565C32.3218 10.7192 33.0794 9.91889 33.8905 9.17739C33.9148 9.15859 33.9377 9.13769 33.9591 9.11489C34.55 8.57909 35.1691 8.07449 35.8147 7.60629C37.6224 6.29539 39.6636 5.24999 41.8509 4.75539C42.225 4.67089 42.6021 4.60509 42.9818 4.55519ZM5.01855 4.55519C8.19095 6.84139 11.9017 11.8376 12.339 17.095C12.6951 21.3773 13.4268 23.2484 13.9732 24.0496C13.7311 22.6058 13.7326 20.6425 14.0037 19.0596C14.61 19.3279 15.6162 19.9462 16.5375 20.8622C16.652 20.4876 17.5921 18.5632 20.689 19.4166C20.54 18.9371 20.3757 18.4628 20.1929 17.9947C19.7556 16.875 19.2262 15.7915 18.6172 14.7543C18.6131 14.7476 18.6092 14.7409 18.6054 14.7341C17.9498 13.6199 17.2024 12.5594 16.3789 11.565C15.6786 10.7192 14.921 9.91889 14.1099 9.17739C14.0856 9.15859 14.0627 9.13769 14.0413 9.11489C13.4504 8.57909 12.8313 8.07449 12.1857 7.60629C10.378 6.29539 8.33675 5.24999 6.14945 4.75539C5.77535 4.67089 5.39825 4.60509 5.01855 4.55519ZM25.918 19.8861C25.5707 19.6322 25.0212 19.176 23.9875 19.1792C22.9537 19.1825 22.4175 19.6411 22.0824 19.8861C21.8244 18.2621 20.7577 16.314 19.8205 14.4305C20.2413 13.635 21.4994 10.869 21.8351 9.82179C22.7266 7.04109 23.5045 3.63249 24.0002 1.79459C24.4766 3.63759 25.255 7.16369 26.1653 9.82179C26.5216 10.8622 27.7591 13.635 28.1799 14.4305C27.2427 16.314 26.176 18.2621 25.918 19.8861ZM32.9309 3.22739C33.1708 1.32319 35.322 1.18269 36.6485 1.62689C38.5547 2.26529 39.2122 4.04589 37.6811 5.03469C36.9422 5.51189 36.1484 5.90119 35.4299 6.40259C34.8264 6.82379 34.2443 7.27519 33.6845 7.75299L33.6755 7.73329C33.0308 5.66069 32.7969 4.29069 32.9309 3.22739ZM15.0695 3.22739C14.8296 1.32319 12.6784 1.18269 11.3519 1.62689C9.44565 2.26529 8.78815 4.04589 10.3193 5.03469C11.0582 5.51189 11.852 5.90119 12.5705 6.40259C13.174 6.82379 13.7561 7.27519 14.3159 7.75299L14.3249 7.73329C14.9696 5.66069 15.2035 4.29069 15.0695 3.22739ZM25.4583 2.33879C25.2374 0.834591 26.8117 -0.146709 27.9378 0.0179909C28.6779 0.126191 30.6865 0.639091 30.1219 2.36189C29.9018 3.03359 29.5743 3.66849 29.1899 4.26089C28.5169 5.29789 27.673 6.20649 26.8076 7.08359C26.7226 7.16879 26.6374 7.25379 26.5522 7.33869C26.2175 6.21039 25.9414 5.06489 25.7215 3.90869C25.6223 3.38719 25.5354 2.86379 25.4583 2.33879ZM22.5421 2.33879C22.763 0.834591 21.1887 -0.146709 20.0626 0.0179909C19.3225 0.126191 17.3139 0.639091 17.8785 2.36189C18.0986 3.03359 18.4261 3.66849 18.8105 4.26089C19.4835 5.29789 20.3274 6.20649 21.1928 7.08359C21.2778 7.16879 21.363 7.25379 21.4482 7.33869C21.7829 6.21039 22.059 5.06489 22.2789 3.90869C22.3781 3.38719 22.465 2.86379 22.5421 2.33879Z" fill="black"/>
</svg>
