<svg width="48" height="48" viewBox="0 0 48 48" fill="none" xmlns="http://www.w3.org/2000/svg">
<path d="M14.186 16.416V30.43C23.165 30.2602 32.144 26.8255 41.1236 16.1047L41.0852 0.0666504C32.951 9.84575 24.1385 16.0947 14.186 16.416Z" fill="#1F1F48"/>
<path d="M33.287 41.971C33.287 45.2917 30.5786 48.0001 27.2576 48.0001C23.9369 48.0001 21.2285 45.2917 21.2285 41.971C21.2285 38.65 23.9369 35.9416 27.2576 35.9416C30.5786 35.9416 33.287 38.65 33.287 41.971Z" fill="#1F1F48"/>
<path fill-rule="evenodd" clip-rule="evenodd" d="M33.027 17.6367V31.6506C23.0748 31.9719 14.262 38.2209 6.12776 48L6.08936 31.962C15.069 21.2412 24.048 17.8065 33.027 17.6367Z" fill="#AFB2AE"/>
</svg>
