<svg width="48" height="48" viewBox="0 0 48 48" fill="none" xmlns="http://www.w3.org/2000/svg">
<path fill-rule="evenodd" clip-rule="evenodd" d="M7.64991 34.9634C4.52029 31.3519 2.59442 26.6938 2.50337 21.5923C2.29492 9.91778 11.7753 0.214107 23.6205 0.00335437L24.0752 0L24.3795 0.00335437C36.2242 0.214107 45.7051 9.91778 45.4966 21.5923C45.4056 26.6938 43.4797 31.3519 40.3501 34.9629C40.8858 35.2898 41.3497 35.7992 41.7048 36.5041C42.1082 37.2988 42.0862 38.2422 41.654 39.0059C40.9309 40.3043 40.1172 42.009 39.4137 43.4427C38.9312 44.4252 38.4927 45.2907 38.0571 45.8823C37.5717 46.5409 37.0312 46.9442 36.5007 47.1335C35.1753 47.6974 33.8546 47.9822 32.5392 47.9999C32.4525 48.0008 32.3662 47.9956 32.2809 47.9832C30.3397 47.7084 29.2323 46.8635 28.757 45.7065C27.2049 45.0943 25.6245 44.7622 24.0043 44.7607C24.0043 44.7607 23.9564 44.7607 23.9578 44.7607C22.3477 44.7679 20.7813 45.0995 19.2431 45.706C18.7677 46.8635 17.6603 47.7084 15.7191 47.9832C15.6333 47.9956 15.547 48.0008 15.4608 47.9999C14.1454 47.9822 12.8247 47.6974 11.4993 47.1335C10.9688 46.9442 10.4278 46.5409 9.94286 45.8823C9.5068 45.2907 9.06834 44.4252 8.58627 43.4427C7.88281 42.009 7.06913 40.3043 6.35178 39.0164C5.91284 38.2408 5.89225 37.2974 6.29238 36.5094C6.6489 35.8016 7.11369 35.2907 7.64991 34.9634ZM8.89056 35.2597C5.45858 31.6764 3.31656 26.8754 3.22216 21.5794C3.02042 10.2972 12.1865 0.923304 23.6334 0.720199L24.0805 0.716844L24.3666 0.720199C35.8135 0.923304 44.9796 10.2972 44.7778 21.5794C44.6834 26.8754 42.541 31.6764 39.109 35.2601C39.914 35.3834 40.5978 35.9039 41.0636 36.8281C41.3583 37.4083 41.343 38.0969 41.0253 38.658C40.2969 39.966 39.4765 41.6831 38.7678 43.1277C38.3078 44.0649 37.8937 44.8931 37.4778 45.458C37.0887 45.986 36.6646 46.3191 36.2391 46.4654C34.9975 46.9963 33.7612 47.2668 32.5297 47.283C32.4803 47.2835 32.4309 47.2807 32.382 47.2735C30.622 47.0245 29.6497 46.2651 29.3267 45.1636C27.5906 44.4381 25.8214 44.0453 24.0024 44.0439H23.9545C22.1489 44.052 20.3946 44.4443 18.6728 45.1636C18.3498 46.2651 17.378 47.0245 15.618 47.2735C15.5691 47.2807 15.5197 47.2835 15.4703 47.283C14.2383 47.2668 13.002 46.9963 11.7604 46.4654C11.3354 46.3191 10.9113 45.986 10.5222 45.458C10.1063 44.8931 9.69224 44.0649 9.23174 43.1273C8.52301 41.6831 7.70264 39.966 6.97762 38.6637C6.65704 38.0974 6.64171 37.4088 6.93498 36.8315C7.40171 35.9043 8.086 35.3834 8.89056 35.2597Z" fill="#E95B00"/>
<path fill-rule="evenodd" clip-rule="evenodd" d="M23.9504 43.0888C21.853 43.0983 19.8203 43.5887 17.8273 44.489C17.7392 45.5055 16.9581 46.1191 15.4831 46.3284C14.3599 46.3131 13.2328 46.0613 12.1005 45.5719C11.3918 45.3583 10.8105 44.1707 10.0927 42.7084C9.37675 41.2494 8.54773 39.5155 7.81217 38.1946C7.64924 37.9065 7.64109 37.5562 7.79108 37.2613C8.22954 36.3906 8.94882 36.0432 9.78741 36.2549C10.0045 36.3093 10.188 36.4541 10.291 36.6525C10.4142 36.89 10.5728 37.1958 10.5728 37.1958C11.4698 37.4897 12.3846 37.7268 13.3377 37.8419L13.4556 37.744C13.4298 37.7292 13.4053 37.7115 13.3809 37.6967C7.9569 34.2893 4.3016 28.3538 4.18037 21.5634C3.98773 10.8045 12.7345 1.87071 23.65 1.67668L24.087 1.67334C24.1742 1.67382 24.2619 1.67525 24.3491 1.67668C35.2652 1.87071 44.0119 10.8045 43.8192 21.5634C43.698 28.3538 40.0427 34.2893 34.6187 37.6967C34.5943 37.7115 34.5699 37.7292 34.544 37.744L34.6619 37.8419C35.615 37.7268 36.5298 37.4897 37.4268 37.1958C37.4268 37.1958 37.5854 36.89 37.7086 36.6525C37.8116 36.4541 37.9951 36.3093 38.2122 36.2549C39.0508 36.0432 39.7701 36.3906 40.2085 37.2613C40.3585 37.5562 40.3504 37.9065 40.1874 38.1946C39.4519 39.5155 38.6229 41.2494 37.9069 42.7084C37.1891 44.1707 36.6079 45.3583 35.8992 45.5719C34.7668 46.0613 33.6397 46.3131 32.5165 46.3284C31.0416 46.1191 30.2605 45.5055 30.1723 44.489C28.1635 43.5815 26.1145 43.0907 23.9998 43.0888H23.9504ZM10.8618 37.9662C10.8618 37.9662 11.387 39.4104 11.6692 40.1253C12.0348 41.0496 13.0536 43.5122 13.0536 43.5122C13.2922 44.0952 13.7772 44.5358 12.5279 45.191C12.5432 45.235 12.5581 45.278 12.5744 45.3358C13.3401 45.5858 14.0321 45.8219 14.7499 45.809C14.8362 45.7636 14.9239 45.7325 14.9972 45.7019L11.5748 38.6644C11.2149 37.9241 11.1181 37.885 10.8618 37.9662ZM37.1378 37.9662C37.1378 37.9662 36.6127 39.4104 36.3304 40.1253C35.9648 41.0496 34.946 43.5122 34.946 43.5122C34.7074 44.0952 34.2224 44.5358 35.4717 45.191C35.4564 45.235 35.4415 45.278 35.4252 45.3358C34.6595 45.5858 33.9675 45.8219 33.2497 45.809C33.1634 45.7636 33.0757 45.7325 33.0024 45.7019L36.4248 38.6644C36.7847 37.9241 36.8815 37.885 37.1378 37.9662ZM32.4887 37.1743C30.0841 35.873 27.0508 35.3598 23.9998 35.4453L23.8963 35.4429C19.5251 35.3392 15.2042 36.4699 12.7321 39.3927C12.6851 39.776 14.932 44.0407 15.4026 44.6587C15.6111 44.8599 15.6849 44.8876 15.8617 44.9134C17.9342 43.1605 20.9608 42.4183 23.9998 42.4603L24.0712 42.4594C27.0863 42.4302 30.0813 43.1738 32.138 44.9134C32.3148 44.8876 32.3886 44.8599 32.597 44.6587C33.0676 44.0407 35.3145 39.776 35.2675 39.3927C34.5162 38.5038 33.5938 37.7813 32.551 37.2083C32.5343 37.2326 32.4997 37.2704 32.447 37.3206C32.3095 37.4501 32.1576 37.5705 31.9913 37.6795C31.8236 37.7903 31.653 37.8783 31.4786 37.9461L31.0449 38.1244C30.8988 38.1684 30.7497 38.2133 30.6002 38.2577C30.4512 38.3041 30.3017 38.3423 30.1517 38.3738C30.1407 38.3767 30.1306 38.3796 30.121 38.382L29.9595 38.6224C29.8886 38.7351 29.8196 38.8479 29.7521 38.9621L29.6418 39.1629C29.5618 39.3019 29.4904 39.4453 29.4291 39.5954C29.3673 39.7449 29.3102 39.894 29.2566 40.0431L29.2556 40.0451C29.1876 40.2329 29.1612 40.381 29.1756 40.4905C29.1904 40.6004 29.2522 40.6749 29.362 40.7146C29.4013 40.7289 29.4386 40.7299 29.4732 40.7179C29.5072 40.706 29.5393 40.6873 29.5685 40.6625C29.5982 40.6376 29.6255 40.6094 29.65 40.5774C29.6749 40.5449 29.696 40.5153 29.7132 40.4881C29.7448 40.4431 29.7688 40.4255 29.7856 40.4355C29.8028 40.445 29.8043 40.4699 29.7899 40.5096C29.7511 40.5965 29.6993 40.6955 29.6347 40.8068C29.57 40.9182 29.4976 41.02 29.4171 41.1127C29.3371 41.2049 29.2527 41.2766 29.165 41.3272C29.0773 41.3779 28.9906 41.3879 28.9043 41.3569C28.8119 41.3234 28.7481 41.2713 28.7136 41.2011C28.6791 41.1308 28.6614 41.0525 28.6604 40.9664C28.66 40.8804 28.6719 40.7939 28.6954 40.7074C28.7194 40.6204 28.7429 40.5459 28.7654 40.4828L28.7664 40.4823C28.8052 40.3839 28.8497 40.2826 28.8991 40.1755C28.9489 40.068 28.9973 39.9633 29.0424 39.8591C29.0654 39.8157 29.0759 39.7856 29.074 39.7698C29.0716 39.754 29.0409 39.7684 28.981 39.8099C28.8176 39.9304 28.6561 40.0331 28.4975 40.121C28.3394 40.2075 28.1693 40.2759 27.9905 40.327C27.7255 40.404 27.4543 40.4422 27.1754 40.4408C26.897 40.4398 26.6172 40.4087 26.3349 40.3485C26.1164 40.3026 25.895 40.2434 25.6731 40.1688C25.4503 40.0948 25.2222 40.002 24.9889 39.8926C24.8858 39.8443 24.7962 39.7923 24.7176 39.7387C24.6405 39.6842 24.5777 39.6216 24.5317 39.5485C24.4852 39.4754 24.4546 39.3899 24.4416 39.2919C24.4287 39.1939 24.4387 39.0783 24.4718 38.9445C24.4943 38.8594 24.5264 38.7724 24.5667 38.6835C24.605 38.5956 24.6491 38.5115 24.6975 38.4317C24.7406 38.3605 24.7756 38.3304 24.8005 38.339C24.8245 38.348 24.8254 38.3958 24.8024 38.4799C24.7823 38.5588 24.7766 38.6314 24.7852 38.6983C24.7943 38.7653 24.8226 38.8274 24.8695 38.8862C24.9874 39.0257 25.1288 39.1342 25.2936 39.2116C25.459 39.2895 25.6252 39.3607 25.7929 39.4247C26.4001 39.6623 27.0714 39.7913 27.8051 39.8123C27.9536 39.8171 28.0998 39.8099 28.2426 39.7908C28.3868 39.7712 28.5263 39.7339 28.6633 39.6785C28.8727 39.5963 29.0481 39.483 29.188 39.3382C29.3284 39.192 29.3639 39.1638 29.4798 38.9703C29.5043 38.9239 29.5316 38.8842 29.5623 38.8513L29.8599 38.5468C29.9107 38.4957 29.9638 38.4455 30.0189 38.3963C30.0094 38.3891 30.0295 38.3605 30.0793 38.3093C30.144 38.2539 30.2087 38.197 30.2729 38.1383C30.3376 38.0795 30.41 38.0317 30.489 37.9968C30.5561 37.9691 30.6443 37.9337 30.7555 37.8912C30.8528 37.8539 31.3358 37.6828 31.4795 37.6255C31.7675 37.5093 32.0522 37.3817 32.3354 37.2412L32.4887 37.1743ZM35.6485 44.8178C35.4808 44.7385 35.2326 44.6032 35.2383 44.3112C35.6068 44.2013 36.075 44.1803 36.2556 44.7667C36.0755 44.899 35.7813 44.8804 35.6485 44.8178ZM12.3511 44.8178C12.5188 44.7385 12.767 44.6032 12.7608 44.3112C12.3928 44.2013 11.9246 44.1803 11.744 44.7667C11.9241 44.899 12.2183 44.8804 12.3511 44.8178ZM9.66714 36.7022C8.81945 36.435 8.18164 37.0993 8.35176 37.7746L11.5345 44.3256C11.8518 43.9366 12.1652 43.8969 12.4757 43.8783L9.66714 36.7022ZM38.3325 36.7022C39.1802 36.435 39.818 37.0993 39.6479 37.7746L36.4651 44.3256C36.1478 43.9366 35.8344 43.8969 35.5239 43.8783L38.3325 36.7022ZM29.6193 42.6099C29.6375 42.5602 29.7161 42.4728 29.8551 42.3471C29.994 42.2214 30.0769 42.1636 30.1033 42.1731C30.1895 42.2042 30.2581 42.2744 30.3084 42.3839C30.3582 42.4938 30.3692 42.5879 30.3405 42.6673C30.3141 42.7399 30.2437 42.8183 30.1292 42.9024C30.0142 42.986 29.9356 43.0204 29.8924 43.0051C29.8723 42.998 29.8191 42.9335 29.7314 42.8125C29.7012 42.7719 29.671 42.7313 29.6409 42.6902C29.6183 42.6601 29.6112 42.6329 29.6193 42.6099ZM17.4507 42.6916C17.4483 42.674 17.4818 42.5774 17.5518 42.4006C17.6217 42.2243 17.6673 42.1344 17.6883 42.1311C17.7473 42.1215 17.8225 42.1468 17.9145 42.2071C18.0065 42.2711 18.0578 42.3356 18.0684 42.4016C18.0808 42.478 18.0559 42.5817 17.9946 42.7122C17.9327 42.8393 17.8843 42.9057 17.8498 42.9115C17.8321 42.9139 17.8038 42.9034 17.7645 42.8795C17.7248 42.8556 17.6855 42.8302 17.6457 42.8049C17.5997 42.7872 17.5571 42.77 17.5168 42.7533C17.4765 42.7361 17.4545 42.7155 17.4507 42.6916ZM16.9662 42.101C16.9619 42.0732 16.9978 41.9643 17.075 41.7741C17.1517 41.5844 17.2005 41.4873 17.2211 41.484C17.2667 41.4773 17.3376 41.4979 17.4348 41.5466C17.5283 41.5958 17.5949 41.646 17.6352 41.6967C17.6716 41.6126 17.7099 41.528 17.7502 41.4434C17.8062 41.3239 17.8412 41.2637 17.8551 41.2613C17.9179 41.2513 18.0003 41.2775 18.1029 41.3397C18.2068 41.4085 18.2643 41.4792 18.2758 41.5523C18.2893 41.6355 18.2586 41.7454 18.1838 41.8816C18.111 42.0073 18.0554 42.0728 18.0171 42.079C17.9893 42.0833 17.9414 42.0642 17.8743 42.0216C17.7784 41.9585 17.6999 41.9136 17.639 41.8878C17.5422 42.1559 17.454 42.2959 17.374 42.3088C17.3601 42.3108 17.2892 42.2792 17.1608 42.2142C17.0328 42.1492 16.9676 42.1115 16.9662 42.101ZM31.3971 38.9163C31.4014 38.9124 31.4057 38.9081 31.41 38.9043C31.4273 38.8881 31.4412 38.878 31.4518 38.8742C31.4623 38.8709 31.4671 38.8761 31.4656 38.8904C31.4642 38.9053 31.4498 38.9335 31.4235 38.976C31.2615 39.247 31.1101 39.5256 30.9687 39.8128C30.5892 40.5836 30.8652 40.0183 30.6697 40.501V40.5014C30.6012 40.6897 30.5748 40.8388 30.5892 40.9488C30.604 41.0582 30.6659 41.1332 30.7756 41.1724C30.8149 41.1868 30.8523 41.1877 30.8863 41.1758C30.9208 41.1638 30.9529 41.1457 30.9821 41.1208C31.0118 41.096 31.0392 41.0673 31.0641 41.0353C31.0885 41.0028 31.1096 40.9731 31.1268 40.9459C31.158 40.901 31.1824 40.8833 31.1992 40.8933C31.2165 40.9034 31.2179 40.9277 31.2035 40.9679C31.1647 41.0544 31.1129 41.1538 31.0483 41.2646C30.9836 41.376 30.9112 41.4783 30.8307 41.5705C30.7502 41.6627 30.6663 41.7344 30.5787 41.7856C30.491 41.8357 30.4042 41.8458 30.318 41.8147C30.225 41.7813 30.1617 41.7296 30.1272 41.6594C30.0927 41.5887 30.075 41.5108 30.0745 41.4243C30.0736 41.3382 30.0851 41.2517 30.1091 41.1652C30.133 41.0787 30.156 41.0037 30.179 40.9411L30.1871 40.9335C30.2446 40.7762 30.3347 40.5774 30.4565 40.3375C30.7315 39.7951 30.3228 40.577 30.8609 39.5528C30.9074 39.4649 30.9639 39.3808 31.031 39.3C31.0698 39.2546 31.1173 39.2011 31.1724 39.1409L31.3971 38.9163ZM19.9089 39.3669C20.206 39.3273 20.494 39.2766 20.7734 39.2145C21.0528 39.1528 21.3278 39.0649 21.5986 38.9507C21.8391 38.8484 22.0711 38.7289 22.2939 38.5927C22.5162 38.4561 22.73 38.3112 22.9336 38.1578C23.2206 37.9418 23.489 37.7153 23.7387 37.4783C23.9878 37.2412 24.2437 37.0028 24.5049 36.7624C24.5825 36.6893 24.6606 36.62 24.7397 36.5545C24.8183 36.4885 24.9031 36.4269 24.9941 36.37C25.0785 36.3175 25.1384 36.3017 25.1738 36.3227C25.2093 36.3438 25.2107 36.3963 25.1777 36.48C25.1556 36.5435 25.1321 36.6095 25.1072 36.6778C25.0823 36.7457 25.0531 36.8087 25.0195 36.8675C25.0032 36.8986 24.985 36.9239 24.9649 36.943C24.9448 36.9621 24.9184 36.9813 24.8858 37.0009C24.8393 37.0257 24.7746 37.0773 24.6903 37.1543C24.6065 37.2317 24.4996 37.3325 24.3693 37.4558C24.2174 37.6011 24.0659 37.7488 23.915 37.8988C23.764 38.0489 23.6102 38.197 23.453 38.3428C23.2959 38.4885 23.1363 38.6305 22.9748 38.7676C22.8129 38.9058 22.6451 39.0343 22.4712 39.1543C21.7423 39.6646 20.9286 39.9906 20.0306 40.1325L19.4388 40.2128C19.274 40.2333 19.1346 40.2405 19.0191 40.2338C18.8926 40.2252 18.7675 40.2114 18.6429 40.1918C18.5188 40.1722 18.3976 40.1416 18.2806 40.0995C18.2351 40.0818 18.1987 40.068 18.1723 40.058C18.1455 40.0479 18.1215 40.0427 18.1 40.0427C18.0789 40.0427 18.0588 40.0513 18.0401 40.068C18.0214 40.0852 17.9974 40.1143 17.9682 40.154C17.9419 40.1903 17.9145 40.2319 17.8863 40.2792C17.858 40.3265 17.8244 40.3834 17.7851 40.4498C17.7104 40.565 17.6165 40.652 17.5024 40.7108C17.3888 40.7696 17.2624 40.7887 17.1234 40.7681C17.0467 40.7552 16.9767 40.7413 16.9135 40.7265C16.8507 40.7117 16.7793 40.7141 16.7007 40.7337C16.6284 40.7519 16.5594 40.7772 16.4932 40.8087C16.4266 40.8407 16.3629 40.8866 16.3006 40.9464C16.2072 41.0319 16.1458 41.0711 16.1161 41.0635C16.0864 41.0558 16.1017 40.9956 16.1621 40.8828C16.2306 40.7509 16.3107 40.6228 16.4031 40.4976C16.4961 40.3729 16.6006 40.2601 16.7166 40.1602C16.776 40.1077 16.8407 40.0594 16.9101 40.0145C16.9796 39.97 17.0549 39.9447 17.1363 39.939C17.2034 39.9356 17.2705 39.9423 17.3376 39.9605C17.4047 39.9781 17.4727 39.9906 17.5417 39.9973C17.6179 40.0068 17.6855 39.9982 17.7435 39.971C17.8015 39.9442 17.8532 39.9041 17.8982 39.8505C17.9505 39.7961 17.9965 39.7387 18.0372 39.679C18.0775 39.6193 18.1177 39.5595 18.1584 39.4998C18.2169 39.4195 18.2725 39.3655 18.3252 39.3373C18.3779 39.3096 18.4575 39.3067 18.5648 39.3287C18.8073 39.3722 19.0334 39.398 19.2433 39.4056C19.4532 39.4133 19.6756 39.4004 19.9089 39.3669ZM30.179 38.8904C30.1958 38.8441 30.2739 38.7581 30.4128 38.6324C30.5518 38.5072 30.6347 38.4489 30.6615 38.4584C30.7478 38.4895 30.8158 38.5598 30.8662 38.6697C30.9165 38.7791 30.927 38.8732 30.8983 38.9526C30.8719 39.0257 30.802 39.1031 30.6879 39.1853C30.5739 39.2675 30.4953 39.301 30.4522 39.2852C30.432 39.2785 30.3784 39.214 30.2911 39.0931C30.2595 39.0558 30.2288 39.0166 30.1986 38.9755C30.1771 38.9421 30.1709 38.9134 30.179 38.8904ZM32.5405 36.5822C32.9463 36.7547 34.0394 37.408 33.934 37.376C33.9896 37.3411 34.1386 37.246 34.1956 37.2107C39.4868 33.9218 43.0597 28.155 43.1771 21.5519C43.364 11.1414 34.9005 2.49771 24.3376 2.3099L23.9998 2.30702C23.8872 2.30702 23.7746 2.30799 23.662 2.3099C13.0991 2.49771 4.6356 11.1414 4.822 21.5519C4.93988 28.155 8.51276 33.9218 13.804 37.2107C13.861 37.246 13.9842 37.3249 14.0402 37.3598C14.0287 37.3239 15.0964 36.7093 15.2996 36.6592C15.1486 36.6276 15.0001 36.5846 14.8554 36.5297C14.3445 36.3361 13.896 36.0011 13.5241 35.6049C13.4422 35.5175 13.3631 35.4267 13.2884 35.3325C13.2122 35.2369 13.1398 35.1385 13.0732 35.0362L12.9966 34.911C12.8231 34.857 12.6549 34.7891 12.4934 34.705C12.0573 34.478 11.6855 34.1411 11.3826 33.7569C11.3328 33.6933 11.2844 33.6283 11.2379 33.5619C11.1608 33.452 11.0884 33.3383 11.0213 33.2216C10.9681 33.1289 10.9183 33.0343 10.8738 32.9368L10.7956 32.7576C10.8282 32.7509 10.8598 32.7447 10.8924 32.738C10.6236 32.6138 10.3706 32.457 10.1463 32.2639C9.77352 31.9433 9.48936 31.5304 9.28282 31.0869C9.2488 31.0138 9.21667 30.9392 9.18648 30.8642C9.13665 30.7395 9.09256 30.6123 9.05423 30.4833C9.02356 30.381 8.99672 30.2773 8.97564 30.1727L8.94115 29.9801L9.16779 29.9877C8.80936 29.7593 8.48497 29.4745 8.23579 29.1294C7.94827 28.7313 7.76759 28.264 7.67031 27.7846C7.6545 27.7058 7.64062 27.626 7.62864 27.5462C7.60947 27.4128 7.59606 27.279 7.58839 27.1447C7.58264 27.0382 7.58072 26.9311 7.58503 26.8241L7.59605 26.6291C7.655 26.6453 7.71441 26.6611 7.77335 26.6773C7.87063 26.7046 7.96646 26.738 8.06086 26.7744C8.14424 26.8064 8.22715 26.8413 8.30861 26.8785C8.27699 26.858 8.24584 26.837 8.21517 26.8154C8.14856 26.7696 8.08338 26.7218 8.01965 26.6721C7.63342 26.371 7.29464 26.0016 7.06559 25.5667C6.83701 25.1323 6.72392 24.6444 6.69517 24.156C6.69038 24.0757 6.68798 23.9949 6.68751 23.9142C6.68703 23.7794 6.69276 23.6451 6.70426 23.5113C6.71385 23.4047 6.7268 23.2986 6.74597 23.193L6.78478 23.0014C6.84085 23.0257 6.89739 23.0496 6.95345 23.074C7.04594 23.1146 7.13603 23.1615 7.2242 23.2107C7.33441 23.2719 7.53135 23.3947 7.52416 23.3875C7.4657 23.3316 7.4087 23.2738 7.35359 23.2145C7.02007 22.8566 6.74454 22.4379 6.58736 21.9724C6.43067 21.5075 6.3971 21.0076 6.44598 20.5216C6.45412 20.4413 6.46467 20.361 6.47713 20.2812C6.49821 20.1483 6.52505 20.0164 6.55811 19.886C6.58399 19.7823 6.61372 19.6795 6.64966 19.5787L6.71816 19.3956C6.76991 19.4281 6.82168 19.4611 6.87343 19.4936C6.95825 19.5486 7.0397 19.6088 7.11876 19.6714C7.22706 19.7565 7.33106 19.8472 7.43122 19.9419C7.47195 19.9815 7.51267 20.0212 7.55245 20.0623L7.55771 20.0499C7.48104 19.9505 7.40821 19.8477 7.34017 19.7421C7.29656 19.6742 7.25438 19.605 7.21461 19.5347C6.97309 19.1094 6.80155 18.6386 6.7565 18.1498C6.71194 17.6609 6.79486 17.1672 6.95538 16.7056C6.98174 16.6291 7.01047 16.5536 7.04114 16.4786C7.09193 16.3543 7.14896 16.232 7.21078 16.113C7.26061 16.0179 7.31333 15.9247 7.37132 15.8348L7.48009 15.6724C7.52322 15.7163 7.56587 15.7598 7.60851 15.8038C7.67848 15.8764 7.74366 15.9538 7.80643 16.0332C7.81458 16.0432 7.82271 16.0537 7.83085 16.0642C7.71537 15.68 7.65788 15.2781 7.68567 14.8776C7.71969 14.3878 7.88022 13.9137 8.11263 13.4831C8.15096 13.4119 8.19121 13.3417 8.23386 13.2728C8.30382 13.1581 8.37953 13.0468 8.46003 12.9388C8.52376 12.8532 8.59087 12.7691 8.66275 12.6898L8.79644 12.5469C8.83142 12.5966 8.86686 12.6468 8.90184 12.697C8.95935 12.7801 9.01158 12.8666 9.06045 12.9546L9.06239 12.9579C9.0437 12.5851 9.07819 12.2095 9.18505 11.8511C9.32497 11.3808 9.58568 10.9527 9.90674 10.5828C9.95945 10.5221 10.0145 10.4623 10.0706 10.404C10.1645 10.3075 10.2623 10.2153 10.3643 10.1273C10.4458 10.0576 10.5297 9.99016 10.6169 9.92851L10.7784 9.81764L10.8718 10.0466C10.9207 9.75695 11.0045 9.47404 11.1306 9.20833C11.3409 8.76436 11.6644 8.38156 12.0377 8.06472C12.0995 8.01263 12.1628 7.96198 12.2274 7.91323C12.3348 7.83199 12.446 7.75553 12.56 7.68432C12.6511 7.62745 12.744 7.57393 12.8399 7.52614L13.0167 7.44155C13.0311 7.50081 13.0459 7.56006 13.0603 7.61932C13.0833 7.71776 13.1001 7.81765 13.114 7.91705C13.1322 8.05325 13.1446 8.19088 13.1504 8.32804C13.1528 8.38491 13.1542 8.44177 13.1542 8.49864L13.181 8.48766C13.2577 8.29603 13.3574 8.11395 13.4839 7.95003C13.5203 7.90224 13.5596 7.85588 13.6003 7.81192C13.8356 7.55815 14.1332 7.36746 14.4504 7.23174C14.6062 7.16531 14.7677 7.11037 14.9325 7.07309L15.1343 7.03198C15.1333 7.09602 15.1319 7.16006 15.1304 7.2241C15.128 7.29674 15.1213 7.36939 15.1122 7.44155C15.1012 7.53187 15.0854 7.62171 15.0662 7.7106C14.9828 8.08814 14.8271 8.45612 14.5774 8.7548C14.4121 8.95265 14.2089 9.11562 13.9866 9.24609L13.9832 9.25755C14.0359 9.25229 14.0882 9.248 14.1409 9.24418C14.2219 9.23892 14.3033 9.23605 14.3848 9.23509C14.4183 9.23461 14.4183 9.23461 14.4514 9.23461C14.5693 9.23556 14.6867 9.23987 14.8041 9.2523L14.9986 9.27571C14.9776 9.33736 14.9569 9.399 14.9349 9.46065C14.8985 9.56101 14.8558 9.65946 14.8103 9.75599C14.7557 9.87117 14.6958 9.98443 14.6316 10.0943C14.5913 10.1636 14.5491 10.232 14.5046 10.2989C14.231 10.7132 13.8831 11.0855 13.459 11.3503C13.3032 11.4473 13.1384 11.529 12.9678 11.5968C12.952 11.6661 12.9338 11.735 12.9142 11.8033C12.8758 11.9352 12.8312 12.0657 12.7809 12.1937C12.7517 12.2683 12.7201 12.3424 12.687 12.415C12.4719 12.8843 12.1699 13.3206 11.7693 13.6513C11.6285 13.7679 11.4765 13.8707 11.3179 13.96C11.317 13.9806 11.3156 14.0007 11.3146 14.0207C11.306 14.1579 11.2911 14.2951 11.27 14.4308C11.2576 14.5101 11.2432 14.589 11.2264 14.6669C11.1191 15.172 10.9197 15.6633 10.6011 16.0733C10.4746 16.2358 10.3313 16.3844 10.1756 16.5187C10.1866 16.588 10.1952 16.6573 10.2019 16.7271C10.2158 16.8637 10.223 17.0014 10.2235 17.139C10.2239 17.2188 10.2225 17.2991 10.2187 17.3789C10.1933 17.8946 10.0749 18.4112 9.82622 18.8661C9.72079 19.0597 9.59332 19.2398 9.44957 19.4071L9.4994 19.5132C9.54157 19.605 9.57752 19.6996 9.61011 19.7952C9.65515 19.9251 9.69396 20.057 9.72654 20.1909C9.74571 20.2688 9.76249 20.3471 9.77734 20.4255C9.87222 20.933 9.87654 21.463 9.73997 21.9634C9.68055 22.1813 9.59524 22.3916 9.49078 22.5913L9.54974 22.6783C9.6058 22.7624 9.6561 22.8499 9.70402 22.9388C9.76871 23.0601 9.82815 23.1844 9.88182 23.3115C9.91296 23.3851 9.9422 23.4597 9.96903 23.5352C10.1435 24.0212 10.2321 24.5435 10.177 25.0592C10.1267 25.5275 9.96135 25.9782 9.73134 26.3873L9.59955 26.6066C9.61919 26.6253 9.63838 26.6439 9.65755 26.663C9.67048 26.6334 9.68294 26.6042 9.69636 26.5756C9.75194 26.4532 9.81281 26.3333 9.87942 26.2162C9.93213 26.123 9.98865 26.0317 10.05 25.9442L10.1645 25.7856C10.2057 25.831 10.2469 25.8764 10.2882 25.9218C10.3552 25.9968 10.4175 26.0766 10.4774 26.1579C10.5589 26.2687 10.6351 26.3839 10.706 26.502C10.7472 26.5703 10.787 26.6401 10.8244 26.7113C11.0654 27.1677 11.2269 27.6723 11.2446 28.1908C11.2494 28.3256 11.2446 28.4599 11.2312 28.5937L11.2432 28.565C11.2935 28.5994 11.3443 28.6339 11.3946 28.6683C11.4775 28.7261 11.5571 28.7892 11.6342 28.8546C11.7392 28.9435 11.8403 29.0377 11.9366 29.1361C11.9926 29.193 12.0473 29.2518 12.1 29.3125C12.4412 29.7005 12.7158 30.154 12.8538 30.6539C12.8796 30.7466 12.9002 30.8398 12.917 30.934C12.999 30.9679 13.079 31.0061 13.1581 31.0467C13.2812 31.1093 13.401 31.1777 13.5174 31.2513C13.585 31.2943 13.6516 31.3392 13.7173 31.3856C14.1303 31.68 14.496 32.0499 14.7451 32.4938C14.7964 32.5861 14.8429 32.6802 14.8846 32.7772C14.9455 32.7949 15.0058 32.8145 15.0657 32.8355C15.1961 32.8804 15.3245 32.932 15.45 32.9894C15.5229 33.0224 15.5952 33.0577 15.6662 33.095C16.1247 33.3344 16.545 33.6589 16.8545 34.0757C17.1401 34.4604 17.3265 34.9115 17.4348 35.3755C17.4531 35.4539 17.4689 35.5323 17.4828 35.6111C17.489 35.6451 17.4943 35.679 17.4995 35.7129L17.5096 35.7096C19.2711 35.0773 21.0183 34.7997 23.6236 34.7958C23.7487 34.7911 23.8743 34.7877 23.9998 34.7863L24.376 34.7958C27.2966 34.8001 29.1387 35.1485 31.1307 35.9543C31.1067 35.874 31.0866 35.7927 31.0698 35.7105C30.9936 35.3421 30.9845 34.954 31.0842 34.5894C31.1839 34.2243 31.3895 33.8945 31.6429 33.6159C31.756 33.4912 31.8797 33.3746 32.0138 33.2723L32.1801 33.1514C32.2055 33.2102 32.2314 33.269 32.2568 33.3273C32.2846 33.3946 32.309 33.463 32.3311 33.5323C32.3584 33.6193 32.3814 33.7067 32.401 33.7956C32.4326 33.9409 32.4537 34.0895 32.4619 34.2391C32.5088 34.2123 32.5563 34.1875 32.6047 34.1641C32.5347 33.8056 32.529 33.4295 32.6263 33.0754C32.7259 32.7108 32.931 32.3806 33.1845 32.1019C33.2981 31.9772 33.4217 31.8606 33.5559 31.7583L33.7222 31.6374C33.7476 31.6962 33.773 31.755 33.7984 31.8138C33.8266 31.8807 33.8511 31.9495 33.8726 32.0188C33.9 32.1053 33.9234 32.1932 33.9426 32.2821C33.9742 32.4274 33.9953 32.576 34.0034 32.7251C34.0106 32.7208 34.0183 32.717 34.0255 32.7127C33.9618 32.3657 33.9598 32.0035 34.0533 31.6618C34.1534 31.2967 34.3585 30.9669 34.612 30.6883C34.7256 30.5636 34.8487 30.447 34.9829 30.3447L35.1492 30.2238L35.2527 30.4675C35.2589 30.3978 35.2685 30.328 35.2824 30.2592C35.3552 29.8879 35.5359 29.5442 35.7683 29.2475C35.8723 29.1151 35.9873 28.9899 36.1133 28.8781L36.2705 28.7457L36.3826 28.9626C36.3812 28.9129 36.3817 28.8628 36.3841 28.8126C36.4023 28.435 36.5312 28.0685 36.7181 27.7416C36.8015 27.5954 36.8968 27.4549 37.0056 27.3263L37.1417 27.1724C37.1795 27.2241 37.2169 27.2762 37.2548 27.3278C37.2969 27.387 37.3353 27.4487 37.3717 27.5117C37.4172 27.5901 37.4589 27.6714 37.4972 27.7536C37.5595 27.8888 37.6127 28.0293 37.653 28.1732C37.6798 28.1488 37.7076 28.1254 37.7354 28.102C37.5476 27.8152 37.4076 27.4922 37.3588 27.1514C37.3051 26.7767 37.3616 26.393 37.4833 26.037C37.5375 25.8773 37.6046 25.7216 37.687 25.5744L37.7915 25.3975C37.838 25.4415 37.8849 25.485 37.9314 25.529C37.9841 25.5791 38.0339 25.6327 38.0814 25.6876C38.1408 25.756 38.1974 25.8276 38.2505 25.9012C38.3373 26.0221 38.4159 26.1502 38.4829 26.284L38.5194 26.2372C38.2913 25.9729 38.1082 25.6656 38.0152 25.3278C37.9151 24.9631 37.9232 24.5751 37.999 24.2066C38.033 24.0417 38.08 23.8788 38.1432 23.7225L38.2242 23.5342C38.2764 23.5715 38.3282 23.6093 38.3799 23.647C38.4384 23.69 38.4945 23.7368 38.5486 23.7856C38.6167 23.8463 38.6813 23.9098 38.7432 23.9767C38.7666 24.0016 38.8059 24.046 38.8088 24.0494C38.8088 24.0499 38.8093 24.0499 38.8088 24.0494C38.6981 23.9127 38.6032 23.7641 38.529 23.6045C38.3703 23.2609 38.3148 22.8766 38.3291 22.5005C38.3354 22.3323 38.3545 22.1641 38.3919 21.9997L38.4408 21.8004C38.4983 21.8291 38.5558 21.8578 38.6133 21.8864C38.6718 21.9165 38.7292 21.9495 38.7853 21.9849C38.7518 21.9433 38.7201 21.9008 38.6904 21.8563C38.4786 21.5428 38.3622 21.1725 38.3157 20.7992C38.2951 20.632 38.2874 20.4628 38.2975 20.2946L38.3138 20.09C38.3751 20.1091 38.4365 20.1282 38.4978 20.1474C38.5673 20.1698 38.6349 20.1961 38.702 20.2248C38.7853 20.2606 38.8673 20.3008 38.9473 20.3443C39.0786 20.415 39.2051 20.4962 39.3239 20.5875C39.3282 20.5665 39.333 20.545 39.3378 20.524C39.0853 20.3873 38.8538 20.2105 38.6693 19.9906C38.4259 19.7005 38.2716 19.344 38.1868 18.9775C38.149 18.8136 38.1236 18.6458 38.1159 18.4776L38.1116 18.2726C38.1743 18.285 38.2371 18.2979 38.2999 18.3103C38.3574 18.3228 38.4144 18.3376 38.4705 18.3543C38.4561 18.3414 38.4418 18.3285 38.4274 18.3151C38.1518 18.0556 37.9568 17.7197 37.8293 17.3655C37.7723 17.2069 37.7277 17.0434 37.7004 16.8771L37.6717 16.674C37.7354 16.6793 37.7996 16.6845 37.8634 16.6898C37.9357 16.6965 38.0081 16.7075 38.0795 16.7209C38.0948 16.7237 38.1101 16.7266 38.125 16.7295C38.1005 16.7137 38.0766 16.697 38.0526 16.6798C37.7459 16.4575 37.5092 16.1488 37.3377 15.8138C37.261 15.6637 37.1958 15.5075 37.1474 15.3459L37.0928 15.1481C37.1613 15.1452 37.2299 15.1414 37.2984 15.139L37.4604 15.1404C37.4378 15.1314 37.4153 15.1218 37.3933 15.1118C37.0482 14.9541 36.7555 14.6984 36.5207 14.4035C36.4157 14.2716 36.3208 14.1311 36.2413 13.9825L36.1488 13.7995C36.2154 13.7827 36.2815 13.7655 36.3481 13.7498C36.4238 13.7326 36.5604 13.7034 36.5604 13.7034C36.5101 13.6857 36.4603 13.6661 36.4114 13.6442C36.0899 13.5013 35.8095 13.2752 35.5781 13.0129C35.4664 12.8867 35.3644 12.751 35.2771 12.6066L35.1756 12.4284C35.2412 12.4083 35.3064 12.3878 35.3725 12.3687C35.3994 12.361 35.4262 12.3538 35.4535 12.3476C35.1209 12.2 34.8339 11.9624 34.5991 11.6876C34.4898 11.5596 34.3897 11.4224 34.3053 11.2762L34.2066 11.0965L34.3537 11.054C34.013 10.8982 33.7222 10.6468 33.4883 10.3567C33.3824 10.2258 33.2866 10.0857 33.2061 9.9376L33.1126 9.75505C33.1261 9.75122 33.1208 9.75265 33.1313 9.74978C32.8754 9.61788 32.6464 9.43485 32.4494 9.22649C32.3335 9.10367 32.2266 8.97176 32.1351 8.8303L32.0273 8.6554C32.092 8.63341 32.1566 8.61047 32.2218 8.58945C32.3234 8.55743 32.4269 8.53211 32.5314 8.51251C32.6905 8.48241 32.8519 8.4652 33.0134 8.46138H33.1366C33.08 8.34 33.0331 8.21383 32.9947 8.08623C32.9463 7.9247 32.9099 7.75935 32.8917 7.59161L32.8735 7.38754C32.9372 7.39615 33.0005 7.40475 33.0642 7.41288C33.1361 7.42387 33.208 7.4382 33.2784 7.4554C33.3671 7.47691 33.4548 7.50272 33.541 7.53187C33.7155 7.59161 33.886 7.66712 34.0456 7.76078C34.0504 7.58062 34.0744 7.40093 34.1141 7.22554C34.151 7.06115 34.2014 6.89913 34.2675 6.74429L34.3528 6.55744C34.404 6.59615 34.4548 6.63485 34.5061 6.67356C34.5636 6.718 34.6187 6.7658 34.6719 6.81503C34.7385 6.87715 34.8023 6.94214 34.8626 7.01C35.1291 7.30773 35.3414 7.6628 35.4324 8.05372C35.4377 8.07714 35.454 8.10964 35.454 8.10964L35.5024 8.01311L35.5958 7.84489C35.6437 7.88742 35.6917 7.92996 35.7396 7.97249C35.7932 8.02123 35.8445 8.07332 35.8939 8.12685C35.9552 8.19375 36.0137 8.264 36.0688 8.33616C36.2892 8.62529 36.4612 8.95839 36.5355 9.31538L36.6366 9.11896C36.6855 9.16005 36.7348 9.20115 36.7837 9.24225C36.8393 9.29004 36.8916 9.34023 36.9424 9.39232C37.0056 9.45779 37.066 9.52612 37.123 9.59685C37.3185 9.83962 37.4795 10.1154 37.5744 10.4126L37.7205 10.5311C37.7766 10.5775 37.8298 10.6272 37.8816 10.6783C37.9458 10.7424 38.0071 10.8098 38.0656 10.8795C38.3215 11.1863 38.5213 11.5481 38.5989 11.9419C38.6013 11.9529 38.6032 11.9639 38.6051 11.9749L38.6444 11.9056C38.6919 11.9481 38.7398 11.9906 38.7872 12.0336C38.8409 12.0829 38.8917 12.135 38.9406 12.189C39.0014 12.2563 39.0594 12.3266 39.1141 12.3992C39.3541 12.7185 39.5352 13.0903 39.5928 13.4874C39.6287 13.7364 39.6163 13.9902 39.5693 14.2368L39.5698 14.2353C39.6335 14.1321 39.7039 14.0327 39.7806 13.939L39.9148 13.7837C39.9531 13.8348 39.9915 13.8865 40.0298 13.9376C40.0724 13.9964 40.1117 14.0575 40.1491 14.1201C40.1956 14.198 40.2382 14.2783 40.2775 14.3605C40.4491 14.7209 40.5535 15.1204 40.531 15.5213C40.5253 15.6207 40.5123 15.7187 40.4927 15.8157L40.6446 15.679C40.6762 15.735 40.7078 15.7904 40.739 15.8463C40.774 15.9103 40.8051 15.9758 40.8339 16.0427C40.8698 16.1259 40.9024 16.2109 40.9307 16.2974C41.0553 16.6764 41.1075 17.086 41.0337 17.4807C41.0131 17.5901 40.9839 17.6977 40.946 17.8023L41.0241 17.7426L41.1813 17.6322C41.2062 17.691 41.2307 17.7502 41.2551 17.809C41.2824 17.8769 41.3059 17.9457 41.3265 18.015C41.3524 18.1025 41.3744 18.1904 41.3926 18.2793C41.4717 18.6707 41.475 19.0836 41.3557 19.4668C41.3035 19.6341 41.2292 19.7937 41.1386 19.9433L41.2661 19.864L41.4338 19.7698C41.4525 19.8315 41.4707 19.8926 41.4889 19.9538C41.5091 20.0236 41.5254 20.0948 41.5388 20.166C41.5555 20.2554 41.568 20.3452 41.5766 20.4355C41.6145 20.8327 41.5752 21.2441 41.4166 21.6131C41.3193 21.8391 41.1808 22.0446 41.016 22.2277L41.0222 22.2243C41.1367 22.1588 41.2561 22.101 41.3787 22.0527L41.5718 21.982C41.5804 22.0456 41.5886 22.1091 41.5967 22.1722C41.6054 22.2444 41.6097 22.317 41.6116 22.3897C41.614 22.4805 41.6121 22.5713 41.6063 22.6621C41.58 23.0602 41.475 23.4597 41.2589 23.7985C41.1224 24.0131 40.9455 24.199 40.7462 24.3572C40.8559 24.3185 40.9676 24.286 41.0811 24.2621L41.2834 24.2238C41.281 24.2879 41.279 24.3519 41.2767 24.4155C41.2733 24.4881 41.2656 24.5607 41.2556 24.6324C41.2431 24.7223 41.2263 24.8116 41.2057 24.9C41.1142 25.2886 40.9455 25.6661 40.6767 25.9648C40.4328 26.2367 40.1165 26.437 39.7801 26.5751C39.6987 26.6085 39.6163 26.6391 39.5319 26.6649C39.5319 26.6955 39.5309 26.7261 39.53 26.7567C39.6915 26.6759 39.8621 26.6133 40.036 26.566C40.199 26.522 40.3662 26.49 40.5344 26.4761L40.74 26.4632C40.7294 26.5263 40.7194 26.5894 40.7088 26.653C40.6964 26.7242 40.68 26.7954 40.6609 26.8652C40.6369 26.9531 40.6091 27.0396 40.5775 27.1246C40.4386 27.4984 40.2234 27.8515 39.9196 28.1149C39.6435 28.3543 39.3043 28.5139 38.953 28.609C38.8447 28.6386 38.734 28.6625 38.6229 28.6793C38.6138 28.7313 38.6032 28.783 38.5913 28.8346C38.7647 28.7863 38.9444 28.7567 39.1241 28.7433C39.1864 28.7385 39.2492 28.7361 39.3119 28.7352C39.3354 28.7347 39.3589 28.7347 39.3824 28.7347L39.6436 28.7505L39.8347 28.7748C39.8113 28.8393 39.7883 28.9039 39.7638 28.9679C39.702 29.1246 39.6239 29.2752 39.5352 29.4181C39.3359 29.7378 39.0747 30.0255 38.7503 30.2219C38.4259 30.4183 38.0493 30.5163 37.6731 30.545C37.6094 30.5497 37.5447 30.5526 37.4805 30.5536C37.4747 30.5693 37.4685 30.5846 37.4623 30.6004H37.4632C37.56 30.588 37.6578 30.5818 37.7555 30.5798L37.9443 30.5832C38.0497 30.5884 38.1552 30.5994 38.2596 30.6162L38.5165 30.6692L38.7015 30.7213C38.6689 30.7815 38.6368 30.8417 38.6032 30.9015C38.5198 31.0477 38.4202 31.1853 38.3114 31.3144C38.068 31.6016 37.7675 31.8486 37.4182 31.9958C37.1494 32.1086 36.859 32.1602 36.5676 32.166C36.6807 32.1755 36.7928 32.1913 36.904 32.2133C37.0161 32.2358 37.1278 32.2639 37.2366 32.3007L37.4301 32.3705C37.3932 32.4279 37.3568 32.4862 37.319 32.543C37.2246 32.6831 37.1158 32.813 36.9979 32.9335C36.7344 33.2025 36.4167 33.4272 36.0573 33.5485C35.902 33.6011 35.7415 33.6336 35.579 33.6494C35.5738 33.6479 35.7285 33.6871 35.809 33.7144L36.0026 33.7841C35.9657 33.842 35.9293 33.8998 35.8915 33.9571C35.7971 34.0967 35.6883 34.2267 35.5704 34.3471C35.3064 34.6162 34.9891 34.8408 34.6297 34.9621C34.2703 35.0835 33.8812 35.0983 33.508 35.0448C33.4294 35.0334 33.3508 35.0195 33.2732 35.0018C33.2607 35.031 33.2473 35.0592 33.2339 35.0874L33.393 35.084C33.575 35.0859 33.7562 35.1055 33.9349 35.1409C34.0471 35.1633 34.1587 35.1915 34.2675 35.2279L34.4611 35.2976C34.4237 35.3555 34.3878 35.4133 34.3499 35.4706C34.2555 35.6107 34.1467 35.7406 34.0284 35.8611C33.7648 36.1301 33.4471 36.3543 33.0882 36.4761C32.9109 36.5359 32.7269 36.5698 32.5405 36.5822ZM16.027 36.3165C15.6705 36.2099 15.3288 36.0527 15.0274 35.8338C14.679 35.581 14.3925 35.2527 14.1634 34.89C13.9123 34.9077 13.6626 34.9488 13.4192 35.0114L13.4106 35.0133C13.5227 35.1677 13.6463 35.3134 13.7786 35.4501C13.8275 35.5012 13.8783 35.5504 13.9295 35.5987C14.2549 35.9017 14.6354 36.1526 15.059 36.294C15.2905 36.371 15.5315 36.4154 15.774 36.4331C15.7548 36.4422 15.924 36.3633 16.027 36.3165ZM31.8672 36.2472C31.9314 36.2601 31.9956 36.2702 32.0603 36.2783C32.389 36.3189 32.7307 36.3003 33.0427 36.1836C33.3053 36.0857 33.5401 35.9246 33.7432 35.7335C33.7878 35.6914 33.8309 35.6479 33.8726 35.603L34.0015 35.4534C33.9455 35.4391 33.8885 35.4271 33.8314 35.4166C33.6862 35.3903 33.5386 35.376 33.3906 35.3741C33.3805 35.3741 33.37 35.3741 33.3599 35.3741C33.2569 35.375 33.1538 35.3822 33.0522 35.3975C32.9976 35.4759 32.9372 35.5509 32.8716 35.6212C32.6219 35.8874 32.3014 36.0809 31.9621 36.2123L31.8672 36.2472ZM17.0208 35.8936C16.9049 35.6384 16.7645 35.3942 16.5963 35.1696C16.4295 34.9459 16.2354 34.7423 16.0126 34.5736C15.7548 34.3786 15.4615 34.2348 15.1553 34.1335C14.9977 34.0814 14.8362 34.0403 14.6733 34.0092C14.4615 33.9691 14.2463 33.9457 14.0307 33.938H14.0225C14.0235 33.9404 14.024 33.9433 14.0249 33.9461C14.0963 34.1416 14.1816 34.3318 14.2808 34.5148C14.3594 34.6596 14.4471 34.7997 14.5439 34.933C14.7327 35.193 14.9579 35.4281 15.2205 35.6145C15.462 35.786 15.7323 35.9146 16.0136 36.0078C16.1597 36.0561 16.3088 36.0948 16.4597 36.1249L16.6389 36.0489C16.4558 35.9251 16.2766 35.7956 16.0984 35.6651C15.8971 35.5141 15.6973 35.3607 15.5037 35.1992C15.3092 35.0381 15.1184 34.8723 14.9373 34.6917L14.9383 34.6907C15.1721 34.7944 15.3954 34.9134 15.6154 35.0372C15.8358 35.1605 16.0509 35.2919 16.2642 35.4252C16.4755 35.5614 16.6859 35.6991 16.8905 35.8448C16.9207 35.8663 16.9509 35.8878 16.9811 35.9093L17.0208 35.8936ZM31.8744 35.9347C31.8849 35.9304 31.8955 35.9261 31.9065 35.9218C32.2127 35.7966 32.5012 35.613 32.7159 35.3588C32.896 35.1452 33.0216 34.8895 33.104 34.6243C33.1222 34.5655 33.1385 34.5062 33.1529 34.447L33.1912 34.253L33.0024 34.3127C32.9444 34.3332 32.8874 34.3557 32.8309 34.3801C32.5596 34.4981 32.3047 34.6625 32.1058 34.8833C31.9075 35.1041 31.7718 35.375 31.6837 35.6565C31.6808 35.667 31.6774 35.6776 31.6741 35.6881C31.756 35.592 31.8413 35.4993 31.9281 35.4071C32.0445 35.2871 32.1629 35.1691 32.2889 35.0572C32.4144 34.9445 32.5448 34.8365 32.6885 34.7395L32.6895 34.7404C32.6167 34.8976 32.5304 35.0429 32.4394 35.1844C32.3483 35.3263 32.2506 35.462 32.1504 35.5958C32.0608 35.711 31.9702 35.8252 31.8744 35.9347ZM32.1739 34.4279C32.1772 34.2807 32.1653 34.133 32.1413 33.9887C32.1312 33.928 32.1193 33.8678 32.1049 33.8085L32.0526 33.6178L31.9103 33.7555C31.8682 33.7994 31.827 33.8453 31.7877 33.8921C31.5979 34.1187 31.4436 34.3796 31.3655 34.6659C31.2874 34.9516 31.2874 35.2546 31.3353 35.5457C31.3444 35.5997 31.3684 35.7005 31.3684 35.7005C31.3698 35.6957 31.3712 35.6905 31.3722 35.6857C31.4695 35.322 31.6357 34.9712 31.8892 34.6893C31.9741 34.5947 32.068 34.5091 32.1686 34.4317L32.1739 34.4279ZM17.1732 35.5428C17.1344 35.3526 17.0817 35.1653 17.0137 34.9832C16.9164 34.7222 16.787 34.4723 16.6202 34.2487C16.4281 33.9896 16.187 33.7688 15.9211 33.5863C15.7788 33.4883 15.6292 33.4009 15.4745 33.323C15.2881 33.2293 15.0949 33.15 14.8966 33.085L14.8884 33.0821C14.8889 33.0855 14.8889 33.0878 14.8889 33.0907C14.9023 33.2986 14.9306 33.505 14.9747 33.7086C14.98 33.7335 14.9857 33.7583 14.9914 33.7827C15.3547 33.8764 15.7054 34.0193 16.0198 34.2238C16.0941 34.2721 16.166 34.3237 16.235 34.3782C16.4329 34.5344 16.6097 34.7156 16.7659 34.9125C16.9216 35.1089 17.0568 35.3211 17.1732 35.5428ZM33.4088 34.7337C33.473 34.7461 33.5372 34.7562 33.6019 34.7643C33.9306 34.8049 34.2723 34.7863 34.5847 34.6697C34.8468 34.5722 35.0821 34.4107 35.2848 34.22C35.3294 34.1779 35.3725 34.134 35.4142 34.089L35.5431 33.9395C35.4794 33.9232 35.4147 33.9098 35.3495 33.8988C35.2115 33.8749 35.0721 33.862 34.9321 33.8606H34.9015C34.7984 33.8611 34.6959 33.8687 34.5943 33.884C34.5392 33.9624 34.4793 34.0369 34.4132 34.1072C34.1635 34.3739 33.8434 34.5674 33.5037 34.6984C33.4725 34.7108 33.4409 34.7222 33.4088 34.7337ZM13.4048 34.7151C13.4897 34.6945 13.679 34.6577 13.6952 34.6549C13.333 34.4972 12.9932 34.2854 12.7076 34.0116C12.3971 33.7139 12.1584 33.3492 11.9816 32.9583C11.9246 32.9545 11.8676 32.9521 11.811 32.9507C11.7708 32.9497 11.7305 32.9493 11.6908 32.9493C11.5441 32.9502 11.398 32.9583 11.2518 32.9736L11.2188 32.9774C11.2327 33.0028 11.2465 33.0281 11.2604 33.053C11.4397 33.3684 11.6577 33.6632 11.916 33.9194C12.1201 34.1215 12.3506 34.2993 12.6046 34.435C12.8552 34.5688 13.1269 34.6596 13.4048 34.7151L13.4034 34.7156L13.4048 34.7151ZM14.4102 33.6752C14.2496 33.3588 14.0422 33.0654 13.78 32.8245C13.5572 32.619 13.2989 32.4537 13.0253 32.3237C12.7023 32.1708 12.3569 32.0647 12.0056 32.0016L11.9725 31.9963C11.9735 31.9987 11.974 32.0016 11.9745 32.0044C12.0181 32.208 12.076 32.4083 12.1494 32.6028C12.2073 32.7571 12.2749 32.9077 12.3525 33.053C12.4992 33.3287 12.6837 33.5858 12.9094 33.8023C13.1355 34.0188 13.4001 34.1927 13.6818 34.3289C13.7571 34.3653 13.8337 34.3987 13.9114 34.4303C13.8682 34.338 13.828 34.2448 13.7906 34.1502C13.757 34.0637 13.7019 33.8979 13.7038 33.9031C13.5553 33.7545 13.4087 33.6035 13.2668 33.4477C13.0962 33.2618 12.93 33.0711 12.7757 32.868L12.7766 32.8666C12.9937 33.0018 13.1988 33.15 13.3996 33.3029C13.5476 33.4147 13.6919 33.5304 13.8347 33.6479L13.9468 33.646C14.1016 33.6475 14.2564 33.6575 14.4102 33.6752ZM33.46 34.403C33.7619 34.2778 34.0456 34.0957 34.2574 33.8448C34.4376 33.6317 34.5631 33.376 34.646 33.1103C34.6642 33.052 34.6801 32.9927 34.6944 32.933L34.7333 32.7394L34.544 32.7987C34.4865 32.8193 34.429 32.8417 34.3729 32.8661C34.1017 32.9841 33.8463 33.1485 33.6479 33.3693C33.5003 33.5332 33.3872 33.7253 33.3029 33.9285L33.4615 33.9017L33.4696 33.8936C33.5861 33.7731 33.7044 33.6551 33.8309 33.5433C33.9565 33.431 34.0868 33.3225 34.2301 33.2255L34.2315 33.2264C34.1587 33.3837 34.072 33.5289 33.9809 33.6704C33.8903 33.8128 33.7921 33.9485 33.692 34.0819C33.6191 34.176 33.5453 34.2692 33.4687 34.36C33.4658 34.3743 33.4629 34.3887 33.46 34.403ZM32.9588 34.0202C33.0594 33.7115 33.2133 33.4176 33.4308 33.1753C33.5176 33.0792 33.6129 32.9923 33.7155 32.9139C33.7188 32.7667 33.7068 32.6195 33.6829 32.4747C33.6733 32.414 33.6608 32.3543 33.6469 32.2945L33.5942 32.1043L33.4524 32.2415C33.4097 32.2859 33.3685 32.3313 33.3292 32.3786C33.1395 32.6047 32.9852 32.8661 32.9071 33.1519C32.8289 33.4381 32.829 33.7407 32.8769 34.0322L32.8797 34.0479L32.9588 34.0202ZM14.5932 32.8384C14.5549 32.7533 14.5118 32.6702 14.4643 32.5894C14.3062 32.3208 14.0997 32.0823 13.8668 31.8754C13.5936 31.6326 13.2841 31.431 12.9563 31.2704L12.9486 31.2671C12.9482 31.2699 12.9482 31.2728 12.9477 31.2757C12.9319 31.4898 12.9319 31.7053 12.9491 31.9199C12.9506 31.938 12.9525 31.9567 12.9539 31.9748C13.3646 32.143 13.7489 32.3786 14.0628 32.6926C14.2942 32.9239 14.4844 33.193 14.6373 33.4811L14.6067 33.2216C14.5971 33.1151 14.5932 32.8384 14.5932 32.8384ZM34.8799 33.3282C34.9293 33.3368 34.9796 33.3445 35.0294 33.3507C35.3581 33.3913 35.6998 33.3727 36.0122 33.2561C36.2743 33.1586 36.5096 32.997 36.7123 32.8064C36.7569 32.7643 36.8 32.7203 36.8417 32.6754L36.9706 32.5258C36.9069 32.5096 36.8422 32.4962 36.777 32.4852C36.639 32.4613 36.4996 32.4484 36.3597 32.447C36.3496 32.447 36.339 32.447 36.329 32.447C36.2259 32.4475 36.1234 32.4551 36.0218 32.4699C35.9667 32.5488 35.9068 32.6233 35.8407 32.6936C35.591 32.9602 35.2709 33.1538 34.9312 33.2847C34.9173 33.29 34.9034 33.2957 34.8895 33.3005C34.8861 33.3096 34.8828 33.3187 34.8799 33.3282ZM34.9834 32.3915C35.0725 32.3017 35.1631 32.2138 35.2585 32.1297C35.3835 32.0174 35.5139 31.9089 35.6576 31.8119L35.6591 31.8128C35.5857 31.97 35.4995 32.1153 35.4084 32.2568C35.3179 32.3987 35.2196 32.5344 35.1195 32.6682C35.086 32.7113 35.0529 32.7538 35.0189 32.7963C35.0107 32.846 35.0011 32.8948 34.9906 32.944C35.2537 32.8217 35.4976 32.6534 35.6849 32.4312C35.8651 32.2176 35.9907 31.9624 36.0736 31.6967C36.0913 31.6379 36.1076 31.5791 36.122 31.5194L36.1603 31.3258L35.9715 31.3851C35.9135 31.4056 35.8565 31.4281 35.8004 31.4525C35.5287 31.5705 35.2738 31.7349 35.0754 31.9557C34.9479 32.0972 34.8468 32.2592 34.7668 32.4312L34.9834 32.3915ZM11.5762 32.6606C11.1593 32.3944 10.7836 32.0541 10.5139 31.6374C10.2805 31.2766 10.1315 30.8671 10.0491 30.446C9.81665 30.3748 9.57704 30.3246 9.33553 30.295L9.30245 30.2912C9.30341 30.2936 9.30389 30.2964 9.30485 30.2993C9.359 30.5 9.4285 30.6969 9.51236 30.8876C9.57849 31.0381 9.6542 31.1849 9.7395 31.3258C9.90099 31.593 10.0994 31.8396 10.3366 32.0436C10.568 32.2429 10.834 32.3992 11.1143 32.5187C11.2451 32.5741 11.523 32.6625 11.523 32.6625C11.5408 32.6616 11.5585 32.6611 11.5762 32.6606ZM34.4093 32.5387C34.51 32.2549 34.6566 31.9863 34.8583 31.7617C34.9446 31.6656 35.0404 31.5786 35.143 31.5003C35.1463 31.3531 35.1343 31.2059 35.1104 31.0611C35.1003 31.0004 35.0884 30.9407 35.0745 30.8809L35.0217 30.6902L34.8799 30.8279C34.8373 30.8723 34.796 30.9177 34.7567 30.9645C34.567 31.1911 34.4127 31.452 34.3346 31.7383C34.2593 32.0126 34.2565 32.3022 34.2986 32.5822L34.4093 32.5387ZM12.262 31.7574C12.2485 31.6981 12.2342 31.6398 12.2179 31.5815C12.1427 31.3134 12.0353 31.0534 11.8887 30.8159C11.7186 30.5416 11.4972 30.3017 11.248 30.0972C11.1143 29.9877 10.9725 29.8878 10.8253 29.7971C10.6476 29.6881 10.4616 29.5925 10.2695 29.5108L10.2618 29.5079C10.2618 29.5108 10.2618 29.5132 10.2618 29.516C10.257 29.7244 10.2675 29.9323 10.2944 30.1387C10.3155 30.3022 10.3466 30.4642 10.3883 30.6233C10.4707 30.9335 10.5958 31.2341 10.7731 31.5022C10.9413 31.7555 11.1531 31.9777 11.3894 32.1689C11.5163 32.2721 11.7871 32.4422 11.7871 32.4422C11.7598 32.3538 11.7358 32.2644 11.7142 32.1746C11.7032 32.1282 11.6927 32.0814 11.6831 32.0346C11.6467 31.9782 11.6103 31.9213 11.5739 31.8649C11.4411 31.6518 11.3103 31.4367 11.1876 31.2164C11.0645 30.9966 10.9466 30.7729 10.8431 30.5397L10.844 30.5387C11.0242 30.7203 11.19 30.911 11.3505 31.1055C11.5063 31.2933 11.6543 31.4859 11.8 31.6804L11.629 31.6656L11.812 31.6814C11.9126 31.6909 12.0128 31.7067 12.112 31.7258C12.1623 31.7354 12.2121 31.7459 12.262 31.7574ZM36.3496 31.7899L36.3232 31.8692C36.3419 31.8706 36.3601 31.8716 36.3788 31.8725C36.7095 31.8893 37.0487 31.8463 37.3516 31.7072C37.606 31.5911 37.8289 31.4128 38.0172 31.2078C38.0589 31.1629 38.0986 31.116 38.137 31.0683L38.2548 30.9096C38.1197 30.8857 37.9831 30.8738 37.8466 30.8704C37.8226 30.8699 37.7987 30.8699 37.7747 30.8699C37.6166 30.8718 37.4579 30.8881 37.3041 30.9225C37.2548 31.0047 37.2006 31.084 37.1402 31.1586C36.9284 31.42 36.6529 31.624 36.3534 31.7765L36.3496 31.7899ZM12.6606 31.214C12.6453 31.051 12.6166 30.889 12.573 30.7313C12.4853 30.4126 12.3348 30.1139 12.147 29.8429C12.053 29.7072 11.9495 29.5782 11.8388 29.4563C11.6989 29.3019 11.5475 29.1581 11.386 29.0262L11.3793 29.021C11.3783 29.0238 11.3774 29.0267 11.3764 29.0291C11.3136 29.2274 11.2657 29.4305 11.2331 29.636C11.2293 29.6613 11.2255 29.6862 11.2221 29.7115C11.583 29.9691 11.903 30.2859 12.1364 30.6635C12.3587 31.0224 12.4992 31.4267 12.5763 31.8405C12.6022 31.8487 12.6276 31.8563 12.6535 31.8649C12.6511 31.8329 12.6496 31.8013 12.6482 31.7693C12.6429 31.635 12.6434 31.5003 12.6501 31.3665C12.6525 31.3153 12.6558 31.2647 12.6606 31.214ZM36.4737 31.1571L36.4454 31.3889C36.6452 31.2604 36.8254 31.1008 36.9653 30.9082C37.1297 30.6821 37.2361 30.4183 37.2994 30.1473C37.3132 30.0876 37.3252 30.0279 37.3348 29.9672L37.3593 29.7712L37.1752 29.8444C37.1192 29.8687 37.0636 29.8955 37.009 29.9237C36.7473 30.0608 36.5044 30.2434 36.3227 30.478C36.1867 30.6534 36.0879 30.8537 36.0185 31.064C36.0707 31.0482 36.1239 31.0339 36.1766 31.0214L36.1833 31.0138C36.2906 30.8857 36.4004 30.7591 36.5183 30.6382C36.6347 30.5172 36.7569 30.3997 36.8935 30.2926L36.8944 30.2936C36.8331 30.4556 36.7574 30.6066 36.6769 30.7543C36.6141 30.8704 36.5465 30.9832 36.4771 31.0941L36.4737 31.1571ZM35.6806 31.1877C35.7578 30.869 35.8905 30.5607 36.0922 30.3003C36.1704 30.1999 36.2576 30.1077 36.352 30.0231L36.3568 30.0188C36.3501 29.8721 36.3271 29.7258 36.2926 29.583C36.2782 29.5237 36.2619 29.4644 36.2432 29.4061L36.1771 29.2202C36.1766 29.2207 36.1766 29.2207 36.1761 29.2212C36.1311 29.2685 36.0875 29.3172 36.0453 29.3674C36.0065 29.4147 35.9686 29.463 35.9327 29.5127C35.7602 29.7526 35.6255 30.0241 35.568 30.3146C35.511 30.6057 35.533 30.9082 35.6025 31.1949C35.6044 31.2035 35.6064 31.2116 35.6088 31.2202C35.6322 31.2092 35.6562 31.1982 35.6806 31.1877ZM25.6286 28.0365C26.9186 28.5072 28.2982 28.7199 29.6874 28.6525C28.0557 29.181 26.3862 29.2436 24.8202 28.9149L24.8072 29.237L23.9998 30.3452L23.1924 29.237L23.1794 28.9149C21.6134 29.2436 19.9434 29.181 18.3122 28.6525C19.7009 28.7199 21.081 28.5072 22.371 28.0365C20.2583 26.933 18.5595 25.0358 17.7636 22.5952C16.5843 18.9784 17.6994 15.009 20.5913 12.5287C17.4488 17.1648 18.5801 23.4267 23.0884 26.6902L22.775 18.9622V12.8829C23.2633 12.6492 23.685 12.296 23.9998 11.8568C24.3146 12.296 24.7363 12.6492 25.2241 12.8829V18.9622L24.9112 26.6902C29.419 23.4267 30.5508 17.1648 27.4083 12.5287C30.3002 15.009 31.4153 18.9784 30.236 22.5952C29.4401 25.0358 27.7413 26.933 25.6286 28.0365ZM37.5715 30.2601C37.6161 30.2582 37.6602 30.2549 37.7043 30.2506C38.0339 30.2195 38.3631 30.1273 38.643 29.9462C38.8778 29.7942 39.0719 29.5858 39.2286 29.3555C39.2631 29.3048 39.2957 29.2532 39.3268 29.2002L39.4202 29.0262C39.3925 29.0252 39.3652 29.0253 39.3374 29.0253C39.2822 29.0257 39.2271 29.0272 39.172 29.031C38.9372 29.0463 38.7015 29.0917 38.4815 29.1763L38.4791 29.182C38.4432 29.2685 38.4015 29.3531 38.3536 29.4338C38.1676 29.7478 37.8969 30.0064 37.5941 30.2076L37.5826 30.2152C37.5792 30.23 37.5754 30.2453 37.5715 30.2601ZM8.56497 27.3392C8.54005 27.3244 8.51468 27.3101 8.48928 27.2957C8.2952 27.1873 8.09202 27.0945 7.88309 27.0181L7.87493 27.0152C7.87493 27.0181 7.87495 27.0209 7.87543 27.0238C7.88118 27.2317 7.90275 27.4391 7.94012 27.6436C7.96935 27.8057 8.00865 27.9662 8.05849 28.123C8.15385 28.4202 8.28896 28.706 8.47249 28.9598C8.65075 29.2068 8.87312 29.4205 9.11799 29.6016C9.26414 29.7096 9.41891 29.8066 9.57896 29.8926C9.56075 29.874 9.54206 29.8549 9.52385 29.8362C9.18506 29.4826 8.90281 29.0683 8.7394 28.6052C8.59612 28.2004 8.54676 27.7674 8.56497 27.3392ZM10.408 29.2542C10.4276 28.8465 10.3821 28.4341 10.2417 28.0494C10.1348 27.7569 9.97477 27.485 9.78357 27.2394C9.55883 26.9517 9.29097 26.6974 8.99722 26.4804L8.99049 26.4757C8.99002 26.4781 8.98905 26.4809 8.9881 26.4838C8.93539 26.685 8.89755 26.89 8.87502 27.0969C8.85777 27.2604 8.8501 27.4252 8.85394 27.5901C8.86113 27.9017 8.91 28.2143 9.01398 28.5086C9.11844 28.8035 9.27658 29.0773 9.46682 29.3249C9.56314 29.4501 9.6676 29.5686 9.77878 29.6809C9.84299 29.7454 9.90865 29.8076 9.9767 29.8678L9.9719 29.7631C9.88037 29.5352 9.79795 29.3039 9.71744 29.0721C9.63742 28.8336 9.56075 28.5947 9.49271 28.3519C9.42418 28.1096 9.36141 27.8649 9.31541 27.614L9.31637 27.6135C9.44959 27.8315 9.56649 28.0556 9.6767 28.2821C9.78835 28.5082 9.8909 28.7376 9.99009 28.9684C10.0121 29.0205 10.0337 29.0726 10.0553 29.1246L10.1779 29.1648C10.2556 29.1911 10.3322 29.2212 10.408 29.2542ZM37.6592 29.5806L37.6487 29.8057C37.849 29.6403 38.0234 29.442 38.1442 29.2116C38.2736 28.9641 38.3406 28.6874 38.3636 28.4102C38.3689 28.3495 38.3718 28.2878 38.3727 28.2267L38.3679 28.0298L38.1969 28.1282C38.1446 28.1607 38.0938 28.1951 38.044 28.2315C37.8049 28.4049 37.5912 28.6205 37.4455 28.879C37.3358 29.074 37.2668 29.2891 37.2289 29.5094L37.3655 29.463L37.3856 29.4291C37.4728 29.2867 37.5634 29.1457 37.6621 29.009C37.7603 28.8723 37.8638 28.7385 37.9832 28.6128L37.9841 28.6133C37.9472 28.7825 37.8945 28.9431 37.836 29.1012C37.7829 29.2479 37.722 29.3908 37.6583 29.5328L37.6592 29.5806ZM36.9165 29.6451C36.9491 29.3278 37.0348 29.0147 37.1915 28.7366C37.2552 28.6238 37.3295 28.5182 37.4129 28.4198C37.3842 28.2754 37.3405 28.134 37.2854 27.9978C37.2629 27.9409 37.238 27.885 37.2112 27.83L37.1187 27.6556L37.0094 27.82C36.9778 27.8726 36.9476 27.9261 36.9193 27.9806C36.7832 28.2425 36.6893 28.5306 36.6754 28.8264C36.6611 29.1208 36.7262 29.4147 36.835 29.6871L36.9165 29.6451ZM10.7386 29.4128C10.7856 29.2871 10.8263 29.1586 10.8589 29.0286C10.9293 28.75 10.9652 28.4618 10.9523 28.1741C10.9384 27.8611 10.8661 27.5524 10.7544 27.2604C10.6217 26.912 10.4348 26.5851 10.211 26.2874L10.1909 26.2611C10.1894 26.2635 10.188 26.2659 10.1866 26.2683C10.0792 26.4465 9.98482 26.6329 9.90527 26.825C9.89569 26.8484 9.88612 26.8723 9.87702 26.8962C10.1679 27.2303 10.4051 27.6126 10.5445 28.0341C10.6883 28.4685 10.7261 28.933 10.6912 29.388C10.6849 29.3846 10.717 29.4013 10.7386 29.4128ZM38.7379 28.3624C38.8021 28.349 38.8654 28.3328 38.9281 28.3141C39.2458 28.2214 39.5516 28.0685 39.7916 27.8382C39.9934 27.6446 40.1448 27.4033 40.255 27.1476C40.279 27.0917 40.301 27.0343 40.3216 26.9765L40.3801 26.7882L40.186 26.8274C40.1266 26.8417 40.0672 26.8585 40.0087 26.8766C39.8266 26.934 39.6493 27.0119 39.4869 27.1127C39.4677 27.2064 39.4423 27.2991 39.4102 27.3899C39.2875 27.733 39.0704 28.0379 38.8117 28.2926C38.7872 28.3165 38.7633 28.3399 38.7379 28.3624ZM38.4178 27.6838C38.4312 27.6451 38.4451 27.6064 38.459 27.5677C38.5179 27.4114 38.5797 27.2556 38.6507 27.1032C38.7211 26.9502 38.7978 26.7992 38.8907 26.6534L38.8922 26.6539C38.8879 26.8269 38.8663 26.9947 38.839 27.1605C38.8126 27.3268 38.7767 27.4902 38.7384 27.6527C38.712 27.755 38.6852 27.8568 38.6554 27.9581L38.6602 28.0322C38.884 27.799 39.069 27.5218 39.1625 27.2107C39.243 26.9435 39.2559 26.6592 39.2262 26.3825C39.2195 26.3218 39.2109 26.2611 39.1998 26.2009L39.1581 26.0078L39.0086 26.1373C38.9636 26.1789 38.92 26.2224 38.8783 26.2673C38.6761 26.4828 38.5074 26.7347 38.4135 27.0162C38.3373 27.2446 38.3119 27.4869 38.3219 27.7273L38.4274 27.68L38.4178 27.6838ZM38.0407 27.8831C38.0105 27.561 38.0344 27.2317 38.137 26.9239C38.1782 26.8016 38.2314 26.684 38.2942 26.5713C38.2386 26.4351 38.1686 26.3046 38.089 26.1813C38.056 26.1297 38.021 26.079 37.9841 26.0303L37.86 25.8764L37.7843 26.059C37.7632 26.1163 37.7436 26.1741 37.7263 26.2329C37.6425 26.5158 37.6051 26.8169 37.6472 27.1103C37.6894 27.4033 37.8102 27.6809 37.9702 27.929L38.0407 27.8831ZM30.433 26.8193C30.4272 26.8274 30.4215 26.8355 30.4157 26.8422C34.2052 24.6582 35.5019 19.8253 33.311 16.0475C32.2367 14.1947 30.4565 12.8552 28.3739 12.3357C32.9545 15.7684 33.8765 22.2535 30.433 26.8193ZM14.6881 16.0475C12.4977 19.8253 13.7944 24.6582 17.5839 26.8422C17.5781 26.8355 17.5724 26.8274 17.5666 26.8193C14.1232 22.2535 15.0447 15.7684 19.6253 12.3357C17.5432 12.8552 15.7625 14.1947 14.6881 16.0475ZM8.98859 26.1225C9.04706 26.1588 9.15056 26.2319 9.14577 26.2291C9.26892 25.7488 9.3063 25.2394 9.19801 24.7529C9.13379 24.4652 9.02071 24.1894 8.87599 23.9333C8.69629 23.6159 8.46866 23.3254 8.21037 23.0683L8.18689 23.0449C8.18593 23.0477 8.18451 23.0501 8.18355 23.053C8.10305 23.2446 8.03644 23.4425 7.98517 23.6441C7.94443 23.8038 7.91376 23.9658 7.89412 24.1292C7.8577 24.4389 7.86202 24.7552 7.92383 25.0616C7.98517 25.3679 8.10303 25.6613 8.25685 25.9333C8.33783 26.0766 8.4289 26.2143 8.52809 26.3462C8.57553 26.4092 8.62487 26.4709 8.67614 26.5316L8.69723 26.446C8.63781 26.2047 8.58799 25.9615 8.54055 25.7177C8.49503 25.4707 8.45237 25.2231 8.41979 24.9732C8.38576 24.7237 8.35844 24.4723 8.34789 24.2176L8.34936 24.2171C8.45047 24.4518 8.53431 24.6898 8.61194 24.9297C8.69053 25.1691 8.75906 25.4109 8.82519 25.6532C8.86304 25.7985 8.89994 25.9438 8.93492 26.0895L8.98859 26.1225ZM7.64396 23.8406C7.45372 23.6886 7.24913 23.5548 7.03541 23.4386L7.00616 23.4229C7.00616 23.4257 7.00567 23.4286 7.00519 23.4315C6.98123 23.6451 6.97357 23.8606 6.98267 24.0757C6.98938 24.2329 7.00569 24.3901 7.03204 24.5454C7.08571 24.8618 7.18347 25.172 7.33634 25.4554C7.47674 25.7158 7.66172 25.9505 7.87256 26.1579C8.00194 26.2855 8.14136 26.403 8.288 26.5106C8.27218 26.4895 8.25639 26.4685 8.24105 26.447C7.95545 26.0499 7.73503 25.5997 7.63823 25.1184C7.55341 24.6974 7.56585 24.2621 7.64396 23.8406ZM39.5357 26.3576C39.5976 26.3361 39.6584 26.3122 39.7178 26.2859C40.0216 26.154 40.3063 25.9648 40.5152 25.7063C40.6911 25.4888 40.8109 25.2307 40.888 24.9636C40.9048 24.9048 40.9201 24.8451 40.9331 24.7854L40.9676 24.5908L40.7797 24.6544C40.7222 24.6759 40.6657 24.6998 40.6096 24.7251C40.4366 24.8049 40.2703 24.9039 40.1218 25.0243C40.1151 25.1199 40.1012 25.215 40.0806 25.3087C40.002 25.6647 39.8247 25.9944 39.5999 26.2793C39.5789 26.3055 39.5578 26.3318 39.5357 26.3576ZM9.41459 26.3538C9.51474 26.1875 9.6034 26.014 9.6772 25.8343C9.78598 25.5686 9.86215 25.2881 9.88995 25.0018C9.92014 24.6898 9.89186 24.3744 9.82285 24.069C9.74043 23.7058 9.601 23.3555 9.42178 23.0296L9.40549 23.0009C9.40357 23.0028 9.40166 23.0052 9.40023 23.0071C9.26893 23.1691 9.14913 23.3397 9.04323 23.5194C9.03029 23.5414 9.01781 23.5634 9.00535 23.5853C9.24639 23.9572 9.42753 24.3691 9.50563 24.8054C9.59045 25.2766 9.55645 25.7631 9.44623 26.2276C9.43617 26.2697 9.42561 26.3117 9.41459 26.3538ZM38.78 25.9529C38.7125 25.6422 38.6967 25.3182 38.759 25.0057C38.7844 24.879 38.8222 24.7553 38.8706 24.6358C38.7983 24.5077 38.713 24.3868 38.6186 24.2745C38.5788 24.2272 38.5376 24.1818 38.4954 24.1378L38.3526 24.0002L38.3008 24.1909C38.2865 24.2506 38.2745 24.3108 38.2649 24.371C38.217 24.6621 38.2175 24.965 38.2961 25.2508C38.3742 25.5342 38.527 25.7928 38.7144 26.0174L38.78 25.9529ZM39.4533 25.9892C39.6287 25.7421 39.7619 25.4621 39.8122 25.1624C39.8587 24.8867 39.8357 24.6033 39.7715 24.3328C39.7571 24.2731 39.7408 24.2138 39.7226 24.1555L39.657 23.9691L39.5247 24.1163C39.4854 24.1631 39.448 24.2114 39.4116 24.2611C39.2386 24.5005 39.103 24.7715 39.045 25.0621C39.0005 25.2833 39.0024 25.5113 39.0359 25.7345L39.1476 25.6546C39.1514 25.6379 39.1553 25.6207 39.1591 25.604C39.1979 25.4415 39.2396 25.2795 39.2914 25.1194C39.3417 24.9588 39.3987 24.7992 39.4729 24.6429L39.4744 24.6434C39.4917 24.8155 39.4916 24.9846 39.4854 25.1524C39.4801 25.3206 39.4648 25.4874 39.4471 25.6532C39.4385 25.7216 39.4293 25.7904 39.4193 25.8582L39.4533 25.9892ZM40.198 24.3724C40.255 24.3409 40.3111 24.3075 40.3662 24.2721C40.6436 24.0924 40.8933 23.8587 41.0572 23.5696C41.1952 23.3268 41.2709 23.0525 41.3035 22.7763C41.3102 22.7151 41.3155 22.6539 41.3183 22.5928L41.3203 22.3954L41.1458 22.4886C41.0926 22.5196 41.0404 22.5521 40.9896 22.5865C40.832 22.6936 40.6839 22.8183 40.5574 22.9612C40.566 23.0568 40.5684 23.1524 40.5631 23.2484C40.544 23.6126 40.4232 23.9662 40.2483 24.2845C40.232 24.3141 40.2152 24.3433 40.198 24.3724ZM38.8711 24.123C38.9243 24.1889 38.9751 24.2568 39.022 24.327C39.0278 24.3175 39.0335 24.3075 39.0393 24.2979C38.9804 24.2425 38.9243 24.1842 38.8711 24.123ZM39.7154 23.5251C39.725 23.4138 39.737 23.302 39.7533 23.1901C39.7772 23.0238 39.8069 22.857 39.8549 22.6907H39.8558C39.9014 22.8575 39.9292 23.0248 39.9502 23.1916C39.9728 23.3584 39.9852 23.5251 39.9948 23.6919C39.9996 23.8195 40.0034 23.9471 40.0025 24.0747C40.0058 24.0857 40.0092 24.0967 40.0125 24.1082L40.0178 24.0977C40.1716 23.8057 40.2742 23.4797 40.2747 23.1476C40.2751 22.8685 40.2061 22.5923 40.0983 22.3361C40.0744 22.2793 40.049 22.2238 40.0212 22.1689L39.9258 21.9959L39.8194 22.1627C39.7887 22.2157 39.759 22.2692 39.7317 22.3242C39.6 22.5885 39.5108 22.8781 39.5012 23.1744C39.496 23.3392 39.5151 23.5036 39.5535 23.6637C39.5669 23.6513 39.7154 23.5251 39.7154 23.5251ZM39.3191 23.9089C39.2429 23.6685 39.2018 23.4171 39.2099 23.1648C39.2142 23.0358 39.2314 22.9077 39.2592 22.782C39.1672 22.6673 39.0628 22.5617 38.9511 22.4666C38.9046 22.4265 38.8563 22.3882 38.8069 22.3519L38.6444 22.2396L38.6238 22.436C38.62 22.4972 38.6181 22.5584 38.6181 22.6195C38.6185 22.9149 38.6689 23.2135 38.7935 23.4826C38.8927 23.6967 39.0364 23.8869 39.2041 24.0527L39.3191 23.9089ZM8.78111 23.1213C8.82232 23.0726 8.86209 23.0233 8.90091 22.9727C9.17165 22.6205 9.38537 22.2186 9.48504 21.7842C9.55069 21.497 9.56698 21.1992 9.54638 20.9058C9.5205 20.5421 9.43998 20.1827 9.31731 19.8401L9.30581 19.809C9.3039 19.8109 9.3015 19.8128 9.29958 19.8148C9.14385 19.9533 8.99867 20.1034 8.86593 20.264C8.84964 20.2836 8.83382 20.3032 8.81752 20.3232C8.99674 20.728 9.10984 21.1634 9.11799 21.6069C9.12661 22.0852 9.01542 22.5607 8.83285 23.0014C8.81656 23.0415 8.79932 23.0817 8.78111 23.1213ZM6.87007 19.8468L6.86767 19.8549C6.81161 20.0551 6.77087 20.2597 6.74547 20.4661C6.72535 20.6296 6.71529 20.7944 6.71672 20.9588C6.7196 21.2709 6.76369 21.5839 6.86384 21.8802C6.96351 22.1765 7.11734 22.4527 7.30422 22.7027C7.40294 22.8351 7.51076 22.9603 7.62577 23.0783C7.63152 23.0845 7.64253 23.095 7.64253 23.095C7.63103 23.0726 7.61955 23.0501 7.60805 23.0276C7.38953 22.5904 7.24289 22.111 7.2242 21.6207C7.20743 21.1916 7.28889 20.7634 7.43265 20.36L7.43312 20.3595C7.26923 20.1799 7.08858 20.015 6.89642 19.8668L6.87007 19.8468ZM8.52712 22.9765C8.60427 22.8021 8.66896 22.6219 8.71832 22.4379C8.79355 22.1607 8.8343 21.8731 8.82615 21.5858C8.81705 21.2723 8.74995 20.9627 8.64309 20.6683C8.58655 20.5125 8.51898 20.361 8.44231 20.2138C8.34311 20.0231 8.22858 19.8401 8.10064 19.6671L8.09584 19.6599C8.09392 19.6623 8.09251 19.6647 8.09107 19.6671C7.97702 19.8496 7.87735 20.0408 7.79301 20.2386C7.72784 20.3911 7.67224 20.5479 7.62767 20.7075C7.54429 21.009 7.50069 21.323 7.5165 21.636C7.53136 21.939 7.5999 22.2382 7.70532 22.5225C7.76187 22.6745 7.82845 22.8226 7.90368 22.9665L8.00769 22.7404L8.03307 22.6922C8.0278 22.5799 8.02348 22.4671 8.01965 22.3548C8.01438 22.1034 8.01151 21.8525 8.01918 21.6007C8.02541 21.3488 8.03786 21.0965 8.06805 20.8432H8.06949C8.13226 21.0903 8.17682 21.3392 8.21564 21.5882C8.25493 21.8367 8.28466 22.0862 8.31101 22.3361C8.32587 22.4905 8.33976 22.6449 8.35126 22.7992L8.52712 22.9765ZM40.4611 22.3481C40.5128 22.3084 40.5626 22.2664 40.611 22.2224C40.8564 22.0011 41.0653 21.7306 41.1808 21.4191C41.2776 21.1572 41.3088 20.8742 41.2963 20.5966C41.2934 20.5354 41.2886 20.4742 41.2814 20.4136L41.2522 20.2181L41.0946 20.3381C41.0471 20.3768 41.0011 20.4174 40.9561 20.4594C40.8176 20.5899 40.6915 20.7366 40.5895 20.8981C40.6134 20.9909 40.6312 21.085 40.6412 21.1811C40.681 21.5433 40.6187 21.9118 40.4965 22.2535C40.4855 22.2855 40.4735 22.317 40.4611 22.3481ZM39.5381 22.068C39.4145 21.8324 39.3263 21.5782 39.2923 21.3139C39.2755 21.1858 39.2717 21.0568 39.2794 20.9282C39.1701 20.8298 39.0498 20.7424 38.9243 20.6659C38.8721 20.6339 38.8184 20.6038 38.7638 20.5756L38.585 20.491L38.5965 20.6879C38.6023 20.749 38.6104 20.8097 38.6205 20.8704C38.6684 21.1615 38.7662 21.4482 38.932 21.6943C39.0714 21.9008 39.2564 22.0733 39.4615 22.2143L39.5381 22.068ZM40.1798 21.8539C40.2109 21.906 40.2406 21.9596 40.2689 22.0136C40.3528 21.7268 40.3882 21.4234 40.3403 21.1275C40.2962 20.8518 40.1836 20.5899 40.036 20.3543C40.0034 20.3022 39.9694 20.2516 39.933 20.2018L39.8113 20.0461L39.7332 20.2276C39.7111 20.2845 39.6905 20.3423 39.6723 20.4011C39.5846 20.6826 39.5429 20.9827 39.5813 21.2771C39.6033 21.4506 39.6536 21.6188 39.7226 21.7794L39.851 21.6183C39.8414 21.4969 39.8343 21.3751 39.8328 21.2523C39.829 21.0845 39.8319 20.9153 39.8525 20.7433H39.8539C39.9253 20.9005 39.9795 21.0611 40.0274 21.2222C40.0763 21.3832 40.1151 21.5462 40.151 21.7091C40.1611 21.7574 40.1707 21.8052 40.1798 21.8539ZM40.4817 20.297C40.5286 20.252 40.5742 20.2047 40.6178 20.1564C40.8387 19.9108 41.0184 19.6202 41.1008 19.2986C41.1703 19.0281 41.1717 18.7433 41.13 18.4685C41.1214 18.4078 41.1099 18.3476 41.0965 18.2879L41.0471 18.0967L40.9029 18.232C40.8597 18.2754 40.8181 18.3209 40.7778 18.3672C40.6532 18.5115 40.5435 18.6707 40.4587 18.8418C40.4922 18.9311 40.5195 19.0234 40.5396 19.117C40.6168 19.4735 40.5928 19.8468 40.5071 20.199C40.4994 20.232 40.4908 20.2645 40.4817 20.297ZM39.4921 20.047C39.3652 19.8434 39.2669 19.6226 39.2113 19.3894C39.1821 19.2656 39.1653 19.1395 39.1591 19.0133L39.1586 19.0066C39.0398 18.9201 38.9113 18.8456 38.7786 18.7825C38.723 18.7562 38.6665 18.7318 38.6094 18.7094L38.4226 18.6434L38.4547 18.8384C38.4666 18.8982 38.481 18.9579 38.4973 19.0171C38.5754 19.3015 38.7019 19.5768 38.8926 19.8042C39.0398 19.9796 39.2219 20.1225 39.4198 20.2367L39.4921 20.047ZM39.5956 18.0762C39.5741 18.1378 39.5544 18.1999 39.5372 18.263C39.5209 18.3218 39.507 18.3815 39.495 18.4418C39.437 18.7309 39.4265 19.0339 39.495 19.3225C39.529 19.4649 39.5818 19.6021 39.6479 19.7326L39.749 19.5663L39.795 19.6102C39.7744 19.4984 39.7562 19.3856 39.7428 19.2719C39.7222 19.1051 39.7073 18.9364 39.7097 18.7634L39.7106 18.7629C39.7983 18.9125 39.8688 19.0664 39.933 19.2217C39.9986 19.377 40.0542 19.5347 40.1069 19.6934C40.1505 19.832 40.1932 19.9715 40.2287 20.1125C40.231 20.1015 40.2334 20.0905 40.2363 20.079C40.3077 19.7569 40.3211 19.4157 40.2349 19.095C40.162 18.8255 40.0231 18.577 39.8515 18.3576C39.8137 18.3094 39.7744 18.2621 39.7336 18.2167L39.5961 18.0743L39.5956 18.0762ZM9.90817 16.7199C9.90817 16.7199 9.65611 16.8972 9.52289 16.9708C9.45389 17.009 9.38391 17.0458 9.31251 17.0802C9.38918 17.5084 9.39686 17.9505 9.30342 18.3763C9.20087 18.8437 8.98283 19.2805 8.70346 19.6676C8.67806 19.7029 8.65172 19.7378 8.62537 19.7722C8.67664 19.7345 8.72696 19.6958 8.77631 19.6551C9.12085 19.3746 9.42179 19.0329 9.6197 18.6329C9.75004 18.3686 9.83483 18.0833 9.88275 17.7928C9.94073 17.4387 9.9465 17.0764 9.90817 16.7199ZM8.4011 19.5863L8.40446 19.582C8.7121 19.1787 8.95075 18.7127 9.0394 18.2105C9.09163 17.9123 9.09161 17.6064 9.05279 17.3067C9.00727 16.9531 8.90953 16.6062 8.77248 16.2774L8.75953 16.2468C8.75761 16.2487 8.75569 16.2506 8.7533 16.2525C8.60523 16.3992 8.46819 16.5565 8.3436 16.7232C8.24488 16.8556 8.1543 16.9937 8.07332 17.1371C7.92093 17.4095 7.80403 17.7034 7.74317 18.0102C7.68279 18.3165 7.67943 18.6324 7.71729 18.9421C7.73693 19.1056 7.76857 19.2676 7.8093 19.4272C7.81792 19.4602 7.82701 19.4931 7.83612 19.5256L7.96981 19.3273C7.99808 19.1682 8.02972 19.0095 8.06182 18.8513C8.11453 18.6057 8.17014 18.3605 8.23579 18.1173C8.3 17.874 8.37092 17.6312 8.45909 17.3918H8.46053C8.46388 17.647 8.44997 17.8993 8.42985 18.1502C8.41068 18.4016 8.38145 18.6511 8.34982 18.9001C8.32587 19.0711 8.30094 19.2422 8.27267 19.4124L8.4011 19.5863ZM7.5237 16.1464L7.5194 16.1536C7.41877 16.3361 7.33154 16.5254 7.25918 16.7204C7.20168 16.8747 7.15375 17.0329 7.11733 17.1935C7.04737 17.4974 7.01815 17.8124 7.0469 18.1235C7.07517 18.4346 7.16143 18.739 7.28506 19.0253C7.35023 19.1768 7.42643 19.323 7.51077 19.4649C7.51412 19.4702 7.51748 19.4759 7.52083 19.4817L7.52416 19.4869C7.51793 19.4616 7.5117 19.4363 7.50547 19.4109C7.38951 18.9158 7.3603 18.3949 7.46956 17.896C7.55725 17.4955 7.72928 17.118 7.95258 16.7749C7.83135 16.555 7.68853 16.3467 7.52896 16.1531L7.5237 16.1464ZM39.2377 18.2578C39.0939 18.0752 38.9751 17.8731 38.895 17.6542C38.8514 17.5347 38.8198 17.4119 38.7987 17.2872L38.7978 17.2809C38.6693 17.2083 38.5333 17.1495 38.3938 17.1022C38.3358 17.0826 38.2769 17.0649 38.2175 17.0496L38.0244 17.0057L38.079 17.1959C38.0981 17.2537 38.1192 17.3115 38.1422 17.3684C38.2529 17.6418 38.4115 17.9003 38.6277 18.1039C38.792 18.2587 38.9866 18.3782 39.1936 18.4685L39.2377 18.2578ZM40.2636 18.4073C40.3048 18.3572 40.3441 18.3051 40.382 18.252C40.5722 17.982 40.7165 17.6728 40.7605 17.3436C40.7974 17.0669 40.7658 16.7839 40.6925 16.5158C40.6762 16.4566 40.658 16.3983 40.6379 16.34L40.566 16.156L40.439 16.3075C40.4012 16.3557 40.3647 16.4054 40.3307 16.4561C40.2239 16.6143 40.1333 16.7849 40.0695 16.9646C40.1132 17.0497 40.151 17.1381 40.1822 17.2289C40.3005 17.5739 40.3207 17.9471 40.2775 18.3075C40.2732 18.3409 40.2689 18.3739 40.2636 18.4073ZM40.0044 18.0843C40.0178 17.7985 39.9838 17.5089 39.8769 17.2427C39.7729 16.9837 39.6057 16.7529 39.4097 16.555C39.3666 16.5115 39.3215 16.4695 39.2755 16.4289L39.1227 16.3036L39.0863 16.4977C39.0772 16.5584 39.07 16.6191 39.0652 16.6802C39.0417 16.9746 39.0671 17.2762 39.1687 17.5548C39.2147 17.6795 39.2751 17.798 39.3465 17.9094L39.4021 17.7775L39.4845 17.604L39.4576 17.6604C39.4404 17.5992 39.4241 17.5376 39.4092 17.4759C39.3685 17.3125 39.3345 17.1467 39.3163 16.9746L39.3177 16.9741C39.4222 17.1123 39.5099 17.257 39.5923 17.4038C39.6752 17.5505 39.749 17.7005 39.8204 17.8516C39.8295 17.8726 39.8391 17.8936 39.8486 17.9146L40.0044 18.0843ZM38.7963 16.4671C38.6526 16.317 38.528 16.1498 38.4321 15.9648C38.3732 15.852 38.3263 15.734 38.2894 15.6131L38.2874 15.6069C38.1509 15.5514 38.0085 15.5103 37.8643 15.4812C37.8039 15.4692 37.7431 15.4592 37.6822 15.4511L37.4853 15.4324L37.5639 15.6136C37.5902 15.669 37.6185 15.7235 37.6487 15.777C37.7934 16.0341 37.9836 16.2707 38.2242 16.4451C38.3895 16.5651 38.5759 16.6535 38.7705 16.7156L38.7868 16.5378C38.7896 16.5144 38.793 16.4905 38.7963 16.4671ZM9.96517 16.3161C10.1209 16.1837 10.2632 16.0365 10.3869 15.874C10.5771 15.6246 10.7189 15.3412 10.821 15.0449C10.9418 14.6927 11.0079 14.3218 11.0266 13.9505L11.028 13.917C11.0252 13.918 11.0228 13.919 11.0199 13.9199C10.823 13.9887 10.6313 14.0719 10.4468 14.1694C10.4242 14.1813 10.4017 14.1933 10.3792 14.2057C10.3888 14.6482 10.3265 15.0936 10.1631 15.506C10.0011 15.9166 9.74621 16.286 9.4424 16.6052L9.65755 16.4738C9.75051 16.4207 9.96517 16.3161 9.96517 16.3161ZM39.8851 16.5383C39.9201 16.4829 39.9522 16.4265 39.9828 16.3691C40.1376 16.0771 40.2411 15.7517 40.2425 15.4195C40.244 15.1405 40.1759 14.8637 40.0691 14.6071C40.0451 14.5507 40.0197 14.4948 39.9924 14.4403L39.8975 14.2669L39.7907 14.4332C39.7595 14.4857 39.7303 14.5397 39.7025 14.5942C39.6167 14.7643 39.5487 14.945 39.5084 15.1318C39.5631 15.2107 39.6119 15.2934 39.6541 15.3794C39.8156 15.7068 39.8836 16.0743 39.886 16.437C39.8865 16.4704 39.886 16.5044 39.8851 16.5383ZM9.15919 16.4795C9.27181 16.3667 9.37771 16.2477 9.47498 16.1216C9.65085 15.8941 9.79891 15.6437 9.90194 15.3751C10.0141 15.0821 10.0711 14.7706 10.0855 14.4575C10.1022 14.0857 10.0615 13.7115 9.97526 13.3493L9.9671 13.3173C9.96471 13.3192 9.9628 13.3206 9.96041 13.3225C9.79077 13.4434 9.62976 13.5768 9.48025 13.7221C9.36189 13.8368 9.25022 13.9586 9.14767 14.0876C8.94785 14.339 8.78158 14.6186 8.67281 14.9216C8.57026 15.2074 8.51898 15.5099 8.507 15.8124C8.50317 15.9046 8.50318 15.9964 8.50653 16.0881C8.56452 16.0293 8.62488 15.9725 8.6867 15.9175L8.85154 15.7799L8.8568 15.7899L8.8616 15.7775C8.95313 15.5433 9.04706 15.3106 9.15057 15.0807C9.25311 14.8504 9.36189 14.6224 9.48744 14.3997L9.48838 14.4002C9.45148 14.6525 9.39734 14.8996 9.33696 15.1443C9.27802 15.389 9.20951 15.6308 9.13811 15.8716C9.10744 15.972 9.0758 16.0719 9.0437 16.1713C9.05041 16.1866 9.05662 16.2019 9.06285 16.2176C9.09783 16.3036 9.12996 16.3911 9.15919 16.4795ZM39.5918 16.3256C39.576 16.0155 39.5055 15.7044 39.3532 15.432C39.2166 15.1882 39.0215 14.9804 38.8016 14.8093C38.7532 14.7715 38.7034 14.7357 38.6526 14.7013L38.4849 14.5966L38.4739 14.7935C38.4724 14.8547 38.4734 14.9163 38.4762 14.9775C38.4901 15.2719 38.5539 15.5682 38.6909 15.8315C38.7417 15.9299 38.8026 16.0231 38.8711 16.1101L38.9564 15.8492L38.9736 15.8602C38.9549 15.8143 38.9363 15.7689 38.919 15.7225C38.8577 15.5658 38.8026 15.4062 38.7628 15.2375L38.7638 15.237C38.8855 15.3603 38.9909 15.4927 39.0915 15.6279C39.1926 15.7627 39.2851 15.9022 39.3747 16.0432C39.4121 16.1039 39.449 16.1641 39.4849 16.2257L39.5918 16.3256ZM9.08634 13.7106C9.0044 13.4817 8.9009 13.2609 8.78015 13.0501L8.76336 13.0215C8.76144 13.0239 8.76001 13.0262 8.75809 13.0282C8.62536 13.1978 8.50507 13.377 8.40013 13.5648C8.32298 13.7025 8.25352 13.8444 8.19458 13.9906C8.07718 14.2798 7.9976 14.5861 7.97604 14.8977C7.95448 15.2093 7.9909 15.5232 8.06709 15.8257C8.10734 15.9854 8.15864 16.1426 8.2195 16.2955C8.22285 16.3036 8.22571 16.3113 8.22906 16.3194C8.22954 16.3232 8.22523 16.2711 8.22283 16.242C8.18737 15.7345 8.242 15.216 8.42985 14.7404C8.58031 14.3591 8.8108 14.014 9.08634 13.7106ZM38.1815 14.8236C37.9712 14.6917 37.779 14.5297 37.6233 14.3362C37.5432 14.2368 37.4738 14.1307 37.4134 14.0193C37.4134 14.0193 37.3046 13.9959 37.2514 13.9897C37.1771 13.9811 37.1024 13.9768 37.0271 13.9744C36.9994 13.9739 36.9711 13.9739 36.9428 13.9739C36.8906 13.9749 36.8388 13.9768 36.7866 13.9801L36.5897 14.0007C36.6481 14.0924 36.7128 14.1804 36.7823 14.2645C36.9936 14.5187 37.2548 14.739 37.5615 14.868C37.7599 14.9517 37.9721 14.9966 38.1863 15.0129L38.1815 14.8236ZM38.6516 12.5665C38.6387 12.6024 38.5141 13.2336 38.5131 13.3068C38.5821 13.3737 38.6463 13.4454 38.7053 13.5213C38.9286 13.8105 39.0676 14.1569 39.1423 14.512C39.1495 14.545 39.1557 14.578 39.1615 14.6114C39.1845 14.5503 39.2051 14.4886 39.2238 14.4265C39.3172 14.1096 39.3541 13.7703 39.2899 13.4444C39.2358 13.1706 39.1145 12.913 38.9588 12.6826C38.9243 12.6315 38.8884 12.5823 38.8505 12.5335L38.723 12.3825L38.6516 12.5665ZM38.8347 14.4733C38.7585 14.1679 38.6267 13.8726 38.4202 13.6322C38.2386 13.42 38.0057 13.2547 37.7565 13.1304C37.7014 13.1027 37.6458 13.0774 37.5888 13.054L37.4038 12.9842L37.4316 13.1796C37.4426 13.2399 37.4556 13.2996 37.4704 13.3593C37.5428 13.6451 37.664 13.9233 37.8504 14.1541C37.9525 14.2807 38.0723 14.3916 38.2036 14.4876L38.2395 14.2779C38.1748 14.188 38.112 14.0967 38.0526 14.0026C37.9616 13.8607 37.8758 13.7149 37.803 13.5577L37.8044 13.5567C37.9477 13.6542 38.0775 13.7627 38.2026 13.8759C38.3286 13.9878 38.447 14.1063 38.563 14.2267C38.6157 14.2836 38.6679 14.3404 38.7197 14.3983C38.7585 14.4222 38.7968 14.4475 38.8347 14.4733ZM10.2714 13.3369C10.2982 13.4544 10.3447 13.6881 10.3447 13.6881C10.7151 13.4415 11.0472 13.1304 11.2825 12.751C11.4377 12.5006 11.5494 12.2243 11.6251 11.94C11.7186 11.5873 11.7588 11.2212 11.7535 10.8575L11.7531 10.8241C11.7502 10.8255 11.7478 10.8265 11.7449 10.8274C11.5528 10.9092 11.3668 11.0043 11.189 11.1132C11.0486 11.1992 10.913 11.2939 10.7846 11.3976C10.5417 11.594 10.3236 11.8234 10.1535 12.0862C9.98291 12.3486 9.86217 12.6406 9.78214 12.9421C9.76633 13.0023 9.75194 13.0626 9.739 13.1232L9.94841 12.9808L10.1329 12.8709L10.1597 12.9498C10.2925 12.7534 10.4276 12.5584 10.5709 12.3677C10.7209 12.1651 10.8771 11.9663 11.0477 11.7765L11.0491 11.777C10.9576 12.0155 10.8507 12.2444 10.7386 12.47C10.6274 12.6965 10.5076 12.9173 10.3854 13.1371C10.3476 13.2031 10.3097 13.2695 10.2709 13.3354L10.2714 13.3369ZM11.3122 13.5352C11.3151 13.5964 11.316 13.6222 11.316 13.6222C11.4387 13.5438 11.5552 13.4559 11.6639 13.3584C11.8954 13.1505 12.088 12.902 12.2452 12.6344C12.4259 12.3266 12.5619 11.9926 12.6549 11.648L12.6568 11.6399C12.6544 11.6403 12.6515 11.6408 12.6487 11.6408C12.4345 11.6661 12.2222 11.7077 12.0142 11.7656C11.9965 11.7703 11.9788 11.7756 11.961 11.7808C11.8738 12.2143 11.7152 12.6358 11.466 13.0028C11.2954 13.2537 11.087 13.4764 10.8541 13.6704C10.9423 13.6384 11.0319 13.6088 11.1224 13.5839L11.3122 13.5352ZM37.1561 13.2877C36.9783 13.1777 36.8149 13.0454 36.6754 12.8896C36.5897 12.793 36.5135 12.6888 36.4468 12.5785C36.3582 12.5665 36.2691 12.5598 36.1795 12.5579C36.1598 12.5579 36.1397 12.5574 36.1201 12.5574C35.9547 12.5589 35.7899 12.5761 35.6274 12.6066L35.626 12.6071C35.6893 12.6955 35.7583 12.7801 35.8321 12.8604C36.0558 13.1037 36.328 13.3106 36.6409 13.4238C36.8259 13.4907 37.0204 13.5252 37.2164 13.5347L37.216 13.5323C37.1949 13.4602 37.1561 13.2877 37.1561 13.2877ZM10.8071 11.0167C10.8019 10.9737 10.7956 10.9311 10.7889 10.8886C10.7563 10.6831 10.7079 10.4805 10.6452 10.2822L10.6423 10.274C10.6404 10.276 10.638 10.2774 10.6361 10.2793C10.3533 10.5106 10.0989 10.7782 9.88898 11.0764C9.70497 11.3388 9.55595 11.6265 9.46442 11.9338C9.37529 12.2334 9.34174 12.5479 9.34989 12.8594C9.35468 13.0243 9.37052 13.1887 9.39639 13.3512C9.39783 13.3598 9.39926 13.3684 9.40069 13.377L9.41172 13.2991C9.48456 12.816 9.64125 12.3405 9.90864 11.928C10.143 11.5677 10.4564 11.2642 10.8071 11.0167ZM38.3301 12.6152C38.3588 12.3816 38.3521 12.1436 38.2946 11.9147C38.2266 11.6437 38.0924 11.3928 37.9247 11.1701C37.8878 11.1214 37.849 11.0736 37.8092 11.0272L37.6741 10.8824L37.6122 11.0697C37.595 11.1285 37.5797 11.1883 37.5662 11.248C37.5255 11.4339 37.5049 11.626 37.5121 11.8167L37.5164 11.8205C37.5869 11.8826 37.653 11.9491 37.7143 12.0208C37.952 12.2979 38.1092 12.6372 38.2017 12.988C38.2089 13.0148 38.2156 13.0415 38.2218 13.0678L38.2299 13.074C38.2338 13.0621 38.2424 13.0277 38.2424 13.0277C38.2606 12.8881 38.2908 12.75 38.3301 12.6152ZM36.3874 11.5519C36.398 11.6164 36.4104 11.6805 36.4253 11.744C36.4392 11.8038 36.455 11.863 36.4732 11.9218C36.56 12.2038 36.6956 12.4748 36.893 12.6965C36.9577 12.7687 37.0286 12.8351 37.1038 12.8958L37.1 12.6071L37.1469 12.6176C37.1268 12.5904 37.1067 12.5627 37.087 12.5345C36.9893 12.3978 36.8959 12.2564 36.8154 12.1029L36.8163 12.102C36.9644 12.1923 37.1 12.2941 37.2308 12.4002C37.3621 12.5058 37.4862 12.6181 37.6084 12.7328L37.6357 12.7591C37.675 12.7744 37.7138 12.7906 37.7527 12.8074C37.7872 12.8231 37.8217 12.8389 37.8562 12.8556C37.7637 12.5947 37.6271 12.3476 37.4354 12.146C37.2428 11.9433 37.0022 11.7904 36.7468 11.6786C36.6908 11.6537 36.6337 11.6313 36.5758 11.6107L36.3869 11.5505L36.3874 11.5519ZM35.0902 11.2418C35.027 11.2427 34.9637 11.2456 34.9005 11.2508L34.6542 11.2829C34.716 11.3722 34.7836 11.4583 34.8559 11.5395C35.0754 11.7866 35.3442 11.9978 35.6557 12.1168C35.8541 12.1923 36.0654 12.2301 36.2777 12.2401L36.1934 12.0026C36.0093 11.8869 35.8412 11.7474 35.6988 11.583C35.6155 11.4865 35.5426 11.3827 35.4784 11.2733L35.4755 11.2681C35.4334 11.2614 35.2139 11.2265 35.0902 11.2418ZM26.0857 11.7651C25.4096 12.2391 24.4752 12.0776 23.9998 11.4028C23.5244 12.0776 22.59 12.2391 21.9139 11.7651C21.3465 11.3679 21.1275 10.6339 21.3849 9.99112C21.5296 10.7567 22.2694 11.2609 23.0371 11.1156C23.4416 11.0401 23.7938 10.7916 23.9998 10.436C24.2059 10.7916 24.5581 11.0401 24.962 11.1156C25.7302 11.2609 26.4701 10.7567 26.6148 9.99112C26.8721 10.6339 26.6531 11.3679 26.0857 11.7651ZM37.3712 10.8652C37.364 10.7878 37.3521 10.7113 37.3343 10.6353C37.2711 10.3634 37.1407 10.1101 36.9773 9.88502C36.9409 9.83532 36.9035 9.78706 36.8638 9.74023L36.7315 9.59303L36.6663 9.77942C36.6481 9.8382 36.6318 9.89698 36.6174 9.95672C36.5738 10.1421 36.5494 10.3338 36.5532 10.5245C36.6242 10.5885 36.6912 10.6578 36.7526 10.7319C36.9572 10.9794 37.0986 11.2738 37.1891 11.5806C37.2006 11.5878 37.2121 11.5949 37.2236 11.6021C37.2337 11.4224 37.2644 11.2432 37.3099 11.0697C37.3271 11.0033 37.3712 10.8652 37.3712 10.8652ZM35.4338 10.2406C35.443 10.3056 35.4544 10.3696 35.4683 10.4337C35.4808 10.4934 35.4961 10.5527 35.5129 10.6114C35.5953 10.8953 35.7257 11.1687 35.9197 11.3933C35.9739 11.4563 36.0328 11.5147 36.0951 11.5691C36.0865 11.5113 36.0798 11.4525 36.0755 11.3942L36.0645 11.1892L36.0879 11.1935C36.0026 11.0678 35.9221 10.9383 35.8522 10.7988L35.8531 10.7978C35.9998 10.8905 36.1335 10.9947 36.2624 11.1032C36.3256 11.1562 36.3874 11.2102 36.4483 11.2661L36.7262 11.3565C36.755 11.3675 36.7837 11.3785 36.812 11.3904C36.7281 11.194 36.6165 11.01 36.4713 10.8523C36.2825 10.6463 36.0443 10.4891 35.7908 10.3734C35.7353 10.3476 35.6782 10.3242 35.6207 10.3022L35.4334 10.2392L35.4338 10.2406ZM12.8221 11.335L12.8413 11.3345C12.986 11.2781 13.1259 11.2107 13.2592 11.1314C13.5366 10.966 13.7805 10.7486 13.989 10.5029C14.0963 10.3768 14.1946 10.243 14.2846 10.1034C14.4011 9.92278 14.5032 9.73258 14.5904 9.53617L14.5942 9.52852L14.3881 9.52517C14.312 9.5266 14.2358 9.529 14.16 9.53426C14.068 9.53999 13.976 9.54907 13.8845 9.56102C13.7321 9.97679 13.5107 10.3687 13.2084 10.6936C12.9266 10.9961 12.5825 11.2351 12.2126 11.4181L12.5025 11.367C12.6084 11.3517 12.7153 11.3402 12.8221 11.335ZM12.0377 11.1801C12.1417 11.1304 12.2437 11.0759 12.3425 11.0167C12.5816 10.8733 12.8044 10.7003 12.9946 10.4963C13.2146 10.2602 13.3876 9.983 13.5189 9.6891C13.5864 9.53808 13.643 9.38181 13.6899 9.22315C13.7513 9.01669 13.7959 8.80594 13.8246 8.5928L13.8256 8.5842C13.8227 8.58515 13.8198 8.58563 13.8174 8.58659C13.6152 8.63772 13.4163 8.70319 13.2242 8.78396C13.0718 8.84799 12.9237 8.92063 12.7809 9.00378C12.5107 9.16053 12.26 9.35409 12.0516 9.58778C11.8484 9.81526 11.6874 10.0776 11.5633 10.3553C11.5216 10.4494 11.4837 10.5445 11.4497 10.6415C11.4756 10.6291 11.5015 10.6172 11.5278 10.6052C11.6251 10.5613 11.7248 10.5202 11.8259 10.4853L11.9122 10.4571C12.0775 10.2783 12.2457 10.101 12.4206 9.92947C12.6003 9.75265 12.7848 9.57965 12.9832 9.41812L12.9841 9.41908C12.8571 9.64035 12.7162 9.85062 12.5711 10.0566C12.4263 10.263 12.2744 10.4633 12.1196 10.6616C12.0938 10.6941 12.0684 10.7261 12.0425 10.7586C12.0444 10.8088 12.0454 10.859 12.0454 10.9092C12.0458 10.9995 12.043 11.0898 12.0377 11.1801ZM35.2805 10.8408C35.0189 10.6984 34.7788 10.5135 34.5905 10.2826C34.5085 10.1823 34.4371 10.0743 34.3758 9.96102C34.3231 9.95146 34.2699 9.94381 34.2162 9.93808C34.1419 9.92995 34.0672 9.92612 33.9919 9.92469L33.7763 9.92996L33.5545 9.95384C33.6139 10.0451 33.679 10.1326 33.749 10.2157C33.9618 10.469 34.2244 10.6874 34.532 10.815C34.7141 10.89 34.9072 10.9331 35.1032 10.9512L35.3251 10.9584C35.3093 10.9197 35.2944 10.8805 35.2805 10.8408ZM12.8614 8.63008C12.8686 8.38731 12.8528 8.14405 12.8173 7.90415L12.8125 7.87165C12.8102 7.87309 12.8077 7.87452 12.8054 7.87596C12.6257 7.98157 12.4536 8.10056 12.2917 8.23199C12.1637 8.33569 12.042 8.44751 11.9285 8.56699C11.7075 8.8002 11.5173 9.06448 11.3826 9.35647C11.2552 9.63222 11.1775 9.92947 11.1392 10.2301C11.1172 10.4021 11.1076 10.5761 11.1095 10.7495L11.1325 10.674C11.2849 10.1885 11.5254 9.72541 11.8738 9.35074C12.1537 9.05062 12.4939 8.81263 12.8614 8.63008ZM35.66 10.0074C35.5877 9.8511 35.4961 9.70391 35.383 9.57296C35.1995 9.36221 34.9661 9.19876 34.716 9.07547C34.6609 9.0487 34.6048 9.02338 34.5478 8.99996L34.3624 8.9321L34.3916 9.12708C34.4026 9.18729 34.416 9.24703 34.4314 9.30629C34.5056 9.59207 34.6288 9.86925 34.8162 10.0991C34.9187 10.2243 35.0385 10.3338 35.1698 10.4284C35.1492 10.3233 35.1344 10.2162 35.1267 10.1092V10.1087C35.0893 10.0552 35.0529 10.0012 35.0174 9.9462C34.9254 9.80474 34.8387 9.65946 34.7654 9.50271L34.7663 9.50175C34.9101 9.59828 35.0409 9.7063 35.1669 9.81812C35.1971 9.84489 35.2264 9.87165 35.2556 9.89841C35.2556 9.89841 35.2431 9.89602 35.3064 9.90796C35.3778 9.9223 35.4482 9.94046 35.5182 9.96149C35.5656 9.97535 35.6131 9.99112 35.66 10.0074ZM37.5744 10.4126L37.571 10.4098L37.5744 10.4131V10.4126ZM36.2159 10.2712C36.2887 9.98061 36.3112 9.67476 36.2514 9.3799C36.1958 9.10654 36.0726 8.84991 35.9149 8.62004C35.8804 8.56986 35.844 8.52015 35.8057 8.47236L35.6777 8.32183L35.6073 8.5063C35.5872 8.56413 35.5695 8.6229 35.5536 8.68216C35.5048 8.86615 35.4751 9.05684 35.4741 9.24752C35.4741 9.24752 35.6088 9.38658 35.6672 9.46065C35.8325 9.67188 35.9528 9.91465 36.0352 10.1694C36.0966 10.2009 36.1569 10.2348 36.2159 10.2712ZM34.1932 9.5309C33.9517 9.41382 33.7279 9.25994 33.542 9.06591C33.4543 8.97368 33.3757 8.8738 33.3062 8.76771L33.3029 8.76244L33.1112 8.75146C33.0958 8.75098 33.0805 8.75098 33.0652 8.75098C32.8702 8.75241 32.6756 8.77583 32.4849 8.81884H32.4834C32.5496 8.90534 32.6219 8.98753 32.6981 9.06543C32.93 9.30103 33.209 9.49841 33.5257 9.60115C33.5799 9.61836 33.6345 9.63318 33.6896 9.64561C33.7605 9.63939 33.8319 9.63556 33.9028 9.63413C33.934 9.63365 33.9656 9.63365 33.9967 9.63413C34.0758 9.63556 34.1549 9.63987 34.2339 9.648L34.1932 9.5309ZM34.5833 8.70176C34.4994 8.55409 34.3978 8.41645 34.2766 8.29697C34.0772 8.10104 33.8314 7.95624 33.5722 7.85301C33.5152 7.83055 33.4572 7.80952 33.3987 7.79089L33.2085 7.73736L33.253 7.92948C33.2688 7.98874 33.2866 8.04751 33.3067 8.10534C33.4035 8.38443 33.5477 8.65063 33.7528 8.8652C33.8563 8.97321 33.9728 9.06639 34.0988 9.1462L34.0974 9.13856C34.0811 9.04537 34.0691 8.95122 34.0624 8.8566V8.84991C34.0212 8.79973 33.9805 8.74907 33.9412 8.69698C33.8386 8.56364 33.7408 8.42553 33.6551 8.275L33.656 8.27405C33.8075 8.35911 33.9459 8.45612 34.0801 8.55791L34.0873 8.56365L34.244 8.5971C34.3154 8.61335 34.3854 8.6339 34.4544 8.65636C34.498 8.6707 34.5406 8.68551 34.5833 8.70176ZM35.1501 8.98993C35.211 8.67595 35.2158 8.34621 35.1272 8.03653C35.05 7.76843 34.9067 7.52183 34.7318 7.30535C34.6935 7.25756 34.6532 7.21119 34.6116 7.16627L34.4721 7.02625L34.416 7.21598C34.4007 7.27476 34.3878 7.33497 34.3768 7.39519C34.3423 7.58252 34.3279 7.77511 34.3418 7.96531C34.4156 8.02601 34.486 8.09149 34.5507 8.1627C34.7457 8.37488 34.8914 8.6272 34.9959 8.89482C35.0481 8.92493 35.0998 8.95648 35.1501 8.98993ZM14.1347 8.41215C14.1289 8.51298 14.1169 8.61335 14.1016 8.71276C14.0958 8.75194 14.0891 8.79112 14.0824 8.8303C14.1946 8.74189 14.2976 8.64154 14.3862 8.52876C14.5592 8.30845 14.6761 8.048 14.7494 7.77894C14.7657 7.71968 14.7796 7.65946 14.7916 7.59925L14.8237 7.40331C14.8228 7.40379 14.8223 7.40379 14.8213 7.40379C14.759 7.42386 14.6967 7.44585 14.6359 7.46974C14.5789 7.4922 14.5223 7.51705 14.4667 7.54333C14.1989 7.67093 13.9487 7.84489 13.758 8.07332C13.6847 8.16078 13.621 8.25493 13.5659 8.35385L13.5749 8.35146C13.6919 8.31705 13.8107 8.28694 13.931 8.264L13.9856 8.25445C14.104 8.14166 14.2266 8.03223 14.3627 7.93378L14.3637 7.93425C14.298 8.08909 14.22 8.2339 14.1361 8.3744L14.1347 8.41215Z" fill="#4E4E4E"/>
</svg>
