<svg width="48" height="48" viewBox="0 0 48 48" fill="none" xmlns="http://www.w3.org/2000/svg">
<path fill-rule="evenodd" clip-rule="evenodd" d="M26.1324 0L13.8283 7.58904C13.4335 8.18399 13.1798 8.88961 13.1798 9.74722C13.1798 11.7878 14.8506 12.6283 16.5275 13.3737L22.2238 15.9034C21.2905 15.4553 20.2433 14.9187 20.2433 14.2228C20.2433 13.6116 20.7861 13.213 21.1897 12.9668L25.7468 10.1895C27.8162 8.9332 29.0419 7.29715 29.0419 4.84708C29.0419 2.55798 27.6075 0.844099 26.1324 0ZM27.482 27.225C28.3846 27.6384 28.6914 27.9644 28.6914 28.481C28.6914 28.9775 28.259 29.4339 26.9211 30.1792L25.3262 31.0814L34.6857 35.274C35.3245 34.7262 35.7724 33.9273 35.7724 33.1335C35.7724 31.7372 35.1216 30.626 33.0381 29.6839L27.482 27.225ZM8.5 41.9078L14.4593 38.3167L23.7487 42.5092L17.8245 46.2949C16.5802 47.043 15.4514 47.4801 14.2665 47.4801C11.2003 47.4801 8.6473 44.9553 8.5 41.9078Z" fill="#80B0D5"/>
<path fill-rule="evenodd" clip-rule="evenodd" d="M24.8881 15.6203L35.8076 8.98657C37.2831 9.84546 38.7347 11.5279 38.7347 13.816C38.7347 16.2658 37.5421 17.952 35.422 19.1584L34.2827 19.8129L24.8881 15.6203ZM13.0923 25.0491C13.0923 23.9072 13.427 23.3094 13.9686 22.7141L23.3633 26.8889L21.0321 28.2334C20.3916 28.6312 19.9454 28.991 19.9454 29.4894C19.9454 30.0284 20.5601 30.4753 21.3827 30.8515L16.9483 28.8879C16.8635 28.8497 16.779 28.8117 16.6948 28.7739C14.8084 27.9274 13.0923 27.1572 13.0923 25.0491Z" fill="#A2D993"/>
<path d="M13.8281 7.58911C11.2531 9.17732 9.62158 11.334 9.62158 14.6298C9.62158 18.2091 11.8449 20.2578 15.4056 21.8473L33.038 29.684C35.1198 30.626 35.7722 31.7391 35.7722 33.1336C35.7722 33.9283 35.3243 34.7263 34.6856 35.2741L35.7197 34.6195C37.9376 33.2267 39.3303 31.3356 39.3303 28.3396C39.3303 24.4976 36.8036 22.391 33.6865 20.9982L16.5273 13.3738C14.8505 12.6284 13.1796 11.7879 13.1796 9.7473C13.1796 8.88968 13.4333 8.18406 13.8281 7.58911Z" fill="#086DA9"/>
<path d="M37.3927 47.9358C35.027 46.0969 32.5033 44.8531 29.435 43.4482L15.2553 37.1161C11.6928 35.5138 9.33057 33.3774 9.33057 29.7825C9.33057 26.2881 11.0065 24.5963 13.185 23.2065L13.9724 22.7083C13.4308 23.3036 13.0874 23.9016 13.0874 25.0436C13.0874 27.2458 14.9595 27.9911 16.9427 28.8855L33.4394 36.2228C36.309 37.4662 38.9351 39.6054 38.9351 43.2481C38.9351 45.2507 38.1802 47.0425 37.3927 47.9358Z" fill="#35AF3B"/>
</svg>
